<?xml version="1.0" encoding="utf-8"?>
<!-- Generator: Adobe Illustrator 24.1.2, SVG Export Plug-In . SVG Version: 6.00 Build 0)  -->
<svg version="1.1" id="Слой_1" xmlns="http://www.w3.org/2000/svg" xmlns:xlink="http://www.w3.org/1999/xlink" x="0px" y="0px"
	 viewBox="0 0 359 539" style="enable-background:new 0 0 359 539;" xml:space="preserve">
<style type="text/css">
	.st0{fill:#FFFFFF;stroke:#000000;}
</style>
<g id="g14566" transform="translate(3540,657.64)">
	<path id="rect14568" class="st0" d="M-3510.6-657.6h299.1c16.5,0,29.9,13.4,29.9,29.9v479.1c0,16.5-13.4,29.9-29.9,29.9h-299.1
		c-16.5,0-29.9-13.4-29.9-29.9v-479.1C-3540.5-644.2-3527.1-657.6-3510.6-657.6z"/>
	<g id="g14570" transform="translate(5,22.362)">
		<path id="path14572" d="M-3531-650.5l-5,7v7l5-7v43h5v-50H-3531"/>
		<path id="path14574" d="M-3511-650.5c-5.5,0-10,4.5-10,10v30c0,5.5,4.5,10,10,10s10-4.5,10-10v-30
			C-3501-646-3505.5-650.5-3511-650.5 M-3511-645.5c2.8,0,5,2.2,5,5v30c0,2.8-2.2,5-5,5s-5-2.2-5-5v-30
			C-3516-643.3-3513.8-645.5-3511-645.5"/>
	</g>
	<g id="g14576" transform="matrix(-1,0,0,-1,355,1542.36)">
		<path id="path14578" d="M3551,1690.5l-5,7v7l5-7v43h5v-50H3551"/>
		<path id="path14580" d="M3571,1690.5c-5.5,0-10,4.5-10,10v30c0,5.5,4.5,10,10,10s10-4.5,10-10v-30
			C3581,1695,3576.5,1690.5,3571,1690.5 M3571,1695.5c2.8,0,5,2.2,5,5v30c0,2.8-2.2,5-5,5s-5-2.2-5-5v-30
			C3566,1697.7,3568.2,1695.5,3571,1695.5"/>
	</g>
	<path id="path14582" d="M-3441-608.1c-4-0.1-6.7,1.3-9.3,4c-2.7,2.7-4,5.3-4,9.3s1.5,6.4,4,9.3c2.4,2.8,4,4,5.3,6.7
		c1.3,2.7,2.7,8,2.7,10.7c0,2.7,0,2.4,0,4h-2.7c-2.7,0-8-2.7-9.3-4l-4-4c-2.7-2.7-5.3-4-9.3-4s-6.7,1.3-9.3,4c-2.7,2.7-4,5.3-4,9.3
		s1.3,6.7,4,9.3s5.3,4,9.3,4s6.7-1.3,9.3-4l4-4c1.3-1.3,6.7-4,9.3-4h2.7c-0.1,3.8-0.3,10.4-1.3,13.3c-1.3,4-4,8-6.7,10.7
		c-2.7,2.7-10.7,8-10.7,8v1.3c0,0,13.3-2.7,16-2.7h8c2.7,0,16,2.7,16,2.7v-1.3c0,0-8-5.3-10.7-8s-5.3-6.7-6.7-10.7
		c-1-3-1.3-9.6-1.3-13.3h2.7c2.7,0,8,2.7,9.3,4l4,4c2.7,2.7,5.3,4,9.3,4s6.7-1.3,9.3-4c2.7-2.7,4-5.3,4-9.3s-1.3-6.7-4-9.3
		s-5.3-4-9.3-4s-6.7,1.3-9.3,4l-4,4c-1.3,1.3-6.7,4-9.3,4h-2.7c0-1.9,0-1.3,0-4s1.3-8,2.7-10.7c1.3-2.7,2.7-4,5.3-6.7
		c2.7-2.7,4-5.3,4-9.3s-1.3-6.7-4-9.3S-3437-608.1-3441-608.1"/>
	<path id="path14584" d="M-3281-608.1c-4-0.1-6.7,1.3-9.3,4c-2.7,2.7-4,5.3-4,9.3s1.5,6.4,4,9.3c2.4,2.8,4,4,5.3,6.7
		c1.3,2.7,2.7,8,2.7,10.7c0,2.7,0,2.4,0,4h-2.7c-2.7,0-8-2.7-9.3-4l-4-4c-2.7-2.7-5.3-4-9.3-4s-6.7,1.3-9.3,4c-2.7,2.7-4,5.3-4,9.3
		s1.3,6.7,4,9.3s5.3,4,9.3,4s6.7-1.3,9.3-4l4-4c1.3-1.3,6.7-4,9.3-4h2.7c-0.1,3.8-0.3,10.4-1.3,13.3c-1.3,4-4,8-6.7,10.7
		c-2.7,2.7-10.7,8-10.7,8v1.3c0,0,13.3-2.7,16-2.7h8c2.7,0,16,2.7,16,2.7v-1.3c0,0-8-5.3-10.7-8s-5.3-6.7-6.7-10.7
		c-1-3-1.3-9.6-1.3-13.3h2.7c2.7,0,8,2.7,9.3,4l4,4c2.7,2.7,5.3,4,9.3,4s6.7-1.3,9.3-4c2.7-2.7,4-5.3,4-9.3s-1.3-6.7-4-9.3
		s-5.3-4-9.3-4s-6.7,1.3-9.3,4l-4,4c-1.3,1.3-6.7,4-9.3,4h-2.7c0-1.9,0-1.3,0-4s1.3-8,2.7-10.7c1.3-2.7,2.7-4,5.3-6.7
		c2.7-2.7,4-5.3,4-9.3s-1.3-6.7-4-9.3S-3277-608.1-3281-608.1"/>
	<path id="path14586" d="M-3361-548.1c-4-0.1-6.7,1.3-9.3,4c-2.7,2.7-4,5.3-4,9.3s1.5,6.4,4,9.3c2.4,2.8,4,4,5.3,6.7
		c1.3,2.7,2.7,8,2.7,10.7c0,2.7,0,2.4,0,4h-2.7c-2.7,0-8-2.7-9.3-4l-4-4c-2.7-2.7-5.3-4-9.3-4s-6.7,1.3-9.3,4c-2.7,2.7-4,5.3-4,9.3
		s1.3,6.7,4,9.3s5.3,4,9.3,4s6.7-1.3,9.3-4l4-4c1.3-1.3,6.7-4,9.3-4h2.7c-0.1,3.8-0.3,10.4-1.3,13.3c-1.3,4-4,8-6.7,10.7
		c-2.7,2.7-10.7,8-10.7,8v1.3c0,0,13.3-2.7,16-2.7h8c2.7,0,16,2.7,16,2.7v-1.3c0,0-8-5.3-10.7-8s-5.3-6.7-6.7-10.7
		c-1-3-1.3-9.6-1.3-13.3h2.7c2.7,0,8,2.7,9.3,4l4,4c2.7,2.7,5.3,4,9.3,4s6.7-1.3,9.3-4c2.7-2.7,4-5.3,4-9.3s-1.3-6.7-4-9.3
		s-5.3-4-9.3-4s-6.7,1.3-9.3,4l-4,4c-1.3,1.3-6.7,4-9.3,4h-2.7c0-1.9,0-1.3,0-4s1.3-8,2.7-10.7c1.3-2.7,2.7-4,5.3-6.7
		c2.7-2.7,4-5.3,4-9.3s-1.3-6.7-4-9.3S-3357-548.1-3361-548.1"/>
	<path id="path14588" d="M-3441-488.1c-4-0.1-6.7,1.3-9.3,4c-2.7,2.7-4,5.3-4,9.3s1.5,6.4,4,9.3c2.4,2.8,4,4,5.3,6.7
		c1.3,2.7,2.7,8,2.7,10.7c0,2.7,0,2.4,0,4h-2.7c-2.7,0-8-2.7-9.3-4l-4-4c-2.7-2.7-5.3-4-9.3-4s-6.7,1.3-9.3,4c-2.7,2.7-4,5.3-4,9.3
		s1.3,6.7,4,9.3s5.3,4,9.3,4s6.7-1.3,9.3-4l4-4c1.3-1.3,6.7-4,9.3-4h2.7c-0.1,3.8-0.3,10.4-1.3,13.3c-1.3,4-4,8-6.7,10.7
		c-2.7,2.7-10.7,8-10.7,8v1.3c0,0,13.3-2.7,16-2.7h8c2.7,0,16,2.7,16,2.7v-1.3c0,0-8-5.3-10.7-8s-5.3-6.7-6.7-10.7
		c-1-3-1.3-9.6-1.3-13.3h2.7c2.7,0,8,2.7,9.3,4l4,4c2.7,2.7,5.3,4,9.3,4s6.7-1.3,9.3-4c2.7-2.7,4-5.3,4-9.3s-1.3-6.7-4-9.3
		s-5.3-4-9.3-4s-6.7,1.3-9.3,4l-4,4c-1.3,1.3-6.7,4-9.3,4h-2.7c0-1.9,0-1.3,0-4s1.3-8,2.7-10.7c1.3-2.7,2.7-4,5.3-6.7
		c2.7-2.7,4-5.3,4-9.3s-1.3-6.7-4-9.3S-3437-488.1-3441-488.1"/>
	<path id="path14590" d="M-3281-488.1c-4-0.1-6.7,1.3-9.3,4c-2.7,2.7-4,5.3-4,9.3s1.5,6.4,4,9.3c2.4,2.8,4,4,5.3,6.7
		c1.3,2.7,2.7,8,2.7,10.7c0,2.7,0,2.4,0,4h-2.7c-2.7,0-8-2.7-9.3-4l-4-4c-2.7-2.7-5.3-4-9.3-4s-6.7,1.3-9.3,4c-2.7,2.7-4,5.3-4,9.3
		s1.3,6.7,4,9.3s5.3,4,9.3,4s6.7-1.3,9.3-4l4-4c1.3-1.3,6.7-4,9.3-4h2.7c-0.1,3.8-0.3,10.4-1.3,13.3c-1.3,4-4,8-6.7,10.7
		c-2.7,2.7-10.7,8-10.7,8v1.3c0,0,13.3-2.7,16-2.7h8c2.7,0,16,2.7,16,2.7v-1.3c0,0-8-5.3-10.7-8s-5.3-6.7-6.7-10.7
		c-1-3-1.3-9.6-1.3-13.3h2.7c2.7,0,8,2.7,9.3,4l4,4c2.7,2.7,5.3,4,9.3,4s6.7-1.3,9.3-4c2.7-2.7,4-5.3,4-9.3s-1.3-6.7-4-9.3
		s-5.3-4-9.3-4s-6.7,1.3-9.3,4l-4,4c-1.3,1.3-6.7,4-9.3,4h-2.7c0-1.9,0-1.3,0-4s1.3-8,2.7-10.7c1.3-2.7,2.7-4,5.3-6.7
		c2.7-2.7,4-5.3,4-9.3s-1.3-6.7-4-9.3S-3277-488.1-3281-488.1"/>
	<path id="path14592" d="M-3361-228.1c-4,0.1-6.7-1.3-9.3-4c-2.7-2.7-4-5.3-4-9.3s1.5-6.4,4-9.3c2.4-2.8,4-4,5.3-6.7
		c1.3-2.7,2.7-8,2.7-10.7c0-2.7,0-2.4,0-4h-2.7c-2.7,0-8,2.7-9.3,4l-4,4c-2.7,2.7-5.3,4-9.3,4s-6.7-1.3-9.3-4c-2.7-2.7-4-5.3-4-9.3
		s1.3-6.7,4-9.3s5.3-4,9.3-4s6.7,1.3,9.3,4l4,4c1.3,1.3,6.7,4,9.3,4h2.7c-0.1-3.8-0.3-10.4-1.3-13.3c-1.3-4-4-8-6.7-10.7
		c-2.7-2.7-10.7-8-10.7-8v-1.3c0,0,13.3,2.7,16,2.7h8c2.7,0,16-2.7,16-2.7v1.3c0,0-8,5.3-10.7,8s-5.3,6.7-6.7,10.7
		c-1,3-1.3,9.6-1.3,13.3h2.7c2.7,0,8-2.7,9.3-4l4-4c2.7-2.7,5.3-4,9.3-4s6.7,1.3,9.3,4c2.7,2.7,4,5.3,4,9.3s-1.3,6.7-4,9.3
		s-5.3,4-9.3,4s-6.7-1.3-9.3-4l-4-4c-1.3-1.3-6.7-4-9.3-4h-2.7c0,1.9,0,1.3,0,4s1.3,8,2.7,10.7c1.3,2.7,2.7,4,5.3,6.7
		c2.7,2.7,4,5.3,4,9.3s-1.3,6.7-4,9.3S-3357-228.1-3361-228.1"/>
	<path id="path14594" d="M-3281-168.1c-4,0.1-6.7-1.3-9.3-4c-2.7-2.7-4-5.3-4-9.3s1.5-6.4,4-9.3c2.4-2.8,4-4,5.3-6.7
		c1.3-2.7,2.7-8,2.7-10.7c0-2.7,0-2.4,0-4h-2.7c-2.7,0-8,2.7-9.3,4l-4,4c-2.7,2.7-5.3,4-9.3,4s-6.7-1.3-9.3-4c-2.7-2.7-4-5.3-4-9.3
		s1.3-6.7,4-9.3s5.3-4,9.3-4s6.7,1.3,9.3,4l4,4c1.3,1.3,6.7,4,9.3,4h2.7c-0.1-3.8-0.3-10.4-1.3-13.3c-1.3-4-4-8-6.7-10.7
		c-2.7-2.7-10.7-8-10.7-8v-1.3c0,0,13.3,2.7,16,2.7h8c2.7,0,16-2.7,16-2.7v1.3c0,0-8,5.3-10.7,8s-5.3,6.7-6.7,10.7
		c-1,3-1.3,9.6-1.3,13.3h2.7c2.7,0,8-2.7,9.3-4l4-4c2.7-2.7,5.3-4,9.3-4s6.7,1.3,9.3,4c2.7,2.7,4,5.3,4,9.3s-1.3,6.7-4,9.3
		s-5.3,4-9.3,4s-6.7-1.3-9.3-4l-4-4c-1.3-1.3-6.7-4-9.3-4h-2.7c0,1.9,0,1.3,0,4s1.3,8,2.7,10.7c1.3,2.7,2.7,4,5.3,6.7
		c2.7,2.7,4,5.3,4,9.3s-1.3,6.7-4,9.3S-3277-168.1-3281-168.1"/>
	<path id="path14596" d="M-3441-288.1c-4,0.1-6.7-1.3-9.3-4c-2.7-2.7-4-5.3-4-9.3s1.5-6.4,4-9.3c2.4-2.8,4-4,5.3-6.7
		c1.3-2.7,2.7-8,2.7-10.7c0-2.7,0-2.4,0-4h-2.7c-2.7,0-8,2.7-9.3,4l-4,4c-2.7,2.7-5.3,4-9.3,4s-6.7-1.3-9.3-4c-2.7-2.7-4-5.3-4-9.3
		s1.3-6.7,4-9.3s5.3-4,9.3-4s6.7,1.3,9.3,4l4,4c1.3,1.3,6.7,4,9.3,4h2.7c-0.1-3.8-0.3-10.4-1.3-13.3c-1.3-4-4-8-6.7-10.7
		c-2.7-2.7-10.7-8-10.7-8v-1.3c0,0,13.3,2.7,16,2.7h8c2.7,0,16-2.7,16-2.7v1.3c0,0-8,5.3-10.7,8s-5.3,6.7-6.7,10.7
		c-1,3-1.3,9.6-1.3,13.3h2.7c2.7,0,8-2.7,9.3-4l4-4c2.7-2.7,5.3-4,9.3-4s6.7,1.3,9.3,4c2.7,2.7,4,5.3,4,9.3s-1.3,6.7-4,9.3
		s-5.3,4-9.3,4s-6.7-1.3-9.3-4l-4-4c-1.3-1.3-6.7-4-9.3-4h-2.7c0,1.9,0,1.3,0,4s1.3,8,2.7,10.7c1.3,2.7,2.7,4,5.3,6.7
		c2.7,2.7,4,5.3,4,9.3s-1.3,6.7-4,9.3S-3437-288.1-3441-288.1"/>
	<path id="path14598" d="M-3281-288.1c-4,0.1-6.7-1.3-9.3-4c-2.7-2.7-4-5.3-4-9.3s1.5-6.4,4-9.3c2.4-2.8,4-4,5.3-6.7
		c1.3-2.7,2.7-8,2.7-10.7c0-2.7,0-2.4,0-4h-2.7c-2.7,0-8,2.7-9.3,4l-4,4c-2.7,2.7-5.3,4-9.3,4s-6.7-1.3-9.3-4c-2.7-2.7-4-5.3-4-9.3
		s1.3-6.7,4-9.3s5.3-4,9.3-4s6.7,1.3,9.3,4l4,4c1.3,1.3,6.7,4,9.3,4h2.7c-0.1-3.8-0.3-10.4-1.3-13.3c-1.3-4-4-8-6.7-10.7
		c-2.7-2.7-10.7-8-10.7-8v-1.3c0,0,13.3,2.7,16,2.7h8c2.7,0,16-2.7,16-2.7v1.3c0,0-8,5.3-10.7,8s-5.3,6.7-6.7,10.7
		c-1,3-1.3,9.6-1.3,13.3h2.7c2.7,0,8-2.7,9.3-4l4-4c2.7-2.7,5.3-4,9.3-4s6.7,1.3,9.3,4c2.7,2.7,4,5.3,4,9.3s-1.3,6.7-4,9.3
		s-5.3,4-9.3,4s-6.7-1.3-9.3-4l-4-4c-1.3-1.3-6.7-4-9.3-4h-2.7c0,1.9,0,1.3,0,4s1.3,8,2.7,10.7c1.3,2.7,2.7,4,5.3,6.7
		c2.7,2.7,4,5.3,4,9.3s-1.3,6.7-4,9.3S-3277-288.1-3281-288.1"/>
	<path id="path14600" d="M-3441-168.1c-4,0.1-6.7-1.3-9.3-4c-2.7-2.7-4-5.3-4-9.3s1.5-6.4,4-9.3c2.4-2.8,4-4,5.3-6.7
		c1.3-2.7,2.7-8,2.7-10.7c0-2.7,0-2.4,0-4h-2.7c-2.7,0-8,2.7-9.3,4l-4,4c-2.7,2.7-5.3,4-9.3,4s-6.7-1.3-9.3-4c-2.7-2.7-4-5.3-4-9.3
		s1.3-6.7,4-9.3s5.3-4,9.3-4s6.7,1.3,9.3,4l4,4c1.3,1.3,6.7,4,9.3,4h2.7c-0.1-3.8-0.3-10.4-1.3-13.3c-1.3-4-4-8-6.7-10.7
		c-2.7-2.7-10.7-8-10.7-8v-1.3c0,0,13.3,2.7,16,2.7h8c2.7,0,16-2.7,16-2.7v1.3c0,0-8,5.3-10.7,8s-5.3,6.7-6.7,10.7
		c-1,3-1.3,9.6-1.3,13.3h2.7c2.7,0,8-2.7,9.3-4l4-4c2.7-2.7,5.3-4,9.3-4s6.7,1.3,9.3,4c2.7,2.7,4,5.3,4,9.3s-1.3,6.7-4,9.3
		s-5.3,4-9.3,4s-6.7-1.3-9.3-4l-4-4c-1.3-1.3-6.7-4-9.3-4h-2.7c0,1.9,0,1.3,0,4s1.3,8,2.7,10.7c1.3,2.7,2.7,4,5.3,6.7
		c2.7,2.7,4,5.3,4,9.3s-1.3,6.7-4,9.3S-3437-168.1-3441-168.1"/>
	<path id="path14602" d="M-3511-568.1c-1.5,0-2.5,0.5-3.5,1.5s-1.5,2-1.5,3.5s0.6,2.4,1.5,3.5c0.9,1.1,1.5,1.5,2,2.5s1,3,1,4
		s0,0.9,0,1.5h-1c-1,0-3-1-3.5-1.5l-1.5-1.5c-1-1-2-1.5-3.5-1.5s-2.5,0.5-3.5,1.5s-1.5,2-1.5,3.5s0.5,2.5,1.5,3.5s2,1.5,3.5,1.5
		s2.5-0.5,3.5-1.5l1.5-1.5c0.5-0.5,2.5-1.5,3.5-1.5h1c0,1.4-0.1,3.9-0.5,5c-0.5,1.5-1.5,3-2.5,4s-4,3-4,3v0.5c0,0,5-1,6-1h3
		c1,0,6,1,6,1v-0.5c0,0-3-2-4-3s-2-2.5-2.5-4c-0.4-1.1-0.5-3.6-0.5-5h1c1,0,3,1,3.5,1.5l1.5,1.5c1,1,2,1.5,3.5,1.5s2.5-0.5,3.5-1.5
		s1.5-2,1.5-3.5s-0.5-2.5-1.5-3.5s-2-1.5-3.5-1.5s-2.5,0.5-3.5,1.5l-1.5,1.5c-0.5,0.5-2.5,1.5-3.5,1.5h-1c0-0.7,0-0.5,0-1.5
		s0.5-3,1-4s1-1.5,2-2.5c1-1,1.5-2,1.5-3.5s-0.5-2.5-1.5-3.5S-3509.5-568.1-3511-568.1"/>
	<path id="path14604" d="M-3211-208.1c-1.5,0-2.5-0.5-3.5-1.5s-1.5-2-1.5-3.5s0.6-2.4,1.5-3.5c0.9-1.1,1.5-1.5,2-2.5s1-3,1-4
		s0-0.9,0-1.5h-1c-1,0-3,1-3.5,1.5l-1.5,1.5c-1,1-2,1.5-3.5,1.5s-2.5-0.5-3.5-1.5s-1.5-2-1.5-3.5s0.5-2.5,1.5-3.5s2-1.5,3.5-1.5
		s2.5,0.5,3.5,1.5l1.5,1.5c0.5,0.5,2.5,1.5,3.5,1.5h1c0-1.4-0.1-3.9-0.5-5c-0.5-1.5-1.5-3-2.5-4s-4-3-4-3v-0.5c0,0,5,1,6,1h3
		c1,0,6-1,6-1v0.5c0,0-3,2-4,3s-2,2.5-2.5,4c-0.4,1.1-0.5,3.6-0.5,5h1c1,0,3-1,3.5-1.5l1.5-1.5c1-1,2-1.5,3.5-1.5s2.5,0.5,3.5,1.5
		s1.5,2,1.5,3.5s-0.5,2.5-1.5,3.5s-2,1.5-3.5,1.5s-2.5-0.5-3.5-1.5l-1.5-1.5c-0.5-0.5-2.5-1.5-3.5-1.5h-1c0,0.7,0,0.5,0,1.5
		s0.5,3,1,4s1,1.5,2,2.5c1,1,1.5,2,1.5,3.5s-0.5,2.5-1.5,3.5S-3209.5-208.1-3211-208.1"/>
</g>
</svg>
