<?xml version="1.0" encoding="utf-8"?>
<!-- Generator: Adobe Illustrator 24.1.2, SVG Export Plug-In . SVG Version: 6.00 Build 0)  -->
<svg version="1.1" id="Слой_1" xmlns="http://www.w3.org/2000/svg" xmlns:xlink="http://www.w3.org/1999/xlink" x="0px" y="0px"
	 viewBox="0 0 359 539" style="enable-background:new 0 0 359 539;" xml:space="preserve">
<style type="text/css">
	.st0{fill:#FFFFFF;stroke:#000000;}
	.st1{fill:#FF5555;}
</style>
<g id="g14646" transform="translate(3540,87.64)">
	<path id="rect14648" class="st0" d="M-3510.6-87.6h299.1c16.5,0,29.9,13.4,29.9,29.9v479.1c0,16.5-13.4,29.9-29.9,29.9h-299.1
		c-16.5,0-29.9-13.4-29.9-29.9V-57.7C-3540.5-74.2-3527.1-87.6-3510.6-87.6z"/>
	<g id="g14650" transform="translate(5,22.362)">
		<path id="path14652" class="st1" d="M-3531-80.5l-5,7v7l5-7v43h5v-50H-3531"/>
		<path id="path14654" class="st1" d="M-3511-80.5c-5.5,0-10,4.5-10,10v30c0,5.5,4.5,10,10,10s10-4.5,10-10v-30
			C-3501-76-3505.5-80.5-3511-80.5 M-3511-75.5c2.8,0,5,2.2,5,5v30c0,2.8-2.2,5-5,5s-5-2.2-5-5v-30
			C-3516-73.3-3513.8-75.5-3511-75.5"/>
	</g>
	<g id="g14656">
		<g id="g14658" transform="matrix(-1,0,0,-1,355,1542.36)">
			<path id="path14660" class="st1" d="M3551,1120.5l-5,7v7l5-7v43h5v-50H3551"/>
			<path id="path14662" class="st1" d="M3571,1120.5c-5.5,0-10,4.5-10,10v30c0,5.5,4.5,10,10,10s10-4.5,10-10v-30
				C3581,1125,3576.5,1120.5,3571,1120.5 M3571,1125.5c2.8,0,5,2.2,5,5v30c0,2.8-2.2,5-5,5s-5-2.2-5-5v-30
				C3566,1127.7,3568.2,1125.5,3571,1125.5"/>
		</g>
		<path id="path14664" class="st1" d="M-3441-38.1c0,0,8,13.3,17.3,22.7c9.3,9.3,22.7,17.3,22.7,17.3s-13.3,8-22.7,17.3
			c-9.3,9.3-17.3,22.7-17.3,22.7s-8-13.3-17.3-22.7c-9.3-9.3-22.7-17.3-22.7-17.3s13.3-8,22.7-17.3C-3449-24.8-3441-38.1-3441-38.1"
			/>
		<path id="path14666" class="st1" d="M-3211,331.9c0,0,3,5,6.5,8.5s8.5,6.5,8.5,6.5s-5,3-8.5,6.5s-6.5,8.5-6.5,8.5s-3-5-6.5-8.5
			s-8.5-6.5-8.5-6.5s5-3,8.5-6.5S-3211,331.9-3211,331.9"/>
		<path id="path14668" class="st1" d="M-3511,1.9c0,0,3,5,6.5,8.5s8.5,6.5,8.5,6.5s-5,3-8.5,6.5s-6.5,8.5-6.5,8.5s-3-5-6.5-8.5
			s-8.5-6.5-8.5-6.5s5-3,8.5-6.5S-3511,1.9-3511,1.9"/>
		<path id="path14670" class="st1" d="M-3281-38.1c0,0,8,13.3,17.3,22.7c9.3,9.3,22.7,17.3,22.7,17.3s-13.3,8-22.7,17.3
			c-9.3,9.3-17.3,22.7-17.3,22.7s-8-13.3-17.3-22.7c-9.3-9.3-22.7-17.3-22.7-17.3s13.3-8,22.7-17.3C-3289-24.8-3281-38.1-3281-38.1"
			/>
		<path id="path14672" class="st1" d="M-3281,81.9c0,0,8,13.3,17.3,22.7c9.3,9.3,22.7,17.3,22.7,17.3s-13.3,8-22.7,17.3
			c-9.3,9.3-17.3,22.7-17.3,22.7s-8-13.3-17.3-22.7c-9.3-9.3-22.7-17.3-22.7-17.3s13.3-8,22.7-17.3C-3289,95.2-3281,81.9-3281,81.9"
			/>
		<path id="path14674" class="st1" d="M-3281,201.9c0,0,8,13.3,17.3,22.7c9.3,9.3,22.7,17.3,22.7,17.3s-13.3,8-22.7,17.3
			c-9.3,9.3-17.3,22.7-17.3,22.7s-8-13.3-17.3-22.7c-9.3-9.3-22.7-17.3-22.7-17.3s13.3-8,22.7-17.3
			C-3289,215.2-3281,201.9-3281,201.9"/>
		<path id="path14676" class="st1" d="M-3281,321.9c0,0,8,13.3,17.3,22.7c9.3,9.3,22.7,17.3,22.7,17.3s-13.3,8-22.7,17.3
			c-9.3,9.3-17.3,22.7-17.3,22.7s-8-13.3-17.3-22.7c-9.3-9.3-22.7-17.3-22.7-17.3s13.3-8,22.7-17.3
			C-3289,335.2-3281,321.9-3281,321.9"/>
		<path id="path14678" class="st1" d="M-3441,81.9c0,0,8,13.3,17.3,22.7c9.3,9.3,22.7,17.3,22.7,17.3s-13.3,8-22.7,17.3
			c-9.3,9.3-17.3,22.7-17.3,22.7s-8-13.3-17.3-22.7c-9.3-9.3-22.7-17.3-22.7-17.3s13.3-8,22.7-17.3C-3449,95.2-3441,81.9-3441,81.9"
			/>
		<path id="path14680" class="st1" d="M-3441,201.9c0,0,8,13.3,17.3,22.7c9.3,9.3,22.7,17.3,22.7,17.3s-13.3,8-22.7,17.3
			c-9.3,9.3-17.3,22.7-17.3,22.7s-8-13.3-17.3-22.7c-9.3-9.3-22.7-17.3-22.7-17.3s13.3-8,22.7-17.3
			C-3449,215.2-3441,201.9-3441,201.9"/>
		<path id="path14682" class="st1" d="M-3441,321.9c0,0,8,13.3,17.3,22.7c9.3,9.3,22.7,17.3,22.7,17.3s-13.3,8-22.7,17.3
			c-9.3,9.3-17.3,22.7-17.3,22.7s-8-13.3-17.3-22.7c-9.3-9.3-22.7-17.3-22.7-17.3s13.3-8,22.7-17.3
			C-3449,335.2-3441,321.9-3441,321.9"/>
		<path id="path14684" class="st1" d="M-3361,21.9c0,0,8,13.3,17.3,22.7c9.3,9.3,22.7,17.3,22.7,17.3s-13.3,8-22.7,17.3
			c-9.3,9.3-17.3,22.7-17.3,22.7s-8-13.3-17.3-22.7c-9.3-9.3-22.7-17.3-22.7-17.3s13.3-8,22.7-17.3C-3369,35.2-3361,21.9-3361,21.9"
			/>
		<path id="path14686" class="st1" d="M-3361,261.9c0,0,8,13.3,17.3,22.7c9.3,9.3,22.7,17.3,22.7,17.3s-13.3,8-22.7,17.3
			c-9.3,9.3-17.3,22.7-17.3,22.7s-8-13.3-17.3-22.7c-9.3-9.3-22.7-17.3-22.7-17.3s13.3-8,22.7-17.3
			C-3369,275.2-3361,261.9-3361,261.9"/>
	</g>
</g>
</svg>
