<?xml version="1.0" encoding="utf-8"?>
<!-- Generator: Adobe Illustrator 24.1.2, SVG Export Plug-In . SVG Version: 6.00 Build 0)  -->
<svg version="1.1" id="Слой_1" xmlns="http://www.w3.org/2000/svg" xmlns:xlink="http://www.w3.org/1999/xlink" x="0px" y="0px"
	 viewBox="0 0 359 539" style="enable-background:new 0 0 359 539;" xml:space="preserve">
<style type="text/css">
	.st0{fill:#FFFFFF;stroke:#000000;}
	.st1{fill:#FF5555;}
</style>
<g id="g14524" transform="translate(3540,-482.36)">
	<path id="rect14526" class="st0" d="M-3510.28,482.39h299.11c16.54,0,29.94,13.41,29.94,29.94v479.11
		c0,16.54-13.41,29.94-29.94,29.94h-299.11c-16.54,0-29.94-13.41-29.94-29.94V512.33C-3540.22,495.79-3526.81,482.39-3510.28,482.39
		z"/>
	<g id="g14528" transform="translate(5,22.362)">
		<path id="path14530" class="st1" d="M-3530.72,489.53l-5,7v7l5-7v43h5v-50H-3530.72"/>
		<path id="path14532" class="st1" d="M-3510.72,489.53c-5.54,0-10,4.46-10,10v30c0,5.54,4.46,10,10,10s10-4.46,10-10v-30
			C-3500.72,493.99-3505.18,489.53-3510.72,489.53 M-3510.72,494.53c2.77,0,5,2.23,5,5v30c0,2.77-2.23,5-5,5s-5-2.23-5-5v-30
			C-3515.72,496.76-3513.49,494.53-3510.72,494.53"/>
	</g>
	<g id="g14534">
		<g id="g14536" transform="matrix(-1,0,0,-1,355,1542.36)">
			<path id="path14538" class="st1" d="M3550.72,550.47l-5,7v7l5-7v43h5v-50H3550.72"/>
			<path id="path14540" class="st1" d="M3570.72,550.47c-5.54,0-10,4.46-10,10v30c0,5.54,4.46,10,10,10s10-4.46,10-10v-30
				C3580.72,554.93,3576.26,550.47,3570.72,550.47 M3570.72,555.47c2.77,0,5,2.23,5,5v30c0,2.77-2.23,5-5,5s-5-2.23-5-5v-30
				C3565.72,557.7,3567.95,555.47,3570.72,555.47"/>
		</g>
		<path id="path14542" class="st1" d="M-3440.72,551.89c0,0,1.82-11.15,5.33-14.67c3.51-3.51,9.7-5.33,14.67-5.33
			s11.15,1.82,14.67,5.33c3.51,3.51,5.33,9.7,5.33,14.67s-2.67,12-5.33,14.67c-2.67,2.67-5.33,4-8,6.67s-4,2.67-6.67,5.33
			c-2.67,2.67-4,4-6.67,6.67s-6.67,8-9.33,13.33c-2.67,5.33-4,13.33-4,13.33s-1.33-8-4-13.33s-6.67-10.67-9.33-13.33
			c-2.67-2.67-4-4-6.67-6.67s-4-2.67-6.67-5.33c-2.67-2.67-5.33-4-8-6.67s-5.33-9.7-5.33-14.67s1.82-11.15,5.33-14.67
			c3.51-3.51,9.7-5.33,14.67-5.33s11.15,1.82,14.67,5.33C-3442.54,540.73-3440.72,551.89-3440.72,551.89"/>
		<path id="path14544" class="st1" d="M-3280.72,551.89c0,0,1.82-11.15,5.33-14.67c3.51-3.51,9.7-5.33,14.67-5.33
			s11.15,1.82,14.67,5.33c3.51,3.51,5.33,9.7,5.33,14.67s-2.67,12-5.33,14.67c-2.67,2.67-5.33,4-8,6.67s-4,2.67-6.67,5.33
			c-2.67,2.67-4,4-6.67,6.67s-6.67,8-9.33,13.33c-2.67,5.33-4,13.33-4,13.33s-1.33-8-4-13.33s-6.67-10.67-9.33-13.33
			c-2.67-2.67-4-4-6.67-6.67s-4-2.67-6.67-5.33c-2.67-2.67-5.33-4-8-6.67s-5.33-9.7-5.33-14.67s1.82-11.15,5.33-14.67
			c3.51-3.51,9.7-5.33,14.67-5.33s11.15,1.82,14.67,5.33C-3282.54,540.73-3280.72,551.89-3280.72,551.89"/>
		<path id="path14546" class="st1" d="M-3360.72,611.89c0,0,1.82-11.15,5.33-14.67c3.51-3.51,9.7-5.33,14.67-5.33
			s11.15,1.82,14.67,5.33c3.51,3.51,5.33,9.7,5.33,14.67s-2.67,12-5.33,14.67c-2.67,2.67-5.33,4-8,6.67s-4,2.67-6.67,5.33
			c-2.67,2.67-4,4-6.67,6.67s-6.67,8-9.33,13.33c-2.67,5.33-4,13.33-4,13.33s-1.33-8-4-13.33s-6.67-10.67-9.33-13.33
			c-2.67-2.67-4-4-6.67-6.67s-4-2.67-6.67-5.33c-2.67-2.67-5.33-4-8-6.67s-5.33-9.7-5.33-14.67s1.82-11.15,5.33-14.67
			c3.51-3.51,9.7-5.33,14.67-5.33s11.15,1.82,14.67,5.33C-3362.54,600.73-3360.72,611.89-3360.72,611.89"/>
		<path id="path14548" class="st1" d="M-3440.72,671.89c0,0,1.82-11.15,5.33-14.67c3.51-3.51,9.7-5.33,14.67-5.33
			s11.15,1.82,14.67,5.33c3.51,3.51,5.33,9.7,5.33,14.67s-2.67,12-5.33,14.67c-2.67,2.67-5.33,4-8,6.67s-4,2.67-6.67,5.33
			c-2.67,2.67-4,4-6.67,6.67s-6.67,8-9.33,13.33c-2.67,5.33-4,13.33-4,13.33s-1.33-8-4-13.33s-6.67-10.67-9.33-13.33
			c-2.67-2.67-4-4-6.67-6.67s-4-2.67-6.67-5.33c-2.67-2.67-5.33-4-8-6.67s-5.33-9.7-5.33-14.67s1.82-11.15,5.33-14.67
			c3.51-3.51,9.7-5.33,14.67-5.33s11.15,1.82,14.67,5.33C-3442.54,660.73-3440.72,671.89-3440.72,671.89"/>
		<path id="path14550" class="st1" d="M-3280.72,671.89c0,0,1.82-11.15,5.33-14.67c3.51-3.51,9.7-5.33,14.67-5.33
			s11.15,1.82,14.67,5.33c3.51,3.51,5.33,9.7,5.33,14.67s-2.67,12-5.33,14.67c-2.67,2.67-5.33,4-8,6.67s-4,2.67-6.67,5.33
			c-2.67,2.67-4,4-6.67,6.67s-6.67,8-9.33,13.33c-2.67,5.33-4,13.33-4,13.33s-1.33-8-4-13.33s-6.67-10.67-9.33-13.33
			c-2.67-2.67-4-4-6.67-6.67s-4-2.67-6.67-5.33c-2.67-2.67-5.33-4-8-6.67s-5.33-9.7-5.33-14.67s1.82-11.15,5.33-14.67
			c3.51-3.51,9.7-5.33,14.67-5.33s11.15,1.82,14.67,5.33C-3282.54,660.73-3280.72,671.89-3280.72,671.89"/>
		<path id="path14552" class="st1" d="M-3440.72,951.89c0,0,1.82,11.15,5.33,14.67c3.51,3.51,9.7,5.33,14.67,5.33
			s11.15-1.82,14.67-5.33c3.51-3.51,5.33-9.7,5.33-14.67s-2.67-12-5.33-14.67c-2.67-2.67-5.33-4-8-6.67s-4-2.67-6.67-5.33
			c-2.67-2.67-4-4-6.67-6.67s-6.67-8-9.33-13.33c-2.67-5.33-4-13.33-4-13.33s-1.33,8-4,13.33s-6.67,10.67-9.33,13.33
			c-2.67,2.67-4,4-6.67,6.67s-4,2.67-6.67,5.33c-2.67,2.67-5.33,4-8,6.67s-5.33,9.7-5.33,14.67s1.82,11.15,5.33,14.67
			c3.51,3.51,9.7,5.33,14.67,5.33s11.15-1.82,14.67-5.33C-3442.54,963.04-3440.72,951.89-3440.72,951.89"/>
		<path id="path14554" class="st1" d="M-3280.72,951.89c0,0,1.82,11.15,5.33,14.67c3.51,3.51,9.7,5.33,14.67,5.33
			s11.15-1.82,14.67-5.33c3.51-3.51,5.33-9.7,5.33-14.67s-2.67-12-5.33-14.67c-2.67-2.67-5.33-4-8-6.67s-4-2.67-6.67-5.33
			c-2.67-2.67-4-4-6.67-6.67s-6.67-8-9.33-13.33c-2.67-5.33-4-13.33-4-13.33s-1.33,8-4,13.33s-6.67,10.67-9.33,13.33
			c-2.67,2.67-4,4-6.67,6.67s-4,2.67-6.67,5.33c-2.67,2.67-5.33,4-8,6.67s-5.33,9.7-5.33,14.67s1.82,11.15,5.33,14.67
			c3.51,3.51,9.7,5.33,14.67,5.33s11.15-1.82,14.67-5.33C-3282.54,963.04-3280.72,951.89-3280.72,951.89"/>
		<path id="path14556" class="st1" d="M-3360.72,891.89c0,0,1.82,11.15,5.33,14.67c3.51,3.51,9.7,5.33,14.67,5.33
			s11.15-1.82,14.67-5.33c3.51-3.51,5.33-9.7,5.33-14.67s-2.67-12-5.33-14.67c-2.67-2.67-5.33-4-8-6.67s-4-2.67-6.67-5.33
			c-2.67-2.67-4-4-6.67-6.67s-6.67-8-9.33-13.33c-2.67-5.33-4-13.33-4-13.33s-1.33,8-4,13.33s-6.67,10.67-9.33,13.33
			c-2.67,2.67-4,4-6.67,6.67s-4,2.67-6.67,5.33c-2.67,2.67-5.33,4-8,6.67s-5.33,9.7-5.33,14.67s1.82,11.15,5.33,14.67
			c3.51,3.51,9.7,5.33,14.67,5.33s11.15-1.82,14.67-5.33C-3362.54,903.04-3360.72,891.89-3360.72,891.89"/>
		<path id="path14558" class="st1" d="M-3440.72,831.89c0,0,1.82,11.15,5.33,14.67c3.51,3.51,9.7,5.33,14.67,5.33
			s11.15-1.82,14.67-5.33c3.51-3.51,5.33-9.7,5.33-14.67s-2.67-12-5.33-14.67c-2.67-2.67-5.33-4-8-6.67s-4-2.67-6.67-5.33
			c-2.67-2.67-4-4-6.67-6.67s-6.67-8-9.33-13.33c-2.67-5.33-4-13.33-4-13.33s-1.33,8-4,13.33s-6.67,10.67-9.33,13.33
			c-2.67,2.67-4,4-6.67,6.67s-4,2.67-6.67,5.33c-2.67,2.67-5.33,4-8,6.67s-5.33,9.7-5.33,14.67s1.82,11.15,5.33,14.67
			c3.51,3.51,9.7,5.33,14.67,5.33s11.15-1.82,14.67-5.33C-3442.54,843.04-3440.72,831.89-3440.72,831.89"/>
		<path id="path14560" class="st1" d="M-3280.72,831.89c0,0,1.82,11.15,5.33,14.67c3.51,3.51,9.7,5.33,14.67,5.33
			s11.15-1.82,14.67-5.33c3.51-3.51,5.33-9.7,5.33-14.67s-2.67-12-5.33-14.67c-2.67-2.67-5.33-4-8-6.67s-4-2.67-6.67-5.33
			c-2.67-2.67-4-4-6.67-6.67s-6.67-8-9.33-13.33c-2.67-5.33-4-13.33-4-13.33s-1.33,8-4,13.33s-6.67,10.67-9.33,13.33
			c-2.67,2.67-4,4-6.67,6.67s-4,2.67-6.67,5.33c-2.67,2.67-5.33,4-8,6.67s-5.33,9.7-5.33,14.67s1.82,11.15,5.33,14.67
			c3.51,3.51,9.7,5.33,14.67,5.33s11.15-1.82,14.67-5.33C-3282.54,843.04-3280.72,831.89-3280.72,831.89"/>
		<path id="path14562" class="st1" d="M-3510.72,579.39c0,0,0.68-4.18,2-5.5c1.32-1.32,3.64-2,5.5-2s4.18,0.68,5.5,2
			c1.32,1.32,2,3.64,2,5.5s-1,4.5-2,5.5s-2,1.5-3,2.5s-1.5,1-2.5,2s-1.5,1.5-2.5,2.5s-2.5,3-3.5,5s-1.5,5-1.5,5s-0.5-3-1.5-5
			s-2.5-4-3.5-5s-1.5-1.5-2.5-2.5s-1.5-1-2.5-2s-2-1.5-3-2.5s-2-3.64-2-5.5s0.68-4.18,2-5.5c1.32-1.32,3.64-2,5.5-2s4.18,0.68,5.5,2
			C-3511.4,575.2-3510.72,579.39-3510.72,579.39"/>
		<path id="path14564" class="st1" d="M-3210.72,924.39c0,0,0.68,4.18,2,5.5c1.32,1.32,3.64,2,5.5,2s4.18-0.68,5.5-2
			c1.32-1.32,2-3.64,2-5.5s-1-4.5-2-5.5s-2-1.5-3-2.5s-1.5-1-2.5-2s-1.5-1.5-2.5-2.5s-2.5-3-3.5-5s-1.5-5-1.5-5s-0.5,3-1.5,5
			s-2.5,4-3.5,5s-1.5,1.5-2.5,2.5s-1.5,1-2.5,2s-2,1.5-3,2.5s-2,3.64-2,5.5s0.68,4.18,2,5.5c1.32,1.32,3.64,2,5.5,2s4.18-0.68,5.5-2
			C-3211.4,928.57-3210.72,924.39-3210.72,924.39"/>
	</g>
</g>
</svg>
