<?xml version="1.0" encoding="utf-8"?>
<!-- Generator: Adobe Illustrator 24.1.2, SVG Export Plug-In . SVG Version: 6.00 Build 0)  -->
<svg version="1.1" id="Слой_1" xmlns="http://www.w3.org/2000/svg" xmlns:xlink="http://www.w3.org/1999/xlink" x="0px" y="0px"
	 viewBox="0 0 359 539" style="enable-background:new 0 0 359 539;" xml:space="preserve">
<style type="text/css">
	.st0{fill:#FFFFFF;stroke:#000000;}
</style>
<g id="g14606" transform="translate(3540,1227.64)">
	<path id="rect14608" class="st0" d="M-3510.6-1227.6h299.1c16.5,0,29.9,13.4,29.9,29.9v479.1c0,16.5-13.4,29.9-29.9,29.9h-299.1
		c-16.5,0-29.9-13.4-29.9-29.9v-479.1C-3540.5-1214.2-3527.1-1227.6-3510.6-1227.6z"/>
	<g id="g14610" transform="translate(5,22.362)">
		<path id="path14612" d="M-3531-1220.5l-5,7v7l5-7v43h5v-50H-3531"/>
		<path id="path14614" d="M-3511-1220.5c-5.5,0-10,4.5-10,10v30c0,5.5,4.5,10,10,10s10-4.5,10-10v-30
			C-3501-1216-3505.5-1220.5-3511-1220.5 M-3511-1215.5c2.8,0,5,2.2,5,5v30c0,2.8-2.2,5-5,5s-5-2.2-5-5v-30
			C-3516-1213.3-3513.8-1215.5-3511-1215.5"/>
	</g>
	<g id="g14616" transform="matrix(-1,0,0,-1,355,1542.36)">
		<path id="path14618" d="M3551,2260.5l-5,7v7l5-7v43h5v-50H3551"/>
		<path id="path14620" d="M3571,2260.5c-5.5,0-10,4.5-10,10v30c0,5.5,4.5,10,10,10s10-4.5,10-10v-30
			C3581,2265,3576.5,2260.5,3571,2260.5 M3571,2265.5c2.8,0,5,2.2,5,5v30c0,2.8-2.2,5-5,5s-5-2.2-5-5v-30
			C3566,2267.7,3568.2,2265.5,3571,2265.5"/>
	</g>
	<path id="path14622" d="M-3441-1178.1c-1.3,6.7-2.9,8.4-5.3,12c-2.1,3.1-5.1,5.6-8,8c-2.9,2.5-6.2,4.4-9.3,6.7
		c-3.6,2.6-7.8,4.6-10.7,8c-3.2,3.8-6.7,8.4-6.7,13.3c0,4,2.4,8,5.3,10.7c3.5,3.2,8.5,5.4,13.3,5.3c5.4-0.1,10.8-2.9,14.7-6.7
		c2.9-2.8,5.3-10.7,5.3-10.7v2.7c0,1.3-0.1,7.3-1.3,10.7c-1.4,4-3.8,7.6-6.7,10.7c-3,3.3-10.7,8-10.7,8v1.3c0,0,10.6-2.2,16-2.7
		c2.7-0.2,5.3-0.2,8,0c5.4,0.4,16,2.7,16,2.7v-1.3c0,0-7.7-4.7-10.7-8c-2.8-3.1-5.3-6.7-6.7-10.7c-1.2-3.4-1.3-10.7-1.3-10.7v-2.7
		c0,0,2.5,7.9,5.3,10.7c3.9,3.7,9.3,6.5,14.7,6.7c4.8,0.1,9.8-2.1,13.3-5.3c2.9-2.7,5.3-6.7,5.3-10.7c0-5-3.5-9.5-6.7-13.3
		c-2.8-3.4-7.1-5.4-10.7-8c-3.1-2.3-6.4-4.2-9.3-6.7c-2.9-2.4-5.9-4.9-8-8C-3438.1-1169.7-3439.7-1171.5-3441-1178.1"/>
	<path id="path14624" d="M-3281-1178.1c-1.3,6.7-2.9,8.4-5.3,12c-2.1,3.1-5.1,5.6-8,8c-2.9,2.5-6.2,4.4-9.3,6.7
		c-3.6,2.6-7.8,4.6-10.7,8c-3.2,3.8-6.7,8.4-6.7,13.3c0,4,2.4,8,5.3,10.7c3.5,3.2,8.5,5.4,13.3,5.3c5.4-0.1,10.8-2.9,14.7-6.7
		c2.9-2.8,5.3-10.7,5.3-10.7v2.7c0,1.3-0.1,7.3-1.3,10.7c-1.4,4-3.8,7.6-6.7,10.7c-3,3.3-10.7,8-10.7,8v1.3c0,0,10.6-2.2,16-2.7
		c2.7-0.2,5.3-0.2,8,0c5.4,0.4,16,2.7,16,2.7v-1.3c0,0-7.7-4.7-10.7-8c-2.8-3.1-5.3-6.7-6.7-10.7c-1.2-3.4-1.3-10.7-1.3-10.7v-2.7
		c0,0,2.5,7.9,5.3,10.7c3.9,3.7,9.3,6.5,14.7,6.7c4.8,0.1,9.8-2.1,13.3-5.3c2.9-2.7,5.3-6.7,5.3-10.7c0-5-3.5-9.5-6.7-13.3
		c-2.8-3.4-7.1-5.4-10.7-8c-3.1-2.3-6.4-4.2-9.3-6.7c-2.9-2.4-5.9-4.9-8-8C-3278.1-1169.7-3279.7-1171.5-3281-1178.1"/>
	<path id="path14626" d="M-3361-1118.1c-1.3,6.7-2.9,8.4-5.3,12c-2.1,3.1-5.1,5.6-8,8c-2.9,2.5-6.2,4.4-9.3,6.7
		c-3.6,2.6-7.8,4.6-10.7,8c-3.2,3.8-6.7,8.4-6.7,13.3c0,4,2.4,8,5.3,10.7c3.5,3.2,8.5,5.4,13.3,5.3c5.4-0.1,10.8-2.9,14.7-6.7
		c2.9-2.8,5.3-10.7,5.3-10.7v2.7c0,1.3-0.1,7.3-1.3,10.7c-1.4,4-3.8,7.6-6.7,10.7c-3,3.3-10.7,8-10.7,8v1.3c0,0,10.6-2.2,16-2.7
		c2.7-0.2,5.3-0.2,8,0c5.4,0.4,16,2.7,16,2.7v-1.3c0,0-7.7-4.7-10.7-8c-2.8-3.1-5.3-6.7-6.7-10.7c-1.2-3.4-1.3-10.7-1.3-10.7v-2.7
		c0,0,2.5,7.9,5.3,10.7c3.9,3.7,9.3,6.5,14.7,6.7c4.8,0.1,9.8-2.1,13.3-5.3c2.9-2.7,5.3-6.7,5.3-10.7c0-5-3.5-9.5-6.7-13.3
		c-2.8-3.4-7.1-5.4-10.7-8c-3.1-2.3-6.4-4.2-9.3-6.7c-2.9-2.4-5.9-4.9-8-8C-3358.1-1109.7-3359.7-1111.5-3361-1118.1"/>
	<path id="path14628" d="M-3441-1058.1c-1.3,6.7-2.9,8.4-5.3,12c-2.1,3.1-5.1,5.6-8,8c-2.9,2.5-6.2,4.4-9.3,6.7
		c-3.6,2.6-7.8,4.6-10.7,8c-3.2,3.8-6.7,8.4-6.7,13.3c0,4,2.4,8,5.3,10.7c3.5,3.2,8.5,5.4,13.3,5.3c5.4-0.1,10.8-2.9,14.7-6.7
		c2.9-2.8,5.3-10.7,5.3-10.7v2.7c0,1.3-0.1,7.3-1.3,10.7c-1.4,4-3.8,7.6-6.7,10.7c-3,3.3-10.7,8-10.7,8v1.3c0,0,10.6-2.2,16-2.7
		c2.7-0.2,5.3-0.2,8,0c5.4,0.4,16,2.7,16,2.7v-1.3c0,0-7.7-4.7-10.7-8c-2.8-3.1-5.3-6.7-6.7-10.7c-1.2-3.4-1.3-10.7-1.3-10.7v-2.7
		c0,0,2.5,7.9,5.3,10.7c3.9,3.7,9.3,6.5,14.7,6.7c4.8,0.1,9.8-2.1,13.3-5.3c2.9-2.7,5.3-6.7,5.3-10.7c0-5-3.5-9.5-6.7-13.3
		c-2.8-3.4-7.1-5.4-10.7-8c-3.1-2.3-6.4-4.2-9.3-6.7c-2.9-2.4-5.9-4.9-8-8C-3438.1-1049.7-3439.7-1051.5-3441-1058.1"/>
	<path id="path14630" d="M-3281-1058.1c-1.3,6.7-2.9,8.4-5.3,12c-2.1,3.1-5.1,5.6-8,8c-2.9,2.5-6.2,4.4-9.3,6.7
		c-3.6,2.6-7.8,4.6-10.7,8c-3.2,3.8-6.7,8.4-6.7,13.3c0,4,2.4,8,5.3,10.7c3.5,3.2,8.5,5.4,13.3,5.3c5.4-0.1,10.8-2.9,14.7-6.7
		c2.9-2.8,5.3-10.7,5.3-10.7v2.7c0,1.3-0.1,7.3-1.3,10.7c-1.4,4-3.8,7.6-6.7,10.7c-3,3.3-10.7,8-10.7,8v1.3c0,0,10.6-2.2,16-2.7
		c2.7-0.2,5.3-0.2,8,0c5.4,0.4,16,2.7,16,2.7v-1.3c0,0-7.7-4.7-10.7-8c-2.8-3.1-5.3-6.7-6.7-10.7c-1.2-3.4-1.3-10.7-1.3-10.7v-2.7
		c0,0,2.5,7.9,5.3,10.7c3.9,3.7,9.3,6.5,14.7,6.7c4.8,0.1,9.8-2.1,13.3-5.3c2.9-2.7,5.3-6.7,5.3-10.7c0-5-3.5-9.5-6.7-13.3
		c-2.8-3.4-7.1-5.4-10.7-8c-3.1-2.3-6.4-4.2-9.3-6.7c-2.9-2.4-5.9-4.9-8-8C-3278.1-1049.7-3279.7-1051.5-3281-1058.1"/>
	<path id="path14632" d="M-3441-858.1c-1.3-6.7-2.9-8.4-5.3-12c-2.1-3.1-5.1-5.6-8-8c-2.9-2.5-6.2-4.4-9.3-6.7
		c-3.6-2.6-7.8-4.6-10.7-8c-3.2-3.8-6.7-8.4-6.7-13.3c0-4,2.4-8,5.3-10.7c3.5-3.2,8.5-5.4,13.3-5.3c5.4,0.1,10.8,2.9,14.7,6.7
		c2.9,2.8,5.3,10.7,5.3,10.7v-2.7c0-1.3-0.1-7.3-1.3-10.7c-1.4-4-3.8-7.6-6.7-10.7c-3-3.3-10.7-8-10.7-8v-1.3c0,0,10.6,2.2,16,2.7
		c2.7,0.2,5.3,0.2,8,0c5.4-0.4,16-2.7,16-2.7v1.3c0,0-7.7,4.7-10.7,8c-2.8,3.1-5.3,6.7-6.7,10.7c-1.2,3.4-1.3,10.7-1.3,10.7v2.7
		c0,0,2.5-7.9,5.3-10.7c3.9-3.7,9.3-6.5,14.7-6.7c4.8-0.1,9.8,2.1,13.3,5.3c2.9,2.7,5.3,6.7,5.3,10.7c0,5-3.5,9.5-6.7,13.3
		c-2.8,3.4-7.1,5.4-10.7,8c-3.1,2.3-6.4,4.2-9.3,6.7c-2.9,2.4-5.9,4.9-8,8C-3438.1-866.5-3439.7-864.8-3441-858.1"/>
	<path id="path14634" d="M-3281-858.1c-1.3-6.7-2.9-8.4-5.3-12c-2.1-3.1-5.1-5.6-8-8c-2.9-2.5-6.2-4.4-9.3-6.7
		c-3.6-2.6-7.8-4.6-10.7-8c-3.2-3.8-6.7-8.4-6.7-13.3c0-4,2.4-8,5.3-10.7c3.5-3.2,8.5-5.4,13.3-5.3c5.4,0.1,10.8,2.9,14.7,6.7
		c2.9,2.8,5.3,10.7,5.3,10.7v-2.7c0-1.3-0.1-7.3-1.3-10.7c-1.4-4-3.8-7.6-6.7-10.7c-3-3.3-10.7-8-10.7-8v-1.3c0,0,10.6,2.2,16,2.7
		c2.7,0.2,5.3,0.2,8,0c5.4-0.4,16-2.7,16-2.7v1.3c0,0-7.7,4.7-10.7,8c-2.8,3.1-5.3,6.7-6.7,10.7c-1.2,3.4-1.3,10.7-1.3,10.7v2.7
		c0,0,2.5-7.9,5.3-10.7c3.9-3.7,9.3-6.5,14.7-6.7c4.8-0.1,9.8,2.1,13.3,5.3c2.9,2.7,5.3,6.7,5.3,10.7c0,5-3.5,9.5-6.7,13.3
		c-2.8,3.4-7.1,5.4-10.7,8c-3.1,2.3-6.4,4.2-9.3,6.7c-2.9,2.4-5.9,4.9-8,8C-3278.1-866.5-3279.7-864.8-3281-858.1"/>
	<path id="path14636" d="M-3361-798.1c-1.3-6.7-2.9-8.4-5.3-12c-2.1-3.1-5.1-5.6-8-8c-2.9-2.5-6.2-4.4-9.3-6.7
		c-3.6-2.6-7.8-4.6-10.7-8c-3.2-3.8-6.7-8.4-6.7-13.3c0-4,2.4-8,5.3-10.7c3.5-3.2,8.5-5.4,13.3-5.3c5.4,0.1,10.8,2.9,14.7,6.7
		c2.9,2.8,5.3,10.7,5.3,10.7v-2.7c0-1.3-0.1-7.3-1.3-10.7c-1.4-4-3.8-7.6-6.7-10.7c-3-3.3-10.7-8-10.7-8v-1.3c0,0,10.6,2.2,16,2.7
		c2.7,0.2,5.3,0.2,8,0c5.4-0.4,16-2.7,16-2.7v1.3c0,0-7.7,4.7-10.7,8c-2.8,3.1-5.3,6.7-6.7,10.7c-1.2,3.4-1.3,10.7-1.3,10.7v2.7
		c0,0,2.5-7.9,5.3-10.7c3.9-3.7,9.3-6.5,14.7-6.7c4.8-0.1,9.8,2.1,13.3,5.3c2.9,2.7,5.3,6.7,5.3,10.7c0,5-3.5,9.5-6.7,13.3
		c-2.8,3.4-7.1,5.4-10.7,8c-3.1,2.3-6.4,4.2-9.3,6.7c-2.9,2.4-5.9,4.9-8,8C-3358.1-806.5-3359.7-804.8-3361-798.1"/>
	<path id="path14638" d="M-3441-738.1c-1.3-6.7-2.9-8.4-5.3-12c-2.1-3.1-5.1-5.6-8-8c-2.9-2.5-6.2-4.4-9.3-6.7
		c-3.6-2.6-7.8-4.6-10.7-8c-3.2-3.8-6.7-8.4-6.7-13.3c0-4,2.4-8,5.3-10.7c3.5-3.2,8.5-5.4,13.3-5.3c5.4,0.1,10.8,2.9,14.7,6.7
		c2.9,2.8,5.3,10.7,5.3,10.7v-2.7c0-1.3-0.1-7.3-1.3-10.7c-1.4-4-3.8-7.6-6.7-10.7c-3-3.3-10.7-8-10.7-8v-1.3c0,0,10.6,2.2,16,2.7
		c2.7,0.2,5.3,0.2,8,0c5.4-0.4,16-2.7,16-2.7v1.3c0,0-7.7,4.7-10.7,8c-2.8,3.1-5.3,6.7-6.7,10.7c-1.2,3.4-1.3,10.7-1.3,10.7v2.7
		c0,0,2.5-7.9,5.3-10.7c3.9-3.7,9.3-6.5,14.7-6.7c4.8-0.1,9.8,2.1,13.3,5.3c2.9,2.7,5.3,6.7,5.3,10.7c0,5-3.5,9.5-6.7,13.3
		c-2.8,3.4-7.1,5.4-10.7,8c-3.1,2.3-6.4,4.2-9.3,6.7c-2.9,2.4-5.9,4.9-8,8C-3438.1-746.5-3439.7-744.8-3441-738.1"/>
	<path id="path14640" d="M-3281-738.1c-1.3-6.7-2.9-8.4-5.3-12c-2.1-3.1-5.1-5.6-8-8c-2.9-2.5-6.2-4.4-9.3-6.7
		c-3.6-2.6-7.8-4.6-10.7-8c-3.2-3.8-6.7-8.4-6.7-13.3c0-4,2.4-8,5.3-10.7c3.5-3.2,8.5-5.4,13.3-5.3c5.4,0.1,10.8,2.9,14.7,6.7
		c2.9,2.8,5.3,10.7,5.3,10.7v-2.7c0-1.3-0.1-7.3-1.3-10.7c-1.4-4-3.8-7.6-6.7-10.7c-3-3.3-10.7-8-10.7-8v-1.3c0,0,10.6,2.2,16,2.7
		c2.7,0.2,5.3,0.2,8,0c5.4-0.4,16-2.7,16-2.7v1.3c0,0-7.7,4.7-10.7,8c-2.8,3.1-5.3,6.7-6.7,10.7c-1.2,3.4-1.3,10.7-1.3,10.7v2.7
		c0,0,2.5-7.9,5.3-10.7c3.9-3.7,9.3-6.5,14.7-6.7c4.8-0.1,9.8,2.1,13.3,5.3c2.9,2.7,5.3,6.7,5.3,10.7c0,5-3.5,9.5-6.7,13.3
		c-2.8,3.4-7.1,5.4-10.7,8c-3.1,2.3-6.4,4.2-9.3,6.7c-2.9,2.4-5.9,4.9-8,8C-3278.1-746.5-3279.7-744.8-3281-738.1"/>
	<path id="path14642" d="M-3511-1138.1c-0.5,2.5-1.1,3.1-2,4.5c-0.8,1.2-1.9,2.1-3,3c-1.1,0.9-2.3,1.7-3.5,2.5c-1.3,1-2.9,1.7-4,3
		c-1.2,1.4-2.5,3.1-2.5,5c0,1.5,0.9,3,2,4c1.3,1.2,3.2,2,5,2c2,0,4.1-1.1,5.5-2.5c1.1-1,2-4,2-4v1c0,0.5-0.1,2.7-0.5,4
		c-0.5,1.5-1.4,2.8-2.5,4c-1.1,1.2-4,3-4,3v0.5c0,0,4-0.8,6-1c1-0.1,2-0.1,3,0c2,0.2,6,1,6,1v-0.5c0,0-2.9-1.8-4-3
		c-1.1-1.2-2-2.5-2.5-4c-0.4-1.3-0.5-4-0.5-4v-1c0,0,0.9,3,2,4c1.4,1.4,3.5,2.5,5.5,2.5c1.8,0,3.7-0.8,5-2c1.1-1,2-2.5,2-4
		c0-1.9-1.3-3.6-2.5-5c-1.1-1.3-2.7-2-4-3c-1.2-0.8-2.4-1.6-3.5-2.5c-1.1-0.9-2.2-1.8-3-3C-3509.9-1135-3510.5-1135.6-3511-1138.1"
		/>
	<path id="path14644" d="M-3211-778.1c-0.5-2.5-1.1-3.1-2-4.5c-0.8-1.2-1.9-2.1-3-3c-1.1-0.9-2.3-1.7-3.5-2.5c-1.3-1-2.9-1.7-4-3
		c-1.2-1.4-2.5-3.1-2.5-5c0-1.5,0.9-3,2-4c1.3-1.2,3.2-2,5-2c2,0,4.1,1.1,5.5,2.5c1.1,1,2,4,2,4v-1c0-0.5-0.1-2.7-0.5-4
		c-0.5-1.5-1.4-2.8-2.5-4c-1.1-1.2-4-3-4-3v-0.5c0,0,4,0.8,6,1c1,0.1,2,0.1,3,0c2-0.2,6-1,6-1v0.5c0,0-2.9,1.8-4,3
		c-1.1,1.2-2,2.5-2.5,4c-0.4,1.3-0.5,4-0.5,4v1c0,0,0.9-3,2-4c1.4-1.4,3.5-2.5,5.5-2.5c1.8,0,3.7,0.8,5,2c1.1,1,2,2.5,2,4
		c0,1.9-1.3,3.6-2.5,5c-1.1,1.3-2.7,2-4,3c-1.2,0.8-2.4,1.6-3.5,2.5c-1.1,0.9-2.2,1.8-3,3C-3209.9-781.3-3210.5-780.6-3211-778.1"/>
</g>
</svg>
