<?xml version="1.0" encoding="utf-8"?>
<!-- Generator: Adobe Illustrator 24.1.2, SVG Export Plug-In . SVG Version: 6.00 Build 0)  -->
<svg version="1.1" id="Слой_1" xmlns="http://www.w3.org/2000/svg" xmlns:xlink="http://www.w3.org/1999/xlink" x="0px" y="0px"
	 viewBox="0 0 359 539" style="enable-background:new 0 0 359 539;" xml:space="preserve">
<style type="text/css">
	.st0{fill:#FFFFFF;stroke:#000000;}
	.st1{fill:#FF5555;}
</style>
<g id="g84" transform="translate(420,87.64)">
	<path id="rect86" class="st0" d="M-390.6-87.6h299.1c16.5,0,29.9,13.4,29.9,29.9v479.1c0,16.5-13.4,29.9-29.9,29.9h-299.1
		c-16.5,0-29.9-13.4-29.9-29.9V-57.7C-420.5-74.2-407.1-87.6-390.6-87.6z"/>
	<g id="g88">
		<path id="path90" class="st1" d="M-241-38.1c0,0,8,13.3,17.3,22.7C-214.3-6.1-201,1.9-201,1.9s-13.3,8-22.7,17.3
			C-233,28.5-241,41.9-241,41.9s-8-13.3-17.3-22.7C-267.7,9.9-281,1.9-281,1.9s13.3-8,22.7-17.3C-249-24.8-241-38.1-241-38.1"/>
		<path id="path92" class="st1" d="M-241,321.9c0,0,8,13.3,17.3,22.7c9.3,9.3,22.7,17.3,22.7,17.3s-13.3,8-22.7,17.3
			c-9.3,9.3-17.3,22.7-17.3,22.7s-8-13.3-17.3-22.7c-9.3-9.3-22.7-17.3-22.7-17.3s13.3-8,22.7-17.3C-249,335.2-241,321.9-241,321.9"
			/>
		<path id="path94" class="st1" d="M-91,331.9c0,0,3,5,6.5,8.5s8.5,6.5,8.5,6.5s-5,3-8.5,6.5s-6.5,8.5-6.5,8.5s-3-5-6.5-8.5
			s-8.5-6.5-8.5-6.5s5-3,8.5-6.5S-91,331.9-91,331.9"/>
		<path id="path96" class="st1" d="M-391,1.9c0,0,3,5,6.5,8.5s8.5,6.5,8.5,6.5s-5,3-8.5,6.5s-6.5,8.5-6.5,8.5s-3-5-6.5-8.5
			s-8.5-6.5-8.5-6.5s5-3,8.5-6.5S-391,1.9-391,1.9"/>
		<path id="path98" class="st1" d="M-391-58.1c-5.5,0-10,4.5-10,10v5h5v-5c0-2.8,2.2-5,5-5s5,2.2,5,5v5c0,1.1-0.4,3.1-1,3.9
			c-4.5,9.1-9.3,17.1-14,26.1v5h10h10v-5v-5h-5v5h-5h-4.5c4.5-7.9,8.2-15.6,12.5-23.6c1.3-1.7,2-4.1,2-6.4v-5
			C-381-53.7-385.5-58.1-391-58.1"/>
		<path id="path100" class="st1" d="M-91,421.9c5.5,0,10-4.5,10-10v-5h-5v5c0,2.8-2.2,5-5,5s-5-2.2-5-5v-5c0-1.1,0.4-3.1,1-3.9
			c4.5-9.1,9.3-17.1,14-26.1v-5h-10h-10v5v5h5v-5h5h4.5c-4.5,7.9-8.2,15.6-12.5,23.6c-1.3,1.7-2,4.1-2,6.4v5
			C-101,417.4-96.5,421.9-91,421.9"/>
	</g>
</g>
</svg>
