<?xml version="1.0" encoding="utf-8"?>
<!-- Generator: Adobe Illustrator 24.1.2, SVG Export Plug-In . SVG Version: 6.00 Build 0)  -->
<svg version="1.1" id="Слой_1" xmlns="http://www.w3.org/2000/svg" xmlns:xlink="http://www.w3.org/1999/xlink" x="0px" y="0px"
	 viewBox="0 0 359 539" style="enable-background:new 0 0 359 539;" xml:space="preserve">
<style type="text/css">
	.st0{fill:#FFFFFF;stroke:#000000;}
	.st1{fill:#FF5555;}
</style>
<g id="g102" transform="translate(420,-482.36)">
	<path id="rect104" class="st0" d="M-390.28,482.39h299.11c16.54,0,29.94,13.41,29.94,29.94v479.11c0,16.54-13.41,29.94-29.94,29.94
		h-299.11c-16.54,0-29.94-13.41-29.94-29.94V512.33C-420.22,495.79-406.81,482.39-390.28,482.39z"/>
	<g id="g106">
		<path id="path108" class="st1" d="M-390.72,579.39c0,0,0.68-4.18,2-5.5s3.64-2,5.5-2s4.18,0.68,5.5,2s2,3.64,2,5.5s-1,4.5-2,5.5
			s-2,1.5-3,2.5s-1.5,1-2.5,2s-1.5,1.5-2.5,2.5s-2.5,3-3.5,5s-1.5,5-1.5,5s-0.5-3-1.5-5s-2.5-4-3.5-5s-1.5-1.5-2.5-2.5s-1.5-1-2.5-2
			s-2-1.5-3-2.5s-2-3.64-2-5.5s0.68-4.18,2-5.5s3.64-2,5.5-2s4.18,0.68,5.5,2S-390.72,579.39-390.72,579.39"/>
		<path id="path110" class="st1" d="M-90.72,924.39c0,0,0.68,4.18,2,5.5s3.64,2,5.5,2s4.18-0.68,5.5-2s2-3.64,2-5.5s-1-4.5-2-5.5
			s-2-1.5-3-2.5s-1.5-1-2.5-2s-1.5-1.5-2.5-2.5s-2.5-3-3.5-5s-1.5-5-1.5-5s-0.5,3-1.5,5s-2.5,4-3.5,5s-1.5,1.5-2.5,2.5s-1.5,1-2.5,2
			s-2,1.5-3,2.5s-2,3.64-2,5.5s0.68,4.18,2,5.5s3.64,2,5.5,2s4.18-0.68,5.5-2S-90.72,924.39-90.72,924.39"/>
		<path id="path112" class="st1" d="M-240.72,551.89c0,0,1.82-11.15,5.33-14.67c3.51-3.51,9.7-5.33,14.67-5.33
			s11.15,1.82,14.67,5.33c3.51,3.51,5.33,9.7,5.33,14.67s-2.67,12-5.33,14.67c-2.67,2.67-5.33,4-8,6.67c-2.67,2.67-4,2.67-6.67,5.33
			c-2.67,2.67-4,4-6.67,6.67c-2.67,2.67-6.67,8-9.33,13.33c-2.67,5.33-4,13.33-4,13.33s-1.33-8-4-13.33s-6.67-10.67-9.33-13.33
			c-2.67-2.67-4-4-6.67-6.67s-4-2.67-6.67-5.33c-2.67-2.67-5.33-4-8-6.67s-5.33-9.7-5.33-14.67s1.82-11.15,5.33-14.67
			c3.51-3.51,9.7-5.33,14.67-5.33s11.15,1.82,14.67,5.33C-242.54,540.73-240.72,551.89-240.72,551.89"/>
		<path id="path114" class="st1" d="M-240.72,951.89c0,0,1.82,11.15,5.33,14.67c3.51,3.51,9.7,5.33,14.67,5.33
			s11.15-1.82,14.67-5.33c3.51-3.51,5.33-9.7,5.33-14.67s-2.67-12-5.33-14.67c-2.67-2.67-5.33-4-8-6.67c-2.67-2.67-4-2.67-6.67-5.33
			c-2.67-2.67-4-4-6.67-6.67c-2.67-2.67-6.67-8-9.33-13.33c-2.67-5.33-4-13.33-4-13.33s-1.33,8-4,13.33s-6.67,10.67-9.33,13.33
			c-2.67,2.67-4,4-6.67,6.67s-4,2.67-6.67,5.33c-2.67,2.67-5.33,4-8,6.67s-5.33,9.7-5.33,14.67s1.82,11.15,5.33,14.67
			c3.51,3.51,9.7,5.33,14.67,5.33s11.15-1.82,14.67-5.33C-242.54,963.04-240.72,951.89-240.72,951.89"/>
		<path id="path116" class="st1" d="M-390.72,511.89c-5.54,0-10,4.46-10,10v5h5v-5c0-2.77,2.23-5,5-5s5,2.23,5,5v5
			c0,1.13-0.38,3.07-1,3.9c-4.46,9.1-9.28,17.13-14,26.1v5h10h10v-5v-5h-5v5h-5h-4.5c4.49-7.91,8.22-15.57,12.5-23.6
			c1.25-1.67,2-4.15,2-6.4v-5C-380.72,516.35-385.18,511.89-390.72,511.89"/>
		<path id="path118" class="st1" d="M-90.72,991.89c5.54,0,10-4.46,10-10v-5h-5v5c0,2.77-2.23,5-5,5s-5-2.23-5-5v-5
			c0-1.13,0.38-3.07,1-3.9c4.46-9.1,9.28-17.13,14-26.1v-5h-10h-10v5v5h5v-5h5h4.5c-4.49,7.91-8.22,15.57-12.5,23.6
			c-1.25,1.67-2,4.15-2,6.4v5C-100.72,987.43-96.26,991.89-90.72,991.89"/>
	</g>
</g>
</svg>
