<?xml version="1.0" encoding="utf-8"?>
<!-- Generator: Adobe Illustrator 24.1.2, SVG Export Plug-In . SVG Version: 6.00 Build 0)  -->
<svg version="1.1" id="Слой_1" xmlns="http://www.w3.org/2000/svg" xmlns:xlink="http://www.w3.org/1999/xlink" x="0px" y="0px"
	 viewBox="0 0 359 539" style="enable-background:new 0 0 359 539;" xml:space="preserve">
<style type="text/css">
	.st0{fill:#FFFFFF;stroke:#000000;}
</style>
<g id="g14494" transform="translate(420,1227.64)">
	<path id="rect14496" class="st0" d="M-390.6-1227.6h299.1c16.5,0,29.9,13.4,29.9,29.9v479.1c0,16.5-13.4,29.9-29.9,29.9h-299.1
		c-16.5,0-29.9-13.4-29.9-29.9v-479.1C-420.5-1214.2-407.1-1227.6-390.6-1227.6z"/>
	<path id="path14498" d="M-391-1198.1c-5.5,0-10,4.5-10,10v5h5v-5c0-2.8,2.2-5,5-5s5,2.2,5,5v5c0,1.1-0.4,3.1-1,3.9
		c-4.5,9.1-9.3,17.1-14,26.1v5h10h10v-5v-5h-5v5h-5h-4.5c4.5-7.9,8.2-15.6,12.5-23.6c1.3-1.7,2-4.1,2-6.4v-5
		C-381-1193.7-385.5-1198.1-391-1198.1"/>
	<path id="path14500" d="M-91-718.1c5.5,0,10-4.5,10-10v-5h-5v5c0,2.8-2.2,5-5,5s-5-2.2-5-5v-5c0-1.1,0.4-3.1,1-3.9
		c4.5-9.1,9.3-17.1,14-26.1v-5h-10h-10v5v5h5v-5h5h4.5c-4.5,7.9-8.2,15.6-12.5,23.6c-1.3,1.7-2,4.1-2,6.4v5
		C-101-722.6-96.5-718.1-91-718.1"/>
	<path id="path14502" d="M-391-1138.1c-0.5,2.5-1.1,3.1-2,4.5c-0.8,1.2-1.9,2.1-3,3c-1.1,0.9-2.3,1.7-3.5,2.5c-1.3,1-2.9,1.7-4,3
		c-1.2,1.4-2.5,3.1-2.5,5c0,1.5,0.9,3,2,4c1.3,1.2,3.2,2,5,2c2,0,4-1.1,5.5-2.5c1.1-1,2-4,2-4v1c0,0.5,0,2.7-0.5,4
		c-0.5,1.5-1.4,2.8-2.5,4c-1.1,1.2-4,3-4,3v0.5c0,0,4-0.8,6-1c1-0.1,2-0.1,3,0c2,0.2,6,1,6,1v-0.5c0,0-2.9-1.8-4-3
		c-1.1-1.2-2-2.5-2.5-4c-0.5-1.3-0.5-4-0.5-4v-1c0,0,0.9,3,2,4c1.5,1.4,3.5,2.5,5.5,2.5c1.8,0,3.7-0.8,5-2c1.1-1,2-2.5,2-4
		c0-1.9-1.3-3.6-2.5-5c-1.1-1.3-2.7-2-4-3c-1.2-0.8-2.4-1.6-3.5-2.5c-1.1-0.9-2.2-1.8-3-3C-389.9-1135-390.5-1135.6-391-1138.1"/>
	<path id="path14504" d="M-91-778.1c-0.5-2.5-1.1-3.1-2-4.5c-0.8-1.2-1.9-2.1-3-3c-1.1-0.9-2.3-1.7-3.5-2.5c-1.3-1-2.9-1.7-4-3
		c-1.2-1.4-2.5-3.1-2.5-5c0-1.5,0.9-3,2-4c1.3-1.2,3.2-2,5-2c2,0,4,1.1,5.5,2.5c1.1,1,2,4,2,4v-1c0-0.5,0-2.7-0.5-4
		c-0.5-1.5-1.4-2.8-2.5-4c-1.1-1.2-4-3-4-3v-0.5c0,0,4,0.8,6,1c1,0.1,2,0.1,3,0c2-0.2,6-1,6-1v0.5c0,0-2.9,1.8-4,3
		c-1.1,1.2-2,2.5-2.5,4c-0.5,1.3-0.5,4-0.5,4v1c0,0,0.9-3,2-4c1.5-1.4,3.5-2.5,5.5-2.5c1.8,0,3.7,0.8,5,2c1.1,1,2,2.5,2,4
		c0,1.9-1.3,3.6-2.5,5c-1.1,1.3-2.7,2-4,3c-1.2,0.8-2.4,1.6-3.5,2.5c-1.1,0.9-2.2,1.8-3,3C-89.9-781.3-90.5-780.6-91-778.1"/>
	<path id="path14506" d="M-241-1178.1c-1.3,6.7-2.9,8.4-5.3,12c-2.1,3.1-5.1,5.6-8,8c-2.9,2.5-6.2,4.4-9.3,6.7
		c-3.6,2.6-7.8,4.6-10.7,8c-3.2,3.8-6.7,8.4-6.7,13.3c0,4,2.4,8,5.3,10.7c3.5,3.2,8.5,5.4,13.3,5.3c5.4-0.1,10.8-2.9,14.7-6.7
		c2.9-2.8,5.3-10.7,5.3-10.7v2.7c0,1.3-0.1,7.3-1.3,10.7c-1.4,4-3.8,7.6-6.7,10.7c-3,3.3-10.7,8-10.7,8v1.3c0,0,10.6-2.2,16-2.7
		c2.7-0.2,5.3-0.2,8,0c5.4,0.4,16,2.7,16,2.7v-1.3c0,0-7.7-4.7-10.7-8c-2.8-3.1-5.3-6.7-6.7-10.7c-1.2-3.4-1.3-10.7-1.3-10.7v-2.7
		c0,0,2.5,7.9,5.3,10.7c3.9,3.7,9.3,6.5,14.7,6.7c4.8,0.1,9.8-2.1,13.3-5.3c2.9-2.7,5.3-6.7,5.3-10.7c0-5-3.5-9.5-6.7-13.3
		c-2.8-3.4-7.1-5.4-10.7-8c-3.1-2.3-6.4-4.2-9.3-6.7c-2.9-2.4-5.9-4.9-8-8C-238.1-1169.7-239.7-1171.5-241-1178.1"/>
	<path id="path14508" d="M-241-738.1c-1.3-6.7-2.9-8.4-5.3-12c-2.1-3.1-5.1-5.6-8-8c-2.9-2.5-6.2-4.4-9.3-6.7
		c-3.6-2.6-7.8-4.6-10.7-8c-3.2-3.8-6.7-8.4-6.7-13.3c0-4,2.4-8,5.3-10.7c3.5-3.2,8.5-5.4,13.3-5.3c5.4,0.1,10.8,2.9,14.7,6.7
		c2.9,2.8,5.3,10.7,5.3,10.7v-2.7c0-1.3-0.1-7.3-1.3-10.7c-1.4-4-3.8-7.6-6.7-10.7c-3-3.3-10.7-8-10.7-8v-1.3c0,0,10.6,2.2,16,2.7
		c2.7,0.2,5.3,0.2,8,0c5.4-0.4,16-2.7,16-2.7v1.3c0,0-7.7,4.7-10.7,8c-2.8,3.1-5.3,6.7-6.7,10.7c-1.2,3.4-1.3,10.7-1.3,10.7v2.7
		c0,0,2.5-7.9,5.3-10.7c3.9-3.7,9.3-6.5,14.7-6.7c4.8-0.1,9.8,2.1,13.3,5.3c2.9,2.7,5.3,6.7,5.3,10.7c0,5-3.5,9.5-6.7,13.3
		c-2.8,3.4-7.1,5.4-10.7,8c-3.1,2.3-6.4,4.2-9.3,6.7c-2.9,2.4-5.9,4.9-8,8C-238.1-746.5-239.7-744.8-241-738.1"/>
</g>
</svg>
