<?xml version="1.0" encoding="utf-8"?>
<!-- Generator: Adobe Illustrator 24.1.2, SVG Export Plug-In . SVG Version: 6.00 Build 0)  -->
<svg version="1.1" id="Слой_1" xmlns="http://www.w3.org/2000/svg" xmlns:xlink="http://www.w3.org/1999/xlink" x="0px" y="0px"
	 viewBox="0 0 359 539" style="enable-background:new 0 0 359 539;" xml:space="preserve">
<style type="text/css">
	.st0{fill:#FFFFFF;stroke:#000000;}
	.st1{fill:#FF5555;}
</style>
<g id="g120" transform="translate(810,87.64)">
	<path id="rect122" class="st0" d="M-780.6-87.6h299.1c16.5,0,29.9,13.4,29.9,29.9v479.1c0,16.5-13.4,29.9-29.9,29.9h-299.1
		c-16.5,0-29.9-13.4-29.9-29.9V-57.7C-810.5-74.2-797.1-87.6-780.6-87.6z"/>
	<g id="g124">
		<path id="path126" class="st1" d="M-631-38.1c0,0,8,13.3,17.3,22.7C-604.3-6.1-591,1.9-591,1.9s-13.3,8-22.7,17.3
			C-623,28.5-631,41.9-631,41.9s-8-13.3-17.3-22.7C-657.7,9.9-671,1.9-671,1.9s13.3-8,22.7-17.3C-639-24.8-631-38.1-631-38.1"/>
		<path id="path128" class="st1" d="M-631,141.9c0,0,8,13.3,17.3,22.7c9.3,9.3,22.7,17.3,22.7,17.3s-13.3,8-22.7,17.3
			c-9.3,9.3-17.3,22.7-17.3,22.7s-8-13.3-17.3-22.7c-9.3-9.3-22.7-17.3-22.7-17.3s13.3-8,22.7-17.3C-639,155.2-631,141.9-631,141.9"
			/>
		<path id="path130" class="st1" d="M-631,321.9c0,0,8,13.3,17.3,22.7c9.3,9.3,22.7,17.3,22.7,17.3s-13.3,8-22.7,17.3
			c-9.3,9.3-17.3,22.7-17.3,22.7s-8-13.3-17.3-22.7c-9.3-9.3-22.7-17.3-22.7-17.3s13.3-8,22.7-17.3C-639,335.2-631,321.9-631,321.9"
			/>
		<path id="path132" class="st1" d="M-481,331.9c0,0,3,5,6.5,8.5s8.5,6.5,8.5,6.5s-5,3-8.5,6.5s-6.5,8.5-6.5,8.5s-3-5-6.5-8.5
			s-8.5-6.5-8.5-6.5s5-3,8.5-6.5S-481,331.9-481,331.9"/>
		<path id="path134" class="st1" d="M-781,1.9c0,0,3,5,6.5,8.5s8.5,6.5,8.5,6.5s-5,3-8.5,6.5s-6.5,8.5-6.5,8.5s-3-5-6.5-8.5
			s-8.5-6.5-8.5-6.5s5-3,8.5-6.5S-781,1.9-781,1.9"/>
		<path id="path136" class="st1" d="M-781-58.1c-5.5,0-10,4.5-10,10v5h5v-5c0-2.8,2.2-5,5-5s5,2.2,5,5v5c0,2.8-2.2,5-5,5h-5v5h5
			c2.8,0,5,2.2,5,5v10c0,2.8-2.2,5-5,5s-5-2.2-5-5v-5h-5v5c0,5.5,4.5,10,10,10s10-4.5,10-10v-10c0-3-1.3-5.7-3.4-7.5
			c2.1-1.8,3.4-4.5,3.4-7.5v-5C-771-53.7-775.5-58.1-781-58.1"/>
		<path id="path138" class="st1" d="M-481,421.9c5.5,0,10-4.5,10-10v-5h-5v5c0,2.8-2.2,5-5,5s-5-2.2-5-5v-5c0-2.8,2.2-5,5-5h5v-5h-5
			c-2.8,0-5-2.2-5-5v-10c0-2.8,2.2-5,5-5s5,2.2,5,5v5h5v-5c0-5.5-4.5-10-10-10s-10,4.5-10,10v10c0,3,1.3,5.7,3.4,7.5
			c-2.1,1.8-3.4,4.5-3.4,7.5v5C-491,417.4-486.5,421.9-481,421.9"/>
	</g>
</g>
</svg>
