<?xml version="1.0" encoding="utf-8"?>
<!-- Generator: Adobe Illustrator 24.1.2, SVG Export Plug-In . SVG Version: 6.00 Build 0)  -->
<svg version="1.1" id="Слой_1" xmlns="http://www.w3.org/2000/svg" xmlns:xlink="http://www.w3.org/1999/xlink" x="0px" y="0px"
	 viewBox="0 0 359 539" style="enable-background:new 0 0 359 539;" xml:space="preserve">
<style type="text/css">
	.st0{fill:#FFFFFF;stroke:#000000;}
	.st1{fill:#FF5555;}
</style>
<g id="g140" transform="translate(810,-482.36)">
	<path id="rect142" class="st0" d="M-780.28,482.39h299.11c16.54,0,29.94,13.41,29.94,29.94v479.11c0,16.54-13.41,29.94-29.94,29.94
		h-299.11c-16.54,0-29.94-13.41-29.94-29.94V512.33C-810.22,495.79-796.81,482.39-780.28,482.39z"/>
	<g id="g144">
		<path id="path146" class="st1" d="M-630.72,731.89c0,0,1.82-11.15,5.33-14.67c3.51-3.51,9.7-5.33,14.67-5.33
			s11.15,1.82,14.67,5.33c3.51,3.51,5.33,9.7,5.33,14.67s-2.67,12-5.33,14.67c-2.67,2.67-5.33,4-8,6.67s-4,2.67-6.67,5.33
			c-2.67,2.67-4,4-6.67,6.67s-6.67,8-9.33,13.33c-2.67,5.33-4,13.33-4,13.33s-1.33-8-4-13.33s-6.67-10.67-9.33-13.33
			c-2.67-2.67-4-4-6.67-6.67s-4-2.67-6.67-5.33c-2.67-2.67-5.33-4-8-6.67s-5.33-9.7-5.33-14.67s1.82-11.15,5.33-14.67
			c3.51-3.51,9.7-5.33,14.67-5.33s11.15,1.82,14.67,5.33C-632.54,720.73-630.72,731.89-630.72,731.89"/>
		<path id="path148" class="st1" d="M-780.72,579.39c0,0,0.68-4.18,2-5.5s3.64-2,5.5-2s4.18,0.68,5.5,2s2,3.64,2,5.5s-1,4.5-2,5.5
			s-2,1.5-3,2.5s-1.5,1-2.5,2s-1.5,1.5-2.5,2.5s-2.5,3-3.5,5s-1.5,5-1.5,5s-0.5-3-1.5-5s-2.5-4-3.5-5s-1.5-1.5-2.5-2.5s-1.5-1-2.5-2
			s-2-1.5-3-2.5s-2-3.64-2-5.5s0.68-4.18,2-5.5s3.64-2,5.5-2s4.18,0.68,5.5,2S-780.72,579.39-780.72,579.39"/>
		<path id="path150" class="st1" d="M-480.72,924.39c0,0,0.68,4.18,2,5.5s3.64,2,5.5,2s4.18-0.68,5.5-2s2-3.64,2-5.5s-1-4.5-2-5.5
			s-2-1.5-3-2.5s-1.5-1-2.5-2s-1.5-1.5-2.5-2.5s-2.5-3-3.5-5s-1.5-5-1.5-5s-0.5,3-1.5,5s-2.5,4-3.5,5s-1.5,1.5-2.5,2.5s-1.5,1-2.5,2
			s-2,1.5-3,2.5s-2,3.64-2,5.5s0.68,4.18,2,5.5s3.64,2,5.5,2s4.18-0.68,5.5-2S-480.72,924.39-480.72,924.39"/>
		<path id="path152" class="st1" d="M-780.72,511.89c-5.54,0-10,4.46-10,10v5h5v-5c0-2.77,2.23-5,5-5s5,2.23,5,5v5
			c0,2.77-2.23,5-5,5h-5v5h5c2.77,0,5,2.23,5,5v10c0,2.77-2.23,5-5,5s-5-2.23-5-5v-5h-5v5c0,5.54,4.46,10,10,10s10-4.46,10-10v-10
			c0-3-1.32-5.67-3.41-7.5c2.08-1.83,3.41-4.5,3.41-7.5v-5C-770.72,516.35-775.18,511.89-780.72,511.89"/>
		<path id="path154" class="st1" d="M-630.72,551.89c0,0,1.82-11.15,5.33-14.67c3.51-3.51,9.7-5.33,14.67-5.33
			s11.15,1.82,14.67,5.33c3.51,3.51,5.33,9.7,5.33,14.67s-2.67,12-5.33,14.67c-2.67,2.67-5.33,4-8,6.67s-4,2.67-6.67,5.33
			c-2.67,2.67-4,4-6.67,6.67s-6.67,8-9.33,13.33c-2.67,5.33-4,13.33-4,13.33s-1.33-8-4-13.33s-6.67-10.67-9.33-13.33
			c-2.67-2.67-4-4-6.67-6.67s-4-2.67-6.67-5.33c-2.67-2.67-5.33-4-8-6.67s-5.33-9.7-5.33-14.67s1.82-11.15,5.33-14.67
			c3.51-3.51,9.7-5.33,14.67-5.33s11.15,1.82,14.67,5.33C-632.54,540.73-630.72,551.89-630.72,551.89"/>
		<path id="path156" class="st1" d="M-630.72,951.89c0,0,1.82,11.15,5.33,14.67c3.51,3.51,9.7,5.33,14.67,5.33
			s11.15-1.82,14.67-5.33c3.51-3.51,5.33-9.7,5.33-14.67s-2.67-12-5.33-14.67c-2.67-2.67-5.33-4-8-6.67s-4-2.67-6.67-5.33
			c-2.67-2.67-4-4-6.67-6.67s-6.67-8-9.33-13.33c-2.67-5.33-4-13.33-4-13.33s-1.33,8-4,13.33s-6.67,10.67-9.33,13.33
			c-2.67,2.67-4,4-6.67,6.67s-4,2.67-6.67,5.33c-2.67,2.67-5.33,4-8,6.67s-5.33,9.7-5.33,14.67s1.82,11.15,5.33,14.67
			c3.51,3.51,9.7,5.33,14.67,5.33s11.15-1.82,14.67-5.33C-632.54,963.04-630.72,951.89-630.72,951.89"/>
		<path id="path158" class="st1" d="M-480.72,991.89c5.54,0,10-4.46,10-10v-5h-5v5c0,2.77-2.23,5-5,5s-5-2.23-5-5v-5
			c0-2.77,2.23-5,5-5h5v-5h-5c-2.77,0-5-2.23-5-5v-10c0-2.77,2.23-5,5-5s5,2.23,5,5v5h5v-5c0-5.54-4.46-10-10-10s-10,4.46-10,10v10
			c0,3,1.32,5.67,3.41,7.5c-2.08,1.83-3.41,4.5-3.41,7.5v5C-490.72,987.43-486.26,991.89-480.72,991.89"/>
	</g>
</g>
</svg>
