<?xml version="1.0" encoding="utf-8"?>
<!-- Generator: Adobe Illustrator 24.1.2, SVG Export Plug-In . SVG Version: 6.00 Build 0)  -->
<svg version="1.1" id="Слой_1" xmlns="http://www.w3.org/2000/svg" xmlns:xlink="http://www.w3.org/1999/xlink" x="0px" y="0px"
	 viewBox="0 0 359 539" style="enable-background:new 0 0 359 539;" xml:space="preserve">
<style type="text/css">
	.st0{fill:#FFFFFF;stroke:#000000;}
	.st1{fill:#FF5555;}
</style>
<g id="g310" transform="translate(1200,87.64)">
	<path id="rect312" class="st0" d="M-1170.6-87.6h299.1c16.5,0,29.9,13.4,29.9,29.9v479.1c0,16.5-13.4,29.9-29.9,29.9h-299.1
		c-16.5,0-29.9-13.4-29.9-29.9V-57.7C-1200.5-74.2-1187.1-87.6-1170.6-87.6z"/>
	<g id="g314">
		<path id="path316" class="st1" d="M-1101-38.1c0,0,8,13.3,17.3,22.7c9.3,9.3,22.7,17.3,22.7,17.3s-13.3,8-22.7,17.3
			c-9.3,9.3-17.3,22.7-17.3,22.7s-8-13.3-17.3-22.7c-9.3-9.3-22.7-17.3-22.7-17.3s13.3-8,22.7-17.3C-1109-24.8-1101-38.1-1101-38.1"
			/>
		<path id="path318" class="st1" d="M-941-38.1c0,0,8,13.3,17.3,22.7C-914.3-6.1-901,1.9-901,1.9s-13.3,8-22.7,17.3
			C-933,28.5-941,41.9-941,41.9s-8-13.3-17.3-22.7C-967.7,9.9-981,1.9-981,1.9s13.3-8,22.7-17.3C-949-24.8-941-38.1-941-38.1"/>
		<path id="path320" class="st1" d="M-1101,321.9c0,0,8,13.3,17.3,22.7c9.3,9.3,22.7,17.3,22.7,17.3s-13.3,8-22.7,17.3
			c-9.3,9.3-17.3,22.7-17.3,22.7s-8-13.3-17.3-22.7c-9.3-9.3-22.7-17.3-22.7-17.3s13.3-8,22.7-17.3
			C-1109,335.2-1101,321.9-1101,321.9"/>
		<path id="path322" class="st1" d="M-941,321.9c0,0,8,13.3,17.3,22.7c9.3,9.3,22.7,17.3,22.7,17.3s-13.3,8-22.7,17.3
			c-9.3,9.3-17.3,22.7-17.3,22.7s-8-13.3-17.3-22.7c-9.3-9.3-22.7-17.3-22.7-17.3s13.3-8,22.7-17.3C-949,335.2-941,321.9-941,321.9"
			/>
		<path id="path324" class="st1" d="M-871,331.9c0,0,3,5,6.5,8.5s8.5,6.5,8.5,6.5s-5,3-8.5,6.5s-6.5,8.5-6.5,8.5s-3-5-6.5-8.5
			s-8.5-6.5-8.5-6.5s5-3,8.5-6.5S-871,331.9-871,331.9"/>
		<path id="path326" class="st1" d="M-1171,1.9c0,0,3,5,6.5,8.5s8.5,6.5,8.5,6.5s-5,3-8.5,6.5s-6.5,8.5-6.5,8.5s-3-5-6.5-8.5
			s-8.5-6.5-8.5-6.5s5-3,8.5-6.5S-1171,1.9-1171,1.9"/>
		<path id="path328" class="st1" d="M-1171-58.1l-10,35v5h12v10h5v-10h3v-5h-3v-15h-5v15h-6.8l10-35H-1171z"/>
		<path id="path330" class="st1" d="M-871,421.9l10-35v-5h-12v-10h-5v10h-3v5h3v15h5v-15h6.8l-10,35H-871z"/>
	</g>
</g>
</svg>
