<?xml version="1.0" encoding="utf-8"?>
<!-- Generator: Adobe Illustrator 24.1.2, SVG Export Plug-In . SVG Version: 6.00 Build 0)  -->
<svg version="1.1" id="Слой_1" xmlns="http://www.w3.org/2000/svg" xmlns:xlink="http://www.w3.org/1999/xlink" x="0px" y="0px"
	 viewBox="0 0 359 539" style="enable-background:new 0 0 359 539;" xml:space="preserve">
<style type="text/css">
	.st0{fill:#FFFFFF;stroke:#000000;}
	.st1{fill:#FF5555;}
</style>
<g id="g332" transform="translate(1200,-482.36)">
	<path id="rect334" class="st0" d="M-1170.28,482.39h299.11c16.54,0,29.94,13.41,29.94,29.94v479.11
		c0,16.54-13.41,29.94-29.94,29.94h-299.11c-16.54,0-29.94-13.41-29.94-29.94V512.33C-1200.22,495.79-1186.81,482.39-1170.28,482.39
		z"/>
	<g id="g336">
		<path id="path338" class="st1" d="M-1170.72,579.39c0,0,0.68-4.18,2-5.5c1.32-1.32,3.64-2,5.5-2c1.86,0,4.18,0.68,5.5,2
			c1.32,1.32,2,3.64,2,5.5s-1,4.5-2,5.5s-2,1.5-3,2.5s-1.5,1-2.5,2s-1.5,1.5-2.5,2.5s-2.5,3-3.5,5s-1.5,5-1.5,5s-0.5-3-1.5-5
			s-2.5-4-3.5-5s-1.5-1.5-2.5-2.5s-1.5-1-2.5-2s-2-1.5-3-2.5s-2-3.64-2-5.5s0.68-4.18,2-5.5c1.32-1.32,3.64-2,5.5-2
			c1.86,0,4.18,0.68,5.5,2C-1171.4,575.2-1170.72,579.39-1170.72,579.39"/>
		<path id="path340" class="st1" d="M-870.72,924.39c0,0,0.68,4.18,2,5.5s3.64,2,5.5,2c1.86,0,4.18-0.68,5.5-2s2-3.64,2-5.5
			s-1-4.5-2-5.5s-2-1.5-3-2.5s-1.5-1-2.5-2s-1.5-1.5-2.5-2.5s-2.5-3-3.5-5s-1.5-5-1.5-5s-0.5,3-1.5,5s-2.5,4-3.5,5s-1.5,1.5-2.5,2.5
			s-1.5,1-2.5,2s-2,1.5-3,2.5s-2,3.64-2,5.5s0.68,4.18,2,5.5s3.64,2,5.5,2c1.86,0,4.18-0.68,5.5-2S-870.72,924.39-870.72,924.39"/>
		<path id="path342" class="st1" d="M-1100.72,551.89c0,0,1.82-11.15,5.33-14.67c3.51-3.51,9.7-5.33,14.67-5.33
			c4.97,0,11.15,1.82,14.67,5.33c3.51,3.51,5.33,9.7,5.33,14.67s-2.67,12-5.33,14.67c-2.67,2.67-5.33,4-8,6.67
			c-2.67,2.67-4,2.67-6.67,5.33c-2.67,2.67-4,4-6.67,6.67s-6.67,8-9.33,13.33c-2.67,5.33-4,13.33-4,13.33s-1.33-8-4-13.33
			c-2.67-5.33-6.67-10.67-9.33-13.33c-2.67-2.67-4-4-6.67-6.67c-2.67-2.67-4-2.67-6.67-5.33c-2.67-2.67-5.33-4-8-6.67
			s-5.33-9.7-5.33-14.67s1.82-11.15,5.33-14.67c3.51-3.51,9.7-5.33,14.67-5.33c4.97,0,11.15,1.82,14.67,5.33
			C-1102.54,540.73-1100.72,551.89-1100.72,551.89"/>
		<path id="path344" class="st1" d="M-1100.72,951.89c0,0,1.82,11.15,5.33,14.67c3.51,3.51,9.7,5.33,14.67,5.33
			c4.97,0,11.15-1.82,14.67-5.33c3.51-3.51,5.33-9.7,5.33-14.67s-2.67-12-5.33-14.67c-2.67-2.67-5.33-4-8-6.67
			c-2.67-2.67-4-2.67-6.67-5.33c-2.67-2.67-4-4-6.67-6.67s-6.67-8-9.33-13.33c-2.67-5.33-4-13.33-4-13.33s-1.33,8-4,13.33
			c-2.67,5.33-6.67,10.67-9.33,13.33c-2.67,2.67-4,4-6.67,6.67c-2.67,2.67-4,2.67-6.67,5.33c-2.67,2.67-5.33,4-8,6.67
			s-5.33,9.7-5.33,14.67s1.82,11.15,5.33,14.67c3.51,3.51,9.7,5.33,14.67,5.33c4.97,0,11.15-1.82,14.67-5.33
			C-1102.54,963.04-1100.72,951.89-1100.72,951.89"/>
		<path id="path346" class="st1" d="M-1170.72,511.89l-10,35v5h12v10h5v-10h3v-5h-3v-15h-5v15h-6.8l10-35H-1170.72z"/>
		<path id="path348" class="st1" d="M-870.72,991.89l10-35v-5h-12v-10h-5v10h-3v5h3v15h5v-15h6.8l-10,35H-870.72z"/>
		<path id="path350" class="st1" d="M-940.72,951.89c0,0,1.82,11.15,5.33,14.67c3.51,3.51,9.7,5.33,14.67,5.33
			s11.15-1.82,14.67-5.33c3.51-3.51,5.33-9.7,5.33-14.67s-2.67-12-5.33-14.67c-2.67-2.67-5.33-4-8-6.67s-4-2.67-6.67-5.33
			c-2.67-2.67-4-4-6.67-6.67s-6.67-8-9.33-13.33c-2.67-5.33-4-13.33-4-13.33s-1.33,8-4,13.33s-6.67,10.67-9.33,13.33
			c-2.67,2.67-4,4-6.67,6.67s-4,2.67-6.67,5.33c-2.67,2.67-5.33,4-8,6.67s-5.33,9.7-5.33,14.67s1.82,11.15,5.33,14.67
			c3.51,3.51,9.7,5.33,14.67,5.33s11.15-1.82,14.67-5.33C-942.54,963.04-940.72,951.89-940.72,951.89"/>
		<path id="path352" class="st1" d="M-940.72,551.89c0,0,1.82-11.15,5.33-14.67c3.51-3.51,9.7-5.33,14.67-5.33
			s11.15,1.82,14.67,5.33c3.51,3.51,5.33,9.7,5.33,14.67s-2.67,12-5.33,14.67c-2.67,2.67-5.33,4-8,6.67s-4,2.67-6.67,5.33
			c-2.67,2.67-4,4-6.67,6.67s-6.67,8-9.33,13.33c-2.67,5.33-4,13.33-4,13.33s-1.33-8-4-13.33s-6.67-10.67-9.33-13.33
			c-2.67-2.67-4-4-6.67-6.67s-4-2.67-6.67-5.33c-2.67-2.67-5.33-4-8-6.67s-5.33-9.7-5.33-14.67s1.82-11.15,5.33-14.67
			c3.51-3.51,9.7-5.33,14.67-5.33s11.15,1.82,14.67,5.33C-942.54,540.73-940.72,551.89-940.72,551.89"/>
	</g>
</g>
</svg>
