<?xml version="1.0" encoding="utf-8"?>
<!-- Generator: Adobe Illustrator 24.1.2, SVG Export Plug-In . SVG Version: 6.00 Build 0)  -->
<svg version="1.1" id="Слой_1" xmlns="http://www.w3.org/2000/svg" xmlns:xlink="http://www.w3.org/1999/xlink" x="0px" y="0px"
	 viewBox="0 0 359 539" style="enable-background:new 0 0 359 539;" xml:space="preserve">
<style type="text/css">
	.st0{fill:#FFFFFF;stroke:#000000;}
</style>
<g id="g180" transform="translate(1590,657.64)">
	<path id="rect182" class="st0" d="M-1560.6-657.6h299.1c16.5,0,29.9,13.4,29.9,29.9v479.1c0,16.5-13.4,29.9-29.9,29.9h-299.1
		c-16.5,0-29.9-13.4-29.9-29.9v-479.1C-1590.5-644.2-1577.1-657.6-1560.6-657.6z"/>
	<path id="path184" d="M-1571-628.1v15v5h10c2.8,0,5,2.2,5,5v15c0,2.8-2.2,5-5,5s-5-2.2-5-5v-5h-5v5c0,5.5,4.5,10,10,10
		s10-4.5,10-10v-15c0-5.5-4.5-10-10-10h-5v-10h5h10v-5h-10h-5H-1571z"/>
	<path id="path186" d="M-1251-148.1v-15v-5h-10c-2.8,0-5-2.2-5-5v-15c0-2.8,2.2-5,5-5s5,2.2,5,5v5h5v-5c0-5.5-4.5-10-10-10
		s-10,4.5-10,10v15c0,5.5,4.5,10,10,10h5v10h-5h-10v5h10h5H-1251z"/>
	<path id="path188" d="M-1491-608.1c-4-0.1-6.7,1.3-9.3,4c-2.7,2.7-4,5.3-4,9.3s1.5,6.4,4,9.3c2.4,2.8,4,4,5.3,6.7
		c1.3,2.7,2.7,8,2.7,10.7c0,2.7,0,2.4,0,4h-2.7c-2.7,0-8-2.7-9.3-4l-4-4c-2.7-2.7-5.3-4-9.3-4s-6.7,1.3-9.3,4c-2.7,2.7-4,5.3-4,9.3
		s1.3,6.7,4,9.3s5.3,4,9.3,4s6.7-1.3,9.3-4l4-4c1.3-1.3,6.7-4,9.3-4h2.7c-0.1,3.8-0.3,10.4-1.3,13.3c-1.3,4-4,8-6.7,10.7
		c-2.7,2.7-10.7,8-10.7,8v1.3c0,0,13.3-2.7,16-2.7h8c2.7,0,16,2.7,16,2.7v-1.3c0,0-8-5.3-10.7-8s-5.3-6.7-6.7-10.7
		c-1-3-1.3-9.6-1.3-13.3h2.7c2.7,0,8,2.7,9.3,4l4,4c2.7,2.7,5.3,4,9.3,4s6.7-1.3,9.3-4c2.7-2.7,4-5.3,4-9.3s-1.3-6.7-4-9.3
		s-5.3-4-9.3-4s-6.7,1.3-9.3,4l-4,4c-1.3,1.3-6.7,4-9.3,4h-2.7c0-1.9,0-1.3,0-4s1.3-8,2.7-10.7c1.3-2.7,2.7-4,5.3-6.7
		c2.7-2.7,4-5.3,4-9.3s-1.3-6.7-4-9.3S-1487-608.1-1491-608.1"/>
	<path id="path190" d="M-1331-608.1c-4-0.1-6.7,1.3-9.3,4c-2.7,2.7-4,5.3-4,9.3s1.5,6.4,4,9.3c2.4,2.8,4,4,5.3,6.7
		c1.3,2.7,2.7,8,2.7,10.7c0,2.7,0,2.4,0,4h-2.7c-2.7,0-8-2.7-9.3-4l-4-4c-2.7-2.7-5.3-4-9.3-4s-6.7,1.3-9.3,4c-2.7,2.7-4,5.3-4,9.3
		s1.3,6.7,4,9.3s5.3,4,9.3,4s6.7-1.3,9.3-4l4-4c1.3-1.3,6.7-4,9.3-4h2.7c-0.1,3.8-0.3,10.4-1.3,13.3c-1.3,4-4,8-6.7,10.7
		c-2.7,2.7-10.7,8-10.7,8v1.3c0,0,13.3-2.7,16-2.7h8c2.7,0,16,2.7,16,2.7v-1.3c0,0-8-5.3-10.7-8s-5.3-6.7-6.7-10.7
		c-1-3-1.3-9.6-1.3-13.3h2.7c2.7,0,8,2.7,9.3,4l4,4c2.7,2.7,5.3,4,9.3,4s6.7-1.3,9.3-4c2.7-2.7,4-5.3,4-9.3s-1.3-6.7-4-9.3
		s-5.3-4-9.3-4s-6.7,1.3-9.3,4l-4,4c-1.3,1.3-6.7,4-9.3,4h-2.7c0-1.9,0-1.3,0-4s1.3-8,2.7-10.7c1.3-2.7,2.7-4,5.3-6.7
		c2.7-2.7,4-5.3,4-9.3s-1.3-6.7-4-9.3S-1327-608.1-1331-608.1"/>
	<path id="path192" d="M-1411-428.1c-4-0.1-6.7,1.3-9.3,4c-2.7,2.7-4,5.3-4,9.3s1.5,6.4,4,9.3c2.4,2.8,4,4,5.3,6.7
		c1.3,2.7,2.7,8,2.7,10.7c0,2.7,0,2.4,0,4h-2.7c-2.7,0-8-2.7-9.3-4l-4-4c-2.7-2.7-5.3-4-9.3-4s-6.7,1.3-9.3,4c-2.7,2.7-4,5.3-4,9.3
		s1.3,6.7,4,9.3s5.3,4,9.3,4s6.7-1.3,9.3-4l4-4c1.3-1.3,6.7-4,9.3-4h2.7c-0.1,3.8-0.3,10.4-1.3,13.3c-1.3,4-4,8-6.7,10.7
		c-2.7,2.7-10.7,8-10.7,8v1.3c0,0,13.3-2.7,16-2.7h8c2.7,0,16,2.7,16,2.7v-1.3c0,0-8-5.3-10.7-8s-5.3-6.7-6.7-10.7
		c-1-3-1.3-9.6-1.3-13.3h2.7c2.7,0,8,2.7,9.3,4l4,4c2.7,2.7,5.3,4,9.3,4s6.7-1.3,9.3-4c2.7-2.7,4-5.3,4-9.3s-1.3-6.7-4-9.3
		s-5.3-4-9.3-4s-6.7,1.3-9.3,4l-4,4c-1.3,1.3-6.7,4-9.3,4h-2.7c0-1.9,0-1.3,0-4s1.3-8,2.7-10.7c1.3-2.7,2.7-4,5.3-6.7
		c2.7-2.7,4-5.3,4-9.3s-1.3-6.7-4-9.3S-1407-428.1-1411-428.1"/>
	<path id="path194" d="M-1331-168.1c4,0.1,6.7-1.3,9.3-4c2.7-2.7,4-5.3,4-9.3s-1.5-6.4-4-9.3c-2.4-2.8-4-4-5.3-6.7
		c-1.3-2.7-2.7-8-2.7-10.7c0-2.7,0-2.4,0-4h2.7c2.7,0,8,2.7,9.3,4l4,4c2.7,2.7,5.3,4,9.3,4s6.7-1.3,9.3-4c2.7-2.7,4-5.3,4-9.3
		s-1.3-6.7-4-9.3s-5.3-4-9.3-4s-6.7,1.3-9.3,4l-4,4c-1.3,1.3-6.7,4-9.3,4h-2.7c0.1-3.8,0.3-10.4,1.3-13.3c1.3-4,4-8,6.7-10.7
		c2.7-2.7,10.7-8,10.7-8v-1.3c0,0-13.3,2.7-16,2.7h-8c-2.7,0-16-2.7-16-2.7v1.3c0,0,8,5.3,10.7,8s5.3,6.7,6.7,10.7
		c1,3,1.3,9.6,1.3,13.3h-2.7c-2.7,0-8-2.7-9.3-4l-4-4c-2.7-2.7-5.3-4-9.3-4s-6.7,1.3-9.3,4c-2.7,2.7-4,5.3-4,9.3s1.3,6.7,4,9.3
		s5.3,4,9.3,4s6.7-1.3,9.3-4l4-4c1.3-1.3,6.7-4,9.3-4h2.7c0,1.9,0,1.3,0,4s-1.3,8-2.7,10.7c-1.3,2.7-2.7,4-5.3,6.7
		c-2.7,2.7-4,5.3-4,9.3s1.3,6.7,4,9.3S-1335-168.1-1331-168.1"/>
	<path id="path196" d="M-1491-168.1c4,0.1,6.7-1.3,9.3-4c2.7-2.7,4-5.3,4-9.3s-1.5-6.4-4-9.3c-2.4-2.8-4-4-5.3-6.7
		c-1.3-2.7-2.7-8-2.7-10.7c0-2.7,0-2.4,0-4h2.7c2.7,0,8,2.7,9.3,4l4,4c2.7,2.7,5.3,4,9.3,4s6.7-1.3,9.3-4c2.7-2.7,4-5.3,4-9.3
		s-1.3-6.7-4-9.3s-5.3-4-9.3-4s-6.7,1.3-9.3,4l-4,4c-1.3,1.3-6.7,4-9.3,4h-2.7c0.1-3.8,0.3-10.4,1.3-13.3c1.3-4,4-8,6.7-10.7
		c2.7-2.7,10.7-8,10.7-8v-1.3c0,0-13.3,2.7-16,2.7h-8c-2.7,0-16-2.7-16-2.7v1.3c0,0,8,5.3,10.7,8s5.3,6.7,6.7,10.7
		c1,3,1.3,9.6,1.3,13.3h-2.7c-2.7,0-8-2.7-9.3-4l-4-4c-2.7-2.7-5.3-4-9.3-4s-6.7,1.3-9.3,4c-2.7,2.7-4,5.3-4,9.3s1.3,6.7,4,9.3
		s5.3,4,9.3,4s6.7-1.3,9.3-4l4-4c1.3-1.3,6.7-4,9.3-4h2.7c0,1.9,0,1.3,0,4s-1.3,8-2.7,10.7c-1.3,2.7-2.7,4-5.3,6.7
		c-2.7,2.7-4,5.3-4,9.3s1.3,6.7,4,9.3S-1495-168.1-1491-168.1"/>
	<path id="path198" d="M-1561-568.1c-1.5,0-2.5,0.5-3.5,1.5s-1.5,2-1.5,3.5s0.6,2.4,1.5,3.5c0.9,1.1,1.5,1.5,2,2.5s1,3,1,4
		s0,0.9,0,1.5h-1c-1,0-3-1-3.5-1.5l-1.5-1.5c-1-1-2-1.5-3.5-1.5s-2.5,0.5-3.5,1.5s-1.5,2-1.5,3.5s0.5,2.5,1.5,3.5s2,1.5,3.5,1.5
		s2.5-0.5,3.5-1.5l1.5-1.5c0.5-0.5,2.5-1.5,3.5-1.5h1c0,1.4-0.1,3.9-0.5,5c-0.5,1.5-1.5,3-2.5,4s-4,3-4,3v0.5c0,0,5-1,6-1h3
		c1,0,6,1,6,1v-0.5c0,0-3-2-4-3s-2-2.5-2.5-4c-0.4-1.1-0.5-3.6-0.5-5h1c1,0,3,1,3.5,1.5l1.5,1.5c1,1,2,1.5,3.5,1.5s2.5-0.5,3.5-1.5
		s1.5-2,1.5-3.5s-0.5-2.5-1.5-3.5s-2-1.5-3.5-1.5s-2.5,0.5-3.5,1.5l-1.5,1.5c-0.5,0.5-2.5,1.5-3.5,1.5h-1c0-0.7,0-0.5,0-1.5
		s0.5-3,1-4s1-1.5,2-2.5c1-1,1.5-2,1.5-3.5s-0.5-2.5-1.5-3.5S-1559.5-568.1-1561-568.1"/>
	<path id="path200" d="M-1261-208.1c1.5,0,2.5-0.5,3.5-1.5s1.5-2,1.5-3.5s-0.6-2.4-1.5-3.5c-0.9-1.1-1.5-1.5-2-2.5s-1-3-1-4
		s0-0.9,0-1.5h1c1,0,3,1,3.5,1.5l1.5,1.5c1,1,2,1.5,3.5,1.5s2.5-0.5,3.5-1.5s1.5-2,1.5-3.5s-0.5-2.5-1.5-3.5s-2-1.5-3.5-1.5
		s-2.5,0.5-3.5,1.5l-1.5,1.5c-0.5,0.5-2.5,1.5-3.5,1.5h-1c0-1.4,0.1-3.9,0.5-5c0.5-1.5,1.5-3,2.5-4s4-3,4-3v-0.5c0,0-5,1-6,1h-3
		c-1,0-6-1-6-1v0.5c0,0,3,2,4,3s2,2.5,2.5,4c0.4,1.1,0.5,3.6,0.5,5h-1c-1,0-3-1-3.5-1.5l-1.5-1.5c-1-1-2-1.5-3.5-1.5
		s-2.5,0.5-3.5,1.5s-1.5,2-1.5,3.5s0.5,2.5,1.5,3.5s2,1.5,3.5,1.5s2.5-0.5,3.5-1.5l1.5-1.5c0.5-0.5,2.5-1.5,3.5-1.5h1
		c0,0.7,0,0.5,0,1.5s-0.5,3-1,4s-1,1.5-2,2.5c-1,1-1.5,2-1.5,3.5s0.5,2.5,1.5,3.5S-1262.5-208.1-1261-208.1"/>
</g>
</svg>
