<?xml version="1.0" encoding="utf-8"?>
<!-- Generator: Adobe Illustrator 24.1.2, SVG Export Plug-In . SVG Version: 6.00 Build 0)  -->
<svg version="1.1" id="Слой_1" xmlns="http://www.w3.org/2000/svg" xmlns:xlink="http://www.w3.org/1999/xlink" x="0px" y="0px"
	 viewBox="0 0 359 539" style="enable-background:new 0 0 359 539;" xml:space="preserve">
<style type="text/css">
	.st0{fill:#FFFFFF;stroke:#000000;}
	.st1{fill:#FF5555;}
</style>
<g id="g354" transform="translate(1590,87.64)">
	<path id="rect356" class="st0" d="M-1560.6-87.6h299.1c16.5,0,29.9,13.4,29.9,29.9v479.1c0,16.5-13.4,29.9-29.9,29.9h-299.1
		c-16.5,0-29.9-13.4-29.9-29.9V-57.7C-1590.5-74.2-1577.1-87.6-1560.6-87.6z"/>
	<g id="g358">
		<path id="path360" class="st1" d="M-1491-38.1c0,0,8,13.3,17.3,22.7c9.3,9.3,22.7,17.3,22.7,17.3s-13.3,8-22.7,17.3
			c-9.3,9.3-17.3,22.7-17.3,22.7s-8-13.3-17.3-22.7c-9.3-9.3-22.7-17.3-22.7-17.3s13.3-8,22.7-17.3C-1499-24.8-1491-38.1-1491-38.1"
			/>
		<path id="path362" class="st1" d="M-1331-38.1c0,0,8,13.3,17.3,22.7c9.3,9.3,22.7,17.3,22.7,17.3s-13.3,8-22.7,17.3
			c-9.3,9.3-17.3,22.7-17.3,22.7s-8-13.3-17.3-22.7c-9.3-9.3-22.7-17.3-22.7-17.3s13.3-8,22.7-17.3C-1339-24.8-1331-38.1-1331-38.1"
			/>
		<path id="path364" class="st1" d="M-1411,141.9c0,0,8,13.3,17.3,22.7c9.3,9.3,22.7,17.3,22.7,17.3s-13.3,8-22.7,17.3
			c-9.3,9.3-17.3,22.7-17.3,22.7s-8-13.3-17.3-22.7c-9.3-9.3-22.7-17.3-22.7-17.3s13.3-8,22.7-17.3
			C-1419,155.2-1411,141.9-1411,141.9"/>
		<path id="path366" class="st1" d="M-1491,321.9c0,0,8,13.3,17.3,22.7c9.3,9.3,22.7,17.3,22.7,17.3s-13.3,8-22.7,17.3
			c-9.3,9.3-17.3,22.7-17.3,22.7s-8-13.3-17.3-22.7c-9.3-9.3-22.7-17.3-22.7-17.3s13.3-8,22.7-17.3
			C-1499,335.2-1491,321.9-1491,321.9"/>
		<path id="path368" class="st1" d="M-1331,321.9c0,0,8,13.3,17.3,22.7c9.3,9.3,22.7,17.3,22.7,17.3s-13.3,8-22.7,17.3
			c-9.3,9.3-17.3,22.7-17.3,22.7s-8-13.3-17.3-22.7c-9.3-9.3-22.7-17.3-22.7-17.3s13.3-8,22.7-17.3
			C-1339,335.2-1331,321.9-1331,321.9"/>
		<path id="path370" class="st1" d="M-1261,331.9c0,0,3,5,6.5,8.5s8.5,6.5,8.5,6.5s-5,3-8.5,6.5s-6.5,8.5-6.5,8.5s-3-5-6.5-8.5
			s-8.5-6.5-8.5-6.5s5-3,8.5-6.5S-1261,331.9-1261,331.9"/>
		<path id="path372" class="st1" d="M-1561,1.9c0,0,3,5,6.5,8.5s8.5,6.5,8.5,6.5s-5,3-8.5,6.5s-6.5,8.5-6.5,8.5s-3-5-6.5-8.5
			s-8.5-6.5-8.5-6.5s5-3,8.5-6.5S-1561,1.9-1561,1.9"/>
		<path id="path374" class="st1" d="M-1571-58.1v15v5h10c2.8,0,5,2.2,5,5v15c0,2.8-2.2,5-5,5s-5-2.2-5-5v-5h-5v5c0,5.5,4.5,10,10,10
			s10-4.5,10-10v-15c0-5.5-4.7-11.6-10-10h-5v-10h5h10v-5h-10h-5H-1571z"/>
		<path id="path376" class="st1" d="M-1251,421.9v-15v-5h-10c-2.8,0-5-2.2-5-5v-15c0-2.8,2.2-5,5-5s5,2.2,5,5v5h5v-5
			c0-5.5-4.5-10-10-10s-10,4.5-10,10v15c0,5.5,4.5,10,10,10h5v10h-5h-10v5h10h5H-1251z"/>
	</g>
</g>
</svg>
