<?xml version="1.0" encoding="utf-8"?>
<!-- Generator: Adobe Illustrator 24.1.2, SVG Export Plug-In . SVG Version: 6.00 Build 0)  -->
<svg version="1.1" id="Слой_1" xmlns="http://www.w3.org/2000/svg" xmlns:xlink="http://www.w3.org/1999/xlink" x="0px" y="0px"
	 viewBox="0 0 359 539" style="enable-background:new 0 0 359 539;" xml:space="preserve">
<style type="text/css">
	.st0{fill:#FFFFFF;stroke:#000000;}
	.st1{fill:#FF5555;}
</style>
<g id="g378" transform="translate(1590,-482.36)">
	<path id="rect380" class="st0" d="M-1560.28,482.39h299.11c16.54,0,29.94,13.41,29.94,29.94v479.11
		c0,16.54-13.41,29.94-29.94,29.94h-299.11c-16.54,0-29.94-13.41-29.94-29.94V512.33C-1590.22,495.79-1576.81,482.39-1560.28,482.39
		z"/>
	<g id="g382">
		<path id="path384" class="st1" d="M-1560.72,579.39c0,0,0.68-4.18,2-5.5c1.32-1.32,3.64-2,5.5-2c1.86,0,4.18,0.68,5.5,2
			c1.32,1.32,2,3.64,2,5.5s-1,4.5-2,5.5s-2,1.5-3,2.5s-1.5,1-2.5,2s-1.5,1.5-2.5,2.5s-2.5,3-3.5,5s-1.5,5-1.5,5s-0.5-3-1.5-5
			s-2.5-4-3.5-5s-1.5-1.5-2.5-2.5s-1.5-1-2.5-2s-2-1.5-3-2.5s-2-3.64-2-5.5s0.68-4.18,2-5.5c1.32-1.32,3.64-2,5.5-2
			c1.86,0,4.18,0.68,5.5,2C-1561.4,575.2-1560.72,579.39-1560.72,579.39"/>
		<path id="path386" class="st1" d="M-1260.72,924.39c0,0,0.68,4.18,2,5.5s3.64,2,5.5,2c1.86,0,4.18-0.68,5.5-2s2-3.64,2-5.5
			s-1-4.5-2-5.5s-2-1.5-3-2.5s-1.5-1-2.5-2s-1.5-1.5-2.5-2.5s-2.5-3-3.5-5s-1.5-5-1.5-5s-0.5,3-1.5,5s-2.5,4-3.5,5s-1.5,1.5-2.5,2.5
			s-1.5,1-2.5,2s-2,1.5-3,2.5s-2,3.64-2,5.5s0.68,4.18,2,5.5s3.64,2,5.5,2c1.86,0,4.18-0.68,5.5-2S-1260.72,924.39-1260.72,924.39"
			/>
		<path id="path388" class="st1" d="M-1490.72,551.89c0,0,1.82-11.15,5.33-14.67c3.51-3.51,9.7-5.33,14.67-5.33
			c4.97,0,11.15,1.82,14.67,5.33c3.51,3.51,5.33,9.7,5.33,14.67s-2.67,12-5.33,14.67c-2.67,2.67-5.33,4-8,6.67
			c-2.67,2.67-4,2.67-6.67,5.33c-2.67,2.67-4,4-6.67,6.67s-6.67,8-9.33,13.33c-2.67,5.33-4,13.33-4,13.33s-1.33-8-4-13.33
			c-2.67-5.33-6.67-10.67-9.33-13.33c-2.67-2.67-4-4-6.67-6.67c-2.67-2.67-4-2.67-6.67-5.33c-2.67-2.67-5.33-4-8-6.67
			s-5.33-9.7-5.33-14.67s1.82-11.15,5.33-14.67c3.51-3.51,9.7-5.33,14.67-5.33c4.97,0,11.15,1.82,14.67,5.33
			C-1492.54,540.73-1490.72,551.89-1490.72,551.89"/>
		<path id="path390" class="st1" d="M-1490.72,951.89c0,0,1.82,11.15,5.33,14.67c3.51,3.51,9.7,5.33,14.67,5.33
			c4.97,0,11.15-1.82,14.67-5.33c3.51-3.51,5.33-9.7,5.33-14.67s-2.67-12-5.33-14.67c-2.67-2.67-5.33-4-8-6.67
			c-2.67-2.67-4-2.67-6.67-5.33c-2.67-2.67-4-4-6.67-6.67s-6.67-8-9.33-13.33c-2.67-5.33-4-13.33-4-13.33s-1.33,8-4,13.33
			c-2.67,5.33-6.67,10.67-9.33,13.33c-2.67,2.67-4,4-6.67,6.67c-2.67,2.67-4,2.67-6.67,5.33c-2.67,2.67-5.33,4-8,6.67
			s-5.33,9.7-5.33,14.67s1.82,11.15,5.33,14.67c3.51,3.51,9.7,5.33,14.67,5.33c4.97,0,11.15-1.82,14.67-5.33
			C-1492.54,963.04-1490.72,951.89-1490.72,951.89"/>
		<path id="path392" class="st1" d="M-1330.72,951.89c0,0,1.82,11.15,5.33,14.67c3.51,3.51,9.7,5.33,14.67,5.33
			s11.15-1.82,14.67-5.33c3.51-3.51,5.33-9.7,5.33-14.67s-2.67-12-5.33-14.67c-2.67-2.67-5.33-4-8-6.67s-4-2.67-6.67-5.33
			c-2.67-2.67-4-4-6.67-6.67s-6.67-8-9.33-13.33c-2.67-5.33-4-13.33-4-13.33s-1.33,8-4,13.33c-2.67,5.33-6.67,10.67-9.33,13.33
			c-2.67,2.67-4,4-6.67,6.67c-2.67,2.67-4,2.67-6.67,5.33c-2.67,2.67-5.33,4-8,6.67c-2.67,2.67-5.33,9.7-5.33,14.67
			s1.82,11.15,5.33,14.67c3.51,3.51,9.7,5.33,14.67,5.33s11.15-1.82,14.67-5.33C-1332.54,963.04-1330.72,951.89-1330.72,951.89"/>
		<path id="path394" class="st1" d="M-1330.72,551.89c0,0,1.82-11.15,5.33-14.67c3.51-3.51,9.7-5.33,14.67-5.33
			s11.15,1.82,14.67,5.33c3.51,3.51,5.33,9.7,5.33,14.67s-2.67,12-5.33,14.67c-2.67,2.67-5.33,4-8,6.67s-4,2.67-6.67,5.33
			c-2.67,2.67-4,4-6.67,6.67s-6.67,8-9.33,13.33c-2.67,5.33-4,13.33-4,13.33s-1.33-8-4-13.33c-2.67-5.33-6.67-10.67-9.33-13.33
			c-2.67-2.67-4-4-6.67-6.67c-2.67-2.67-4-2.67-6.67-5.33c-2.67-2.67-5.33-4-8-6.67c-2.67-2.67-5.33-9.7-5.33-14.67
			s1.82-11.15,5.33-14.67c3.51-3.51,9.7-5.33,14.67-5.33s11.15,1.82,14.67,5.33C-1332.54,540.73-1330.72,551.89-1330.72,551.89"/>
		<path id="path396" class="st1" d="M-1570.72,511.89v15v5h10c2.77,0,5,2.23,5,5v15c0,2.77-2.23,5-5,5c-2.77,0-5-2.23-5-5v-5h-5v5
			c0,5.54,4.46,10,10,10c5.54,0,10-4.46,10-10v-15c0-5.54-4.46-10-10-10h-5v-10h5h10v-5h-10h-5H-1570.72z"/>
		<path id="path398" class="st1" d="M-1250.72,991.89v-15v-5h-10c-2.77,0-5-2.23-5-5v-15c0-2.77,2.23-5,5-5c2.77,0,5,2.23,5,5v5h5
			v-5c0-5.54-4.46-10-10-10c-5.54,0-10,4.46-10,10v15c0,5.54,4.46,10,10,10h5v10h-5h-10v5h10h5H-1250.72z"/>
		<path id="path400" class="st1" d="M-1410.72,731.89c0,0,1.82-11.15,5.33-14.67c3.51-3.51,9.7-5.33,14.67-5.33
			s11.15,1.82,14.67,5.33c3.51,3.51,5.33,9.7,5.33,14.67s-2.67,12-5.33,14.67c-2.67,2.67-5.33,4-8,6.67c-2.67,2.67-4,2.67-6.67,5.33
			c-2.67,2.67-4,4-6.67,6.67c-2.67,2.67-6.67,8-9.33,13.33c-2.67,5.33-4,13.33-4,13.33s-1.33-8-4-13.33
			c-2.67-5.33-6.67-10.67-9.33-13.33c-2.67-2.67-4-4-6.67-6.67c-2.67-2.67-4-2.67-6.67-5.33c-2.67-2.67-5.33-4-8-6.67
			c-2.67-2.67-5.33-9.7-5.33-14.67s1.82-11.15,5.33-14.67c3.51-3.51,9.7-5.33,14.67-5.33s11.15,1.82,14.67,5.33
			C-1412.54,720.73-1410.72,731.89-1410.72,731.89"/>
	</g>
</g>
</svg>
