<?xml version="1.0" encoding="utf-8"?>
<!-- Generator: Adobe Illustrator 24.1.2, SVG Export Plug-In . SVG Version: 6.00 Build 0)  -->
<svg version="1.1" id="Слой_1" xmlns="http://www.w3.org/2000/svg" xmlns:xlink="http://www.w3.org/1999/xlink" x="0px" y="0px"
	 viewBox="0 0 359 539" style="enable-background:new 0 0 359 539;" xml:space="preserve">
<style type="text/css">
	.st0{fill:#FFFFFF;stroke:#000000;}
	.st1{fill:#FF5555;}
</style>
<g id="g402" transform="translate(1980,87.64)">
	<path id="rect404" class="st0" d="M-1950.6-87.6h299.1c16.5,0,29.9,13.4,29.9,29.9v479.1c0,16.5-13.4,29.9-29.9,29.9h-299.1
		c-16.5,0-29.9-13.4-29.9-29.9V-57.7C-1980.5-74.2-1967.1-87.6-1950.6-87.6z"/>
	<g id="g406">
		<path id="path408" class="st1" d="M-1881-38.1c0,0,8,13.3,17.3,22.7c9.3,9.3,22.7,17.3,22.7,17.3s-13.3,8-22.7,17.3
			c-9.3,9.3-17.3,22.7-17.3,22.7s-8-13.3-17.3-22.7c-9.3-9.3-22.7-17.3-22.7-17.3s13.3-8,22.7-17.3C-1889-24.8-1881-38.1-1881-38.1"
			/>
		<path id="path410" class="st1" d="M-1721-38.1c0,0,8,13.3,17.3,22.7c9.3,9.3,22.7,17.3,22.7,17.3s-13.3,8-22.7,17.3
			c-9.3,9.3-17.3,22.7-17.3,22.7s-8-13.3-17.3-22.7c-9.3-9.3-22.7-17.3-22.7-17.3s13.3-8,22.7-17.3C-1729-24.8-1721-38.1-1721-38.1"
			/>
		<path id="path412" class="st1" d="M-1881,141.9c0,0,8,13.3,17.3,22.7c9.3,9.3,22.7,17.3,22.7,17.3s-13.3,8-22.7,17.3
			c-9.3,9.3-17.3,22.7-17.3,22.7s-8-13.3-17.3-22.7c-9.3-9.3-22.7-17.3-22.7-17.3s13.3-8,22.7-17.3
			C-1889,155.2-1881,141.9-1881,141.9"/>
		<path id="path414" class="st1" d="M-1721,141.9c0,0,8,13.3,17.3,22.7c9.3,9.3,22.7,17.3,22.7,17.3s-13.3,8-22.7,17.3
			c-9.3,9.3-17.3,22.7-17.3,22.7s-8-13.3-17.3-22.7c-9.3-9.3-22.7-17.3-22.7-17.3s13.3-8,22.7-17.3
			C-1729,155.2-1721,141.9-1721,141.9"/>
		<path id="path416" class="st1" d="M-1881,321.9c0,0,8,13.3,17.3,22.7c9.3,9.3,22.7,17.3,22.7,17.3s-13.3,8-22.7,17.3
			c-9.3,9.3-17.3,22.7-17.3,22.7s-8-13.3-17.3-22.7c-9.3-9.3-22.7-17.3-22.7-17.3s13.3-8,22.7-17.3
			C-1889,335.2-1881,321.9-1881,321.9"/>
		<path id="path418" class="st1" d="M-1721,321.9c0,0,8,13.3,17.3,22.7c9.3,9.3,22.7,17.3,22.7,17.3s-13.3,8-22.7,17.3
			c-9.3,9.3-17.3,22.7-17.3,22.7s-8-13.3-17.3-22.7c-9.3-9.3-22.7-17.3-22.7-17.3s13.3-8,22.7-17.3
			C-1729,335.2-1721,321.9-1721,321.9"/>
		<path id="path420" class="st1" d="M-1651,331.9c0,0,3,5,6.5,8.5s8.5,6.5,8.5,6.5s-5,3-8.5,6.5s-6.5,8.5-6.5,8.5s-3-5-6.5-8.5
			s-8.5-6.5-8.5-6.5s5-3,8.5-6.5S-1651,331.9-1651,331.9"/>
		<path id="path422" class="st1" d="M-1951,1.9c0,0,3,5,6.5,8.5s8.5,6.5,8.5,6.5s-5,3-8.5,6.5s-6.5,8.5-6.5,8.5s-3-5-6.5-8.5
			s-8.5-6.5-8.5-6.5s5-3,8.5-6.5S-1951,1.9-1951,1.9"/>
		<path id="path424" class="st1" d="M-1951-58.1c-5.5,0-10,4.5-10,10v20v10c0,5.5,4.5,10,10,10s10-4.5,10-10v-10c0-5.5-4.5-10-10-10
			c-1.8,0-3.5,0.5-5,1.3v-11.3c0-2.8,2.2-5,5-5s5,2.2,5,5v1h5v-1C-1941-53.7-1945.5-58.1-1951-58.1 M-1951-33.1c2.8,0,5,2.2,5,5v10
			c0,2.8-2.2,5-5,5s-5-2.2-5-5v-10C-1956-30.9-1953.8-33.1-1951-33.1"/>
		<path id="path426" class="st1" d="M-1651,421.9c5.5,0,10-4.5,10-10v-20v-10c0-5.5-4.5-10-10-10s-10,4.5-10,10v10
			c0,5.5,4.5,10,10,10c1.8,0,3.5-0.5,5-1.3v11.3c0,2.8-2.2,5-5,5s-5-2.2-5-5v-1h-5v1C-1661,417.4-1656.5,421.9-1651,421.9
			 M-1651,396.9c-2.8,0-5-2.2-5-5v-10c0-2.8,2.2-5,5-5s5,2.2,5,5v10C-1646,394.6-1648.2,396.9-1651,396.9"/>
	</g>
</g>
</svg>
