<?xml version="1.0" encoding="utf-8"?>
<!-- Generator: Adobe Illustrator 24.1.2, SVG Export Plug-In . SVG Version: 6.00 Build 0)  -->
<svg version="1.1" id="Слой_1" xmlns="http://www.w3.org/2000/svg" xmlns:xlink="http://www.w3.org/1999/xlink" x="0px" y="0px"
	 viewBox="0 0 359 539" style="enable-background:new 0 0 359 539;" xml:space="preserve">
<style type="text/css">
	.st0{fill:#FFFFFF;stroke:#000000;}
	.st1{fill:#FF5555;}
</style>
<g id="g518" transform="translate(1980,-482.36)">
	<path id="rect520" class="st0" d="M-1950.28,482.39h299.11c16.54,0,29.94,13.41,29.94,29.94v479.11
		c0,16.54-13.41,29.94-29.94,29.94h-299.11c-16.54,0-29.94-13.41-29.94-29.94V512.33C-1980.22,495.79-1966.81,482.39-1950.28,482.39
		z"/>
	<g id="g522">
		<path id="path524" class="st1" d="M-1950.72,579.39c0,0,0.68-4.18,2-5.5c1.32-1.32,3.64-2,5.5-2c1.86,0,4.18,0.68,5.5,2
			c1.32,1.32,2,3.64,2,5.5s-1,4.5-2,5.5s-2,1.5-3,2.5s-1.5,1-2.5,2s-1.5,1.5-2.5,2.5s-2.5,3-3.5,5s-1.5,5-1.5,5s-0.5-3-1.5-5
			s-2.5-4-3.5-5s-1.5-1.5-2.5-2.5s-1.5-1-2.5-2s-2-1.5-3-2.5s-2-3.64-2-5.5s0.68-4.18,2-5.5c1.32-1.32,3.64-2,5.5-2
			c1.86,0,4.18,0.68,5.5,2C-1951.4,575.2-1950.72,579.39-1950.72,579.39"/>
		<path id="path526" class="st1" d="M-1650.72,924.39c0,0,0.68,4.18,2,5.5s3.64,2,5.5,2c1.86,0,4.18-0.68,5.5-2s2-3.64,2-5.5
			s-1-4.5-2-5.5s-2-1.5-3-2.5s-1.5-1-2.5-2s-1.5-1.5-2.5-2.5s-2.5-3-3.5-5s-1.5-5-1.5-5s-0.5,3-1.5,5s-2.5,4-3.5,5s-1.5,1.5-2.5,2.5
			s-1.5,1-2.5,2s-2,1.5-3,2.5s-2,3.64-2,5.5s0.68,4.18,2,5.5s3.64,2,5.5,2c1.86,0,4.18-0.68,5.5-2S-1650.72,924.39-1650.72,924.39"
			/>
		<path id="path528" class="st1" d="M-1880.72,551.89c0,0,1.82-11.15,5.33-14.67c3.51-3.51,9.7-5.33,14.67-5.33
			c4.97,0,11.15,1.82,14.67,5.33c3.51,3.51,5.33,9.7,5.33,14.67s-2.67,12-5.33,14.67c-2.67,2.67-5.33,4-8,6.67
			c-2.67,2.67-4,2.67-6.67,5.33c-2.67,2.67-4,4-6.67,6.67s-6.67,8-9.33,13.33c-2.67,5.33-4,13.33-4,13.33s-1.33-8-4-13.33
			c-2.67-5.33-6.67-10.67-9.33-13.33c-2.67-2.67-4-4-6.67-6.67c-2.67-2.67-4-2.67-6.67-5.33c-2.67-2.67-5.33-4-8-6.67
			s-5.33-9.7-5.33-14.67s1.82-11.15,5.33-14.67c3.51-3.51,9.7-5.33,14.67-5.33c4.97,0,11.15,1.82,14.67,5.33
			C-1882.54,540.73-1880.72,551.89-1880.72,551.89"/>
		<path id="path530" class="st1" d="M-1880.72,951.89c0,0,1.82,11.15,5.33,14.67c3.51,3.51,9.7,5.33,14.67,5.33
			c4.97,0,11.15-1.82,14.67-5.33c3.51-3.51,5.33-9.7,5.33-14.67s-2.67-12-5.33-14.67c-2.67-2.67-5.33-4-8-6.67
			c-2.67-2.67-4-2.67-6.67-5.33c-2.67-2.67-4-4-6.67-6.67s-6.67-8-9.33-13.33c-2.67-5.33-4-13.33-4-13.33s-1.33,8-4,13.33
			c-2.67,5.33-6.67,10.67-9.33,13.33c-2.67,2.67-4,4-6.67,6.67c-2.67,2.67-4,2.67-6.67,5.33c-2.67,2.67-5.33,4-8,6.67
			s-5.33,9.7-5.33,14.67s1.82,11.15,5.33,14.67c3.51,3.51,9.7,5.33,14.67,5.33c4.97,0,11.15-1.82,14.67-5.33
			C-1882.54,963.04-1880.72,951.89-1880.72,951.89"/>
		<path id="path532" class="st1" d="M-1720.72,951.89c0,0,1.82,11.15,5.33,14.67c3.51,3.51,9.7,5.33,14.67,5.33
			s11.15-1.82,14.67-5.33c3.51-3.51,5.33-9.7,5.33-14.67s-2.67-12-5.33-14.67c-2.67-2.67-5.33-4-8-6.67s-4-2.67-6.67-5.33
			c-2.67-2.67-4-4-6.67-6.67s-6.67-8-9.33-13.33c-2.67-5.33-4-13.33-4-13.33s-1.33,8-4,13.33c-2.67,5.33-6.67,10.67-9.33,13.33
			c-2.67,2.67-4,4-6.67,6.67c-2.67,2.67-4,2.67-6.67,5.33c-2.67,2.67-5.33,4-8,6.67c-2.67,2.67-5.33,9.7-5.33,14.67
			s1.82,11.15,5.33,14.67c3.51,3.51,9.7,5.33,14.67,5.33s11.15-1.82,14.67-5.33C-1722.54,963.04-1720.72,951.89-1720.72,951.89"/>
		<path id="path534" class="st1" d="M-1720.72,551.89c0,0,1.82-11.15,5.33-14.67c3.51-3.51,9.7-5.33,14.67-5.33
			s11.15,1.82,14.67,5.33c3.51,3.51,5.33,9.7,5.33,14.67s-2.67,12-5.33,14.67c-2.67,2.67-5.33,4-8,6.67s-4,2.67-6.67,5.33
			c-2.67,2.67-4,4-6.67,6.67s-6.67,8-9.33,13.33c-2.67,5.33-4,13.33-4,13.33s-1.33-8-4-13.33c-2.67-5.33-6.67-10.67-9.33-13.33
			c-2.67-2.67-4-4-6.67-6.67c-2.67-2.67-4-2.67-6.67-5.33c-2.67-2.67-5.33-4-8-6.67c-2.67-2.67-5.33-9.7-5.33-14.67
			s1.82-11.15,5.33-14.67c3.51-3.51,9.7-5.33,14.67-5.33s11.15,1.82,14.67,5.33C-1722.54,540.73-1720.72,551.89-1720.72,551.89"/>
		<path id="path536" class="st1" d="M-1720.72,731.89c0,0,1.82-11.15,5.33-14.67c3.51-3.51,9.7-5.33,14.67-5.33
			s11.15,1.82,14.67,5.33c3.51,3.51,5.33,9.7,5.33,14.67s-2.67,12-5.33,14.67c-2.67,2.67-5.33,4-8,6.67s-4,2.67-6.67,5.33
			c-2.67,2.67-4,4-6.67,6.67s-6.67,8-9.33,13.33c-2.67,5.33-4,13.33-4,13.33s-1.33-8-4-13.33c-2.67-5.33-6.67-10.67-9.33-13.33
			c-2.67-2.67-4-4-6.67-6.67c-2.67-2.67-4-2.67-6.67-5.33c-2.67-2.67-5.33-4-8-6.67c-2.67-2.67-5.33-9.7-5.33-14.67
			s1.82-11.15,5.33-14.67c3.51-3.51,9.7-5.33,14.67-5.33s11.15,1.82,14.67,5.33C-1722.54,720.73-1720.72,731.89-1720.72,731.89"/>
		<path id="path538" class="st1" d="M-1950.72,511.89c-5.54,0-10,4.46-10,10v20v10c0,5.54,4.46,10,10,10c5.54,0,10-4.46,10-10v-10
			c0-5.54-4.46-10-10-10c-1.82,0-3.53,0.5-5,1.34v-11.34c0-2.77,2.23-5,5-5c2.77,0,5,2.23,5,5v1h5v-1
			C-1940.72,516.35-1945.18,511.89-1950.72,511.89 M-1950.72,536.89c2.77,0,5,2.23,5,5v10c0,2.77-2.23,5-5,5c-2.77,0-5-2.23-5-5v-10
			C-1955.72,539.12-1953.49,536.89-1950.72,536.89"/>
		<path id="path540" class="st1" d="M-1650.72,991.89c5.54,0,10-4.46,10-10v-20v-10c0-5.54-4.46-10-10-10c-5.54,0-10,4.46-10,10v10
			c0,5.54,4.46,10,10,10c1.82,0,3.53-0.5,5-1.34v11.34c0,2.77-2.23,5-5,5c-2.77,0-5-2.23-5-5v-1h-5v1
			C-1660.72,987.43-1656.26,991.89-1650.72,991.89 M-1650.72,966.89c-2.77,0-5-2.23-5-5v-10c0-2.77,2.23-5,5-5c2.77,0,5,2.23,5,5v10
			C-1645.72,964.66-1647.95,966.89-1650.72,966.89"/>
		<path id="path542" class="st1" d="M-1880.72,731.89c0,0,1.82-11.15,5.33-14.67c3.51-3.51,9.7-5.33,14.67-5.33
			c4.97,0,11.15,1.82,14.67,5.33c3.51,3.51,5.33,9.7,5.33,14.67s-2.67,12-5.33,14.67c-2.67,2.67-5.33,4-8,6.67
			c-2.67,2.67-4,2.67-6.67,5.33c-2.67,2.67-4,4-6.67,6.67s-6.67,8-9.33,13.33c-2.67,5.33-4,13.33-4,13.33s-1.33-8-4-13.33
			c-2.67-5.33-6.67-10.67-9.33-13.33c-2.67-2.67-4-4-6.67-6.67c-2.67-2.67-4-2.67-6.67-5.33c-2.67-2.67-5.33-4-8-6.67
			s-5.33-9.7-5.33-14.67s1.82-11.15,5.33-14.67c3.51-3.51,9.7-5.33,14.67-5.33c4.97,0,11.15,1.82,14.67,5.33
			C-1882.54,720.73-1880.72,731.89-1880.72,731.89"/>
	</g>
</g>
</svg>
