<?xml version="1.0" encoding="utf-8"?>
<!-- Generator: Adobe Illustrator 24.1.2, SVG Export Plug-In . SVG Version: 6.00 Build 0)  -->
<svg version="1.1" id="Слой_1" xmlns="http://www.w3.org/2000/svg" xmlns:xlink="http://www.w3.org/1999/xlink" x="0px" y="0px"
	 viewBox="0 0 359 539" style="enable-background:new 0 0 359 539;" xml:space="preserve">
<style type="text/css">
	.st0{fill:#FFFFFF;stroke:#000000;}
</style>
<g id="g226" transform="translate(2370,657.64)">
	<path id="rect228" class="st0" d="M-2340.6-657.6h299.1c16.5,0,29.9,13.4,29.9,29.9v479.1c0,16.5-13.4,29.9-29.9,29.9h-299.1
		c-16.5,0-29.9-13.4-29.9-29.9v-479.1C-2370.5-644.2-2357.1-657.6-2340.6-657.6z"/>
	<path id="path230" d="M-2351-628.1v5v5h5v-5h10l-10,45h5l10-45v-5H-2351"/>
	<path id="path232" d="M-2031-148.1v-5v-5h-5v5h-10l10-45h-5l-10,45v5H-2031"/>
	<path id="path234" d="M-2271-608.1c-4-0.1-6.7,1.3-9.3,4c-2.7,2.7-4,5.3-4,9.3s1.5,6.4,4,9.3c2.4,2.8,4,4,5.3,6.7
		c1.3,2.7,2.7,8,2.7,10.7c0,2.7,0,2.4,0,4h-2.7c-2.7,0-8-2.7-9.3-4l-4-4c-2.7-2.7-5.3-4-9.3-4s-6.7,1.3-9.3,4c-2.7,2.7-4,5.3-4,9.3
		s1.3,6.7,4,9.3s5.3,4,9.3,4s6.7-1.3,9.3-4l4-4c1.3-1.3,6.7-4,9.3-4h2.7c-0.1,3.8-0.3,10.4-1.3,13.3c-1.3,4-4,8-6.7,10.7
		c-2.7,2.7-10.7,8-10.7,8v1.3c0,0,13.3-2.7,16-2.7h8c2.7,0,16,2.7,16,2.7v-1.3c0,0-8-5.3-10.7-8s-5.3-6.7-6.7-10.7
		c-1-3-1.3-9.6-1.3-13.3h2.7c2.7,0,8,2.7,9.3,4l4,4c2.7,2.7,5.3,4,9.3,4s6.7-1.3,9.3-4c2.7-2.7,4-5.3,4-9.3s-1.3-6.7-4-9.3
		s-5.3-4-9.3-4s-6.7,1.3-9.3,4l-4,4c-1.3,1.3-6.7,4-9.3,4h-2.7c0-1.9,0-1.3,0-4s1.3-8,2.7-10.7c1.3-2.7,2.7-4,5.3-6.7
		c2.7-2.7,4-5.3,4-9.3s-1.3-6.7-4-9.3S-2267-608.1-2271-608.1"/>
	<path id="path236" d="M-2111-608.1c-4-0.1-6.7,1.3-9.3,4c-2.7,2.7-4,5.3-4,9.3s1.5,6.4,4,9.3c2.4,2.8,4,4,5.3,6.7
		c1.3,2.7,2.7,8,2.7,10.7c0,2.7,0,2.4,0,4h-2.7c-2.7,0-8-2.7-9.3-4l-4-4c-2.7-2.7-5.3-4-9.3-4s-6.7,1.3-9.3,4c-2.7,2.7-4,5.3-4,9.3
		s1.3,6.7,4,9.3s5.3,4,9.3,4s6.7-1.3,9.3-4l4-4c1.3-1.3,6.7-4,9.3-4h2.7c-0.1,3.8-0.3,10.4-1.3,13.3c-1.3,4-4,8-6.7,10.7
		c-2.7,2.7-10.7,8-10.7,8v1.3c0,0,13.3-2.7,16-2.7h8c2.7,0,16,2.7,16,2.7v-1.3c0,0-8-5.3-10.7-8s-5.3-6.7-6.7-10.7
		c-1-3-1.3-9.6-1.3-13.3h2.7c2.7,0,8,2.7,9.3,4l4,4c2.7,2.7,5.3,4,9.3,4s6.7-1.3,9.3-4c2.7-2.7,4-5.3,4-9.3s-1.3-6.7-4-9.3
		s-5.3-4-9.3-4s-6.7,1.3-9.3,4l-4,4c-1.3,1.3-6.7,4-9.3,4h-2.7c0-1.9,0-1.3,0-4s1.3-8,2.7-10.7c1.3-2.7,2.7-4,5.3-6.7
		c2.7-2.7,4-5.3,4-9.3s-1.3-6.7-4-9.3S-2107-608.1-2111-608.1"/>
	<path id="path238" d="M-2271-428.1c-4-0.1-6.7,1.3-9.3,4c-2.7,2.7-4,5.3-4,9.3s1.5,6.4,4,9.3c2.4,2.8,4,4,5.3,6.7
		c1.3,2.7,2.7,8,2.7,10.7c0,2.7,0,2.4,0,4h-2.7c-2.7,0-8-2.7-9.3-4l-4-4c-2.7-2.7-5.3-4-9.3-4s-6.7,1.3-9.3,4c-2.7,2.7-4,5.3-4,9.3
		s1.3,6.7,4,9.3s5.3,4,9.3,4s6.7-1.3,9.3-4l4-4c1.3-1.3,6.7-4,9.3-4h2.7c-0.1,3.8-0.3,10.4-1.3,13.3c-1.3,4-4,8-6.7,10.7
		c-2.7,2.7-10.7,8-10.7,8v1.3c0,0,13.3-2.7,16-2.7h8c2.7,0,16,2.7,16,2.7v-1.3c0,0-8-5.3-10.7-8s-5.3-6.7-6.7-10.7
		c-1-3-1.3-9.6-1.3-13.3h2.7c2.7,0,8,2.7,9.3,4l4,4c2.7,2.7,5.3,4,9.3,4s6.7-1.3,9.3-4c2.7-2.7,4-5.3,4-9.3s-1.3-6.7-4-9.3
		s-5.3-4-9.3-4s-6.7,1.3-9.3,4l-4,4c-1.3,1.3-6.7,4-9.3,4h-2.7c0-1.9,0-1.3,0-4s1.3-8,2.7-10.7c1.3-2.7,2.7-4,5.3-6.7
		c2.7-2.7,4-5.3,4-9.3s-1.3-6.7-4-9.3S-2267-428.1-2271-428.1"/>
	<path id="path240" d="M-2111-428.1c-4-0.1-6.7,1.3-9.3,4c-2.7,2.7-4,5.3-4,9.3s1.5,6.4,4,9.3c2.4,2.8,4,4,5.3,6.7
		c1.3,2.7,2.7,8,2.7,10.7c0,2.7,0,2.4,0,4h-2.7c-2.7,0-8-2.7-9.3-4l-4-4c-2.7-2.7-5.3-4-9.3-4s-6.7,1.3-9.3,4c-2.7,2.7-4,5.3-4,9.3
		s1.3,6.7,4,9.3s5.3,4,9.3,4s6.7-1.3,9.3-4l4-4c1.3-1.3,6.7-4,9.3-4h2.7c-0.1,3.8-0.3,10.4-1.3,13.3c-1.3,4-4,8-6.7,10.7
		c-2.7,2.7-10.7,8-10.7,8v1.3c0,0,13.3-2.7,16-2.7h8c2.7,0,16,2.7,16,2.7v-1.3c0,0-8-5.3-10.7-8s-5.3-6.7-6.7-10.7
		c-1-3-1.3-9.6-1.3-13.3h2.7c2.7,0,8,2.7,9.3,4l4,4c2.7,2.7,5.3,4,9.3,4s6.7-1.3,9.3-4c2.7-2.7,4-5.3,4-9.3s-1.3-6.7-4-9.3
		s-5.3-4-9.3-4s-6.7,1.3-9.3,4l-4,4c-1.3,1.3-6.7,4-9.3,4h-2.7c0-1.9,0-1.3,0-4s1.3-8,2.7-10.7c1.3-2.7,2.7-4,5.3-6.7
		c2.7-2.7,4-5.3,4-9.3s-1.3-6.7-4-9.3S-2107-428.1-2111-428.1"/>
	<path id="path242" d="M-2191-518.1c-4-0.1-6.7,1.3-9.3,4c-2.7,2.7-4,5.3-4,9.3s1.5,6.4,4,9.3c2.4,2.8,4,4,5.3,6.7
		c1.3,2.7,2.7,8,2.7,10.7c0,2.7,0,2.4,0,4h-2.7c-2.7,0-8-2.7-9.3-4l-4-4c-2.7-2.7-5.3-4-9.3-4s-6.7,1.3-9.3,4c-2.7,2.7-4,5.3-4,9.3
		s1.3,6.7,4,9.3s5.3,4,9.3,4s6.7-1.3,9.3-4l4-4c1.3-1.3,6.7-4,9.3-4h2.7c-0.1,3.8-0.3,10.4-1.3,13.3c-1.3,4-4,8-6.7,10.7
		c-2.7,2.7-10.7,8-10.7,8v1.3c0,0,13.3-2.7,16-2.7h8c2.7,0,16,2.7,16,2.7v-1.3c0,0-8-5.3-10.7-8s-5.3-6.7-6.7-10.7
		c-1-3-1.3-9.6-1.3-13.3h2.7c2.7,0,8,2.7,9.3,4l4,4c2.7,2.7,5.3,4,9.3,4s6.7-1.3,9.3-4c2.7-2.7,4-5.3,4-9.3s-1.3-6.7-4-9.3
		s-5.3-4-9.3-4s-6.7,1.3-9.3,4l-4,4c-1.3,1.3-6.7,4-9.3,4h-2.7c0-1.9,0-1.3,0-4s1.3-8,2.7-10.7c1.3-2.7,2.7-4,5.3-6.7
		c2.7-2.7,4-5.3,4-9.3s-1.3-6.7-4-9.3S-2187-518.1-2191-518.1"/>
	<path id="path244" d="M-2111-168.1c4,0.1,6.7-1.3,9.3-4c2.7-2.7,4-5.3,4-9.3s-1.5-6.4-4-9.3c-2.4-2.8-4-4-5.3-6.7
		c-1.3-2.7-2.7-8-2.7-10.7c0-2.7,0-2.4,0-4h2.7c2.7,0,8,2.7,9.3,4l4,4c2.7,2.7,5.3,4,9.3,4s6.7-1.3,9.3-4c2.7-2.7,4-5.3,4-9.3
		s-1.3-6.7-4-9.3s-5.3-4-9.3-4s-6.7,1.3-9.3,4l-4,4c-1.3,1.3-6.7,4-9.3,4h-2.7c0.1-3.8,0.3-10.4,1.3-13.3c1.3-4,4-8,6.7-10.7
		c2.7-2.7,10.7-8,10.7-8v-1.3c0,0-13.3,2.7-16,2.7h-8c-2.7,0-16-2.7-16-2.7v1.3c0,0,8,5.3,10.7,8s5.3,6.7,6.7,10.7
		c1,3,1.3,9.6,1.3,13.3h-2.7c-2.7,0-8-2.7-9.3-4l-4-4c-2.7-2.7-5.3-4-9.3-4s-6.7,1.3-9.3,4c-2.7,2.7-4,5.3-4,9.3s1.3,6.7,4,9.3
		s5.3,4,9.3,4s6.7-1.3,9.3-4l4-4c1.3-1.3,6.7-4,9.3-4h2.7c0,1.9,0,1.3,0,4s-1.3,8-2.7,10.7c-1.3,2.7-2.7,4-5.3,6.7
		c-2.7,2.7-4,5.3-4,9.3s1.3,6.7,4,9.3S-2115-168.1-2111-168.1"/>
	<path id="path246" d="M-2271-168.1c4,0.1,6.7-1.3,9.3-4c2.7-2.7,4-5.3,4-9.3s-1.5-6.4-4-9.3c-2.4-2.8-4-4-5.3-6.7
		c-1.3-2.7-2.7-8-2.7-10.7c0-2.7,0-2.4,0-4h2.7c2.7,0,8,2.7,9.3,4l4,4c2.7,2.7,5.3,4,9.3,4s6.7-1.3,9.3-4c2.7-2.7,4-5.3,4-9.3
		s-1.3-6.7-4-9.3s-5.3-4-9.3-4s-6.7,1.3-9.3,4l-4,4c-1.3,1.3-6.7,4-9.3,4h-2.7c0.1-3.8,0.3-10.4,1.3-13.3c1.3-4,4-8,6.7-10.7
		c2.7-2.7,10.7-8,10.7-8v-1.3c0,0-13.3,2.7-16,2.7h-8c-2.7,0-16-2.7-16-2.7v1.3c0,0,8,5.3,10.7,8s5.3,6.7,6.7,10.7
		c1,3,1.3,9.6,1.3,13.3h-2.7c-2.7,0-8-2.7-9.3-4l-4-4c-2.7-2.7-5.3-4-9.3-4s-6.7,1.3-9.3,4c-2.7,2.7-4,5.3-4,9.3s1.3,6.7,4,9.3
		s5.3,4,9.3,4s6.7-1.3,9.3-4l4-4c1.3-1.3,6.7-4,9.3-4h2.7c0,1.9,0,1.3,0,4s-1.3,8-2.7,10.7c-1.3,2.7-2.7,4-5.3,6.7
		c-2.7,2.7-4,5.3-4,9.3s1.3,6.7,4,9.3S-2275-168.1-2271-168.1"/>
	<path id="path248" d="M-2341-568.1c-1.5,0-2.5,0.5-3.5,1.5s-1.5,2-1.5,3.5s0.6,2.4,1.5,3.5c0.9,1.1,1.5,1.5,2,2.5s1,3,1,4
		s0,0.9,0,1.5h-1c-1,0-3-1-3.5-1.5l-1.5-1.5c-1-1-2-1.5-3.5-1.5s-2.5,0.5-3.5,1.5s-1.5,2-1.5,3.5s0.5,2.5,1.5,3.5s2,1.5,3.5,1.5
		s2.5-0.5,3.5-1.5l1.5-1.5c0.5-0.5,2.5-1.5,3.5-1.5h1c0,1.4-0.1,3.9-0.5,5c-0.5,1.5-1.5,3-2.5,4s-4,3-4,3v0.5c0,0,5-1,6-1h3
		c1,0,6,1,6,1v-0.5c0,0-3-2-4-3s-2-2.5-2.5-4c-0.4-1.1-0.5-3.6-0.5-5h1c1,0,3,1,3.5,1.5l1.5,1.5c1,1,2,1.5,3.5,1.5s2.5-0.5,3.5-1.5
		s1.5-2,1.5-3.5s-0.5-2.5-1.5-3.5s-2-1.5-3.5-1.5s-2.5,0.5-3.5,1.5l-1.5,1.5c-0.5,0.5-2.5,1.5-3.5,1.5h-1c0-0.7,0-0.5,0-1.5
		s0.5-3,1-4s1-1.5,2-2.5c1-1,1.5-2,1.5-3.5s-0.5-2.5-1.5-3.5S-2339.5-568.1-2341-568.1"/>
	<path id="path250" d="M-2041-208.1c1.5,0,2.5-0.5,3.5-1.5s1.5-2,1.5-3.5s-0.6-2.4-1.5-3.5c-0.9-1.1-1.5-1.5-2-2.5s-1-3-1-4
		s0-0.9,0-1.5h1c1,0,3,1,3.5,1.5l1.5,1.5c1,1,2,1.5,3.5,1.5s2.5-0.5,3.5-1.5s1.5-2,1.5-3.5s-0.5-2.5-1.5-3.5s-2-1.5-3.5-1.5
		s-2.5,0.5-3.5,1.5l-1.5,1.5c-0.5,0.5-2.5,1.5-3.5,1.5h-1c0-1.4,0.1-3.9,0.5-5c0.5-1.5,1.5-3,2.5-4s4-3,4-3v-0.5c0,0-5,1-6,1h-3
		c-1,0-6-1-6-1v0.5c0,0,3,2,4,3s2,2.5,2.5,4c0.4,1.1,0.5,3.6,0.5,5h-1c-1,0-3-1-3.5-1.5l-1.5-1.5c-1-1-2-1.5-3.5-1.5
		s-2.5,0.5-3.5,1.5s-1.5,2-1.5,3.5s0.5,2.5,1.5,3.5s2,1.5,3.5,1.5s2.5-0.5,3.5-1.5l1.5-1.5c0.5-0.5,2.5-1.5,3.5-1.5h1
		c0,0.7,0,0.5,0,1.5s-0.5,3-1,4s-1,1.5-2,2.5c-1,1-1.5,2-1.5,3.5s0.5,2.5,1.5,3.5S-2042.5-208.1-2041-208.1"/>
</g>
</svg>
