<?xml version="1.0" encoding="utf-8"?>
<!-- Generator: Adobe Illustrator 24.1.2, SVG Export Plug-In . SVG Version: 6.00 Build 0)  -->
<svg version="1.1" id="Слой_1" xmlns="http://www.w3.org/2000/svg" xmlns:xlink="http://www.w3.org/1999/xlink" x="0px" y="0px"
	 viewBox="0 0 359 539" style="enable-background:new 0 0 359 539;" xml:space="preserve">
<style type="text/css">
	.st0{fill:#FFFFFF;stroke:#000000;}
	.st1{fill:#FF5555;}
</style>
<g id="g428" transform="translate(2370,87.64)">
	<path id="rect430" class="st0" d="M-2340.6-87.6h299.1c16.5,0,29.9,13.4,29.9,29.9v479.1c0,16.5-13.4,29.9-29.9,29.9h-299.1
		c-16.5,0-29.9-13.4-29.9-29.9V-57.7C-2370.5-74.2-2357.1-87.6-2340.6-87.6z"/>
	<g id="g432">
		<path id="path434" class="st1" d="M-2271-38.1c0,0,8,13.3,17.3,22.7c9.3,9.3,22.7,17.3,22.7,17.3s-13.3,8-22.7,17.3
			c-9.3,9.3-17.3,22.7-17.3,22.7s-8-13.3-17.3-22.7c-9.3-9.3-22.7-17.3-22.7-17.3s13.3-8,22.7-17.3C-2279-24.8-2271-38.1-2271-38.1"
			/>
		<path id="path436" class="st1" d="M-2111-38.1c0,0,8,13.3,17.3,22.7c9.3,9.3,22.7,17.3,22.7,17.3s-13.3,8-22.7,17.3
			c-9.3,9.3-17.3,22.7-17.3,22.7s-8-13.3-17.3-22.7c-9.3-9.3-22.7-17.3-22.7-17.3s13.3-8,22.7-17.3C-2119-24.8-2111-38.1-2111-38.1"
			/>
		<path id="path438" class="st1" d="M-2191,51.9c0,0,8,13.3,17.3,22.7c9.3,9.3,22.7,17.3,22.7,17.3s-13.3,8-22.7,17.3
			c-9.3,9.3-17.3,22.7-17.3,22.7s-8-13.3-17.3-22.7c-9.3-9.3-22.7-17.3-22.7-17.3s13.3-8,22.7-17.3C-2199,65.2-2191,51.9-2191,51.9"
			/>
		<path id="path440" class="st1" d="M-2271,141.9c0,0,8,13.3,17.3,22.7c9.3,9.3,22.7,17.3,22.7,17.3s-13.3,8-22.7,17.3
			c-9.3,9.3-17.3,22.7-17.3,22.7s-8-13.3-17.3-22.7c-9.3-9.3-22.7-17.3-22.7-17.3s13.3-8,22.7-17.3
			C-2279,155.2-2271,141.9-2271,141.9"/>
		<path id="path442" class="st1" d="M-2111,141.9c0,0,8,13.3,17.3,22.7c9.3,9.3,22.7,17.3,22.7,17.3s-13.3,8-22.7,17.3
			c-9.3,9.3-17.3,22.7-17.3,22.7s-8-13.3-17.3-22.7c-9.3-9.3-22.7-17.3-22.7-17.3s13.3-8,22.7-17.3
			C-2119,155.2-2111,141.9-2111,141.9"/>
		<path id="path444" class="st1" d="M-2271,321.9c0,0,8,13.3,17.3,22.7c9.3,9.3,22.7,17.3,22.7,17.3s-13.3,8-22.7,17.3
			c-9.3,9.3-17.3,22.7-17.3,22.7s-8-13.3-17.3-22.7c-9.3-9.3-22.7-17.3-22.7-17.3s13.3-8,22.7-17.3
			C-2279,335.2-2271,321.9-2271,321.9"/>
		<path id="path446" class="st1" d="M-2111,321.9c0,0,8,13.3,17.3,22.7c9.3,9.3,22.7,17.3,22.7,17.3s-13.3,8-22.7,17.3
			c-9.3,9.3-17.3,22.7-17.3,22.7s-8-13.3-17.3-22.7c-9.3-9.3-22.7-17.3-22.7-17.3s13.3-8,22.7-17.3
			C-2119,335.2-2111,321.9-2111,321.9"/>
		<path id="path448" class="st1" d="M-2041,331.9c0,0,3,5,6.5,8.5s8.5,6.5,8.5,6.5s-5,3-8.5,6.5s-6.5,8.5-6.5,8.5s-3-5-6.5-8.5
			s-8.5-6.5-8.5-6.5s5-3,8.5-6.5S-2041,331.9-2041,331.9"/>
		<path id="path450" class="st1" d="M-2341,1.9c0,0,3,5,6.5,8.5s8.5,6.5,8.5,6.5s-5,3-8.5,6.5s-6.5,8.5-6.5,8.5s-3-5-6.5-8.5
			s-8.5-6.5-8.5-6.5s5-3,8.5-6.5S-2341,1.9-2341,1.9"/>
		<path id="path452" class="st1" d="M-2351-58.1v5v5h5v-5h10l-10,45h5l10-45v-5H-2351"/>
		<path id="path454" class="st1" d="M-2031,421.9v-5v-5h-5v5h-10l10-45h-5l-10,45v5H-2031"/>
	</g>
</g>
</svg>
