<?xml version="1.0" encoding="utf-8"?>
<!-- Generator: Adobe Illustrator 24.1.2, SVG Export Plug-In . SVG Version: 6.00 Build 0)  -->
<svg version="1.1" id="Слой_1" xmlns="http://www.w3.org/2000/svg" xmlns:xlink="http://www.w3.org/1999/xlink" x="0px" y="0px"
	 viewBox="0 0 359 539" style="enable-background:new 0 0 359 539;" xml:space="preserve">
<style type="text/css">
	.st0{fill:#FFFFFF;stroke:#000000;}
	.st1{fill:#FF5555;}
</style>
<g id="g544" transform="translate(2370,-482.36)">
	<path id="rect546" class="st0" d="M-2340.28,482.39h299.11c16.54,0,29.94,13.41,29.94,29.94v479.11
		c0,16.54-13.41,29.94-29.94,29.94h-299.11c-16.54,0-29.94-13.41-29.94-29.94V512.33C-2370.22,495.79-2356.81,482.39-2340.28,482.39
		z"/>
	<g id="g548">
		<path id="path550" class="st1" d="M-2340.72,579.39c0,0,0.68-4.18,2-5.5c1.32-1.32,3.64-2,5.5-2s4.18,0.68,5.5,2
			c1.32,1.32,2,3.64,2,5.5s-1,4.5-2,5.5s-2,1.5-3,2.5s-1.5,1-2.5,2s-1.5,1.5-2.5,2.5s-2.5,3-3.5,5s-1.5,5-1.5,5s-0.5-3-1.5-5
			s-2.5-4-3.5-5s-1.5-1.5-2.5-2.5s-1.5-1-2.5-2s-2-1.5-3-2.5s-2-3.64-2-5.5s0.68-4.18,2-5.5c1.32-1.32,3.64-2,5.5-2s4.18,0.68,5.5,2
			C-2341.4,575.2-2340.72,579.39-2340.72,579.39"/>
		<path id="path552" class="st1" d="M-2040.72,924.39c0,0,0.68,4.18,2,5.5s3.64,2,5.5,2c1.86,0,4.18-0.68,5.5-2s2-3.64,2-5.5
			s-1-4.5-2-5.5s-2-1.5-3-2.5s-1.5-1-2.5-2s-1.5-1.5-2.5-2.5s-2.5-3-3.5-5s-1.5-5-1.5-5s-0.5,3-1.5,5s-2.5,4-3.5,5s-1.5,1.5-2.5,2.5
			s-1.5,1-2.5,2s-2,1.5-3,2.5s-2,3.64-2,5.5s0.68,4.18,2,5.5c1.32,1.32,3.64,2,5.5,2c1.86,0,4.18-0.68,5.5-2
			S-2040.72,924.39-2040.72,924.39"/>
		<path id="path554" class="st1" d="M-2270.72,551.89c0,0,1.82-11.15,5.33-14.67c3.51-3.51,9.7-5.33,14.67-5.33
			s11.15,1.82,14.67,5.33c3.51,3.51,5.33,9.7,5.33,14.67s-2.67,12-5.33,14.67c-2.67,2.67-5.33,4-8,6.67s-4,2.67-6.67,5.33
			c-2.67,2.67-4,4-6.67,6.67s-6.67,8-9.33,13.33c-2.67,5.33-4,13.33-4,13.33s-1.33-8-4-13.33s-6.67-10.67-9.33-13.33
			c-2.67-2.67-4-4-6.67-6.67s-4-2.67-6.67-5.33c-2.67-2.67-5.33-4-8-6.67s-5.33-9.7-5.33-14.67s1.82-11.15,5.33-14.67
			c3.51-3.51,9.7-5.33,14.67-5.33s11.15,1.82,14.67,5.33C-2272.54,540.73-2270.72,551.89-2270.72,551.89"/>
		<path id="path556" class="st1" d="M-2270.72,951.89c0,0,1.82,11.15,5.33,14.67c3.51,3.51,9.7,5.33,14.67,5.33
			s11.15-1.82,14.67-5.33c3.51-3.51,5.33-9.7,5.33-14.67s-2.67-12-5.33-14.67c-2.67-2.67-5.33-4-8-6.67s-4-2.67-6.67-5.33
			c-2.67-2.67-4-4-6.67-6.67s-6.67-8-9.33-13.33c-2.67-5.33-4-13.33-4-13.33s-1.33,8-4,13.33s-6.67,10.67-9.33,13.33
			c-2.67,2.67-4,4-6.67,6.67s-4,2.67-6.67,5.33c-2.67,2.67-5.33,4-8,6.67s-5.33,9.7-5.33,14.67s1.82,11.15,5.33,14.67
			c3.51,3.51,9.7,5.33,14.67,5.33s11.15-1.82,14.67-5.33C-2272.54,963.04-2270.72,951.89-2270.72,951.89"/>
		<path id="path558" class="st1" d="M-2110.72,951.89c0,0,1.82,11.15,5.33,14.67c3.51,3.51,9.7,5.33,14.67,5.33
			s11.15-1.82,14.67-5.33c3.51-3.51,5.33-9.7,5.33-14.67s-2.67-12-5.33-14.67c-2.67-2.67-5.33-4-8-6.67s-4-2.67-6.67-5.33
			c-2.67-2.67-4-4-6.67-6.67s-6.67-8-9.33-13.33c-2.67-5.33-4-13.33-4-13.33s-1.33,8-4,13.33s-6.67,10.67-9.33,13.33
			c-2.67,2.67-4,4-6.67,6.67s-4,2.67-6.67,5.33c-2.67,2.67-5.33,4-8,6.67s-5.33,9.7-5.33,14.67s1.82,11.15,5.33,14.67
			c3.51,3.51,9.7,5.33,14.67,5.33s11.15-1.82,14.67-5.33C-2112.54,963.04-2110.72,951.89-2110.72,951.89"/>
		<path id="path560" class="st1" d="M-2110.72,551.89c0,0,1.82-11.15,5.33-14.67c3.51-3.51,9.7-5.33,14.67-5.33
			s11.15,1.82,14.67,5.33c3.51,3.51,5.33,9.7,5.33,14.67s-2.67,12-5.33,14.67c-2.67,2.67-5.33,4-8,6.67s-4,2.67-6.67,5.33
			c-2.67,2.67-4,4-6.67,6.67s-6.67,8-9.33,13.33c-2.67,5.33-4,13.33-4,13.33s-1.33-8-4-13.33s-6.67-10.67-9.33-13.33
			c-2.67-2.67-4-4-6.67-6.67s-4-2.67-6.67-5.33c-2.67-2.67-5.33-4-8-6.67s-5.33-9.7-5.33-14.67s1.82-11.15,5.33-14.67
			c3.51-3.51,9.7-5.33,14.67-5.33s11.15,1.82,14.67,5.33C-2112.54,540.73-2110.72,551.89-2110.72,551.89"/>
		<path id="path562" class="st1" d="M-2110.72,731.89c0,0,1.82-11.15,5.33-14.67c3.51-3.51,9.7-5.33,14.67-5.33
			s11.15,1.82,14.67,5.33c3.51,3.51,5.33,9.7,5.33,14.67s-2.67,12-5.33,14.67c-2.67,2.67-5.33,4-8,6.67s-4,2.67-6.67,5.33
			c-2.67,2.67-4,4-6.67,6.67s-6.67,8-9.33,13.33c-2.67,5.33-4,13.33-4,13.33s-1.33-8-4-13.33s-6.67-10.67-9.33-13.33
			c-2.67-2.67-4-4-6.67-6.67s-4-2.67-6.67-5.33c-2.67-2.67-5.33-4-8-6.67s-5.33-9.7-5.33-14.67s1.82-11.15,5.33-14.67
			c3.51-3.51,9.7-5.33,14.67-5.33s11.15,1.82,14.67,5.33C-2112.54,720.73-2110.72,731.89-2110.72,731.89"/>
		<path id="path564" class="st1" d="M-2270.72,731.89c0,0,1.82-11.15,5.33-14.67c3.51-3.51,9.7-5.33,14.67-5.33
			s11.15,1.82,14.67,5.33c3.51,3.51,5.33,9.7,5.33,14.67s-2.67,12-5.33,14.67c-2.67,2.67-5.33,4-8,6.67s-4,2.67-6.67,5.33
			c-2.67,2.67-4,4-6.67,6.67s-6.67,8-9.33,13.33c-2.67,5.33-4,13.33-4,13.33s-1.33-8-4-13.33s-6.67-10.67-9.33-13.33
			c-2.67-2.67-4-4-6.67-6.67s-4-2.67-6.67-5.33c-2.67-2.67-5.33-4-8-6.67s-5.33-9.7-5.33-14.67s1.82-11.15,5.33-14.67
			c3.51-3.51,9.7-5.33,14.67-5.33s11.15,1.82,14.67,5.33C-2272.54,720.73-2270.72,731.89-2270.72,731.89"/>
		<path id="path566" class="st1" d="M-2350.72,511.89v5v5h5v-5h10l-10,45h5l10-45v-5H-2350.72"/>
		<path id="path568" class="st1" d="M-2030.72,991.89v-5v-5h-5v5h-10l10-45h-5l-10,45v5H-2030.72"/>
		<path id="path570" class="st1" d="M-2190.72,641.89c0,0,1.82-11.15,5.33-14.67c3.51-3.51,9.7-5.33,14.67-5.33
			s11.15,1.82,14.67,5.33c3.51,3.51,5.33,9.7,5.33,14.67s-2.67,12-5.33,14.67c-2.67,2.67-5.33,4-8,6.67s-4,2.67-6.67,5.33
			c-2.67,2.67-4,4-6.67,6.67s-6.67,8-9.33,13.33c-2.67,5.33-4,13.33-4,13.33s-1.33-8-4-13.33s-6.67-10.67-9.33-13.33
			c-2.67-2.67-4-4-6.67-6.67s-4-2.67-6.67-5.33c-2.67-2.67-5.33-4-8-6.67s-5.33-9.7-5.33-14.67s1.82-11.15,5.33-14.67
			c3.51-3.51,9.7-5.33,14.67-5.33s11.15,1.82,14.67,5.33C-2192.54,630.73-2190.72,641.89-2190.72,641.89"/>
	</g>
</g>
</svg>
