<?xml version="1.0" encoding="utf-8"?>
<!-- Generator: Adobe Illustrator 24.1.2, SVG Export Plug-In . SVG Version: 6.00 Build 0)  -->
<svg version="1.1" id="Слой_1" xmlns="http://www.w3.org/2000/svg" xmlns:xlink="http://www.w3.org/1999/xlink" x="0px" y="0px"
	 viewBox="0 0 359 539" style="enable-background:new 0 0 359 539;" xml:space="preserve">
<style type="text/css">
	.st0{fill:#FFFFFF;stroke:#000000;}
</style>
<g id="g252" transform="translate(2760,657.64)">
	<path id="rect254" class="st0" d="M-2730.6-657.6h299.1c16.5,0,29.9,13.4,29.9,29.9v479.1c0,16.5-13.4,29.9-29.9,29.9h-299.1
		c-16.5,0-29.9-13.4-29.9-29.9v-479.1C-2760.5-644.2-2747.1-657.6-2730.6-657.6z"/>
	<path id="path256" d="M-2731-628.1c-5.5,0-10,4.5-10,10v5c0,3,1.3,5.7,3.4,7.5c-2.1,1.8-3.4,4.5-3.4,7.5v10c0,5.5,4.5,10,10,10
		s10-4.5,10-10v-10c0-3-1.3-5.7-3.4-7.5c2.1-1.8,3.4-4.5,3.4-7.5v-5C-2721-623.7-2725.5-628.1-2731-628.1 M-2731-623.1
		c2.8,0,5,2.2,5,5v5c0,2.8-2.2,5-5,5s-5-2.2-5-5v-5C-2736-620.9-2733.8-623.1-2731-623.1 M-2731-603.1c2.8,0,5,2.2,5,5v10
		c0,2.8-2.2,5-5,5s-5-2.2-5-5v-10C-2736-600.9-2733.8-603.1-2731-603.1"/>
	<path id="path258" d="M-2431-148.1c-5.5,0-10-4.5-10-10v-5c0-3,1.3-5.7,3.4-7.5c-2.1-1.8-3.4-4.5-3.4-7.5v-10c0-5.5,4.5-10,10-10
		s10,4.5,10,10v10c0,3-1.3,5.7-3.4,7.5c2.1,1.8,3.4,4.5,3.4,7.5v5C-2421-152.6-2425.5-148.1-2431-148.1 M-2431-153.1
		c2.8,0,5-2.2,5-5v-5c0-2.8-2.2-5-5-5s-5,2.2-5,5v5C-2436-155.4-2433.8-153.1-2431-153.1 M-2431-173.1c2.8,0,5-2.2,5-5v-10
		c0-2.8-2.2-5-5-5s-5,2.2-5,5v10C-2436-175.4-2433.8-173.1-2431-173.1"/>
	<path id="path260" d="M-2661-608.1c-4-0.1-6.7,1.3-9.3,4c-2.7,2.7-4,5.3-4,9.3s1.5,6.4,4,9.3c2.4,2.8,4,4,5.3,6.7
		c1.3,2.7,2.7,8,2.7,10.7c0,2.7,0,2.4,0,4h-2.7c-2.7,0-8-2.7-9.3-4l-4-4c-2.7-2.7-5.3-4-9.3-4s-6.7,1.3-9.3,4c-2.7,2.7-4,5.3-4,9.3
		s1.3,6.7,4,9.3s5.3,4,9.3,4s6.7-1.3,9.3-4l4-4c1.3-1.3,6.7-4,9.3-4h2.7c-0.1,3.8-0.3,10.4-1.3,13.3c-1.3,4-4,8-6.7,10.7
		c-2.7,2.7-10.7,8-10.7,8v1.3c0,0,13.3-2.7,16-2.7h8c2.7,0,16,2.7,16,2.7v-1.3c0,0-8-5.3-10.7-8s-5.3-6.7-6.7-10.7
		c-1-3-1.3-9.6-1.3-13.3h2.7c2.7,0,8,2.7,9.3,4l4,4c2.7,2.7,5.3,4,9.3,4s6.7-1.3,9.3-4c2.7-2.7,4-5.3,4-9.3s-1.3-6.7-4-9.3
		s-5.3-4-9.3-4s-6.7,1.3-9.3,4l-4,4c-1.3,1.3-6.7,4-9.3,4h-2.7c0-1.9,0-1.3,0-4s1.3-8,2.7-10.7c1.3-2.7,2.7-4,5.3-6.7
		c2.7-2.7,4-5.3,4-9.3s-1.3-6.7-4-9.3S-2657-608.1-2661-608.1"/>
	<path id="path262" d="M-2501-608.1c-4-0.1-6.7,1.3-9.3,4c-2.7,2.7-4,5.3-4,9.3s1.5,6.4,4,9.3c2.4,2.8,4,4,5.3,6.7
		c1.3,2.7,2.7,8,2.7,10.7c0,2.7,0,2.4,0,4h-2.7c-2.7,0-8-2.7-9.3-4l-4-4c-2.7-2.7-5.3-4-9.3-4s-6.7,1.3-9.3,4c-2.7,2.7-4,5.3-4,9.3
		s1.3,6.7,4,9.3s5.3,4,9.3,4s6.7-1.3,9.3-4l4-4c1.3-1.3,6.7-4,9.3-4h2.7c-0.1,3.8-0.3,10.4-1.3,13.3c-1.3,4-4,8-6.7,10.7
		c-2.7,2.7-10.7,8-10.7,8v1.3c0,0,13.3-2.7,16-2.7h8c2.7,0,16,2.7,16,2.7v-1.3c0,0-8-5.3-10.7-8s-5.3-6.7-6.7-10.7
		c-1-3-1.3-9.6-1.3-13.3h2.7c2.7,0,8,2.7,9.3,4l4,4c2.7,2.7,5.3,4,9.3,4s6.7-1.3,9.3-4c2.7-2.7,4-5.3,4-9.3s-1.3-6.7-4-9.3
		s-5.3-4-9.3-4s-6.7,1.3-9.3,4l-4,4c-1.3,1.3-6.7,4-9.3,4h-2.7c0-1.9,0-1.3,0-4s1.3-8,2.7-10.7c1.3-2.7,2.7-4,5.3-6.7
		c2.7-2.7,4-5.3,4-9.3s-1.3-6.7-4-9.3S-2497-608.1-2501-608.1"/>
	<path id="path264" d="M-2661-428.1c-4-0.1-6.7,1.3-9.3,4c-2.7,2.7-4,5.3-4,9.3s1.5,6.4,4,9.3c2.4,2.8,4,4,5.3,6.7
		c1.3,2.7,2.7,8,2.7,10.7c0,2.7,0,2.4,0,4h-2.7c-2.7,0-8-2.7-9.3-4l-4-4c-2.7-2.7-5.3-4-9.3-4s-6.7,1.3-9.3,4c-2.7,2.7-4,5.3-4,9.3
		s1.3,6.7,4,9.3s5.3,4,9.3,4s6.7-1.3,9.3-4l4-4c1.3-1.3,6.7-4,9.3-4h2.7c-0.1,3.8-0.3,10.4-1.3,13.3c-1.3,4-4,8-6.7,10.7
		c-2.7,2.7-10.7,8-10.7,8v1.3c0,0,13.3-2.7,16-2.7h8c2.7,0,16,2.7,16,2.7v-1.3c0,0-8-5.3-10.7-8s-5.3-6.7-6.7-10.7
		c-1-3-1.3-9.6-1.3-13.3h2.7c2.7,0,8,2.7,9.3,4l4,4c2.7,2.7,5.3,4,9.3,4s6.7-1.3,9.3-4c2.7-2.7,4-5.3,4-9.3s-1.3-6.7-4-9.3
		s-5.3-4-9.3-4s-6.7,1.3-9.3,4l-4,4c-1.3,1.3-6.7,4-9.3,4h-2.7c0-1.9,0-1.3,0-4s1.3-8,2.7-10.7c1.3-2.7,2.7-4,5.3-6.7
		c2.7-2.7,4-5.3,4-9.3s-1.3-6.7-4-9.3S-2657-428.1-2661-428.1"/>
	<path id="path266" d="M-2501-428.1c-4-0.1-6.7,1.3-9.3,4c-2.7,2.7-4,5.3-4,9.3s1.5,6.4,4,9.3c2.4,2.8,4,4,5.3,6.7
		c1.3,2.7,2.7,8,2.7,10.7c0,2.7,0,2.4,0,4h-2.7c-2.7,0-8-2.7-9.3-4l-4-4c-2.7-2.7-5.3-4-9.3-4s-6.7,1.3-9.3,4c-2.7,2.7-4,5.3-4,9.3
		s1.3,6.7,4,9.3s5.3,4,9.3,4s6.7-1.3,9.3-4l4-4c1.3-1.3,6.7-4,9.3-4h2.7c-0.1,3.8-0.3,10.4-1.3,13.3c-1.3,4-4,8-6.7,10.7
		c-2.7,2.7-10.7,8-10.7,8v1.3c0,0,13.3-2.7,16-2.7h8c2.7,0,16,2.7,16,2.7v-1.3c0,0-8-5.3-10.7-8s-5.3-6.7-6.7-10.7
		c-1-3-1.3-9.6-1.3-13.3h2.7c2.7,0,8,2.7,9.3,4l4,4c2.7,2.7,5.3,4,9.3,4s6.7-1.3,9.3-4c2.7-2.7,4-5.3,4-9.3s-1.3-6.7-4-9.3
		s-5.3-4-9.3-4s-6.7,1.3-9.3,4l-4,4c-1.3,1.3-6.7,4-9.3,4h-2.7c0-1.9,0-1.3,0-4s1.3-8,2.7-10.7c1.3-2.7,2.7-4,5.3-6.7
		c2.7-2.7,4-5.3,4-9.3s-1.3-6.7-4-9.3S-2497-428.1-2501-428.1"/>
	<path id="path268" d="M-2581-518.1c-4-0.1-6.7,1.3-9.3,4c-2.7,2.7-4,5.3-4,9.3s1.5,6.4,4,9.3c2.4,2.8,4,4,5.3,6.7
		c1.3,2.7,2.7,8,2.7,10.7c0,2.7,0,2.4,0,4h-2.7c-2.7,0-8-2.7-9.3-4l-4-4c-2.7-2.7-5.3-4-9.3-4s-6.7,1.3-9.3,4c-2.7,2.7-4,5.3-4,9.3
		s1.3,6.7,4,9.3s5.3,4,9.3,4s6.7-1.3,9.3-4l4-4c1.3-1.3,6.7-4,9.3-4h2.7c-0.1,3.8-0.3,10.4-1.3,13.3c-1.3,4-4,8-6.7,10.7
		c-2.7,2.7-10.7,8-10.7,8v1.3c0,0,13.3-2.7,16-2.7h8c2.7,0,16,2.7,16,2.7v-1.3c0,0-8-5.3-10.7-8s-5.3-6.7-6.7-10.7
		c-1-3-1.3-9.6-1.3-13.3h2.7c2.7,0,8,2.7,9.3,4l4,4c2.7,2.7,5.3,4,9.3,4s6.7-1.3,9.3-4c2.7-2.7,4-5.3,4-9.3s-1.3-6.7-4-9.3
		s-5.3-4-9.3-4s-6.7,1.3-9.3,4l-4,4c-1.3,1.3-6.7,4-9.3,4h-2.7c0-1.9,0-1.3,0-4s1.3-8,2.7-10.7c1.3-2.7,2.7-4,5.3-6.7
		c2.7-2.7,4-5.3,4-9.3s-1.3-6.7-4-9.3S-2577-518.1-2581-518.1"/>
	<path id="path270" d="M-2501-168.1c4,0.1,6.7-1.3,9.3-4c2.7-2.7,4-5.3,4-9.3s-1.5-6.4-4-9.3c-2.4-2.8-4-4-5.3-6.7
		c-1.3-2.7-2.7-8-2.7-10.7c0-2.7,0-2.4,0-4h2.7c2.7,0,8,2.7,9.3,4l4,4c2.7,2.7,5.3,4,9.3,4s6.7-1.3,9.3-4c2.7-2.7,4-5.3,4-9.3
		s-1.3-6.7-4-9.3s-5.3-4-9.3-4s-6.7,1.3-9.3,4l-4,4c-1.3,1.3-6.7,4-9.3,4h-2.7c0.1-3.8,0.3-10.4,1.3-13.3c1.3-4,4-8,6.7-10.7
		c2.7-2.7,10.7-8,10.7-8v-1.3c0,0-13.3,2.7-16,2.7h-8c-2.7,0-16-2.7-16-2.7v1.3c0,0,8,5.3,10.7,8s5.3,6.7,6.7,10.7
		c1,3,1.3,9.6,1.3,13.3h-2.7c-2.7,0-8-2.7-9.3-4l-4-4c-2.7-2.7-5.3-4-9.3-4s-6.7,1.3-9.3,4c-2.7,2.7-4,5.3-4,9.3s1.3,6.7,4,9.3
		s5.3,4,9.3,4s6.7-1.3,9.3-4l4-4c1.3-1.3,6.7-4,9.3-4h2.7c0,1.9,0,1.3,0,4s-1.3,8-2.7,10.7c-1.3,2.7-2.7,4-5.3,6.7
		c-2.7,2.7-4,5.3-4,9.3s1.3,6.7,4,9.3S-2505-168.1-2501-168.1"/>
	<path id="path272" d="M-2661-168.1c4,0.1,6.7-1.3,9.3-4c2.7-2.7,4-5.3,4-9.3s-1.5-6.4-4-9.3c-2.4-2.8-4-4-5.3-6.7
		c-1.3-2.7-2.7-8-2.7-10.7c0-2.7,0-2.4,0-4h2.7c2.7,0,8,2.7,9.3,4l4,4c2.7,2.7,5.3,4,9.3,4s6.7-1.3,9.3-4c2.7-2.7,4-5.3,4-9.3
		s-1.3-6.7-4-9.3s-5.3-4-9.3-4s-6.7,1.3-9.3,4l-4,4c-1.3,1.3-6.7,4-9.3,4h-2.7c0.1-3.8,0.3-10.4,1.3-13.3c1.3-4,4-8,6.7-10.7
		c2.7-2.7,10.7-8,10.7-8v-1.3c0,0-13.3,2.7-16,2.7h-8c-2.7,0-16-2.7-16-2.7v1.3c0,0,8,5.3,10.7,8s5.3,6.7,6.7,10.7
		c1,3,1.3,9.6,1.3,13.3h-2.7c-2.7,0-8-2.7-9.3-4l-4-4c-2.7-2.7-5.3-4-9.3-4s-6.7,1.3-9.3,4c-2.7,2.7-4,5.3-4,9.3s1.3,6.7,4,9.3
		s5.3,4,9.3,4s6.7-1.3,9.3-4l4-4c1.3-1.3,6.7-4,9.3-4h2.7c0,1.9,0,1.3,0,4s-1.3,8-2.7,10.7c-1.3,2.7-2.7,4-5.3,6.7
		c-2.7,2.7-4,5.3-4,9.3s1.3,6.7,4,9.3S-2665-168.1-2661-168.1"/>
	<path id="path274" d="M-2581-258.1c4,0.1,6.7-1.3,9.3-4c2.7-2.7,4-5.3,4-9.3s-1.5-6.4-4-9.3c-2.4-2.8-4-4-5.3-6.7
		c-1.3-2.7-2.7-8-2.7-10.7c0-2.7,0-2.4,0-4h2.7c2.7,0,8,2.7,9.3,4l4,4c2.7,2.7,5.3,4,9.3,4s6.7-1.3,9.3-4c2.7-2.7,4-5.3,4-9.3
		s-1.3-6.7-4-9.3s-5.3-4-9.3-4s-6.7,1.3-9.3,4l-4,4c-1.3,1.3-6.7,4-9.3,4h-2.7c0.1-3.8,0.3-10.4,1.3-13.3c1.3-4,4-8,6.7-10.7
		c2.7-2.7,10.7-8,10.7-8v-1.3c0,0-13.3,2.7-16,2.7h-8c-2.7,0-16-2.7-16-2.7v1.3c0,0,8,5.3,10.7,8s5.3,6.7,6.7,10.7
		c1,3,1.3,9.6,1.3,13.3h-2.7c-2.7,0-8-2.7-9.3-4l-4-4c-2.7-2.7-5.3-4-9.3-4s-6.7,1.3-9.3,4c-2.7,2.7-4,5.3-4,9.3s1.3,6.7,4,9.3
		s5.3,4,9.3,4s6.7-1.3,9.3-4l4-4c1.3-1.3,6.7-4,9.3-4h2.7c0,1.9,0,1.3,0,4s-1.3,8-2.7,10.7c-1.3,2.7-2.7,4-5.3,6.7
		c-2.7,2.7-4,5.3-4,9.3s1.3,6.7,4,9.3S-2585-258.1-2581-258.1"/>
	<path id="path276" d="M-2731-568.1c-1.5,0-2.5,0.5-3.5,1.5s-1.5,2-1.5,3.5s0.6,2.4,1.5,3.5c0.9,1.1,1.5,1.5,2,2.5s1,3,1,4
		s0,0.9,0,1.5h-1c-1,0-3-1-3.5-1.5l-1.5-1.5c-1-1-2-1.5-3.5-1.5s-2.5,0.5-3.5,1.5s-1.5,2-1.5,3.5s0.5,2.5,1.5,3.5s2,1.5,3.5,1.5
		s2.5-0.5,3.5-1.5l1.5-1.5c0.5-0.5,2.5-1.5,3.5-1.5h1c0,1.4-0.1,3.9-0.5,5c-0.5,1.5-1.5,3-2.5,4s-4,3-4,3v0.5c0,0,5-1,6-1h3
		c1,0,6,1,6,1v-0.5c0,0-3-2-4-3s-2-2.5-2.5-4c-0.4-1.1-0.5-3.6-0.5-5h1c1,0,3,1,3.5,1.5l1.5,1.5c1,1,2,1.5,3.5,1.5s2.5-0.5,3.5-1.5
		s1.5-2,1.5-3.5s-0.5-2.5-1.5-3.5s-2-1.5-3.5-1.5s-2.5,0.5-3.5,1.5l-1.5,1.5c-0.5,0.5-2.5,1.5-3.5,1.5h-1c0-0.7,0-0.5,0-1.5
		s0.5-3,1-4s1-1.5,2-2.5c1-1,1.5-2,1.5-3.5s-0.5-2.5-1.5-3.5S-2729.5-568.1-2731-568.1"/>
	<path id="path278" d="M-2431-208.1c1.5,0,2.5-0.5,3.5-1.5s1.5-2,1.5-3.5s-0.6-2.4-1.5-3.5c-0.9-1.1-1.5-1.5-2-2.5s-1-3-1-4
		s0-0.9,0-1.5h1c1,0,3,1,3.5,1.5l1.5,1.5c1,1,2,1.5,3.5,1.5s2.5-0.5,3.5-1.5s1.5-2,1.5-3.5s-0.5-2.5-1.5-3.5s-2-1.5-3.5-1.5
		s-2.5,0.5-3.5,1.5l-1.5,1.5c-0.5,0.5-2.5,1.5-3.5,1.5h-1c0-1.4,0.1-3.9,0.5-5c0.5-1.5,1.5-3,2.5-4s4-3,4-3v-0.5c0,0-5,1-6,1h-3
		c-1,0-6-1-6-1v0.5c0,0,3,2,4,3s2,2.5,2.5,4c0.4,1.1,0.5,3.6,0.5,5h-1c-1,0-3-1-3.5-1.5l-1.5-1.5c-1-1-2-1.5-3.5-1.5
		s-2.5,0.5-3.5,1.5s-1.5,2-1.5,3.5s0.5,2.5,1.5,3.5s2,1.5,3.5,1.5s2.5-0.5,3.5-1.5l1.5-1.5c0.5-0.5,2.5-1.5,3.5-1.5h1
		c0,0.7,0,0.5,0,1.5s-0.5,3-1,4s-1,1.5-2,2.5c-1,1-1.5,2-1.5,3.5s0.5,2.5,1.5,3.5S-2432.5-208.1-2431-208.1"/>
</g>
</svg>
