<?xml version="1.0" encoding="utf-8"?>
<!-- Generator: Adobe Illustrator 24.1.2, SVG Export Plug-In . SVG Version: 6.00 Build 0)  -->
<svg version="1.1" id="Слой_1" xmlns="http://www.w3.org/2000/svg" xmlns:xlink="http://www.w3.org/1999/xlink" x="0px" y="0px"
	 viewBox="0 0 359 539" style="enable-background:new 0 0 359 539;" xml:space="preserve">
<style type="text/css">
	.st0{fill:#FFFFFF;stroke:#000000;}
	.st1{fill:#FF5555;}
</style>
<g id="g456" transform="translate(2760,87.64)">
	<path id="rect458" class="st0" d="M-2730.6-87.6h299.1c16.5,0,29.9,13.4,29.9,29.9v479.1c0,16.5-13.4,29.9-29.9,29.9h-299.1
		c-16.5,0-29.9-13.4-29.9-29.9V-57.7C-2760.5-74.2-2747.1-87.6-2730.6-87.6z"/>
	<g id="g460">
		<path id="path462" class="st1" d="M-2661-38.1c0,0,8,13.3,17.3,22.7c9.3,9.3,22.7,17.3,22.7,17.3s-13.3,8-22.7,17.3
			c-9.3,9.3-17.3,22.7-17.3,22.7s-8-13.3-17.3-22.7c-9.3-9.3-22.7-17.3-22.7-17.3s13.3-8,22.7-17.3C-2669-24.8-2661-38.1-2661-38.1"
			/>
		<path id="path464" class="st1" d="M-2501-38.1c0,0,8,13.3,17.3,22.7c9.3,9.3,22.7,17.3,22.7,17.3s-13.3,8-22.7,17.3
			c-9.3,9.3-17.3,22.7-17.3,22.7s-8-13.3-17.3-22.7c-9.3-9.3-22.7-17.3-22.7-17.3s13.3-8,22.7-17.3C-2509-24.8-2501-38.1-2501-38.1"
			/>
		<path id="path466" class="st1" d="M-2581,51.9c0,0,8,13.3,17.3,22.7c9.3,9.3,22.7,17.3,22.7,17.3s-13.3,8-22.7,17.3
			c-9.3,9.3-17.3,22.7-17.3,22.7s-8-13.3-17.3-22.7c-9.3-9.3-22.7-17.3-22.7-17.3s13.3-8,22.7-17.3C-2589,65.2-2581,51.9-2581,51.9"
			/>
		<path id="path468" class="st1" d="M-2661,141.9c0,0,8,13.3,17.3,22.7c9.3,9.3,22.7,17.3,22.7,17.3s-13.3,8-22.7,17.3
			c-9.3,9.3-17.3,22.7-17.3,22.7s-8-13.3-17.3-22.7c-9.3-9.3-22.7-17.3-22.7-17.3s13.3-8,22.7-17.3
			C-2669,155.2-2661,141.9-2661,141.9"/>
		<path id="path470" class="st1" d="M-2501,141.9c0,0,8,13.3,17.3,22.7c9.3,9.3,22.7,17.3,22.7,17.3s-13.3,8-22.7,17.3
			c-9.3,9.3-17.3,22.7-17.3,22.7s-8-13.3-17.3-22.7c-9.3-9.3-22.7-17.3-22.7-17.3s13.3-8,22.7-17.3
			C-2509,155.2-2501,141.9-2501,141.9"/>
		<path id="path472" class="st1" d="M-2581,231.9c0,0,8,13.3,17.3,22.7c9.3,9.3,22.7,17.3,22.7,17.3s-13.3,8-22.7,17.3
			c-9.3,9.3-17.3,22.7-17.3,22.7s-8-13.3-17.3-22.7c-9.3-9.3-22.7-17.3-22.7-17.3s13.3-8,22.7-17.3
			C-2589,245.2-2581,231.9-2581,231.9"/>
		<path id="path474" class="st1" d="M-2661,321.9c0,0,8,13.3,17.3,22.7c9.3,9.3,22.7,17.3,22.7,17.3s-13.3,8-22.7,17.3
			c-9.3,9.3-17.3,22.7-17.3,22.7s-8-13.3-17.3-22.7c-9.3-9.3-22.7-17.3-22.7-17.3s13.3-8,22.7-17.3
			C-2669,335.2-2661,321.9-2661,321.9"/>
		<path id="path476" class="st1" d="M-2501,321.9c0,0,8,13.3,17.3,22.7c9.3,9.3,22.7,17.3,22.7,17.3s-13.3,8-22.7,17.3
			c-9.3,9.3-17.3,22.7-17.3,22.7s-8-13.3-17.3-22.7c-9.3-9.3-22.7-17.3-22.7-17.3s13.3-8,22.7-17.3
			C-2509,335.2-2501,321.9-2501,321.9"/>
		<path id="path478" class="st1" d="M-2431,331.9c0,0,3,5,6.5,8.5s8.5,6.5,8.5,6.5s-5,3-8.5,6.5s-6.5,8.5-6.5,8.5s-3-5-6.5-8.5
			s-8.5-6.5-8.5-6.5s5-3,8.5-6.5S-2431,331.9-2431,331.9"/>
		<path id="path480" class="st1" d="M-2731,1.9c0,0,3,5,6.5,8.5s8.5,6.5,8.5,6.5s-5,3-8.5,6.5s-6.5,8.5-6.5,8.5s-3-5-6.5-8.5
			s-8.5-6.5-8.5-6.5s5-3,8.5-6.5S-2731,1.9-2731,1.9"/>
		<path id="path482" class="st1" d="M-2731-58.1c-5.5,0-10,4.5-10,10v5c0,3,1.3,5.7,3.4,7.5c-2.1,1.8-3.4,4.5-3.4,7.5v10
			c0,5.5,4.5,10,10,10s10-4.5,10-10v-10c0-3-1.3-5.7-3.4-7.5c2.1-1.8,3.4-4.5,3.4-7.5v-5C-2721-53.7-2725.5-58.1-2731-58.1
			 M-2731-53.1c2.8,0,5,2.2,5,5v5c0,2.8-2.2,5-5,5s-5-2.2-5-5v-5C-2736-50.9-2733.8-53.1-2731-53.1 M-2731-33.1c2.8,0,5,2.2,5,5v10
			c0,2.8-2.2,5-5,5s-5-2.2-5-5v-10C-2736-30.9-2733.8-33.1-2731-33.1"/>
		<path id="path484" class="st1" d="M-2431,421.9c-5.5,0-10-4.5-10-10v-5c0-3,1.3-5.7,3.4-7.5c-2.1-1.8-3.4-4.5-3.4-7.5v-10
			c0-5.5,4.5-10,10-10s10,4.5,10,10v10c0,3-1.3,5.7-3.4,7.5c2.1,1.8,3.4,4.5,3.4,7.5v5C-2421,417.4-2425.5,421.9-2431,421.9
			 M-2431,416.9c2.8,0,5-2.2,5-5v-5c0-2.8-2.2-5-5-5s-5,2.2-5,5v5C-2436,414.6-2433.8,416.9-2431,416.9 M-2431,396.9
			c2.8,0,5-2.2,5-5v-10c0-2.8-2.2-5-5-5s-5,2.2-5,5v10C-2436,394.6-2433.8,396.9-2431,396.9"/>
	</g>
</g>
</svg>
