<?xml version="1.0" encoding="utf-8"?>
<!-- Generator: Adobe Illustrator 24.1.2, SVG Export Plug-In . SVG Version: 6.00 Build 0)  -->
<svg version="1.1" id="Слой_1" xmlns="http://www.w3.org/2000/svg" xmlns:xlink="http://www.w3.org/1999/xlink" x="0px" y="0px"
	 viewBox="0 0 359 539" style="enable-background:new 0 0 359 539;" xml:space="preserve">
<style type="text/css">
	.st0{fill:#FFFFFF;stroke:#000000;}
	.st1{fill:#FF5555;}
</style>
<path id="rect14720" class="st0" d="M29.4,0h299.1c16.5,0,29.9,13.4,29.9,29.9v479.1c0,16.5-13.4,29.9-29.9,29.9H29.4
	c-16.5,0-29.9-13.4-29.9-29.9V29.9C-0.5,13.4,12.9,0,29.4,0z"/>
<g id="g14722">
	<path id="path14724" class="st1" d="M29,97c0,0,0.7-4.2,2-5.5s3.6-2,5.5-2s4.2,0.7,5.5,2s2,3.6,2,5.5s-1,4.5-2,5.5s-2,1.5-3,2.5
		s-1.5,1-2.5,2s-1.5,1.5-2.5,2.5s-2.5,3-3.5,5s-1.5,5-1.5,5s-0.5-3-1.5-5s-2.5-4-3.5-5s-1.5-1.5-2.5-2.5s-1.5-1-2.5-2s-2-1.5-3-2.5
		s-2-3.6-2-5.5s0.7-4.2,2-5.5s3.6-2,5.5-2s4.2,0.7,5.5,2S29,97,29,97"/>
	<path id="path14726" class="st1" d="M329,442c0,0,0.7,4.2,2,5.5s3.6,2,5.5,2s4.2-0.7,5.5-2s2-3.6,2-5.5s-1-4.5-2-5.5s-2-1.5-3-2.5
		s-1.5-1-2.5-2s-1.5-1.5-2.5-2.5s-2.5-3-3.5-5s-1.5-5-1.5-5s-0.5,3-1.5,5s-2.5,4-3.5,5s-1.5,1.5-2.5,2.5s-1.5,1-2.5,2s-2,1.5-3,2.5
		s-2,3.6-2,5.5s0.7,4.2,2,5.5s3.6,2,5.5,2s4.2-0.7,5.5-2S329,442,329,442"/>
	<path id="path14728" class="st1" d="M29,29.5c-5.5,0-10,4.5-10,10v5c0,3,1.3,5.7,3.4,7.5c-2.1,1.8-3.4,4.5-3.4,7.5v10
		c0,5.5,4.5,10,10,10s10-4.5,10-10v-10c0-3-1.3-5.7-3.4-7.5c2.1-1.8,3.4-4.5,3.4-7.5v-5C39,34,34.5,29.5,29,29.5 M29,34.5
		c2.8,0,5,2.2,5,5v5c0,2.8-2.2,5-5,5s-5-2.2-5-5v-5C24,36.7,26.2,34.5,29,34.5 M29,54.5c2.8,0,5,2.2,5,5v10c0,2.8-2.2,5-5,5
		s-5-2.2-5-5v-10C24,56.7,26.2,54.5,29,54.5"/>
	<path id="path14730" class="st1" d="M329,509.5c-5.5,0-10-4.5-10-10v-5c0-3,1.3-5.7,3.4-7.5c-2.1-1.8-3.4-4.5-3.4-7.5v-10
		c0-5.5,4.5-10,10-10s10,4.5,10,10v10c0,3-1.3,5.7-3.4,7.5c2.1,1.8,3.4,4.5,3.4,7.5v5C339,505,334.5,509.5,329,509.5 M329,504.5
		c2.8,0,5-2.2,5-5v-5c0-2.8-2.2-5-5-5s-5,2.2-5,5v5C324,502.3,326.2,504.5,329,504.5 M329,484.5c2.8,0,5-2.2,5-5v-10
		c0-2.8-2.2-5-5-5s-5,2.2-5,5v10C324,482.3,326.2,484.5,329,484.5"/>
	<path id="path14732" class="st1" d="M99,69.5c0,0,1.8-11.2,5.3-14.7c3.5-3.5,9.7-5.3,14.7-5.3s11.2,1.8,14.7,5.3
		c3.5,3.5,5.3,9.7,5.3,14.7s-2.7,12-5.3,14.7c-2.7,2.7-5.3,4-8,6.7s-4,2.7-6.7,5.3c-2.7,2.7-4,4-6.7,6.7s-6.7,8-9.3,13.3
		c-2.7,5.3-4,13.3-4,13.3s-1.3-8-4-13.3s-6.7-10.7-9.3-13.3c-2.7-2.7-4-4-6.7-6.7s-4-2.7-6.7-5.3c-2.7-2.7-5.3-4-8-6.7
		S59,74.5,59,69.5s1.8-11.2,5.3-14.7c3.5-3.5,9.7-5.3,14.7-5.3s11.2,1.8,14.7,5.3C97.2,58.3,99,69.5,99,69.5"/>
	<path id="path14734" class="st1" d="M259,69.5c0,0,1.8-11.2,5.3-14.7c3.5-3.5,9.7-5.3,14.7-5.3s11.2,1.8,14.7,5.3
		c3.5,3.5,5.3,9.7,5.3,14.7s-2.7,12-5.3,14.7c-2.7,2.7-5.3,4-8,6.7s-4,2.7-6.7,5.3c-2.7,2.7-4,4-6.7,6.7s-6.7,8-9.3,13.3
		c-2.7,5.3-4,13.3-4,13.3s-1.3-8-4-13.3s-6.7-10.7-9.3-13.3c-2.7-2.7-4-4-6.7-6.7s-4-2.7-6.7-5.3c-2.7-2.7-5.3-4-8-6.7
		s-5.3-9.7-5.3-14.7s1.8-11.2,5.3-14.7c3.5-3.5,9.7-5.3,14.7-5.3s11.2,1.8,14.7,5.3C257.2,58.3,259,69.5,259,69.5"/>
	<path id="path14736" class="st1" d="M99,249.5c0,0,1.8-11.2,5.3-14.7c3.5-3.5,9.7-5.3,14.7-5.3s11.2,1.8,14.7,5.3
		c3.5,3.5,5.3,9.7,5.3,14.7s-2.7,12-5.3,14.7c-2.7,2.7-5.3,4-8,6.7s-4,2.7-6.7,5.3c-2.7,2.7-4,4-6.7,6.7s-6.7,8-9.3,13.3
		c-2.7,5.3-4,13.3-4,13.3s-1.3-8-4-13.3s-6.7-10.7-9.3-13.3c-2.7-2.7-4-4-6.7-6.7s-4-2.7-6.7-5.3c-2.7-2.7-5.3-4-8-6.7
		s-5.3-9.7-5.3-14.7s1.8-11.2,5.3-14.7c3.5-3.5,9.7-5.3,14.7-5.3s11.2,1.8,14.7,5.3C97.2,238.3,99,249.5,99,249.5"/>
	<path id="path14738" class="st1" d="M259,249.5c0,0,1.8-11.2,5.3-14.7c3.5-3.5,9.7-5.3,14.7-5.3s11.2,1.8,14.7,5.3
		c3.5,3.5,5.3,9.7,5.3,14.7s-2.7,12-5.3,14.7c-2.7,2.7-5.3,4-8,6.7s-4,2.7-6.7,5.3c-2.7,2.7-4,4-6.7,6.7s-6.7,8-9.3,13.3
		c-2.7,5.3-4,13.3-4,13.3s-1.3-8-4-13.3s-6.7-10.7-9.3-13.3c-2.7-2.7-4-4-6.7-6.7s-4-2.7-6.7-5.3c-2.7-2.7-5.3-4-8-6.7
		s-5.3-9.7-5.3-14.7s1.8-11.2,5.3-14.7c3.5-3.5,9.7-5.3,14.7-5.3s11.2,1.8,14.7,5.3C257.2,238.3,259,249.5,259,249.5"/>
	<path id="path14740" class="st1" d="M99,469.5c0,0,1.8,11.2,5.3,14.7c3.5,3.5,9.7,5.3,14.7,5.3s11.2-1.8,14.7-5.3
		c3.5-3.5,5.3-9.7,5.3-14.7s-2.7-12-5.3-14.7c-2.7-2.7-5.3-4-8-6.7s-4-2.7-6.7-5.3c-2.7-2.7-4-4-6.7-6.7s-6.7-8-9.3-13.3
		c-2.7-5.3-4-13.3-4-13.3s-1.3,8-4,13.3s-6.7,10.7-9.3,13.3c-2.7,2.7-4,4-6.7,6.7s-4,2.7-6.7,5.3c-2.7,2.7-5.3,4-8,6.7
		s-5.3,9.7-5.3,14.7s1.8,11.2,5.3,14.7c3.5,3.5,9.7,5.3,14.7,5.3s11.2-1.8,14.7-5.3C97.2,480.7,99,469.5,99,469.5"/>
	<path id="path14742" class="st1" d="M259,469.5c0,0,1.8,11.2,5.3,14.7c3.5,3.5,9.7,5.3,14.7,5.3s11.2-1.8,14.7-5.3
		c3.5-3.5,5.3-9.7,5.3-14.7s-2.7-12-5.3-14.7c-2.7-2.7-5.3-4-8-6.7s-4-2.7-6.7-5.3c-2.7-2.7-4-4-6.7-6.7s-6.7-8-9.3-13.3
		c-2.7-5.3-4-13.3-4-13.3s-1.3,8-4,13.3s-6.7,10.7-9.3,13.3c-2.7,2.7-4,4-6.7,6.7s-4,2.7-6.7,5.3c-2.7,2.7-5.3,4-8,6.7
		s-5.3,9.7-5.3,14.7s1.8,11.2,5.3,14.7c3.5,3.5,9.7,5.3,14.7,5.3s11.2-1.8,14.7-5.3C257.2,480.7,259,469.5,259,469.5"/>
	<path id="path14744" class="st1" d="M179,379.5c0,0,1.8,11.2,5.3,14.7c3.5,3.5,9.7,5.3,14.7,5.3s11.2-1.8,14.7-5.3
		c3.5-3.5,5.3-9.7,5.3-14.7s-2.7-12-5.3-14.7c-2.7-2.7-5.3-4-8-6.7s-4-2.7-6.7-5.3c-2.7-2.7-4-4-6.7-6.7s-6.7-8-9.3-13.3
		c-2.7-5.3-4-13.3-4-13.3s-1.3,8-4,13.3s-6.7,10.7-9.3,13.3c-2.7,2.7-4,4-6.7,6.7s-4,2.7-6.7,5.3c-2.7,2.7-5.3,4-8,6.7
		s-5.3,9.7-5.3,14.7s1.8,11.2,5.3,14.7c3.5,3.5,9.7,5.3,14.7,5.3s11.2-1.8,14.7-5.3C177.2,390.7,179,379.5,179,379.5"/>
	<path id="path14746" class="st1" d="M179,159.5c0,0,1.8-11.2,5.3-14.7c3.5-3.5,9.7-5.3,14.7-5.3s11.2,1.8,14.7,5.3
		c3.5,3.5,5.3,9.7,5.3,14.7s-2.7,12-5.3,14.7c-2.7,2.7-5.3,4-8,6.7s-4,2.7-6.7,5.3c-2.7,2.7-4,4-6.7,6.7s-6.7,8-9.3,13.3
		c-2.7,5.3-4,13.3-4,13.3s-1.3-8-4-13.3s-6.7-10.7-9.3-13.3c-2.7-2.7-4-4-6.7-6.7s-4-2.7-6.7-5.3c-2.7-2.7-5.3-4-8-6.7
		s-5.3-9.7-5.3-14.7s1.8-11.2,5.3-14.7c3.5-3.5,9.7-5.3,14.7-5.3s11.2,1.8,14.7,5.3C177.2,148.3,179,159.5,179,159.5"/>
</g>
</svg>
