<?xml version="1.0" encoding="utf-8"?>
<!-- Generator: Adobe Illustrator 24.1.2, SVG Export Plug-In . SVG Version: 6.00 Build 0)  -->
<svg version="1.1" id="Слой_1" xmlns="http://www.w3.org/2000/svg" xmlns:xlink="http://www.w3.org/1999/xlink" x="0px" y="0px"
	 viewBox="0 0 359 539" style="enable-background:new 0 0 359 539;" xml:space="preserve">
<style type="text/css">
	.st0{fill:#FFFFFF;stroke:#000000;}
	.st1{fill:#FF5555;}
</style>
<g id="g486" transform="translate(3150,87.64)">
	<path id="rect488" class="st0" d="M-3120.6-87.6h299.1c16.5,0,29.9,13.4,29.9,29.9v479.1c0,16.5-13.4,29.9-29.9,29.9h-299.1
		c-16.5,0-29.9-13.4-29.9-29.9V-57.7C-3150.5-74.2-3137.1-87.6-3120.6-87.6z"/>
	<g id="g490">
		<path id="path492" class="st1" d="M-3051-38.1c0,0,8,13.3,17.3,22.7c9.3,9.3,22.7,17.3,22.7,17.3s-13.3,8-22.7,17.3
			c-9.3,9.3-17.3,22.7-17.3,22.7s-8-13.3-17.3-22.7c-9.3-9.3-22.7-17.3-22.7-17.3s13.3-8,22.7-17.3C-3059-24.8-3051-38.1-3051-38.1"
			/>
		<path id="path494" class="st1" d="M-2891-38.1c0,0,8,13.3,17.3,22.7c9.3,9.3,22.7,17.3,22.7,17.3s-13.3,8-22.7,17.3
			c-9.3,9.3-17.3,22.7-17.3,22.7s-8-13.3-17.3-22.7c-9.3-9.3-22.7-17.3-22.7-17.3s13.3-8,22.7-17.3C-2899-24.8-2891-38.1-2891-38.1"
			/>
		<path id="path496" class="st1" d="M-2971,141.9c0,0,8,13.3,17.3,22.7c9.3,9.3,22.7,17.3,22.7,17.3s-13.3,8-22.7,17.3
			c-9.3,9.3-17.3,22.7-17.3,22.7s-8-13.3-17.3-22.7c-9.3-9.3-22.7-17.3-22.7-17.3s13.3-8,22.7-17.3
			C-2979,155.2-2971,141.9-2971,141.9"/>
		<path id="path498" class="st1" d="M-3051,81.9c0,0,8,13.3,17.3,22.7c9.3,9.3,22.7,17.3,22.7,17.3s-13.3,8-22.7,17.3
			c-9.3,9.3-17.3,22.7-17.3,22.7s-8-13.3-17.3-22.7c-9.3-9.3-22.7-17.3-22.7-17.3s13.3-8,22.7-17.3C-3059,95.2-3051,81.9-3051,81.9"
			/>
		<path id="path500" class="st1" d="M-2891,81.9c0,0,8,13.3,17.3,22.7c9.3,9.3,22.7,17.3,22.7,17.3s-13.3,8-22.7,17.3
			c-9.3,9.3-17.3,22.7-17.3,22.7s-8-13.3-17.3-22.7c-9.3-9.3-22.7-17.3-22.7-17.3s13.3-8,22.7-17.3C-2899,95.2-2891,81.9-2891,81.9"
			/>
		<path id="path502" class="st1" d="M-3051,201.9c0,0,8,13.3,17.3,22.7c9.3,9.3,22.7,17.3,22.7,17.3s-13.3,8-22.7,17.3
			c-9.3,9.3-17.3,22.7-17.3,22.7s-8-13.3-17.3-22.7c-9.3-9.3-22.7-17.3-22.7-17.3s13.3-8,22.7-17.3
			C-3059,215.2-3051,201.9-3051,201.9"/>
		<path id="path504" class="st1" d="M-2891,201.9c0,0,8,13.3,17.3,22.7c9.3,9.3,22.7,17.3,22.7,17.3s-13.3,8-22.7,17.3
			c-9.3,9.3-17.3,22.7-17.3,22.7s-8-13.3-17.3-22.7c-9.3-9.3-22.7-17.3-22.7-17.3s13.3-8,22.7-17.3
			C-2899,215.2-2891,201.9-2891,201.9"/>
		<path id="path506" class="st1" d="M-3051,321.9c0,0,8,13.3,17.3,22.7c9.3,9.3,22.7,17.3,22.7,17.3s-13.3,8-22.7,17.3
			c-9.3,9.3-17.3,22.7-17.3,22.7s-8-13.3-17.3-22.7c-9.3-9.3-22.7-17.3-22.7-17.3s13.3-8,22.7-17.3
			C-3059,335.2-3051,321.9-3051,321.9"/>
		<path id="path508" class="st1" d="M-2891,321.9c0,0,8,13.3,17.3,22.7c9.3,9.3,22.7,17.3,22.7,17.3s-13.3,8-22.7,17.3
			c-9.3,9.3-17.3,22.7-17.3,22.7s-8-13.3-17.3-22.7c-9.3-9.3-22.7-17.3-22.7-17.3s13.3-8,22.7-17.3
			C-2899,335.2-2891,321.9-2891,321.9"/>
		<path id="path510" class="st1" d="M-2821,331.9c0,0,3,5,6.5,8.5s8.5,6.5,8.5,6.5s-5,3-8.5,6.5s-6.5,8.5-6.5,8.5s-3-5-6.5-8.5
			s-8.5-6.5-8.5-6.5s5-3,8.5-6.5S-2821,331.9-2821,331.9"/>
		<path id="path512" class="st1" d="M-3121,1.9c0,0,3,5,6.5,8.5s8.5,6.5,8.5,6.5s-5,3-8.5,6.5s-6.5,8.5-6.5,8.5s-3-5-6.5-8.5
			s-8.5-6.5-8.5-6.5s5-3,8.5-6.5S-3121,1.9-3121,1.9"/>
		<path id="path514" class="st1" d="M-3121-8.1c5.5,0,10-4.5,10-10v-20v-10c0-5.5-4.5-10-10-10s-10,4.5-10,10v10c0,5.5,4.5,10,10,10
			c1.8,0,3.5-0.5,5-1.3v11.3c0,2.8-2.2,5-5,5s-5-2.2-5-5v-1h-5v1C-3131-12.6-3126.5-8.1-3121-8.1 M-3121-33.1c-2.8,0-5-2.2-5-5v-10
			c0-2.8,2.2-5,5-5s5,2.2,5,5v10C-3116-35.4-3118.2-33.1-3121-33.1"/>
		<path id="path516" class="st1" d="M-2821,371.9c-5.5,0-10,4.5-10,10v20v10c0,5.5,4.5,10,10,10s10-4.5,10-10v-10
			c0-5.5-4.5-10-10-10c-1.8,0-3.5,0.5-5,1.3v-11.3c0-2.8,2.2-5,5-5s5,2.2,5,5v1h5v-1C-2811,376.3-2815.5,371.9-2821,371.9
			 M-2821,396.9c2.8,0,5,2.2,5,5v10c0,2.8-2.2,5-5,5s-5-2.2-5-5v-10C-2826,399.1-2823.8,396.9-2821,396.9"/>
	</g>
</g>
</svg>
