<?xml version="1.0" encoding="utf-8"?>
<!-- Generator: Adobe Illustrator 24.1.2, SVG Export Plug-In . SVG Version: 6.00 Build 0)  -->
<svg version="1.1" id="Слой_1" xmlns="http://www.w3.org/2000/svg" xmlns:xlink="http://www.w3.org/1999/xlink" x="0px" y="0px"
	 viewBox="0 0 359 539" style="enable-background:new 0 0 359 539;" xml:space="preserve">
<style type="text/css">
	.st0{fill:#FFFFFF;stroke:#000000;}
	.st1{fill:#FF5555;}
</style>
<g id="g14688" transform="translate(0,1827.64)">
	<path id="rect14690" class="st0" d="M29.4-1827.6h299.1c16.5,0,29.9,13.4,29.9,29.9v479.1c0,16.5-13.4,29.9-29.9,29.9H29.4
		c-16.5,0-29.9-13.4-29.9-29.9v-479.1C-0.5-1814.2,12.9-1827.6,29.4-1827.6z"/>
	<g id="g14692">
		<path id="path14694" class="st1" d="M29-1730.6c0,0,0.7-4.2,2-5.5s3.6-2,5.5-2s4.2,0.7,5.5,2s2,3.6,2,5.5s-1,4.5-2,5.5
			s-2,1.5-3,2.5s-1.5,1-2.5,2s-1.5,1.5-2.5,2.5s-2.5,3-3.5,5s-1.5,5-1.5,5s-0.5-3-1.5-5s-2.5-4-3.5-5s-1.5-1.5-2.5-2.5s-1.5-1-2.5-2
			s-2-1.5-3-2.5s-2-3.6-2-5.5s0.7-4.2,2-5.5s3.6-2,5.5-2s4.2,0.7,5.5,2S29-1730.6,29-1730.6"/>
		<path id="path14696" class="st1" d="M329-1385.6c0,0,0.7,4.2,2,5.5s3.6,2,5.5,2s4.2-0.7,5.5-2s2-3.6,2-5.5s-1-4.5-2-5.5
			s-2-1.5-3-2.5s-1.5-1-2.5-2s-1.5-1.5-2.5-2.5s-2.5-3-3.5-5s-1.5-5-1.5-5s-0.5,3-1.5,5s-2.5,4-3.5,5s-1.5,1.5-2.5,2.5s-1.5,1-2.5,2
			s-2,1.5-3,2.5s-2,3.6-2,5.5s0.7,4.2,2,5.5s3.6,2,5.5,2s4.2-0.7,5.5-2S329-1385.6,329-1385.6"/>
		<path id="path14698" class="st1" d="M29-1748.1c5.5,0,10-4.5,10-10v-20v-10c0-5.5-4.5-10-10-10s-10,4.5-10,10v10
			c0,5.5,4.5,10,10,10c1.8,0,3.5-0.5,5-1.3v11.3c0,2.8-2.2,5-5,5s-5-2.2-5-5v-1h-5v1C19-1752.6,23.5-1748.1,29-1748.1 M29-1773.1
			c-2.8,0-5-2.2-5-5v-10c0-2.8,2.2-5,5-5s5,2.2,5,5v10C34-1775.4,31.8-1773.1,29-1773.1"/>
		<path id="path14700" class="st1" d="M329-1368.1c-5.5,0-10,4.5-10,10v20v10c0,5.5,4.5,10,10,10s10-4.5,10-10v-10
			c0-5.5-4.5-10-10-10c-1.8,0-3.5,0.5-5,1.3v-11.3c0-2.8,2.2-5,5-5s5,2.2,5,5v1h5v-1C339-1363.7,334.5-1368.1,329-1368.1
			 M329-1343.1c2.8,0,5,2.2,5,5v10c0,2.8-2.2,5-5,5s-5-2.2-5-5v-10C324-1340.9,326.2-1343.1,329-1343.1"/>
		<path id="path14702" class="st1" d="M99-1758.1c0,0,1.8-11.2,5.3-14.7c3.5-3.5,9.7-5.3,14.7-5.3s11.2,1.8,14.7,5.3
			c3.5,3.5,5.3,9.7,5.3,14.7s-2.7,12-5.3,14.7c-2.7,2.7-5.3,4-8,6.7s-4,2.7-6.7,5.3c-2.7,2.7-4,4-6.7,6.7s-6.7,8-9.3,13.3
			c-2.7,5.3-4,13.3-4,13.3s-1.3-8-4-13.3s-6.7-10.7-9.3-13.3c-2.7-2.7-4-4-6.7-6.7s-4-2.7-6.7-5.3c-2.7-2.7-5.3-4-8-6.7
			s-5.3-9.7-5.3-14.7s1.8-11.2,5.3-14.7c3.5-3.5,9.7-5.3,14.7-5.3s11.2,1.8,14.7,5.3C97.2-1769.3,99-1758.1,99-1758.1"/>
		<path id="path14704" class="st1" d="M259-1758.1c0,0,1.8-11.2,5.3-14.7c3.5-3.5,9.7-5.3,14.7-5.3s11.2,1.8,14.7,5.3
			c3.5,3.5,5.3,9.7,5.3,14.7s-2.7,12-5.3,14.7c-2.7,2.7-5.3,4-8,6.7s-4,2.7-6.7,5.3c-2.7,2.7-4,4-6.7,6.7s-6.7,8-9.3,13.3
			c-2.7,5.3-4,13.3-4,13.3s-1.3-8-4-13.3s-6.7-10.7-9.3-13.3c-2.7-2.7-4-4-6.7-6.7s-4-2.7-6.7-5.3c-2.7-2.7-5.3-4-8-6.7
			s-5.3-9.7-5.3-14.7s1.8-11.2,5.3-14.7c3.5-3.5,9.7-5.3,14.7-5.3s11.2,1.8,14.7,5.3C257.2-1769.3,259-1758.1,259-1758.1"/>
		<path id="path14706" class="st1" d="M99-1638.1c0,0,1.8-11.2,5.3-14.7c3.5-3.5,9.7-5.3,14.7-5.3s11.2,1.8,14.7,5.3
			c3.5,3.5,5.3,9.7,5.3,14.7s-2.7,12-5.3,14.7c-2.7,2.7-5.3,4-8,6.7s-4,2.7-6.7,5.3c-2.7,2.7-4,4-6.7,6.7s-6.7,8-9.3,13.3
			c-2.7,5.3-4,13.3-4,13.3s-1.3-8-4-13.3s-6.7-10.7-9.3-13.3c-2.7-2.7-4-4-6.7-6.7s-4-2.7-6.7-5.3c-2.7-2.7-5.3-4-8-6.7
			s-5.3-9.7-5.3-14.7s1.8-11.2,5.3-14.7c3.5-3.5,9.7-5.3,14.7-5.3s11.2,1.8,14.7,5.3C97.2-1649.3,99-1638.1,99-1638.1"/>
		<path id="path14708" class="st1" d="M259-1638.1c0,0,1.8-11.2,5.3-14.7c3.5-3.5,9.7-5.3,14.7-5.3s11.2,1.8,14.7,5.3
			c3.5,3.5,5.3,9.7,5.3,14.7s-2.7,12-5.3,14.7c-2.7,2.7-5.3,4-8,6.7s-4,2.7-6.7,5.3c-2.7,2.7-4,4-6.7,6.7s-6.7,8-9.3,13.3
			c-2.7,5.3-4,13.3-4,13.3s-1.3-8-4-13.3s-6.7-10.7-9.3-13.3c-2.7-2.7-4-4-6.7-6.7s-4-2.7-6.7-5.3c-2.7-2.7-5.3-4-8-6.7
			s-5.3-9.7-5.3-14.7s1.8-11.2,5.3-14.7c3.5-3.5,9.7-5.3,14.7-5.3s11.2,1.8,14.7,5.3C257.2-1649.3,259-1638.1,259-1638.1"/>
		<path id="path14710" class="st1" d="M99-1358.1c0,0,1.8,11.2,5.3,14.7c3.5,3.5,9.7,5.3,14.7,5.3s11.2-1.8,14.7-5.3
			c3.5-3.5,5.3-9.7,5.3-14.7s-2.7-12-5.3-14.7c-2.7-2.7-5.3-4-8-6.7s-4-2.7-6.7-5.3c-2.7-2.7-4-4-6.7-6.7s-6.7-8-9.3-13.3
			c-2.7-5.3-4-13.3-4-13.3s-1.3,8-4,13.3s-6.7,10.7-9.3,13.3c-2.7,2.7-4,4-6.7,6.7s-4,2.7-6.7,5.3c-2.7,2.7-5.3,4-8,6.7
			s-5.3,9.7-5.3,14.7s1.8,11.2,5.3,14.7c3.5,3.5,9.7,5.3,14.7,5.3s11.2-1.8,14.7-5.3C97.2-1347,99-1358.1,99-1358.1"/>
		<path id="path14712" class="st1" d="M259-1358.1c0,0,1.8,11.2,5.3,14.7c3.5,3.5,9.7,5.3,14.7,5.3s11.2-1.8,14.7-5.3
			c3.5-3.5,5.3-9.7,5.3-14.7s-2.7-12-5.3-14.7c-2.7-2.7-5.3-4-8-6.7s-4-2.7-6.7-5.3c-2.7-2.7-4-4-6.7-6.7s-6.7-8-9.3-13.3
			c-2.7-5.3-4-13.3-4-13.3s-1.3,8-4,13.3s-6.7,10.7-9.3,13.3c-2.7,2.7-4,4-6.7,6.7s-4,2.7-6.7,5.3c-2.7,2.7-5.3,4-8,6.7
			s-5.3,9.7-5.3,14.7s1.8,11.2,5.3,14.7c3.5,3.5,9.7,5.3,14.7,5.3s11.2-1.8,14.7-5.3C257.2-1347,259-1358.1,259-1358.1"/>
		<path id="path14714" class="st1" d="M99-1478.1c0,0,1.8,11.2,5.3,14.7c3.5,3.5,9.7,5.3,14.7,5.3s11.2-1.8,14.7-5.3
			c3.5-3.5,5.3-9.7,5.3-14.7s-2.7-12-5.3-14.7c-2.7-2.7-5.3-4-8-6.7s-4-2.7-6.7-5.3c-2.7-2.7-4-4-6.7-6.7s-6.7-8-9.3-13.3
			c-2.7-5.3-4-13.3-4-13.3s-1.3,8-4,13.3s-6.7,10.7-9.3,13.3c-2.7,2.7-4,4-6.7,6.7s-4,2.7-6.7,5.3c-2.7,2.7-5.3,4-8,6.7
			s-5.3,9.7-5.3,14.7s1.8,11.2,5.3,14.7c3.5,3.5,9.7,5.3,14.7,5.3s11.2-1.8,14.7-5.3C97.2-1467,99-1478.1,99-1478.1"/>
		<path id="path14716" class="st1" d="M259-1478.1c0,0,1.8,11.2,5.3,14.7c3.5,3.5,9.7,5.3,14.7,5.3s11.2-1.8,14.7-5.3
			c3.5-3.5,5.3-9.7,5.3-14.7s-2.7-12-5.3-14.7c-2.7-2.7-5.3-4-8-6.7s-4-2.7-6.7-5.3c-2.7-2.7-4-4-6.7-6.7s-6.7-8-9.3-13.3
			c-2.7-5.3-4-13.3-4-13.3s-1.3,8-4,13.3s-6.7,10.7-9.3,13.3c-2.7,2.7-4,4-6.7,6.7s-4,2.7-6.7,5.3c-2.7,2.7-5.3,4-8,6.7
			s-5.3,9.7-5.3,14.7s1.8,11.2,5.3,14.7c3.5,3.5,9.7,5.3,14.7,5.3s11.2-1.8,14.7-5.3C257.2-1467,259-1478.1,259-1478.1"/>
		<path id="path14718" class="st1" d="M179-1578.1c0,0,1.8-11.2,5.3-14.7c3.5-3.5,9.7-5.3,14.7-5.3s11.2,1.8,14.7,5.3
			c3.5,3.5,5.3,9.7,5.3,14.7s-2.7,12-5.3,14.7c-2.7,2.7-5.3,4-8,6.7s-4,2.7-6.7,5.3c-2.7,2.7-4,4-6.7,6.7s-6.7,8-9.3,13.3
			c-2.7,5.3-4,13.3-4,13.3s-1.3-8-4-13.3s-6.7-10.7-9.3-13.3c-2.7-2.7-4-4-6.7-6.7s-4-2.7-6.7-5.3c-2.7-2.7-5.3-4-8-6.7
			s-5.3-9.7-5.3-14.7s1.8-11.2,5.3-14.7c3.5-3.5,9.7-5.3,14.7-5.3s11.2,1.8,14.7,5.3C177.2-1589.3,179-1578.1,179-1578.1"/>
	</g>
</g>
</svg>
