<?xml version="1.0" encoding="utf-8"?>
<!-- Generator: Adobe Illustrator 24.1.2, SVG Export Plug-In . SVG Version: 6.00 Build 0)  -->
<svg version="1.1" id="Слой_1" xmlns="http://www.w3.org/2000/svg" xmlns:xlink="http://www.w3.org/1999/xlink" x="0px" y="0px"
	 viewBox="0 0 359 539" style="enable-background:new 0 0 359 539;" xml:space="preserve">
<style type="text/css">
	.st0{fill:#FFFFFF;stroke:#000000;}
	.st1{fill:#FF5555;}
	.st2{fill:#FFFFFF;}
</style>
<g id="g3101" transform="translate(30,87.637817)">
	<path id="rect6472" class="st0" d="M-0.6-87.6h299.1c16.5,0,29.9,13.4,29.9,29.9v479.1c0,16.5-13.4,29.9-29.9,29.9H-0.6
		c-16.5,0-29.9-13.4-29.9-29.9V-57.7C-30.5-74.2-17.1-87.6-0.6-87.6z"/>
	<g id="g9607" transform="matrix(1.0359193,0,0,0.99755171,-3.2832884,-0.36335616)">
		<path id="path8973" class="st1" d="M219.4,400.4c-7.2-2.8-15.9-6.8-21-10c1.1,4,1.5,4.4,2.3,7.5c-2.1-1.3-7.3-2.9-11.1-4.2
			c-1.9-0.7-1.3-0.5-5.7-1.9c2.3,5.5,3.7,10.7,4.7,14c-3.8-1.9-13.4-5.9-17.2-7.7c-3.8-1.8-8.7-4-12.6-5.6c0.7,2.3,1,3,1.4,4.5
			c0.4,1.4,1,3.7,1.2,4.3c-0.5-0.1-2.9-0.9-4.5-1.1c-3.9-0.6-7.5-1.3-11.9-0.8c-4.4,0.5-8.8,1.5-13,2.8c0.3-3.5,2.5-6.5,2.8-9.7
			c-4.9,1.6-14,5.2-18.7,7.3c-4.7,2.1-9.2,4.5-13.6,7.3c0.7-2.8,2-5.4,3.5-7.9c1.5-2.5,3.1-4.9,4.6-7.4c-3.7,0.4-6.8,1.3-10.1,2.5
			c-3.4,1.2-7.5,3.4-9.7,4.6c0.5-1.9,0.2-2.5,1.4-6c-2.7,1-2.1,0.6-5.5,2.5c-3.5,1.9-6.5,3.5-9.9,4.9c-4.6,1.8-9.3,3.3-14,4.5
			c-4.7,1.2-12,2.7-17,2.6c2-4.6,1.8-6.9,2.4-9.4c-3.9,1.9-8.7,4.5-12.7,6.2c-4,1.7-8.8,3-13.2,3.5c0.5-3.2,0.8-5.7,1.6-8.4
			c0.8-3,2.8-6,3.2-8.7c-0.8-0.2-1.4-0.2-2.3-0.2c-0.9,0.1-2.1,0.3-3.9,0.9c0.4-1.7,1.2-4,2.2-6.4c1-2.4,2.1-5,3-7.2
			c0.6-1.4,1.2-2.5,1.8-3.7s1.3-2.5,1.9-4.3c-2,0.1-3.1-0.1-4.1-0.2c-1-0.1-2.1-0.1-4,0.4c1-1.4,2.2-3.1,3.4-5
			c1.2-1.8,2.5-3.8,3.7-5.5c0.6-0.9,2.4-2.9,4.4-4.9c1.9-2,4-4.1,5-5.1c0.3-0.3-0.4-0.4-1.4-0.6c-1-0.2-2.4-0.4-3.5-0.6
			c0,0,0.7-1,1.4-2.2c2.2-4.5,5.7-8.3,8.9-11.2c2.5-2.3,5.1-4.4,7.4-6.8c-1.4-0.5-4-1-5.2-1.2c1-1.4,2.1-3.1,3.4-4.6
			c1.4-1.7,2.5-2.5,4.6-4.6s7.1-4.3,5.8-7.2c-0.8-1.7-3.4-1.5-5.4,0.1c-2,1.6-3.5,3.3-5,5.2c-1.2,1.5-2.5,3.1-3.1,5
			c-1.8-1.1-1.5-1.4-2.8-1.8c-1.4,2.6-2.2,8.7-3.4,13c-0.4,1.6-0.8,3.1-1.4,4.9c-0.9-0.6-2.4-0.7-4.3-1.9c-1.7,3.4-2.6,7.2-3.8,10.9
			s-2.5,7.3-5.1,10.3c-2.2-3.3-3.1-7.3-3.6-11.4s-0.5-8.3-0.8-12.1c-1.3,0.5-1.9,0.9-2.4,1.2s-0.8,0.6-1.7,1c0-0.8,0.4-2.5,0.7-4.2
			s0.8-3.2,1.3-4.7c0.5-1.6,0.8-2.5,1.9-4.8c1.1-2.3,2.3-4.6,2.8-5.8c-1.1-0.2-1.3-0.2-1.6-0.2c-0.3,0-0.6,0-1.7-0.2
			c0.7-2.4,2.1-4.8,3.9-7.1s3.9-4.5,5.9-6.2c2.7-2.3,5.7-4.2,8.9-5.8c3.2-1.6,6.5-2.9,9.8-4.1c-2.3-1.6-2.1-2.4-4.6-4.2
			c1.3-1,3.8-2,6.9-3.1c-2.5-1.5-3.4-2.5-8.7-5.5c-5.5-3.1-12.9-5-14.5-5.8c1.1-0.5,2.8-1.4,4.4-2.4s3.2-2.3,4.4-3.4
			c-2.3-1.9-5.3-3.7-8.4-5.4s-6.5-3.5-9.5-5.2c5.2-2.6,11.3-4.5,17.5-5.5c6.2-1,12.5-1,18.2,0.1c-1-1.7-1.4-2.4-1.8-3.1
			s-0.5-1.4-1-3c1.7,0.5,3.7,0.8,5.7,1.3s4.1,1.1,5.8,2.1c4.7,2.6,9.2,5.5,13.4,8.9c4.1,3.5,7.9,7.6,11.1,12.8
			c1.4-3.7,2.2-5.3,4.3-7.8c1.5,2.8,4.2,7.5,5.4,10.4s2.2,5.9,3.1,8.9c3.6-1.4,5.3-2.9,6-4.5s0.4-3.5-0.1-5.6
			c3.2,0.7,5.6,1.9,8.1,2.7c2.5,0.9,5.2,1.5,7.7,1c2.3-0.4,3.8-1.5,6.1-3.3c-1.1-0.7-3.6-1.4-6.1-2.1c-2.5-0.7-2.7-0.8-5.7-2
			c2.4-2.4,4.8-3.4,7.4-4.5c2-0.8,4.4-1.4,6.7-1.8c2.3-0.4,4.5-0.7,6.2-0.9c1.6-2.9,3-6,4.7-8.7c1.7-2.6,3.6-4.8,6.3-5.9
			c2.6,0.9,4.6,3.2,6.1,5.9c1.6,2.7,2.8,5.8,3.9,8.1c2.7,0.7,6.5,1.2,10.2,2c3.7,0.8,7.2,2,9.4,3.9c-1.9,1.4-3.8,2.3-5.9,3.1
			c-2.7,1-5.6,1.5-8.3,2.2c0.9,0.6,3.9,3,6.2,3.3c3.4,0.4,7.1-1.1,10-2.3s4.2-2,7-2.3c-1.7,2.9-3.4,4.4-2.4,6.1
			c1.1,2,3.9,2.9,5.9,3.5c-0.5-2.2-0.9-3-0.6-4.8c0.3-1.7,0.5-3.4,1.1-5c0.7-2,1.5-3.7,2.7-5.8c1.2-2.1,2.5-4.2,3.8-5.3
			c1.2,1.9,1.9,3.3,2.5,4.7s1.2,3,2.1,5.2c1.8-4.3,4.1-8.1,6.9-11.2c2.7-3.2,5.9-5.8,9.2-7.8c3.3-2.1,6.9-3.6,10.4-4.7
			c3.5-1.1,7-1.7,10.4-1.9c-0.4,0.8-0.6,1.5-0.8,2.2c-0.2,0.8-0.3,1.6-0.4,2.6c0.7,0.3,2.9,0,5.5-0.2c2.6-0.2,5.5-0.4,7.7,0
			c3.4,0.6,6.8,1.4,10.1,2.5c3.3,1.1,6.4,2.7,9.2,4.7c1.4,1,2.7,2.1,3.8,3.4c1.1,1.3,2,2.8,2.7,4.6c-1.7,0.2-3.9,0.6-6.2,1.1
			c-2.3,0.6-4.8,1.3-6.9,2c-0.9,0.3-1.8,0.7-2.7,1c-0.9,0.4-1.7,0.8-2.6,1.3c0.6,0.7,1.2,1.4,1.8,2.1s1.3,1.5,1.9,2.2
			c0.6,0.6,1.3,1.3,1.9,1.9c0.6,0.6,1.2,1.3,1.6,1.8c-1.2,0.7-3.3,1.3-5.7,1.9c-2.3,0.6-4.8,1.2-6.9,1.9c-2.2,0.7-4,0.9-6,1.4
			c-2,0.5-4.2,1.2-7.1,3c2,0.9,3.7,1.8,5.4,3.3c-1.1,1.2-2.3,2.5-3.4,3.5c4.4,1.6,8.5,2.7,11.3,3.9c2.8,1.2,5.2,2.4,7.9,4.4
			c2.7,2,5.7,4.6,8.2,7.3s4.5,5.5,5.4,7.9c-1.3,0-2.5,0.3-3.5,0.8c1.7,3.5,2.9,5.6,3.8,8.7c1,3.5,1.6,8.9,1.4,11
			c-2.6-1.7-2.9-1.3-4.8-1.7c0.1,2.9,0.1,5.2,0,7.8c-0.1,2.8-0.3,5.4-0.7,8.3c-0.4,3-1.2,5.9-2.4,8.6c-2.9-3.6-4.7-7.9-6-12.4
			c-1.3-4.5-2.3-9.1-3.6-13.5c-1,0.7-1.8,1.8-2.4,2.4c-0.5-0.8-1.5-2.6-2.4-4.5c-0.9-1.9-1.7-3.9-2.1-5.1c-0.3-1.2-0.7-3-1.1-4.7
			s-0.9-4.6-1.1-5.3c-0.6,1-1,2.4-1.4,3.4c-0.6-1.4-1.7-3.6-3.1-5.8c-1.5-2.2-3.1-4.4-5.4-5.5c-1.3-0.6-3.2-1.3-4.3-0.4
			c-1.1,0.9-0.9,2.9-0.6,4.3c0.6,2.3,2.2,4.1,4.2,5.7s5.2,5.5,6.5,7.5c-1.1,0.9-2.2,1.1-3.8,1.8c2,2,3.2,2.8,4.8,4.3
			c2.5,2.3,4.9,4.8,7.3,7.2s5.7,6.4,7,9.6c-1.9,1-3.9,0.3-5.7,1.1c2.2,2.4,7.9,7.5,11.3,11.8c1.3,1.7,2.4,4,3.3,5.4
			c-1.1,0.5-4.4,0.1-5.1,0.6c1.7,3.4,3.2,6.9,4.4,10.5c1.2,3.6,2.1,7.2,2.6,11c-1.7,0.4-3.6-0.1-4.6,0.1c1.8,7.1,3,12.2,4.1,19
			c-7.7-2.6-10.7-3.7-16-5.8c-4.1-1.6-8.5-4.1-12.2-5.3c0.8,4.4,2,8.7,3.7,12.7C232.4,403.9,227.9,403.7,219.4,400.4L219.4,400.4z"
			/>
		<path id="path8971" class="st2" d="M240.3,403.7c-0.1-2.5-3.5-12.8-3.8-15.7c5.3,2.1,11.7,6,17.7,8.5c3.5,1.4,6.8,2.9,10.8,3.6
			c-0.2-3.4-1.1-6.6-2.3-9.6c-1.2-3-2.8-6-4.4-8.9c4.5,1.2,3.8,1,8.5,1.6c-1.3-3-3.1-9.6-4.4-12.6s-3-5.7-5.3-8.1
			c1.4-1,4.3-0.2,5.4-0.3c-0.2-1.8-1.6-3.1-2.7-4.5c-1.9-2.3-4.1-4.3-6.5-6.1c-2.4-1.8-4.8-3.7-5.9-6.1c3.4-0.1,4.6-0.2,7.8-0.6
			c-1.8-3.3-4.9-5.9-7.5-8.6c-2-2-4-3.9-6.2-5.5c-2.2-1.6-4.5-3.2-6.6-5.1c3.4-1.1,3-1.6,5.3-2.5c-1.6-2-6.9-6.7-8-8.8
			c-1.5-1.9-2.6-4.1-2.7-6.3c-0.1-2.1,1.3-4.6,3.2-5.4c2.6-1,5.8,0.8,8,2.6c2.2,1.8,4.1,4.2,6,6.3c1.3-1.4,1.7-2,2.4-3.4
			c0.7,1.2,2.2,6.1,2.6,9.2c0.6,4.2,3,9.4,4.2,12c1.1-0.7,2.9-2.7,4-3.2c0.2,3.9,1.2,9.5,2.2,13.1c1,3.6,3,8.6,4.1,12.1
			c1.8-5.4,1.4-9.8,1.5-14.7c0.1-2.8-0.4-6.4-0.5-8.4c2.7,0.8,3.1,0.4,5,0.9c-0.7-3-1-3.9-2-6.1c-2-4.4-5.6-9.8-6.6-11.7
			c1.5-0.2,2.1-0.1,2.6-0.1c0.5,0,0.9,0,2-0.3c-2.8-2.9-6.5-5.9-10.7-8.7c-4.2-2.8-8.7-5.2-13.1-7c-2.2-0.9-4.5-1.4-6.8-1.7
			s-4.7-0.6-7-1.1c1.4-1.1,2.4-1.9,3.1-2.6s1.6-1.6,2.4-2.2c-0.8-0.7-2.6-1.5-3.9-2.1c-1.4-0.6-3.3-1.7-4.5-2.5
			c1.1-0.6,3.2-1.5,5.7-2.3c2.4-0.8,5.1-1.7,7.4-2.3c2.7-0.8,4.8-1.3,7.2-1.8s5.2-1,9-1.8c-0.9-1.3-2.3-2.5-3.9-3.7
			c-1.6-1.2-3.2-2.4-4.5-3.7c2.1-1.6,5.6-2.5,9.4-3.3c3.8-0.8,7.8-1.6,10.8-2.8c-1-1.6-3.1-3.5-5.6-5.1c-2.5-1.6-5.3-3.1-7.8-3.9
			c-2.8-0.9-5.8-1.2-8.8-1.2s-6,0.3-9,0.5c-1.3,0-2.6,0.4-4.1,0.9c-1.4,0.4-2.9,0.9-4.5,1.1c1.1-1.7,1.4-2.7,1.6-3.6
			c0.2-0.9,0.2-1.6,0.7-2.7c-1.2,0.3-3.2,0.7-5.3,1.4c-2.1,0.7-4.3,1.5-6,2.6c-3,1.9-5.8,4.3-8.3,6.9c-2.5,2.6-4.8,5.5-6.5,8.6
			c-1.6,2.3-2.3,4.8-2.7,7.4c-0.4,2.6-0.4,5.3-0.6,8c-0.8-2.9-1.7-5.8-2.6-8.6c-0.9-2.9-1.8-5.7-2.7-8.6c-1.6,2-2.7,3.9-3.4,5.7
			c-1.5,3.9-1.5,8.8-1.5,11.6c-1.4,0.2-4.1-1.5-6-2.4c-1.3-0.6-3-0.8-3.9-2c-0.7-0.9-1.6-1.8-0.8-3.4c-3.4,1.4-6.6,2.2-9.7,2.2
			c-3.1,0-6.4-1.4-9.3-2.9c-1.6-0.8-3.4-2.1-4.4-3.3c0.7,0.1,3.6-0.7,6.7-1.5s6.3-1.9,7.5-2.3c-1.2-1.4-2.6-1.7-4.1-2.3
			c-2-0.8-4.1-1.5-6.2-1.7s-4-0.1-5.8-0.4c-0.4-2.4-1.7-5.6-3.2-8.3c-1.5-2.8-3.3-5.1-5-5.9c-2.1,1-3.7,3.3-5.2,6
			c-1.5,2.7-2.8,5.8-4.3,8.3c-2.9,0.9-6,1.3-9.1,1.8c-3.1,0.6-6.2,1.3-8.8,2.9c1.7,1.2,4.6,1.7,7.2,2.3c2.6,0.5,5,1.1,5.9,2.1
			c-2.8,1.5-5.7,3.6-8.8,5c-3.1,1.4-5.6,1.4-8.5,1.3c-2-0.1-3.6-0.9-5.9-1.4c-0.1,1.8-0.9,2.5-1.7,3.5c-1.4,1.6-2.8,2.2-5.2,3.6
			s-2.6,2-4.5,3c-0.4-2.5-2.4-9.2-3.5-11.6c-1.1-2.4-2.4-4.7-4-6.5c-0.7,3-1.2,6-1.4,9.1c-0.2,3-0.3,6.1-0.1,9.2l-1.9-1
			c0.1-7.1-2.9-13.6-7-19.1c-4.1-5.5-9.2-10-13.5-13c-0.9-0.8-2.2-1.5-3.8-2.1c-1.5-0.6-3.3-1.1-5.1-1.6c0.1,0.4,0.8,1.6,1.6,2.9
			c0.7,1.3,1.5,2.8,1.8,3.7c-1.3-0.4-3.8-1.2-6.2-1.9s-4.7-1.2-5.7-1.2c-3.4,0.1-5.8,0-7.9-0.1c-2.1,0-3.9,0.1-6.3,0.4
			c-1.8,0.3-3.6,0.5-5.3,1c-1.7,0.5-3.5,1.1-5.2,2.2c2.7,1.3,6.1,3.2,9.6,5.1c3.5,1.9,6.9,3.8,9.6,5.1c-0.7,1-2.2,1.8-3.9,2.7
			s-3.4,1.7-4.6,2.5c3.7,2.5,9.9,4.3,14.7,6.7c4.2,2.1,9.7,4.5,12.4,6.8c-2.5,0.7-6.9,2.2-8.6,2.9c1.4,1.3,2.9,2.5,4.3,3.2
			c-2.1,0.9-3.1,1-4.7,1.3c-1.7,0.4-3.4,0.4-5,0.9c-2.4,0.7-4.6,1.8-6.9,2.8c-2.2,1.1-4.4,2.2-6.5,3.6c-2.2,1.5-4.3,3.1-6.2,5
			c-1.9,1.9-3.8,4.4-4.9,6.4c1.2-0.1,1.6,0,2.7,0.1c-0.9,1.7-2.2,4.4-3.2,6.6c-0.8,1.6-1.7,3.2-2.3,5c-0.6,1.5-1.1,3-1.2,4.7
			c2.3-1.2,1.6-0.7,3.1-1.5c0,1.7-0.4,5.7-0.5,8.5c-0.1,2.6-0.1,5.2,0,7.7c0.1,2.6,0.7,5,2.3,7.2c1.7-3.3,2.6-6.9,3.4-10.6
			c0.8-3.6,1.6-7.3,3-10.7c2,1.6,3.1,2.1,5.3,3.4c0.6-3,1.2-7.7,2.4-11.4c0.8-2.6,2.4-5.4,3.3-7.4c1.1,0,2.3,1,3.6,1.2
			c1.9-1.9,3.8-4.4,6-6.3s5.3-3.8,7.8-2.6c1.6,0.7,2.2,3.1,2.1,4.9c-0.2,1.8-1.8,3.2-3.1,4.5c-1.3,1.5-2.6,2.1-4.6,3.8
			c-2,1.7-2.5,2.6-4.2,4.4c4.3,0.8,4.3,1.7,6.4,2.3c-2.1,1.7-5.9,5.1-8.8,7.8c-1.8,1.7-3.9,3.1-5.5,5.1c-1.5,2-2.7,4.2-3.6,6.5
			l5,1.5c-0.2,0.5-6.8,5.9-10.4,10.1c-2.4,2.7-4.6,6.3-6.8,9.2c1.6,0.1,2.6,0,3.9,0c1.5-0.1,2.8-0.4,4.4-0.4
			c-0.7,2.2-1.8,4.6-2.9,6.8c-1.2,2.4-2.7,4.7-3.9,7.1c-0.9,1.9-1.9,4.3-2.5,5.8c2.5,0.8,4.5-0.2,8.1-0.4c-0.8,2.4-3,6.9-3.8,9.2
			c-1.3,2.3-2.4,6.4-2.2,7.8c6.1-1.7,12.4-4.4,18.5-8.3c4.1-2.7,6.7-4.3,11.2-6.3c-0.7,2.9-1.8,4.8-2.5,7.3
			c-0.7,2.6-1.1,4.4-1.9,7.8c4.5,0.2,8.9-0.7,13.2-1.9c4.3-1.3,8.6-2.5,12.7-4.3c2.8-1.3,5.5-2.9,8.2-4.5c2.6-1.6,5-3.7,7.1-6
			c2-2.2,3.7-4.7,5.4-7.2c1.3-1.9,1.6-2.6,3.6-5.9l0.7-0.1c-1.6,3.4-2.5,6.7-3.7,10.2c-1,3-2,5-2.7,8.1c2.5-0.3,5.2-1.5,9.8-2.9
			s8.6-1.5,11.7-1.8c-1.7,1.9-4.3,8.7-4.6,10.4c1.9-1.3,4.6-2.3,7-3.3c3-1.3,5.7-2.1,9.1-3.5c3.4-1.3,8.2-2.5,11.8-2.7
			c-1.1,1.7-1.4,3-1.9,4.5c-0.4,1.1-0.5,2-0.8,3.3c0.7-0.2,2.6-1,4-1.2c1-0.2,2-0.2,3-0.2c1.2,0,2.3-0.1,3.5,0
			c1.1,0.1,2.1,0.3,3.2,0.5c-0.4-1.4-1.1-2.8-1.6-4.3c-0.3-0.9-0.6-1.5-0.8-2.8c0.6,0,2.3,0.2,3.4,0.4c2.2,0.4,5.4,1.7,6.4,1.9
			c3.3,1.2,6.5,2.5,9.7,3.9c3.2,1.4,8.4,3.8,11.6,5.2c-0.7-2.1-1.6-3.5-2.5-4.9s-2.2-5.2-2.5-6.5c11.1,2,12.2,3.2,17.7,5.2
			c-2.1-7.7-5.3-16-7.8-22.3l1.2,0.5c1.2,2.5,3,5.8,4.6,8s3.6,4.1,5.6,5.9c3.9,3.4,8,6.4,12.5,8.9c4.5,2.6,9.4,4.4,14.2,6.2
			C230.1,401,233.4,401.7,240.3,403.7L240.3,403.7z"/>
		<path id="path8969" class="st1" d="M223.4,390.4c-2.5-2.2-2.9-2.7-7.3-7l1.2-0.6c0,0,6.2,5.4,9.3,8.1c3.2,2.9,9.5,8.8,9.5,8.8
			l-0.4,0.7C231.6,397.3,227.4,393.9,223.4,390.4L223.4,390.4z"/>
		<path id="path8967" class="st1" d="M31.9,397.4c0.6-1.6,1.5-3,2.4-4.5c1.5-2.7,3-5.5,4.7-8.1c0.8-1.1,1.8-2.4,2.5-3.2l0.9,0.6
			c-1.9,3.7-4.3,7.5-6.7,11.1c-1,1.5-2.6,3.2-3.2,4.4L31.9,397.4z"/>
		<path id="path8965" class="st1" d="M59.6,395.3c1.6-1.5,3.2-2.3,4.9-3.7c3.4-2.6,6.9-5.1,10.4-7.7c0.3,0.3,0.7,0.6,1,1
			c-1,1.1-3.4,2.9-5.2,4.2c-2.9,2.1-5.2,3.9-8.9,5.9c-1,0.5-2,1-3,1.5C59,396.3,59.5,395.5,59.6,395.3L59.6,395.3z"/>
		<path id="path8963" class="st1" d="M259.8,394.9c-1.5-2.3-3.9-5.2-6-7.7c-1.2-1.4-3.6-4.2-3.6-4.2c0.3-0.3,0.5-0.5,0.8-0.8
			c0,0,2.2,2.2,3.2,3.4c2.6,3.1,5.6,7.2,7,9.8L259.8,394.9z"/>
		<path id="path8961" class="st1" d="M58.5,328.2c1.5-3.9,3.2-8,5.8-11.3c3.3-4.2,7.3-7.3,11.9-10.4c0.3,3.8-0.2,7.8-0.4,11.4
			c-0.2,3.7,0,7.5,0,11.2c2.1-2.2,4.1-4.5,6.2-6.7c1.6,1.6,3.2,3.1,4.5,5c1.7,2.5,3,5.3,3.9,8.1c1.1,3.6,1.3,8,1.9,11.2
			c-1-0.1-1.3-0.1-2.3-0.2c3.5,8.1,6.9,17.2,8.2,26.1c-2.8-0.2-5.2-1.7-7.8-2.7c-1.8,6.4-1.5,7.5-3.3,13.9c-1.1,2.4-2.2,4.8-3.3,7.1
			c-1.1-2.7-3-5.6-4.4-8.4c-2.1-4.2-3.8-7.1-6-12.6c-1.7,0.4-1.9,0.6-2.7,1c-1,0.5-2,1.1-2.9,1.9c-0.9-1.6-1.1-2.6-1.5-3.9
			c-1-3.7-1.7-7.5-2.1-11.3c-0.3-3-0.3-6.1-0.2-9.1c0-1.9,0.3-3.8,0.4-5.7c-2.6-0.1-5.3,0.1-8.5,0C56.2,337.3,56.8,332.6,58.5,328.2
			L58.5,328.2z"/>
		<path id="path8959" class="st2" d="M73.6,312c-2.6,1.4-3.7,2.9-5.2,4.7c-2.6,3-5.1,6.3-6.7,10c-1.8,4.3-2.8,8.8-3.2,13.6
			c2.4-0.2,6.8-0.8,8.7-1.1c-0.3,1.3-1.1,3.7-1.3,5.6c-0.4,3.2-0.3,6.4,0,9.6c0.4,4.8,1.1,9.6,2.3,14.3c2.4-1.7,3.4-2.4,5.9-3.4
			c2.3,6.6,3.9,9.4,5.8,13.2l3.7,7.1c1.2-2.9,1.6-4.9,2.2-7.4c0.9-4,1-7.2,2-12c2.2,0.5,4.8,1.9,6.9,2.8c0.2-1-0.3-2.2-0.6-3.3
			c-1.6-6-4.4-11.7-6.6-17.5c-0.7-1.9-1.3-3.2-2-5.8c1.4,0.5,2.3,0.6,3.5,0.9c-0.4-2.5-0.3-5.2-1.1-7.6c-1.2-3.3-3.3-6.3-5.5-8.8
			c-1.3,1.2-2.6,2.2-4,3.3c-1.7,1.3-2.2,2.1-5.3,3.6C73,326.1,73.3,319.1,73.6,312L73.6,312z"/>
		<path id="path8957" class="st1" d="M75.3,359.2c-1.7-2.8-3.7-5.6-4.5-8.8c-0.4-1.6-0.4-3.3-0.1-4.9c0.2-1.2,0.6-2.4,1.1-3.6
			c0.6-1.2,1.2-2.7,2.4-3.3c1-0.6,2.3-0.6,3.4-0.2c1.3,0.4,2.2,1.6,3.1,2.6c0.7,0.9,1.5,1.8,1.8,2.9c0.9,3.7-0.5,7.6-0.7,11.4
			c-0.2,3.8,0,7.5-0.3,11.3c-0.9-0.9-1.6-1.3-2.3-2.1C77.7,362.8,76.5,361.1,75.3,359.2z"/>
		<path id="path8955" class="st2" d="M79.7,353.5c0.2-1.6,0.6-3.2,0.6-4.8c0-1.9,0.2-3.9-0.6-5.6c-0.5-1.2-1.5-2.3-2.7-2.8
			c-0.6-0.3-1.4-0.3-2,0c-1.1,0.6-1.8,1.8-2.2,3c-0.7,2.3-0.6,4.9,0,7.2c0.7,2.8,2.7,5.1,4.3,7.6c0.6,0.9,1.5,2.1,2,2.7
			c0.1-0.8,0-2.4,0.1-3.7C79.4,356,79.6,354.7,79.7,353.5z"/>
		<path id="path8953" class="st1" d="M75.4,351.1c-0.4-0.9-0.9-1.8-1.1-2.7c-0.2-1.3-0.6-2.7,0-3.9c0.4-0.8,1.2-1.7,2.1-1.7
			c0.8,0,1.5,0.9,1.9,1.6c0.6,1.1,0.8,2.4,0.8,3.7c0,1.1-0.5,2.1-0.8,3.1c-0.3,1.1-0.5,2.3-0.7,3.4c-0.4-0.6-0.8-1.1-1.2-1.7
			C76.1,352.4,75.7,351.8,75.4,351.1z"/>
		<path id="path8951" class="st1" d="M67.7,355.9c-0.3-2.6-0.2-5.2,0-7.8c0.2-1.7,0.3-3.7,0.9-5.2l1.1,0.2c-0.5,1.2-0.5,2.6-0.6,3.9
			c-0.2,2.5-0.4,5-0.3,7.5c0.2,3.1,0.6,6.2,1.5,9.2l-1,0.6C68.7,361.3,68,358.8,67.7,355.9L67.7,355.9z"/>
		<path id="path8947" class="st1" d="M86.6,357.4c-0.6-1.2-1.8-3.5-1.8-3.5l0.8,0c0.5,0.7,1.3,1.8,1.9,2.7c0.6,0.9,1.6,2.7,1.6,2.7
			c-0.2,0.5-0.4,1.1-0.6,1.6C88.5,360.9,87.2,358.6,86.6,357.4z"/>
		<path id="path8945" class="st1" d="M83.5,334.9l-1.4-4.1l0.8,0.3l0.8,0.3l0.5,1.6c0.3,0.9,0.8,2.6,1.2,3.8L86,339h-0.5h-0.5
			L83.5,334.9z"/>
		<path id="path8943" class="st1" d="M64,328.4c1.2-3,3-6.6,4.8-8.6l1.3,0.5c-1.1,1.2-1.8,2.9-2.7,4.4c-0.9,1.5-1.9,4.2-2.8,7
			l-1.7,5.2l-1.4,0.4C62.4,333.9,62.8,331.3,64,328.4z"/>
		<path id="path8941" class="st1" d="M244.4,388.1c-3.5-2.9-6.3-6.8-8.9-10.6c-1.2-1.8-2.5-3.7-3.1-5.9c-0.8-2.8-1-5.9-0.5-8.8
			c0.7-4,2.4-7.8,4.5-11.1c0.8-1.2,2.3-3.2,2.9-3.1c-0.5,1.8-0.4,3.1-0.2,4.6c0.3,2.1,1,4.2,1.9,6.2c1.2,2.9,2.6,5.7,4.5,8.2
			c1.6,2.1,3.6,4,5.7,5.5c2.1,1.5,4.7,2.1,7,3.2c-0.4,0.4-3.5,1.2-5.3,1.6c-2.2,0.4-3.2,0.3-6.7,0.8c0.5,3.6,0.4,7.3,0.7,10.9
			C246,389.6,245.2,388.8,244.4,388.1L244.4,388.1z"/>
		<path id="path8939" class="st2" d="M242.2,375.1c1.6-0.2,3.2-0.5,4.7-0.7c-1.3-1.5-2.6-3-3.7-4.6c-2.1-3.1-4.4-6.3-5.6-9.9
			c-0.4-1.4-0.5-3.4-0.5-4.3c-1.2,1.2-2.3,5-2.5,6.5c-0.3,3-0.3,6.1,0.6,9c0.5,1.8,1.7,3.3,2.7,4.8c1.4,2,3.3,4.3,4.7,5.7
			C242.4,378.9,242.6,378.9,242.2,375.1L242.2,375.1z"/>
		<path id="path8937" class="st1" d="M43.1,388.8c0.8-3,2.8-6.8,3.3-9.9c-2.8-0.3-6.3-1.2-9.1-2.3c1.8-0.7,3.4-1.4,5-2.5
			c2.8-1.9,5.6-4,7.6-6.7c1.6-2.1,2.6-4.7,3.2-7.2c0.9-3.8,0.4-7.8,0.6-11.7c1.3,1.3,1.8,2,2.5,3c2.1,4.3,4.2,8.8,5,13.5
			c0.5,2.8,0.5,5.8,0,8.6c-0.5,2.4-1.4,4.7-2.7,6.8c-1.3,2.2-3,4.3-5,5.8c-1.8,1.4-3.9,2.4-6,2.8C46,389.2,44.5,389.1,43.1,388.8
			L43.1,388.8z"/>
		<path id="path8935" class="st2" d="M54.5,381.8c1.9-1.8,3.4-4.1,4.2-6.5c1.1-3.3,1.1-7,0.5-10.4c-0.4-2.8-2.5-6.5-3.1-7.9
			c0.3,3.2-1,6.7-2.4,9.6c-1.7,3.4-5.8,7.1-7.2,8.9c1.7,0,3.8,0.1,4.5-0.1c-0.9,2.5-3.2,7.9-3.9,10.4
			C50.2,385.4,52.4,383.7,54.5,381.8z"/>
		<path id="path8933" class="st1" d="M125.5,382.9h-6l5.6-5.5v-4l7.1,1.7l4.3-1.5l-1.1,6l3.9,4L131,383l-3.8,3.5L125.5,382.9z"/>
		<path id="path8931" class="st1" d="M186.2,382.4c-1.6-2.2-5.2-6.1-7.9-8.8l-4.9-4.9c0.6,0,0.6,0.1,1.2,0.1l4.6,3.8
			c2.4,1.9,5.5,6,7.3,8.5l3.3,4.6c-0.2,0.2-0.5,0.5-0.7,0.7L186.2,382.4z"/>
		<path id="path8929" class="st1" d="M160.5,383.7l-0.8-1.4l-6.9,0.8l3.2-4.7l-1.5-3.7l7.1,0l6.6-4.1l-1,7.4l3,4.3l-6.5,0.5
			l-2.5,2.1L160.5,383.7L160.5,383.7z"/>
		<path id="path8927" class="st1" d="M204.4,376.8c-0.9-3.1-0.8-4.6-0.9-9.6c-1.1-0.1-3.1,0.7-4.6,1.2c-1.2,0.4-1.6,1-3.6,1.6
			c1.2-5.2,2.7-11.3,4.9-16.6c1.4-3.6,3.9-7.9,5.2-10.2c-1.2,0.2-2.4,0.6-3.7,1.3c0.3-3.2,0.1-7.9,1.2-11.6c1.5-4.9,4.7-9.2,7-13.7
			c2.3,1.5,2.7,2.2,3.9,3.2c1.8-3.7,2.5-6.1,3.7-9.2c0.7-1.8,1.2-3.5,2-5.3c2.3,2.3,5.5,5,7.7,8c2.4,3.3,4.1,7.1,5.5,10.9
			c1.9,5.1,2.5,10.6,2.9,16c-1.1,0.2-2.2,0.3-3.3,0.5c-1,8.1-1.2,16.6-5,24c-0.9,2-1.9,4-2.9,6.1c-1.7-1.7-3-3.2-4.1-4.4
			c-1.1,1.2-2.9,4.1-4.5,6.1c-2.5,2.9-3.9,4.5-8.1,8.3C205.7,380.2,205.1,379.2,204.4,376.8L204.4,376.8z"/>
		<path id="path8925" class="st2" d="M213,375.1c2.8-3.3,4.8-7.2,6.9-11.1c1.8,1,3.1,1.7,4.5,2.8c0.9-1.5,1.9-3,2.6-4.7
			c1.2-3.1,2-6.3,2.5-9.6c0.7-4.6,0.4-9.2,0.6-13.9c1,0.1,2,0.2,2.9,0.3c-0.9-4.2-1.3-8.6-3-12.5c-2.2-5.1-5.3-9.9-9.3-13.9
			c-1,3.1-1.5,4.6-2.3,6.8c-1.3,3.3-2.2,5.1-4.1,9.7c-1.3-1.3-2.6-2.4-3.8-3.6c-1.8,2-3,3.4-4,5.4c-0.6,1.3-1,2.7-1.3,4.1
			c-0.4,2-0.2,3.7-0.4,6.1c2.3-0.3,3.8-0.8,5.5-1.1c-1.4,3.3-3.7,6.8-5.2,10.1c-2.8,4-4.8,9.8-5.9,14.5c1.8-0.3,6.1-1.2,7.5-2.1
			c-0.5,3.2-1.1,5.6-0.7,8.4c0.3,2.8,1.3,5.3,2.5,8C210.3,378,211.7,376.6,213,375.1L213,375.1z"/>
		<path id="path8923" class="st1" d="M223.3,360.4c1-3.8,1.9-7.7,2.4-11.6c0.4-3,0.7-6.1,0.8-9.1c0.7,0,0.5,0,1.2,0
			c0.1,5-0.5,10.6-1.4,15.7c-0.3,1.8-0.7,3.6-1.4,5.4c-0.2,0.4-0.4,0.8-0.6,1.2c-0.5,0-1,0-1.5,0C223,361.5,223.2,361,223.3,360.4
			L223.3,360.4z"/>
		<path id="path8921" class="st1" d="M202.7,360.9L202,360c2.4-6.1,3.6-8.1,7.7-13.3l0.7,0.9C206.6,352.6,205.6,354.6,202.7,360.9
			L202.7,360.9z"/>
		<path id="path8919" class="st1" d="M213.5,354.7c0.1-4.4-1.4-9-0.4-13.3c0.5-2.1,1.4-4.4,3-5.7c1-0.8,2.3-1,3.5-1
			c1.2,0,2.5,0.3,3.4,1c0.8,0.7,1.3,1.8,1.6,2.9c0.6,2.2,0.4,4.6-0.1,6.8c-0.4,1.8-1.2,3.5-2.2,5c-2,3-4.9,5.3-7.6,7.7
			c-0.5,0.4-1.5,1.7-1.6,1.2C213.2,358,213.5,356.2,213.5,354.7L213.5,354.7z"/>
		<path id="path8917" class="st2" d="M219.9,349.5c0.6-0.9,1.3-1.8,1.7-2.8c0.7-2.2,1.7-4.7,0.9-6.8c-0.4-1-1.3-1.9-2.3-2.3
			c-0.8-0.3-1.8-0.4-2.6,0c-1.1,0.6-1.8,1.8-2.2,3c-1,3.4,0.3,7.2,0.5,10.7c0,1.1-0.1,2.6,0.1,3.4c0.6-0.5,1.5-1.7,2.2-2.6
			C218.7,351.3,219.3,350.4,219.9,349.5z"/>
		<path id="path8915" class="st1" d="M216.8,344.6c-0.3-1.7-0.7-4.1,0.6-5.2c0.9-0.8,2.7-0.5,3.5,0.4c0.8,0.9,0.4,2.5,0.1,3.6
			c-0.2,1.1-0.9,2-1.4,3c-0.7,1.2-1.3,2.4-2.2,3.3C217.4,347.9,217.1,346.3,216.8,344.6z"/>
		<path id="path8913" class="st1" d="M207.1,336.8c0-1.2,2.4-5.6,3.1-6.5l0.4,0.6c-1.1,2.3-1.7,4.4-2.4,6.7L207.1,336.8z"/>
		<path id="path8911" class="st1" d="M228.3,333.3c-0.3-1.1-1.8-4.6-3.4-7.8c-1.1-2.3-2.3-4.5-3.4-6.8h0.7h0.7l2.5,5.2
			c1.4,2.9,2.9,5.9,3.2,6.6l0.7,1.4l-0.3,1.6l-0.3,1.6L228.3,333.3z"/>
		<path id="path8909" class="st1" d="M103.9,385.6c1.8-2.3,5.2-6,7.9-8.9c2.4-2.6,7.4-7.6,7.4-7.6l1.1,0.6
			c-2.9,3.5-7.4,8.2-16.1,16.8L103.9,385.6z"/>
		<path id="path8907" class="st1" d="M29.8,381.8c0.9-2.1,2.1-4,3.2-5.9c2.2-3.9,4.4-7.8,7-11.5c0.5-0.8,1.1-1.5,1.8-2.2l0.7,0.7
			c-1.6,3.3-4.4,7.1-6.4,10.7c-0.8,1.4-1.4,2.8-2.2,4.2c-0.9,1.5-1.9,3-2.8,4.4L29.8,381.8z"/>
		<path id="path8905" class="st1" d="M261.9,378.1c-2.6-4.6-5.4-9.1-8.4-13.4c-0.7-1-1.4-1.9-2.1-2.8c0.3-0.3,0.5-0.5,0.8-0.8
			c1.6,1.8,3.6,4.5,5.2,6.9c2.3,3.5,3.9,6.8,6.1,11c-0.2,0.2-0.5,0.5-0.7,0.7C262.5,379.1,262.2,378.6,261.9,378.1z"/>
		<path id="path8903" class="st1" d="M127.8,371.4c-5.5-1.8-8.7-7.7-13.9-10.3c-4.6-2.3-10.5-1.5-14.8-4.3c-2.4-1.6-4.3-4.1-5.4-6.7
			c-1.1-2.9-0.4-6.1-0.7-9.2c-0.3-3.1-0.1-6.3-1.1-9.3c-1.3-3.9-4.7-6.9-6.3-10.7c-0.8-1.9-1.8-3.8-1.6-5.8c0.2-2.4,1.8-4.5,3.1-6.4
			c2.3-3.3,6.4-5.3,8.5-8.8c2.2-3.7,1.2-8.9,3.9-12.2c1.8-2.2,4.9-3.1,7.6-4.1c5.4-2,11.3-2,16.7-4c6-2.2,10.8-7.2,16.9-8.9
			c2.7-0.7,5.7-1,8.4-0.4c7.5,1.7,13,8.8,20.4,10.8c4.8,1.3,10.3-1.3,15,0.5c2.8,1.1,5.2,3.3,7,5.8c3.5,4.8,3.5,11.6,6.7,16.7
			c2,3.2,6.3,4.8,7.6,8.4c1.1,3.1,0.4,6.7-0.5,9.9c-1.1,4.1-4.8,7.2-5.8,11.4c-1.4,5.9,2.4,12.7,0,18.2c-1.3,3.1-4.4,5.2-7.3,6.9
			c-3.6,2.1-8.1,1.8-12,3.4c-6.1,2.5-11,7.8-17.3,9.6c-3.3,0.9-6.9,0.6-10.3,0.5c-3.8-0.1-7.5-1.5-11.3-1.3c-3.4,0.1-6.6,2.2-9.9,2
			C130.4,372.6,129.2,371.6,127.8,371.4C127.8,371.4,127.8,371.4,127.8,371.4z"/>
		<path id="path8901" class="st2" d="M138,370.1c2.3-0.4,4.6-1.1,6.9-1c4.4,0,8.6,2.5,13,2.3c2.5-0.1,5.3-0.6,7.3-2.1
			c6.4-4.9,9.3-8.4,19.2-9.9c4.4-0.7,9-2.7,11.8-6.1c1.3-1.6,1.5-3.9,1.8-6c0.7-4.8-1-9.8,0.1-14.5c1.2-4.7,6-8.2,6.8-13
			c0.4-2.4-0.2-4.9-1.2-7.1c-2.1-4.5-7.4-6.8-9.7-11.3c-1.7-3.4-1-7.8-2.8-11.2c-1-2-2.6-3.7-4.4-5c-1.7-1.2-3.9-1.9-5.9-2.3
			c-4.4-1-9.2,0.5-13.5-0.7c-6.8-1.9-11.8-8.5-18.8-9.9c-2.7-0.5-5.6,0.1-8.2,0.9c-5,1.5-9.1,5.2-13.9,7.3
			c-4.3,1.9-9.8,2.7-14.5,3.8s-7.8,1.7-11.1,5.2c-2.6,2.8-1.8,8.5-4.1,12c-2.1,3.2-6.4,4.5-8.5,7.6c-1.2,1.7-2.2,3.7-2.2,5.7
			c0,3,1.9,5.6,3.1,8.4c1.5,3.7,3.7,7.2,4.8,11.1c0.7,2.4,1,4.9,1.1,7.4c0.1,2.4-1,4.9-0.3,7.2c0.8,2.7,2.7,5.3,5,6.8
			c2.6,1.7,6.2,1.1,9.1,2.2c3.5,1.3,6.6,3.5,9.8,5.3c4.7,2.6,8.7,7.3,14,8.2C134.5,371.5,136.3,370.4,138,370.1L138,370.1z"/>
		<path id="path8899" class="st1" d="M127.2,368c-4.7-2.8-8.5-7.2-13.4-9.8c-5-2.7-12.2-1.9-15.9-6.1c-1.5-1.7-1.3-4.4-1.6-6.6
			c-0.6-4.1,0.4-8.3-0.5-12.3c-0.9-4.1-3.3-7.8-5-11.7c-0.9-1.9-2.7-3.5-2.7-5.6c0-2.5,2-4.7,3.4-6.7c1.8-2.6,4.8-4.2,6.5-6.9
			c2.5-4,1.7-9.9,5.1-13.2c2.6-2.5,6.6-2.9,10.1-3.8c5-1.4,9.4-1.4,13.7-3.1c4.3-1.7,8.6-5,14-7.5c2.7-1.2,6.9-0.7,10.1,0.2
			c4.6,1.4,7.6,5.9,12,7.7c3.1,1.2,6.6,1.5,10,1.9c2.8,0.3,5.8-0.6,8.5,0.3c2.6,0.8,5.1,2.4,6.8,4.5c1.3,1.6,1.7,3.7,2.5,5.7
			c1.3,3.5,1.5,7.4,3.5,10.6c2,3.2,6.4,4.5,8,7.9c1,2.1,0.9,4.6,0.5,6.8c-1,5.1-5.9,8.8-7,13.9c-1.1,4.9,1.8,10.4,0.2,15.2
			c-0.7,2-2.1,3.9-3.8,5.1c-5.5,4.1-13.2,4-19.2,7.1c-3.6,1.9-6.1,5.9-10,7c-4.9,1.4-10.1-0.8-15.1-1c-2.3-0.1-4.7-0.4-7-0.2
			c-3.6,0.3-7.1,2.7-10.7,2.3C129,369.3,128.1,368.5,127.2,368L127.2,368z"/>
		<path id="path8897" class="st2" d="M167.8,360.5c2.9-0.8,5.8-1.6,8.5-2.9c2.4-1.2,4.6-2.8,6.6-4.6c2.4-2.2,4.5-4.8,6.2-7.5
			c1.8-2.9,3.2-6.1,4.1-9.3c1.2-4.2,1.9-8.6,2.1-13c0.1-3.4-0.2-6.8-0.9-10.1c-0.7-3.3-1.8-6.6-3.3-9.7c-1.4-2.7-3.3-5.1-5.2-7.4
			c-1.7-1.9-3.4-3.9-5.5-5.2c-3.9-2.5-8.5-3.8-13-5c-7.3-1.9-14.8-3.1-22.4-3.4c-4.7-0.2-9.6-0.5-14,1c-10.7,3.5-21.1,9.6-28.6,18
			c-1.5,1.7-2.3,4-3,6.1c-1.7,5-3.3,10.3-3.3,15.6c0,4.3,0.9,8.6,2.6,12.5c2.8,6.4,6.5,12.8,11.9,17.3c5.5,4.6,12.6,7.2,19.6,8.9
			c6.7,1.6,13.8,0.8,20.7,0.7c4.1,0,8.2,0,12.2-0.5C164.6,361.5,166.2,361,167.8,360.5L167.8,360.5z"/>
		<path id="path8895" class="st1" d="M169.9,290.9c-0.6,0-1.2,0.1-1.9,0.2c-2.7,0.4-5.6,1.1-7.9,2.7c-3,2.2-4.9,5.7-6.8,8.9
			c-2.7,4.6-3.1,10.3-6.4,14.6l-6.5-2.9c-0.1-3.8,0.5-9,1.8-12.3c1.9,0.3,4.3,0.5,5.7-0.1c1.9-0.7,2.5-1.3,4-2.6
			c0.9-0.8,1.7-2,1.7-3.3c0-1.4-0.9-2.9-2.2-3.6c-1.1-0.6-2.5-0.5-3.8-0.2c-3,0.8-5.4,3.3-7.8,5.2c-4.2-0.9-8.3-2.3-12.6-2.6
			c-3-0.2-6.2-0.5-9,0.6c-1.9,0.7-3.7,2.1-5,3.7c-1.1,1.5-1.9,3.3-2.1,5.2c-0.2,1.7,0,3.6,0.8,5.1c0.9,1.7,2.9,2.7,4.3,3.7
			c0.4,4.5,1.6,8.8,2.7,13.2c-1.2,0.7-2.3,1.3-3.6,2.2c-2.1,1.4-3.2,3.1-3.8,4.3c-1.2,2.4-0.8,2.7-0.7,6.4c-1.7-0.3-4-2.4-4.9-4
			c-0.8-1.4-1.1-3.1-1-4.7c0.1-1.5,1.5-3.3,2.5-4.5c1.2-1.4,2.3-2,4.1-2.6c-0.9-0.3-1.6-0.6-2.3-0.9c-2.5,1.2-5,3.3-6.3,5.8
			c-0.9,1.7-1.2,3.9-0.8,5.8c0.4,1.8,1.7,3.4,3.1,4.6c1.8,1.6,4.3,2.8,6.4,3.2c0.8,1.8,2.4,3.9,4,5.3c1,0.9,2.1,1.7,3.3,2.1
			c2.7,0.9,5.7,1.4,8.5,0.8c2.4-0.6,4.7-2.1,6.4-3.8c1.7-1.6,2.9-3.8,3.7-6c1.8-4.7,2.7-9.7,2.8-14.8c1.4-0.2,1.9-0.8,2.9-1.2
			c1.1-0.6,2.3-1.1,3.3-1.8c0,6.8-1.4,15.1,0,21.7c0.5,2.4,2,4.5,2.9,6.8c-3.3,2.1-7.5,1.2-11.2,0.8l0.3,0.8c1.6,0.5,4,1,6.1,1
			c1.8,0,4,0.2,7.2-1c1.3,1.3,2.5,1.5,4.6,2.3c0.6,0.2,1.2,0.5,1.8,0.6c1.8,0.4,3.7,0.5,5.5,0.3c1.7-0.2,4.2-1,5.7-1.8
			c1.5-0.8,4.7-2.2,6.3-3.9l-0.3-1.3c-3.2,2.9-6.8,4.6-11.3,4.7c-3.3,0.1-7.9-1.4-9.6-3.4c1.4-1.8,2.3-4.2,2.9-6.4
			c2.3-8.5,0.8-17.9,3-26.4c0.8-3,2.2-5.9,3.8-8.5c0.8-1.2,2.6-3.6,3.8-3.9c-0.7,2.4-2.2,6.3-2.8,9.1c-0.5,5.1-1.4,6.6-1.6,11.7
			c-0.1,3.3,0.7,9,1.2,12c1.8-6,2.5-9.8,5-15c0.9-1.9,1.7-5.2,3.5-6.6c0,2.5-1.7,8.1-1.3,12.1c0.3,2.7,1.4,5.3,2.7,7.8
			c0.9,1.8,2.2,3.5,4,4.5c2,1,4.5,1.4,6.7,0.8c1.7-0.5,3.2-1.7,4.1-3.3c0.8-1.5,0.8-3.3,0.6-5c-0.2-1.7-0.5-3.7-1.7-4.9
			c-1.3-1.3-3.4-1.8-5.2-1.5c-1.1,0.2-1.8,0.4-2.8,1.9c1.3,0,2.7-0.5,3.8,0c1.4,0.6,2.6,2.1,3.1,3.6c0.5,1.5,0.4,3.4-0.5,4.8
			c-1,1.5-3.1,2.7-5,2.6c-1.5-0.1-2.7-1.3-3.8-2.4c-1.5-1.6-2.6-3.7-3.2-5.9c-0.7-2.6-0.3-5.4-0.1-8.1c0.3-3.5,1-6.9,2-10.2
			c1.1-3.8,3.1-7.3,4.5-10.9c-1.5,1-3.1,1.8-4.4,3.1c-3.9,3.6-7.4,9.3-9.9,14.9c1-5.3,2.3-11.7,5-17.7c0.5-1.1,0.6-1,1-3.2
			c-2.5,1.6-5.5,2.4-7.7,4.3c-1.7,1.5-3.2,3.3-4.4,5.2c-1.4,2.3-2.4,4.8-3.3,7.3c-1.1,3.3-1.8,6.8-2.1,10.3
			c-0.5,5.1,0.6,10.2-0.2,15.3c-0.3,1.8-1.6,4.7-2.4,6.3c-0.6-1.7-1.6-4-1.9-6.1c-0.5-3.3,0.3-6.7,0.1-10c-0.1-2.5-0.3-5.1-0.8-7.5
			c-0.3-1.3-0.4-2.4-1.2-3.9c5.1-7.5,7.4-17,13.5-23.6c1-1.1,2.4-2,3.8-2.5c2.1-0.8,4.5-1.1,6.8-0.8c2.1,0.3,4.1,1.2,5.8,2.5
			c1.5,1.1,3.3,3,4.3,4.6c1.7,2.6,2.3,4.3,2.9,7.4c0.5,2.5,0.1,5.9,0.1,8.4c1-1.7,0.8-1.3,1.5-2.9c0.7-3.6,0.5-6.6-0.7-10.1
			c-0.8-2.6-2.3-4.3-4.2-6.3c-2.3-2.4-5.2-4.4-8.3-5.5C173.3,291.2,171.7,290.8,169.9,290.9L169.9,290.9z M149.2,294.2
			c0.5,0,1,0,1.3,0.3c0.6,0.4,0.9,1.2,0.8,1.8c-0.1,0.7-1,1-1.3,1.5c0,0,0,0,0,0.1c0,0-0.1,0-0.1,0.1c-0.8,0.6-1.6,1.5-2.6,1.7
			c-1.4,0.3-2.3,0.2-4.2-0.6c0.9-1.5,2.7-3.7,4.7-4.5C148.2,294.3,148.7,294.2,149.2,294.2L149.2,294.2z M122.3,297.1
			c5.2,0.1,10.2,2.1,15.1,4c-1,4.2-2.1,9.2-2.8,13.5c-2.3,0.2-3.9,0.1-5.3,1.5c-1,1-1.7,2.5-1.7,3.9c0,1.4,0.9,2.8,1.9,3.8
			c1.3,1.4,3.5,2,5,2.3c-0.2,4.3,0.6,9.6-0.5,13.8c-0.6,2.1-1.5,4.3-3,5.9c-1.7,1.5-2.8,2-4.8,2.6c-1.9,0.5-4.1,0.8-6,0.1
			c-1.9-0.8-3.5-2.5-4.5-4.4c-0.3-0.6-1-1.3-1.1-1.9c0.9-0.6,3.3-1.8,3.7-2.2c1.8-2,2.8-2.5,4.1-4.9c0.9-1.7,0.8-3.5,0.8-6.2
			c0.9-0.1,2.5,0,3,0.4c1.1,0.8,2.5,2,3.2,3.9c0.6,1.9,0.4,4.3-0.7,6c-1.3,2-3.8,2.9-6,3.8c1.2,0,1,0,1.9,0.1
			c1.4-0.1,4.5-1.6,5.3-2.8c1.1-1.6,1.7-3.6,1.5-5.5c-0.2-1.8-1.4-4.6-2.7-5.9c-1.4-1.6-3.1-2.8-5.7-2.7c-0.3-1.4-0.4-2-0.7-3.1
			c-0.6-3-1.3-5.6-1.9-9.1c1.5,0.2,4-1.2,5.3-2.5c0.9-0.9,1.5-2.3,1.4-3.6c-0.1-1.2-1.1-2.4-2.1-3.1c-1-0.7-2.2-0.9-3.4-0.9
			c-1.3,0-2.6,0.1-3.7,0.8c-1.2,0.9-2.7,3.2-2.3,4.9c-1-0.3-1.1-0.8-1.5-1c-0.5-0.3-0.8-1-1-1.6c-0.2-1-0.1-2.1,0.3-3
			c1-2.3,2.7-4.5,4.8-5.8C119.5,297.4,121,297.1,122.3,297.1L122.3,297.1z M122.6,306.1c0.6,0,1.2,0.2,1.6,0.5
			c0.6,0.4,0.8,1.3,0.8,2c0,0.6-0.2,1.2-0.5,1.6c-0.5,0.6-1.2,0.9-1.9,1.1c-1,0.2-1.4,0.1-3-0.2c-0.5-2.2,0.1-3.6,1.4-4.6
			C121.4,306.2,122,306.1,122.6,306.1z M132.5,317.3c0.5-0.1,1.1,0.1,1.6,0.1v2.3v3.4c0.2,0.8-1.4,0.4-2,0.1
			c-0.8-0.5-1.3-1.6-1.3-2.5c-0.1-1.1,0.3-2.5,1.3-3.2C132.2,317.4,132.3,317.3,132.5,317.3L132.5,317.3z M140.4,317.4
			c1.4,0.2,2.1,0.5,3,1c0.8,0.4,1.7,0.9,2,1.8c-0.8,1.1-1.6,1.6-2.5,2.2c-0.7,0.5-1.5,1.1-2.3,1.1
			C140.5,322.1,140.4,318.7,140.4,317.4z M119.7,329.5c0.4,2.1,0.3,2.8-0.1,4.2c-0.3,1.2-1,2.2-1.8,3.2c-0.4,0.5-0.9,1-1.5,1.4
			c-0.9,0.6-2,1.5-2.8,1.6c0-1-0.5-2.6-0.3-3.9c0.3-1.5,1-2.9,2-4C116.4,330.7,117,330,119.7,329.5z"/>
		<path id="path8881" class="st1" d="M31.9,363.6c0-1.2,14.2-16.4,15.4-16.4c0.4,0.5,0.6,0.7,0.6,1.5l-3.4,2.9
			c-1.9,1.6-5.2,5.1-7.4,7.7c-1.8,2.1-3.1,3.5-4,4.2C32.5,363.7,32.4,363.5,31.9,363.6L31.9,363.6z"/>
		<path id="path8879" class="st1" d="M253.5,355.8c-1.6-1.4-3.2-2.7-4.9-4c-1.3-1-2.6-1.8-3.9-2.7c0-0.4,0-0.9,0-1.3
			c0.9,0.6,1.8,1.1,2.7,1.7c1.9,1.3,3.8,2.8,5.6,4.3c1.3,1.1,3.9,3.5,3.9,3.5l-1.1,0.4C255.3,357.3,254.2,356.4,253.5,355.8
			L253.5,355.8z"/>
		<path id="path8877" class="st1" d="M43.2,341.7c2-2.5,4.3-4.7,6.5-7c0.8-0.8,1.6-1.6,2.3-2.4c0.5,0,1,0,1.5,0
			c-2.4,2.8-4.8,5.6-7.4,8.1c-0.9,0.9-1.9,1.8-2.9,2.6c-0.3,0.2-1.3,0.3-0.7-0.2C42.8,342.4,43,342.1,43.2,341.7z"/>
		<path id="path8875" class="st1" d="M245.9,339.8c-1.3-1.4-4-3.8-5.8-5.4l-3.4-2.8c0.8,0,1.5,0,2.3,0l5.3,4.8
			c2.9,2.6,4,3.8,5.3,5.4l-0.8,0.9L245.9,339.8z"/>
		<path id="path8873" class="st1" d="M25.1,338.9c0.8-7.8,3.2-15.4,7-22.1c3.1-5.4,7.6-10,12.4-13.8c3.9-3.1,8.4-5.6,13.1-7.2
			c3.7-1.3,7.7-1.8,11.6-2l-0.8,1.4c-4.8,0.7-9.8,1.7-14.2,3.9c-5.5,2.7-10.7,6.5-14.9,11.1c-4.1,4.6-7.2,10.3-9.5,16.1
			c-1.9,4.8-2.6,9.9-3.6,15.1L25.1,338.9z"/>
		<path id="path8871" class="st1" d="M263.8,333.5c-0.7-3.5-1.1-7.1-2.4-10.4c-2.3-5.4-5.4-10.8-9.7-14.7
			c-5.1-4.7-11.7-7.8-18.2-9.9c-3.7-1.2-7.6-1.3-11.5-1.5l1.1-1.4c7.1-0.2,15.7,2.1,22.4,6.2c6.4,3.9,11.9,10,15.6,16.8
			c3.2,5.9,4.4,12.9,5.1,19.6l-1.3,1.6C264.5,337.7,264.2,335.6,263.8,333.5L263.8,333.5z"/>
		<path id="path8869" class="st1" d="M265.5,324.8c-3.9-10.6-8.3-15.7-14.8-21.4c-4.8-4.2-11.2-6.2-17.1-8.4l1-0.8
			c3.6,0.8,8.7,2.4,12.5,4.8c5,3,9.6,7.1,13.1,11.8c3,4,5.1,8.7,6.7,13.4L265.5,324.8z"/>
		<path id="path8867" class="st1" d="M56.7,322c1.8-2.9,8.3-10.8,11.4-13.9l3.7-3.6l0.3,0.8l0.3,0.8l-2.8,2.9
			c-3.7,3.8-7.7,8.4-9.8,11.5l-1.7,2.5l-0.9,0l-0.9,0L56.7,322L56.7,322z"/>
		<path id="path8865" class="st1" d="M218.4,303.9c0.3-0.2,0.6-0.4,1-0.6c6.2,5,11.5,10.8,16.4,18.1c-0.5,0-1,0.1-1.5,0.1
			C229.2,314.4,224.2,309.6,218.4,303.9L218.4,303.9z"/>
		<path id="path8863" class="st1" d="M25.4,320.1c3.3-5.7,5.8-10.7,10.1-14.9c4.5-4.4,11.1-7.8,15.9-10.2l1.6,0.5
			c-8.3,4.4-12.9,7.7-18.1,13.1c-3,3.1-4.5,6.6-7.1,10.8L25.4,320.1z"/>
		<path id="path8861" class="st1" d="M78.5,318.7c0,0,0.6-4.3,1.3-8.4s1.5-8.9,1.8-10.7s0.6-3.6,0.8-4l1.4,1.1l-1,4.1
			c-0.5,2.3-2.9,18-2.9,18L78.5,318.7z"/>
		<path id="path8859" class="st1" d="M209.8,305.2c-1.4-4.4-2.3-9-2.9-13.6c0.5,0.3,1.1,0.6,1.6,1c0.6,3.5,1,6.4,2,9.5
			c0.8,2.5,3,7.3,3,7.3c-0.1,1.2-0.3,2.4-0.4,3.7C213,313,210.6,307.9,209.8,305.2L209.8,305.2z"/>
		<path id="path8857" class="st1" d="M89.6,301.2c-0.5,0,1.6-4.4,2.1-6.8c0.6-3,1-6.2,1.1-9.3c0.1-2.8,0.1-4.3-0.4-8.5l1.3,0.7
			c0.7,4.4,0.9,9.8,0.1,14.6c-0.5,3.3-1.9,6.2-3.2,9.6L89.6,301.2z"/>
		<path id="path8855" class="st1" d="M198.1,292.9c-0.9-3.2-1.5-6.5-2.1-9.8c-0.3-1.6-0.8-4.9-0.8-4.9c0.4-0.7,0.8-1.4,1.2-2.1
			c0.5,2.8,0.8,5.5,1.3,8.3c0.4,2.4,0.9,4.9,1.5,7.3c0.3,1.2,1,3.5,1,3.5c-0.2,0.8-0.3,1.6-0.5,2.4
			C199.7,297.5,198.5,294.5,198.1,292.9L198.1,292.9z"/>
		<path id="path8853" class="st1" d="M62.4,290.1c-0.2-0.2-0.1-0.9-0.2-1.2c1.9,0.4,3.7,0.9,5.6,1.1c5.6,0.5,11.3-0.1,17-0.1
			c-0.2,0.5-0.3,1-0.5,1.4c-5.3,0-10.6,0.7-15.9,0.1C66.4,291.3,64,291.1,62.4,290.1z"/>
		<path id="path8851" class="st1" d="M207.7,287.7c0,0,6.5,0.1,9.7,0c4.8-0.1,9.2-0.5,14.4-0.9c-0.6,0.6-1.2,1.2-1.8,1.9
			c0,0-7.1,0.2-10.7,0.2s-10.7,0.2-10.7,0.2C208.3,288.7,208,288.2,207.7,287.7L207.7,287.7z"/>
		<path id="path8849" class="st1" d="M73.3,282.8c-4.2-2.7-8.6-5.4-13.3-7.1c-4.7-1.7-9.6-2.4-14.5-3.1l2.2-1.1
			c5.2,0.7,10.2,1.5,15,3.4c3.9,1.5,7.5,4,11,6.3c1.3,0.9,3.2,2.4,3.7,2.8l-0.6,1.4C75.6,284.6,74.5,283.6,73.3,282.8L73.3,282.8z"
			/>
		<path id="path8847" class="st1" d="M76.4,276.5c-2.5-3.4-5.5-6.4-8.9-8.9c-3.9-2.8-8.3-4.7-12.7-6.3c-3.7-1.4-7.6-2.2-11.5-2.8
			c-2.6-0.4-6.7-0.5-7.9-0.6l-1.7-1.5c2.4,0,5.1,0,7.7,0.3c3.9,0.4,7.8,1,11.6,2.1c4.9,1.5,9.9,3.3,14.2,6.2
			c4.1,2.8,7.6,6.5,10.7,10.5c1.5,2,2.7,4,3.7,6.8l-0.8,2.1C79.7,281.5,78.2,278.9,76.4,276.5z"/>
		<path id="path8845" class="st1" d="M81.6,276.9c-1.9-3.9-4.6-7.3-7.2-10.8l0.9-0.8c2.6,2.9,5.1,6.1,6.9,9.7
			c1.6,3.2,2.7,6.4,3.4,10.1c-0.4,0-0.9,0-1.3,0C83.7,281.7,82.9,279.4,81.6,276.9z"/>
		<path id="path8843" class="st1" d="M215.7,280.6c2.8-2.7,5.9-5.3,9.4-7c5-2.4,11.1-4.3,16.1-4.3l-0.2,1.3c-4,0.5-9.3,1.6-13.6,3.6
			c-4,1.9-7.1,4.3-10.9,7.6L215.7,280.6z"/>
		<path id="path8841" class="st1" d="M208.5,280.7c0.6-2.2,3.2-7.1,5.8-9.9c4.9-5.3,11.2-9.5,17.8-12.3c6.2-2.7,11.1-3.5,19.7-4.1
			c-0.4,0.5-0.6,1.2-1.1,1.6c-5.6,0.2-10.2,1.1-14.9,3c-6.4,2.5-12.6,6-17.7,10.8c-3.3,3.1-5.9,7.1-7.9,11.3L208.5,280.7z"/>
		<path id="path8839" class="st1" d="M206.1,273.1c1.8-4.9,4.6-9.4,8-13.3c2.9-3.3,6.6-5.8,10.3-8c0.6,0.2,1.1,0.4,1.7,0.5
			c-3.4,2.3-6.1,4-8.6,6.7c-3.6,3.8-6.9,8.1-9.1,12.9c-1.2,2.6-1.7,5.6-2.1,8.4c-0.5,0.3-1,0.6-1.5,0.9
			C205.1,278.4,205.2,275.7,206.1,273.1L206.1,273.1z"/>
		<path id="path8837" class="st1" d="M151.6,266.1c0-0.4,0.4-0.9,0.7-1c2.2-0.4,6.8,0.2,6.8,0.2c6.9,0.2,8.3,0.4,7.6,1.1
			c-0.2,0.2-3.7,0.5-7.8,0.5c0,0-4.5,0.1-6.5,0.1C152,267,151.7,266.5,151.6,266.1L151.6,266.1z"/>
		<path id="path8835" class="st1" d="M127.7,266.1c0,0,3.4-0.4,5-0.6c1.6-0.1,3.2-0.2,4.8-0.2c1.8-0.1,3.4-0.3,5.3-0.2
			c0.3,0,0.6,0.2,0.8,0.5c0.1,0.3,0.2,0.8-0.1,0.9c-2.4,0.3-5.1,0.1-7.6,0.1c-2.8,0.1-8.3,0.2-8.3,0.2L127.7,266.1z"/>
		<path id="path8833" class="st1" d="M146.4,266c0.1-2.7,0.3-3.7,0.4-5.6c0.2-1.7,0.2-3.1,0.6-4.8l0.4,0.1c0.2,1.6,0.5,4.3,0.6,4.7
			c0.2,2.6,0.4,3.9,0.4,5.6c0,0.6-0.7,0.7-1.1,0.7C147.2,266.7,146.4,266.4,146.4,266L146.4,266z"/>
		<path id="path8831" class="st1" d="M266.7,299.1c-2.1-1.2-3.2-3.6-5-5.2c-1.9-1.8-3.7-3.7-5.9-5.1c-2.7-1.8-6.1-3.9-8.7-4.2
			c0.9-0.7,1.9-1.4,2.9-1.8c2.5-1.1,5.2-2,8-2.3c2.1-0.2,4.3-0.1,6.4,0.5c2.5,0.6,5,1.7,7.2,3.2c1.9,1.3,3.7,2.7,4.9,4.7
			c0.6,1.1,1,2.4,0.9,3.6c-0.1,2.1-0.6,4.4-2,5.9c-1.1,1.1-2.8,1.6-4.3,1.7C269.5,300.3,268,299.9,266.7,299.1L266.7,299.1z"/>
		<path id="path8829" class="st2" d="M273.4,296.6c0.6-0.6,0.9-1.5,1-2.4c0.2-1.3-0.1-2.8-0.7-4c-1-2-2.9-3.5-4.8-4.7
			c-1.6-1-3.5-1.5-5.4-1.9c-2.4-0.4-4.9-0.6-7.3-0.2c-0.9,0.2-2.3,0.6-2.6,1.1c0.5,0,3.8,2.2,5.4,3.6c2.2,1.8,2.9,2.1,6,6.3
			c0.9,1.3,2.3,2.2,3.8,2.8c0.7,0.3,1.6,0.4,2.4,0.3C272,297.3,272.9,297.1,273.4,296.6L273.4,296.6z"/>
		<path id="path8827" class="st1" d="M262.7,288.5c-1.2-1.2-1.8-1.9-3.7-3.2c1.8,0,3.9-0.2,5.8,0.4c2.4,0.8,4.9,1.9,6.5,3.9
			c0.7,0.9,1.2,2.1,1.1,3.2c-0.1,0.5-0.4,1.1-0.8,1.3c-0.8,0.5-1.9,0.2-2.8-0.1c-1.2-0.4-2.2-1.4-3.1-2.3
			C264.4,290.8,263.7,289.6,262.7,288.5L262.7,288.5z"/>
		<path id="path8825" class="st1" d="M20.1,297.7c-1.2-0.7-2.3-2-2.8-3.4c-0.5-1.5-0.4-3.3,0-4.9c0.5-1.6,1.5-3.1,2.7-4.3
			c1.8-1.7,4-2.9,6.3-3.6c3.3-1,6.9-0.9,10.3-0.7c2.4,0.1,4.7,0.6,7.1,1.1c-1,1-1,1-1.9,2c-1.2,1.2-3.3,2.5-4.8,4
			c-2.2,2.1-4,4.7-6,7c-1.6,1.8-3.9,3.1-6.2,3.5C23.2,298.7,21.5,298.5,20.1,297.7z"/>
		<path id="path8823" class="st2" d="M33.4,288.6c1.7-1.7,3.5-2.8,5.4-4.7c-1,0-2.6-0.4-3.9-0.5c-1.6-0.1-3.2-0.2-4.8,0
			c-2.1,0.3-4.3,0.6-6.1,1.7c-1.6,0.9-3.2,2.1-4,3.8c-0.6,1.4-0.6,3.3,0,4.7c0.4,1,1.3,1.7,2.2,2.1c1.1,0.5,2.4,0.4,3.6,0
			c1.5-0.6,2.6-2,3.8-3.1C31,291.4,32.1,289.9,33.4,288.6L33.4,288.6z"/>
		<path id="path8821" class="st1" d="M21.9,290.2c0.2-1.5,1.7-2.6,3-3.4c1.6-1,3.5-1.3,5.3-1.6c1.3-0.2,2.9-0.3,3.9-0.3
			c-2.6,2.5-4.5,6.8-7.9,8.4c-0.9,0.4-2.1,0.7-2.9,0.1C22.3,292.8,21.7,291.4,21.9,290.2z"/>
	</g>
	<g id="g9679" transform="matrix(0.96066398,0,0,1.1053098,10.04271,-69.036827)">
		<path id="path8819" class="st1" d="M58.9,146c-1.8,0.3-3.7,0.4-5.1,1.6c-1.5,1.3-2.5,3.3-2.8,5.3c-0.4,3.1,1,6.3,1.9,9.3
			c1.1,3.6,2.8,7.2,4.1,10.6c1.3,0.1,2.9-0.7,3.9-1.4c0.3-0.2-1-2.2-1.5-3.3c-0.5-1.1-0.7-1.6-1.4-3.4c0.6-0.7,1.4-1.3,2.2-1.7
			c1.8-1,3.8-1.4,5.8-2.1c1,1.3,1.7,2.7,2.5,4.1c0.7,1.1,1.3,2.3,2.1,3.4c0.9-0.5,2.4-1.3,3.3-1.8c0-1-2.2-4.2-3.3-6.4
			c-1.9-3.7-3.3-7.7-5.7-11.1c-0.4-0.5-0.7-1-1.3-1.3C62.3,146.8,60.6,146.3,58.9,146C58.9,146,58.9,146,58.9,146L58.9,146z
			 M57.6,150.6c1.1-0.5,2.6-0.6,3.6,0.1c1.9,1.1,2.6,3.6,3.1,5.7c-0.5,0.8-1.9,0.9-2.9,1.2c-1.5,0.6-3.1,1.1-4.7,1.7
			c-0.8-1.3-1.6-2.6-1.8-4.1c-0.1-0.7-0.1-1.4,0.2-2C55.6,152.2,56.5,151.1,57.6,150.6z"/>
		<path id="path8815" class="st1" d="M228.6,148.6c-2.3,0.7-4.4,2.3-5.9,4.2c-1.3,1.5-1.9,3.5-2.5,5.4c-0.4,1.3-0.6,2.7-0.7,4.1
			c-0.1,1.4-0.2,3,0.3,4.3c0.5,1.4,1.5,2.7,2.7,3.6c1.8,1.2,4,2,6.1,1.8c1-0.1,2-0.8,2.9-1.4c1-0.6,1.9-1.4,2.6-2.4
			c-0.5-0.7-1-1.5-1.7-2.1c-0.4-0.4-0.9-0.6-1.3-0.8c-1.3,1.2-2.2,3-3.8,3.6c-0.9,0.3-2,0.2-2.7-0.4c-0.7-0.5-0.9-1.5-1-2.3
			c-0.2-1.6,0.3-3.2,0.6-4.8c0.1-0.5,0.1-1.2,0.8-0.8c2.6,0.4,5,1.7,7.5,2.5c1,0.3,2,1,2.9,0.9c0.6-1.2,1.6-2.3,2.1-3.6
			c0.6-1.7,1.1-3.7,0.8-5.5c-0.3-1.6-1.1-3-2.2-4.2c-0.9-1-2-1.7-3.3-2.1C231.4,148.3,229.9,148.2,228.6,148.6L228.6,148.6z
			 M230.9,151.8c0.8-0.1,1.6,0.2,2.1,0.8c0.9,1.1,0.9,2.9,0.7,4.3c-0.2,1.1-1,2.1-1.6,3c-0.9,0.3-1.8-0.5-2.7-0.9
			c-1.2-0.5-2.4-1-3.4-1.6c0-0.9,0.8-1.8,1.4-2.6c0.5-0.7,1.1-1.3,1.7-1.9C229.6,152.5,230.2,151.9,230.9,151.8L230.9,151.8z"/>
		<path id="path8811" class="st1" d="M209.8,165.8c-0.6-0.2-1.3-0.4-1.9-0.5c1.1-2.5,2.4-5.1,3.4-7.6c0.6-1.4,1.2-2.8,1.6-4.2
			c0.5-1.9,0.8-3.8,1.1-5.8c0.2-1.6,0.4-3.2,0.6-4.7c0.9,0.2,1.8,0.5,2.6,0.8c0.8,0.2,1.5,0.4,2.3,0.6c0.4,0.1,0.8,0.2,1.2,0.3
			c-2.3,5.9-4.3,11.9-5.7,18.1c-0.3,1.5-0.4,3.1-0.5,4.6c-0.4,0-0.9-0.3-1.3-0.5c-0.5-0.2-1-0.4-1.5-0.6
			C211,166,210.4,165.9,209.8,165.8L209.8,165.8z"/>
		<path id="path8809" class="st1" d="M192.8,138.2c-0.3,5.3-0.3,10.6-1.7,15.7c-0.6,2.2-1.8,4.1-2.8,6.2c-0.5,1.1,1,0.6,1.5,0.8
			c1.9,0.7,4,1.2,6,1.4c3,0.3,6.3,1.2,9.1-0.1c0.9-0.4,1.5-1.4,2-2.3c0.8-1.3,1.5-2.8,1.5-4.3c0-1.3-0.5-2.6-1.3-3.7
			c-0.7-0.9-1.7-1.6-2.8-2.1c-1.2-0.6-2.5-1.1-3.9-1.1c-1.3,0-2.5,0.6-3.8,0.8c0.8-3.2,1.9-6.3,3.6-9.2c-1.7-1.5-4.1-1.6-6.2-2
			C193.5,138.2,193.2,138.2,192.8,138.2C192.8,138.2,192.8,138.2,192.8,138.2z M199.6,152.2c1,0.3,2.1,0.7,2.6,1.6
			c0.4,0.8,0.2,1.9-0.1,2.8c-0.3,1-0.9,2.1-1.9,2.5c-1.6,0.7-3.8,0.1-5.2-0.3c0.1-1.3,0.7-2.4,0.8-3.8c0.1-1,0.7-2.2,1.8-2.2
			C198.4,152.7,199,152.3,199.6,152.2C199.6,152.2,199.6,152.2,199.6,152.2L199.6,152.2z"/>
		<path id="path8801" class="st1" d="M177.5,158.8c0.3-1.4,0.9-2,0.9-3c0.6-2.5,1.3-5,1.4-7.5c-0.9-0.8-2.2-0.9-3.4-1.2
			c-0.8-0.2-0.8-0.1-2.4-0.2c-0.5,1.8-1,4.2-1.2,6.4c-0.2,1.6,0,3.3,0,4.9c-2.2-0.4-4.5-0.5-6.6-1.4c0.6-1.5,1-2.5,1.4-3.8
			c0.6-1.6,1.4-3.2,1.9-4.8c0.7-2.7,1.4-5.5,1.4-8.3c0-2-0.5-4.1-1-6.1c1,0,1.7,0,2.6,0.2c1.5,0.2,3.6,0.6,4.5,1
			c-0.8,1.3-1,2.4-1.3,3.6c-0.4,1.4-0.9,2.9-0.7,4.3c1.8,0.6,3.6,0.9,5.5,0.8c0.1-2.5,1.2-5.3,1.2-8c1.6-0.1,3.9,0.9,5.4,0.9
			c-0.8,1.7-1.6,3.9-2.2,5.9c-0.8,2.8-1.5,5.7-1.7,8.6c-0.2,2.6,0.3,3.9,0.2,7.8c-1.3,0.1-2,0.1-3,0
			C179.4,159.1,178.2,159,177.5,158.8L177.5,158.8z"/>
		<g id="g9547" transform="translate(-3.7998221,0)">
			<path id="path8803" class="st1" d="M96.3,157.6c-0.2-0.9-0.6-1.8-0.4-2.6c0.1-0.4,0.3-0.8,0.7-1c1.3-0.7,3.2,0.7,4.5,0
				c1.1-0.5,1.8-1.7,2.3-2.8c1.5-3.5,0.2-7.7,1.3-11.4c0.5-1.6,1-3.4,2.2-4.5c1.4-1.4,3.5-1.9,5.4-2.3c2.4-0.5,4.9-0.1,7.4-0.2
				c0.1,1.4,0.3,2.9,0.4,4.3c-3,0.5-6.3,0.1-9,1.5c-1.3,0.7-2.4,1.8-3.1,3.2c-1.7,3.5-0.1,7.9-1.2,11.7c-0.5,1.6-1,3.3-2.2,4.4
				c-1,0.9-2.4,1.3-3.8,1.5c-1.3,0.2-2.8,0.7-3.8,0C96.4,159.1,96.4,158.2,96.3,157.6z"/>
			<path id="path8799" class="st1" d="M114,155.6c-0.9-0.8-1.7-1.6-2.2-2.7c-0.7-1.5-0.9-3.3-1-5c0-2.4,0.8-5.6,1.1-7.2
				c0.4,0,0.8,0,1.2,0c0.8,2.3,0.3,6.7,2.1,9.3c0.7,1,1.9,1.9,3.1,2c0.8,0.1,1.4-1,2.1-0.8c0.6,0.2,0.9,0.9,1,1.5
				c0.2,1.3-0.1,3-1.1,3.9c-1,0.9-2.6,1-3.8,0.7C115.5,157.2,114.7,156.3,114,155.6L114,155.6z"/>
		</g>
		<path id="path8797" class="st1" d="M150.3,156.7c-0.9-0.2-1.8-1-2.5-1.7c-1.2-1.2-2.1-2.7-2.6-4.3c-0.8-2.9-0.9-6.2-0.1-9.1
			c0.6-2.2,1.9-4.4,3.6-5.9c1.8-1.6,4.1-2.8,6.5-3c1.9-0.2,3.8,0.4,5.4,1.3c1.5,0.9,2.8,2.3,3.5,4c0.5,1.2,0,2.6,0,3.9
			c-1.4,0-2.7,0-4.1,0c-0.5-1.8-0.2-4.1-1.5-5.5c-0.7-0.8-2-1.3-3-1.1c-1,0.2-1.7,1.1-2.4,1.9c-1.3,1.5-2.6,3.1-3.1,5
			c-0.8,2.7-0.8,5.7,0,8.3c0.4,1.4,1.1,2.9,2.4,3.5c1,0.5,2.4,0.6,3.4,0c1.4-0.8,1.7-2.6,2.4-4c0.4-0.9,0.6-1.6,1-2.9
			c1.5-0.1,3.4,0.3,4.7,0.9c0,1.1,0,1.9-0.4,2.8c-0.8,2-2.2,3.7-3.7,5.2c-0.4,0.4-0.8,0.6-1.3,0.8c-1.8,0.6-3.8,1-5.7,0.7
			C151.7,157.2,151,157,150.3,156.7L150.3,156.7z"/>
		<path id="path8795" class="st1" d="M129.1,132.4c-1.5,0.5-2.7,1.7-3.7,2.9c-1,1.2-1.9,2.7-2.3,4.2c-1.5,5.6-0.4,11.5-0.6,17.3
			c1.3-0.1,2.7-0.3,4-0.4c0.2-2.7,0.3-5.5,0.4-8.3c2.6-0.3,3.3-0.4,4.9-0.4c1.3,0,3.7,0.2,4,0.6c0.1,2.7,0.3,5.4,0.4,8
			c1.4,0,2.8,0,4.2,0c-0.1-4-0.3-8-0.8-12c-0.3-2.5,0-5.3-1.1-7.5c-1-1.9-2.6-3.6-4.6-4.4C132.5,131.8,130.7,131.9,129.1,132.4z
			 M128.9,137.1c1.2-0.8,3-0.8,4.2,0c1.5,1,1.4,3.4,1.9,5.2c0.2,0.5,0.2,1.1,0.4,1.6c-2.5,0-5.9,0.4-8.4,0.4c-0.3-0.7-0.2-1.6,0-2.4
			C127.2,140.1,127.5,138.1,128.9,137.1z"/>
		<g id="g9543" transform="translate(-2,0)">
			<path id="path8805" class="st1" d="M82.4,161.4c-1.3-1.2-2.1-2.9-2.6-4.6c-0.4-1.5-0.5-3.1-0.2-4.7c0.3-2.1,1.1-4,2.3-5.9
				c0.8-0.1,1.6-0.3,2.4-0.4c-0.3,2.7-1.8,5.5-1,8.2c0.3,1.2,1.2,2.3,2.3,2.8c1,0.5,2.4-0.5,3.4,0.1c0.6,0.3,1.1,1,1.1,1.6
				c0,1.3-1.3,2.2-2.3,3c-0.7,0.6-1.6,1.1-2.5,1.1C84.1,162.6,83.1,162.1,82.4,161.4z"/>
			<path id="path8791" class="st1" d="M72.1,147c-0.6-0.2-1.2-0.7-1.3-1.4c-0.2-1.5,1.2-2.8,2.3-3.8c2.1-1.9,5-3,7.8-3.5
				c3.3-0.6,6.8-0.2,10,0.6c1.9,0.5,3.6,1.7,5.4,2.6c-0.2,0.5-0.4,0.9-0.6,1.3c-1.4-0.4-2.8-0.5-4.2-0.6c-2.1-0.1-4.3-0.4-6.4,0
				c-2,0.4-3.8,1.4-5.6,2.3c-1.3,0.7-2.4,1.8-3.9,2.2C74.6,147.2,73.2,147.4,72.1,147L72.1,147z"/>
		</g>
	</g>
	<g id="g9594" transform="matrix(0.95873751,0,0,0.99288596,9.1736353,-13.217209)">
		<path id="path8789" class="st1" d="M140.7,60.3c-3.8-0.4-7.4-1.9-11.1-3c-0.3-0.4-0.5-0.8-0.8-1.3c2.9,0.3,5.9,1.5,8.7,0.8
			c1.9-0.5,3.8-1.6,4.9-3.2c0.5-0.7,0.3-1.7,0.5-2.5c-2.2,0.3-4.3,1.2-6.5,0.9c-1.4-0.2-2.8-0.9-3.8-1.9c-1.4-1.4-2.3-3.5-2.3-5.5
			c0-1.4,0.5-2.8,1.4-3.8c1-1.2,2.5-1.9,4-2.3c1.3-0.4,2.8-0.4,4.1,0c2,0.6,3.4,2.2,5.1,3.4c1.8-0.9,3.5-2.2,5.4-2.7
			c1.5-0.4,3.2-0.5,4.7,0c1.4,0.5,2.6,1.4,3.5,2.6c1.2,1.7,1.7,3.9,1.7,5.9c0,1.8-0.6,3.7-1.5,5.3c-1,1.8-2.6,3.3-4.3,4.5
			c-1.8,1.2-3.8,2-5.9,2.5C146.1,60.6,143.3,60.6,140.7,60.3L140.7,60.3z"/>
		<path id="path8787" class="st1" d="M145.6,38.7c0.9-2.7,2.7-5.2,2.6-8c0-1.3-0.4-2.6-1.3-3.5c-1.1-1.1-2.8-1.6-4.4-1.7
			c-2.4-0.1-4.6,1.3-6.9,2.2c-0.9,0.4-1.7,0.9-2.6,1.3c-0.6-0.6-0.5-1.1-0.5-1.4c3.5-1.7,7.1-3.8,11-3.9c1.1,0,2.3,0.3,3.2,0.9
			c1.3,0.8,2.6,2.1,3.1,3.5c0.6,1.9,0.1,4-0.4,6c-0.4,1.6-1.4,3.1-2,4.6C146.6,39.1,146.1,38.9,145.6,38.7L145.6,38.7z"/>
		<path id="path8785" class="st1" d="M109.7,25.1c-1.1-1.3-3.8-3.8-3.1-5c3.1-0.3,6.3-0.1,9.3-0.6c7.9-1.3,15.3-5.1,23.2-6.2
			c3.7-0.5,7.5-0.6,11.1,0c5.8,1,10.9,4.6,16.7,5.7c5.6,1,11.5,0.1,17.2,0.6c-0.8,1.6-1.8,3.1-2.7,4.6c-5.5,0.1-11-0.3-16.3-1.5
			c-6.7-1.6-12.4-6.5-19.2-7.4c-2.7-0.4-5.6,0-8.3,0.8c-5.5,1.5-10.1,5.7-15.5,7.4c-3.8,1.2-7.8,1.6-11.8,1.9
			C110.1,25.4,109.9,25.2,109.7,25.1L109.7,25.1z"/>
		<path id="path8783" class="st1" d="M100.6,13.8c-0.8-2.9-3.4-5-4.7-7.6c3.8-0.1,7.5,1.3,11.3,1.4c4.2,0.1,8.4,0.2,12.5-0.7
			c7-1.6,12.9-7,20-8.4c3-0.6,6.2-0.5,9.2,0.1c5.6,1.1,10.5,4.8,16,6.3c4.7,1.2,9.6,2,14.4,2c4.3-0.1,8.7-0.9,12.9-2.2
			c0,2.5-2.3,4.2-3.7,6.1c-0.6,1.4-2.3,0.7-3.4,0.9c-3.3,0.3-6.5-0.2-9.8-0.6c-3.9-0.5-7.8-1-11.6-2.1c-5.4-1.7-10-5.4-15.4-6.8
			c-2.3-0.6-4.7-1-7-0.7c-10,1.4-18.3,8.9-28.1,11.5c-2.9,0.8-6,1.1-9.1,1.2C102.9,14,101.6,14.5,100.6,13.8L100.6,13.8z"/>
		<path id="path8781" class="st1" d="M35.3-2.9c-2.2-0.7-4.5-1.7-6.3-3c2.6,0.2,5.2,0,7.3-1c2.1-1,3.1-2,3.1-2c-4.2-1-4.2-1-6.3-2
			C31-12.1,29-14,29-16s1-4,2.1-5c2.1-2,4.2-2,6.3-2c3.5,0.1,5.6,1.4,7.3,3c1.9-0.3,4.3-0.7,6.4-0.3c1.9,0.3,3.9,1,5.3,2.3
			c1.6,1.6,2.9,3.1,2.9,6.1s-1.6,5.1-3.6,6.7c-2.9,2.4-6.8,3.3-11,3.3C41.3-1.9,38.4-1.9,35.3-2.9L35.3-2.9z"/>
		<path id="path8779" class="st1" d="M234.5-3.9c-1.8-0.5-3.5-1-5.2-2.1c1.5,0,3.5-0.5,5.2-1c1.1-0.3,1.8-0.5,3.1-1
			c-1.9-0.8-4.1-1.2-5.6-2.6c-1.5-1.4-2.8-2.4-2.8-5.5s0.6-3.6,1.8-4.8c1.4-1.4,3.4-2.2,5.5-2.2c3.1,0,6.3,2,7.4,3.9
			c2-0.9,3.2-1.4,4.8-1.7c1.5-0.3,3.1-0.4,4.6,0c1.1,0.3,1.9,0.8,3,1.8c1,1,2.1,2,2.1,4s0,3-1,5s-2.1,3-3.1,4c-2.1,2-7.3,3-11.5,3
			C240.2-2.9,237.2-3.3,234.5-3.9L234.5-3.9z"/>
		<path id="path8777" class="st1" d="M138.6-3.8c-1.1-0.2-2.6-0.5-3.3-0.7L135-4.8c2,0,3.5-0.1,5.1-0.6c1.6-0.5,3.2-1,4.3-2.2
			c0.6-0.6,0.9-1.6,0.8-2.4c-1.9,0.3-5.3,0.6-7.5-0.5c-2-1-3.8-3-4.1-5.1c-0.3-1.9,0.8-4,2.3-5.3c1.8-1.7,4.5-2.6,7-2.5
			c2,0.1,4,1.2,5.6,2.4c1.2-0.7,2.8-1.2,4.2-0.9c2,0.4,4.2,1.5,5,3.2c1.3,2.9,0.2,6.8-1.6,9.4c-1.7,2.4-4.9,3.6-7.7,4.6
			c-1.8,0.7-3.8,1-5.8,1.1C141.2-3.5,139.9-3.7,138.6-3.8L138.6-3.8z"/>
		<path id="path8775" class="st1" d="M188.3-11c-12-3.1-21.2-13.9-33.3-16.9c-7.1-1.8-14.8-1.8-22-0.3c-7.4,1.5-13.7,6.4-20.7,9.3
			c-7,2.9-13.6,7.6-21.2,8.3c-4.4,0.4-8.7-1.2-12.9-2.6c-10.2-3.3-18.7-10.6-29.1-13.2c-6.8-1.7-14-1.4-21.1-1.5l-2.4-6
			c10.6-0.5,22.2,3.6,32.7,7.3c7.8,2.8,14.3,8.7,22.3,11.1c3.2,1,6.6,1.6,9.9,1.2c8.6-1,16.3-5.8,24.3-9.1
			c8.9-3.6,16.9-10.6,26.5-11.7c5-0.6,10.1,1.1,14.9,2.8c6.5,2.4,12.1,6.8,18.2,10.1c5.2,2.9,9.8,7.4,15.7,8.5
			c4.3,0.8,8.8-0.3,12.9-1.7c7.7-2.6,13.6-9.2,21.1-12.3c6.3-2.6,12.9-4.9,19.7-5.3c6.9-0.4,14.1,0.1,20.6,3l-4.7,3.7
			c-7-2.8-14.9-2.8-22.3-1.9c-5.4,0.7-10.3,3.4-15.3,5.4c-9,3.7-16.9,10.4-26.4,12.3C193.3-10.2,190.7-10.4,188.3-11L188.3-11z"/>
		<path id="path8773" class="st1" d="M190.7-19.1c-7.2-1.8-13.2-6.8-19.9-10c-7.5-3.7-14.4-9.5-22.7-10.7
			c-5.5-0.8-11.2,0.9-16.5,2.6c-11.9,3.7-21.6,13-33.6,16.4c-4.4,1.2-9,2-13.5,1.4c-5.2-0.7-9.8-3.8-14.6-5.8
			C60-29.4,51-36.1,40.6-38.6c-5.8-1.4-12-0.5-17.9-0.7l-2-6.3c5.5-0.2,12.4,0.4,18.3,2.1c15.3,4.4,27.4,17,42.8,20.7
			c3.7,0.9,7.7,1.1,11.4,0.3c12.2-2.7,21.9-12.6,33.7-16.8c6-2.1,12.2-3.9,18.5-4c4.1-0.1,8.2,0.6,12,2c6.5,2.4,11.9,7.2,18,10.7
			c5,2.9,9.4,7.5,15.1,8.5c3.7,0.7,7.6-0.5,11.2-1.7c9.5-3.4,16.7-11.5,26.1-15.1c6.8-2.7,14.1-4.5,21.4-4.8
			c7.2-0.3,14.6,0.8,21.4,2.9l-3.6,4.3c-6.1-2.5-15.6-2.8-23.4-2c-6.4,0.6-12.6,2.9-18.6,5.2c-10.2,3.9-18.7,12.1-29.3,14.4
			C193.9-18.6,192.3-18.7,190.7-19.1L190.7-19.1z"/>
		<path id="path8771" class="st1" d="M177.1-37.2c0-2,0.6-3.4,1.7-4.6c2.2-2.2,5.6-3.5,8.7-3.5c3.1,0,5.2,1,8.3,2
			c3.1,1,6.3,2,10.4,2c4.2,0,8.4-2.3,11.5-4l1,1c-3.9,3-8.3,6.9-13.2,9.1c-5.7,2.6-11.8,5-18.2,5C183.4-30.1,177.1-33.3,177.1-37.2
			L177.1-37.2z"/>
		<path id="path8762-1" class="st1" d="M73.8-31.5c-2.3-1.1-4.9-2.6-5.7-4.9c-0.8-2-0.5-4.8,1-6.4c1.8-2.1,4.6-2.4,8.1-2.4
			c3.8,0,8.7,3.3,13.3,3.7c4.1,0.3,8.4-0.3,12.4-1.4c1.8-0.5,3.4-1.6,5.1-2.4c0.5,0.3,1,0.6,1.4,0.8c-3.1,2.7-5.9,5.8-9.5,7.8
			c-5.6,3.2-11.9,5.9-18.4,6.4C78.8-30,76.1-30.4,73.8-31.5L73.8-31.5z"/>
	</g>
	<path id="rect4130-4-45" class="st1" d="M-11-58.1v5h7.6v45h5v-45H9v-5H1.6h-5H-11z"/>
	<path id="path3204-7" class="st1" d="M149,141.9c0,0,8,13.3,17.3,22.7c9.3,9.3,22.7,17.3,22.7,17.3s-13.3,8-22.7,17.3
		c-9.3,9.3-17.3,22.7-17.3,22.7s-8-13.3-17.3-22.7c-9.3-9.3-22.7-17.3-22.7-17.3s13.3-8,22.7-17.3C141,155.2,149,141.9,149,141.9"/>
	<path id="path3204-5" class="st1" d="M299,331.9c0,0,3,5,6.5,8.5s8.5,6.5,8.5,6.5s-5,3-8.5,6.5s-6.5,8.5-6.5,8.5s-3-5-6.5-8.5
		s-8.5-6.5-8.5-6.5s5-3,8.5-6.5S299,331.9,299,331.9"/>
	<path id="path3204-5-1" class="st1" d="M-1,1.9c0,0,3,5,6.5,8.5C9,13.9,14,16.9,14,16.9s-5,3-8.5,6.5C2,26.9-1,31.9-1,31.9
		s-3-5-6.5-8.5s-8.5-6.5-8.5-6.5s5-3,8.5-6.5S-1,1.9-1,1.9"/>
	<path id="rect4130-4-1-5" class="st1" d="M289,421.9v-5h7.6v-45h5v45h7.4v5h-7.4h-5H289z"/>
</g>
</svg>
