<?xml version="1.0" encoding="utf-8"?>
<!-- Generator: Adobe Illustrator 24.1.2, SVG Export Plug-In . SVG Version: 6.00 Build 0)  -->
<svg version="1.1" id="Слой_1" xmlns="http://www.w3.org/2000/svg" xmlns:xlink="http://www.w3.org/1999/xlink" x="0px" y="0px"
	 viewBox="0 0 359 539" style="enable-background:new 0 0 359 539;" xml:space="preserve">
<style type="text/css">
	.st0{fill:#FFFFFF;stroke:#000000;}
	.st1{fill:#FF5555;}
</style>
<g id="g10372">
	<path id="rect26" class="st0" d="M29.72,0.03h299.11c16.54,0,29.94,13.41,29.94,29.94v479.11c0,16.54-13.41,29.94-29.94,29.94
		H29.72c-16.54,0-29.94-13.41-29.94-29.94V29.97C-0.22,13.43,13.19,0.03,29.72,0.03z"/>
	<g id="g28" transform="translate(0,1827.64)">
		<path id="path30" class="st1" d="M19.28-1798.11v5h7.6v45h5v-45h7.4v-5h-7.4h-5H19.28z"/>
		<path id="path32" class="st1" d="M319.28-1318.11v-5h7.6v-45h5v45h7.4v5h-7.4h-5H319.28z"/>
		<path id="path34" class="st1" d="M179.28-1578.11c0,0,1.82-11.15,5.33-14.67c3.51-3.51,9.7-5.33,14.67-5.33s11.15,1.82,14.67,5.33
			c3.51,3.51,5.33,9.7,5.33,14.67s-2.67,12-5.33,14.67c-2.67,2.67-5.33,4-8,6.67c-2.67,2.67-4,2.67-6.67,5.33
			c-2.67,2.67-4,4-6.67,6.67c-2.67,2.67-6.67,8-9.33,13.33c-2.67,5.33-4,13.33-4,13.33s-1.33-8-4-13.33s-6.67-10.67-9.33-13.33
			c-2.67-2.67-4-4-6.67-6.67c-2.67-2.67-4-2.67-6.67-5.33c-2.67-2.67-5.33-4-8-6.67c-2.67-2.67-5.33-9.7-5.33-14.67
			s1.82-11.15,5.33-14.67c3.51-3.51,9.7-5.33,14.67-5.33s11.15,1.82,14.67,5.33C177.46-1589.27,179.28-1578.11,179.28-1578.11"/>
		<path id="path36" class="st1" d="M29.28-1730.61c0,0,0.68-4.18,2-5.5c1.32-1.32,3.64-2,5.5-2s4.18,0.68,5.5,2s2,3.64,2,5.5
			s-1,4.5-2,5.5s-2,1.5-3,2.5s-1.5,1-2.5,2s-1.5,1.5-2.5,2.5s-2.5,3-3.5,5s-1.5,5-1.5,5s-0.5-3-1.5-5s-2.5-4-3.5-5s-1.5-1.5-2.5-2.5
			s-1.5-1-2.5-2s-2-1.5-3-2.5s-2-3.64-2-5.5s0.68-4.18,2-5.5s3.64-2,5.5-2s4.18,0.68,5.5,2S29.28-1730.61,29.28-1730.61"/>
		<path id="path38" class="st1" d="M329.28-1385.61c0,0,0.68,4.18,2,5.5s3.64,2,5.5,2s4.18-0.68,5.5-2s2-3.64,2-5.5s-1-4.5-2-5.5
			s-2-1.5-3-2.5s-1.5-1-2.5-2s-1.5-1.5-2.5-2.5s-2.5-3-3.5-5s-1.5-5-1.5-5s-0.5,3-1.5,5s-2.5,4-3.5,5s-1.5,1.5-2.5,2.5s-1.5,1-2.5,2
			s-2,1.5-3,2.5s-2,3.64-2,5.5s0.68,4.18,2,5.5s3.64,2,5.5,2s4.18-0.68,5.5-2S329.28-1385.61,329.28-1385.61"/>
	</g>
</g>
<g id="g10372_1_">
	<path id="rect26_1_" class="st0" d="M29.72,0.03h299.11c16.54,0,29.94,13.41,29.94,29.94v479.11c0,16.54-13.41,29.94-29.94,29.94
		H29.72c-16.54,0-29.94-13.41-29.94-29.94V29.97C-0.22,13.43,13.19,0.03,29.72,0.03z"/>
	<g id="g28_1_" transform="translate(0,1827.64)">
		<path id="path30_1_" class="st1" d="M19.28-1798.11v5h7.6v45h5v-45h7.4v-5h-7.4h-5H19.28z"/>
		<path id="path32_1_" class="st1" d="M319.28-1318.11v-5h7.6v-45h5v45h7.4v5h-7.4h-5H319.28z"/>
		<path id="path34_1_" class="st1" d="M179.28-1578.11c0,0,1.82-11.15,5.33-14.67c3.51-3.51,9.7-5.33,14.67-5.33
			s11.15,1.82,14.67,5.33c3.51,3.51,5.33,9.7,5.33,14.67s-2.67,12-5.33,14.67c-2.67,2.67-5.33,4-8,6.67c-2.67,2.67-4,2.67-6.67,5.33
			c-2.67,2.67-4,4-6.67,6.67c-2.67,2.67-6.67,8-9.33,13.33c-2.67,5.33-4,13.33-4,13.33s-1.33-8-4-13.33s-6.67-10.67-9.33-13.33
			c-2.67-2.67-4-4-6.67-6.67c-2.67-2.67-4-2.67-6.67-5.33c-2.67-2.67-5.33-4-8-6.67c-2.67-2.67-5.33-9.7-5.33-14.67
			s1.82-11.15,5.33-14.67c3.51-3.51,9.7-5.33,14.67-5.33s11.15,1.82,14.67,5.33C177.46-1589.27,179.28-1578.11,179.28-1578.11"/>
		<path id="path36_1_" class="st1" d="M29.28-1730.61c0,0,0.68-4.18,2-5.5c1.32-1.32,3.64-2,5.5-2s4.18,0.68,5.5,2s2,3.64,2,5.5
			s-1,4.5-2,5.5s-2,1.5-3,2.5s-1.5,1-2.5,2s-1.5,1.5-2.5,2.5s-2.5,3-3.5,5s-1.5,5-1.5,5s-0.5-3-1.5-5s-2.5-4-3.5-5s-1.5-1.5-2.5-2.5
			s-1.5-1-2.5-2s-2-1.5-3-2.5s-2-3.64-2-5.5s0.68-4.18,2-5.5s3.64-2,5.5-2s4.18,0.68,5.5,2S29.28-1730.61,29.28-1730.61"/>
		<path id="path38_1_" class="st1" d="M329.28-1385.61c0,0,0.68,4.18,2,5.5s3.64,2,5.5,2s4.18-0.68,5.5-2s2-3.64,2-5.5s-1-4.5-2-5.5
			s-2-1.5-3-2.5s-1.5-1-2.5-2s-1.5-1.5-2.5-2.5s-2.5-3-3.5-5s-1.5-5-1.5-5s-0.5,3-1.5,5s-2.5,4-3.5,5s-1.5,1.5-2.5,2.5s-1.5,1-2.5,2
			s-2,1.5-3,2.5s-2,3.64-2,5.5s0.68,4.18,2,5.5s3.64,2,5.5,2s4.18-0.68,5.5-2S329.28-1385.61,329.28-1385.61"/>
	</g>
</g>
</svg>
