<?xml version="1.0" encoding="utf-8"?>
<!-- Generator: Adobe Illustrator 24.1.2, SVG Export Plug-In . SVG Version: 6.00 Build 0)  -->
<svg version="1.1" id="Слой_1" xmlns="http://www.w3.org/2000/svg" xmlns:xlink="http://www.w3.org/1999/xlink" x="0px" y="0px"
	 viewBox="0 0 359 539" style="enable-background:new 0 0 359 539;" xml:space="preserve">
<style type="text/css">
	.st0{fill:#FFFFFF;stroke:#000000;stroke-width:1;}
	.st1{fill:#AA0000;}
	.st2{fill:#55AB55;}
</style>
<g id="g12669" transform="translate(5100,-482.36218)">
	<path id="rect6472-19" class="st0" d="M-5070.6,482.4h299.1c16.5,0,29.9,13.4,29.9,29.9v479.1c0,16.5-13.4,29.9-29.9,29.9h-299.1
		c-16.5,0-29.9-13.4-29.9-29.9V512.3C-5100.5,495.8-5087.1,482.4-5070.6,482.4z"/>
	<path id="rect6472-7-8" class="st1" d="M-5067.3,482.4l-33.3,66.5v2l34.3-68.5H-5067.3z M-5047.3,482.4l-53.3,106.5v2l54.3-108.5
		H-5047.3z M-5037.3,482.4l-63.3,126.5v4l65.3-130.5H-5037.3z M-5027.3,482.4l-73.3,146.5v6l76.3-152.5H-5027.3z M-5017.3,482.4
		l-83.3,166.5v8l87.3-174.5H-5017.3z M-5007.3,482.4l-93.3,186.5v10l98.3-196.5H-5007.3z M-4977.3,482.4l-123.3,246.5v2l124.3-248.5
		H-4977.3z M-4967.3,482.4l-133.3,266.5v4l135.3-270.5H-4967.3z M-4957.3,482.4l-143.3,286.5v2l144.3-288.5H-4957.3z M-4927.3,482.4
		l-173.3,346.5v10l178.3-356.5H-4927.3z M-4917.3,482.4l-183.3,366.5v8l187.3-374.5H-4917.3z M-4907.3,482.4l-193.3,386.5v6
		l196.3-392.5H-4907.3z M-4897.3,482.4l-203.3,406.5v4l205.3-410.5H-4897.3z M-4887.3,482.4l-213.3,426.5v2l214.3-428.5H-4887.3z
		 M-4867.3,482.4l-233.3,466.5v2l234.3-468.5H-4867.3z M-4857.3,482.4l-243.3,486.5v4l245.3-490.5H-4857.3z M-4847.3,482.4
		l-253.3,506.5v2.6c0,1.1,0.1,2.1,0.2,3.1l256.1-512.2H-4847.3z M-4837.3,482.4l-260.7,521.3c0.6,1.3,1.3,2.6,2.1,3.8l262.6-525.2
		H-4837.3z M-4827.3,482.4l-264.9,529.8c1.1,1.1,2.2,2.2,3.5,3.1l266.4-532.9H-4827.3z M-4797.3,482.4l-269.5,539h1l269.5-539
		H-4797.3z M-4787.3,482.4l-269.5,539h2l269.5-539H-4787.3z M-4777.3,482.4l-269.5,539h1l269.5-539H-4777.3z M-5075.4,482.8
		c-0.8,0.1-1.5,0.3-2.3,0.4l-22.8,45.7v4L-5075.4,482.8z M-5086.6,487c-1.8,1.1-3.4,2.4-4.9,3.9l-8.7,17.5c-0.2,1.3-0.3,2.6-0.3,4
		v2.6L-5086.6,487z M-4751.2,490.2l-265.6,531.2h5l263.8-527.6C-4748.9,492.5-4750,491.3-4751.2,490.2z M-4744.6,499l-261.2,522.3h4
		l258.9-517.9C-4743.3,501.9-4743.9,500.4-4744.6,499z M-4741.5,514.9l-253.3,506.5h3l250.3-500.5V514.9z M-4741.5,536.9
		l-242.3,484.5h2l240.3-480.5V536.9z M-4741.5,558.9l-231.3,462.5h1l230.3-460.5V558.9z M-4741.5,598.9l-211.3,422.5h1l210.3-420.5
		V598.9z M-4741.5,616.9l-202.3,404.5h2l200.3-400.5V616.9z M-4741.5,634.9l-193.3,386.5h3l190.3-380.5V634.9z M-4741.5,652.9
		l-184.3,368.5h4l180.3-360.5V652.9z M-4741.5,670.9l-175.3,350.5h5l170.3-340.5V670.9z M-4741.5,730.9l-145.3,290.5h1l144.3-288.5
		V730.9z M-4741.5,748.9l-136.3,272.5h2l134.3-268.5V748.9z M-4741.5,770.9l-125.3,250.5h1l124.3-248.5V770.9z M-4741.5,830.9
		l-95.3,190.5h5l90.3-180.5V830.9z M-4741.5,852.9l-84.3,168.5h4l80.3-160.5V852.9z M-4741.5,874.9l-73.3,146.5h3l70.3-140.5V874.9z
		 M-4741.5,896.9l-62.3,124.5h2l60.3-120.5V896.9z M-4741.5,918.9l-51.3,102.5h1l50.3-100.5V918.9z M-4741.5,958.9l-31.3,62.5h1
		l30.3-60.5V958.9z M-4741.5,976.9l-21.7,43.3c0.8-0.2,1.6-0.5,2.4-0.8l19.3-38.6V976.9z M-4741.8,995.4l-8.7,17.5
		C-4745.8,1008.3-4742.7,1002.2-4741.8,995.4z"/>
	<path id="rect6472-2-9" class="st2" d="M-5065.8,482.4l269.5,539h1l-269.5-539H-5065.8z M-5056.8,482.4l269.5,539h2l-269.5-539
		H-5056.8z M-5045.8,482.4l269.5,539h1l-269.5-539H-5045.8z M-5019.8,482.4l266.4,532.9c1.2-0.9,2.4-2,3.5-3.1l-264.9-529.8H-5019.8
		z M-5008.8,482.4l262.6,525.2c0.8-1.2,1.5-2.5,2.1-3.8l-260.7-521.3H-5008.8z M-4997.8,482.4l256.1,512.2c0.1-1,0.2-2.1,0.2-3.1
		v-2.6l-253.3-506.5H-4997.8z M-4986.8,482.4l245.3,490.5v-4l-243.3-486.5H-4986.8z M-4975.8,482.4l234.3,468.5v-2l-233.3-466.5
		H-4975.8z M-4955.8,482.4l214.3,428.5v-2l-213.3-426.5H-4955.8z M-4946.8,482.4l205.3,410.5v-4l-203.3-406.5H-4946.8z
		 M-4937.8,482.4l196.3,392.5v-6l-193.3-386.5H-4937.8z M-4928.8,482.4l187.3,374.5v-8l-183.3-366.5H-4928.8z M-4919.8,482.4
		l178.3,356.5v-10l-173.3-346.5H-4919.8z M-4885.8,482.4l144.3,288.5v-2l-143.3-286.5H-4885.8z M-4876.8,482.4l135.3,270.5v-4
		l-133.3-266.5H-4876.8z M-4865.8,482.4l124.3,248.5v-2l-123.3-246.5H-4865.8z M-4839.8,482.4l98.3,196.5v-10l-93.3-186.5H-4839.8z
		 M-4828.8,482.4l87.3,174.5v-8l-83.3-166.5H-4828.8z M-4817.8,482.4l76.3,152.5v-6l-73.3-146.5H-4817.8z M-4806.8,482.4l65.3,130.5
		v-4l-63.3-126.5H-4806.8z M-4795.8,482.4l54.3,108.5v-2l-53.3-106.5H-4795.8z M-4775.8,482.4l34.3,68.5v-2l-33.3-66.5H-4775.8z
		 M-4766.6,482.8l25.1,50.1v-4l-22.8-45.7C-4765,483-4765.8,482.9-4766.6,482.8z M-4755.4,487l13.9,27.9v-2.6c0-1.4-0.1-2.7-0.3-4
		l-8.7-17.5C-4752,489.4-4753.7,488.1-4755.4,487z M-5090.8,490.2c-1.2,1.1-2.3,2.3-3.3,3.5l263.8,527.6h5L-5090.8,490.2z
		 M-5097.4,499c-0.7,1.4-1.3,2.9-1.8,4.5l258.9,517.9h4L-5097.4,499z M-5100.5,514.9v6l250.3,500.5h3L-5100.5,514.9z M-5100.5,536.9
		v4l240.3,480.5h2L-5100.5,536.9z M-5100.5,558.9v2l230.3,460.5h1L-5100.5,558.9z M-5100.5,598.9v2l210.3,420.5h1L-5100.5,598.9z
		 M-5100.5,616.9v4l200.3,400.5h2L-5100.5,616.9z M-5100.5,634.9v6l190.3,380.5h3L-5100.5,634.9z M-5100.5,652.9v8l180.3,360.5h4
		L-5100.5,652.9z M-5100.5,670.9v10l170.3,340.5h5L-5100.5,670.9z M-5100.5,730.9v2l144.3,288.5h1L-5100.5,730.9z M-5100.5,748.9v4
		l134.3,268.5h2L-5100.5,748.9z M-5100.5,770.9v2l124.3,248.5h1L-5100.5,770.9z M-5100.5,830.9v10l90.3,180.5h5L-5100.5,830.9z
		 M-5100.5,852.9v8l80.3,160.5h4L-5100.5,852.9z M-5100.5,874.9v6l70.3,140.5h3L-5100.5,874.9z M-5100.5,896.9v4l60.3,120.5h2
		L-5100.5,896.9z M-5100.5,918.9v2l50.3,100.5h1L-5100.5,918.9z M-5100.5,958.9v2l30.3,60.5h1L-5100.5,958.9z M-5100.5,976.9v4
		l19.3,38.6c0.8,0.3,1.6,0.6,2.4,0.8L-5100.5,976.9z M-5100.2,995.4c0.9,6.8,4.1,12.9,8.7,17.5L-5100.2,995.4z"/>
</g>
</svg>
