<?xml version="1.0" encoding="utf-8"?>
<!-- Generator: Adobe Illustrator 24.1.2, SVG Export Plug-In . SVG Version: 6.00 Build 0)  -->
<svg version="1.1" id="Слой_1" xmlns="http://www.w3.org/2000/svg" xmlns:xlink="http://www.w3.org/1999/xlink" x="0px" y="0px"
	 viewBox="0 0 359 539" style="enable-background:new 0 0 359 539;" xml:space="preserve">
<style type="text/css">
	.st0{fill:#FFFFFF;stroke:#000000;stroke-linecap:round;stroke-linejoin:round;}
	.st1{fill:none;stroke:#000000;stroke-width:2;stroke-linecap:round;stroke-linejoin:round;}
	.st2{fill:#AA0000;stroke:#000000;stroke-linecap:round;stroke-linejoin:round;}
	.st3{fill:#5555AA;stroke:#000000;}
	.st4{fill:#AF5500;stroke:#000000;stroke-linecap:round;stroke-linejoin:round;}
	.st5{fill:#FFAAAA;stroke:#000000;stroke-linecap:round;stroke-linejoin:round;}
	.st6{fill:#5555AA;stroke:#000000;stroke-linecap:round;stroke-linejoin:round;}
	.st7{fill:none;stroke:#000000;stroke-linecap:round;stroke-linejoin:round;}
	.st8{fill:#FFFFFF;fill-opacity:0.982;stroke:#000000;stroke-linecap:round;stroke-linejoin:round;}
	.st9{fill:#55AA55;stroke:#000000;stroke-width:1.215;stroke-linecap:round;stroke-linejoin:round;}
	.st10{fill:#55AA55;stroke:#000000;stroke-width:1.152;stroke-linecap:round;stroke-linejoin:round;}
	.st11{stroke:#000000;stroke-linecap:round;stroke-linejoin:round;}
	.st12{fill:#FF5555;stroke:#000000;stroke-linecap:round;stroke-linejoin:round;}
	.st13{fill:#AA5500;stroke:#000000;stroke-linecap:round;stroke-linejoin:round;}
	.st14{fill:#FFAA55;stroke:#000000;stroke-linecap:round;stroke-linejoin:round;}
	.st15{fill:#AAAAFF;stroke:#000000;stroke-linecap:round;stroke-linejoin:round;}
	.st16{fill:none;stroke:#000000;}
	.st17{stroke:#000000;}
	.st18{fill:#FFFE55;stroke:#000000;stroke-linecap:round;stroke-linejoin:round;}
	.st19{fill:#FFFF55;stroke:#000000;stroke-linecap:round;stroke-linejoin:round;}
	.st20{fill:none;stroke:#000000;stroke-width:0.956;}
	.st21{fill:#FFAA55;stroke:#000000;}
</style>
<g id="g1238" transform="translate(3930,657.64)">
	<path id="rect1240" class="st0" d="M-3900.6-657.6h299.1c16.5,0,29.9,13.4,29.9,29.9v479.1c0,16.5-13.4,29.9-29.9,29.9h-299.1
		c-16.5,0-29.9-13.4-29.9-29.9v-479.1C-3930.5-644.2-3917.1-657.6-3900.6-657.6z"/>
	<path id="path1242" d="M-3911-628.1v50h5h5c5.5,0,10-4.5,10-10v-10c0-3-1.3-5.7-3.4-7.5c2.1-1.8,3.4-4.5,3.4-7.5v-5
		c0-5.5-4.5-10-10-10h-5H-3911z M-3906-623.1h5c2.8,0,5,2.2,5,5v5c0,2.8-2.2,5-5,5h-5V-623.1z M-3906-603.1h5c2.8,0,5,2.2,5,5v10
		c0,2.8-2.2,5-5,5h-5V-603.1z"/>
	<path id="path1244" d="M-3591-148.1v-50h-5h-5c-5.5,0-10,4.5-10,10v10c0,3,1.3,5.7,3.4,7.5c-2.1,1.8-3.4,4.5-3.4,7.5v5
		c0,5.5,4.5,10,10,10h5H-3591z M-3596-153.1h-5c-2.8,0-5-2.2-5-5v-5c0-2.8,2.2-5,5-5h5V-153.1z M-3596-173.1h-5c-2.8,0-5-2.2-5-5
		v-10c0-2.8,2.2-5,5-5h5V-173.1z"/>
	<g id="g1246" transform="translate(0,512.36)">
		<path id="path1248" class="st1" d="M-3881-1140.5h280v380"/>
		<path id="path1250" class="st1" d="M-3621-660.5h-280v-380"/>
		<path id="path1252" class="st1" d="M-3901-900.5h300"/>
	</g>
	<g id="g1254">
		<path id="path1256" d="M-3841-618.1c-4-0.1-6.7,1.3-9.3,4c-2.7,2.7-4,5.3-4,9.3s1.5,6.4,4,9.3c2.4,2.8,4,4,5.3,6.7
			c1.3,2.7,2.7,8,2.7,10.7c0,2.7,0,2.4,0,4h-2.7c-2.7,0-8-2.7-9.3-4l-4-4c-2.7-2.7-5.3-4-9.3-4s-6.7,1.3-9.3,4c-2.7,2.7-4,5.3-4,9.3
			s1.3,6.7,4,9.3s5.3,4,9.3,4s6.7-1.3,9.3-4l4-4c1.3-1.3,6.7-4,9.3-4h2.7c-0.1,3.8-0.3,10.4-1.3,13.3c-1.3,4-4,8-6.7,10.7
			c-2.7,2.7-10.7,8-10.7,8v1.3c0,0,13.3-2.7,16-2.7h8c2.7,0,16,2.7,16,2.7v-1.3c0,0-8-5.3-10.7-8s-5.3-6.7-6.7-10.7
			c-1-3-1.3-9.6-1.3-13.3h2.7c2.7,0,8,2.7,9.3,4l4,4c2.7,2.7,5.3,4,9.3,4s6.7-1.3,9.3-4c2.7-2.7,4-5.3,4-9.3s-1.3-6.7-4-9.3
			s-5.3-4-9.3-4s-6.7,1.3-9.3,4l-4,4c-1.3,1.3-6.7,4-9.3,4h-2.7c0-1.9,0-1.3,0-4s1.3-8,2.7-10.7c1.3-2.7,2.7-4,5.3-6.7
			c2.7-2.7,4-5.3,4-9.3s-1.3-6.7-4-9.3S-3837-618.1-3841-618.1"/>
		<path id="path1258" d="M-3901-568.1c-1.5,0-2.5,0.5-3.5,1.5s-1.5,2-1.5,3.5s0.6,2.4,1.5,3.5c0.9,1.1,1.5,1.5,2,2.5s1,3,1,4
			s0,0.9,0,1.5h-1c-1,0-3-1-3.5-1.5l-1.5-1.5c-1-1-2-1.5-3.5-1.5s-2.5,0.5-3.5,1.5s-1.5,2-1.5,3.5s0.5,2.5,1.5,3.5s2,1.5,3.5,1.5
			s2.5-0.5,3.5-1.5l1.5-1.5c0.5-0.5,2.5-1.5,3.5-1.5h1c0,1.4-0.1,3.9-0.5,5c-0.5,1.5-1.5,3-2.5,4s-4,3-4,3v0.5c0,0,5-1,6-1h3
			c1,0,6,1,6,1v-0.5c0,0-3-2-4-3s-2-2.5-2.5-4c-0.4-1.1-0.5-3.6-0.5-5h1c1,0,3,1,3.5,1.5l1.5,1.5c1,1,2,1.5,3.5,1.5s2.5-0.5,3.5-1.5
			s1.5-2,1.5-3.5s-0.5-2.5-1.5-3.5s-2-1.5-3.5-1.5s-2.5,0.5-3.5,1.5l-1.5,1.5c-0.5,0.5-2.5,1.5-3.5,1.5h-1c0-0.7,0-0.5,0-1.5
			s0.5-3,1-4s1-1.5,2-2.5c1-1,1.5-2,1.5-3.5s-0.5-2.5-1.5-3.5S-3899.5-568.1-3901-568.1"/>
		<path id="path1260" d="M-3601-208.1c-1.5,0-2.5-0.5-3.5-1.5s-1.5-2-1.5-3.5s0.6-2.4,1.5-3.5c0.9-1.1,1.5-1.5,2-2.5s1-3,1-4
			s0-0.9,0-1.5h-1c-1,0-3,1-3.5,1.5l-1.5,1.5c-1,1-2,1.5-3.5,1.5s-2.5-0.5-3.5-1.5s-1.5-2-1.5-3.5s0.5-2.5,1.5-3.5s2-1.5,3.5-1.5
			s2.5,0.5,3.5,1.5l1.5,1.5c0.5,0.5,2.5,1.5,3.5,1.5h1c0-1.4-0.1-3.9-0.5-5c-0.5-1.5-1.5-3-2.5-4s-4-3-4-3v-0.5c0,0,5,1,6,1h3
			c1,0,6-1,6-1v0.5c0,0-3,2-4,3s-2,2.5-2.5,4c-0.4,1.1-0.5,3.6-0.5,5h1c1,0,3-1,3.5-1.5l1.5-1.5c1-1,2-1.5,3.5-1.5s2.5,0.5,3.5,1.5
			s1.5,2,1.5,3.5s-0.5,2.5-1.5,3.5s-2,1.5-3.5,1.5s-2.5-0.5-3.5-1.5l-1.5-1.5c-0.5-0.5-2.5-1.5-3.5-1.5h-1c0,0.7,0,0.5,0,1.5
			s0.5,3,1,4s1,1.5,2,2.5c1,1,1.5,2,1.5,3.5s-0.5,2.5-1.5,3.5S-3599.5-208.1-3601-208.1"/>
		<path id="path1262" d="M-3661-158.1c-4,0.1-6.7-1.3-9.3-4c-2.7-2.7-4-5.3-4-9.3s1.5-6.4,4-9.3c2.4-2.8,4-4,5.3-6.7
			c1.3-2.7,2.7-8,2.7-10.7c0-2.7,0-2.4,0-4h-2.7c-2.7,0-8,2.7-9.3,4l-4,4c-2.7,2.7-5.3,4-9.3,4s-6.7-1.3-9.3-4c-2.7-2.7-4-5.3-4-9.3
			s1.3-6.7,4-9.3s5.3-4,9.3-4s6.7,1.3,9.3,4l4,4c1.3,1.3,6.7,4,9.3,4h2.7c-0.1-3.8-0.3-10.4-1.3-13.3c-1.3-4-4-8-6.7-10.7
			c-2.7-2.7-10.7-8-10.7-8v-1.3c0,0,13.3,2.7,16,2.7h8c2.7,0,16-2.7,16-2.7v1.3c0,0-8,5.3-10.7,8s-5.3,6.7-6.7,10.7
			c-1,3-1.3,9.6-1.3,13.3h2.7c2.7,0,8-2.7,9.3-4l4-4c2.7-2.7,5.3-4,9.3-4s6.7,1.3,9.3,4c2.7,2.7,4,5.3,4,9.3s-1.3,6.7-4,9.3
			s-5.3,4-9.3,4s-6.7-1.3-9.3-4l-4-4c-1.3-1.3-6.7-4-9.3-4h-2.7c0,1.9,0,1.3,0,4s1.3,8,2.7,10.7c1.3,2.7,2.7,4,5.3,6.7
			c2.7,2.7,4,5.3,4,9.3s-1.3,6.7-4,9.3S-3657-158.1-3661-158.1"/>
	</g>
	<g id="g1264">
		<path id="path1266" class="st2" d="M-3797.5-519.6c-9.1,4.8-19.3,7.2-28.4,11.9c-3.2,2.2-5.2,5.2-6.1,8.9
			c-14.2,36.7-28.3,73.5-42.5,110.2c15.5,0.3,30,0.2,45,0c-1.7-2.5-5.3-5.9-3-9.1c4-9.2,5.6-17.4,8.9-26.8c0.8-2.7,1.6-4.8,4.6-5.8
			c0.9,3,1.3,4.1,1.6,7.2c1,6.3,2.6,12.5,6.1,18c2,3.8,3.9,10.2,5.9,14c8.6-2.2,16.3-3.1,25.9-3.8c12.6-0.3,26.1-0.4,39-0.8
			c13,0,26.1,1.3,39.1,1.3c6.9,1.8,9.8,1.5,15.3,3.3c1.2-7.7,1.8-13.7,4.1-21.1c2.4-4.3,1.6-9.3,2.6-13.9c2.8,1.8,2.8,5.4,3.8,8.3
			c1.3,3.7,3.5,7,2.7,11.3c-0.4,3.5-0.9,7,1.5,10c0.8,2.6,0.4,8.1,4.2,8c12.1,0.2,24.2,0.3,36.3,0.5c3.5-6.7,4.2-14.2,4-21.6
			c-0.1-6,0.9-12.2-2.1-17.7c-2.4-6.7-4.5-13.6-9-19.3c-5.3-7.6-9.8-15.6-13.6-24.1c-3.9-7.7-6.5-15.9-11.4-23.1
			c-3.5-4.8-6-10.7-11.5-13.5c-4.7-3.2-10.3-8.9-16.3-8.1C-3719.2-515.3-3766.3-533.2-3797.5-519.6L-3797.5-519.6z"/>
		<path id="path1268" class="st3" d="M-3794.2-512.7l3.9,9.9l5.3,15.9l5.3,18l3.9,19.8l1.8,12.4l0.4,9.9l1.1,10.3l1.1,11.3l0.4,9.9
			l18.4,0.7h34.3l16.8,0.8l7.6-25.6l2.1-13.4l0.7-6.7l1.8-45.3l-1.1-16.3l1.1-12.4l-0.4-2.1l-15.6-10.6l-25.1-6.4l-29.3-1.1
			l-24.4,7.4l-12.4,7.1l3.2,8.1L-3794.2-512.7z"/>
		<g id="g1270">
			<g id="g1272">
				<path id="path1274" class="st4" d="M-3785-574.4c-2.4,2.4-3.6,5.8-4.4,9c-1,3.8,1.5,7.4,0.5,11.2c-1.7,2.9-5.3,4-7.1,6.9
					c-1.8,2.7-1.1,6.1-0.3,9c2.5,2.8-2.3,2.2-3.7,2.8c-3.1,1.4-5.4,3.5-6.9,6.2c-1.3,3.8,0.1,8.1,3,10.8c2,2.2,4.5,4,7.2,5.1
					c3.7,0.5,7.5,0,10.2-2.5c1.9-1.5,3.8-3.3,5-6.5c1.3,2.6,4,1.2,5.1-0.8c2.1-2.2,4.6-4,6.8-6c1.6-2.1-2.5-3.3-3.3-5.1
					c-4.6-5.7-6.3-13.1-7.8-20.1c-1.3-6.8-1.6-13.7-1.2-20.6C-3780.7-577.9-3784.2-574.9-3785-574.4L-3785-574.4z"/>
				<path id="path1276" class="st4" d="M-3734.8-608.6c0,1.6,3.3,5.8,4,9c0.6,2.8-0.5,5.6-0.2,8.4c0.2,1.5,0.7,3,1.2,4.5
					c0.9,2.7,2.5,5.1,3.1,7.8c0.9,4.6,0.1,9.4,0.3,14c0.2,6,0.3,8.7,1.4,14.3c0.5,2.7-1.1,5.1-2.4,7.4c-0.5,0.9-1.8,1.4-1.9,2.4
					c-0.1,1.3,1.3,2.3,2,3.5c0.7,1.2,1.3,2.5,2.1,3.6c0.7,0.9,1.4,2.1,2.5,2.5c1.3,0.5,3,0.7,4.3,0c0.5,2.8,0.8,2.7,1.4,4
					c2,4.5,3.1,10.3,7.3,12.8c2.5,1.4,5.7,0.3,8.5,0c3.6-0.4,7.7-0.4,10.7-2.4c1-0.7,1.6-1.9,2.2-2.9c1.2-2.2,2.1-4.5,2.6-6.9
					c0.6-2.9,1-6,0.2-8.9c-0.6-2.3-2.9-3.8-3.7-6c-1-2.6,0-5.7-1.3-8.1c-1.4-2.5-4.6-3.7-6.7-5.6c-0.7-0.6-1.7-1-1.9-1.9
					c-0.5-2.3,2.5-4.2,2.4-6.5c-0.1-3.4-2.7-6.3-4.3-9.4c-1-1.8-2.5-3.4-3.3-5.3c-0.5-1.4-0.4-2.9-0.9-4.3c-0.7-2.1-1.9-3.9-2.8-5.9
					c-1.4-3.1-1.9-6.6-3.8-9.3c-1.4-2.1-3.4-3.8-5.4-5.3c-1.9-1.4-4.1-2.5-6.4-3.3C-3727.1-607.9-3731-608.2-3734.8-608.6
					L-3734.8-608.6z"/>
			</g>
			<path id="path1278" class="st5" d="M-3781.5-576.6c-0.9,3.9-0.8,7.2-0.7,10.8c0.1,4.8,0.7,9.6,1.8,14.3c1,4.3,2.4,8.6,4.4,12.6
				c1.5,2.9,3,6,5.4,8.1c2.5,2.2,5.8,3.6,9,4.2c3.7,0.7,7.5,0.2,11.2-0.7c3.4-0.8,6.7-2.4,9.7-4.2c4-2.4,7.8-5.4,11-8.9
				c2.4-2.7,5.3-5.6,6-9.1c0.7-3.9-2-7.8-2.5-11.8c-0.3-2.9,0.1-5.9,0-8.9c-0.1-3.2-0.1-6.5-0.8-9.7c-0.7-3.2-3.1-6-3.6-9.3
				c-0.6-3.4,1.4-7.1,0.5-10.4c-0.9-3.7-3-8.1-5.9-9.8c-2.6-1.7-6.6-0.3-9.9,0.3c-6,1.1-11.7,3.4-17.4,5.7
				c-6.3,2.6-11.1,8.6-14.6,14.4c-2,3.4-1.8,7.8-3.3,11.5c-0.1,0.1-0.1,0.3-0.2,0.4C-3781.4-576.9-3781.4-576.7-3781.5-576.6
				L-3781.5-576.6z"/>
			<path id="path1280" class="st6" d="M-3780.3-591.1c-0.3,2,1.8,4.5,2.9,1.6c2-3.2,5.2-7.3,8.1-9.9c3.9-3.9,8.2-4.5,13.1-6.6
				c9.9-3.7,20.7-3.1,30.9-1.3c5.9,1.3,11.5,5,14,10.6c1.5,1.8,0.7,8.6,4.2,6.6c2.3-1.3,3.5-4.8,3.1-7.3c-0.3-5.2-4.4-9.3-8.7-11.9
				c-8.5-4.9-18.7-5.9-28.3-5c-8.4,0.1-16.6,2-24.3,5.3c-3.9,1.2-7.5,3.3-10.3,6.3c-2.2,2.4-5.7,4.2-5.9,7.9
				C-3781.4-593.5-3780.7-592.3-3780.3-591.1L-3780.3-591.1z"/>
			<path id="path1282" class="st2" d="M-3780.5-596.6c-2,4.5,2.5,8.2,1,12.9c0.1,3.6-1.8,7.3-4.9,9c-5,2.3-8.7-3.3-10.9-7
				c-2.4-4.2-0.3-9.6-0.8-14.5c-0.3-5.8,0.4-11.1,3.7-16.8c6.9-5,12.9-8.7,21-10.8c5.1-2.1,12.1-4.4,17.8-4.5
				c13.5-1.1,27.2-1.1,40.6,1.3c5.3,1.6,10.9,2.5,15.6,5.6c7.7,5.8,10.6,16.5,8.7,25.6c-1.6,4.5-4.2,9.4-8.6,11.7
				c-3.9,2-10.2,2.8-10.3-3.4c-0.4-4,5.7-5.8,3.4-10.5c-1-5.7-5.8-9.6-10.8-11.8c-7.8-4.3-16.9-4.7-25.6-4.2
				c-9.9-0.3-19.6,2.8-28.5,6.9C-3773.4-604.7-3777.7-601-3780.5-596.6L-3780.5-596.6z"/>
			<g id="g1284">
				<path id="path1286" class="st7" d="M-3776-590.9c1.7-0.6,4.1-1.8,6-1c1.7,0.7,2.8,2.6,3.2,4.3c1,4-1.3,8-2.1,12
					c-0.5,2.8-1.1,5.6-1.8,8.4c-0.4,1.5-2,3-1.5,4.5c0.3,1,1.6,1.4,2.5,2c1,0.7,2,2.1,3.2,2c1.2-0.1,1.6-1.8,2.7-2.3
					c0.8-0.4,1.8-0.2,2.7-0.4c0.7-0.1,1.7,0.1,2.2-0.5c0.9-1,0.9-2.8,0.3-4.1c-0.1-0.2-0.4-0.3-0.6-0.4"/>
				<path id="path1288" class="st7" d="M-3757.1-585.6c-0.2-0.9-0.7-1.8-0.5-2.7c0.2-0.8,0.8-1.5,1.5-2c1.1-0.7,2.5-0.7,3.8-0.9
					c1.8-0.3,3.7-0.4,5.6-0.4c1.2,0,2.4,0,3.5,0.4c1.2,0.4,2.1,1.4,3.1,2.2c1.3,1,2.4,2.2,3.7,3.2c0.2,0.2,0.4,0.3,0.6,0.4"/>
				<path id="path1290" class="st7" d="M-3755.6-580.2c0.5-0.8,0.8-1.9,1.5-2.5c1.1-1,2.6-1.7,4.2-1.9c1.6-0.2,3.3,0,4.8,0.6
					c1.6,0.7,2.6,2.5,4.2,3.2c0.6,0.3,1.3,0.1,1.9,0.4c0.8,0.3,1.3,1.2,2.2,1.4"/>
			</g>
			<path id="path1292" class="st8" d="M-3754.3-579.8c0.8-1,2.7-0.9,4.1-1.2c1.1-0.2,2.2-0.4,3.3-0.2c1.2,0.1,2.4,0.7,3.5,1.1
				c1.1,0.4,2.1,1.1,3.2,1.3c0.8,0.1,2.2-0.8,2.5-0.1c0.4,1.2-2.5,1.2-3.7,1.9c-0.7,0.5-1.3,1.2-2.1,1.6c-0.6,0.3-1.3,0.5-2,0.7
				c-1.1,0.2-2.2,0.2-3.3,0.1c-0.9-0.1-1.8-0.1-2.6-0.5c-0.6-0.3-0.8-0.5-1.5-1.1c-0.7-0.6-1-1.2-1.3-1.9
				C-3754.3-578.7-3754.6-579.4-3754.3-579.8L-3754.3-579.8z"/>
			<path id="path1294" class="st7" d="M-3768-582.5c-0.8-1.1-1.3-2.4-2.4-3.2c-0.8-0.6-1.9-0.9-2.9-1c-1.1-0.1-2.1,0.3-3.1,0.6
				c-0.9,0.2-1.8,0.6-2.7,0.8"/>
			<path id="path1296" class="st8" d="M-3768.4-580.6c-0.5-1.9-3.5-1.7-5.4-2c-1-0.1-2,0-3,0.2c-1,0.2-2.2,0.2-2.8,0.9
				c-0.4,0.4-0.6,1.1-0.5,1.7c0.1,0.6,0.7,0.9,1.2,1.3c0.7,0.7,1.3,1.5,2.2,1.8c1,0.4,2.2,0.4,3.3,0.3c0.8-0.1,1.7-0.3,2.4-0.8
				C-3769.9-578-3768-579.2-3768.4-580.6L-3768.4-580.6z"/>
			<g id="g1298">
				<path id="path1300" class="st9" d="M-3772-580.1c0,1.4-1.1,2.6-2.4,2.6c-1.3,0-2.4-1.1-2.4-2.6c0,0,0,0,0,0
					c0-1.4,1.1-2.6,2.4-2.6C-3773.1-582.6-3772-581.5-3772-580.1C-3772-580.1-3772-580.1-3772-580.1z"/>
				<path id="path1302" class="st10" d="M-3745.2-578.2c0,1.4-1.2,2.6-2.6,2.6c-1.5,0-2.7-1.1-2.7-2.6c0,0,0,0,0,0
					c0-1.4,1.2-2.6,2.6-2.6C-3746.4-580.7-3745.2-579.6-3745.2-578.2C-3745.2-578.2-3745.2-578.2-3745.2-578.2z"/>
			</g>
			<path id="path1304" class="st11" d="M-3773.5-580.5c0,0.4-0.3,0.8-0.7,0.8c-0.4,0-0.7-0.4-0.7-0.8s0.3-0.8,0.7-0.8
				C-3773.8-581.3-3773.5-580.9-3773.5-580.5z"/>
			<path id="path1306" class="st11" d="M-3746.5-578.4c0,0.5-0.4,1-0.9,1c-0.5,0-0.9-0.4-0.9-1s0.4-1,0.9-1
				C-3746.9-579.4-3746.5-579-3746.5-578.4z"/>
			<g id="g1308" transform="translate(1.414,-0.177)">
				<path id="path1310" class="st12" d="M-3772.9-551.4c0.3-1,1.5-1.3,2.2-1.9c0.6-0.4,0.9-1.2,1.7-1.2c0.9-0.1,1.9,0,2.5,0.8
					c0.5,0.5,1.6,0.4,1.6-0.4c0.4-0.4,1.6-0.3,2.1-0.3c1.4,0.3,2.1,0.9,3.3,1.6c0.5,0.3,1.3,0.5,1.4,1.2c-0.2,0.8-1.4,0.6-1.7,1.2
					c-0.8,1-1.3,1.1-2.2,2.1c-0.7,0.9-1.5,1.8-2.6,1.9c-1.4,0.2-2.8-0.1-4.1-0.4c-0.9-0.2-1.8-0.7-2.1-1.7c-0.2-0.8-0.7-0.4-1.2-1.1
					c-0.3-0.6-0.6-1.2-0.9-1.8L-3772.9-551.4L-3772.9-551.4L-3772.9-551.4z"/>
				<path id="path1312" class="st12" d="M-3772.9-551.1c0.9-0.1,1.9-0.1,2.8-0.3c0.8-0.2,1,0.7,1.7,0.8c1,0.3,2.1,0.4,3.1,0.2
					c0.7-0.2,1.2-0.7,1.8-1c0.6-0.4,1.4-0.5,2.2-0.4c0.8,0.1,1.6,0.4,2.4,0.5c0.2,0,0.3-0.1,0.5-0.1"/>
			</g>
			<path id="path1314" class="st13" d="M-3763.8-558.3c0.8,0,2.2-0.1,3.3,0c0.8,0.1,1.7,0.2,2.4,0.5c1.3,0.5,2.5,1.3,3.6,2.2
				c0.4,0.3,0.7,0.6,1,1c0.6,0.8,0.8,1.9,1.5,2.6c0.3,0.3,0.8,0.6,1.3,0.6c0.5-0.1,0.9-0.7,1.3-1c0.4-0.3,0.6-0.8,1.1-1
				c0.5-0.2,1-0.3,1.5-0.4c1-0.1,2.1-0.1,3.1,0.3c0.5,0.2,1.2,0.4,1.3,0.9c0.1,0.4-0.5,0.8-0.9,1c-0.9,0.4-2.1-0.5-3-0.1
				c-1.3,0.6-1.6,2.6-2.7,3.5c-0.6,0.5-1.2,0.7-1.9,1c-1.1,0.4-2.2,0.4-3.3,0.7c-0.8,0.2-1.6-0.5-2.3-0.9c-1.1-0.8-1.7-2.1-2.6-3
				c-0.8-0.8-1.8-1.4-2.7-2c-0.8-0.6-1.6-1.3-2.6-1.5c-0.9-0.2-1.8-0.2-2.7,0.1c-0.7,0.2-1.3,0.6-1.7,1c-0.6,0.6-0.7,1.6-1.2,2.3
				c-0.4,0.5-0.9,0.9-1.4,1.1c-0.7,0.4-1.4,0.7-2.2,0.6c-0.7,0-1.3-0.5-2-0.8c-0.5-0.2-0.9-0.5-1.4-0.7c-0.4-0.2-0.8-0.4-1.2-0.7
				c-0.5-0.3-1.2-0.5-1.5-1c-0.3-0.4-0.4-1-0.2-1.4c0.1-0.3,0.5-0.5,0.8-0.5c0.8,0,1.1,1.3,1.9,1.3c0.7,0,1.2-0.7,1.7-1.2
				c0.7-0.7,0.9-1.9,1.7-2.6c0.7-0.6,1.6-0.7,2.4-1c0.7-0.2,1.3-0.5,2-0.5c0.5,0,1.1,0.1,1.6,0.2c0.5,0.1,0.8,0,1.6,0.2
				C-3765.6-557.7-3764.5-558.2-3763.8-558.3L-3763.8-558.3z"/>
			<g id="g1316">
				<path id="path1318" class="st0" d="M-3780.3-520.5c0.9,2.7,2.9,5.8,4.7,8.1c2.4,3.8,5,7.5,7.7,11.1c1.9,1.9,4.2,3.6,5.7,5.9
					c4.3-4.1,8.8-8,13.5-11.7c1.6-1-1.7-1.4-2.5-2.2c-2.2-1.3-4.4-3-6.3-4.7c-2-2.4-4.6-4.5-5.7-7.5c-1.2-2.9-4.4-5.7-6.2-8.3
					c-1.5-0.8-2.2,1.5-3.2,2.2C-3775.2-525.2-3777.8-522.9-3780.3-520.5L-3780.3-520.5z"/>
				<path id="path1320" class="st0" d="M-3737-508.1c3.6,3.7,7.5,7.3,11.9,10.2c1.1,1.6,2.1,1.7,3,0c2.1-2.4,4.4-4.6,5.6-7.6
					c1.5-3.3,3.6-6.3,5.7-9.3c-1.6-2.3-3.4-4.4-4-7.2c-1-3.2-2.6-5.8-3.8-9c-1.7-0.1-3.8,0.1-5-1.3c-0.9-0.4-0.4,2.6-0.7,3.5
					c-0.1,2.9-1.3,5.7-2,8.4c-2.3,3.9-2.5,5.9-6.3,8.5C-3733.4-511.3-3736.1-508.7-3737-508.1L-3737-508.1z"/>
			</g>
			<path id="path1322" class="st5" d="M-3768.3-528.6c2.5,4.2,5.6,7.9,8.1,12.1c1.2,1.7,3,2.8,4.5,4.2c1.3,1.2,2.7,2.3,4.2,3.1
				c1.8,1.2,3.6,2.7,5.8,2.9c1.7,0.1,3.5,0.5,5-0.4c1.6-1,3.9-1.4,5.3-2.7c2.5-1.9,4.5-3.3,6.4-5.6c1.4-2.3,2.6-4.8,3.3-7.4
				c1.2-2.9,1.5-6.9,1.8-10c-2.1-1.4-1.7-3.3-3.2-4.9c-1-1-1.5-2.9-2.5-3.1c-1.6,1.8-4.4,4.7-6.6,5.9c-2.8,1.8-5.4,4-8.5,5.2
				c-2.6,1.2-5.4,2.1-8.2,2.8c-2.7,0.1-5.5,0.5-8.2,0.4C-3763.5-526.9-3765.9-527.8-3768.3-528.6L-3768.3-528.6z"/>
			<path id="path1324" class="st0" d="M-3761.8-495.9l2.3,9.3l1.5,11.5l2.3,16.3l1.5,14.3l0.3,9.3v9.5l0.8,13.5l0.5,8.8l0.3,9h34.5
				l1-16.8l1.3-16.5l-0.3-16.5v-20.5l-1-11.8l-2-15l-2-7.5l-2,2.3l-5-3.5l-4.5-3.3l-2.8-2.8l-1.5-2l-3.8,1.5l-3.8,0.8l-3-0.8
				l-1.5-0.5l-4.3,4.3l-4.5,3.3L-3761.8-495.9z"/>
			<g id="g1326">
				<path id="path1328" class="st7" d="M-3743.8-505.9l3,17l1.8,14.3l2.3,16.3l1.8,16.3l0.5,12.3v17l-0.5,8.8l-0.5,9.5"/>
				<path id="path1330" class="st7" d="M-3732.3-394.6l1.3-21.8l-0.3-23.3l-2-21l-2-11l-1.5-11l-1.3-9.3l-2-9.5l-0.8-5.3"/>
			</g>
			<g id="g1332">
				<path id="path1334" class="st14" d="M-3746.3-490.9c0,2.2-1.8,4-4,4s-4-1.8-4-4s1.8-4,4-4S-3746.3-493.1-3746.3-490.9z"/>
				<path id="path1336" class="st14" d="M-3744-476.9c0,2.2-1.8,4-4,4s-4-1.8-4-4s1.8-4,4-4S-3744-479.1-3744-476.9z"/>
				<path id="path1338" class="st14" d="M-3741.8-461.6c0,2.2-1.8,4-4,4s-4-1.8-4-4s1.8-4,4-4S-3741.8-463.8-3741.8-461.6z"/>
				<path id="path1340" class="st14" d="M-3740.3-445.4c0,2.2-1.8,4-4,4s-4-1.8-4-4s1.8-4,4-4S-3740.3-447.6-3740.3-445.4z"/>
				<path id="path1342" class="st14" d="M-3719.3-444.4c0,2.2-1.8,4-4,4s-4-1.8-4-4s1.8-4,4-4S-3719.3-446.6-3719.3-444.4z"/>
				<path id="path1344" class="st14" d="M-3720-461.4c0,2.2-1.8,4-4,4s-4-1.8-4-4s1.8-4,4-4S-3720-463.6-3720-461.4z"/>
				<path id="path1346" class="st14" d="M-3722-477.1c0,2.2-1.8,4-4,4s-4-1.8-4-4s1.8-4,4-4S-3722-479.3-3722-477.1z"/>
				<path id="path1348" class="st14" d="M-3724.8-491.9c0,2.2-1.8,4-4,4s-4-1.8-4-4s1.8-4,4-4S-3724.8-494.1-3724.8-491.9z"/>
				<path id="path1350" class="st14" d="M-3740.3-430.1c0,2.2-1.8,4-4,4s-4-1.8-4-4s1.8-4,4-4S-3740.3-432.3-3740.3-430.1z"/>
				<path id="path1352" class="st14" d="M-3739.8-415.4c0,2.2-1.8,4-4,4s-4-1.8-4-4s1.8-4,4-4S-3739.8-417.6-3739.8-415.4z"/>
				<path id="path1354" class="st14" d="M-3740-401.9c0,2.2-1.8,4-4,4s-4-1.8-4-4s1.8-4,4-4S-3740-404.1-3740-401.9z"/>
				<path id="path1356" class="st14" d="M-3720.8-402.1c0,2.2-1.8,4-4,4s-4-1.8-4-4s1.8-4,4-4S-3720.8-404.3-3720.8-402.1z"/>
				<path id="path1358" class="st14" d="M-3720.3-416.4c0,2.2-1.8,4-4,4s-4-1.8-4-4s1.8-4,4-4S-3720.3-418.6-3720.3-416.4z"/>
				<path id="path1360" class="st14" d="M-3719.5-430.1c0,2.2-1.8,4-4,4s-4-1.8-4-4s1.8-4,4-4S-3719.5-432.3-3719.5-430.1z"/>
			</g>
			<path id="path1362" class="st15" d="M-3665.8-594c4.4-9.4,8.7-18.9,13.1-28.3c1.6-2.3,2.2,0.7,2.1,2.2
				c-0.2,10.1-0.5,20.2-0.7,30.3c-1.3-0.2-3.7-3-4.1-1.3c-1.5,7.3-2.2,14.8-3.4,22.2c2.9-0.1,5.9,0.2,8.7-0.1c2.1-1.4,4.9-2,5.9-4.6
				c1.5-1.4,1.2-3.9,1-5.8c-0.2-1.8-0.6-3.4-2.3-5.1c-1.4-1.6,1.8-2.5,2.6-3.7c2.7-2.2,5-4.7,7-7.6c2.2-3.1,4.8-6,7.2-9
				c2.1,2.6,4.2,5.3,5.8,8.2c2.3,4.3,4,9.1,5.4,13.8c1.1,4.9,2.2,9.7,2.3,14.7c0.5,5.9,0.3,11.9-0.6,17.7c-0.7,4.1-1.8,8.2-3,12.2
				c-1.7,4.3-3.2,8.6-5.8,12.4c-2.5,4.5-3.6,5.6-6.3,10.1c-1.5,2.4-6,7.2-8.4,8.8c-1.3,1.1-2.6,2.2-3.9,3.3
				c-3.1-7.7-6.1-15.4-10-22.8c-0.3-1.4-2.8-3.4-0.5-4.2c1.3-1.1,2.5-2.2,3.1-3.7c1-2.5,1.3-5.5,0.5-8.1c-0.7-2.2-2.3-4.3-4.3-5.5
				c-2.2-1.3-5.1-2.7-7.6-1.4c-1.9-0.1-2.3-1.7-4.2-1.7c-2.6,1-3.6,0.7-3.2-1.4c-0.7-1-3.1-0.6-4.5-0.7c-1.6,0.1-2.8,2-3.6,3.3
				c-1.2,1.1-0.6,3.5-2,4.3c-1.4-0.1-2.3-2.6-2.6-4c-0.6-1.7-0.1-3.6,0.7-5.1c0.8-1.3,3.3-2.8,0.8-3.8c-2.6-2.3-4.6-5.1-7.2-7.4
				c2.4-1.7,3.1-2.9,4.9-3.9c1.9-1,6.2-0.8,6.2-1.9c-1-1.6-0.8-3.3-0.1-5c0.5-2.4,3.3-3.1,5.3-4c0.1,2.2-0.4,4.4,1,6.3
				c0.9,1.7,2.4,3.3,4.5,3.3c0.7-1.5,0.7-4,1.1-5.8c0.9-5.4,1.7-10.7,2.6-16.1C-3663.5-593.5-3664.7-593.8-3665.8-594L-3665.8-594z"
				/>
		</g>
		<g id="g1364">
			<path id="path1366" class="st16" d="M-3666.2-571.4l-3.2,18.7"/>
			<path id="path1368" class="st16" d="M-3658.8-568.9l-2.8,19.1"/>
			<path id="path1370" class="st16" d="M-3651.3-622.7l-7.1,27.2l3.5,4.2"/>
			<path id="path1372" class="st16" d="M-3658.4-596.1l-3.5,2.5"/>
		</g>
		<path id="path1374" class="st17" d="M-3632.3-564.8c-1-0.2-1.7,0-2.5,0.5c-0.8,0.5-1.3,1.1-1.5,2.1c-0.2,1,0,1.6,0.5,2.5
			c0.4,0.8,0.8,1.2,0.9,1.9c0.2,0.7,0.2,2.1,0.1,2.7c-0.1,0.7-0.1,0.6-0.2,1l-0.7-0.1c-0.7-0.1-1.8-1.1-2.1-1.5l-0.8-1.2
			c-0.5-0.8-1.1-1.3-2.1-1.5s-1.7,0-2.5,0.5c-0.8,0.5-1.3,1.1-1.5,2.1c-0.2,1,0,1.7,0.5,2.5c0.5,0.8,1.1,1.3,2.1,1.5s1.7,0,2.5-0.5
			l1.2-0.8c0.4-0.3,1.8-0.6,2.5-0.5l0.7,0.1c-0.2,0.9-0.6,2.5-1,3.2c-0.5,0.9-1.4,1.7-2.2,2.2c-0.8,0.5-3,1.4-3,1.4l-0.1,0.3
			c0,0,3.4,0.1,4.1,0.2l2,0.4c0.7,0.1,3.8,1.5,3.8,1.5l0.1-0.3c0,0-1.7-1.7-2.2-2.5s-0.9-1.9-1.1-3c-0.1-0.8,0.2-2.4,0.4-3.3
			l0.7,0.1c0.7,0.1,1.8,1.1,2.1,1.5l0.8,1.2c0.5,0.8,1.1,1.3,2.1,1.5s1.7,0,2.5-0.5c0.8-0.5,1.3-1.1,1.5-2.1c0.2-1,0-1.7-0.5-2.5
			c-0.5-0.8-1.1-1.3-2.1-1.5c-1-0.2-1.7,0-2.5,0.5l-1.2,0.8c-0.4,0.3-1.8,0.6-2.5,0.5l-0.7-0.1c0.1-0.5,0.1-0.3,0.2-1
			c0.1-0.7,0.8-1.9,1.2-2.5s0.9-0.8,1.7-1.3c0.8-0.5,1.3-1.1,1.5-2.1c0.2-1,0-1.7-0.5-2.5C-3630.7-564.2-3631.3-564.6-3632.3-564.8
			L-3632.3-564.8z"/>
		<g id="g1376">
			<path id="path1378" class="st14" d="M-3891.5-388.6c2.8-12.7,4.9-25.5,7.1-38.3c2.3-11.8,5.4-19.2,7.1-24.2
				c3.6-9.6,4-10.2,8-19.6c2.6-6.4,3.8-11.5,7.4-17.4c2.3-4.4,4.5-9.1,7.7-12.9c2.8-3.9,6.3-9.2,9.9-12.3c2.6-3,5.8-5.3,9.2-7.5
				c1.7-1.4,3.2-2.4,3,0.6c0.8,5.4,2.1,10.7,2.6,16c-0.2,7.4-0.4,14.9-1.5,22.3c-0.5,5.2-1.1,10.4-2.6,15.5
				c-2.4,10.4-5.1,20.7-8.3,30.9c-2.6,7.4-4.8,15-8.3,22c-3,6.7-6.7,13.1-10,19.7c-1.4,1.7-2.5,4-4.1,5.3
				C-3873.4-388.6-3882.4-388.6-3891.5-388.6L-3891.5-388.6z"/>
			<g id="g1380">
				<path id="path1382" class="st18" d="M-3834.8-520.5c1.4,8.6,3.1,17.2,2.4,26c-0.6,17.8-4.8,35.2-10.1,52.2
					c-5,14.4-9.5,29.2-17.7,42.1c-2.3,3.8-4.1,7.8-6.8,11.2c1.8,0.6,3.4,0.8,4.2-1.3c3.4-5.1,6.4-10.5,9.2-15.9
					c3.1-6.5,6.3-13,8.6-19.8c2.1-7.7,5.2-15.1,7.1-22.9c2.9-11,5.1-22.2,7.1-33.5c0.5-7.6,1.5-15.2,1.1-22.8
					c-0.3-5.1-1.6-10-2.3-15.1c0.2-2.4-1.1-2.8-2.4-0.8C-3834.5-520.9-3834.7-520.7-3834.8-520.5L-3834.8-520.5z"/>
				<path id="path1384" class="st18" d="M-3878.7-388.6c3-3.9,5.6-8.1,8.2-12.3c2.9-4.8,5.6-9.8,7.9-14.9
					c3.9-8.6,7.3-17.5,10.2-26.5c1.4-4.3,2.3-8.6,3.5-13c1.5-5.6,3.3-11.2,4.4-16.9c1-5.4,1.7-10.8,2-16.3
					c0.3-5.6,0.3-11.3-0.3-16.9c-0.3-2.8-1.1-5.5-1.6-8.3l2.7-2.1c1,7.1,2,14.3,1.9,21.5c-0.1,7.6-1.2,15.3-2.5,22.8
					c-1.1,6-2.7,11.9-4.3,17.8c-2,7.4-4.3,14.8-6.8,22c-1.7,4.8-3.6,9.5-5.6,14.1c-2.7,6-5.5,12-8.8,17.7c-2.3,4-5.1,7.8-7.4,11.5
					L-3878.7-388.6z"/>
			</g>
			<path id="path1386" class="st19" d="M-3852.9-503.5c1.3,0.4,3.2,0.4,2,2.1c-1,2.9-2.4,5.6-3.1,8.6c-0.6,2.4-0.1,5-0.3,7.4
				c0.1,1.8-0.6,3.6-1.2,5.3c-1.5,1.8-2.6,4.2-4.9,5.2c-1.3,0.5-2.2,1.6-2.8,2.8c-1,1.3-1.1,3-1.7,4.5c1.5,1.7,1.3-1,1.7-2
				c0.5-1.4,1.5-2.6,2.4-3.8c1.5-1.2,3.1-2.1,4.9-2.5c1.3-0.3,2.4,1,3.6,1.4c1,0.6,0.6,2.4,0.8,3.5c-0.1,2.8-1.5,5.4-0.9,8.2
				c-0.2,1.1,1,3-0.5,3.4c-2.7,1.5-5.7,3-7.3,5.8c-1.4,1.6-1.7,3.7-2.2,5.7c0,1.7,0,3.4,0,5.1c-1.5-1.5-3.2-3-4-5
				c-0.3-1.5-0.4-3.1-1-4.5c-1,1-1.6,2.2-2.2,3.4c-0.8,1.7-1.4,3.5-1.8,5.4c-0.6,2.3-0.7,4.8-1.1,7.2c-0.5,2.7-1.8,5.2-1.6,8
				c0.2,1,3,0.4,3.8,1.5c0.9,1.2,1.3,3.3,0.5,4.6c-0.9,1.5-3.1,2-4.8,2.1c-1.5,0.1-3.1-0.3-4.4-1.4c-0.8,3-1.5,6.1-3,8.8
				c-0.9,2.2-1.9,4.4-3.7,6c-0.7,0.3-2.6,2.9-2.4,1.6c1.4-9,2.7-18,4.7-26.8c5-15.1,10.3-30.1,15.9-45c3.5-6.8,6.8-13.7,10.3-20.5
				C-3855.8-499.5-3854.3-501.5-3852.9-503.5L-3852.9-503.5z"/>
			<g id="g1388">
				<path id="path1390" class="st7" d="M-3876.7-451l6.9,2.3"/>
				<path id="path1392" class="st7" d="M-3878.5-447.1l6.9,2.1"/>
				<path id="path1394" class="st7" d="M-3879.6-443.2l7.4,2.1"/>
				<path id="path1396" class="st7" d="M-3880.8-439.5l8.1,2.5"/>
			</g>
			<path id="path1398" class="st14" d="M-3841.2-437.8c0,0,3.1,0.5,4.6,1.1c1.8,0.7,3.4,1.8,5.1,2.7c1.4,0.8,2.8,1.5,4.2,2.3
				c1,0.6,2,1.1,3,1.8c0.8,0.5,2.3,1.6,2.3,1.6s-1.6,3-2.1,4.6c-0.5,1.6-0.6,3.3-1.1,5c-0.4,1.3-1,2.5-1.4,3.7
				c-0.4,1.1-1.1,3.4-1.1,3.4s-1.1-2.1-1.9-2.8c-0.6-0.5-1.5-0.7-2.3-1.1c-1.3-0.6-2.7-1.1-4.1-1.6c-1.6-0.6-3.2-1.2-4.8-1.9
				c-0.9-0.4-1.7-1.1-2.7-1.4c-0.7-0.2-1.4-0.3-2.1-0.4c-0.5,0-1.6,0-1.6,0s2.2-5.5,3.2-8.3
				C-3842.9-432.1-3841.2-437.7-3841.2-437.8L-3841.2-437.8z"/>
			<path id="path1400" class="st19" d="M-3825.8-417.8c-0.3-0.7-0.6-1.5-1.1-2c-1.9-1.9-4.6-2.7-6.9-3.9c-2.1-1-4-2.4-6.3-2.9
				c-1.4-0.3-2.9-0.2-4.3,0.1l1.1-3.7c2.1-0.1,4.4-0.2,6.4,0.4c1.8,0.5,3.4,1.7,5.1,2.6c1.7,0.9,3.6,1.5,5.1,2.7
				c0.9,0.7,1.6,1.8,2.4,2.7c0,0,0.1,0.1,0.1,0.1L-3825.8-417.8z"/>
		</g>
		<g id="g1402">
			<path id="path1404" class="st16" d="M-3818.9-430.5c1-1.9,2.1-3.8,2.8-5.8c0.8-2,1.5-4.1,1.8-6.3c1.2-8.9,0.6-18,0-27
				c-0.3-3.8-0.8-7.6-1.5-11.3c-0.6-3.1-1.5-6.2-2.4-9.3"/>
			<path id="path1406" class="st16" d="M-3814.7-439.7c1.6-2.4,3.5-4.7,4.9-7.3c1.6-3.1,2.8-6.3,3.9-9.6c0.8-2.3,1.9-4.6,2.2-7.1
				c0.1-0.8-0.1-1.7-0.2-2.5"/>
		</g>
		<g id="g1408">
			<path id="path1410" class="st5" d="M-3676.1-420.1c2-0.3,4.2-0.7,6-1.7c3.9-2.3,6.8-6.1,9.8-9.6c0.9-1,1.5-2.1,2.3-3.2
				c-1.2-0.9-2.8-1.4-3.8-2.6c-0.9-1-1.4-2.4-1.7-3.7c-1.2-4.8-0.3-10-0.6-14.9c-0.1-2.5-0.1-4.9-0.6-7.4c-0.3-1.5-0.7-3.1-1.4-4.5
				c-1.3-2.6-3.1-4.9-5.1-7c-1-1-2.1-1.8-3.3-2.5c-3.2-1.9-6.9-2.6-10-4.5c-1.1-0.7-2-1.8-3.2-2.4c-0.8-0.4-1.9-0.9-2.7-0.5
				c-0.7,0.4-1,1.5-0.9,2.3c0,1,0.7,1.9,1.4,2.6c1,1.1,2.4,1.7,3.7,2.4c2.4,1.5,5,2.6,7.3,4.1c1.4,1,2.7,2.1,4,3.2
				c0.9,0.7,1.7,2.9,2.5,2.2c0.5-0.4-0.6-1.2-1-1.7c-1.8-1.9-4.1-3.1-6.4-4.4c-1.9-1.1-3.9-2.2-6-3c-2.1-0.7-4.4-2-6.6-1.4
				c-0.9,0.2-1.7,1-2.1,1.9c-0.4,1-0.3,2.2,0.1,3.2c0.5,1.6,1.8,2.9,3,4.1c1.2,1.2,3.7,2.4,4.1,3c0.2,0.3-0.7,0.2-1,0.3
				c-1.1,0.2-2.3,0-3.2,0.6c-0.9,0.6-1.4,1.6-1.8,2.6c-0.4,1-0.6,2.1-0.3,3.1c0.6,2.1,2.1,3.5,4.1,5.1c0.4,0.3-1,0-1.5,0.1
				c-0.8,0.1-1.8,0-2.4,0.6c-0.8,0.7-0.9,1.9-1.1,2.9c-0.2,1.1-0.1,2.3,0.3,3.4c0.5,1.5,1.9,2.5,2.7,3.9c0.3,0.6-1.4-0.8-1.6,1.3
				c-0.1,1.3,0.4,2.6,1,3.8c1.3,2.8,3.5,5.1,5.4,7.4c1.1,1.3,2,2.8,3.4,3.6c1.1,0.6,2.5,0.1,3.6,0.8c0.8,0.5,1.2,1.5,1.7,2.3
				C-3677.2-422.7-3676.8-421.3-3676.1-420.1L-3676.1-420.1z"/>
			<g id="g1412">
				<path id="path1414" class="st14" d="M-3684.9-476.3c0,0,2.9,1.5,4.4,2.3c1,0.5,3,1.5,3,1.5l6.4-35.1l-8-3.7L-3684.9-476.3z"/>
				<path id="path1416" class="st14" d="M-3669.7-550.2c-1.3,1.6-2.7,3.1-3.4,5c-0.4,1.9-0.7,3.9-0.2,5.8c0.5,0.9,1.6,1,2.5,1.2
					c1.7,0.2,3.4-0.2,5.1,0.3c0.7,0.2,1.6,0.2,2.1,0.9c0.5-0.3,0.4-1.2,0.6-1.7c0.4-1.7,0.7-1.6,1.1-3.3c0.2-1.4,0.4-4,0.4-5.5
					c0-0.7-0.7-2.3-1.5-2.6c-0.7-0.4-1.4-0.6-2.1-1c-0.8-0.3-1.6,0.1-2.4,0.2C-3668.3-550.7-3669-550.5-3669.7-550.2L-3669.7-550.2z
					"/>
			</g>
		</g>
		<g id="g1418">
			<path id="path1420" class="st16" d="M-3673.3-543.8c1.2-1,2.5-1.9,3.7-3c1-1,2.2-1.9,2.7-3.2c0.1-0.3,0-0.6,0-0.9"/>
			<path id="path1422" class="st16" d="M-3672.4-539c1.5-1.4,1.6-2.1,2.6-3c1-0.9,2.1-1.2,3.4-2.2c1.1-0.8,1.8-2,2.2-3.3
				c0.3-0.9,0.3-2.3,0.4-2.8"/>
			<path id="path1424" class="st20" d="M-3668.3-538.1c1.1-1,1.1-1.7,2.5-2.3c0.9-0.4,2-0.9,2.7-1.7c0.9-1,1.5-3,1.7-3.6"/>
		</g>
		<path id="path1426" class="st14" d="M-3672.9-538.7c-1.8-1-3.9,1.7-5.3,3.2c-1.4,1.5-2,3.6-2.9,5.5c-1.2,2.6-2.4,5.2-3.1,7.9
			c-0.7,2.7-0.7,5.6-1,8.4c-0.2,1.9-2.1,4.7-0.5,5.8c0.7,0.5,1.4-1.4,2.2-1.2c1.1,0.2,0.8,2.7,1.9,2.6c1.2-0.1,0.4-3.3,1.6-3.2
			c1.3,0.1,0.1,3.2,1.3,3.6c0.8,0.2,1.1-1.5,1.9-1.4c1,0.1,1,2.2,1.9,2.1c0.8-0.1,0.5-2,1.2-1.9c1.1,0,0.5,2.6,1.6,2.8
			c0.9,0.2,1.2-1.8,2.1-1.8c1,0,1.3,2.2,2.3,2.1c1.6-0.2,1.3-4.2,2.8-3.9c1.3,0.3-0.4,3.7,0.9,3.9c2,0.2,2-3.5,2.7-5.3
			c0.8-2,1.6-4,1.9-6.1c0.6-4,0.4-8.2-0.2-12.2c-0.3-2.1-0.9-4.2-1.9-6c-0.8-1.4-1.9-2.9-3.4-3.7c-1.9-1.1-4.3-0.9-6.5-1.1
			C-3671.8-538.7-3672.5-538.3-3672.9-538.7L-3672.9-538.7z"/>
		<g id="g1428">
			<path id="path1430" class="st16" d="M-3683.3-509.3c0.2-2.1,0.2-4.3,0.6-6.4c0.4-2.5,0.9-5,1.6-7.5c0.9-3,2.3-5.9,3.5-8.8
				c0.4-1,0.8-2.1,1.4-3.1c1-1.4,2.1-4.5,3.6-3.7c0.3,0.2-0.2,0.7-0.3,1.1c-0.8,2.3-2,4.5-2.8,6.8c-0.9,2.6-1.8,5.2-2.4,7.9
				c-0.6,2.9-0.6,5.8-1,8.8c-0.2,1.5-0.6,2.6-0.7,4.6"/>
			<path id="path1432" class="st16" d="M-3676.4-508c0.4-3.9,0.7-7.8,1.2-11.7c0.3-2.2,0.7-4.5,1.1-6.7c0.6-3.2,1.1-6.4,2.2-9.5
				c0.4-1,0.5-2.5,1.5-2.9c0.4-0.2,1.3,0,1.3,0.4c0,2.2-1.2,4-1.5,6c-0.3,2.5,0.2,5,0,7.5c-0.3,3.4-1,6.7-1.6,10
				c-0.4,2.4-1.2,4.5-1.4,7"/>
			<path id="path1434" class="st16" d="M-3669.5-506.4c0.4-2.2,0.9-4.3,1.3-6.5c0.6-3.9,1.2-7.8,1.2-11.7c0-2.7-0.8-5.3-0.9-8
				c0-1.3,0.1-2.6,0.2-3.9c0.1-0.5-0.2-1.3,0.3-1.6c0.4-0.3,1-0.1,1.3,0.2c1.4,1.2,1,3.6,1.7,5.4c0.4,1,1,1.8,1.3,2.8
				c0.5,1.9,0.5,3.9,0.6,5.9c0.1,1.7,0.1,3.4-0.1,5c-0.2,2.3-0.9,4.4-1.2,6.7c-0.2,1.3-0.4,2.5-0.6,3.8"/>
		</g>
		<g id="g1436">
			<path id="path1438" class="st21" d="M-3805.5-391.1c-0.8,0-0.2,0.8-0.3,2.5c39.8-0.1,79.7,0.1,119.5,0c-0.1-1.8-0.2-1.2-0.3-3
				c-4.4-1.1-8.9-1.7-13.5-2.2c-4.2-0.4-8.4-0.6-12.7-0.7c-6.4-0.2-12.8,0-19.2,0c-4.8,0-9.7,0-14.5-0.1c-4.4-0.1-8.9-0.5-13.3-0.6
				c-7.4-0.1-14.9-0.2-22.3,0.3c-5.2,0.3-10.4,1-15.5,1.9C-3800.2-392.5-3804.2-391.3-3805.5-391.1L-3805.5-391.1z"/>
			<path id="path1440" class="st14" d="M-3684.6-428.5c0,0-2.4-2.2-3.4-3.5c-1.5-1.9-4-6.3-4-6.3l-9.1,49.7h9.2L-3684.6-428.5z"/>
		</g>
		<g id="g1442">
			<g id="g1444">
				<path id="path1446" class="st7" d="M-3658-434.6c3.3,2.2,5.6,5.1,8.8,7.1c3.1,1.8,6.7,2.5,9.9,4.2c1.7,0.9,3.7,1.7,5,3.2
					c0.6,0.6,0.7,1.5,1.1,2.3"/>
				<path id="path1448" class="st7" d="M-3645-425.6c2.4-0.8,4.9-1.6,7.4-1.8c1.6-0.2,3.3-0.1,4.9,0.2c1.4,0.3,3.2,0,3.9,1.4"/>
			</g>
			<path id="path1450" class="st14" d="M-3673-408.8c0,0,4.5-0.6,6.6-1.7c2.2-1.1,4.5-2.4,6.5-4c2.4-1.8,4.7-4.7,6.7-6.9
				c1.1-1.2,2-2.6,2.9-3.9c0.5-0.7,1.3-2.2,1.3-2.2s-6.4-6.2-9.6-7.8c-1.6,0.7-2.4,3.7-3.8,5.5c-1.8,2.4-3.9,4.6-6.2,6.5
				c-1,0.8-2.4,1.3-3.6,1.7c-1.6,0.5-3.2,0.9-4.4,1.2c0.1,1.6,0.5,2.2,0.9,3.2c0.6,1.7,1.2,2.5,1.7,4.3
				C-3673.5-411.7-3673-408.8-3673-408.8L-3673-408.8z"/>
			<g id="g1452">
				<path id="path1454" class="st7" d="M-3673.3-411.1c1.7-0.4,3.5-0.7,5.2-1.3c1.2-0.4,2.4-1,3.5-1.7c1.5-0.9,2.8-2,4.1-3.1
					c1.5-1.3,2.9-2.8,4.2-4.3c2-2.4,3.9-4.8,5.6-7.4"/>
				<path id="path1456" class="st7" d="M-3729.5-607.8c1.5,3.9,3.2,7.8,3.7,12c0.3,2.8-1,5.6-0.5,8.4c0.4,2.4,2.4,4.2,3,6.5
					c1.2,4.6,0.9,9.4,1,14.1c0.1,6.1,3,9.6,2.9,14.5c-0.1,3.2-0.6,6.6-2.2,9.3c-1.3,2.3-3.5,3.9-5.7,5.4"/>
				<path id="path1458" class="st7" d="M-3724.8-607.2c1.5,3.9,3.2,7.8,3.7,12c0.3,2.8-1,5.6-0.5,8.4c0.4,2.4,2.4,4.2,3,6.5
					c1.2,4.6,0.9,9.4,1,14.1c0.1,6.1,3,9.6,2.9,14.5c0,3.8-0.7,7.7-2.5,11.1c-1.6,3.1-5,6.1-7.2,7.6"/>
				<path id="path1460" class="st7" d="M-3719.3-604.5c1.5,3.9,3.2,7.8,3.7,12c0.3,2.8-0.7,5.6-0.5,8.4c0.4,4.3,2.5,8.3,3,12.5
					c0.3,2.6,0.1,3,0.2,7.7c0.1,6.1,2.6,8.2,2.9,12.5c0.2,3.3,0.1,6.7-1.1,9.8c-1.5,4-4.8,9.1-7.4,10.6"/>
				<path id="path1462" class="st7" d="M-3707.3-585.7c-1,5.1,1.3,8.3,2.2,12.5c0.6,2.7,1.6,5.3,2,8.1c0.5,3.4-0.3,6.9,0.3,10.3
					c0.7,3.8,4.2,6.4,3.8,11.1c-0.2,2.4-2,3.2-3.2,4.7c-2,2.5-4.8,3.5-4.9,8.5c-0.1,4.4,1.7,6,4.2,6.4c1.9,0.3,3.6-0.6,4.3-3.7
					c0.9-4.1-4.3-5.9-4.5-1.3"/>
				<path id="path1464" class="st7" d="M-3699.2-557.6c0.6,5.3,3.9,6.5,4.5,9.6c0.5,2.9,0.4,6,1.3,8.6c0.8,2.2,2.9,3.9,3.3,6.2
					c0.6,3.1-0.2,6.5-1.3,9.5c-0.7,1.9-1.6,3.8-3,5.3c-1.7,1.8-4,3-6.2,3.9"/>
				<path id="path1466" class="st7" d="M-3782.3-571.9c-1.3,1.5-2.8,3-3.4,4.9c-0.6,1.9-0.3,3.9-0.1,5.9c0.6,4.9,2.2,9.6,3.6,14.3
					c1.6,5.2,5,10,5.5,15.3c0.3,3.9-1.8,3.2-2.7,4.8c-0.8,1.5-0.5,2.6-2.3,4.4"/>
				<path id="path1468" class="st7" d="M-3788.9-554.4c1.3,3.7,3.1,8.2,4.5,12.4c1,3.1,2.9,6.1,2.9,9.4c0,2.9-0.9,5.9-2.4,8.4
					c-1.4,2.4-3.4,4.6-5.7,6.1c-1.2,0.8-2.7,1.4-4.2,1.3c-1.6-0.1-3.2-0.9-4.4-1.9c-1.8-1.5-3.8-3.6-4-6c-0.1-2.4,1.4-5,3.3-6.5
					c1.4-1,3.8-2.1,5.2-1c1.6,1.2,1.9,4.8,0.3,6c-0.9,0.7-2.4-1.8-3.3-1.1c-1.1,0.9-0.5,3.3,0.4,4.4c0.8,0.9,1.9,1.7,3,1.7
					c1.6,0,3.1-1.2,4.2-2.4c2-2,3.6-4.3,4-7.4c-0.4-4.3-2.5-7.5-4.9-10.8"/>
				<path id="path1470" class="st7" d="M-3795.6-536.6c2.7-0.4,2.5-3.2,3.9-4.7c1.7-1.7,3.7-3.1,5.5-4.7"/>
				<path id="path1472" class="st7" d="M-3796.3-540.8c1.6-1.5,1.7-2.3,2.7-3.4c1.1-1.1,2.5-1.7,3.5-2.8c1-1.1,2-3.4,2.5-3.9"/>
				<path id="path1474" class="st7" d="M-3792.9-537.5c1.4,1,2.9,2.8,3.5,4.6c1,2.8,0.1,6.1,0.2,8.8"/>
				<path id="path1476" class="st7" d="M-3713.7-600.4c1.5,3.9,1.4,7.8,2,11.7c0.5,2.9,0.1,5.7,1,8.6c2.7,8.2,1.8,12.3,2,16
					c0.2,3.6,1.5,4.4,2.6,9c1,4.1,1.8,5.3,1.6,8.1c-0.2,2.3-1.5,4.3-2.4,6.4c-1.4,3.1-3.9,5.8-4.6,9.2c-0.9,4.7,0.9,8.4,3.9,10.8
					c2.1,1.6,5.6,2,8,0.9c3.2-1.6,5.2-6,5.6-9.1c0.6-4.3-5.5-10.9-10.5-8"/>
			</g>
		</g>
	</g>
	<g id="g1478" transform="matrix(-1,0,0,-1,355.62,1564.68)">
		<path id="path1480" class="st2" d="M4064.5,1821.4c-9.1,4.8-19.3,7.2-28.4,11.9c-3.2,2.2-5.2,5.2-6.1,8.9
			c-14.2,36.7-28.3,73.5-42.5,110.2c15.5,0.3,30,0.2,45,0c-1.7-2.5-5.3-5.9-3-9.1c4-9.2,5.6-17.4,8.9-26.8c0.8-2.7,1.6-4.8,4.6-5.8
			c0.9,3,1.3,4.1,1.6,7.2c1,6.3,2.6,12.5,6.1,18c2,3.8,3.9,10.2,5.9,14c8.6-2.2,16.3-3.1,25.9-3.8c12.6-0.3,26.1-0.4,39-0.8
			c13,0,26.1,1.3,39.1,1.3c6.9,1.8,9.8,1.5,15.3,3.3c1.2-7.7,1.8-13.7,4.1-21.1c2.4-4.3,1.6-9.3,2.6-13.9c2.8,1.8,2.8,5.4,3.8,8.3
			c1.3,3.7,3.5,7,2.7,11.3c-0.4,3.5-0.9,7,1.5,10c0.8,2.6,0.4,8.1,4.2,8c12.1,0.2,24.2,0.3,36.3,0.5c3.5-6.7,4.2-14.2,4-21.6
			c-0.1-6,0.9-12.2-2.1-17.7c-2.4-6.7-4.5-13.6-9-19.3c-5.3-7.6-9.8-15.6-13.6-24.1c-3.9-7.7-6.5-15.9-11.4-23.1
			c-3.5-4.8-6-10.7-11.5-13.5c-4.7-3.2-10.3-8.9-16.3-8.1C4142.8,1825.7,4095.7,1807.8,4064.5,1821.4L4064.5,1821.4z"/>
		<path id="path1482" class="st3" d="M4067.8,1828.3l3.9,9.9l5.3,15.9l5.3,18l3.9,19.8l1.8,12.4l0.4,9.9l1.1,10.3l1.1,11.3l0.4,9.9
			l18.4,0.7h34.3l16.8,0.8l7.6-25.6l2.1-13.4l0.7-6.7l1.8-45.3l-1.1-16.3l1.1-12.4l-0.4-2.1l-15.6-10.6l-25.1-6.4l-29.3-1.1
			l-24.4,7.4l-12.4,7.1l3.2,8.1L4067.8,1828.3z"/>
		<g id="g1484">
			<g id="g1486">
				<path id="path1488" class="st4" d="M4077,1766.6c-2.4,2.4-3.6,5.8-4.4,9c-1,3.8,1.5,7.4,0.5,11.2c-1.7,2.9-5.3,4-7.1,6.9
					c-1.8,2.7-1.1,6.1-0.3,9c2.5,2.8-2.3,2.2-3.7,2.8c-3.1,1.4-5.4,3.5-6.9,6.2c-1.3,3.8,0.1,8.1,3,10.8c2,2.2,4.5,4,7.2,5.1
					c3.7,0.5,7.5,0,10.2-2.5c1.9-1.5,3.8-3.3,5-6.5c1.3,2.6,4,1.2,5.1-0.8c2.1-2.2,4.6-4,6.8-6c1.6-2.1-2.5-3.3-3.3-5.1
					c-4.6-5.7-6.3-13.1-7.8-20.1c-1.3-6.8-1.6-13.7-1.2-20.6C4081.3,1763.1,4077.8,1766.1,4077,1766.6L4077,1766.6z"/>
				<path id="path1490" class="st4" d="M4127.3,1732.4c0,1.6,3.3,5.8,4,9c0.6,2.8-0.5,5.6-0.2,8.4c0.2,1.5,0.7,3,1.2,4.5
					c0.9,2.7,2.5,5.1,3.1,7.8c0.9,4.6,0.1,9.4,0.3,14c0.2,6,0.3,8.7,1.4,14.3c0.5,2.7-1.1,5.1-2.4,7.4c-0.5,0.9-1.8,1.4-1.9,2.4
					c-0.1,1.3,1.3,2.3,2,3.5c0.7,1.2,1.3,2.5,2.1,3.6c0.7,0.9,1.4,2.1,2.5,2.5c1.3,0.5,3,0.7,4.3,0c0.5,2.8,0.8,2.7,1.4,4
					c2,4.5,3.1,10.3,7.3,12.8c2.5,1.4,5.7,0.3,8.5,0c3.6-0.4,7.7-0.4,10.7-2.4c1-0.7,1.6-1.9,2.2-2.9c1.2-2.2,2.1-4.5,2.6-6.9
					c0.6-2.9,1-6,0.2-8.9c-0.6-2.3-2.9-3.8-3.7-6c-1-2.6,0-5.7-1.3-8.1c-1.4-2.5-4.6-3.7-6.7-5.6c-0.7-0.6-1.7-1-1.9-1.9
					c-0.5-2.3,2.5-4.2,2.4-6.5c-0.1-3.4-2.7-6.3-4.3-9.4c-1-1.8-2.5-3.4-3.3-5.3c-0.5-1.4-0.4-2.9-0.9-4.3c-0.7-2.1-1.9-3.9-2.8-5.9
					c-1.4-3.1-1.9-6.6-3.8-9.3c-1.4-2.1-3.4-3.8-5.4-5.3c-1.9-1.4-4.1-2.5-6.4-3.3C4134.9,1733.1,4131,1732.8,4127.3,1732.4
					L4127.3,1732.4z"/>
			</g>
			<path id="path1492" class="st5" d="M4080.5,1764.4c-0.9,3.9-0.8,7.2-0.7,10.8c0.1,4.8,0.7,9.6,1.8,14.3c1,4.3,2.4,8.6,4.4,12.6
				c1.5,2.9,3,6,5.4,8.1c2.5,2.2,5.8,3.6,9,4.2c3.7,0.7,7.5,0.2,11.2-0.7c3.4-0.8,6.7-2.4,9.7-4.2c4-2.4,7.8-5.4,11-8.9
				c2.4-2.7,5.3-5.6,6-9.1c0.7-3.9-2-7.8-2.5-11.8c-0.3-2.9,0.1-5.9,0-8.9c-0.1-3.2-0.1-6.5-0.8-9.7c-0.7-3.2-3.1-6-3.6-9.3
				c-0.6-3.4,1.4-7.1,0.5-10.4c-0.9-3.7-3-8.1-5.9-9.8c-2.6-1.7-6.6-0.3-9.9,0.3c-6,1.1-11.7,3.4-17.4,5.7
				c-6.3,2.6-11.1,8.6-14.6,14.4c-2,3.4-1.8,7.8-3.3,11.5c-0.1,0.1-0.1,0.3-0.2,0.4C4080.6,1764.1,4080.6,1764.3,4080.5,1764.4
				L4080.5,1764.4z"/>
			<path id="path1494" class="st6" d="M4081.8,1749.9c-0.3,2,1.8,4.5,2.9,1.6c2-3.2,5.2-7.3,8.1-9.9c3.9-3.9,8.2-4.5,13.1-6.6
				c9.9-3.7,20.7-3.1,30.9-1.3c5.9,1.3,11.5,5,14,10.6c1.5,1.8,0.7,8.6,4.2,6.6c2.3-1.3,3.5-4.8,3.1-7.3c-0.3-5.2-4.4-9.3-8.7-11.9
				c-8.5-4.9-18.7-5.9-28.3-5c-8.4,0.1-16.6,2-24.3,5.3c-3.9,1.2-7.5,3.3-10.3,6.3c-2.2,2.4-5.7,4.2-5.9,7.9
				C4080.6,1747.5,4081.3,1748.7,4081.8,1749.9L4081.8,1749.9z"/>
			<path id="path1496" class="st2" d="M4081.5,1744.4c-2,4.5,2.5,8.2,1,12.9c0.1,3.6-1.8,7.3-4.9,9c-5,2.3-8.7-3.3-10.9-7
				c-2.4-4.2-0.3-9.6-0.8-14.5c-0.3-5.8,0.4-11.1,3.7-16.8c6.9-5,12.9-8.7,21-10.8c5.1-2.1,12.1-4.4,17.8-4.5
				c13.5-1.1,27.2-1.1,40.6,1.3c5.3,1.6,10.9,2.5,15.6,5.6c7.7,5.8,10.6,16.5,8.7,25.6c-1.6,4.5-4.2,9.4-8.6,11.7
				c-3.9,2-10.2,2.8-10.3-3.4c-0.4-4,5.7-5.8,3.4-10.5c-1-5.7-5.8-9.6-10.8-11.8c-7.8-4.3-16.9-4.7-25.6-4.2
				c-9.9-0.3-19.6,2.8-28.5,6.9C4088.6,1736.3,4084.3,1740,4081.5,1744.4L4081.5,1744.4z"/>
			<g id="g1498">
				<path id="path1500" class="st7" d="M4086,1750.1c1.7-0.6,4.1-1.8,6-1c1.7,0.7,2.8,2.6,3.2,4.3c1,4-1.3,8-2.1,12
					c-0.5,2.8-1.1,5.6-1.8,8.4c-0.4,1.5-2,3-1.5,4.5c0.3,1,1.6,1.4,2.5,2c1,0.7,2,2.1,3.2,2c1.2-0.1,1.6-1.8,2.7-2.3
					c0.8-0.4,1.8-0.2,2.7-0.4c0.7-0.1,1.7,0.1,2.2-0.5c0.9-1,0.9-2.8,0.3-4.1c-0.1-0.2-0.4-0.3-0.6-0.4"/>
				<path id="path1502" class="st7" d="M4105,1755.4c-0.2-0.9-0.7-1.8-0.5-2.7c0.2-0.8,0.8-1.5,1.5-2c1.1-0.7,2.5-0.7,3.8-0.9
					c1.8-0.3,3.7-0.4,5.6-0.4c1.2,0,2.4,0,3.5,0.4c1.2,0.4,2.1,1.4,3.1,2.2c1.3,1,2.4,2.2,3.7,3.2c0.2,0.2,0.4,0.3,0.6,0.4"/>
				<path id="path1504" class="st7" d="M4106.4,1760.8c0.5-0.8,0.8-1.9,1.5-2.5c1.1-1,2.6-1.7,4.1-1.9c1.6-0.2,3.3,0,4.8,0.6
					c1.6,0.7,2.6,2.5,4.2,3.2c0.6,0.3,1.3,0.1,1.9,0.4c0.8,0.3,1.3,1.2,2.2,1.4"/>
			</g>
			<path id="path1506" class="st8" d="M4107.7,1761.2c0.8-1,2.7-0.9,4.1-1.2c1.1-0.2,2.2-0.4,3.3-0.2c1.2,0.1,2.4,0.7,3.5,1.1
				c1.1,0.4,2.1,1.1,3.2,1.3c0.8,0.1,2.2-0.8,2.5-0.1c0.4,1.2-2.5,1.2-3.7,1.9c-0.7,0.5-1.3,1.2-2.1,1.6c-0.6,0.3-1.3,0.5-2,0.7
				c-1.1,0.2-2.2,0.2-3.3,0.1c-0.9-0.1-1.8-0.1-2.6-0.5c-0.6-0.3-0.8-0.5-1.5-1.1c-0.7-0.6-1-1.2-1.3-1.9
				C4107.7,1762.3,4107.4,1761.6,4107.7,1761.2L4107.7,1761.2z"/>
			<path id="path1508" class="st7" d="M4094,1758.5c-0.8-1.1-1.3-2.4-2.4-3.2c-0.8-0.6-1.9-0.9-2.9-1c-1.1-0.1-2.1,0.3-3.1,0.6
				c-0.9,0.2-1.8,0.6-2.7,0.8"/>
			<path id="path1510" class="st8" d="M4093.6,1760.4c-0.5-1.9-3.5-1.7-5.4-2c-1-0.1-2,0-3,0.2c-1,0.2-2.2,0.2-2.8,0.9
				c-0.4,0.4-0.6,1.1-0.5,1.7c0.1,0.6,0.7,0.9,1.2,1.3c0.7,0.7,1.3,1.5,2.2,1.8c1,0.4,2.2,0.4,3.3,0.3c0.8-0.1,1.7-0.3,2.4-0.8
				C4092.1,1763,4094,1761.8,4093.6,1760.4L4093.6,1760.4z"/>
			<g id="g1512">
				<path id="path1514" class="st9" d="M4090,1760.9c0,1.4-1.1,2.6-2.4,2.6c-1.3,0-2.4-1.1-2.4-2.6c0,0,0,0,0,0
					c0-1.4,1.1-2.6,2.4-2.6C4088.9,1758.4,4090,1759.5,4090,1760.9C4090,1760.9,4090,1760.9,4090,1760.9z"/>
				<path id="path1516" class="st10" d="M4116.8,1762.8c0,1.4-1.2,2.6-2.6,2.6c-1.5,0-2.7-1.1-2.7-2.6c0,0,0,0,0,0
					c0-1.4,1.2-2.6,2.6-2.6C4115.6,1760.3,4116.8,1761.4,4116.8,1762.8C4116.8,1762.8,4116.8,1762.8,4116.8,1762.8z"/>
			</g>
			<path id="path1518" class="st11" d="M4088.5,1760.5c0,0.4-0.3,0.8-0.7,0.8c-0.4,0-0.7-0.4-0.7-0.8c0-0.4,0.3-0.8,0.7-0.8
				C4088.2,1759.7,4088.5,1760.1,4088.5,1760.5z"/>
			<path id="path1520" class="st11" d="M4115.5,1762.6c0,0.5-0.4,1-0.9,1c-0.5,0-0.9-0.4-0.9-1s0.4-1,0.9-1
				C4115.1,1761.6,4115.5,1762,4115.5,1762.6z"/>
			<g id="g1522" transform="translate(1.414,-0.177)">
				<path id="path1524" class="st12" d="M4089.1,1789.6c0.3-1,1.5-1.3,2.2-1.9c0.6-0.4,0.9-1.2,1.7-1.2c0.9-0.1,1.9,0,2.5,0.8
					c0.5,0.5,1.6,0.4,1.6-0.4c0.4-0.4,1.6-0.3,2.1-0.3c1.4,0.3,2.1,0.9,3.3,1.6c0.5,0.3,1.3,0.5,1.4,1.2c-0.2,0.8-1.4,0.6-1.7,1.2
					c-0.8,1-1.3,1.1-2.2,2.1c-0.7,0.9-1.5,1.8-2.6,1.9c-1.4,0.2-2.8-0.1-4.1-0.4c-0.9-0.2-1.8-0.7-2.1-1.7c-0.2-0.8-0.7-0.4-1.2-1.1
					c-0.3-0.6-0.6-1.2-0.9-1.8L4089.1,1789.6L4089.1,1789.6L4089.1,1789.6z"/>
				<path id="path1526" class="st12" d="M4089.1,1789.9c0.9-0.1,1.9-0.1,2.8-0.3c0.8-0.2,1,0.7,1.7,0.8c1,0.3,2.1,0.4,3.1,0.2
					c0.7-0.2,1.2-0.7,1.8-1c0.6-0.4,1.4-0.5,2.2-0.4c0.8,0.1,1.6,0.4,2.4,0.5c0.2,0,0.3-0.1,0.5-0.1"/>
			</g>
			<path id="path1528" class="st13" d="M4098.2,1782.7c0.8,0,2.2-0.1,3.3,0c0.8,0.1,1.7,0.2,2.4,0.5c1.3,0.5,2.5,1.3,3.6,2.2
				c0.4,0.3,0.7,0.6,1,1c0.6,0.8,0.8,1.9,1.5,2.6c0.3,0.3,0.8,0.6,1.3,0.6c0.5-0.1,0.9-0.7,1.3-1c0.4-0.3,0.7-0.8,1.1-1
				c0.5-0.2,1-0.3,1.5-0.4c1-0.1,2.1-0.1,3.1,0.3c0.5,0.2,1.2,0.4,1.3,0.9c0.1,0.4-0.5,0.8-0.9,1c-0.9,0.4-2.1-0.5-3-0.1
				c-1.3,0.6-1.6,2.6-2.7,3.5c-0.6,0.5-1.2,0.7-1.9,1c-1.1,0.4-2.2,0.4-3.3,0.7c-0.8,0.2-1.6-0.5-2.3-0.9c-1.1-0.8-1.7-2.1-2.6-3
				c-0.8-0.8-1.8-1.4-2.7-2c-0.8-0.6-1.6-1.3-2.6-1.5c-0.9-0.2-1.8-0.2-2.7,0.1c-0.7,0.2-1.3,0.6-1.7,1c-0.6,0.6-0.7,1.6-1.2,2.3
				c-0.4,0.5-0.9,0.9-1.4,1.1c-0.7,0.4-1.4,0.7-2.2,0.6c-0.7,0-1.3-0.5-2-0.8c-0.5-0.2-0.9-0.5-1.4-0.7c-0.4-0.2-0.8-0.4-1.2-0.7
				c-0.5-0.3-1.2-0.5-1.5-1c-0.3-0.4-0.4-1-0.2-1.4c0.1-0.3,0.5-0.5,0.8-0.5c0.8,0,1.1,1.3,1.9,1.3c0.7,0,1.2-0.7,1.7-1.2
				c0.7-0.7,0.9-1.9,1.7-2.6c0.7-0.6,1.6-0.7,2.4-1c0.7-0.2,1.3-0.5,2-0.5c0.5,0,1.1,0.1,1.6,0.2c0.5,0.1,0.8,0,1.6,0.2
				C4096.4,1783.3,4097.5,1782.8,4098.2,1782.7L4098.2,1782.7z"/>
			<g id="g1530">
				<path id="path1532" class="st0" d="M4081.7,1820.5c0.9,2.7,2.9,5.8,4.7,8.1c2.4,3.8,5,7.5,7.7,11.1c1.9,1.9,4.2,3.6,5.7,5.9
					c4.3-4.1,8.8-8,13.5-11.7c1.6-1-1.7-1.4-2.5-2.2c-2.2-1.3-4.4-3-6.3-4.7c-2-2.4-4.6-4.5-5.7-7.5c-1.2-2.9-4.4-5.7-6.2-8.3
					c-1.5-0.8-2.2,1.5-3.2,2.2C4086.8,1815.8,4084.2,1818.1,4081.7,1820.5L4081.7,1820.5z"/>
				<path id="path1534" class="st0" d="M4125,1832.9c3.6,3.7,7.5,7.3,11.9,10.2c1.1,1.6,2.1,1.7,3,0c2.1-2.4,4.4-4.6,5.6-7.6
					c1.5-3.3,3.6-6.3,5.7-9.3c-1.6-2.3-3.4-4.4-4-7.2c-1-3.2-2.6-5.8-3.8-9c-1.7-0.1-3.8,0.1-5-1.3c-0.9-0.4-0.4,2.6-0.7,3.5
					c-0.1,2.9-1.3,5.7-2,8.4c-2.3,3.9-2.5,5.9-6.3,8.5C4128.6,1829.7,4125.9,1832.3,4125,1832.9L4125,1832.9z"/>
			</g>
			<path id="path1536" class="st5" d="M4093.8,1812.4c2.5,4.2,5.6,7.9,8.1,12.1c1.2,1.7,3,2.8,4.5,4.2c1.3,1.2,2.7,2.3,4.2,3.1
				c1.8,1.2,3.6,2.7,5.8,2.9c1.7,0.1,3.5,0.5,5-0.4c1.6-1,3.9-1.4,5.3-2.7c2.5-1.9,4.5-3.3,6.4-5.6c1.4-2.3,2.6-4.8,3.3-7.4
				c1.2-2.9,1.5-6.9,1.8-10c-2.1-1.4-1.7-3.3-3.2-4.9c-1-1-1.5-2.9-2.5-3.1c-1.6,1.8-4.4,4.7-6.6,5.9c-2.8,1.8-5.4,4-8.5,5.2
				c-2.6,1.2-5.4,2.1-8.2,2.8c-2.7,0.1-5.5,0.5-8.2,0.4C4098.5,1814.1,4096.1,1813.2,4093.8,1812.4L4093.8,1812.4z"/>
			<path id="path1538" class="st0" d="M4100.3,1845.1l2.3,9.3l1.5,11.5l2.3,16.3l1.5,14.3l0.3,9.3v9.5l0.8,13.5l0.5,8.8l0.3,9h34.5
				l1-16.8l1.3-16.5l-0.3-16.5v-20.5l-1-11.8l-2-15l-2-7.5l-2,2.3l-5-3.5l-4.5-3.3l-2.8-2.8l-1.5-2l-3.8,1.5l-3.8,0.8l-3-0.8
				l-1.5-0.5l-4.3,4.3l-4.5,3.3L4100.3,1845.1z"/>
			<g id="g1540">
				<path id="path1542" class="st7" d="M4118.3,1835.1l3,17l1.8,14.3l2.3,16.3l1.8,16.3l0.5,12.3v17l-0.5,8.8l-0.5,9.5"/>
				<path id="path1544" class="st7" d="M4129.8,1946.4l1.3-21.8l-0.3-23.3l-2-21l-2-11l-1.5-11l-1.3-9.3l-2-9.5l-0.8-5.3"/>
			</g>
			<g id="g1546">
				<path id="path1548" class="st14" d="M4115.8,1850.1c0,2.2-1.8,4-4,4s-4-1.8-4-4s1.8-4,4-4S4115.8,1847.9,4115.8,1850.1z"/>
				<path id="path1550" class="st14" d="M4118,1864.1c0,2.2-1.8,4-4,4s-4-1.8-4-4s1.8-4,4-4S4118,1861.9,4118,1864.1z"/>
				<path id="path1552" class="st14" d="M4120.3,1879.4c0,2.2-1.8,4-4,4s-4-1.8-4-4s1.8-4,4-4S4120.3,1877.2,4120.3,1879.4z"/>
				<path id="path1554" class="st14" d="M4121.8,1895.6c0,2.2-1.8,4-4,4s-4-1.8-4-4s1.8-4,4-4S4121.8,1893.4,4121.8,1895.6z"/>
				<path id="path1556" class="st14" d="M4142.8,1896.6c0,2.2-1.8,4-4,4s-4-1.8-4-4s1.8-4,4-4S4142.8,1894.4,4142.8,1896.6z"/>
				<path id="path1558" class="st14" d="M4142,1879.6c0,2.2-1.8,4-4,4s-4-1.8-4-4s1.8-4,4-4S4142,1877.4,4142,1879.6z"/>
				<path id="path1560" class="st14" d="M4140,1863.9c0,2.2-1.8,4-4,4s-4-1.8-4-4s1.8-4,4-4S4140,1861.7,4140,1863.9z"/>
				<path id="path1562" class="st14" d="M4137.3,1849.1c0,2.2-1.8,4-4,4s-4-1.8-4-4s1.8-4,4-4S4137.3,1846.9,4137.3,1849.1z"/>
				<path id="path1564" class="st14" d="M4121.8,1910.9c0,2.2-1.8,4-4,4s-4-1.8-4-4s1.8-4,4-4S4121.8,1908.7,4121.8,1910.9z"/>
				<path id="path1566" class="st14" d="M4122.3,1925.6c0,2.2-1.8,4-4,4s-4-1.8-4-4s1.8-4,4-4S4122.3,1923.4,4122.3,1925.6z"/>
				<path id="path1568" class="st14" d="M4122,1939.1c0,2.2-1.8,4-4,4s-4-1.8-4-4s1.8-4,4-4S4122,1936.9,4122,1939.1z"/>
				<path id="path1570" class="st14" d="M4141.3,1938.9c0,2.2-1.8,4-4,4s-4-1.8-4-4s1.8-4,4-4S4141.3,1936.7,4141.3,1938.9z"/>
				<path id="path1572" class="st14" d="M4141.8,1924.6c0,2.2-1.8,4-4,4s-4-1.8-4-4s1.8-4,4-4S4141.8,1922.4,4141.8,1924.6z"/>
				<path id="path1574" class="st14" d="M4142.5,1910.9c0,2.2-1.8,4-4,4s-4-1.8-4-4s1.8-4,4-4S4142.5,1908.7,4142.5,1910.9z"/>
			</g>
			<path id="path1576" class="st15" d="M4196.2,1747c4.4-9.4,8.7-18.9,13.1-28.3c1.6-2.3,2.2,0.7,2.1,2.2
				c-0.2,10.1-0.5,20.2-0.7,30.3c-1.3-0.2-3.7-3-4.1-1.3c-1.5,7.3-2.2,14.8-3.4,22.2c2.9-0.1,5.9,0.2,8.7-0.1c2.1-1.4,4.9-2,5.9-4.6
				c1.5-1.4,1.2-3.9,1-5.8c-0.2-1.8-0.6-3.4-2.3-5.1c-1.4-1.6,1.8-2.5,2.6-3.7c2.7-2.2,5-4.7,7-7.6c2.2-3.1,4.8-6,7.2-9
				c2.1,2.6,4.2,5.3,5.8,8.2c2.3,4.3,4,9.1,5.4,13.8c1.1,4.9,2.2,9.7,2.3,14.7c0.5,5.9,0.3,11.9-0.6,17.7c-0.7,4.1-1.8,8.2-3,12.2
				c-1.7,4.3-3.2,8.6-5.8,12.4c-2.5,4.5-3.6,5.6-6.3,10.1c-1.5,2.4-6,7.2-8.4,8.8c-1.3,1.1-2.6,2.2-3.9,3.3
				c-3.1-7.7-6.1-15.4-10-22.8c-0.3-1.4-2.8-3.4-0.5-4.2c1.3-1.1,2.5-2.2,3.1-3.7c1-2.5,1.3-5.5,0.5-8.1c-0.7-2.2-2.3-4.3-4.3-5.5
				c-2.2-1.3-5.1-2.7-7.6-1.4c-1.9-0.1-2.3-1.7-4.2-1.7c-2.6,1-3.6,0.7-3.2-1.4c-0.7-1-3.1-0.6-4.5-0.7c-1.6,0.1-2.8,2-3.6,3.3
				c-1.2,1.1-0.6,3.5-2,4.3c-1.4-0.1-2.3-2.6-2.6-4c-0.6-1.7-0.1-3.6,0.7-5.1c0.8-1.3,3.3-2.8,0.8-3.8c-2.6-2.3-4.6-5.1-7.2-7.4
				c2.4-1.7,3.1-2.9,5-3.9c1.9-1,6.2-0.8,6.2-1.9c-1-1.6-0.8-3.3-0.1-5c0.5-2.4,3.3-3.1,5.3-4c0.1,2.2-0.4,4.4,1,6.3
				c0.9,1.7,2.4,3.3,4.5,3.3c0.7-1.5,0.7-4,1.1-5.8c0.9-5.4,1.7-10.7,2.6-16.1C4198.5,1747.5,4197.3,1747.2,4196.2,1747L4196.2,1747
				z"/>
		</g>
		<g id="g1578">
			<path id="path1580" class="st16" d="M4195.8,1769.6l-3.2,18.7"/>
			<path id="path1582" class="st16" d="M4203.2,1772.1l-2.8,19.1"/>
			<path id="path1584" class="st16" d="M4210.7,1718.3l-7.1,27.2l3.5,4.2"/>
			<path id="path1586" class="st16" d="M4203.6,1744.9l-3.5,2.5"/>
		</g>
		<path id="path1588" class="st17" d="M4229.7,1776.2c-1-0.2-1.7,0-2.5,0.5c-0.8,0.5-1.3,1.1-1.5,2.1c-0.2,1,0,1.6,0.5,2.5
			c0.4,0.8,0.8,1.2,0.9,1.9c0.2,0.7,0.2,2.1,0.1,2.7c-0.1,0.7-0.1,0.6-0.2,1l-0.7-0.1c-0.7-0.1-1.8-1.1-2.1-1.5l-0.8-1.2
			c-0.5-0.8-1.1-1.3-2.1-1.5c-1-0.2-1.7,0-2.5,0.5c-0.8,0.5-1.3,1.1-1.5,2.1c-0.2,1,0,1.7,0.5,2.5c0.5,0.8,1.1,1.3,2.1,1.5
			c1,0.2,1.7,0,2.5-0.5l1.2-0.8c0.4-0.3,1.8-0.6,2.5-0.5l0.7,0.1c-0.2,0.9-0.6,2.5-1,3.2c-0.5,0.9-1.4,1.7-2.2,2.2
			c-0.8,0.5-3,1.4-3,1.4l-0.1,0.3c0,0,3.4,0.1,4,0.2l2,0.4c0.7,0.1,3.8,1.5,3.8,1.5l0.1-0.3c0,0-1.7-1.7-2.2-2.5
			c-0.5-0.8-0.9-1.9-1.1-3c-0.1-0.8,0.2-2.4,0.4-3.3l0.7,0.1c0.7,0.1,1.8,1.1,2.1,1.5l0.8,1.2c0.5,0.8,1.1,1.3,2.1,1.5
			c1,0.2,1.7,0,2.5-0.5c0.8-0.5,1.3-1.1,1.5-2.1c0.2-1,0-1.7-0.5-2.5c-0.5-0.8-1.1-1.3-2.1-1.5c-1-0.2-1.7,0-2.5,0.5l-1.2,0.8
			c-0.4,0.3-1.8,0.6-2.5,0.5l-0.7-0.1c0.1-0.5,0.1-0.3,0.2-1s0.8-1.9,1.2-2.5c0.5-0.6,0.9-0.8,1.7-1.3c0.8-0.5,1.3-1.1,1.5-2.1
			c0.2-1,0-1.7-0.5-2.5C4231.3,1776.8,4230.7,1776.4,4229.7,1776.2L4229.7,1776.2z"/>
		<g id="g1590">
			<path id="path1592" class="st14" d="M3970.5,1952.4c2.8-12.7,4.9-25.5,7.1-38.3c2.3-11.8,5.4-19.2,7.1-24.2
				c3.6-9.6,4-10.2,8-19.6c2.6-6.4,3.8-11.4,7.4-17.4c2.3-4.4,4.5-9.1,7.7-12.9c2.8-3.9,6.3-9.2,9.9-12.3c2.6-3,5.8-5.3,9.2-7.5
				c1.7-1.4,3.2-2.4,3,0.6c0.8,5.4,2.1,10.7,2.6,16c-0.2,7.4-0.4,14.9-1.5,22.3c-0.5,5.2-1.1,10.4-2.6,15.5
				c-2.4,10.4-5.1,20.7-8.3,30.9c-2.6,7.4-4.8,15-8.3,22c-3,6.7-6.7,13.1-10,19.7c-1.4,1.7-2.5,4-4.1,5.3
				C3988.6,1952.4,3979.6,1952.4,3970.5,1952.4L3970.5,1952.4z"/>
			<g id="g1594">
				<path id="path1596" class="st18" d="M4027.2,1820.5c1.4,8.6,3.1,17.2,2.4,26c-0.6,17.8-4.8,35.2-10.1,52.2
					c-5,14.4-9.5,29.2-17.7,42.1c-2.3,3.8-4.1,7.8-6.8,11.2c1.8,0.6,3.4,0.8,4.2-1.3c3.4-5.1,6.4-10.5,9.2-15.9
					c3.1-6.5,6.3-13,8.6-19.8c2.1-7.7,5.2-15.1,7.1-22.9c2.9-11,5.1-22.2,7.1-33.5c0.5-7.6,1.5-15.2,1.1-22.8
					c-0.3-5.1-1.6-10-2.3-15.1c0.2-2.4-1.1-2.8-2.4-0.8C4027.5,1820.1,4027.3,1820.3,4027.2,1820.5L4027.2,1820.5z"/>
				<path id="path1598" class="st18" d="M3983.3,1952.4c3-3.9,5.6-8.1,8.2-12.3c2.9-4.8,5.6-9.8,7.9-14.9
					c3.9-8.6,7.3-17.5,10.2-26.5c1.4-4.3,2.3-8.6,3.5-13c1.5-5.6,3.3-11.2,4.4-16.9c1-5.4,1.7-10.8,2-16.3
					c0.3-5.6,0.3-11.3-0.3-16.9c-0.3-2.8-1.1-5.5-1.6-8.3l2.7-2.1c1,7.1,2,14.3,1.9,21.5c-0.1,7.6-1.2,15.3-2.5,22.8
					c-1.1,6-2.7,11.9-4.3,17.8c-2,7.4-4.3,14.8-6.8,22c-1.7,4.8-3.6,9.5-5.6,14.1c-2.7,6-5.5,12-8.8,17.7c-2.3,4-5.1,7.8-7.4,11.5
					L3983.3,1952.4z"/>
			</g>
			<path id="path1600" class="st19" d="M4009.1,1837.5c1.3,0.4,3.2,0.4,2,2.1c-1,2.9-2.4,5.6-3.1,8.6c-0.6,2.4-0.1,5-0.3,7.4
				c0.1,1.8-0.6,3.6-1.2,5.3c-1.5,1.8-2.6,4.2-4.9,5.2c-1.3,0.5-2.2,1.6-2.8,2.8c-1,1.3-1.1,3-1.7,4.5c1.5,1.7,1.3-1,1.7-2
				c0.5-1.4,1.5-2.6,2.4-3.8c1.5-1.2,3.1-2.1,4.9-2.5c1.3-0.3,2.4,1,3.6,1.4c1,0.6,0.6,2.4,0.8,3.5c-0.1,2.8-1.5,5.4-0.9,8.2
				c-0.2,1.1,1,3-0.5,3.4c-2.7,1.5-5.7,3-7.3,5.8c-1.4,1.6-1.7,3.7-2.2,5.7c0,1.7,0,3.4,0,5.1c-1.5-1.5-3.2-3-4-5
				c-0.3-1.5-0.4-3.1-1-4.5c-1,1-1.6,2.2-2.2,3.4c-0.8,1.7-1.4,3.5-1.8,5.4c-0.6,2.3-0.7,4.8-1.1,7.2c-0.5,2.7-1.8,5.2-1.6,8
				c0.2,1,3,0.4,3.8,1.5c0.9,1.2,1.3,3.3,0.5,4.6c-0.9,1.5-3.1,2-4.8,2.1c-1.5,0.1-3.1-0.3-4.4-1.4c-0.8,3-1.5,6.1-3,8.8
				c-0.9,2.2-1.9,4.4-3.7,6c-0.7,0.3-2.6,2.9-2.4,1.6c1.4-9,2.7-18,4.7-26.8c5-15.1,10.3-30.1,15.9-45c3.5-6.8,6.8-13.7,10.3-20.5
				C4006.2,1841.5,4007.7,1839.5,4009.1,1837.5L4009.1,1837.5z"/>
			<g id="g1602">
				<path id="path1604" class="st7" d="M3985.3,1890l6.9,2.3"/>
				<path id="path1606" class="st7" d="M3983.5,1893.9l6.9,2.1"/>
				<path id="path1608" class="st7" d="M3982.4,1897.8l7.4,2.1"/>
				<path id="path1610" class="st7" d="M3981.2,1901.5l8.1,2.5"/>
			</g>
			<path id="path1612" class="st14" d="M4020.8,1903.3c0,0,3.1,0.5,4.6,1.1c1.8,0.7,3.4,1.8,5.1,2.7c1.4,0.8,2.8,1.5,4.2,2.3
				c1,0.6,2,1.1,3,1.8c0.8,0.5,2.3,1.6,2.3,1.6s-1.6,3-2.1,4.6c-0.5,1.6-0.6,3.3-1.1,5c-0.4,1.3-1,2.5-1.4,3.7
				c-0.4,1.1-1.1,3.4-1.1,3.4s-1.1-2.1-1.9-2.8c-0.6-0.5-1.5-0.7-2.3-1.1c-1.3-0.6-2.7-1.1-4.1-1.6c-1.6-0.6-3.2-1.2-4.8-1.9
				c-0.9-0.4-1.7-1.1-2.7-1.4c-0.7-0.2-1.4-0.3-2.1-0.4c-0.5,0-1.6,0-1.6,0s2.2-5.5,3.2-8.3
				C4019.1,1908.9,4020.8,1903.3,4020.8,1903.3L4020.8,1903.3z"/>
			<path id="path1614" class="st19" d="M4017.6,1914.6c1.4-0.3,2.9-0.4,4.3-0.1c2.3,0.5,4.2,1.8,6.3,2.9c2.4,1.2,5,2,6.9,3.9
				c0.5,0.5,0.8,1.3,1.1,2l1.6-3.9c0,0-0.1-0.1-0.1-0.1c-0.7-0.9-1.4-2-2.4-2.7c-1.5-1.2-3.4-1.8-5.1-2.7c-1.7-0.9-3.3-2.1-5.1-2.6
				c-2.1-0.6-4.3-0.5-6.4-0.4L4017.6,1914.6z"/>
		</g>
		<g id="g1616">
			<path id="path1618" class="st16" d="M4043.1,1910.5c1-1.9,2.1-3.8,2.8-5.8c0.8-2,1.5-4.1,1.8-6.3c1.2-8.9,0.6-18.1,0-27.1
				c-0.3-3.8-0.8-7.6-1.5-11.3c-0.6-3.1-1.5-6.2-2.4-9.3"/>
			<path id="path1620" class="st16" d="M4047.3,1901.3c1.6-2.4,3.5-4.7,4.9-7.3c1.6-3.1,2.8-6.3,3.9-9.6c0.8-2.3,1.9-4.6,2.2-7.1
				c0.1-0.8-0.1-1.7-0.2-2.5"/>
		</g>
		<g id="g1622">
			<path id="path1624" class="st5" d="M4185.9,1920.9c2-0.3,4.2-0.7,6-1.7c3.9-2.3,6.8-6.1,9.8-9.6c0.9-1,1.5-2.1,2.3-3.2
				c-1.2-0.9-2.8-1.4-3.8-2.6c-0.9-1-1.4-2.4-1.7-3.7c-1.2-4.8-0.3-10-0.6-14.9c-0.1-2.5-0.1-4.9-0.6-7.4c-0.3-1.5-0.7-3.1-1.4-4.5
				c-1.3-2.6-3.1-4.9-5.1-7c-1-1-2.1-1.8-3.3-2.5c-3.2-1.9-6.9-2.6-10-4.5c-1.1-0.7-2-1.8-3.2-2.4c-0.8-0.4-1.9-0.9-2.7-0.5
				c-0.7,0.4-1,1.5-0.9,2.3c0,1,0.7,1.9,1.4,2.6c1,1.1,2.4,1.7,3.7,2.4c2.4,1.5,5,2.6,7.3,4.1c1.4,1,2.7,2.1,4,3.2
				c0.9,0.7,1.7,2.9,2.5,2.2c0.5-0.4-0.6-1.2-1-1.7c-1.8-1.9-4.1-3.1-6.4-4.4c-1.9-1.1-3.9-2.2-6-3c-2.1-0.7-4.4-2-6.6-1.4
				c-0.9,0.2-1.7,1-2.1,1.9c-0.4,1-0.3,2.2,0.1,3.2c0.5,1.6,1.8,2.9,3,4.1c1.2,1.2,3.7,2.4,4.1,3c0.2,0.3-0.7,0.2-1,0.3
				c-1.1,0.2-2.3,0-3.2,0.6c-0.9,0.6-1.4,1.6-1.8,2.6c-0.4,1-0.6,2.1-0.3,3.1c0.6,2.1,2.1,3.5,4.1,5.1c0.4,0.3-1,0-1.5,0.1
				c-0.8,0.1-1.8,0-2.4,0.6c-0.8,0.7-0.9,1.9-1.1,2.9c-0.2,1.1-0.1,2.3,0.3,3.4c0.5,1.5,1.9,2.5,2.7,3.9c0.3,0.6-1.4-0.8-1.6,1.3
				c-0.1,1.3,0.4,2.6,1,3.8c1.3,2.8,3.5,5.1,5.4,7.4c1.1,1.3,2,2.8,3.4,3.6c1.1,0.6,2.5,0.1,3.6,0.8c0.8,0.5,1.2,1.5,1.7,2.3
				C4184.8,1918.3,4185.2,1919.7,4185.9,1920.9L4185.9,1920.9z"/>
			<g id="g1626">
				<path id="path1628" class="st14" d="M4177.1,1864.7c0,0,2.9,1.5,4.4,2.3c1,0.5,3,1.5,3,1.5l6.4-35.1l-8-3.7L4177.1,1864.7z"/>
				<path id="path1630" class="st14" d="M4192.3,1790.8c-1.3,1.6-2.7,3.1-3.4,5c-0.4,1.9-0.7,3.9-0.2,5.8c0.5,0.9,1.6,1,2.5,1.2
					c1.7,0.2,3.5-0.2,5.1,0.3c0.7,0.2,1.6,0.2,2.1,0.9c0.5-0.3,0.4-1.2,0.6-1.7c0.4-1.7,0.7-1.6,1.1-3.3c0.2-1.4,0.4-4,0.4-5.5
					c0-0.7-0.7-2.3-1.5-2.6c-0.7-0.4-1.4-0.6-2.1-1c-0.8-0.3-1.6,0.1-2.4,0.2C4193.7,1790.3,4193,1790.5,4192.3,1790.8
					L4192.3,1790.8z"/>
			</g>
		</g>
		<g id="g1632">
			<path id="path1634" class="st16" d="M4188.7,1797.2c1.2-1,2.5-1.9,3.7-3c1-1,2.2-1.9,2.7-3.2c0.1-0.3,0-0.6,0-0.9"/>
			<path id="path1636" class="st16" d="M4189.6,1802c1.5-1.4,1.6-2.1,2.6-3c1-0.9,2.1-1.2,3.4-2.2c1.1-0.8,1.8-2,2.2-3.3
				c0.3-0.9,0.3-2.3,0.4-2.8"/>
			<path id="path1638" class="st20" d="M4193.7,1802.9c1.1-1,1.1-1.7,2.5-2.3c0.9-0.4,2-0.9,2.7-1.7c0.9-1,1.5-3,1.7-3.6"/>
		</g>
		<path id="path1640" class="st14" d="M4189.1,1802.3c-1.8-1-3.9,1.7-5.3,3.2c-1.4,1.5-2,3.6-2.9,5.5c-1.2,2.6-2.4,5.2-3.1,7.9
			c-0.7,2.7-0.7,5.6-0.9,8.4c-0.2,1.9-2.1,4.7-0.5,5.8c0.7,0.5,1.4-1.4,2.2-1.2c1.1,0.2,0.8,2.7,1.9,2.6c1.2-0.1,0.4-3.3,1.6-3.2
			c1.3,0.1,0.1,3.2,1.3,3.6c0.8,0.2,1.1-1.5,1.9-1.4c1,0.1,1,2.2,1.9,2.1c0.8-0.1,0.5-2,1.2-1.9c1.1,0,0.5,2.6,1.6,2.8
			c0.9,0.2,1.2-1.8,2.1-1.8c1,0,1.3,2.2,2.3,2.1c1.6-0.2,1.3-4.2,2.8-3.9c1.3,0.3-0.4,3.7,0.9,3.9c2,0.2,2-3.5,2.7-5.3
			c0.8-2,1.6-4,1.9-6.1c0.6-4,0.4-8.2-0.2-12.2c-0.3-2.1-0.9-4.2-1.9-6c-0.8-1.4-1.9-2.9-3.4-3.7c-1.9-1.1-4.3-0.9-6.5-1.1
			C4190.2,1802.3,4189.5,1802.7,4189.1,1802.3L4189.1,1802.3z"/>
		<g id="g1642">
			<path id="path1644" class="st16" d="M4178.8,1831.7c0.2-2.1,0.2-4.3,0.6-6.4c0.4-2.5,0.9-5,1.6-7.5c0.9-3,2.3-5.9,3.5-8.8
				c0.4-1,0.8-2.1,1.4-3.1c1-1.4,2.1-4.5,3.6-3.7c0.3,0.2-0.2,0.7-0.3,1.1c-0.8,2.3-2,4.5-2.8,6.8c-0.9,2.6-1.8,5.2-2.4,7.9
				c-0.6,2.9-0.6,5.8-1,8.8c-0.2,1.5-0.6,2.6-0.7,4.6"/>
			<path id="path1646" class="st16" d="M4185.6,1833c0.4-3.9,0.7-7.8,1.2-11.7c0.3-2.2,0.7-4.5,1.1-6.7c0.6-3.2,1.1-6.4,2.2-9.5
				c0.4-1,0.5-2.5,1.5-2.9c0.4-0.2,1.3,0,1.3,0.4c0,2.2-1.2,4-1.5,6c-0.3,2.5,0.2,5,0,7.5c-0.3,3.4-1,6.7-1.6,10
				c-0.4,2.4-1.2,4.5-1.4,7.1"/>
			<path id="path1648" class="st16" d="M4192.5,1834.6c0.4-2.2,0.9-4.3,1.3-6.5c0.6-3.9,1.2-7.8,1.2-11.7c0-2.7-0.8-5.3-0.9-8
				c0-1.3,0.1-2.6,0.2-3.9c0.1-0.5-0.2-1.3,0.3-1.6c0.4-0.3,1-0.1,1.3,0.2c1.4,1.2,1,3.6,1.7,5.4c0.4,1,1,1.8,1.3,2.8
				c0.5,1.9,0.5,3.9,0.6,5.9c0.1,1.7,0.1,3.4,0,5c-0.2,2.3-0.9,4.4-1.2,6.7c-0.2,1.3-0.5,2.5-0.6,3.8"/>
		</g>
		<g id="g1650">
			<path id="path1652" class="st21" d="M4056.5,1949.9c-0.8,0-0.2,0.8-0.3,2.5c39.8-0.1,79.7,0.1,119.5,0c-0.1-1.8-0.2-1.2-0.3-3
				c-4.4-1.1-8.9-1.7-13.5-2.2c-4.2-0.4-8.4-0.6-12.7-0.7c-6.4-0.2-12.8,0-19.2,0c-4.8,0-9.7,0-14.5-0.1c-4.4-0.1-8.9-0.5-13.3-0.6
				c-7.4-0.1-14.9-0.2-22.3,0.3c-5.2,0.3-10.4,1-15.5,1.9C4061.8,1948.5,4057.8,1949.7,4056.5,1949.9L4056.5,1949.9z"/>
			<path id="path1654" class="st14" d="M4177.4,1912.5c0,0-2.4-2.2-3.4-3.5c-1.5-1.9-4-6.3-4-6.3l-9.1,49.7h9.2L4177.4,1912.5z"/>
		</g>
		<g id="g1656">
			<g id="g1658">
				<path id="path1660" class="st7" d="M4204,1906.4c3.3,2.2,5.6,5.1,8.8,7.1c3.1,1.8,6.7,2.5,9.9,4.2c1.7,0.9,3.7,1.7,5,3.2
					c0.6,0.6,0.7,1.5,1.1,2.3"/>
				<path id="path1662" class="st7" d="M4217,1915.4c2.4-0.8,4.9-1.6,7.4-1.8c1.6-0.2,3.3-0.1,4.9,0.2c1.4,0.3,3.2,0,3.9,1.4"/>
			</g>
			<path id="path1664" class="st14" d="M4189,1932.2c0,0,4.5-0.6,6.6-1.7c2.2-1.1,4.5-2.4,6.5-4c2.4-1.8,4.7-4.7,6.7-6.9
				c1.1-1.2,2-2.6,2.9-3.9c0.5-0.7,1.3-2.2,1.3-2.2s-6.4-6.2-9.6-7.8c-1.6,0.7-2.4,3.7-3.8,5.5c-1.8,2.4-3.9,4.6-6.2,6.5
				c-1,0.8-2.4,1.3-3.6,1.7c-1.6,0.5-3.2,0.9-4.4,1.2c0.1,1.6,0.5,2.2,0.9,3.2c0.6,1.7,1.2,2.5,1.7,4.3
				C4188.5,1929.3,4189,1932.2,4189,1932.2L4189,1932.2z"/>
			<g id="g1666">
				<path id="path1668" class="st7" d="M4188.8,1929.9c1.7-0.4,3.5-0.7,5.2-1.3c1.2-0.4,2.4-1,3.5-1.7c1.5-0.9,2.8-2,4.1-3.1
					c1.5-1.3,2.9-2.8,4.2-4.3c2-2.4,3.9-4.8,5.6-7.4"/>
				<path id="path1670" class="st7" d="M4132.5,1733.2c1.5,3.9,3.2,7.8,3.7,12c0.3,2.8-1,5.6-0.5,8.4c0.4,2.4,2.4,4.2,3,6.5
					c1.2,4.6,0.9,9.4,1,14.1c0.1,6.1,3,9.6,2.9,14.5c-0.1,3.2-0.6,6.6-2.2,9.3c-1.3,2.3-3.5,3.9-5.7,5.4"/>
				<path id="path1672" class="st7" d="M4137.2,1733.8c1.5,3.9,3.2,7.8,3.7,12c0.3,2.8-1,5.6-0.5,8.4c0.4,2.4,2.4,4.2,3,6.5
					c1.2,4.6,0.9,9.4,1,14.1c0.1,6.1,3,9.6,2.9,14.5c0,3.8-0.7,7.7-2.5,11.1c-1.6,3.1-5,6.1-7.2,7.6"/>
				<path id="path1674" class="st7" d="M4142.7,1736.5c1.5,3.9,3.2,7.8,3.7,12c0.3,2.8-0.7,5.6-0.5,8.4c0.4,4.3,2.5,8.3,3,12.5
					c0.3,2.6,0.1,3,0.2,7.7c0.1,6.1,2.6,8.2,2.9,12.5c0.2,3.3,0.1,6.7-1.1,9.8c-1.5,4-4.8,9.1-7.4,10.6"/>
				<path id="path1676" class="st7" d="M4154.7,1755.3c-1,5.1,1.3,8.3,2.2,12.5c0.6,2.7,1.6,5.3,2,8.1c0.5,3.4-0.3,6.9,0.3,10.3
					c0.7,3.8,4.2,6.4,3.8,11.1c-0.2,2.4-2,3.2-3.2,4.7c-2,2.5-4.8,3.5-4.9,8.5c-0.1,4.4,1.7,6,4.2,6.4c1.9,0.3,3.6-0.6,4.3-3.7
					c0.9-4.1-4.3-5.9-4.5-1.3"/>
				<path id="path1678" class="st7" d="M4162.8,1783.4c0.6,5.3,3.9,6.5,4.5,9.6c0.5,2.9,0.4,6,1.3,8.6c0.8,2.2,2.9,3.9,3.3,6.2
					c0.6,3.1-0.2,6.5-1.3,9.5c-0.7,1.9-1.6,3.8-3,5.3c-1.7,1.8-4,3-6.2,3.9"/>
				<path id="path1680" class="st7" d="M4079.7,1769.1c-1.3,1.5-2.8,3-3.4,4.9c-0.6,1.9-0.3,3.9-0.1,5.9c0.6,4.9,2.2,9.6,3.6,14.3
					c1.6,5.2,5,10,5.5,15.3c0.3,3.9-1.8,3.2-2.7,4.8c-0.8,1.5-0.5,2.6-2.3,4.4"/>
				<path id="path1682" class="st7" d="M4073.1,1786.6c1.3,3.7,3.1,8.2,4.5,12.4c1,3.1,2.9,6.1,2.9,9.4c0,2.9-0.9,5.9-2.4,8.4
					c-1.4,2.4-3.4,4.6-5.7,6.1c-1.2,0.8-2.7,1.4-4.2,1.3c-1.6-0.1-3.2-0.9-4.4-1.9c-1.8-1.5-3.8-3.6-4-6c-0.1-2.4,1.4-5,3.3-6.5
					c1.4-1.1,3.8-2.1,5.2-1c1.6,1.2,1.9,4.8,0.3,6c-0.9,0.7-2.4-1.8-3.3-1.1c-1.1,0.9-0.5,3.3,0.4,4.4c0.8,0.9,1.9,1.7,3,1.7
					c1.6,0,3.1-1.2,4.2-2.4c2-2,3.6-4.3,4-7.4c-0.4-4.3-2.5-7.5-4.9-10.8"/>
				<path id="path1684" class="st7" d="M4066.4,1804.4c2.7-0.4,2.5-3.2,3.9-4.7c1.7-1.7,3.7-3.1,5.5-4.7"/>
				<path id="path1686" class="st7" d="M4065.7,1800.2c1.6-1.5,1.7-2.3,2.7-3.4c1.1-1.1,2.5-1.7,3.5-2.8c1-1.1,2-3.4,2.5-3.9"/>
				<path id="path1688" class="st7" d="M4069.1,1803.6c1.4,1,2.9,2.8,3.5,4.6c1,2.8,0.1,6.1,0.2,8.8"/>
				<path id="path1690" class="st7" d="M4148.3,1740.6c1.5,3.9,1.4,7.8,2,11.7c0.5,2.9,0.1,5.7,1,8.6c2.7,8.2,1.8,12.3,2,16.1
					c0.2,3.6,1.5,4.4,2.6,9c1,4.1,1.8,5.3,1.6,8.1c-0.2,2.3-1.5,4.3-2.4,6.4c-1.4,3.1-3.9,5.8-4.6,9.2c-0.9,4.7,0.9,8.4,3.9,10.8
					c2.1,1.6,5.6,2,8,0.9c3.2-1.6,5.2-6,5.6-9.1c0.6-4.3-5.5-10.9-10.5-8"/>
			</g>
		</g>
	</g>
</g>
</svg>
