<?xml version="1.0" encoding="utf-8"?>
<!-- Generator: Adobe Illustrator 24.1.2, SVG Export Plug-In . SVG Version: 6.00 Build 0)  -->
<svg version="1.1" id="Слой_1" xmlns="http://www.w3.org/2000/svg" xmlns:xlink="http://www.w3.org/1999/xlink" x="0px" y="0px"
	 viewBox="0 0 359 539" style="enable-background:new 0 0 359 539;" xml:space="preserve">
<style type="text/css">
	.st0{fill:#FFFFFF;stroke:#000000;}
	.st1{fill:#FF5555;}
	.st2{fill:none;stroke:#000000;stroke-width:2;stroke-linecap:square;}
	.st3{fill:#FFAA55;stroke:#000000;stroke-linecap:round;stroke-linejoin:round;}
	.st4{fill:none;stroke:#000000;stroke-linecap:round;stroke-linejoin:round;}
	.st5{fill:#AA0000;stroke:#000000;stroke-linecap:round;stroke-linejoin:round;}
	.st6{fill:#000055;stroke:#000000;stroke-linecap:round;stroke-linejoin:round;}
	.st7{fill:#FFAAAA;stroke:#000000;stroke-linecap:round;stroke-linejoin:round;}
	.st8{fill:#FFFFFF;stroke:#000000;stroke-linecap:round;stroke-linejoin:round;}
	.st9{fill:#AAAAAA;stroke:#000000;}
	.st10{stroke:#000000;stroke-linecap:round;stroke-linejoin:round;}
	.st11{fill:#FF5555;stroke:#000000;stroke-linecap:round;stroke-linejoin:round;}
	.st12{fill:none;stroke:#000000;}
	.st13{fill:#FFAA55;stroke:#000000;}
	.st14{fill:#5555AA;stroke:#000000;stroke-linecap:round;stroke-linejoin:round;}
	.st15{fill:#AAAAFF;stroke:#000000;}
	.st16{fill:#AAAAFF;stroke:#000000;stroke-linecap:round;stroke-linejoin:round;}
	.st17{fill:none;stroke:#000000;stroke-width:0.994;stroke-linecap:round;stroke-linejoin:round;}
</style>
<g id="g1692" transform="translate(3930,87.64)">
	<path id="rect1694" class="st0" d="M-3900.6-87.6h299.1c16.5,0,29.9,13.4,29.9,29.9v479.1c0,16.5-13.4,29.9-29.9,29.9h-299.1
		c-16.5,0-29.9-13.4-29.9-29.9V-57.7C-3930.5-74.2-3917.1-87.6-3900.6-87.6z"/>
	<g id="g1696">
		<path id="path1698" class="st1" d="M-3911-58.1v50h5h5c5.5,0,10-4.5,10-10v-10c0-3-1.3-5.7-3.4-7.5c2.1-1.8,3.4-4.5,3.4-7.5v-5
			c0-5.5-4.5-10-10-10h-5H-3911z M-3906-53.1h5c2.8,0,5,2.2,5,5v5c0,2.8-2.2,5-5,5h-5V-53.1z M-3906-33.1h5c2.8,0,5,2.2,5,5v10
			c0,2.8-2.2,5-5,5h-5V-33.1z"/>
		<path id="path1700" class="st1" d="M-3591,421.9v-50h-5h-5c-5.5,0-10,4.5-10,10v10c0,3,1.3,5.7,3.4,7.5c-2.1,1.8-3.4,4.5-3.4,7.5
			v5c0,5.5,4.5,10,10,10h5H-3591z M-3596,416.9h-5c-2.8,0-5-2.2-5-5v-5c0-2.8,2.2-5,5-5h5V416.9z M-3596,396.9h-5c-2.8,0-5-2.2-5-5
			v-10c0-2.8,2.2-5,5-5h5V396.9z"/>
	</g>
	<g id="g1702" transform="translate(0,512.36)">
		<path id="path1704" class="st2" d="M-3881-570.5h280v380"/>
		<path id="path1706" class="st2" d="M-3621-90.5h-280v-380"/>
		<path id="path1708" class="st2" d="M-3901-330.5h300"/>
	</g>
	<g id="g1710">
		<path id="path1712" class="st1" d="M-3851-48.1c0,0,8,13.3,17.3,22.7c9.3,9.3,22.7,17.3,22.7,17.3s-13.3,8-22.7,17.3
			c-9.3,9.3-17.3,22.7-17.3,22.7s-8-13.3-17.3-22.7c-9.3-9.3-22.7-17.3-22.7-17.3s13.3-8,22.7-17.3C-3859-34.8-3851-48.1-3851-48.1"
			/>
		<path id="path1714" class="st1" d="M-3901,1.9c0,0,3,5,6.5,8.5s8.5,6.5,8.5,6.5s-5,3-8.5,6.5s-6.5,8.5-6.5,8.5s-3-5-6.5-8.5
			s-8.5-6.5-8.5-6.5s5-3,8.5-6.5S-3901,1.9-3901,1.9"/>
		<path id="path1716" class="st1" d="M-3651,411.9c0,0-8-13.2-17.3-22.5s-22.7-17.2-22.7-17.2s13.3-7.9,22.7-17.2
			c9.3-9.3,17.3-22.5,17.3-22.5s8,13.2,17.3,22.5s22.7,17.2,22.7,17.2s-13.3,7.9-22.7,17.2C-3643,398.6-3651,411.9-3651,411.9"/>
		<path id="path1718" class="st1" d="M-3601,361.9c0,0-3-5-6.5-8.5s-8.5-6.5-8.5-6.5s5-3,8.5-6.5s6.5-8.5,6.5-8.5s3,5,6.5,8.5
			s8.5,6.5,8.5,6.5s-5,3-8.5,6.5S-3601,361.9-3601,361.9"/>
	</g>
	<g id="g1720" transform="matrix(0.99307,0,0,1,-0.325,0)">
		<g id="g1722">
			<path id="path1724" class="st3" d="M-3787.3,88.8c0.8,5.5,3.4,10.6,5,15.9c1.2,3.9,2.1,7.9,3.3,11.8c5.1-0.6,10.1-0.9,15.2-1.3
				c4.3-0.3,8.6-0.4,13-0.5c3,0,5.9,0.1,8.9,0.2c2.3,0.1,4.6,0,6.9,0.3c0.3-0.5,0.2-1.5,0.3-2.2c0.3-2.9,0.4-5.8,0.5-8.7
				c0.1-3.5,0.4-7.1,0-10.6c-0.2-1.7-0.8-3.3-1.2-5c-2.8-0.4-5.5-1-8.3-1.2c-4-0.3-8,0-12,0.1c-4.9,0-9.7,0-14.6,0.1
				c-2.6,0.1-5.2,0.2-7.8,0.3C-3781.3,88.2-3784.3,88.5-3787.3,88.8L-3787.3,88.8z"/>
			<path id="path1726" class="st4" d="M-3785.4,95.1c4.8-0.6,9.7-1.2,14.6-1.4c6.3-0.3,12.7,0.2,19,0.2c4.8,0,9.6-0.2,14.3,0.1
				c0.9,0.1,1.8,0.2,2.8,0.3"/>
			<path id="path1728" class="st5" d="M-3731.8,100.3c0,1.9-1.4,3.4-3.1,3.4c-1.7,0-3.1-1.5-3.1-3.4s1.4-3.4,3.1-3.4
				C-3733.2,96.9-3731.8,98.4-3731.8,100.3z"/>
			<g id="g1730">
				<path id="path1732" class="st4" d="M-3781.7,107c6.2-1.5,12.1-1.2,18.2-1.4c4-0.1,8,0,12,0.2c5.7,0.2,11.4,0.3,17.1,1.1"/>
				<path id="path1734" class="st4" d="M-3779.4,113.7c9.4-1,18.8-1.7,28.2-1.9c5.3-0.1,10.7,0.2,16,0.3"/>
				<path id="path1736" class="st4" d="M-3780.2,109.3c0,0,1.1-1.7,1.8-1.6c0.7-0.2,2.5,4.3,3.3,4.3c0.8,0,2.6-4.8,3.1-4.6
					c1-0.2,3.6,4.7,4.2,4.1c0.7,0.4,3.8-4.5,4.5-4.4c0.5-0.1,2.9,4.1,3.7,4c1,0,2.9-4.2,3.6-4.2c0.8-0.1,3.7,3.8,4.4,3.7
					c1,0.2,3.9-3.6,4.3-3.6c0.8,0,3.4,3.8,4.1,3.7c0.7,0,3.1-3.4,3.9-3.2c0.9-0.2,4.2,3,4.2,3"/>
			</g>
			<path id="path1738" class="st5" d="M-3777.4,101.4c0,2.1-1.7,3.8-3.7,3.8c-2.1,0-3.7-1.7-3.7-3.8c0,0,0,0,0,0
				c0-2.1,1.7-3.8,3.7-3.8C-3779.1,97.6-3777.4,99.3-3777.4,101.4C-3777.4,101.4-3777.4,101.4-3777.4,101.4z"/>
			<path id="path1740" class="st6" d="M-3765.1,99.9c0,1.8-1.5,3.3-3.3,3.3s-3.3-1.5-3.3-3.3s1.5-3.3,3.3-3.3
				S-3765.1,98.1-3765.1,99.9z"/>
			<path id="path1742" class="st5" d="M-3752.4,99.6c0,2-1.6,3.5-3.6,3.5s-3.6-1.6-3.6-3.5c0,0,0,0,0,0c0-2,1.6-3.5,3.6-3.5
				S-3752.4,97.6-3752.4,99.6C-3752.4,99.6-3752.4,99.6-3752.4,99.6z"/>
			<path id="path1744" class="st6" d="M-3741.4,100.1c0,1.8-1.4,3.2-3.2,3.2s-3.2-1.4-3.2-3.2c0,0,0,0,0,0c0-1.8,1.4-3.2,3.2-3.2
				S-3741.4,98.3-3741.4,100.1C-3741.4,100.1-3741.4,100.1-3741.4,100.1z"/>
			<path id="path1746" class="st7" d="M-3736.8-19.6c0.4,0.7,0.3,1.6,0.4,2.5c0.1,0.8-0.1,1.5,0,2.3c0,0.3,0.1,0.6,0.2,0.9
				c0.3,0.7,0.9,1.2,1.1,1.9c0.3,0.9,0.2,1.9,0.2,2.8c0,0.8-0.1,1.6-0.4,2.3c-0.2,0.6-0.8,1.2-1.1,1.8c-0.4,0.7-0.7,1.5-0.9,2.3
				c-0.2,0.9-0.2,1.8,0,2.7c0.2,0.8,0.9,1.5,1.2,2.3c0.6,1.4,1,2.8,1.4,4.2c0.2,0.9,0.3,1.9,0.5,2.8c0.3,1,0.7,2,1.1,3
				c0.3,0.9,0.7,1.7,0.9,2.7c0.1,0.8,0.2,1.5,0,2.3c-0.1,0.8-0.4,1.5-0.9,2.1c-0.5,0.6-1.2,1-1.9,1.2c-0.4,0.2-0.9,0.2-1.4,0.2
				c-0.9-0.1-2.7-0.9-2.7-0.9s0.7,2,0.9,3c0.2,1,0.4,2,0.2,3c-0.2,0.7-0.5,1.3-1.1,1.8c-0.5,0.5-1.3,0.7-1.9,0.9
				c-0.8,0.2-2.5,0.2-2.5,0.2s1.4,0.8,1.8,1.4c0.4,0.7,0.4,1.5,0.4,2.3c0,0.7,0.1,1.4-0.4,1.9c-0.3,0.4-0.8,0.5-1.2,0.5
				c-0.5,0.1-1.1-0.7-1.6-0.4c-0.5,0.3-0.4,1.2-0.4,1.8c0.1,0.7,0.7,1.2,0.9,1.9c0.1,0.6,0,1.2,0,1.8c0,0.9,0,1.8-0.2,2.7
				c-0.1,0.8-0.3,1.7-0.7,2.5c-0.4,0.8-0.8,1.6-1.4,2.1c-0.9,0.7-2.1,1-3.2,1.4c-0.6,0.3-1.3,0.6-1.9,0.7c-0.3,0.1-0.8-0.2-1.1,0
				c-1.1,0.9-0.6,2.8-1.1,4.2c-0.5,1.6-0.9,3.1-1.6,4.6c-0.7,1.4-1.7,2.6-2.7,3.9c-0.6,0.9-1.1,1.8-1.9,2.5
				c-0.7,0.6-2.5,1.4-2.5,1.4s-3.2-0.3-5.5-2.1c-1.6-1.3-3.4-2.4-5.1-3.5c-1.3-0.8-2.8-1.4-4.1-2.3c-0.9-0.6-1.7-1.2-2.5-1.9
				c-0.8-0.8-1.6-1.6-2.3-2.5c-0.6-0.8-0.8-1.8-1.4-2.5c-0.5-0.6-1.5-0.7-1.9-1.4c-0.2-0.3-0.2-0.9-0.2-0.9s0.9-1.2,0.9-1.9
				c0-0.5-0.4-1-0.7-1.4c-0.4-0.7-0.9-1.3-1.2-1.9c-0.5-1-0.9-2.1-1.2-3.2c-0.3-0.9-0.4-1.8-0.5-2.7c-0.1-0.6-0.2-1.3,0-1.9
				c0.2-1,0.7-2,1.4-2.7c0.7-0.6,1.6-0.6,2.5-0.9c1.2-0.4,2.6-0.2,3.7-0.9c1.4-0.9,2.2-2.5,3-3.9c0.7-1.1,1.2-2.3,1.6-3.5
				c0.3-0.9,0.3-1.9,0.4-2.8c0.1-1.4,0.1-2.7,0-4.1c-0.1-1.2,0-2.5-0.4-3.7c-0.2-0.8-0.9-1.3-1.1-2.1c-0.2-1.4-0.2-3,0.5-4.2
				c0.6-1,1.9-1.3,2.7-2.1c0.7-0.7,1-1.7,1.8-2.3c0.6-0.4,1.4-0.4,1.9-0.9c0.9-0.9,1.4-2.3,1.8-3.5c0.3-1.1,0.3-2.4,0.4-3.5
				c0.1-1.2,0.1-2.4,0.2-3.5c0-0.9,0-1.9,0-2.8c0-1.2,0.1-2.4,0-3.5c-0.1-0.8-0.3-1.6-0.4-2.5c-0.1-0.9-0.2-2.7-0.2-2.7
				s4.3-0.9,6.4-1.4c1.1-0.3,2.2-0.8,3.4-1.1c1.3-0.3,2.7-0.5,4.1-0.7c1.3-0.2,2.7-0.2,4.1-0.4c1.1-0.1,2.1-0.4,3.2-0.4
				c0.9,0,1.8,0.2,2.7,0.4c1,0.2,1.9,0.4,2.8,0.9c1.1,0.5,2,1.4,3,2.1C-3738-20.5-3737.2-20.3-3736.8-19.6L-3736.8-19.6z"/>
			<path id="path1748" class="st3" d="M-3738.6-10c0.7,0.5,0.2,1.5,0.2,2.2c-0.2,1.1-1.1,1.3-2.1,1.6c-1.7,0.6-3.4,0-4.9-0.8
				c-1.5-0.6-2.9-1.3-4.6-1c-1,0.2-1.9,0.6-3,0.5c-1.4,0-2.5,0.9-3.9,1.2c-1,0-1.3,1.5-2.2,1.3c-0.2-0.7,0.3-1.4,0.7-2
				c0.8-1.1,1.9-2,3.3-2.2c1.3-0.2,1.8-0.5,3-0.9c1-0.2,2.7-0.4,3.8-0.3c1.7,0.3,3.2,1.3,4.8,2c1,0.4,2.2,0.3,3.1-0.4
				C-3739.8-9.1-3739.2-9.7-3738.6-10L-3738.6-10L-3738.6-10z"/>
			<path id="path1750" class="st8" d="M-3760.4,0.7c0.7-0.6,1.9,0.4,2.9,0.4c0.8,0,1.6-0.2,2.4-0.4c1.5-0.4,2.8-1.4,4.3-1.8
				c0.5-0.2,1.1-0.2,1.7-0.3c0.9-0.1,1.8-0.1,2.6-0.1c0.9,0,1.7-0.2,2.6,0c0.4,0.1,0.8,0.6,1.2,0.6c0.3,0,0.6-0.5,0.8-0.3
				c0.5,0.5-0.6,1.3-1,1.9c-0.4,0.6-0.6,1.4-1.2,1.9c-0.9,0.9-2,1.5-3.1,2c-0.5,0.3-1.1,0.4-1.7,0.6c-0.4,0.1-0.7,0.3-1.1,0.3
				c-0.8-0.1-1.5-0.6-2.2-1c-0.7-0.4-1.1-1.1-1.8-1.5c-0.7-0.5-1.4-0.9-2.2-1.1c-1.2-0.3-2.5,0.2-3.6-0.4
				C-3760.1,1.3-3760.3,1-3760.4,0.7L-3760.4,0.7z"/>
		</g>
		<g id="g1752" transform="translate(0,512.36)">
			<path id="path1754" class="st9" d="M-3745.3-510.7c0,1.7-1.2,3.1-2.7,3.1c-1.5,0-2.7-1.4-2.7-3.1s1.2-3.1,2.7-3.1
				C-3746.5-513.8-3745.3-512.4-3745.3-510.7z"/>
			<path id="path1756" class="st10" d="M-3746.8-511.2c0,0.5-0.3,0.9-0.7,0.9s-0.7-0.4-0.7-0.9l0,0c0-0.5,0.3-0.9,0.7-0.9
				S-3746.8-511.7-3746.8-511.2z"/>
		</g>
		<g id="g1758">
			<path id="path1760" class="st4" d="M-3744.8,15.2c-0.6,0.7-1.3,1.4-1.4,2.4c-0.1,1.1,0.6,2.1,1.5,2.5c0.8,0.4,1.7,0.6,2.6,0.6
				c0.5,0,0.8-0.5,0.9-0.9c0.3-0.5,0.9-0.4,1.4-0.3c0.2,0,0.4,0.1,0.6,0.2"/>
			<path id="path1762" class="st3" d="M-3741.5,20.9c-0.3,0.4-1.1,0.2-1.6,0.4c-0.6,0.2-1.1,0.5-1.7,0.7c-0.9,0.2-1.9-0.1-2.6,0.3
				c-1,0.6-1.1,2.1-1.9,3c-0.3,0.4-0.7,0.8-1.2,1c-0.4,0.2-0.8,0.2-1.2,0.2c-0.4,0-0.9,0-1.3-0.2c-0.4-0.2-0.4-1-0.8-1
				c-0.3,0-0.5,0.5-0.5,0.7c-0.1,0.4,0,0.8,0.1,1.2c0.1,0.2,0.2,0.4,0.4,0.5c0.6,0.5,1.5,0.7,2.2,0.8c1,0.2,1.9,0.1,2.9,0
				c0.4,0,0.7-0.1,1-0.2c0.5-0.2,1.1-0.4,1.5-0.7c0.6-0.4,0.9,0.9,1.6-1.6c0.1-0.5,0.9-0.3,1.4-0.4c0.4-0.1,0.9-0.3,1.3-0.3
				c0.6-0.1,1.2,0,1.8,0c0.5,0,1.1,0.2,1.5-0.1c0.4-0.3,0.4-0.8,0.4-1.3c0-1-0.4-2-0.7-3c-0.1-0.4-0.2-0.9-0.5-1.2
				c-0.1-0.2-0.3-0.3-0.5-0.3c-0.3,0-0.6,0.1-0.9,0.3C-3741,20.1-3741.4,20.5-3741.5,20.9L-3741.5,20.9z"/>
			<path id="path1764" class="st11" d="M-3738.2,25.5c-0.5-0.2-0.9-0.5-1.4-0.7c-0.5-0.1-1.1-0.2-1.7-0.2c-0.7,0.2-1.4,0.4-2.1,0.7
				c-0.6,0.6-1.1,1.2-1.7,1.8c-0.7,0.5-1.4,1-2.1,1.4c-0.5,0.2-1,0.4-1.4,0.5c-0.3-0.1-0.6-0.2-0.8-0.2c-0.1,0.1-0.6,0.1-0.4,0.3
				c0.1,0.2,0.2,0.4,0.5,0.4c0.2,0,0.5,0.1,0.7,0.3c0.5,0.4,1,0.7,1.5,1c0.4,0.4,0.9,0.8,1.2,1.3c0.3,0.4,0.7,0.9,0.9,1.4
				c0.1,0.2,0.3,0.4,0.5,0.5c0.4,0.3,0.8,0.6,1.2,0.8c0.5,0,0.9,0,1.4,0c0.3-0.3,0.6-0.6,0.9-0.9c0-0.7,0-1.4-0.1-2.1
				c0-0.5-0.3-0.8-0.4-1.2c-0.1-0.4-0.3-0.7-0.6-1c-0.7-0.3-1.7-0.3-1.9-0.6c0.7,0.1,2.7-0.1,3.4-0.3c0.3-0.1,0.6-0.1,0.9-0.2
				c0.5-0.6,1.1-1.2,1.6-1.8C-3738.3,26.2-3738.2,25.9-3738.2,25.5L-3738.2,25.5z"/>
		</g>
		<g id="g1766">
			<path id="path1768" class="st12" d="M-3758.4,0.9l1.4-0.4l1.5-0.6l1.9-1.6l1.6-0.9l2.3-0.7l1.5-0.3l1.4,0.2l1.2,0.4l1.3,1.2
				l1.2,0.4l1,0.3"/>
			<g id="g1770">
				<path id="path1772" class="st4" d="M-3736.7-2.8c0.1-0.5,1,0.1,1.5,0c0.4-0.1,0.7-0.3,1-0.4c0.3-0.1,0.8-0.4,0.9-0.1
					c0.1,0.2-0.2,0.4-0.4,0.5c-0.3,0.2-0.8,0.2-1.2,0.3c-0.3,0.1-0.6,0.2-0.9,0.1C-3736.1-2.4-3736.8-2.4-3736.7-2.8L-3736.7-2.8z"
					/>
				<path id="path1774" class="st4" d="M-3739.2-18.4l0.9,1.6l1.1,1.1l1,1.8"/>
				<path id="path1776" class="st4" d="M-3769.4,44.3c0.6,1.1,1.8,1.8,2.9,2.4c1.9,1,4.1,1.2,6.2,1.7c1.5,0.3,3.1,0.7,4.7,0.8
					c1.1,0.1,2.8,0.1,3.4,0"/>
				<path id="path1778" class="st4" d="M-3766.7,49.1c2.2,1.2,4.6,1.7,7.1,2.1c1,0.2,2.1,0,3.1,0.1c1,0.1,2,0.4,3,0.3
					c0.2,0,0.3,0,0.5-0.1"/>
				<path id="path1780" class="st4" d="M-3765.1,52c1.7,0.6,3.6,0.7,5.4,0.9c2,0.2,4,0,6,0.4"/>
				<path id="path1782" class="st4" d="M-3764.6,54.6c1.8,0.6,3.8,0.7,5.7,0.9c1.5,0.2,3-0.3,4.5,0.3"/>
				<path id="path1784" class="st4" d="M-3762.7,57.2c2.6,0.4,5.2,0.2,7.9,0.3"/>
				<path id="path1786" class="st4" d="M-3761.5,59.2c1.3,0.3,2.3,0.4,3.5,0.5c0.6,0,1.5,0,1.7,0"/>
				<path id="path1788" class="st4" d="M-3760.2,61.5c0.9,0.1,1.8,0.2,2.6,0.3"/>
			</g>
		</g>
		<path id="path1790" class="st13" d="M-3812.8,6.4c-1,1-1.2,2.7-2.3,3.6c-1.4,1-3.3,1-4.9,1.5c-0.9,0.3-1.8,0.5-2.6,1
			c-0.6,0.5-1,1.2-1.5,1.8c-0.5,0.6-0.9,1.4-1.5,1.8c-0.8,0.5-2,0.3-2.8,0.8c-1.3,0.6-2.4,1.5-3.4,2.6c-1.2,1.4-2.5,3-2.8,4.9
			c-0.4,1.9,0.5,3.8,0.8,5.7c0.1,0.9,0.2,1.8,0.5,2.6c0.2,0.6,1.4,1.2,1,1.8c-0.4,0.7-1.7-0.1-2.6,0c-1.3,0.1-2.7,0.3-3.9,0.8
			c-0.9,0.4-1.5,1.1-2.3,1.5c-1.1,0.7-2.2,1.3-3.4,1.8c-0.2,0.1-0.5,0.2-0.8,0.3c-1.4,0.3-2.9,0.3-4.4,0.5c-0.8,0.1-1.6-0.1-2.3,0.3
			c-1,0.6-1.7,1.7-2.1,2.8c-0.4,1.2-0.3,2.6-0.3,3.9c0,1-0.2,2.2,0.3,3.1c0.5,1.1,1.5,1.9,2.6,2.6c0.9,0.6,2.1,0.6,3.1,1
			c0.9,0.4,1.6,1.2,2.6,1.5c0.6,0.2,1.2,0.3,1.8,0.3c0.6,0,1.2-0.1,1.8-0.3c0.8-0.2,1.7-0.5,2.3-1c0.6-0.5,0.6-1.5,1.3-1.8
			c0.5-0.2,1.1-0.2,1.5,0c0.9,0.3,1.4,1.2,2.1,1.8c0.9,0.8,1.7,1.9,2.8,2.3c1.2,0.4,2.6,0,3.9-0.3c0.8-0.2,1.7-0.2,2.3-0.8
			c0.6-0.5,0.4-1.6,1-2.1c1-0.8,2.8-1.8,3.9-1c0.7,0.5,0,1.7,0,2.6c0,1-0.2,2.1,0,3.1c0.4,1.5,1,3.1,2.1,4.1c0.6,0.6,1.5,0.7,2.3,1
			c0.8,0.3,1.7,0.3,2.3,0.8c0.7,0.6,1.1,1.5,1.3,2.3c0.2,0.8-0.2,1.7,0,2.6c0.2,0.7,0.5,1.3,1,1.8c1,0.9,2.5,1,3.6,1.8
			c0.6,0.5,1.2,1.1,1.5,1.8c0.6,1.2,0.2,2.7,0.8,3.9c0.4,0.8,1,1.6,1.8,2.1c0.8,0.5,1.7,0.6,2.6,0.8c0.8,0.1,1.6,0.2,2.3,0
			c0.6-0.1,1.3-0.4,1.8-0.8c0.7-0.5,1.4-1,1.8-1.8c0.5-1.1,0.4-2.4,0.5-3.6c0.1-0.7-0.3-1.6,0.3-2.1c0.5-0.4,1.2,0.2,1.8,0
			c1-0.4,2-1.1,2.6-2.1c0.6-1,0.9-2.2,0.8-3.4c-0.1-1.1-1.5-2-1.3-3.1c0.1-0.9,1.1-1.4,1.8-2.1c0.7-0.7,1.9-0.9,2.3-1.8
			c0.5-0.8,0.2-1.9,0.3-2.8c0-0.9-0.2-1.7,0-2.6c0.1-0.7,0.8-1.3,0.8-2.1c0-0.7-1-1.4-0.8-2.1c0.2-0.5,0.9-0.4,1.3-0.8
			c0.4-0.5,0.8-1.1,0.9-1.7c0.2-0.8,0-1.7-0.3-2.4c-0.4-1.1-1.6-1.9-2.1-3c-0.4-1-0.5-2.1-0.6-3.2c-0.2-0.9-0.5-1.9-0.4-2.8
			c0.1-0.8,0.2-1.7,0.8-2.3c0.4-0.5,1.2-0.5,1.8-0.8c0.8-0.3,1.6-0.7,2.4-1c0.9-0.4,2-0.4,2.8-1c0.9-0.6,1.3-1.7,1.9-2.6
			c0.7-1,1.3-2,1.8-3.1c0.5-1,1-2.1,1.2-3.2c0.3-1.7-0.2-3.4-0.1-5c0-0.8,0.3-1.5,0.3-2.3c-0.1-0.9-0.5-1.8-0.8-2.7
			c-0.3-0.7-0.8-1.3-0.9-2.1c-0.1-0.7,0.2-1.3,0.4-1.9c0.3-0.8,0.6-1.7,1.2-2.3c0.4-0.4,1.1-0.5,1.5-0.9c0.5-0.4,0.9-1,1.4-1.4
			c0.8-0.7,1.8-1.2,2.4-1.9c0.7-0.8,1.2-1.6,1.5-2.6c0.3-0.8,0.3-1.6,0.4-2.4c0.2-2.1-0.1-4.3,0-6.4c0-1.3,0.3-2.7,0.3-4
			c0-0.9-0.2-1.8-0.3-2.7c-0.1-0.6-0.1-1.2-0.1-1.8c-0.1-0.7-0.3-2.1-0.3-2.1s-3,0.7-4.4,1.2c-1.1,0.4-2.1,1.1-3.2,1.4
			c-1.3,0.4-2.8,0.4-4.1,0.8c-1.6,0.5-3.1,1.1-4.5,1.8c-1.4,0.7-2.8,1.7-4.1,2.6c-1.5,1-3,2-4.5,3.1c-0.6,0.5-1.2,1-1.8,1.4
			c-0.9,0.6-1.8,1.2-2.7,1.8c-0.7,0.5-1.3,1.1-2.1,1.5c-0.9,0.6-1.9,1.1-2.8,1.7c-1.1,0.7-2.1,1.5-3.1,2.4c-0.8,0.7-1.4,1.6-2.1,2.4
			c-0.6,0.7-1.1,1.4-1.7,2.1c-0.4,0.5-0.8,0.9-1.3,1.3C-3811.3,5.6-3812.2,5.8-3812.8,6.4L-3812.8,6.4z"/>
		<g id="g1792">
			<path id="path1794" class="st4" d="M-3771.4-19.2c1.2,4.2,0.9,8.6,0.1,12.7c-0.4,1.9-1.3,3.7-2.3,5.5c-1.6,2.9-4.5,5.1-5.5,8.3
				c-1,3.2,0.4,6.8-0.1,10.2c-0.3,2.4-0.5,5.2-1.9,7.1c-1.1,1.4-3,2-4.5,2.9c-1.2,0.7-2.6,1.1-3.5,2.1c-1.5,1.6-2.8,3.7-2.9,5.9
				c-0.1,2.1,1.9,3.9,2.2,6c0.2,1.9-0.4,3.8-0.7,5.6c-0.3,2.2,1,5-1.1,6.7c-4.6,3.6-3.4,3.4-6,4.2c-3,0.9-6.5,0.5-9.3,2
				c-1.6,0.9-3,2.3-3.9,3.9c-0.9,1.7-1.3,3.7-1.2,5.6"/>
			<path id="path1796" class="st4" d="M-3787,53.8c-1.6,2.1-3.4,4.2-5.7,5.5c-2.4,1.3-5.3,1.3-7.9,2.1c-1.8,0.5-3.8,0.6-5.3,1.6
				c-1.4,1-2.7,2.4-3,4c-0.4,1.6-0.1,3.4,1,4.9"/>
			<path id="path1798" class="st4" d="M-3791.4,63.5c-3.4,1.4-7.3,1-10.7,2.2c-1.3,0.5-3.1,0.7-3.7,2c-1.1,2.5,1.3,5.5,2,7.9
				c0.4,1.5,3.1,1.9,4.4,1.1c1.9-1.1,0.4-4.6,1.7-6.3c1.1-1.4,5.1-0.8,4.7-2.5c-0.8-3-6.3-0.6-9.4,0.2c-1.3,0.3-0.2,3.9,1.2,3.9
				c1,0.1,0.8-2.4,1.2-2.7"/>
			<path id="path1800" class="st4" d="M-3814.1,63c0.7-2.4,2.7-3.9,4.7-5.1c2.6-1.5,6-1,8.9-2.1c1.6-0.6,3.4-1.2,4.5-2.5
				c1.4-1.6,2-3.9,2.1-6.1c0.1-1.7-1-3.2-1.3-4.8c-0.3-1.8,0.2-3.8-0.5-5.4c-0.7-1.5-2.5-2.2-3.3-3.6c-0.5-1-0.9-2.1-0.7-3.2
				c0.3-1.6,1.8-2.7,2.8-4c0.7-1,1.4-2,2.3-2.8c2.3-2,6-2.4,7.7-4.9c1.2-1.8,1.1-4.2,1.3-6.3c0.2-2.8-1.3-5.8-0.4-8.4
				c1-3.1,4.5-4.8,6.1-7.6c0.7-1.2,1.3-2.5,1.4-3.8c0.4-2.9-0.7-5.8-0.8-8.8"/>
			<path id="path1802" class="st4" d="M-3774.7-17.7c-0.5,2.4,0,4.9-0.4,7.4c-0.4,2.4-0.9,4.9-1.9,7.1c-1.3,3-4.3,5.2-5.2,8.4
				c-1.2,4,0.8,8.4-0.3,12.4c-0.7,2.3-1.9,4.6-3.6,6.3c-2.2,2-6.1,1.4-7.9,3.7c-1.1,1.4-1.4,3.5-1,5.3c0.3,1.6,1.8,2.7,2.8,4"/>
			<path id="path1804" class="st4" d="M-3783.2-14.5c0.1,2.7,0.7,5.6-0.2,8.2c-1,2.7-3.3,4.8-5.3,6.9c-1.9,2.1-4.8,3.2-6.4,5.5
				c-1.1,1.5-1.1,3.6-2,5.3c-1.4,2.7-3,5.5-5.3,7.5c-1.8,1.6-4.6,1.6-6.5,3.1c-1.5,1.2-3.2,2.5-3.6,4.4c-0.5,3,1.7,5.9,3,8.7
				c0.9,1.9,2.4,3.5,3.2,5.5c0.7,1.6,1.9,3.4,1.3,5.1c-1.1,2.9-4.9,4.1-7.8,4.9c-2.2,0.6-5.1-1.4-6.9,0c-0.6,0.4-0.4,1.3-0.5,2"/>
			<path id="path1806" class="st4" d="M-3786.3,4.5c-2,1.1-3.6,2.7-5,4.4c-1.4,1.7-1.9,3.9-3.3,5.7c-3,3.9-6.9,7-10.6,10.2
				c-0.8,0.7-2.3,1.1-2.6,2.1c-0.9,2.6,0.9,5.4,1.8,8c0.8,2.5,2.6,4.7,3,7.3c0.3,2.1,0.3,4.4-0.5,6.3c-0.6,1.4-1.6,2.7-2.9,3.5
				c-3.2,2-8.2,0-10.8,2.7c-1.6,1.6-1.3,4.4-1.6,6.7"/>
			<path id="path1808" class="st4" d="M-3785.6,10.9c-1.5,0.8-2.6,1.9-3.8,3c-2.3,2.1-4.2,4.8-6.5,7c-1.5,1.5-3.3,2.7-4.7,4.3
				c-1.1,1.2-2.6,2.2-3,3.7c-0.5,1.7,0.3,3.5,0.8,5.1c1,3,3.8,5.4,4.3,8.5c0.4,2,0,4.2-0.6,6.1c-0.6,1.6-1.5,3.3-2.9,4.3
				c-1.2,0.9-2.8,0.8-4.2,1.2c-2.1,0.6-4.5,0.6-6.4,1.8c-1.2,0.8-2,2.2-2.7,3.5c-0.5,1.1-0.7,2.3-1,3.4"/>
			<path id="path1810" class="st4" d="M-3787.1-12.5c-0.5,2.3-0.8,4.7-1.9,6.7c-1.7,3-5.8,4.4-7,7.7c-0.7,1.7,0,4,0,5.4"/>
			<path id="path1812" class="st4" d="M-3794.5-8.3c-0.9,2.8-4.3,6.4-5.2,9.2c-0.9,2.8,0.6,5-0.5,7.7c-0.8,2-1.3,4.2-2.7,5.8
				c-2.1,2.3-5.6,2.8-8,4.7c-2.7,2.2-6.5,4.3-6.8,7.7c-0.2,2.1,2.5,3.4,3.2,5.3c0.5,1.4,1,3,0.6,4.5c-0.3,1.4-1.2,2.7-2.4,3.5
				c-2.1,1.4-5,0.8-7.4,1.6c-2.1,0.6-4.1,1.5-6.1,2.3c-2.5,1-5.8,0.9-7.4,3c-0.8,1,0,2.3-0.4,3.8"/>
			<path id="path1814" class="st4" d="M-3802.6-2.9c-1.6,4.3-1.2,10.2-4,14.2c-2.2,3.1-6.2,4.2-9.1,6.5c-2.5,2-5.6,3.6-7.1,6.4
				c-0.8,1.6-0.9,3.5-0.7,5.2c0.3,2.3,2.3,4.1,2.6,6.3c0.2,1.9-0.4,3.7-1.1,5.6"/>
			<path id="path1816" class="st4" d="M-3807.7,2.3c-0.5,1.5-0.4,4-1.5,5.6c-3.2,4.9-9.2,7.1-13.6,10.8c-1.6,1.3-3.7,2.3-4.6,4.2
				c-1.5,3.1-1.8,7-0.8,10.2c0.4,1.3,2.3,1.8,2.7,3.2c0.4,1.2,0.1,2.7-0.5,3.8c-0.7,1.5-3,3.1-3.5,3.7"/>
			<path id="path1818" class="st4" d="M-3832.3,34.4c1.6,0.6,2,2.4,1.6,3.6c-0.7,2.7-4.3,3.5-6.7,4.9c-1.5,0.9-3.6,0.9-4.8,2.2
				c-0.8,0.9-1.2,2.2-1,3.3c0.3,1.8,2.3,3.1,3.3,4.3"/>
			<path id="path1820" class="st4" d="M-3830.7,37.3c-1.4,0.4-3.6,0-5.2,0.6c-1.4,0.5-2.3,1.8-3.7,2.5c-2.2,1.1-5.3,0.7-7.1,2.4
				c-1.2,1.2-1.8,3-1.7,4.7c0.1,1.8,1.2,3.5,2.4,4.9c0.8,0.9,2,1.4,3.1,2"/>
			<path id="path1822" class="st4" d="M-3814,34.6c1.1,1.5,2.6,4.5,1.7,6.5c-0.8,1.8-3.3,2.2-5.2,2.8c-2.6,0.9-5.6,0.4-8.2,1.6
				c-2.1,1-5.1,2.1-5.5,4.4c-0.2,1.3,1.1,2.6,2.2,3.5c0.9,0.7,2.1,0.7,3.1,1.1"/>
			<path id="path1824" class="st4" d="M-3823.2,51.7c-1-1.8,0.7-1.9,1.5-2.5c1.6-1.3,3.8-1.4,5.7-2.1c2.1-0.8,4.6-1.2,6.3-2.7
				c1-0.9,1.8-2.2,2-3.5c0.2-1.3-0.9-2.7-0.9-3.7"/>
		</g>
		<g id="g1826">
			<path id="path1828" class="st14" d="M-3797.2-6.7c2.4-1.7,4.7-3.6,7.2-5.2c2.7-1.3,5.3-2.9,8-4.1c5.9-1.9,11.7-3.9,17.6-5.4
				c2.5-0.7,5.1-1.4,7.7-1.8c2.5-0.4,5-1,7.5-0.8c2,0.1,4-0.3,6,0.4c1.2,0.4,2.6,0.4,3.4,1.5c0.9,0.8,1.7,1.6,2.6,2.3
				c0.9-1.5,2.3-2.9,2.5-4.7c0.3-1.3,0.9-2.5,0.5-3.8c-0.2-0.8,0-1.9-0.4-2.5c-4.2-1-8.5-2.2-12.7-3.1c-3.2,0.4-6.5,0.6-9.7,1.2
				c-4,1-8,1.9-11.9,2.8c-3.1,0.9-6.1,2.1-9.1,3.3c-2.4,0.6-4.7,1.4-6.9,2.4c-1.3,0.6-2.8,1-4.1,1.7c-1.5,1.6-2.9,3.2-4.1,5.1
				c-1.6,2.1-2.4,4.8-3.6,7.1c-0.5,1.1-1,2.3-1.4,3.4C-3797.7-6.8-3797.5-6.8-3797.2-6.7L-3797.2-6.7z"/>
			<path id="path1830" class="st4" d="M-3782.7-20.9c-1.2,0.7-2.5,1.1-3.6,2c-1.4,1.1-2.9,2.3-3.6,4c-0.3,0.8-0.1,1.7-0.1,2.5"/>
			<path id="path1832" class="st5" d="M-3790.5-58.3c-4.2,1.4-8.2,3.3-12.1,5.5c-3.9,2.2-8.2,3.8-11.4,6.9c-1.4,1.1-3.1,2.1-3.5,4
				c-1.5,3-2.8,6.1-3.4,9.4c-1.8,3.4-4.2,6.4-6.7,9.2c-1.6,2.5-3.6,4.9-4.1,7.9c-0.9,2.5-1.3,5.3-1.1,7.8c1.2,2.1,2.2,4.4,4.4,5.6
				c1.4,0.9,2.6,1.9,2.9,3.6c0.6,2.2,2.4,3.7,4.6,4c2,0.5,4,1.4,6,1.3c1.6-0.5,3.4-0.7,4.2-2.3c2.3-2.6,4.5-5.3,7.4-7.2
				c1.2-1.2,3-1.6,4.2-2.7c1.9-3.6,3.1-7.6,4.7-11.3c1.7-1.8,3-4.2,4.9-5.7c3.7-1.8,7.4-3.6,11.5-4.6c4.8-1.5,9.3-4,14.3-4.5
				c4.2-0.6,8.3-2,12.5-2.7c4.8,0.7,9.7,1.2,14.4,2.2c1.3,1.1,2.6,2.1,4.3,1.1c1.7-0.1,3-1.1,4-2.5c1.7-1.8,3.6-3.5,4.3-6
				c0.4-1.5,1.7-3,1.6-4.6c-1-3.4-1.9-7-3.2-10.3c-2.1-1.7-4.3-3.6-7-4.1C-3751.9-58.1-3771.2-58.2-3790.5-58.3L-3790.5-58.3z"/>
			<g id="g1834">
				<path id="path1836" class="st4" d="M-3808.8-43.3c-3.3,2.7-6.8,5.3-9.5,8.6"/>
				<path id="path1838" class="st4" d="M-3802.6-43.5c-5.6,2.5-10.2,6.5-14.9,10.4c-1.2,1-2.3,2.2-3.4,3.3"/>
				<path id="path1840" class="st4" d="M-3809.1-36.6c-3.7,3.2-8,5.5-11.6,8.8c-0.9,0.8-1.7,1.8-2.5,2.7"/>
				<path id="path1842" class="st4" d="M-3812.1-30.9c-5.2,2.9-10.1,6.5-14.2,10.8c-0.7,0.8-1.2,1.8-1.8,2.7"/>
				<path id="path1844" class="st4" d="M-3812.3-27.6c-4,2.7-8.7,4.7-11.3,9"/>
				<path id="path1846" class="st4" d="M-3814.6-22.5c-2.6,1.8-5.6,3.5-7.5,6.1c-0.4,0.6-0.5,1.4-0.8,2.1"/>
				<path id="path1848" class="st4" d="M-3805.9-20.8c-1.9,1.5-3.4,3.4-4.7,5.4c-0.7,1.2-1.1,2.7-1.6,4"/>
				<path id="path1850" class="st4" d="M-3787.3-37.3c-2.7,3.1-5.7,5.9-8.5,8.9c-1.9,2-3.4,4.4-5.6,6.1"/>
				<path id="path1852" class="st4" d="M-3788.1-33c-2.1,3.6-5.1,6.4-7.6,9.7c-3.1,4.2-5.6,8.8-8.9,12.9c-1.1,1.3-2.4,2.5-3.6,3.8"
					/>
				<path id="path1854" class="st4" d="M-3778.3-36.5c-3.4,4-8.3,6.8-10.8,11.5c-0.4,0.7-0.4,1.5-0.5,2.3"/>
				<path id="path1856" class="st4" d="M-3772.9-36.4c-2.7,3.5-5.6,6.7-8.3,10.1"/>
				<path id="path1858" class="st4" d="M-3768.4-38.4c-3.3,3.3-6.5,6.8-8.8,11"/>
				<path id="path1860" class="st4" d="M-3761.8-42.1c-3.2,3.7-7,7-9.7,11.2c-0.5,0.7-0.7,1.5-1.1,2.3"/>
				<path id="path1862" class="st4" d="M-3757.7-43.3c-3.9,3.9-7.8,7.8-10.6,12.6"/>
				<path id="path1864" class="st4" d="M-3753.9-42.9c-3.2,3.2-6.9,6-9.4,9.7c-0.4,0.5-0.5,1.1-0.8,1.7"/>
				<path id="path1866" class="st4" d="M-3747.6-45.1c-3.4,3.5-7.4,6.4-10.3,10.2c-0.4,0.6-0.7,1.3-1,1.9"/>
				<path id="path1868" class="st4" d="M-3743.1-46.8c-3.6,3.7-7.3,7.3-10.4,11.4c-0.5,0.6-0.8,1.4-1.2,2.1"/>
				<path id="path1870" class="st4" d="M-3739.7-46.1c-3,3.5-6.7,6.4-9.5,10.1c-0.5,0.7-0.9,1.5-1.3,2.2"/>
				<path id="path1872" class="st4" d="M-3735.7-46.9c-3.2,3.7-6.2,7.6-9.2,11.4c-0.4,0.5-0.8,1-1.2,1.5"/>
				<path id="path1874" class="st4" d="M-3732.4-45.9c-3.7,3.9-8.2,7.3-9.9,12.6"/>
				<path id="path1876" class="st4" d="M-3731.9-41.5c-2.6,2.5-5.8,5.2-6.3,9"/>
				<path id="path1878" class="st4" d="M-3726.8-40.4c-2,3.5-4.1,7.2-7.8,9.3"/>
				<path id="path1880" class="st4" d="M-3801.7-50.4c3-0.6,5.5-2.2,8.3-3.4c3.1-1.4,6.1-2.9,9.2-4.3"/>
				<path id="path1882" class="st4" d="M-3789.9-53.4c4.3-0.7,8.4-2.3,12.3-4.3"/>
				<path id="path1884" class="st4" d="M-3773.9-54.1c3.3-1.9,7.1-2.2,10.3-4.3"/>
			</g>
			<path id="path1886" class="st5" d="M-3902.2,181.4c0,0,0.9-9.7,1.4-14.5c0.4-3.5,0.8-7.1,1.4-10.6c0.5-2.8,1.2-5.7,1.8-8.5
				c0.6-2.6,1.1-5.2,1.8-7.8c0.6-2.2,1-4.5,1.8-6.7c0.3-0.8,0.8-1.6,1.1-2.5c0.6-2.4,0.4-5,0.7-7.4c0.3-2.2,0.4-4.5,1.1-6.7
				c0.7-2.6,2.2-4.9,3.2-7.4c1.2-2.9,2.3-5.9,3.5-8.8c1.4-3.2,2.9-6.4,4.6-9.5c2.3-4.1,4.9-8.1,7.4-12c1.1-1.8,2.5-3.4,3.5-5.3
				c1.1-2.1,1.2-4.9,2.8-6.7c1.6-1.8,4.3-2.2,6.4-3.5c2-1.3,3.5-3.2,5.7-4.2c2.2-1,4.9-0.6,7.1-1.8c1.1-0.6,1.7-1.9,2.8-2.5
				c1.4-0.8,3.2-0.6,4.6-1.4c1-0.5,2.5-2.1,2.5-2.1s1.3,1.6,2,2.3c1.6,1.6,3.8,2.5,5.3,4.3c1.3,1.6,1.6,3.8,2.8,5.5
				c1.3,1.9,3.2,3.3,4.5,5.3c2.1,3.2,3.7,6.8,5.3,10.3c1.8,3.8,3.2,7.8,4.8,11.8c1.1,2.9,2.1,5.8,3.3,8.8c1.1,2.9,2.5,5.8,3.5,8.8
				c1.1,3.3,1.9,6.6,2.8,9.9c1.1,3.7,2.2,7.4,3.2,11.1c0.8,3,1.6,6,2.4,9c0.7,3.1,1.4,6.2,2,9.4c0.6,2.7,1.2,5.4,1.6,8.1
				c0.4,2.2,0.7,4.5,1,6.8c0.2,1.6,0.5,3.2,0.8,4.8c0.2,1.6,0.2,3.2,0.5,4.8c0.2,1.1,0.8,3.3,0.8,3.3s-8.3,0.9-12.5,1
				c-4,0.1-8-0.3-12-0.3c-2.7,0.1-5.3,0.4-8,0.5c-2.1,0.1-4.2-0.2-6.3,0c-1.1,0.1-3.3,0.5-3.3,0.5s-0.6-2.6-1.3-3.8
				c-0.8-1.3-2.1-2.1-3-3.3c-1.3-1.5-2.5-3.1-3.5-4.8c-0.4-0.6-0.6-1.4-1-2c-0.2-0.4-0.3-1-0.8-1c-0.9,0-1.3,1.2-1.8,2
				c-0.4,0.7-0.6,1.5-0.8,2.3c-0.2,1.1,0.2,2.2,0,3.3c-0.3,1.2-0.9,2.4-1.5,3.5c-0.9,1.8-2.4,3.2-3.3,5c-0.5,1-1,3.3-1,3.3
				L-3902.2,181.4z"/>
			<path id="path1888" class="st4" d="M-3860.4,73.4c2.8,2,5.5,3.9,8,6.3c2.8,2.7,5.2,5.8,7.4,9c2.6,3.7,4.9,7.7,6.6,12
				c1.6,4.1,2.5,8.4,2.9,12.8c0.5,4.7,1,9.4,1,14.1c0,3.5-0.4,6.9-0.9,10.3c-0.4,2.9-1.4,5.5-2.8,8c-0.6,1-2.6,0.9-2.8,2
				c-0.5,3.5,1,7.2,0.4,10.7c-0.2,1.3-1,2.5-1.4,3.8"/>
			<g id="g1890">
				<path id="path1892" class="st14" d="M-3855.4,77.6c-1.4,3-2.4,6.2-3.8,9.3c-1.8,4-4.2,7.8-5.9,11.9c-1.7,4.1-3,8.4-4.5,12.6
					c-1.4,4-3.1,8-4.3,12c-1.3,4.1-2.2,8.3-3.2,12.4c-1,4.2-1.8,8.4-2.7,12.6c-0.7,3.3-1.5,6.6-2,9.9c-0.6,4-0.8,8-1,12
					c-0.2,3.7-0.1,7.6-0.3,11.1c5,0,10,0,15,0c0.3-8,0.3-16.4,1.2-24.5c0.3-3.2,0.9-6.4,1.6-9.6c1.6-7.8,3.7-15.4,5.9-23
					c1.3-4.3,2.7-8.5,4.3-12.7c2.6-7,6.6-13.4,8.5-20.6c0.3-1.1,2-2.6,0.4-3.5c-2.6-3-5.2-6-8.2-8.7
					C-3854.6,78.3-3855,77.9-3855.4,77.6L-3855.4,77.6z"/>
				<path id="path1894" class="st14" d="M-3831.6,56.1c2.4,0.1,5.4-0.1,6.6-2.6c0.3-1.6,2.2-2.5,3.7-1.8c1.3,0.6,0,3,0.3,4.4
					c0.1,2.3,1.6,4.5,3.4,5.9c1.3,0.7,3.5,0.8,4.1,2.2c0.8,1.5,0.3,3.4,1.1,4.8c1.5,1.8,4.4,2.1,5.4,4.5c1.3,1.6,0.7,4,2.3,5.5
					c1.8,2,4.8,1.1,7.2,1c1.6-1.5,2.3-3.5,2.4-5.6c0-2.6,1.4,1.6,2,2.3c2.8,5.1,4.7,10.6,6.9,16c3.9,13.4,8.1,26.8,10.6,40.7
					c1.1,5.7,2.6,11.6,2.8,17.4c0.5,6.8,0.8,6.2,1.5,13c-0.6,1.3,0,9-0.3,11c-6,0-13.4-0.1-19.3,0.9c-1.2-7.9-2.7-16.2-4.2-24.2
					c-0.8-4.2-1.5-6.9-2.5-12.6c-2.1-7.3-3.8-13.4-5.5-21.6c-4.4-13.6-9.2-27.1-14.9-40.3c-1.1-3-2.4-5.8-4.5-8.2
					c-3.1-4.1-5.5-8.5-8.8-12.5L-3831.6,56.1z"/>
			</g>
			<g id="g1896">
				<path id="path1898" class="st4" d="M-3882.9,112.9c-1.2,2-2.4,3.9-3.6,5.9c-1.3,2.8-1.7,2.7-2.9,5.6c-0.4,0.9-1.5,3.1-2.1,3.9
					c-0.9,1.1-1.6,3.6-2.2,4.7"/>
				<path id="path1900" class="st4" d="M-3843.7,116.1c0.4,2.2,1.1,4.3,1.2,6.5c0.2,3.6-0.6,7.1-0.7,10.7c-0.1,3.1-0.3,6.2,0.1,9.2
					c0.2,1.5,0.6,3,1.1,4.4c0.2,0.6,0.5,1.1,0.8,1.6"/>
				<path id="path1902" class="st4" d="M-3853.2,141.9c0.8,2.2,1.4,4.6,2.4,6.7c0.9,1.8,2.1,3.3,3.1,5c0.7,1.2,1.6,2.3,2.1,3.6
					c0.6,1.7,0.8,3.5,1,5.2c0.1,0.8,0.1,1.6,0.1,2.4"/>
				<path id="path1904" class="st4" d="M-3853.9,146.9c0.8,3.4,1.8,6.8,2.3,10.3c0.2,1.7-0.1,3.3,0.1,5c0.4,2.7,1.7,5.1,2.4,7.7"/>
				<path id="path1906" class="st4" d="M-3860.4,156.1c0.7,2,1.1,4.2,2.1,6.1c1.1,2.1,3.1,3.7,4.3,5.8c1,1.6,1.9,3.3,2.4,5.1
					c0.5,2.1,0.4,4.4,0.5,6.5c0,0.2,0,0.5,0,0.7"/>
				<path id="path1908" class="st4" d="M-3862.7,167.6c0.5,1.6,0.7,3.2,1.5,4.7c1,2,3,3.5,4,5.5c0.5,1.1,0.7,2.4,1,3.5"/>
				<path id="path1910" class="st4" d="M-3786.6,106.4c-0.3,1.4-0.3,3-1,4.4c-0.8,1.7-2.4,2.9-3.4,4.5"/>
				<path id="path1912" class="st4" d="M-3784.8,110.5c-1.7,3-2.8,6.3-5.1,8.9c-0.5,0.5-1.1,0.9-1.7,1.3"/>
				<path id="path1914" class="st4" d="M-3783.2,115.3c-1.8,2.9-3.8,5.6-5.6,8.4c-1.4,2.2-2.7,4.3-4,6.6"/>
				<path id="path1916" class="st4" d="M-3782.5,119.2c-2.6,4.6-5.4,9.1-8.2,13.6c-1.1,1.8-2.3,3.6-3.5,5.3"/>
				<path id="path1918" class="st4" d="M-3781.1,123.4c-1.3,2-2.4,4.1-3.7,6c-1.5,2.2-3.3,4.2-4.7,6.4c-1.2,1.8-2.2,3.7-3.4,5.4"/>
				<path id="path1920" class="st4" d="M-3781.1,127.7c-1.8,2.3-2.4,5.1-3.5,7.7c-0.3,0.9-0.6,1.8-0.9,2.6"/>
				<path id="path1922" class="st4" d="M-3780.2,132.1c-2.2,3.8-3.3,8.2-5.2,12.2c-1.3,2.6-3,5-4.2,7.7c-0.4,0.8-0.7,1.7-1,2.6"/>
				<path id="path1924" class="st4" d="M-3779.7,137.6c-1.6,4.3-3,8.6-4.9,12.7c-0.9,2-2.2,3.9-3.1,5.8c-0.6,1.1-1.2,2.2-1.6,3.4
					c-0.2,0.4-0.3,0.9-0.4,1.4"/>
				<path id="path1926" class="st4" d="M-3777.9,143.2c-2.2,5-3.9,10.3-6.4,15.1c-1,2-2.4,3.8-3.5,5.7c-0.3,0.6-0.6,1.2-0.8,1.8"/>
				<path id="path1928" class="st4" d="M-3776.9,147.6c-1.1,3.2-2,6.5-3.4,9.6c-1.7,3.6-4.4,6.7-6,10.4c-0.6,1.4-0.8,2.9-1.2,4.4"/>
				<path id="path1930" class="st4" d="M-3776.5,154.9c-1.7,3.8-3.2,7.6-5.1,11.3c-1.2,2.5-2.5,4.9-3.9,7.2"/>
				<path id="path1932" class="st4" d="M-3775.8,161.2c-1.3,2.1-2.1,4.5-3.1,6.7c-0.7,1.8-1.5,3.6-2.1,5.5"/>
				<path id="path1934" class="st4" d="M-3775.1,165.8c-0.9,1.5-1.5,3.2-1.8,5c-0.1,0.5,0,0.9,0,1.4"/>
				<path id="path1936" class="st4" d="M-3828.3,127.5c-0.5,2.6-0.5,5.4-1.4,8c-0.9,2.8-2.1,5.7-4.1,7.8c-0.9,1-2.3,1.5-3.4,2.2"/>
				<path id="path1938" class="st4" d="M-3821.8,133.8c-1.4,2.3-2.6,4.8-4,7.1c-1.2,1.9-2.4,3.8-3.8,5.6c-0.9,1.2-1.7,2.8-3.1,3.3
					c-1.7,0.6-3.7,0.1-5.4-0.7c-0.1,0-0.2-0.2-0.2-0.2"/>
				<path id="path1940" class="st4" d="M-3821.6,139.3c-1.5,1.7-2.8,3.5-4.2,5.3c-1,1.3-1.8,3-3.1,4.1c-0.9,0.7-2,0.9-3,1.4"/>
				<path id="path1942" class="st4" d="M-3807.8,141.8c-1.9,0.7-3.7,1.8-5.7,2.3c-1.2,0.3-2.6-0.1-3.7,0.4c-1.2,0.5-2.1,1.6-2.9,2.6
					c-0.1,0.1-0.2,0.3-0.3,0.5"/>
				<path id="path1944" class="st4" d="M-3824.4,146.9c-1.3,1.2-2.3,2.7-3.8,3.6c-1.3,0.7-2.8,0.9-4.2,1.2c-0.3,0.1-0.6,0.1-0.9,0.1
					"/>
				<path id="path1946" class="st4" d="M-3835.8,154.2c2.2,0.6,4.4,1.5,6.7,1.9c1.8,0.3,3.7,0.7,5.5,0.4c1.5-0.3,2.8-1.4,4.3-1.8
					c3-0.9,6.2-0.8,9.3-1.5c1.8-0.5,3.5-1.5,5.4-1.8c1.1-0.2,2.3,0,3.4,0"/>
				<path id="path1948" class="st4" d="M-3833.6,159.1c3.3,3,6.5,6,10.1,8.6c2.2,1.6,4.4,3.3,7,4.1c1.7,0.5,3.5,0.6,5.3,0.5
					c1.8-0.1,3.7-0.6,5.4-1.2c1-0.4,1.9-0.9,2.8-1.4"/>
				<path id="path1950" class="st4" d="M-3837.3,156.8c1.7,2.2,3.2,4.6,5.2,6.5c3,3,6.4,5.5,9.9,7.9c1.5,1.1,3.1,2.2,4.8,2.9
					c1.4,0.6,2.9,0.9,4.4,1c2.8,0.2,5.7-0.3,8.5-0.9c1.9-0.4,3.9-1,5.6-1.8c1.4-0.7,2.6-1.8,3.8-2.7"/>
				<path id="path1952" class="st4" d="M-3827.4,160.2c2.5,0.7,4.9,2.1,7.4,2.1c3.2,0,6.1-2.6,9.3-2.8c1.8-0.1,3.6,0.9,5.5,0.8
					c1.6-0.1,3.1-0.8,4.6-1.2"/>
				<path id="path1954" class="st4" d="M-3822.7,164.3c2.6,1.4,4.9,3.6,7.8,4.2c1.6,0.3,3.2,0,4.8-0.3c2.9-0.6,5.5-2,8.2-3.1
					c1-0.4,1.9-0.9,2.9-1.4"/>
				<path id="path1956" class="st4" d="M-3816.5,163.7c2.5,0,5,0,7.4-0.4c2.1-0.3,4-1.1,6-1.6"/>
				<path id="path1958" class="st4" d="M-3837.7,160c1.9,2.4,3.8,4.8,5.9,7.1c1.6,1.6,3.3,3.2,5,4.6c0.7,0.6,1.6,1.2,2.3,1.7"/>
				<path id="path1960" class="st4" d="M-3839.1,161.2c1.4,2.2,2.8,4.4,4.4,6.4c1.2,1.5,2.3,3,3.8,4.2c1.7,1.3,3.8,2.1,5.8,3.1"/>
				<path id="path1962" class="st4" d="M-3838.4,151.9l1.2,2.3l1.8,3l2.1,1.9"/>
			</g>
		</g>
		<g id="g1964">
			<path id="path1966" class="st15" d="M-3692.4-26.6c-3.1,2-6.6,3.5-9.3,5.9c-3.5,3-6.5,6.7-8.9,10.6c-3,4.8-5,10.3-6.9,15.6
				c-1.1,3-2,6-2.5,9.2c-0.7,4.4-0.9,8.8-0.7,13.2c0.1,3.5,0.5,7.1,1.4,10.5c1.3,4.6,3.4,9,5.8,13.2c2.1,3.6,4.6,7,7.4,10.1
				c2.5,2.7,5.5,4.8,8.3,7.3c4.3-5.4,8.5-10.8,12.8-16.3c-1.3-2.4-2.8-4.8-3.2-7.4c-0.3-2.1,0.3-4.3,1-6.3c0.6-1.7,1.3-3.5,2.6-4.6
				c1.8-1.5,4.4-2.8,6.8-2.4c2,0.3,3,2.8,4.8,3.7c1.3,0.6,2.8,0.8,4.2,1.1c2,0.3,4.3,1.6,6,0.5c1.2-0.8,0.1-3.2,1.2-4.2
				c1.5-1.3,3.9-1.4,5.8-1.1c1.5,0.3,2.9,1.2,4,2.3c1.4,1.5,3.2,3.2,2.9,5.5c0,1.3,0.2,4,1.9,2.3c2.5-0.8,3.7-3.1,4.7-5.2
				c1-2.2,1-4.7,1-7.1c-0.1-1.9-0.4-3.8-1.2-5.5c-1-2.1-2.4-4.1-4.3-5.6c-1.5-1.2-3.5-1.5-5.2-2.4c-1.2-0.6-2.5-1-3.4-2
				c-0.9-0.9,0.6-3.8-1.7-3.4c-1.9-0.4-3.7-1.3-5.6-1.7c-1.5-0.3-3-0.4-4.4-0.4c-2,0-4.1-0.1-5.9,0.6c-1.7,1-3.2,2.7-5.1,2.9
				c-1.8,0.3-3.8-0.3-5.4-1.3c-2.2-1.3-4.2-3.4-5.2-5.8c-0.6-1.6-0.6-3.5-0.2-5.1c0.4-1.6,1.6-3,2.7-4.3c1.2-1.3,2.7-2.3,4.1-3.5
				C-3685.6-14.1-3689-20.4-3692.4-26.6L-3692.4-26.6z"/>
			<path id="path1968" class="st16" d="M-3669.2-57.2c-0.3,4.9-0.4,9.7-0.9,14.6c-1.7,9.4-3.5,18.7-5.6,28
				c-1.2,5.8-2.9,11.5-4.5,17.2c1.6-0.4,3.3-0.8,4.7-1.7c1.3-0.3,2.7-0.8,4.1-0.7c-0.5,2.8-0.9,5.6-0.8,8.5
				c-0.6,5.7-0.8,11.5-0.8,17.3c-0.1,3.4-0.4,6.8-0.1,10.1c0,1.7,1.8,1.1,3,1.3c2.2,0.2,4.5,0.1,6.7-0.4c-0.3-7.9-0.2-15.8-0.3-23.7
				c-0.3-3,0-4.1-0.1-7.8c0.1-1.4-0.2-4-0.1-5.5c1.2,0.6,2.1,0.6,3,1.3c1.3,1.3,3.4,1.2,5,1.9c1.8,1,0.3-1.3,0.2-2.2
				c-1.4-4.4-2.8-8.8-3.8-13.3c-2.2-13.7-4-27.5-4.7-41.4c-0.2-1.1,0.1-2.8-0.4-3.5C-3666.2-57.3-3667.7-57.3-3669.2-57.2
				L-3669.2-57.2z"/>
		</g>
		<path id="path1970" class="st12" d="M-3671.7,0.6c0.6-2.5,1.2-4.9,1.3-7.5c0.3-3.5,0.8-6.9,1.5-10.4c0.5-2.7,1.1-5.4,1.2-8.2
			c0.5-5,0.7-10,1-15c0.2,5.4,0.3,10.8,0.3,16.1c0.4,3.4,0.2,7.7,1,11c0.3,3.4,0.7,4.7,1,7.2c0,0.8,0.8,5,0.8,5.7"/>
		<g id="g1972">
			<path id="path1974" class="st11" d="M-3700.7,12.1c0,0,2,3.3,4.3,5.7c2.3,2.3,5.7,4.3,5.7,4.3s-3.3,2-5.7,4.3
				c-2.3,2.3-4.3,5.7-4.3,5.7s-2-3.3-4.3-5.7c-2.3-2.3-5.7-4.3-5.7-4.3s3.3-2,5.7-4.3C-3702.7,15.4-3700.7,12.1-3700.7,12.1"/>
			<path id="path1976" class="st5" d="M-3672.7,37.1c-0.8,0.2-1.5,0.3-2.3,0.5c-0.2,0.7-0.3,1.5-0.1,2.1c-0.8,1.1-1.7,2-2.7,2.9
				c-0.2,1.2-0.5,2.5-0.2,3.7c-0.1,0.8,0.6,1.3,1.2,1.8c-0.1,1.1-0.2,2.3,0.1,3.4c-0.8,0.7-1.9,1.1-2.6,1.9
				c-0.9,1.6-1.9,3.1-2.4,4.9c-0.4,1.1-0.8,2.2-0.7,3.4c-0.2,5.6-0.2,11.2-0.1,16.8c0,2.4,0,4.8-0.3,7.2c-0.3,0.9,1,0.8,1.5,1.2
				c1.1,0,0,1.5,0.9,1.5c0.8,0.1,1.5,0.3,2,1c0.4,0.8,1.3,0.5,2,0.6c0.7,0.1,1,1.1,1.6,1.5c0.5,0.9,1.1-0.5,1.7-0.7
				c0.6-0.7,1.2,0.5,1.8,0.7c0.6,0.9,1.2,0.3,1.8-0.3c0.6-0.9,1.2-0.3,1.8,0.2c0.6,0.8,1.3-0.2,1.9-0.4c0.1-0.7,0.1-1.6,1.1-1.2
				c0.8,0,1.2,1.1,1.9,0.4c0.6-0.5,0.9-1.3,1.8-1.1c0.9,0.1,1.3-0.5,1.3-1.3c0.6-0.2,1.8,0.1,2-0.5c0-10.6-0.5-16.6-0.5-27.3
				c0.5-3.5-2.1-7.5-3.3-8.9c-0.4-0.5-0.1-1.4-0.1-2.1c-0.1-1.2,1.3-1.9,1.1-3.1c0.2-1.2-0.1-2.5-0.6-3.6c-0.5-0.9-1.2-1.7-1.5-2.7
				c0-0.7,0.8-1.8-0.2-1.9c-1.7-0.7-3.5-0.3-5.3-0.5C-3669.5,37.2-3671.1,37.2-3672.7,37.1L-3672.7,37.1z"/>
			<g id="g1978">
				<path id="path1980" class="st4" d="M-3674.7,40.1c2,0.2,4,0.3,6,0.2c2.2,0,4.3-0.3,6.5-0.5"/>
				<path id="path1982" class="st4" d="M-3676.7,48.1c3.3,0,6.6,0.1,9.9,0.1c1.8,0,3.7,0,5.5,0"/>
				<path id="path1984" class="st4" d="M-3676.1,51.2c3.4,0.1,6.7,0.2,10.1,0.1c1.3,0,2.7-0.1,4-0.2"/>
				<path id="path1986" class="st4" d="M-3671.7,40.7c-0.5,1.8-1.5,2.2-2.8,2.7c-1.4,0.6-2.6,2.7-3,3.4"/>
				<path id="path1988" class="st4" d="M-3666.7,40.2c-0.7,1.5-1.5,2.9-3.9,4.2c-1.5,0.8-2.2,2.7-2.8,3.3"/>
				<path id="path1990" class="st4" d="M-3663.8,40.9c-0.4,1-0.5,2.1-1.2,2.9c-0.6,0.7-1.2,0.9-2.2,1.7c-1.1,0.9-1.9,1.8-2,2.2"/>
				<path id="path1992" class="st4" d="M-3661.3,42.6c-0.3,0.9-0.6,1.7-1.2,2.4c-0.7,1-2.2,1.2-2.6,2.6"/>
				<path id="path1994" class="st4" d="M-3676.6,51.6c-0.7,1.5-1.6,3.3-2,5.1c-0.5,2.1-0.7,4.2-0.9,6.3c-0.3,4.2,0.2,8.4,0,12.6
					c-0.1,3.2-0.3,6.4-0.6,9.7c-0.1,0.6-0.2,1.2-0.3,1.9"/>
				<path id="path1996" class="st4" d="M-3678.2,89.2c0.6-2.5,1.3-5,1.5-7.5c0.3-2.5,0.2-5,0.2-7.6c0-3.1-0.2-6.1-0.2-9.2
					c0-2.8-0.5-5.7,0.1-8.5c0.3-1.7,1.2-3.1,1.9-4.7c0,0,0-0.1,0-0.1c0,0,0,0,0,0"/>
				<path id="path1998" class="st4" d="M-3675.7,90c0.4-2.1,1.2-4.1,1.4-6.2c0.6-6-0.4-12-0.3-18c0-3.5-0.4-7.1,0.3-10.6
					c0.2-1.1,0.9-2.8,1.3-3.3"/>
				<path id="path2000" class="st4" d="M-3672.3,90.4c0.2-5,0.3-10,0.3-15c0-3.3-0.6-6.7-0.5-10c0.1-2.2,0.7-4.4,0.7-6.6
					c0-1.4-0.8-2.8-0.7-4.3c0-1,0.5-1.8,0.7-2.8"/>
				<path id="path2002" class="st4" d="M-3669.2,90.2c0.1-6,0.3-12,0.2-18c0-3.1-0.2-6.2-0.4-9.2c-0.2-2.9-1.1-5.8-0.8-8.6
					c0.1-1,0.8-2.2,0.9-2.8"/>
				<path id="path2004" class="st4" d="M-3665.6,89.1c0-6.6,0.2-13.2,0.1-19.8c-0.1-2.7,0-5.3-0.3-8c-0.2-2-1-3.9-1.1-5.9
					c-0.1-1.3,0.2-2.6,0.4-3.9"/>
				<path id="path2006" class="st4" d="M-3661.6,88.6c-0.2-2-0.6-4-0.7-5.9c-0.1-3,0.4-6,0.3-9c-0.1-5.3-0.7-10.5-1.3-15.8
					c-0.2-1.5-0.5-3-0.6-4.5c0-0.6,0-1.2,0-1.8"/>
				<path id="path2008" class="st4" d="M-3659.6,87.1c-0.2-3.9-0.4-7.7-0.5-11.6c-0.1-5.7,0.9-11.5,0-17.2c-0.4-2.4-1.5-4.7-2.3-7"
					/>
			</g>
			<path id="path2010" class="st3" d="M-3676.2,90.5c0,3.4,0.1,6.8,0.1,10.3c1.4,0.3,2.7,0.7,4.1,1c1.3,0.2,2.6,0.5,3.8,0.7
				c0.6,0.2,1.1,0.4,1.7,0.6c-0.2-3.9-0.3-7.8-0.5-11.8c-0.6-0.4-1.3-0.8-1.9-1.3c-0.3,0.7-0.6,1.4-0.9,2.1c-0.4,0-0.8,0-1.3,0
				c-0.3-0.3-0.7-0.6-1-0.9c0.1-0.3,0.3-0.5,0.4-0.8c-0.3-0.1-0.6-0.2-0.9-0.3c-0.3,0.5-0.6,1-0.9,1.5c-0.3,0-0.6,0-0.9,0
				c-0.3-0.5-0.5-1-0.8-1.5C-3675.3,90.4-3675.8,90.4-3676.2,90.5L-3676.2,90.5z"/>
			<path id="path2012" class="st7" d="M-3676.3,137.3c0,0-1.6-0.5-2.2-1.1c-1.9-2-2.5-4.9-3.4-7.4c-0.7-1.8-0.8-3.9-1.5-5.7
				c-0.7-1.7-1.6-3.4-2.7-4.9c-0.6-1-1.5-1.8-2.1-2.7c-0.9-1.2-2.1-2.2-2.6-3.5c-0.4-1.3-0.6-2.8,0-4c0.5-1.1,1.6-2.2,2.9-2.4
				c0.8-0.1,1.6,0.4,2.3,0.8c1.3,0.7,2.6,1.5,3.7,2.5c0.5,0.5,1.8,4,1.3,1.9c-0.1-1.3-0.3-3.5,0-5.2c0.2-1.2,0.2-2.7,1.2-3.4
				c2.8-2,6.9-0.8,10.3-0.1c3.3,0.6,6.6,1.8,9.3,3.8c1.9,1.4,3.4,3.4,4.4,5.5c1.7,3.4,2.4,7.3,3,11.1c0.3,2.3,0.2,4.6,0.1,6.9
				c-0.1,3.4-0.6,6.9-1,10.3c-0.2,2-0.7,4-0.9,6.1c-0.2,2.2,0,4.4-0.3,6.7c-0.1,0.9-0.2,1.6-0.5,2.7c-0.8,0.9-1.7,1.7-2.7,2.3
				c-1.8,1.1-3.9,2-6,2.4c-1.3,0.3-2.7,0.3-4.1,0.1c0.1-6.6,0.3-13.3,0.4-19.9c-2.5-0.4-4.9-1.4-7.4-2.1
				C-3675.3,137.6-3675.7,137.7-3676.3,137.3L-3676.3,137.3z"/>
			<g id="g2014">
				<path id="path2016" class="st4" d="M-3680.8,107.6c0.7,1.4,1.9,2,3.2,2.4c3.5,1.2,7.4-0.7,11-0.1c0.8,0.1,2.4,0,2.2,0.8
					c-0.2,0.8-1.6-0.3-2.5-0.4c-2.2-0.2-4.4-0.4-6.7-0.4c-1.7,0-3.5-0.2-5.1,0.4c-1.1,0.5-2.1,1.3-2.7,2.3c-0.4,0.6-0.4,1.3-0.4,2
					c0,0.5-0.1,1,0,1.4c0.3,1.3,0.7,2.7,1.8,3.5c1.6,1.1,3.8,0.6,5.7,0.7c3,0.2,6-0.5,9-0.2c0.6,0.1,1.7-0.2,1.6,0.4
					c-0.1,1-2.1-0.1-3.1-0.1c-1.7-0.1-3.3-0.3-5-0.3c-2.8,0.1-5.9-0.3-8.3,1.1c-0.6,0.3-1.1,1-1.3,1.6c-0.3,2.1,0.7,4.5,2.2,6
					c0.7,0.7,1.9,1,2.9,1.2c2.7,0.5,5.4,0.3,8.1,0.1c1.2-0.1,3.1-0.8,3.5-0.5c0.2,0.2-2.2,0.4-3.4,0.5c-1.5,0.2-3.1,0.3-4.6,0.2
					c-0.8,0-1.6-0.4-2.4-0.3c-0.8,0-1.8,0-2.5,0.5c-0.8,0.5-1.4,1.5-1.6,2.4c-0.2,0.9,0.1,2,0.6,2.8c0.3,0.5,1.2,1,1.2,1.2"/>
				<path id="path2018" class="st4" d="M-3667.2,140c1.3,0.1,2,0.1,2.9,0.1c0.8-0.1,1.9-0.2,2.3-0.4"/>
				<path id="path2020" class="st4" d="M-3667.3,143.8c1,0.2,2.3,0.4,3.4,0.4c0.9,0,1.8,0,2.7-0.3c1.2-0.3,2.2-0.9,3.3-1.5
					c0.3-0.2,0.6-0.4,0.9-0.5"/>
				<path id="path2022" class="st4" d="M-3667.2,146.2c1.1,0.1,2.8,0.5,4.2,0.5c0.9,0,1.8-0.1,2.7-0.3c0.7-0.2,1.3-0.5,2-0.8
					c0.7-0.3,1.1-0.4,2-1.1"/>
				<path id="path2024" class="st4" d="M-3667.6,148.6c1,0.1,2.8,0.7,4.2,0.7c1.6,0,3.1-0.4,4.6-0.9c0.9-0.3,1.7-1,2.5-1.3"/>
				<path id="path2026" class="st4" d="M-3667.4,151.4c1,0.3,1.9,0.6,2.9,0.6c1.9,0,3.4-0.3,5.5-0.9c0.9-0.2,2.4-1.2,2.4-1.2"/>
				<path id="path2028" class="st4" d="M-3667.3,154.2c1.3-0.1,3,0.3,4.5,0.1c1.6-0.2,3.1-0.8,4.6-1.4c0.5-0.2,0.9-0.5,1.3-0.8"/>
				<path id="path2030" class="st4" d="M-3667.4,157c1.7,0,3.3,0.3,4.8,0c1.9-0.4,3.9-1.5,5.2-2.2"/>
			</g>
			<path id="path2032" class="st14" d="M-3750.4,48.6c2.5,4.4,5.6,8.4,7.7,13c2.4,5.4,4,11.1,5.3,16.8c1.7,7.4,2.8,14.9,3.1,22.5
				c0.2,4.4-0.3,8.8-0.8,13.2c-0.9,8.5-2,17.1-3.7,25.5c-1.4,6.9-3,13.8-5.5,20.4c-1.5,4-3.3,8-5.6,11.6c-0.4,2,0.3,3,2.4,2.8
				c5.3,0.5,10.6,0.3,15.9,0.5c2.6-5,5.2-10,7.3-15.3c2.1-5,4.1-10,5.4-15.3c2-7.8,2.9-15.9,3.8-23.9c0.7-6.7,1.5-13.5,1.3-20.3
				c-0.1-4.3-0.7-8.6-1.5-12.8c-1.1-5.5-2.3-11-4.4-16.2c-1.7-4.1-4-8-6.6-11.7c-1.6-2.3-3.5-4.6-5.5-6.4c-4.3-1.3-8.6-2.5-13-3.6
				c-1.5-0.4-2.7-1.9-4.4-1.1C-3749.7,48.4-3750,48.5-3750.4,48.6L-3750.4,48.6z"/>
			<path id="path2034" class="st5" d="M-3731.5,53.4c3.7,3.2,9.1,6.4,12.8,9.6c2.5,4.5,5.3,7.6,8.1,11.9c1.9,3.9,5.6,6.8,6.2,11.4
				c1.7,5,0.2,11.1,4,15.4c2.3,4.9,8.6,7.8,8,13.7c-0.3,4.9,3.7,8.3,5.9,12.2c3.3,3,7.1,5.3,8.9,9.7c2.5,1.3,1.3,4,1.4,6.2
				c0.2,2.6-0.4,4.7-2.9,6.1c-3.9,4.5-0.1,10.4,3.1,13.5c-0.2,6-0.3,12.5-0.5,18.4c-8.9,0.1-17.8-0.1-26.8,0c-1-3.9-3.2-7.2-7.3-7.8
				c-2.7-1.8-4.6-6.6-4.7-8.4c-3.5,3-5.7,9.3-9,10.8c-2.6-1.9-9.7,0.9-5.9-3.9c4.5-10,10.1-19.8,11.8-30.8c2.3-14.7,5-29.5,4.5-44.4
				c-1.5-9.6-2.8-19.4-6.7-28.3C-3723.2,63.2-3727.5,58.1-3731.5,53.4L-3731.5,53.4z"/>
			<g id="g2036">
				<path id="path2038" class="st4" d="M-3712.6,78.9l2.7,11.3l2.4,9.7l1.1,13.1l-0.5,11.8l-0.5,13.1l-2.1,13.9l-2.4,8l-3.2,5.6"/>
				<path id="path2040" class="st4" d="M-3746.6,172.8c8.8-3.3,15.3-10.2,22-16.6"/>
				<path id="path2042" class="st4" d="M-3740.7,173.6c4.6-2.2,8.8-4.8,12.6-8.3"/>
				<path id="path2044" class="st4" d="M-3735.4,173.3c1.4-0.8,2.9-1.6,4.3-2.4"/>
				<path id="path2046" class="st4" d="M-3747.2,169.8c11.2-3.8,17.6-13.4,24.9-22"/>
				<path id="path2048" class="st4" d="M-3744.5,164.5c10.4-5.4,16.9-15.7,24.9-23.9"/>
				<path id="path2050" class="st4" d="M-3741.8,159.1c9-5.1,15-15,22.5-22.3"/>
				<path id="path2052" class="st4" d="M-3740.7,154c10.1-4.3,16.2-14.2,22-23.1"/>
				<path id="path2054" class="st4" d="M-3738.9,148.9c10.3-4.7,16.3-15.8,21.2-25.5"/>
				<path id="path2056" class="st4" d="M-3737.8,144.4c11-5.4,15.8-18.5,21.4-28.7"/>
				<path id="path2058" class="st4" d="M-3736.7,139.8c11.2-7.1,15.4-21.4,21.2-32.7"/>
				<path id="path2060" class="st4" d="M-3735.9,134.4c10.4-7,14.4-20.5,19.3-31.7c0.4-1,0.7-2.1,1.1-3.1"/>
				<path id="path2062" class="st4" d="M-3735.1,128.8c11.7-7.9,14.6-24.1,19-36.7"/>
				<path id="path2064" class="st4" d="M-3733.5,122.9c9.8-9.2,13.2-23.7,15.8-36.5"/>
				<path id="path2066" class="st4" d="M-3719.3,81.3c-1.1,12.3-4.1,24.6-12.6,34"/>
				<path id="path2068" class="st4" d="M-3732.2,106.8c9.6-9.2,9.8-22.6,11.3-34.9"/>
				<path id="path2070" class="st4" d="M-3723.9,68.5c0.3,6.6-0.6,13.1-2.1,19.6"/>
				<path id="path2072" class="st4" d="M-3726.8,64.2c0,4.4,0.4,8.7-1.3,12.9"/>
				<path id="path2074" class="st4" d="M-3729.2,58.6c0.3,2.5,0.4,4.8-0.5,7.2"/>
				<g id="g2076" transform="matrix(1.02009,0,0,1,-5.675,0)">
					<path id="path2078" class="st17" d="M-3599,147.3c-4.4-1.6-9.3,3-8.4,7.5c0.7,5.7,3.8,11.4,8.7,14.5"/>
					<path id="path2080" class="st17" d="M-3598.5,179.5c-4.8-3.7-9.2-9.3-10.1-16.4l-0.1-0.5"/>
					<path id="path2082" class="st17" d="M-3606.7,151.1c-7.2,6.2-8.1,18-2.2,25.4c1.3,1.6,2.6,3.6,4.1,4.9"/>
					<path id="path2084" class="st17" d="M-3612.8,162c-2.9,3.5-5,9.7-4.4,14.6c0,0.8,1.2,2.8,1.1,3.6"/>
					<path id="path2086" class="st17" d="M-3618.8,168c-2.2,2.8-4,8.2-2.6,12.5"/>
					<path id="path2088" class="st17" d="M-3603.5,133.9c0.6,5.5-1.4,11.2-5.4,15c-2.8,3.1-5.4,6.4-8.7,9c-4.8,3.7-7.6,6.6-7.3,15.1
						"/>
					<path id="path2090" class="st17" d="M-3627.7,174c-0.7-3.8-1-9.2,0.8-13.3c1.7-3.8,5.7-6.2,9-8.9c4.4-3.6,10-5.8,11.5-11.5
						c0.6-3.2,0-6.5,0.2-9.7"/>
					<path id="path2092" class="st17" d="M-3608.9,128.5c0,4,2,8.3-0.5,12c-2.8,3.5-6.7,5.9-10.7,7.7c-4.1,2.8-8.2,6.2-10.3,10.8
						c-1.1,2.6-3.8,7.5-1.2,12.1"/>
					<path id="path2094" class="st17" d="M-3611.3,126.9c-0.2,4.4,1.6,9.2-0.9,13.2c-0.8,1-2,1.6-3.1,2"/>
					<path id="path2096" class="st17" d="M-3614,124.8c-0.4,4.5,0.6,9.6-2.7,13.3c-2.4,2.8-5.4,5.1-7.5,8.2
						c-1.5,1.9-3.3,3.8-3.8,6.2"/>
					<path id="path2098" class="st17" d="M-3615.1,120.8c-0.2,5.6-2.4,11-5.4,15.7c-2,2.8-5.4,4.7-6.4,8.2"/>
					<path id="path2100" class="st17" d="M-3616.4,114.3c-1.3,5.8-1,12.4-5.1,17.2c-2,2.5-3.8,5.1-5.1,8"/>
					<path id="path2102" class="st17" d="M-3618.3,112.5c-1.4,6.9-5.3,12.9-7.5,19.5c-0.3,0.7-0.6,1.5-0.8,2.3"/>
					<path id="path2104" class="st17" d="M-3622,108.2c0.2,4.1-1,8.1-2.3,11.9c-0.8,1.8-2,3.7-1.7,5.8"/>
				</g>
				<path id="path2106" class="st4" d="M-3728.4,174.7c3-2.3,6.2-4.4,9.4-6.4"/>
				<path id="path2108" class="st4" d="M-3728.4,171.4c4.9-3.3,10.1-6.4,13.6-11.2c0.5-0.8,2.2-2.7,2.6-3.6"/>
				<path id="path2110" class="st4" d="M-3725.6,166c3.8-2.1,8.5-6.2,10.9-9.8c1.1-1.3,2.7-3.9,4.1-4.9"/>
				<path id="path2112" class="st4" d="M-3722.7,159.6c2.5-2.6,4.5-4.4,7.3-6.7c1-0.9,4.5-4.6,5.6-5.4"/>
				<path id="path2114" class="st4" d="M-3720.5,153.4c3.2-2.3,7.2-6.5,10.6-8.5"/>
				<path id="path2116" class="st4" d="M-3718.5,148.6c2.7-2.3,6.5-6.8,10.3-8.7"/>
				<path id="path2118" class="st4" d="M-3717.1,143.6c2.7-2.7,5.4-5.6,8.6-7.8"/>
				<path id="path2120" class="st4" d="M-3716.1,139.3c2.2-1.8,5.2-6,7.7-7.5"/>
				<path id="path2122" class="st4" d="M-3716,135.8c2.1-2.5,4.7-5.9,7.7-7.5"/>
				<path id="path2124" class="st4" d="M-3715.3,130.7c1.9-2.5,2.8-4.3,5.2-6.3l2.2-1.7"/>
				<path id="path2126" class="st4" d="M-3714.7,124.7c1.6-2.4,4.6-5.7,6.9-7.4"/>
				<path id="path2128" class="st4" d="M-3713.8,119.9c1.9-2.3,3.7-4.8,5.5-7.1"/>
				<path id="path2130" class="st4" d="M-3713.1,114.8c1.2-2.2,3.4-4.7,5.1-6.3"/>
			</g>
			<path id="path2132" class="st5" d="M-3667.8,163.2c0.9,0,1.9,0.1,2.8,0c2.1-0.7,4.1-1.3,6.1-2.1c1.4-0.5,2.7-1.4,4-2.1
				c1.4-1.3,3-2.5,4.2-3.9c0.8-0.7,1.3-1.7,1.8-2.6c-0.1,1.7-0.3,3.4-0.3,5.1c0.3,5.3,0.2,9.6,0.5,14.9c-0.2,2.7-1.2,6.2-1.4,8.9
				c-6.3-0.1-11.5,0.1-17.9,0C-3667.9,175.4-3667.9,169.2-3667.8,163.2L-3667.8,163.2z"/>
			<g id="g2134">
				<path id="path2136" class="st4" d="M-3667.6,171.8c2.8-0.8,6.7-0.6,9.5-2.1c2.6-1.4,4.8-3.7,6.6-6.1c0.9-1.1,1.4-2.8,1.9-3.8"/>
				<path id="path2138" class="st4" d="M-3668,179.3c2.1-0.6,5-1,7.4-1.9c2.1-0.7,4.3-1.2,6-2.6c2.3-1.9,3.6-5.7,5.1-7.4"/>
				<path id="path2140" class="st4" d="M-3659.3,181.4c1.8-0.7,4.4-1.6,6.2-3c1.4-1.1,2.4-3.1,3.5-4"/>
			</g>
		</g>
		<g id="g2142">
			<path id="path2144" class="st0" d="M-3654,145.7c0.9,0.6,2.2,0.4,3,1.1c0.8,0.6,1.1,1.7,1.5,2.6c0.3,0.6,0.6,1.2,0.8,1.9
				c0.1,0.4,0.1,0.8-0.1,1.2c-0.3,1-1,1.9-1.8,2.8c-1.3,1.6-2.9,2.9-4.6,4c-1.4,1-2.9,1.7-4.4,2.4c-1.2,0.6-2.3,1.2-3.6,1.5
				c-1.2,0.3-2.4,0.6-3.6,0.6c-0.5,0-1.1,0.2-1.4-0.2c-0.4-1.7,0-2.6,0-3.9c1.3,0,2.5,0.2,3.8,0c1.8-0.4,3.4-1.3,5.1-2.1
				c0.8-0.4,1.6-0.7,2.4-1.2c0.6-0.4,1.2-0.8,1.7-1.4c0.6-0.8,1.1-1.8,1.3-2.8c0.2-1-0.3-2-0.4-3c-0.1-0.6-0.2-1.2-0.2-1.8
				C-3654.5,147-3654.7,145.9-3654,145.7L-3654,145.7z"/>
			<path id="path2146" class="st8" d="M-3676.3,146.4c0.1,5.5,0.2,10.9,0.4,16.4c-0.6-0.6-1.3-1.2-1.8-1.9c-0.6-0.8-1.1-1.6-1.5-2.5
				c-0.5-1-1-2-1.2-3c-0.2-0.7-0.3-1.5-0.2-2.3c0.2-1.3,0.8-2.6,1.5-3.7C-3678.4,148.2-3677.2,147.7-3676.3,146.4L-3676.3,146.4z"/>
		</g>
		<path id="path2148" class="st13" d="M-3676.3,137.6l-0.1,43.8h8.4l0.6-41.3l-3.5-1l-3.4-1L-3676.3,137.6z"/>
		<g id="g2150">
			<path id="path2152" class="st8" d="M-3785.4,49.5c-1.7,0.4-0.9,2.1-1.1,3.2c-0.6,2.5,0.1,5.5-1.2,7.7c-0.8,1.4-3.3,1.4-3.7,2.9
				c-0.3,1.2,1.2,2.2,1.2,3.5c0,1.5-0.2,3.2-1.2,4.3c-0.7,0.7-2.4,0.1-3,1c-0.6,1.1,0.3,2.5,0.7,3.7c1.6,4.6,5.1,8.6,6.4,13.2
				c2-0.7,4.1-0.6,6.1-0.7c3.5-0.3,7.1-0.4,10.6-0.5c6.3-0.1,12.5-0.1,18.8,0.1c5,0.1,10-0.1,14.9,0.6c2.1,0.9,0.6-1.7,0.6-2.6
				c0-6.3-2.5-12.4-4.6-18.4c-1.3-3.8-3.2-7.4-5-11c-1.4-2.7-3-5.4-4.7-8c-1.4,0.4-1.7,1.6-2.2,2.6c-1.9,3.2-1.6,7.5-3.8,10.5
				c-1.5,2.1-3.4,4.6-6,4.8c-3.7,0.3-6.5-3.6-9.8-5.5c-2.2-1.3-4.6-2.4-6.6-4.1c-1.6-1.4-2.8-3.3-4.2-4.9
				C-3783.9,51.1-3784.6,50.2-3785.4,49.5L-3785.4,49.5z"/>
			<path id="path2154" class="st4" d="M-3789.3,68.2c3.9,2.6,7.5,4.8,10.4,9.2c0.5,0.8,1.8,1.2,2.3,0.6c1.2-1.6,2.4-3.5,4-5
				c2.9-2.6,5.7-4.9,9.9-6.3c1.6-0.5,3.1,1.1,4.5,2.1c3.1,2.1,5.2,5.6,8.2,7.9c1,0.8,2,2.2,3.3,1.9c1.1-0.3,1.6-1.4,3.4-5.7
				c1-2.5,1.2-5.2,1.8-7.8"/>
			<g id="g2156" transform="translate(0,512.36)">
				<path id="path2158" class="st8" d="M-3771.4-337.7l11.3-0.4l9.7,0.2l2.1-4.8l5.3-12.9l4.4-16.8l2.3-12l1.1-10.6v-2.3l-10.3-0.7
					l-12.4,0.5l-11.5,0.9l-6.2,0.3l-3.7,0.3l2.8,11.8l2.1,11.8l1.5,11.8l0.4,8.3L-3771.4-337.7z"/>
				<g id="g2160">
					<path id="path2162" class="st4" d="M-3771.6-354.7c0,0,7.1,0.4,10.6,0.5c2.7,0.1,5.3,0.3,8,0.4c3.1,0,9.2-0.2,9.2-0.2"/>
					<path id="path2164" class="st4" d="M-3772.1-350.1c0,0,7.5,0,11.3,0.1c2.5,0.1,5.1,0.2,7.6,0.4c2.4,0.2,7.2,0.7,7.2,0.7"/>
					<path id="path2166" class="st4" d="M-3771.6-345.5c0,0,7.2-0.6,10.8-0.5c3.3,0,6.6,0.3,9.9,0.7c0.9,0.1,2.7,0.5,2.7,0.5"/>
					<path id="path2168" class="st4" d="M-3771.5-340.7c0,0,6.4-0.4,9.6-0.4c1.9,0,3.8,0.1,5.7,0.3c2.2,0.2,6.7,0.7,6.7,0.7"/>
				</g>
				<path id="path2170" class="st3" d="M-3760.8-397.1l-9.4,4.8c0,0,0.6,5.4,0.7,8.1c0.1,2.7,0.2,5.4,0.2,8.1c0,3.1-0.2,9.4-0.2,9.4
					s3.8,2.2,5.7,3.4c1.5,0.9,3.1,1.7,4.4,2.8c1.2,0.9,3.2,3.2,3.2,3.2l1.2,0.2c0,0,2.3-2.1,3.5-3.1c1.6-1.3,3.3-2.3,4.8-3.6
					c1.2-1,3.4-3,3.4-3s0.2-6.2,0.4-9.4c0.1-3,0.3-6,0.5-9c0.2-2.4,0.5-7.1,0.5-7.1s-4.1-1.7-6.2-2.5c-1.3-0.5-2.6-0.9-3.9-1.4
					c-1-0.4-2.8-1.4-2.8-1.4L-3760.8-397.1z"/>
				<path id="path2172" class="st4" d="M-3757.2-394.2c0,0-2.7,1.7-4.2,2.4c-1.4,0.7-4.2,1.9-4.2,1.9s0.4,2.9,0.5,4.3
					c0.2,2.1,0.1,4.3,0.2,6.5c0,1.6,0,3.3,0,4.9c0,1.2,0.1,2.4,0,3.5c-0.1,0.8-0.4,2.5-0.4,2.5s1.7,1.2,2.7,1.8
					c0.8,0.5,1.7,0.9,2.5,1.4c1,0.6,1.9,1.1,2.8,1.8c0.8,0.6,2.2,1.9,2.2,1.9s1.9-1.5,2.7-2.3c0.9-0.8,1.7-1.6,2.5-2.4
					c1-1,2.8-3,2.8-3s0-5.8,0-8.7c0-2,0.1-4,0.2-6c0.1-1.9,0.2-5.8,0.2-5.8s-2.6-1.3-3.9-1.9c-1.2-0.6-2.3-1.3-3.5-1.9
					c-0.6-0.3-1.8-0.9-1.8-0.9L-3757.2-394.2z"/>
			</g>
			<path id="path2174" class="st11" d="M-3755.9,126.2c0,0,1.5,2.5,3.3,4.3s4.3,3.3,4.3,3.3s-2.5,1.5-4.3,3.3s-3.3,4.3-3.3,4.3
				s-1.5-2.5-3.3-4.3s-4.3-3.3-4.3-3.3s2.5-1.5,4.3-3.3S-3755.9,126.2-3755.9,126.2"/>
			<path id="path2176" class="st4" d="M-3711.4,80.3l2.7,11.3l2.4,9.7l1.1,13.1l-0.5,11.8l-0.5,13.1l-2.1,13.9l-2.4,8l-3.2,5.6"/>
		</g>
		<g id="g2178" transform="translate(0,512.36)">
			<path id="path2180" class="st13" d="M-3837.2-331c0,0,1-2.3,1.9-3.1c0.6-0.6,1.5-0.8,2.3-1.1c2.6-0.7,5.3-0.9,8-1.1
				c3.6-0.2,7.3,0.1,11,0c4.2-0.1,8.5-0.6,12.7-0.7c3.9-0.1,7.9-0.1,11.8-0.2c6.1-0.2,12.3-0.7,18.4-0.9c7-0.2,14-0.1,21,0
				c5.1,0.1,10.1,0.3,15.2,0.5c2.4,0.1,4.7,0.1,7.1,0.5c1.7,0.3,3.7,0.3,4.9,1.4c0.5,0.4,0.6,1.1,0.7,1.8c0.2,0.9,0.2,2.8,0.2,2.8
				L-3837.2-331z"/>
			<path id="path2182" class="st4" d="M-3835.9-332.9c0,0,5.2-1,7.8-1.2c8.6-0.7,17.3,0.3,26,0.2c10.5-0.1,21-0.8,31.5-0.9
				c5.3,0,10.6,0.1,15.9,0.2c3.7,0,7.4,0.1,11.1,0.2c3.8,0,7.7-0.2,11.5,0c1.8,0.1,3.7,0.3,5.5,0.5c1.4,0.2,4.2,0.7,4.2,0.7"/>
		</g>
	</g>
	<g id="g2184" transform="matrix(-0.99307,0,0,-1,360.33,1564)">
		<g id="g2186">
			<path id="path2188" class="st3" d="M4129.6,1289.8c0.8,5.5,3.4,10.6,5,15.9c1.2,3.9,2.1,7.9,3.3,11.8c5.1-0.6,10.1-0.9,15.2-1.3
				c4.3-0.3,8.6-0.4,13-0.5c3,0,5.9,0.1,8.9,0.2c2.3,0.1,4.6,0,6.9,0.3c0.3-0.5,0.2-1.5,0.3-2.2c0.3-2.9,0.4-5.8,0.5-8.7
				c0.1-3.5,0.4-7.1,0-10.6c-0.2-1.7-0.8-3.3-1.2-5c-2.8-0.4-5.5-1-8.3-1.2c-4-0.3-8,0-12,0.1c-4.9,0-9.7,0-14.6,0.1
				c-2.6,0.1-5.2,0.2-7.8,0.3C4135.6,1289.2,4132.6,1289.5,4129.6,1289.8L4129.6,1289.8z"/>
			<path id="path2190" class="st4" d="M4131.5,1296.1c4.8-0.6,9.7-1.2,14.6-1.4c6.3-0.3,12.7,0.2,19,0.2c4.8,0,9.6-0.2,14.3,0.1
				c0.9,0.1,1.8,0.2,2.8,0.3"/>
			<path id="path2192" class="st5" d="M4185.1,1301.3c0,1.9-1.4,3.4-3.1,3.4c-1.7,0-3.1-1.5-3.1-3.4s1.4-3.4,3.1-3.4
				C4183.7,1297.9,4185.1,1299.4,4185.1,1301.3z"/>
			<g id="g2194">
				<path id="path2196" class="st4" d="M4135.2,1308c6.2-1.5,12.1-1.2,18.2-1.4c4-0.1,8,0,12,0.2c5.7,0.2,11.4,0.3,17.1,1.1"/>
				<path id="path2198" class="st4" d="M4137.5,1314.7c9.4-1,18.8-1.7,28.2-1.9c5.3-0.1,10.7,0.2,16,0.3"/>
				<path id="path2200" class="st4" d="M4136.6,1310.3c0,0,1.1-1.7,1.8-1.6c0.7-0.2,2.5,4.3,3.3,4.3c0.8,0,2.6-4.8,3.1-4.6
					c1-0.2,3.6,4.7,4.2,4.1c0.7,0.4,3.8-4.5,4.5-4.4c0.5-0.1,2.9,4.1,3.7,4c1,0,2.9-4.2,3.6-4.2c0.8-0.1,3.7,3.8,4.4,3.7
					c1,0.2,3.9-3.6,4.3-3.6c0.8,0,3.4,3.8,4.1,3.7c0.7,0,3.1-3.4,3.9-3.2c0.9-0.2,4.2,3,4.2,3"/>
			</g>
			<path id="path2202" class="st5" d="M4139.5,1302.4c0,2.1-1.7,3.8-3.7,3.8c-2.1,0-3.7-1.7-3.7-3.8c0,0,0,0,0,0
				c0-2.1,1.7-3.8,3.7-3.8C4137.8,1298.6,4139.5,1300.3,4139.5,1302.4C4139.5,1302.4,4139.5,1302.4,4139.5,1302.4z"/>
			<path id="path2204" class="st6" d="M4151.8,1300.9c0,1.8-1.5,3.3-3.3,3.3s-3.3-1.5-3.3-3.3c0-1.8,1.5-3.3,3.3-3.3
				S4151.8,1299.1,4151.8,1300.9z"/>
			<path id="path2206" class="st5" d="M4164.4,1300.6c0,2-1.6,3.5-3.6,3.5c-2,0-3.6-1.6-3.6-3.5c0,0,0,0,0,0c0-2,1.6-3.5,3.6-3.5
				C4162.8,1297,4164.4,1298.6,4164.4,1300.6C4164.4,1300.6,4164.4,1300.6,4164.4,1300.6z"/>
			<path id="path2208" class="st6" d="M4175.4,1301.1c0,1.8-1.4,3.2-3.2,3.2s-3.2-1.4-3.2-3.2c0,0,0,0,0,0c0-1.8,1.4-3.2,3.2-3.2
				S4175.4,1299.3,4175.4,1301.1C4175.4,1301.1,4175.4,1301.1,4175.4,1301.1z"/>
			<path id="path2210" class="st7" d="M4180.1,1181.4c0.4,0.7,0.3,1.6,0.4,2.5c0.1,0.8-0.1,1.5,0,2.3c0,0.3,0.1,0.6,0.2,0.9
				c0.3,0.7,0.9,1.2,1.1,1.9c0.3,0.9,0.2,1.9,0.2,2.8c0,0.8-0.1,1.6-0.4,2.3c-0.2,0.6-0.8,1.2-1.1,1.8c-0.4,0.7-0.7,1.5-0.9,2.3
				c-0.2,0.9-0.2,1.8,0,2.7c0.2,0.8,0.9,1.5,1.2,2.3c0.6,1.4,1,2.8,1.4,4.2c0.2,0.9,0.3,1.9,0.5,2.8c0.3,1,0.7,2,1.1,3
				c0.3,0.9,0.7,1.7,0.9,2.7c0.1,0.8,0.1,1.5,0,2.3s-0.4,1.5-0.9,2.1c-0.5,0.6-1.2,1-1.9,1.2c-0.4,0.2-0.9,0.2-1.4,0.2
				c-0.9-0.1-2.7-0.9-2.7-0.9s0.7,2,0.9,3c0.2,1,0.4,2,0.2,3c-0.2,0.7-0.5,1.3-1.1,1.8c-0.5,0.5-1.3,0.7-1.9,0.9
				c-0.8,0.2-2.5,0.2-2.5,0.2s1.4,0.8,1.8,1.4c0.4,0.7,0.4,1.5,0.4,2.3c0,0.7,0.1,1.4-0.4,1.9c-0.3,0.4-0.8,0.5-1.2,0.5
				c-0.5,0.1-1.1-0.7-1.6-0.4c-0.5,0.3-0.4,1.2-0.4,1.8c0.1,0.7,0.7,1.2,0.9,1.9c0.1,0.6,0,1.2,0,1.8c0,0.9,0,1.8-0.2,2.7
				c-0.1,0.8-0.3,1.7-0.7,2.5c-0.4,0.8-0.8,1.6-1.4,2.1c-0.9,0.7-2.1,1-3.2,1.4c-0.6,0.3-1.3,0.6-1.9,0.7c-0.3,0.1-0.8-0.2-1.1,0
				c-1.1,0.9-0.6,2.8-1.1,4.2c-0.5,1.6-0.9,3.1-1.6,4.6c-0.7,1.4-1.7,2.6-2.7,3.9c-0.6,0.8-1.1,1.8-1.9,2.5
				c-0.7,0.6-2.5,1.4-2.5,1.4s-3.2-0.3-5.5-2.1c-1.6-1.3-3.4-2.4-5.1-3.5c-1.3-0.8-2.8-1.4-4.1-2.3c-0.9-0.6-1.7-1.2-2.5-1.9
				c-0.8-0.8-1.6-1.6-2.3-2.5c-0.6-0.8-0.8-1.8-1.4-2.5c-0.5-0.6-1.5-0.7-1.9-1.4c-0.2-0.3-0.2-0.9-0.2-0.9s0.9-1.2,0.9-1.9
				c0-0.5-0.4-1-0.7-1.4c-0.4-0.7-0.9-1.3-1.2-1.9c-0.5-1-0.9-2.1-1.2-3.2c-0.3-0.9-0.4-1.8-0.5-2.7c-0.1-0.6-0.2-1.3,0-1.9
				c0.2-1,0.7-2,1.4-2.7c0.7-0.6,1.6-0.6,2.5-0.9c1.2-0.4,2.6-0.2,3.7-0.9c1.4-0.9,2.2-2.5,3-3.9c0.7-1.1,1.2-2.3,1.6-3.5
				c0.3-0.9,0.3-1.9,0.4-2.8c0.1-1.4,0.1-2.7,0-4.1c-0.1-1.2,0-2.5-0.4-3.7c-0.2-0.8-0.9-1.3-1.1-2.1c-0.2-1.4-0.2-3,0.5-4.2
				c0.6-1,1.9-1.3,2.7-2.1c0.7-0.7,1-1.7,1.8-2.3c0.6-0.4,1.4-0.4,1.9-0.9c0.9-0.9,1.4-2.3,1.8-3.5c0.3-1.1,0.3-2.4,0.4-3.5
				c0.1-1.2,0.1-2.4,0.2-3.5c0-0.9,0-1.9,0-2.8c0-1.2,0.1-2.4,0-3.5c-0.1-0.8-0.3-1.6-0.4-2.5c-0.1-0.9-0.2-2.7-0.2-2.7
				s4.3-0.9,6.4-1.4c1.1-0.3,2.2-0.8,3.4-1.1c1.3-0.3,2.7-0.5,4.1-0.7c1.3-0.2,2.7-0.2,4.1-0.4c1.1-0.1,2.1-0.4,3.2-0.4
				c0.9,0,1.8,0.2,2.7,0.4c1,0.2,1.9,0.4,2.8,0.9c1.1,0.5,2,1.4,3,2.1C4178.8,1180.5,4179.7,1180.7,4180.1,1181.4L4180.1,1181.4z"/>
			<path id="path2212" class="st3" d="M4178.3,1191c0.7,0.5,0.2,1.5,0.2,2.2c-0.2,1.1-1.1,1.3-2.1,1.6c-1.7,0.6-3.4,0-4.9-0.8
				c-1.5-0.6-2.9-1.3-4.6-1c-1,0.2-1.9,0.6-3,0.5c-1.4,0-2.5,0.9-3.9,1.2c-1,0-1.3,1.5-2.2,1.3c-0.2-0.7,0.3-1.4,0.7-2
				c0.8-1.1,1.9-2,3.3-2.2c1.3-0.2,1.8-0.5,3-0.9c1-0.2,2.7-0.4,3.8-0.3c1.7,0.3,3.2,1.3,4.8,2c1,0.4,2.2,0.3,3.1-0.4
				C4177.1,1191.9,4177.6,1191.3,4178.3,1191L4178.3,1191L4178.3,1191z"/>
			<path id="path2214" class="st8" d="M4156.4,1201.7c0.7-0.6,1.9,0.4,2.9,0.4c0.8,0,1.6-0.2,2.4-0.4c1.5-0.4,2.8-1.4,4.3-1.8
				c0.5-0.2,1.1-0.2,1.7-0.3c0.9-0.1,1.8-0.1,2.6-0.1c0.9,0,1.7-0.2,2.6,0c0.4,0.1,0.8,0.6,1.2,0.6c0.3,0,0.6-0.5,0.8-0.3
				c0.5,0.5-0.6,1.3-1,1.9c-0.4,0.6-0.6,1.4-1.2,1.9c-0.9,0.9-2,1.5-3.1,2c-0.5,0.3-1.1,0.4-1.7,0.6c-0.4,0.1-0.7,0.3-1.1,0.3
				c-0.8-0.1-1.5-0.6-2.2-1c-0.7-0.4-1.1-1.1-1.8-1.5c-0.7-0.5-1.4-0.9-2.2-1.1c-1.2-0.3-2.5,0.2-3.6-0.4
				C4156.8,1202.3,4156.5,1202,4156.4,1201.7L4156.4,1201.7z"/>
		</g>
		<g id="g2216" transform="translate(0,512.36)">
			<path id="path2218" class="st9" d="M4171.6,690.3c0,1.7-1.2,3.1-2.7,3.1c-1.5,0-2.7-1.4-2.7-3.1c0-1.7,1.2-3.1,2.7-3.1
				C4170.4,687.3,4171.6,688.6,4171.6,690.3z"/>
			<path id="path2220" class="st10" d="M4170.1,689.8c0,0.5-0.3,0.9-0.7,0.9c-0.4,0-0.7-0.4-0.7-0.9l0,0c0-0.5,0.3-0.9,0.7-0.9
				C4169.7,688.9,4170.1,689.3,4170.1,689.8z"/>
		</g>
		<g id="g2222">
			<path id="path2224" class="st4" d="M4172.1,1216.2c-0.6,0.7-1.3,1.4-1.4,2.4c-0.1,1.1,0.6,2.1,1.5,2.5c0.8,0.4,1.7,0.6,2.6,0.6
				c0.5,0,0.8-0.5,0.9-0.9c0.3-0.5,0.9-0.4,1.4-0.3c0.2,0,0.4,0.1,0.6,0.2"/>
			<path id="path2226" class="st3" d="M4175.3,1221.9c-0.3,0.4-1.1,0.2-1.6,0.4c-0.6,0.2-1.1,0.5-1.7,0.7c-0.9,0.2-1.9-0.1-2.6,0.3
				c-1,0.6-1.1,2.1-1.9,3c-0.3,0.4-0.7,0.8-1.2,1c-0.4,0.2-0.8,0.2-1.2,0.2c-0.4,0-0.9,0-1.3-0.2c-0.4-0.2-0.4-1-0.8-1
				c-0.3,0-0.5,0.5-0.5,0.7c-0.1,0.4,0,0.8,0.1,1.2c0.1,0.2,0.2,0.4,0.4,0.5c0.6,0.5,1.5,0.7,2.2,0.8c1,0.2,1.9,0.1,2.9,0
				c0.4,0,0.7-0.1,1-0.2c0.5-0.2,1.1-0.4,1.5-0.7c0.6-0.4,0.9,0.9,1.6-1.6c0.1-0.5,0.9-0.3,1.4-0.4c0.4-0.1,0.9-0.3,1.3-0.3
				c0.6-0.1,1.2,0,1.8,0c0.5,0,1.1,0.2,1.5-0.1c0.4-0.3,0.4-0.8,0.4-1.3c0-1-0.4-2-0.7-3c-0.1-0.4-0.2-0.9-0.5-1.2
				c-0.1-0.2-0.3-0.3-0.5-0.3c-0.3,0-0.6,0.1-0.9,0.3C4175.8,1221.1,4175.5,1221.5,4175.3,1221.9L4175.3,1221.9z"/>
			<path id="path2228" class="st11" d="M4178.7,1226.5c-0.5-0.2-0.9-0.5-1.4-0.7c-0.5-0.1-1.1-0.2-1.7-0.2c-0.7,0.2-1.4,0.4-2.1,0.7
				c-0.6,0.6-1.1,1.2-1.7,1.8c-0.7,0.5-1.4,1-2.1,1.4c-0.5,0.2-1,0.4-1.4,0.5c-0.3-0.1-0.6-0.2-0.8-0.2c-0.1,0.1-0.6,0.1-0.4,0.3
				c0.1,0.2,0.2,0.4,0.4,0.4c0.2,0,0.5,0.1,0.7,0.3c0.5,0.4,1,0.7,1.5,1c0.4,0.4,0.9,0.8,1.2,1.3c0.3,0.4,0.7,0.9,0.9,1.4
				c0.1,0.2,0.3,0.4,0.5,0.5c0.4,0.3,0.8,0.6,1.2,0.8c0.5,0,0.9,0,1.4,0c0.3-0.3,0.6-0.6,0.9-0.9c0-0.7,0-1.4-0.1-2.1
				c0-0.5-0.3-0.8-0.4-1.2c-0.1-0.4-0.3-0.7-0.6-1c-0.7-0.3-1.7-0.3-1.9-0.6c0.7,0.1,2.7-0.1,3.4-0.3c0.3-0.1,0.6-0.1,0.9-0.2
				c0.5-0.6,1.1-1.2,1.6-1.8C4178.6,1227.2,4178.6,1226.9,4178.7,1226.5L4178.7,1226.5z"/>
		</g>
		<g id="g2230">
			<path id="path2232" class="st12" d="M4158.5,1201.9l1.4-0.4l1.5-0.6l1.9-1.6l1.6-0.9l2.3-0.7l1.5-0.3l1.4,0.2l1.2,0.4l1.3,1.3
				l1.2,0.4l1,0.3"/>
			<g id="g2234">
				<path id="path2236" class="st4" d="M4180.1,1198.2c0.1-0.5,1,0.1,1.5,0c0.4-0.1,0.7-0.3,1-0.4c0.3-0.1,0.8-0.4,0.9-0.1
					c0.1,0.2-0.2,0.4-0.4,0.5c-0.3,0.2-0.8,0.2-1.2,0.3c-0.3,0.1-0.6,0.2-0.9,0.1C4180.8,1198.6,4180.1,1198.6,4180.1,1198.2
					L4180.1,1198.2z"/>
				<path id="path2238" class="st4" d="M4177.6,1182.6l0.9,1.6l1.1,1.1l1,1.8"/>
				<path id="path2240" class="st4" d="M4147.4,1245.3c0.6,1.1,1.8,1.8,2.9,2.4c1.9,1,4.1,1.2,6.2,1.7c1.5,0.3,3.1,0.7,4.7,0.8
					c1.1,0.1,2.8,0.1,3.4,0"/>
				<path id="path2242" class="st4" d="M4150.2,1250.1c2.2,1.2,4.6,1.7,7,2.1c1,0.2,2.1,0,3.1,0.1c1,0.1,2,0.4,3,0.3
					c0.2,0,0.3,0,0.5-0.1"/>
				<path id="path2244" class="st4" d="M4151.8,1253c1.7,0.6,3.6,0.7,5.4,0.9c2,0.2,4,0,6,0.4"/>
				<path id="path2246" class="st4" d="M4152.3,1255.6c1.8,0.6,3.8,0.7,5.7,0.9c1.5,0.2,3-0.3,4.5,0.3"/>
				<path id="path2248" class="st4" d="M4154.2,1258.2c2.6,0.4,5.2,0.2,7.9,0.3"/>
				<path id="path2250" class="st4" d="M4155.4,1260.2c1.3,0.3,2.3,0.4,3.5,0.5c0.6,0,1.5,0,1.7,0"/>
				<path id="path2252" class="st4" d="M4156.7,1262.5c0.9,0.1,1.8,0.2,2.6,0.3"/>
			</g>
		</g>
		<path id="path2254" class="st13" d="M4104.1,1207.4c-1,1-1.2,2.7-2.3,3.6c-1.4,1-3.3,1-4.9,1.5c-0.9,0.3-1.8,0.5-2.6,1
			c-0.6,0.5-1,1.2-1.5,1.8c-0.5,0.6-0.9,1.4-1.5,1.8c-0.8,0.5-2,0.3-2.8,0.8c-1.3,0.6-2.4,1.5-3.4,2.6c-1.2,1.4-2.5,3-2.8,4.9
			c-0.4,1.9,0.5,3.8,0.8,5.7c0.1,0.9,0.2,1.8,0.5,2.6c0.2,0.6,1.4,1.2,1,1.8c-0.4,0.7-1.7-0.1-2.6,0c-1.3,0.1-2.7,0.3-3.9,0.8
			c-0.9,0.4-1.5,1.1-2.3,1.5c-1.1,0.7-2.2,1.3-3.4,1.8c-0.2,0.1-0.5,0.2-0.8,0.3c-1.4,0.3-2.9,0.3-4.4,0.5c-0.8,0.1-1.6-0.1-2.3,0.3
			c-1,0.6-1.7,1.7-2.1,2.8c-0.4,1.2-0.3,2.6-0.3,3.9c0,1-0.2,2.2,0.3,3.1c0.5,1.1,1.5,1.9,2.6,2.6c0.9,0.6,2.1,0.6,3.1,1
			c0.9,0.4,1.6,1.2,2.6,1.5c0.6,0.2,1.2,0.3,1.8,0.3s1.2-0.1,1.8-0.3c0.8-0.2,1.7-0.5,2.3-1c0.6-0.5,0.6-1.5,1.3-1.8
			c0.5-0.2,1.1-0.2,1.5,0c0.9,0.3,1.4,1.2,2.1,1.8c0.9,0.8,1.7,1.9,2.8,2.3c1.2,0.4,2.6,0,3.9-0.3c0.8-0.2,1.7-0.2,2.3-0.8
			c0.6-0.5,0.4-1.6,1-2.1c1-0.8,2.8-1.8,3.9-1c0.7,0.5,0,1.7,0,2.6c0,1-0.2,2.1,0,3.1c0.4,1.5,1,3.1,2.1,4.1c0.6,0.6,1.5,0.7,2.3,1
			c0.8,0.3,1.7,0.3,2.3,0.8c0.7,0.6,1.1,1.5,1.3,2.3c0.2,0.8-0.2,1.7,0,2.6c0.2,0.7,0.5,1.3,1,1.8c1,0.9,2.5,1,3.6,1.8
			c0.6,0.5,1.2,1.1,1.5,1.8c0.6,1.2,0.2,2.7,0.8,3.9c0.4,0.8,1,1.6,1.8,2.1c0.8,0.5,1.7,0.6,2.6,0.8c0.8,0.1,1.6,0.2,2.3,0
			c0.6-0.1,1.3-0.4,1.8-0.8c0.7-0.5,1.4-1,1.8-1.8c0.5-1.1,0.4-2.4,0.5-3.6c0.1-0.7-0.3-1.6,0.3-2.1c0.5-0.4,1.2,0.2,1.8,0
			c1-0.4,2-1.1,2.6-2.1c0.6-1,0.9-2.2,0.8-3.4c-0.1-1.1-1.5-2-1.3-3.1c0.1-0.9,1.1-1.4,1.8-2.1c0.7-0.7,1.9-0.9,2.3-1.8
			c0.5-0.8,0.2-1.9,0.3-2.8c0-0.9-0.2-1.7,0-2.6c0.1-0.7,0.8-1.3,0.8-2.1c0-0.7-1-1.4-0.8-2.1c0.2-0.5,0.9-0.4,1.3-0.8
			c0.4-0.5,0.8-1.1,0.9-1.7c0.2-0.8,0-1.7-0.3-2.4c-0.4-1.1-1.6-1.9-2.1-3c-0.4-1-0.5-2.1-0.6-3.2c-0.2-0.9-0.5-1.9-0.4-2.8
			c0.1-0.8,0.2-1.7,0.8-2.3c0.4-0.5,1.2-0.5,1.8-0.8c0.8-0.3,1.6-0.7,2.4-1c0.9-0.4,2-0.4,2.8-1c0.9-0.6,1.3-1.7,1.9-2.6
			c0.7-1,1.3-2,1.8-3.1c0.5-1,1-2.1,1.2-3.2c0.3-1.7-0.2-3.4-0.1-5c0-0.8,0.3-1.5,0.3-2.3c-0.1-0.9-0.5-1.8-0.8-2.7
			c-0.3-0.7-0.8-1.3-0.9-2.1c-0.1-0.7,0.2-1.3,0.4-1.9c0.3-0.8,0.6-1.7,1.2-2.3c0.4-0.4,1.1-0.5,1.5-0.9c0.5-0.4,0.9-1,1.4-1.4
			c0.8-0.7,1.8-1.2,2.4-1.9c0.7-0.8,1.2-1.6,1.5-2.6c0.3-0.8,0.3-1.6,0.4-2.4c0.2-2.1-0.1-4.3,0-6.4c0-1.3,0.3-2.7,0.3-4
			c0-0.9-0.2-1.8-0.3-2.7c-0.1-0.6-0.1-1.2-0.1-1.8c-0.1-0.7-0.3-2.1-0.3-2.1s-3,0.7-4.4,1.2c-1.1,0.4-2.1,1.1-3.2,1.4
			c-1.3,0.4-2.8,0.4-4.1,0.8c-1.6,0.5-3.1,1.1-4.5,1.8c-1.4,0.7-2.8,1.7-4.1,2.6c-1.5,1-3,2-4.5,3.1c-0.6,0.5-1.2,1-1.8,1.4
			c-0.9,0.6-1.8,1.2-2.7,1.8c-0.7,0.5-1.3,1.1-2.1,1.5c-0.9,0.6-1.9,1.1-2.8,1.7c-1.1,0.7-2.1,1.5-3.1,2.4c-0.8,0.7-1.4,1.6-2.1,2.4
			c-0.6,0.7-1.1,1.4-1.7,2.1c-0.4,0.5-0.8,0.9-1.3,1.3C4105.6,1206.6,4104.7,1206.8,4104.1,1207.4L4104.1,1207.4z"/>
		<g id="g2256">
			<path id="path2258" class="st4" d="M4145.5,1181.8c1.2,4.2,0.9,8.6,0.1,12.7c-0.4,1.9-1.3,3.7-2.3,5.5c-1.6,2.9-4.5,5.1-5.5,8.3
				c-1,3.2,0.4,6.8-0.1,10.2c-0.3,2.4-0.5,5.2-1.9,7.1c-1.1,1.4-3,2-4.5,2.9c-1.2,0.7-2.6,1.1-3.5,2.1c-1.5,1.6-2.8,3.7-2.9,5.9
				c-0.1,2.1,1.9,3.9,2.2,6c0.2,1.9-0.4,3.8-0.7,5.6c-0.3,2.2,1,5-1.1,6.7c-4.6,3.6-3.4,3.4-6,4.2c-3,0.9-6.5,0.5-9.3,2
				c-1.6,0.9-3,2.3-3.9,3.9c-0.9,1.7-1.3,3.7-1.2,5.6"/>
			<path id="path2260" class="st4" d="M4129.9,1254.8c-1.6,2.1-3.4,4.2-5.7,5.5c-2.4,1.3-5.3,1.3-7.9,2.1c-1.8,0.5-3.8,0.6-5.3,1.6
				c-1.4,1-2.7,2.4-3,4c-0.4,1.6-0.1,3.4,1,4.9"/>
			<path id="path2262" class="st4" d="M4125.5,1264.5c-3.4,1.4-7.3,1-10.7,2.2c-1.3,0.5-3.1,0.7-3.7,2c-1.1,2.5,1.3,5.5,2,7.9
				c0.4,1.5,3.1,1.9,4.4,1.1c1.9-1.1,0.4-4.6,1.7-6.3c1.1-1.4,5.1-0.8,4.7-2.5c-0.8-3-6.3-0.6-9.4,0.2c-1.3,0.3-0.2,3.9,1.2,3.9
				c1,0.1,0.8-2.4,1.2-2.7"/>
			<path id="path2264" class="st4" d="M4102.8,1264c0.7-2.4,2.7-3.9,4.7-5.1c2.6-1.5,6-1,8.9-2.1c1.6-0.6,3.4-1.2,4.5-2.5
				c1.4-1.6,2-3.9,2.1-6.1c0.1-1.7-1-3.2-1.3-4.8c-0.3-1.8,0.2-3.8-0.5-5.4c-0.7-1.5-2.5-2.2-3.3-3.6c-0.5-1-0.9-2.1-0.7-3.2
				c0.3-1.6,1.8-2.7,2.8-4c0.7-1,1.4-2,2.3-2.8c2.3-2,6-2.4,7.7-4.9c1.2-1.8,1.1-4.2,1.3-6.3c0.2-2.8-1.3-5.8-0.4-8.4
				c1-3.1,4.5-4.8,6.1-7.6c0.7-1.2,1.3-2.5,1.4-3.8c0.4-2.9-0.7-5.8-0.8-8.8"/>
			<path id="path2266" class="st4" d="M4142.2,1183.3c-0.5,2.4,0,4.9-0.4,7.4c-0.4,2.4-0.9,4.9-1.9,7.1c-1.3,3-4.3,5.2-5.2,8.4
				c-1.2,4,0.8,8.4-0.3,12.4c-0.7,2.3-1.9,4.6-3.6,6.3c-2.2,2-6.1,1.4-7.9,3.7c-1.1,1.4-1.4,3.5-1,5.3c0.3,1.6,1.8,2.7,2.8,4"/>
			<path id="path2268" class="st4" d="M4133.6,1186.5c0.1,2.7,0.7,5.6-0.2,8.2c-1,2.7-3.3,4.8-5.3,6.9c-1.9,2.1-4.8,3.2-6.4,5.5
				c-1.1,1.5-1.1,3.6-2,5.3c-1.4,2.7-3,5.5-5.3,7.5c-1.8,1.6-4.6,1.6-6.5,3.1c-1.5,1.2-3.2,2.5-3.6,4.4c-0.5,3,1.7,5.9,3,8.7
				c0.9,1.9,2.4,3.5,3.2,5.5c0.7,1.6,1.9,3.4,1.3,5.1c-1.1,2.9-4.9,4.1-7.8,4.9c-2.2,0.6-5.1-1.4-6.9,0c-0.6,0.4-0.4,1.3-0.5,2"/>
			<path id="path2270" class="st4" d="M4130.5,1205.5c-2,1.1-3.6,2.7-5,4.4c-1.4,1.7-1.9,3.9-3.3,5.7c-3,3.9-6.9,7-10.6,10.2
				c-0.8,0.7-2.3,1.1-2.6,2.1c-0.9,2.6,0.9,5.4,1.8,8c0.8,2.5,2.6,4.7,3,7.3c0.3,2.1,0.3,4.4-0.5,6.3c-0.6,1.4-1.6,2.7-2.9,3.5
				c-3.2,2-8.2,0-10.8,2.7c-1.6,1.6-1.3,4.4-1.6,6.7"/>
			<path id="path2272" class="st4" d="M4131.3,1211.9c-1.5,0.8-2.6,1.9-3.8,3c-2.3,2.1-4.2,4.8-6.5,7c-1.5,1.5-3.3,2.7-4.7,4.3
				c-1.1,1.2-2.6,2.2-3,3.7c-0.5,1.7,0.3,3.5,0.8,5.1c1,3,3.8,5.4,4.3,8.5c0.4,2,0,4.2-0.6,6.1c-0.6,1.6-1.5,3.3-2.9,4.3
				c-1.2,0.9-2.8,0.8-4.2,1.2c-2.1,0.6-4.5,0.6-6.4,1.8c-1.2,0.8-2,2.2-2.7,3.5c-0.5,1.1-0.7,2.3-1,3.4"/>
			<path id="path2274" class="st4" d="M4129.8,1188.5c-0.5,2.3-0.8,4.7-1.9,6.7c-1.7,3-5.8,4.4-7,7.7c-0.7,1.7,0,4,0,5.4"/>
			<path id="path2276" class="st4" d="M4122.3,1192.7c-0.9,2.8-4.3,6.4-5.2,9.2c-0.9,2.8,0.6,5-0.5,7.7c-0.8,2-1.3,4.2-2.7,5.8
				c-2.1,2.3-5.6,2.8-8,4.7c-2.7,2.2-6.5,4.3-6.8,7.7c-0.2,2.1,2.5,3.4,3.2,5.3c0.5,1.4,1,3,0.6,4.5c-0.3,1.4-1.2,2.7-2.4,3.5
				c-2.1,1.4-5,0.8-7.4,1.6c-2.1,0.6-4.1,1.5-6.1,2.3c-2.5,1-5.8,0.9-7.4,3c-0.8,1,0,2.3-0.4,3.8"/>
			<path id="path2278" class="st4" d="M4114.3,1198c-1.6,4.3-1.2,10.2-4,14.2c-2.2,3.1-6.2,4.2-9.1,6.5c-2.5,2-5.6,3.6-7.1,6.4
				c-0.8,1.6-0.9,3.5-0.7,5.2c0.3,2.3,2.3,4.1,2.6,6.3c0.2,1.9-0.4,3.7-1.1,5.6"/>
			<path id="path2280" class="st4" d="M4109.2,1203.3c-0.5,1.5-0.4,4-1.5,5.6c-3.2,4.9-9.2,7.1-13.6,10.8c-1.6,1.3-3.7,2.3-4.6,4.2
				c-1.5,3.1-1.8,7-0.8,10.2c0.4,1.3,2.3,1.8,2.7,3.2c0.4,1.2,0.1,2.7-0.5,3.8c-0.7,1.5-3,3.1-3.5,3.7"/>
			<path id="path2282" class="st4" d="M4084.6,1235.4c1.6,0.6,2,2.4,1.6,3.6c-0.7,2.7-4.3,3.5-6.7,4.9c-1.5,0.9-3.6,0.9-4.8,2.2
				c-0.8,0.9-1.2,2.2-1,3.3c0.3,1.8,2.3,3.1,3.3,4.3"/>
			<path id="path2284" class="st4" d="M4086.2,1238.3c-1.4,0.4-3.6,0-5.2,0.6c-1.4,0.5-2.3,1.8-3.7,2.5c-2.2,1.1-5.3,0.7-7.1,2.4
				c-1.2,1.2-1.8,3-1.7,4.7c0.1,1.8,1.2,3.5,2.4,4.9c0.8,0.9,2,1.4,3.1,2"/>
			<path id="path2286" class="st4" d="M4102.9,1235.6c1.1,1.5,2.6,4.5,1.7,6.5c-0.8,1.8-3.3,2.2-5.2,2.8c-2.6,0.9-5.6,0.4-8.2,1.6
				c-2.1,1-5.1,2.1-5.5,4.4c-0.2,1.3,1.1,2.6,2.2,3.5c0.9,0.7,2.1,0.7,3.1,1.1"/>
			<path id="path2288" class="st4" d="M4093.7,1252.7c-1-1.8,0.7-1.9,1.5-2.5c1.6-1.3,3.8-1.4,5.7-2.1c2.1-0.8,4.6-1.2,6.3-2.7
				c1-0.9,1.8-2.2,2-3.5c0.2-1.3-0.9-2.7-0.9-3.7"/>
		</g>
		<g id="g2290">
			<path id="path2292" class="st14" d="M4119.7,1194.3c2.4-1.7,4.7-3.6,7.2-5.2c2.7-1.3,5.3-2.9,8-4.1c5.9-1.9,11.7-3.9,17.6-5.4
				c2.5-0.7,5.1-1.4,7.7-1.8c2.5-0.4,5-1,7.5-0.8c2,0.1,4-0.3,6,0.4c1.2,0.4,2.6,0.4,3.4,1.5c0.9,0.8,1.7,1.6,2.6,2.3
				c0.9-1.5,2.3-2.9,2.5-4.7c0.3-1.3,0.9-2.5,0.5-3.8c-0.2-0.8,0-1.9-0.4-2.5c-4.2-1-8.5-2.2-12.7-3.1c-3.2,0.4-6.5,0.6-9.7,1.2
				c-4,1-8,1.9-11.9,2.8c-3.1,0.9-6.1,2.1-9.1,3.3c-2.4,0.6-4.7,1.4-6.9,2.4c-1.3,0.6-2.8,1-4.1,1.7c-1.5,1.6-2.9,3.2-4.1,5.1
				c-1.6,2.1-2.4,4.8-3.6,7.1c-0.5,1.1-1,2.3-1.4,3.4C4119.2,1194.2,4119.4,1194.2,4119.7,1194.3L4119.7,1194.3z"/>
			<path id="path2294" class="st4" d="M4134.2,1180.1c-1.2,0.7-2.5,1.1-3.6,2c-1.4,1.1-2.9,2.3-3.6,4c-0.3,0.8-0.1,1.7-0.1,2.5"/>
			<path id="path2296" class="st5" d="M4126.4,1142.7c-4.2,1.4-8.2,3.3-12.1,5.5c-3.9,2.2-8.2,3.8-11.4,6.9c-1.4,1.1-3.1,2.1-3.5,4
				c-1.5,3-2.8,6.1-3.4,9.4c-1.8,3.4-4.2,6.4-6.7,9.2c-1.6,2.5-3.6,4.9-4.1,7.9c-0.9,2.5-1.3,5.3-1.1,7.8c1.2,2.1,2.2,4.4,4.4,5.6
				c1.4,0.9,2.6,1.9,2.9,3.6c0.6,2.2,2.4,3.7,4.7,4c2,0.5,4,1.4,6,1.3c1.6-0.5,3.4-0.7,4.2-2.3c2.3-2.6,4.5-5.3,7.4-7.2
				c1.2-1.2,3-1.6,4.2-2.7c1.9-3.6,3.1-7.6,4.7-11.3c1.7-1.8,3-4.2,4.9-5.7c3.7-1.8,7.4-3.6,11.5-4.6c4.8-1.5,9.3-4,14.3-4.5
				c4.2-0.6,8.3-2,12.5-2.7c4.8,0.7,9.7,1.2,14.4,2.2c1.3,1.1,2.6,2.1,4.3,1.1c1.7-0.1,3-1.1,4-2.5c1.7-1.8,3.6-3.5,4.3-6
				c0.4-1.5,1.7-3,1.6-4.6c-1-3.4-1.9-7-3.2-10.3c-2.1-1.7-4.3-3.6-7-4.1C4164.9,1142.9,4145.6,1142.8,4126.4,1142.7L4126.4,1142.7z
				"/>
			<g id="g2298">
				<path id="path2300" class="st4" d="M4108.1,1157.7c-3.3,2.7-6.8,5.3-9.5,8.6"/>
				<path id="path2302" class="st4" d="M4114.3,1157.5c-5.6,2.5-10.2,6.5-14.9,10.4c-1.2,1-2.3,2.2-3.4,3.3"/>
				<path id="path2304" class="st4" d="M4107.8,1164.4c-3.7,3.2-8,5.5-11.6,8.8c-0.9,0.8-1.7,1.8-2.5,2.7"/>
				<path id="path2306" class="st4" d="M4104.8,1170.1c-5.2,2.9-10.1,6.5-14.2,10.8c-0.7,0.8-1.2,1.8-1.8,2.7"/>
				<path id="path2308" class="st4" d="M4104.6,1173.4c-4,2.7-8.7,4.7-11.2,9"/>
				<path id="path2310" class="st4" d="M4102.3,1178.5c-2.6,1.8-5.6,3.5-7.5,6.1c-0.4,0.6-0.5,1.4-0.8,2.1"/>
				<path id="path2312" class="st4" d="M4110.9,1180.2c-1.9,1.5-3.4,3.4-4.7,5.4c-0.7,1.2-1.1,2.7-1.6,4"/>
				<path id="path2314" class="st4" d="M4129.6,1163.7c-2.7,3.1-5.7,5.9-8.5,8.9c-1.9,2-3.4,4.4-5.6,6.1"/>
				<path id="path2316" class="st4" d="M4128.8,1168c-2.1,3.6-5.1,6.4-7.6,9.7c-3.1,4.2-5.6,8.8-8.9,12.9c-1.1,1.3-2.4,2.5-3.6,3.8"
					/>
				<path id="path2318" class="st4" d="M4138.6,1164.5c-3.4,4-8.3,6.8-10.8,11.5c-0.4,0.7-0.4,1.5-0.5,2.3"/>
				<path id="path2320" class="st4" d="M4143.9,1164.6c-2.7,3.5-5.6,6.7-8.3,10.1"/>
				<path id="path2322" class="st4" d="M4148.4,1162.6c-3.3,3.3-6.5,6.8-8.8,11"/>
				<path id="path2324" class="st4" d="M4155.1,1158.9c-3.2,3.7-7,7-9.7,11.2c-0.5,0.7-0.7,1.5-1.1,2.3"/>
				<path id="path2326" class="st4" d="M4159.2,1157.7c-3.9,3.9-7.8,7.8-10.6,12.6"/>
				<path id="path2328" class="st4" d="M4162.9,1158.1c-3.2,3.2-6.9,6-9.4,9.7c-0.4,0.5-0.5,1.1-0.8,1.7"/>
				<path id="path2330" class="st4" d="M4169.3,1155.9c-3.4,3.5-7.4,6.4-10.3,10.2c-0.4,0.6-0.7,1.3-1,1.9"/>
				<path id="path2332" class="st4" d="M4173.8,1154.2c-3.6,3.7-7.3,7.3-10.4,11.4c-0.5,0.6-0.8,1.4-1.2,2.1"/>
				<path id="path2334" class="st4" d="M4177.2,1154.9c-3,3.5-6.7,6.4-9.5,10.1c-0.5,0.7-0.9,1.5-1.3,2.2"/>
				<path id="path2336" class="st4" d="M4181.2,1154.1c-3.2,3.7-6.2,7.6-9.2,11.4c-0.4,0.5-0.8,1-1.2,1.5"/>
				<path id="path2338" class="st4" d="M4184.4,1155.1c-3.7,3.9-8.2,7.3-9.9,12.6"/>
				<path id="path2340" class="st4" d="M4184.9,1159.5c-2.6,2.5-5.8,5.2-6.3,9"/>
				<path id="path2342" class="st4" d="M4190.1,1160.6c-2,3.5-4.1,7.2-7.8,9.3"/>
				<path id="path2344" class="st4" d="M4115.2,1150.6c3-0.6,5.5-2.2,8.3-3.4c3.1-1.4,6.1-2.9,9.2-4.3"/>
				<path id="path2346" class="st4" d="M4126.9,1147.6c4.3-0.7,8.4-2.3,12.3-4.3"/>
				<path id="path2348" class="st4" d="M4142.9,1146.9c3.3-1.9,7-2.2,10.3-4.3"/>
			</g>
			<path id="path2350" class="st5" d="M4014.6,1382.4c0,0,0.9-9.7,1.4-14.5c0.4-3.5,0.8-7.1,1.4-10.6c0.5-2.8,1.2-5.7,1.8-8.5
				c0.6-2.6,1.1-5.2,1.8-7.8c0.6-2.2,1-4.5,1.8-6.7c0.3-0.8,0.8-1.6,1.1-2.5c0.6-2.4,0.4-5,0.7-7.4c0.3-2.2,0.4-4.5,1.1-6.7
				c0.7-2.6,2.2-4.9,3.2-7.4c1.2-2.9,2.3-5.9,3.5-8.8c1.4-3.2,2.9-6.4,4.6-9.5c2.3-4.1,4.9-8.1,7.4-12c1.1-1.8,2.5-3.4,3.5-5.3
				c1.1-2.1,1.2-4.9,2.8-6.7c1.6-1.8,4.3-2.2,6.4-3.5c2-1.3,3.5-3.2,5.7-4.2c2.2-1,4.9-0.6,7.1-1.8c1.1-0.6,1.7-1.9,2.8-2.5
				c1.4-0.8,3.2-0.6,4.6-1.4c1-0.5,2.5-2.1,2.5-2.1s1.3,1.6,2,2.3c1.6,1.6,3.8,2.5,5.3,4.3c1.3,1.6,1.6,3.8,2.8,5.5
				c1.3,1.9,3.2,3.3,4.5,5.3c2.1,3.2,3.7,6.8,5.2,10.3c1.8,3.8,3.2,7.8,4.8,11.8c1.1,2.9,2.1,5.8,3.3,8.8c1.1,2.9,2.5,5.8,3.5,8.8
				c1.1,3.3,1.9,6.6,2.8,9.9c1.1,3.7,2.2,7.4,3.2,11.1c0.8,3,1.6,6,2.4,9c0.7,3.1,1.4,6.2,2,9.4c0.6,2.7,1.2,5.4,1.6,8.1
				c0.4,2.2,0.7,4.5,1,6.8c0.2,1.6,0.5,3.2,0.8,4.8c0.2,1.6,0.2,3.2,0.5,4.8c0.2,1.1,0.8,3.3,0.8,3.3s-8.3,0.9-12.5,1
				c-4,0.1-8-0.3-12-0.3c-2.7,0.1-5.3,0.4-8,0.5c-2.1,0.1-4.2-0.2-6.3,0c-1.1,0.1-3.3,0.5-3.3,0.5s-0.6-2.6-1.3-3.8
				c-0.8-1.3-2.1-2.1-3-3.3c-1.3-1.5-2.5-3.1-3.5-4.8c-0.4-0.6-0.6-1.4-1-2c-0.2-0.4-0.3-1-0.8-1c-0.9,0-1.3,1.2-1.8,2
				c-0.4,0.7-0.6,1.5-0.8,2.3c-0.2,1.1,0.2,2.2,0,3.3c-0.3,1.2-0.9,2.4-1.5,3.5c-0.9,1.8-2.4,3.2-3.3,5c-0.5,1-1,3.3-1,3.3
				L4014.6,1382.4z"/>
			<path id="path2352" class="st4" d="M4056.4,1274.4c2.8,2,5.5,3.9,8,6.3c2.8,2.7,5.2,5.8,7.4,9c2.6,3.7,4.9,7.7,6.6,12
				c1.6,4.1,2.5,8.4,2.9,12.8c0.5,4.7,1,9.4,1,14.1c0,3.5-0.4,6.9-0.9,10.3c-0.4,2.9-1.4,5.5-2.8,8c-0.6,1-2.6,0.9-2.8,2
				c-0.5,3.5,1,7.2,0.4,10.7c-0.2,1.3-1,2.5-1.4,3.8"/>
			<g id="g2354">
				<path id="path2356" class="st14" d="M4061.4,1278.6c-1.4,3-2.4,6.2-3.8,9.3c-1.8,4-4.2,7.8-5.9,11.9c-1.7,4.1-3,8.4-4.5,12.6
					c-1.4,4-3.1,8-4.3,12c-1.3,4.1-2.2,8.3-3.2,12.4c-1,4.2-1.8,8.4-2.7,12.6c-0.7,3.3-1.5,6.6-2,9.9c-0.6,4-0.8,8-1,12
					c-0.2,3.7-0.1,7.6-0.3,11.1c5,0,10,0,15,0c0.3-8,0.3-16.4,1.2-24.5c0.3-3.2,0.9-6.4,1.6-9.6c1.6-7.8,3.7-15.4,5.9-23
					c1.3-4.3,2.7-8.5,4.3-12.7c2.6-7,6.6-13.4,8.5-20.6c0.3-1.1,2-2.6,0.4-3.5c-2.6-3-5.2-6-8.2-8.7
					C4062.3,1279.3,4061.8,1278.9,4061.4,1278.6L4061.4,1278.6z"/>
				<path id="path2358" class="st14" d="M4085.3,1257.1c2.4,0.1,5.4-0.1,6.6-2.6c0.3-1.6,2.2-2.5,3.7-1.8c1.3,0.6,0,3,0.3,4.4
					c0.1,2.3,1.6,4.5,3.4,5.9c1.3,0.7,3.5,0.8,4.1,2.2c0.8,1.5,0.3,3.4,1.1,4.8c1.5,1.8,4.4,2.1,5.4,4.5c1.3,1.6,0.7,4,2.3,5.5
					c1.8,2,4.8,1.1,7.2,1c1.6-1.5,2.3-3.5,2.4-5.6c0-2.6,1.4,1.6,2,2.3c2.8,5.1,4.7,10.6,6.9,16c3.9,13.4,8.1,26.8,10.6,40.7
					c1.1,5.7,2.6,11.6,2.8,17.4c0.5,6.8,0.8,6.2,1.5,13c-0.6,1.3,0,9-0.3,11c-6,0-13.4-0.1-19.3,0.9c-1.2-7.9-2.7-16.2-4.2-24.2
					c-0.8-4.2-1.5-6.9-2.5-12.6c-2.1-7.3-3.8-13.4-5.5-21.6c-4.4-13.6-9.2-27.1-14.9-40.3c-1.1-3-2.4-5.8-4.5-8.2
					c-3.1-4.1-5.5-8.5-8.8-12.5L4085.3,1257.1z"/>
			</g>
			<g id="g2360">
				<path id="path2362" class="st4" d="M4033.9,1313.9c-1.2,2-2.4,3.9-3.6,5.9c-1.3,2.8-1.7,2.7-2.9,5.6c-0.4,0.9-1.5,3.1-2.1,3.9
					c-0.9,1.1-1.6,3.6-2.2,4.7"/>
				<path id="path2364" class="st4" d="M4073.2,1317.1c0.4,2.2,1.1,4.3,1.2,6.5c0.2,3.6-0.6,7.1-0.7,10.7c-0.1,3.1-0.3,6.2,0.1,9.2
					c0.2,1.5,0.6,3,1.1,4.4c0.2,0.6,0.5,1.1,0.8,1.6"/>
				<path id="path2366" class="st4" d="M4063.7,1342.9c0.8,2.2,1.4,4.6,2.4,6.7c0.9,1.8,2.1,3.3,3.1,5c0.7,1.2,1.6,2.3,2.1,3.6
					c0.6,1.7,0.8,3.5,1,5.2c0.1,0.8,0.1,1.6,0.1,2.4"/>
				<path id="path2368" class="st4" d="M4062.9,1347.9c0.8,3.4,1.8,6.8,2.3,10.3c0.2,1.7-0.1,3.3,0.1,5c0.4,2.7,1.7,5.1,2.4,7.7"/>
				<path id="path2370" class="st4" d="M4056.4,1357.1c0.7,2,1.1,4.2,2.1,6.1c1.1,2.1,3.1,3.7,4.3,5.8c1,1.6,1.9,3.3,2.4,5.1
					c0.5,2.1,0.4,4.4,0.5,6.5c0,0.2,0,0.5,0,0.7"/>
				<path id="path2372" class="st4" d="M4054.2,1368.6c0.5,1.6,0.7,3.2,1.5,4.7c1,2,3,3.5,4,5.5c0.5,1.1,0.7,2.4,1,3.5"/>
				<path id="path2374" class="st4" d="M4130.3,1307.4c-0.3,1.4-0.3,3-1,4.4c-0.8,1.7-2.4,2.9-3.4,4.5"/>
				<path id="path2376" class="st4" d="M4132,1311.5c-1.7,3-2.8,6.3-5.1,8.9c-0.5,0.5-1.1,0.9-1.7,1.3"/>
				<path id="path2378" class="st4" d="M4133.6,1316.3c-1.8,2.9-3.8,5.6-5.6,8.4c-1.4,2.2-2.7,4.3-4,6.6"/>
				<path id="path2380" class="st4" d="M4134.3,1320.2c-2.6,4.6-5.4,9.1-8.2,13.6c-1.1,1.8-2.3,3.6-3.5,5.3"/>
				<path id="path2382" class="st4" d="M4135.7,1324.4c-1.3,2-2.4,4.1-3.7,6c-1.5,2.2-3.3,4.2-4.7,6.4c-1.2,1.8-2.2,3.7-3.4,5.4"/>
				<path id="path2384" class="st4" d="M4135.7,1328.7c-1.8,2.3-2.4,5.1-3.5,7.7c-0.3,0.9-0.6,1.8-0.9,2.6"/>
				<path id="path2386" class="st4" d="M4136.6,1333.1c-2.2,3.8-3.3,8.2-5.2,12.2c-1.3,2.6-3,5-4.2,7.7c-0.4,0.8-0.7,1.7-1,2.6"/>
				<path id="path2388" class="st4" d="M4137.2,1338.5c-1.6,4.3-3,8.6-4.9,12.7c-0.9,2-2.1,3.9-3.1,5.8c-0.6,1.1-1.2,2.2-1.6,3.4
					c-0.2,0.4-0.3,0.9-0.4,1.4"/>
				<path id="path2390" class="st4" d="M4138.9,1344.2c-2.2,5-3.9,10.3-6.4,15.1c-1,2-2.4,3.8-3.5,5.7c-0.3,0.6-0.6,1.2-0.8,1.8"/>
				<path id="path2392" class="st4" d="M4140,1348.6c-1.1,3.2-2,6.5-3.4,9.6c-1.7,3.6-4.4,6.7-6,10.4c-0.6,1.4-0.8,2.9-1.2,4.4"/>
				<path id="path2394" class="st4" d="M4140.3,1355.9c-1.7,3.8-3.2,7.6-5.1,11.3c-1.2,2.5-2.5,4.9-3.9,7.2"/>
				<path id="path2396" class="st4" d="M4141,1362.2c-1.3,2.1-2.1,4.4-3.1,6.7c-0.7,1.8-1.5,3.6-2.1,5.5"/>
				<path id="path2398" class="st4" d="M4141.8,1366.8c-0.9,1.5-1.5,3.2-1.8,5c-0.1,0.5,0,0.9,0,1.4"/>
				<path id="path2400" class="st4" d="M4088.5,1328.5c-0.5,2.6-0.5,5.4-1.4,8c-0.9,2.8-2.1,5.7-4.1,7.8c-0.9,1-2.3,1.5-3.4,2.2"/>
				<path id="path2402" class="st4" d="M4095.1,1334.8c-1.4,2.3-2.6,4.8-4,7.1c-1.2,1.9-2.4,3.8-3.8,5.6c-0.9,1.2-1.7,2.8-3.1,3.3
					c-1.7,0.6-3.7,0.1-5.4-0.7c-0.1,0-0.2-0.2-0.2-0.2"/>
				<path id="path2404" class="st4" d="M4095.3,1340.3c-1.5,1.7-2.8,3.5-4.2,5.3c-1,1.3-1.8,3-3.1,4.1c-0.9,0.7-2,0.9-3,1.4"/>
				<path id="path2406" class="st4" d="M4109,1342.8c-1.9,0.7-3.7,1.8-5.7,2.3c-1.2,0.3-2.6-0.1-3.7,0.4c-1.2,0.5-2.1,1.6-2.9,2.6
					c-0.1,0.1-0.2,0.3-0.3,0.5"/>
				<path id="path2408" class="st4" d="M4092.4,1347.9c-1.3,1.2-2.3,2.7-3.8,3.6c-1.3,0.7-2.8,0.9-4.2,1.2c-0.3,0.1-0.6,0.1-0.9,0.1
					"/>
				<path id="path2410" class="st4" d="M4081.1,1355.2c2.2,0.6,4.4,1.5,6.7,1.9c1.8,0.3,3.7,0.7,5.5,0.4c1.5-0.3,2.8-1.4,4.3-1.8
					c3-0.9,6.2-0.8,9.3-1.5c1.8-0.5,3.5-1.5,5.4-1.8c1.1-0.2,2.3,0,3.4,0"/>
				<path id="path2412" class="st4" d="M4083.2,1360.1c3.3,3,6.5,6,10.1,8.6c2.2,1.6,4.4,3.3,7,4.1c1.7,0.5,3.5,0.6,5.3,0.5
					c1.8-0.1,3.7-0.6,5.4-1.2c1-0.4,1.9-0.9,2.8-1.4"/>
				<path id="path2414" class="st4" d="M4079.5,1357.8c1.7,2.2,3.2,4.6,5.2,6.5c3,3,6.4,5.5,9.9,7.9c1.5,1.1,3.1,2.2,4.8,2.9
					c1.4,0.6,2.9,0.9,4.4,1c2.8,0.2,5.7-0.3,8.5-0.9c1.9-0.4,3.9-1,5.6-1.8c1.4-0.7,2.6-1.8,3.8-2.7"/>
				<path id="path2416" class="st4" d="M4089.4,1361.2c2.5,0.7,4.9,2.1,7.4,2.1c3.2,0,6.1-2.6,9.3-2.8c1.8-0.1,3.6,0.9,5.5,0.8
					c1.6-0.1,3.1-0.8,4.6-1.2"/>
				<path id="path2418" class="st4" d="M4094.2,1365.3c2.6,1.4,4.9,3.6,7.8,4.2c1.6,0.3,3.2,0,4.8-0.3c2.9-0.6,5.5-2,8.2-3.1
					c1-0.4,1.9-0.9,2.9-1.4"/>
				<path id="path2420" class="st4" d="M4100.4,1364.7c2.5,0,5,0,7.4-0.4c2.1-0.3,4-1.1,6-1.6"/>
				<path id="path2422" class="st4" d="M4079.2,1361c1.9,2.4,3.8,4.8,5.9,7.1c1.6,1.6,3.3,3.2,5,4.6c0.7,0.6,1.6,1.2,2.3,1.7"/>
				<path id="path2424" class="st4" d="M4077.8,1362.2c1.4,2.2,2.8,4.4,4.4,6.4c1.2,1.5,2.3,3,3.8,4.2c1.7,1.3,3.8,2.1,5.8,3.1"/>
				<path id="path2426" class="st4" d="M4078.5,1352.9l1.2,2.3l1.8,3l2.1,1.9"/>
			</g>
		</g>
		<g id="g2428">
			<path id="path2430" class="st15" d="M4224.4,1174.4c-3.1,2-6.6,3.5-9.3,5.9c-3.5,3-6.5,6.7-8.9,10.6c-3,4.8-5,10.3-6.9,15.6
				c-1.1,3-2,6-2.5,9.2c-0.7,4.4-0.9,8.8-0.7,13.2c0.1,3.5,0.5,7.1,1.4,10.5c1.3,4.6,3.4,9,5.8,13.2c2.1,3.6,4.6,7,7.4,10.1
				c2.5,2.7,5.5,4.8,8.3,7.3c4.3-5.4,8.5-10.8,12.8-16.3c-1.3-2.4-2.8-4.8-3.2-7.4c-0.3-2.1,0.3-4.3,1-6.3c0.6-1.7,1.3-3.5,2.6-4.6
				c1.8-1.5,4.4-2.8,6.8-2.4c2,0.3,3,2.8,4.8,3.7c1.3,0.6,2.8,0.8,4.2,1.1c2,0.3,4.3,1.6,6,0.5c1.2-0.8,0.1-3.2,1.2-4.2
				c1.5-1.3,3.9-1.4,5.8-1.1c1.5,0.3,2.9,1.2,4,2.3c1.4,1.5,3.2,3.2,2.9,5.5c0,1.3,0.2,4,1.9,2.3c2.5-0.8,3.7-3.1,4.7-5.2
				c1-2.2,1-4.7,1-7.1c-0.1-1.9-0.4-3.8-1.2-5.5c-1-2.1-2.4-4.1-4.3-5.6c-1.5-1.2-3.5-1.5-5.2-2.4c-1.2-0.6-2.5-1-3.4-2
				c-0.9-0.9,0.6-3.8-1.7-3.4c-1.9-0.4-3.7-1.3-5.6-1.7c-1.5-0.3-3-0.4-4.4-0.4c-2,0-4.1-0.1-5.9,0.6c-1.7,1-3.2,2.7-5.1,2.9
				c-1.8,0.3-3.8-0.3-5.4-1.3c-2.2-1.3-4.2-3.4-5.2-5.8c-0.6-1.6-0.6-3.5-0.2-5.1c0.4-1.6,1.6-3,2.7-4.3c1.2-1.3,2.7-2.3,4.1-3.5
				C4231.3,1186.9,4227.8,1180.6,4224.4,1174.4L4224.4,1174.4z"/>
			<path id="path2432" class="st16" d="M4247.6,1143.8c-0.3,4.9-0.4,9.7-0.9,14.6c-1.7,9.4-3.5,18.7-5.6,28
				c-1.2,5.8-2.9,11.5-4.5,17.2c1.6-0.4,3.3-0.8,4.7-1.7c1.3-0.3,2.7-0.8,4.1-0.7c-0.5,2.8-0.9,5.6-0.8,8.5
				c-0.6,5.7-0.8,11.5-0.8,17.3c-0.1,3.4-0.4,6.8-0.1,10.1c0,1.7,1.8,1.1,2.9,1.3c2.2,0.2,4.5,0.1,6.7-0.4
				c-0.3-7.9-0.2-15.8-0.3-23.7c-0.3-3,0-4.1-0.1-7.8c0.1-1.4-0.2-4-0.1-5.5c1.2,0.6,2.1,0.6,3,1.3c1.3,1.3,3.4,1.2,5,1.9
				c1.8,1,0.3-1.3,0.2-2.2c-1.4-4.4-2.8-8.8-3.8-13.3c-2.2-13.7-4-27.5-4.7-41.4c-0.2-1.1,0.1-2.8-0.4-3.5
				C4250.7,1143.7,4249.2,1143.7,4247.6,1143.8L4247.6,1143.8z"/>
		</g>
		<path id="path2434" class="st12" d="M4245.2,1201.6c0.6-2.5,1.2-4.9,1.3-7.5c0.3-3.5,0.8-6.9,1.5-10.4c0.5-2.7,1.1-5.4,1.2-8.2
			c0.5-5,0.7-10,1-15c0.2,5.4,0.3,10.8,0.3,16.1c0.4,3.4,0.2,7.7,1,11c0.3,3.4,0.7,4.7,1,7.2c0,0.8,0.8,4.9,0.8,5.7"/>
		<g id="g2436">
			<path id="path2438" class="st11" d="M4216.2,1213.1c0,0,2,3.3,4.3,5.7c2.3,2.3,5.7,4.3,5.7,4.3s-3.3,2-5.7,4.3
				c-2.3,2.3-4.3,5.7-4.3,5.7s-2-3.3-4.3-5.7c-2.3-2.3-5.7-4.3-5.7-4.3s3.3-2,5.7-4.3C4214.2,1216.4,4216.2,1213.1,4216.2,1213.1"/>
			<path id="path2440" class="st5" d="M4244.2,1238.1c-0.8,0.2-1.5,0.3-2.3,0.5c-0.2,0.7-0.3,1.5-0.1,2.1c-0.8,1.1-1.7,2-2.7,2.9
				c-0.2,1.2-0.5,2.5-0.2,3.7c-0.1,0.8,0.6,1.3,1.2,1.8c-0.1,1.1-0.2,2.3,0.1,3.4c-0.8,0.7-1.9,1.1-2.6,1.9
				c-0.9,1.6-1.9,3.1-2.4,4.9c-0.4,1.1-0.8,2.2-0.7,3.4c-0.2,5.6-0.2,11.2-0.1,16.8c0,2.4,0,4.8-0.3,7.2c-0.3,0.9,1,0.8,1.5,1.2
				c1.1,0,0,1.5,0.9,1.5c0.8,0.1,1.5,0.3,2,1c0.4,0.8,1.3,0.5,2,0.6c0.7,0.1,1,1.1,1.6,1.5c0.5,0.9,1.1-0.5,1.7-0.7
				c0.6-0.7,1.2,0.5,1.8,0.7c0.6,0.9,1.2,0.3,1.8-0.3c0.6-0.9,1.2-0.3,1.8,0.2c0.6,0.8,1.3-0.2,1.9-0.4c0.1-0.7,0.1-1.6,1.1-1.2
				c0.8,0,1.2,1.1,1.9,0.4c0.6-0.5,0.9-1.3,1.8-1.1c0.9,0.1,1.3-0.5,1.3-1.3c0.6-0.2,1.8,0.1,2-0.5c0-10.6-0.5-16.6-0.5-27.3
				c0.5-3.5-2.1-7.5-3.3-8.9c-0.4-0.5-0.1-1.4-0.1-2.1c-0.1-1.2,1.3-1.9,1.1-3.1c0.2-1.2-0.1-2.5-0.5-3.6c-0.5-0.9-1.2-1.7-1.5-2.7
				c0-0.7,0.8-1.8-0.2-1.9c-1.7-0.7-3.5-0.3-5.3-0.5C4247.4,1238.2,4245.8,1238.2,4244.2,1238.1L4244.2,1238.1z"/>
			<g id="g2442">
				<path id="path2444" class="st4" d="M4242.2,1241.1c2,0.2,4,0.3,6,0.2c2.2,0,4.3-0.3,6.5-0.5"/>
				<path id="path2446" class="st4" d="M4240.2,1249.1c3.3,0,6.6,0.1,9.9,0.1c1.8,0,3.7,0,5.5,0"/>
				<path id="path2448" class="st4" d="M4240.8,1252.2c3.4,0.1,6.7,0.2,10.1,0.1c1.3,0,2.7-0.1,4-0.2"/>
				<path id="path2450" class="st4" d="M4245.2,1241.7c-0.5,1.8-1.5,2.2-2.8,2.7c-1.4,0.6-2.6,2.7-3,3.4"/>
				<path id="path2452" class="st4" d="M4250.2,1241.2c-0.7,1.5-1.5,2.9-3.9,4.2c-1.5,0.8-2.2,2.7-2.8,3.3"/>
				<path id="path2454" class="st4" d="M4253.1,1241.9c-0.4,1-0.5,2.1-1.2,2.9c-0.6,0.7-1.2,0.9-2.2,1.7c-1.1,0.9-1.9,1.8-2,2.2"/>
				<path id="path2456" class="st4" d="M4255.6,1243.6c-0.3,0.9-0.6,1.7-1.2,2.4c-0.7,1-2.2,1.2-2.6,2.6"/>
				<path id="path2458" class="st4" d="M4240.3,1252.6c-0.7,1.5-1.6,3.3-2,5.1c-0.5,2.1-0.7,4.2-0.9,6.3c-0.3,4.2,0.2,8.4,0,12.6
					c-0.1,3.2-0.3,6.4-0.6,9.7c-0.1,0.6-0.2,1.2-0.3,1.9"/>
				<path id="path2460" class="st4" d="M4238.7,1290.2c0.6-2.5,1.3-5,1.5-7.5c0.3-2.5,0.2-5,0.2-7.6c0-3.1-0.2-6.1-0.2-9.2
					c0-2.8-0.5-5.7,0.1-8.5c0.3-1.7,1.2-3.1,1.9-4.7c0,0,0-0.1,0-0.1c0,0,0,0,0,0"/>
				<path id="path2462" class="st4" d="M4241.2,1291c0.4-2.1,1.2-4.1,1.4-6.2c0.6-6-0.4-12-0.3-18.1c0-3.5-0.4-7.1,0.3-10.6
					c0.2-1.1,0.9-2.8,1.3-3.3"/>
				<path id="path2464" class="st4" d="M4244.6,1291.4c0.2-5,0.3-10,0.3-15c0-3.3-0.6-6.7-0.5-10c0.1-2.2,0.7-4.4,0.7-6.6
					c0-1.4-0.8-2.8-0.7-4.3c0-1,0.5-1.8,0.7-2.8"/>
				<path id="path2466" class="st4" d="M4247.7,1291.2c0.1-6,0.3-12,0.2-18c0-3.1-0.2-6.2-0.4-9.2c-0.2-2.9-1.1-5.8-0.8-8.6
					c0.1-1,0.8-2.2,0.9-2.8"/>
				<path id="path2468" class="st4" d="M4251.3,1290.1c0-6.6,0.2-13.2,0.1-19.8c-0.1-2.7,0-5.3-0.3-8c-0.2-2-1-3.9-1.1-5.9
					c-0.1-1.3,0.2-2.6,0.4-3.9"/>
				<path id="path2470" class="st4" d="M4255.3,1289.6c-0.2-2-0.6-4-0.7-5.9c-0.1-3,0.4-6,0.3-9c-0.1-5.3-0.7-10.5-1.3-15.8
					c-0.2-1.5-0.5-3-0.6-4.5c0-0.6,0-1.2,0-1.8"/>
				<path id="path2472" class="st4" d="M4257.3,1288.1c-0.2-3.9-0.4-7.7-0.5-11.6c-0.1-5.7,0.9-11.5,0-17.2c-0.4-2.4-1.5-4.7-2.3-7"
					/>
			</g>
			<path id="path2474" class="st3" d="M4240.7,1291.5c0,3.4,0.1,6.8,0.1,10.3c1.4,0.3,2.7,0.7,4.1,1c1.3,0.2,2.6,0.5,3.8,0.7
				c0.6,0.2,1.1,0.4,1.7,0.6c-0.2-3.9-0.3-7.8-0.5-11.8c-0.6-0.4-1.3-0.8-1.9-1.3c-0.3,0.7-0.6,1.4-0.9,2.1c-0.4,0-0.8,0-1.3,0
				c-0.3-0.3-0.7-0.6-1-0.9c0.1-0.3,0.3-0.5,0.4-0.8c-0.3-0.1-0.6-0.2-0.9-0.3c-0.3,0.5-0.6,1-0.9,1.5c-0.3,0-0.6,0-0.9,0
				c-0.3-0.5-0.5-1-0.8-1.5C4241.5,1291.4,4241.1,1291.4,4240.7,1291.5L4240.7,1291.5z"/>
			<path id="path2476" class="st7" d="M4240.6,1338.3c0,0-1.6-0.5-2.2-1.1c-1.9-2-2.5-4.9-3.4-7.4c-0.7-1.8-0.8-3.9-1.5-5.7
				c-0.7-1.7-1.6-3.4-2.7-4.9c-0.6-1-1.5-1.8-2.1-2.7c-0.9-1.2-2.1-2.2-2.6-3.5c-0.4-1.3-0.6-2.8,0-4c0.5-1.1,1.6-2.2,2.9-2.4
				c0.8-0.1,1.6,0.4,2.3,0.8c1.3,0.7,2.6,1.5,3.7,2.5c0.5,0.5,1.8,4,1.3,1.9c-0.1-1.3-0.3-3.5,0-5.2c0.2-1.2,0.2-2.7,1.2-3.4
				c2.8-2,6.9-0.8,10.3-0.1c3.3,0.6,6.6,1.8,9.3,3.8c1.9,1.4,3.4,3.4,4.4,5.5c1.7,3.4,2.4,7.3,3,11.1c0.3,2.3,0.2,4.6,0.1,6.9
				c-0.1,3.4-0.6,6.9-1,10.3c-0.2,2-0.7,4-0.9,6.1c-0.2,2.2,0,4.4-0.3,6.7c-0.1,0.9-0.2,1.6-0.5,2.7c-0.8,0.9-1.7,1.7-2.7,2.3
				c-1.8,1.1-3.9,2-6,2.4c-1.3,0.3-2.7,0.3-4.1,0.1c0.1-6.6,0.3-13.3,0.4-19.9c-2.5-0.4-4.9-1.4-7.4-2.1
				C4241.6,1338.6,4241.2,1338.7,4240.6,1338.3L4240.6,1338.3z"/>
			<g id="g2478">
				<path id="path2480" class="st4" d="M4236.1,1308.6c0.7,1.4,1.9,2,3.2,2.4c3.5,1.2,7.4-0.7,11-0.1c0.8,0.1,2.4,0,2.2,0.8
					c-0.2,0.8-1.6-0.3-2.5-0.4c-2.2-0.2-4.4-0.4-6.7-0.4c-1.7,0-3.5-0.2-5.1,0.4c-1.1,0.5-2.1,1.3-2.7,2.3c-0.4,0.6-0.4,1.3-0.4,2
					c0,0.5-0.1,1,0,1.4c0.3,1.3,0.7,2.7,1.8,3.5c1.6,1.1,3.8,0.6,5.7,0.7c3,0.2,6-0.5,9-0.2c0.6,0.1,1.7-0.2,1.6,0.4
					c-0.1,1-2.1-0.1-3.1-0.1c-1.7-0.1-3.3-0.3-5-0.3c-2.8,0.1-5.9-0.3-8.3,1.1c-0.6,0.3-1.1,1-1.3,1.6c-0.3,2.1,0.7,4.5,2.2,6.1
					c0.7,0.7,1.9,1,2.9,1.2c2.7,0.5,5.4,0.3,8.1,0.1c1.2-0.1,3.1-0.8,3.5-0.5c0.2,0.2-2.2,0.4-3.4,0.5c-1.5,0.2-3.1,0.3-4.6,0.2
					c-0.8,0-1.6-0.4-2.4-0.3c-0.8,0-1.8,0-2.5,0.5c-0.8,0.5-1.4,1.5-1.6,2.4c-0.2,0.9,0.1,2,0.6,2.8c0.3,0.5,1.2,1,1.2,1.2"/>
				<path id="path2482" class="st4" d="M4249.7,1341c1.3,0.1,2,0.1,2.9,0.1c0.8-0.1,1.9-0.2,2.3-0.4"/>
				<path id="path2484" class="st4" d="M4249.5,1344.8c1,0.2,2.3,0.4,3.4,0.4c0.9,0,1.8,0,2.7-0.3c1.2-0.3,2.2-0.9,3.3-1.5
					c0.3-0.2,0.6-0.4,0.9-0.5"/>
				<path id="path2486" class="st4" d="M4249.7,1347.2c1.1,0.1,2.8,0.5,4.2,0.5c0.9,0,1.8-0.1,2.7-0.3c0.7-0.2,1.3-0.5,2-0.8
					c0.7-0.3,1.1-0.4,2-1.1"/>
				<path id="path2488" class="st4" d="M4249.3,1349.6c1,0.1,2.8,0.7,4.2,0.7c1.6,0,3.1-0.4,4.6-0.9c0.9-0.3,1.7-1,2.5-1.3"/>
				<path id="path2490" class="st4" d="M4249.4,1352.4c1,0.3,1.9,0.6,2.9,0.6c1.9,0,3.4-0.3,5.5-0.9c0.9-0.2,2.4-1.2,2.4-1.2"/>
				<path id="path2492" class="st4" d="M4249.6,1355.2c1.3-0.1,3,0.3,4.5,0.1c1.6-0.2,3.1-0.8,4.6-1.4c0.5-0.2,0.9-0.5,1.3-0.8"/>
				<path id="path2494" class="st4" d="M4249.4,1358c1.7,0,3.3,0.3,4.8,0c1.9-0.4,3.9-1.5,5.2-2.2"/>
			</g>
			<path id="path2496" class="st14" d="M4166.4,1249.6c2.5,4.4,5.6,8.4,7.7,13c2.4,5.4,4,11.1,5.3,16.8c1.7,7.4,2.8,14.9,3.1,22.5
				c0.2,4.4-0.3,8.8-0.8,13.2c-0.9,8.5-2,17.1-3.7,25.5c-1.4,6.9-3,13.8-5.5,20.4c-1.5,4-3.3,8-5.6,11.6c-0.4,2,0.3,3,2.4,2.8
				c5.3,0.5,10.6,0.3,15.9,0.5c2.6-5,5.2-10.1,7.3-15.3c2.1-5,4.1-10,5.4-15.3c2-7.8,2.9-15.9,3.8-23.9c0.7-6.7,1.5-13.5,1.3-20.3
				c-0.1-4.3-0.7-8.6-1.5-12.8c-1.1-5.5-2.3-11-4.4-16.2c-1.7-4.1-4-8-6.6-11.7c-1.6-2.3-3.5-4.6-5.5-6.4c-4.3-1.3-8.6-2.5-13-3.6
				c-1.5-0.4-2.7-1.9-4.4-1.1C4167.2,1249.4,4166.8,1249.5,4166.4,1249.6L4166.4,1249.6z"/>
			<path id="path2498" class="st5" d="M4185.4,1254.4c3.7,3.2,9.1,6.4,12.8,9.6c2.5,4.5,5.3,7.6,8.1,11.9c1.9,3.9,5.6,6.8,6.2,11.4
				c1.7,5.1,0.2,11.1,4,15.4c2.3,4.9,8.6,7.8,8,13.7c-0.3,4.9,3.7,8.3,5.9,12.2c3.3,3,7.1,5.3,8.9,9.7c2.5,1.3,1.3,4,1.4,6.2
				c0.2,2.6-0.4,4.7-2.9,6.1c-3.9,4.5-0.1,10.4,3.1,13.5c-0.2,6-0.3,12.5-0.5,18.4c-8.9,0.1-17.8-0.1-26.8,0c-1-3.9-3.2-7.2-7.3-7.8
				c-2.7-1.8-4.6-6.6-4.7-8.4c-3.5,3-5.7,9.3-9,10.8c-2.6-1.9-9.7,0.9-5.9-3.9c4.5-10,10-19.8,11.8-30.8c2.3-14.7,5-29.5,4.5-44.4
				c-1.5-9.6-2.8-19.4-6.7-28.3C4193.7,1264.2,4189.4,1259.1,4185.4,1254.4L4185.4,1254.4z"/>
			<g id="g2500">
				<path id="path2502" class="st4" d="M4204.3,1279.9l2.7,11.3l2.4,9.7l1.1,13.1l-0.5,11.8l-0.5,13.1l-2.1,13.9l-2.4,8l-3.2,5.6"/>
				<path id="path2504" class="st4" d="M4170.2,1373.8c8.8-3.3,15.3-10.2,22-16.6"/>
				<path id="path2506" class="st4" d="M4176.1,1374.6c4.6-2.2,8.8-4.8,12.6-8.3"/>
				<path id="path2508" class="st4" d="M4181.5,1374.3c1.4-0.8,2.9-1.6,4.3-2.4"/>
				<path id="path2510" class="st4" d="M4169.7,1370.8c11.2-3.8,17.6-13.4,24.9-22"/>
				<path id="path2512" class="st4" d="M4172.4,1365.5c10.4-5.4,16.9-15.7,24.9-23.9"/>
				<path id="path2514" class="st4" d="M4175.1,1360.1c9-5.1,15-15,22.5-22.3"/>
				<path id="path2516" class="st4" d="M4176.1,1355c10.1-4.3,16.2-14.2,22-23.1"/>
				<path id="path2518" class="st4" d="M4178,1349.9c10.3-4.7,16.3-15.8,21.2-25.5"/>
				<path id="path2520" class="st4" d="M4179.1,1345.4c11-5.4,15.8-18.5,21.4-28.7"/>
				<path id="path2522" class="st4" d="M4180.2,1340.8c11.2-7.1,15.4-21.4,21.2-32.7"/>
				<path id="path2524" class="st4" d="M4181,1335.4c10.4-7,14.4-20.5,19.3-31.7c0.4-1,0.7-2.1,1.1-3.1"/>
				<path id="path2526" class="st4" d="M4181.8,1329.8c11.7-7.9,14.6-24.1,19-36.7"/>
				<path id="path2528" class="st4" d="M4183.4,1323.9c9.8-9.2,13.2-23.7,15.8-36.5"/>
				<path id="path2530" class="st4" d="M4197.6,1282.3c-1.1,12.3-4.1,24.6-12.6,34"/>
				<path id="path2532" class="st4" d="M4184.7,1307.8c9.6-9.2,9.8-22.6,11.3-34.9"/>
				<path id="path2534" class="st4" d="M4193,1269.5c0.3,6.6-0.6,13.1-2.1,19.6"/>
				<path id="path2536" class="st4" d="M4190.1,1265.2c0,4.4,0.4,8.7-1.3,12.9"/>
				<path id="path2538" class="st4" d="M4187.7,1259.6c0.3,2.5,0.4,4.8-0.5,7.2"/>
				<g id="g2540" transform="matrix(1.02009,0,0,1,-5.675,0)">
					<path id="path2542" class="st17" d="M4162,1348.3c-4.4-1.6-9.3,3-8.4,7.5c0.7,5.7,3.8,11.4,8.7,14.5"/>
					<path id="path2544" class="st17" d="M4162.5,1380.5c-4.8-3.7-9.2-9.3-10-16.4l-0.1-0.5"/>
					<path id="path2546" class="st17" d="M4154.2,1352.1c-7.2,6.2-8.1,18-2.2,25.4c1.3,1.6,2.6,3.6,4.1,4.9"/>
					<path id="path2548" class="st17" d="M4148.1,1363c-2.9,3.5-5,9.7-4.4,14.6c0,0.8,1.2,2.8,1.1,3.6"/>
					<path id="path2550" class="st17" d="M4142.1,1368.9c-2.2,2.8-4,8.2-2.6,12.5"/>
					<path id="path2552" class="st17" d="M4157.4,1334.9c0.6,5.5-1.4,11.2-5.4,15c-2.8,3.1-5.4,6.4-8.7,9c-4.8,3.7-7.6,6.6-7.3,15.1
						"/>
					<path id="path2554" class="st17" d="M4133.3,1375c-0.7-3.8-1-9.2,0.8-13.3c1.7-3.8,5.7-6.2,9-8.9c4.4-3.6,10-5.8,11.5-11.5
						c0.6-3.2,0-6.5,0.2-9.7"/>
					<path id="path2556" class="st17" d="M4152.1,1329.5c0,4,2,8.3-0.5,12c-2.8,3.5-6.7,5.9-10.7,7.7c-4.1,2.8-8.2,6.2-10.3,10.8
						c-1.1,2.6-3.8,7.5-1.2,12.1"/>
					<path id="path2558" class="st17" d="M4149.6,1327.9c-0.2,4.4,1.6,9.2-0.9,13.2c-0.8,1-2,1.6-3.1,2"/>
					<path id="path2560" class="st17" d="M4147,1325.8c-0.4,4.5,0.6,9.6-2.7,13.3c-2.4,2.8-5.4,5.1-7.5,8.2
						c-1.5,1.9-3.3,3.8-3.8,6.2"/>
					<path id="path2562" class="st17" d="M4145.9,1321.8c-0.2,5.6-2.4,11-5.4,15.7c-2,2.8-5.4,4.7-6.4,8.2"/>
					<path id="path2564" class="st17" d="M4144.6,1315.3c-1.3,5.8-1,12.4-5.1,17.2c-2,2.5-3.8,5.1-5.1,8"/>
					<path id="path2566" class="st17" d="M4142.7,1313.4c-1.4,6.9-5.3,12.9-7.5,19.5c-0.3,0.7-0.6,1.5-0.8,2.3"/>
					<path id="path2568" class="st17" d="M4138.9,1309.2c0.2,4.1-1,8.1-2.3,11.9c-0.8,1.8-2,3.7-1.7,5.8"/>
				</g>
				<path id="path2570" class="st4" d="M4188.5,1375.7c3-2.3,6.2-4.4,9.4-6.4"/>
				<path id="path2572" class="st4" d="M4188.5,1372.4c4.9-3.3,10.1-6.4,13.6-11.2c0.5-0.8,2.2-2.7,2.6-3.6"/>
				<path id="path2574" class="st4" d="M4191.2,1367c3.8-2.1,8.5-6.2,10.9-9.8c1.1-1.3,2.7-3.9,4.1-4.9"/>
				<path id="path2576" class="st4" d="M4194.2,1360.6c2.5-2.6,4.5-4.4,7.3-6.7c1-0.9,4.5-4.6,5.6-5.4"/>
				<path id="path2578" class="st4" d="M4196.3,1354.4c3.2-2.3,7.2-6.5,10.6-8.5"/>
				<path id="path2580" class="st4" d="M4198.3,1349.6c2.7-2.3,6.5-6.8,10.3-8.7"/>
				<path id="path2582" class="st4" d="M4199.7,1344.5c2.7-2.7,5.4-5.6,8.6-7.8"/>
				<path id="path2584" class="st4" d="M4200.8,1340.3c2.2-1.8,5.2-6,7.7-7.5"/>
				<path id="path2586" class="st4" d="M4200.9,1336.8c2.1-2.5,4.7-5.9,7.7-7.5"/>
				<path id="path2588" class="st4" d="M4201.6,1331.7c1.9-2.5,2.8-4.3,5.2-6.3l2.2-1.7"/>
				<path id="path2590" class="st4" d="M4202.2,1325.7c1.6-2.4,4.6-5.7,6.9-7.4"/>
				<path id="path2592" class="st4" d="M4203.1,1320.9c1.9-2.3,3.7-4.8,5.5-7.1"/>
				<path id="path2594" class="st4" d="M4203.8,1315.8c1.2-2.2,3.4-4.7,5.1-6.3"/>
			</g>
			<path id="path2596" class="st5" d="M4249.1,1364.2c0.9,0,1.9,0.1,2.8,0c2.1-0.7,4.1-1.3,6.1-2.1c1.4-0.5,2.7-1.4,4-2.1
				c1.4-1.3,3-2.5,4.2-3.9c0.8-0.7,1.3-1.7,1.8-2.6c-0.1,1.7-0.3,3.4-0.3,5.1c0.3,5.3,0.2,9.6,0.5,14.9c-0.2,2.7-1.2,6.2-1.4,8.9
				c-6.3-0.1-11.5,0.1-17.9,0C4248.9,1376.4,4249,1370.2,4249.1,1364.2L4249.1,1364.2z"/>
			<g id="g2598">
				<path id="path2600" class="st4" d="M4249.2,1372.8c2.8-0.8,6.7-0.6,9.5-2.1c2.6-1.4,4.8-3.7,6.6-6.1c0.9-1.1,1.4-2.8,1.9-3.8"/>
				<path id="path2602" class="st4" d="M4248.9,1380.3c2.1-0.6,5-1,7.4-1.9c2.1-0.7,4.3-1.2,6-2.6c2.3-1.9,3.6-5.7,5.1-7.4"/>
				<path id="path2604" class="st4" d="M4257.5,1382.4c1.8-0.7,4.4-1.6,6.2-3c1.4-1.1,2.4-3.1,3.5-4"/>
			</g>
		</g>
		<g id="g2606">
			<path id="path2608" class="st0" d="M4262.8,1346.7c0.9,0.6,2.2,0.4,3,1.1c0.8,0.6,1.1,1.7,1.5,2.6c0.3,0.6,0.6,1.2,0.8,1.9
				c0.1,0.4,0.1,0.8-0.1,1.2c-0.3,1-1,1.9-1.8,2.8c-1.3,1.6-2.9,2.9-4.6,4c-1.4,1-2.9,1.7-4.4,2.4c-1.2,0.6-2.3,1.2-3.6,1.5
				c-1.2,0.3-2.4,0.6-3.6,0.6c-0.5,0-1.1,0.2-1.4-0.2c-0.4-1.7,0-2.6,0-3.9c1.3,0,2.5,0.2,3.8,0c1.8-0.4,3.4-1.3,5.1-2.1
				c0.8-0.4,1.6-0.7,2.4-1.2c0.6-0.4,1.2-0.8,1.7-1.4c0.6-0.8,1.1-1.8,1.3-2.8c0.2-1-0.3-2-0.4-3c-0.1-0.6-0.2-1.2-0.2-1.8
				C4262.4,1348,4262.2,1346.9,4262.8,1346.7L4262.8,1346.7z"/>
			<path id="path2610" class="st8" d="M4240.6,1347.4c0.1,5.5,0.2,10.9,0.4,16.4c-0.6-0.6-1.3-1.2-1.8-1.9c-0.6-0.8-1.1-1.6-1.5-2.5
				c-0.5-1-1-2-1.2-3c-0.2-0.7-0.3-1.5-0.2-2.3c0.2-1.3,0.8-2.6,1.5-3.7C4238.5,1349.2,4239.6,1348.7,4240.6,1347.4L4240.6,1347.4z"
				/>
		</g>
		<path id="path2612" class="st13" d="M4240.6,1338.6l-0.1,43.8h8.4l0.6-41.3l-3.5-1l-3.4-1L4240.6,1338.6z"/>
		<g id="g2614">
			<path id="path2616" class="st8" d="M4131.4,1250.5c-1.7,0.4-0.9,2.1-1.1,3.2c-0.6,2.5,0.1,5.5-1.2,7.7c-0.8,1.4-3.3,1.4-3.7,2.9
				c-0.3,1.2,1.2,2.2,1.2,3.5c0,1.5-0.2,3.2-1.2,4.3c-0.7,0.7-2.4,0.1-3,1c-0.6,1.1,0.3,2.5,0.7,3.7c1.6,4.6,5.1,8.6,6.4,13.2
				c2-0.7,4.1-0.6,6.1-0.7c3.5-0.3,7.1-0.4,10.6-0.5c6.3-0.1,12.5-0.1,18.8,0.1c5,0.1,10-0.1,14.9,0.6c2.1,0.9,0.6-1.7,0.6-2.6
				c0-6.3-2.5-12.4-4.6-18.4c-1.3-3.8-3.2-7.4-5-11c-1.4-2.7-3-5.4-4.7-8c-1.4,0.4-1.7,1.6-2.2,2.6c-1.9,3.2-1.6,7.5-3.8,10.5
				c-1.5,2.1-3.4,4.6-6,4.8c-3.7,0.3-6.5-3.6-9.8-5.5c-2.2-1.3-4.6-2.4-6.6-4.1c-1.6-1.4-2.8-3.3-4.2-4.9
				C4133,1252.1,4132.3,1251.2,4131.4,1250.5L4131.4,1250.5z"/>
			<path id="path2618" class="st4" d="M4127.6,1269.2c3.9,2.6,7.5,4.8,10.4,9.2c0.5,0.8,1.8,1.2,2.3,0.6c1.2-1.6,2.4-3.5,4-5
				c2.9-2.6,5.7-4.9,9.9-6.3c1.6-0.5,3.1,1.1,4.5,2.1c3.1,2.1,5.2,5.6,8.2,7.9c1,0.8,2,2.2,3.3,1.9c1.1-0.3,1.6-1.4,3.4-5.7
				c1-2.5,1.2-5.2,1.8-7.8"/>
			<g id="g2620" transform="translate(0,512.36)">
				<path id="path2622" class="st8" d="M4145.5,863.3l11.3-0.4l9.7,0.2l2.1-4.8l5.3-12.9l4.4-16.8l2.3-12l1.1-10.6v-2.3l-10.3-0.7
					l-12.4,0.5l-11.5,0.9l-6.2,0.3l-3.7,0.3l2.8,11.8l2.1,11.8l1.5,11.8l0.4,8.3L4145.5,863.3z"/>
				<g id="g2624">
					<path id="path2626" class="st4" d="M4145.3,846.3c0,0,7.1,0.4,10.6,0.5c2.7,0.1,5.3,0.3,8,0.4c3.1,0,9.2-0.2,9.2-0.2"/>
					<path id="path2628" class="st4" d="M4144.8,850.9c0,0,7.5,0,11.3,0.1c2.5,0.1,5.1,0.2,7.6,0.4c2.4,0.2,7.2,0.7,7.2,0.7"/>
					<path id="path2630" class="st4" d="M4145.3,855.5c0,0,7.2-0.6,10.8-0.5c3.3,0,6.6,0.3,9.9,0.7c0.9,0.1,2.7,0.5,2.7,0.5"/>
					<path id="path2632" class="st4" d="M4145.4,860.3c0,0,6.4-0.4,9.6-0.4c1.9,0,3.8,0.1,5.7,0.3c2.2,0.2,6.7,0.7,6.7,0.7"/>
				</g>
				<path id="path2634" class="st3" d="M4156.1,803.9l-9.4,4.8c0,0,0.6,5.4,0.7,8.1c0.1,2.7,0.2,5.4,0.2,8.1c0,3.1-0.2,9.4-0.2,9.4
					s3.8,2.2,5.7,3.4c1.5,0.9,3.1,1.7,4.4,2.8c1.2,0.9,3.2,3.2,3.2,3.2l1.2,0.2c0,0,2.3-2.1,3.5-3.1c1.6-1.3,3.3-2.3,4.8-3.6
					c1.2-1,3.4-3,3.4-3s0.2-6.2,0.4-9.4c0.1-3,0.3-6,0.5-9c0.2-2.4,0.5-7.1,0.5-7.1s-4.1-1.7-6.2-2.5c-1.3-0.5-2.6-0.9-3.9-1.4
					c-1-0.4-2.8-1.4-2.8-1.4L4156.1,803.9z"/>
				<path id="path2636" class="st4" d="M4159.7,806.8c0,0-2.7,1.7-4.2,2.4c-1.4,0.7-4.2,1.9-4.2,1.9s0.4,2.9,0.5,4.3
					c0.2,2.1,0.1,4.3,0.2,6.5c0,1.7,0,3.3,0,5c0,1.2,0.1,2.4,0,3.5c-0.1,0.8-0.4,2.5-0.4,2.5s1.7,1.2,2.7,1.8
					c0.8,0.5,1.7,0.9,2.5,1.4c1,0.6,1.9,1.1,2.8,1.8c0.8,0.6,2.2,1.9,2.2,1.9s1.9-1.5,2.7-2.3c0.9-0.8,1.7-1.6,2.5-2.4
					c1-1,2.8-3,2.8-3s0-5.8,0-8.7c0-2,0.1-4,0.2-6c0.1-1.9,0.2-5.8,0.2-5.8s-2.6-1.3-3.9-1.9c-1.2-0.6-2.3-1.3-3.5-1.9
					c-0.6-0.3-1.8-0.9-1.8-0.9L4159.7,806.8z"/>
			</g>
			<path id="path2638" class="st11" d="M4161,1327.2c0,0,1.5,2.5,3.3,4.3s4.3,3.3,4.3,3.3s-2.5,1.5-4.3,3.3s-3.3,4.3-3.3,4.3
				s-1.5-2.5-3.3-4.3s-4.3-3.3-4.3-3.3s2.5-1.5,4.3-3.3S4161,1327.2,4161,1327.2"/>
			<path id="path2640" class="st4" d="M4205.5,1281.3l2.7,11.3l2.4,9.7l1.1,13.1l-0.5,11.8l-0.5,13.1l-2.1,13.9l-2.4,8l-3.2,5.6"/>
		</g>
		<g id="g2642" transform="translate(0,512.36)">
			<path id="path2644" class="st13" d="M4079.7,870c0,0,1-2.3,1.9-3.2c0.6-0.6,1.5-0.8,2.3-1.1c2.6-0.7,5.3-0.9,8-1.1
				c3.6-0.2,7.3,0.1,11,0c4.2-0.1,8.5-0.6,12.7-0.7c3.9-0.1,7.9-0.1,11.8-0.2c6.1-0.2,12.3-0.7,18.4-0.9c7-0.2,14-0.1,21,0
				c5.1,0.1,10.1,0.3,15.2,0.5c2.4,0.1,4.7,0.1,7.1,0.5c1.7,0.3,3.7,0.3,5,1.4c0.5,0.4,0.6,1.1,0.7,1.8c0.2,0.9,0.2,2.8,0.2,2.8
				L4079.7,870z"/>
			<path id="path2646" class="st4" d="M4080.9,868.1c0,0,5.2-1,7.8-1.2c8.6-0.7,17.3,0.3,26,0.2c10.5-0.1,21-0.8,31.5-0.9
				c5.3,0,10.6,0.1,15.9,0.2c3.7,0,7.4,0.1,11.1,0.2c3.8,0,7.7-0.2,11.5,0c1.8,0.1,3.7,0.3,5.5,0.5c1.4,0.2,4.2,0.7,4.2,0.7"/>
		</g>
	</g>
</g>
</svg>
