<?xml version="1.0" encoding="utf-8"?>
<!-- Generator: Adobe Illustrator 24.1.2, SVG Export Plug-In . SVG Version: 6.00 Build 0)  -->
<svg version="1.1" id="Слой_1" xmlns="http://www.w3.org/2000/svg" xmlns:xlink="http://www.w3.org/1999/xlink" x="0px" y="0px"
	 viewBox="0 0 359 539" style="enable-background:new 0 0 359 539;" xml:space="preserve">
<style type="text/css">
	.st0{fill:#FFFFFF;stroke:#000000;}
	.st1{fill:#FF5555;}
	.st2{fill:none;stroke:#000000;stroke-width:2;stroke-linecap:square;}
	.st3{fill:#5555AA;stroke:#000000;stroke-linecap:round;stroke-linejoin:round;}
	.st4{fill:#5555AA;stroke:#000000;}
	.st5{fill:#AA0000;stroke:#000000;}
	.st6{fill:#FFAA55;stroke:#000000;}
	.st7{fill:none;stroke:#000000;}
	.st8{fill:#FFAA55;stroke:#000000;stroke-linecap:round;stroke-linejoin:round;}
	.st9{fill:#AAAAAA;stroke:#000000;stroke-linecap:round;stroke-linejoin:round;}
	.st10{fill:none;stroke:#000000;stroke-linecap:round;stroke-linejoin:round;}
	.st11{fill:#FFAAAA;fill-opacity:0.982;stroke:#000000;}
	.st12{fill:#AA5500;stroke:#000000;stroke-linecap:round;stroke-linejoin:round;}
	.st13{fill:#FFAAAA;stroke:#000000;}
	.st14{fill:#FF5555;stroke:#000000;}
	.st15{fill:none;stroke:#000000;stroke-linecap:round;}
	.st16{fill:#FFFFFF;stroke:#000000;stroke-linecap:round;stroke-linejoin:round;}
	.st17{fill:#5555AA;stroke:#000000;stroke-width:0.792;stroke-linecap:round;stroke-linejoin:round;}
	.st18{stroke:#000000;stroke-linecap:round;stroke-linejoin:round;}
	.st19{fill:#AA5500;stroke:#000000;}
	.st20{fill:#AAAAFF;stroke:#000000;stroke-linecap:round;stroke-linejoin:round;}
	.st21{fill:#FFAAAA;stroke:#000000;stroke-linecap:round;stroke-linejoin:round;}
</style>
<g id="g14524" transform="translate(3540,-482.36)">
	<path id="rect14526" class="st0" d="M-3510.28,482.39h299.11c16.54,0,29.94,13.41,29.94,29.94v479.11
		c0,16.54-13.41,29.94-29.94,29.94h-299.11c-16.54,0-29.94-13.41-29.94-29.94V512.33C-3540.22,495.79-3526.81,482.39-3510.28,482.39
		z"/>
	<g id="g14528" transform="translate(5,22.362)">
		<path id="path14530" class="st1" d="M-3530.72,489.53l-5,7v7l5-7v43h5v-50H-3530.72"/>
		<path id="path14532" class="st1" d="M-3510.72,489.53c-5.54,0-10,4.46-10,10v30c0,5.54,4.46,10,10,10s10-4.46,10-10v-30
			C-3500.72,493.99-3505.18,489.53-3510.72,489.53 M-3510.72,494.53c2.77,0,5,2.23,5,5v30c0,2.77-2.23,5-5,5s-5-2.23-5-5v-30
			C-3515.72,496.76-3513.49,494.53-3510.72,494.53"/>
	</g>
	<g id="g14534">
		<g id="g14536" transform="matrix(-1,0,0,-1,355,1542.36)">
			<path id="path14538" class="st1" d="M3550.72,550.47l-5,7v7l5-7v43h5v-50H3550.72"/>
			<path id="path14540" class="st1" d="M3570.72,550.47c-5.54,0-10,4.46-10,10v30c0,5.54,4.46,10,10,10s10-4.46,10-10v-30
				C3580.72,554.93,3576.26,550.47,3570.72,550.47 M3570.72,555.47c2.77,0,5,2.23,5,5v30c0,2.77-2.23,5-5,5s-5-2.23-5-5v-30
				C3565.72,557.7,3567.95,555.47,3570.72,555.47"/>
		</g>
		<path id="path14542" class="st1" d="M-3440.72,551.89c0,0,1.82-11.15,5.33-14.67c3.51-3.51,9.7-5.33,14.67-5.33
			s11.15,1.82,14.67,5.33c3.51,3.51,5.33,9.7,5.33,14.67s-2.67,12-5.33,14.67c-2.67,2.67-5.33,4-8,6.67s-4,2.67-6.67,5.33
			c-2.67,2.67-4,4-6.67,6.67s-6.67,8-9.33,13.33c-2.67,5.33-4,13.33-4,13.33s-1.33-8-4-13.33s-6.67-10.67-9.33-13.33
			c-2.67-2.67-4-4-6.67-6.67s-4-2.67-6.67-5.33c-2.67-2.67-5.33-4-8-6.67s-5.33-9.7-5.33-14.67s1.82-11.15,5.33-14.67
			c3.51-3.51,9.7-5.33,14.67-5.33s11.15,1.82,14.67,5.33C-3442.54,540.73-3440.72,551.89-3440.72,551.89"/>
		<path id="path14544" class="st1" d="M-3280.72,551.89c0,0,1.82-11.15,5.33-14.67c3.51-3.51,9.7-5.33,14.67-5.33
			s11.15,1.82,14.67,5.33c3.51,3.51,5.33,9.7,5.33,14.67s-2.67,12-5.33,14.67c-2.67,2.67-5.33,4-8,6.67s-4,2.67-6.67,5.33
			c-2.67,2.67-4,4-6.67,6.67s-6.67,8-9.33,13.33c-2.67,5.33-4,13.33-4,13.33s-1.33-8-4-13.33s-6.67-10.67-9.33-13.33
			c-2.67-2.67-4-4-6.67-6.67s-4-2.67-6.67-5.33c-2.67-2.67-5.33-4-8-6.67s-5.33-9.7-5.33-14.67s1.82-11.15,5.33-14.67
			c3.51-3.51,9.7-5.33,14.67-5.33s11.15,1.82,14.67,5.33C-3282.54,540.73-3280.72,551.89-3280.72,551.89"/>
		<path id="path14546" class="st1" d="M-3360.72,611.89c0,0,1.82-11.15,5.33-14.67c3.51-3.51,9.7-5.33,14.67-5.33
			s11.15,1.82,14.67,5.33c3.51,3.51,5.33,9.7,5.33,14.67s-2.67,12-5.33,14.67c-2.67,2.67-5.33,4-8,6.67s-4,2.67-6.67,5.33
			c-2.67,2.67-4,4-6.67,6.67s-6.67,8-9.33,13.33c-2.67,5.33-4,13.33-4,13.33s-1.33-8-4-13.33s-6.67-10.67-9.33-13.33
			c-2.67-2.67-4-4-6.67-6.67s-4-2.67-6.67-5.33c-2.67-2.67-5.33-4-8-6.67s-5.33-9.7-5.33-14.67s1.82-11.15,5.33-14.67
			c3.51-3.51,9.7-5.33,14.67-5.33s11.15,1.82,14.67,5.33C-3362.54,600.73-3360.72,611.89-3360.72,611.89"/>
		<path id="path14548" class="st1" d="M-3440.72,671.89c0,0,1.82-11.15,5.33-14.67c3.51-3.51,9.7-5.33,14.67-5.33
			s11.15,1.82,14.67,5.33c3.51,3.51,5.33,9.7,5.33,14.67s-2.67,12-5.33,14.67c-2.67,2.67-5.33,4-8,6.67s-4,2.67-6.67,5.33
			c-2.67,2.67-4,4-6.67,6.67s-6.67,8-9.33,13.33c-2.67,5.33-4,13.33-4,13.33s-1.33-8-4-13.33s-6.67-10.67-9.33-13.33
			c-2.67-2.67-4-4-6.67-6.67s-4-2.67-6.67-5.33c-2.67-2.67-5.33-4-8-6.67s-5.33-9.7-5.33-14.67s1.82-11.15,5.33-14.67
			c3.51-3.51,9.7-5.33,14.67-5.33s11.15,1.82,14.67,5.33C-3442.54,660.73-3440.72,671.89-3440.72,671.89"/>
		<path id="path14550" class="st1" d="M-3280.72,671.89c0,0,1.82-11.15,5.33-14.67c3.51-3.51,9.7-5.33,14.67-5.33
			s11.15,1.82,14.67,5.33c3.51,3.51,5.33,9.7,5.33,14.67s-2.67,12-5.33,14.67c-2.67,2.67-5.33,4-8,6.67s-4,2.67-6.67,5.33
			c-2.67,2.67-4,4-6.67,6.67s-6.67,8-9.33,13.33c-2.67,5.33-4,13.33-4,13.33s-1.33-8-4-13.33s-6.67-10.67-9.33-13.33
			c-2.67-2.67-4-4-6.67-6.67s-4-2.67-6.67-5.33c-2.67-2.67-5.33-4-8-6.67s-5.33-9.7-5.33-14.67s1.82-11.15,5.33-14.67
			c3.51-3.51,9.7-5.33,14.67-5.33s11.15,1.82,14.67,5.33C-3282.54,660.73-3280.72,671.89-3280.72,671.89"/>
		<path id="path14552" class="st1" d="M-3440.72,951.89c0,0,1.82,11.15,5.33,14.67c3.51,3.51,9.7,5.33,14.67,5.33
			s11.15-1.82,14.67-5.33c3.51-3.51,5.33-9.7,5.33-14.67s-2.67-12-5.33-14.67c-2.67-2.67-5.33-4-8-6.67s-4-2.67-6.67-5.33
			c-2.67-2.67-4-4-6.67-6.67s-6.67-8-9.33-13.33c-2.67-5.33-4-13.33-4-13.33s-1.33,8-4,13.33s-6.67,10.67-9.33,13.33
			c-2.67,2.67-4,4-6.67,6.67s-4,2.67-6.67,5.33c-2.67,2.67-5.33,4-8,6.67s-5.33,9.7-5.33,14.67s1.82,11.15,5.33,14.67
			c3.51,3.51,9.7,5.33,14.67,5.33s11.15-1.82,14.67-5.33C-3442.54,963.04-3440.72,951.89-3440.72,951.89"/>
		<path id="path14554" class="st1" d="M-3280.72,951.89c0,0,1.82,11.15,5.33,14.67c3.51,3.51,9.7,5.33,14.67,5.33
			s11.15-1.82,14.67-5.33c3.51-3.51,5.33-9.7,5.33-14.67s-2.67-12-5.33-14.67c-2.67-2.67-5.33-4-8-6.67s-4-2.67-6.67-5.33
			c-2.67-2.67-4-4-6.67-6.67s-6.67-8-9.33-13.33c-2.67-5.33-4-13.33-4-13.33s-1.33,8-4,13.33s-6.67,10.67-9.33,13.33
			c-2.67,2.67-4,4-6.67,6.67s-4,2.67-6.67,5.33c-2.67,2.67-5.33,4-8,6.67s-5.33,9.7-5.33,14.67s1.82,11.15,5.33,14.67
			c3.51,3.51,9.7,5.33,14.67,5.33s11.15-1.82,14.67-5.33C-3282.54,963.04-3280.72,951.89-3280.72,951.89"/>
		<path id="path14556" class="st1" d="M-3360.72,891.89c0,0,1.82,11.15,5.33,14.67c3.51,3.51,9.7,5.33,14.67,5.33
			s11.15-1.82,14.67-5.33c3.51-3.51,5.33-9.7,5.33-14.67s-2.67-12-5.33-14.67c-2.67-2.67-5.33-4-8-6.67s-4-2.67-6.67-5.33
			c-2.67-2.67-4-4-6.67-6.67s-6.67-8-9.33-13.33c-2.67-5.33-4-13.33-4-13.33s-1.33,8-4,13.33s-6.67,10.67-9.33,13.33
			c-2.67,2.67-4,4-6.67,6.67s-4,2.67-6.67,5.33c-2.67,2.67-5.33,4-8,6.67s-5.33,9.7-5.33,14.67s1.82,11.15,5.33,14.67
			c3.51,3.51,9.7,5.33,14.67,5.33s11.15-1.82,14.67-5.33C-3362.54,903.04-3360.72,891.89-3360.72,891.89"/>
		<path id="path14558" class="st1" d="M-3440.72,831.89c0,0,1.82,11.15,5.33,14.67c3.51,3.51,9.7,5.33,14.67,5.33
			s11.15-1.82,14.67-5.33c3.51-3.51,5.33-9.7,5.33-14.67s-2.67-12-5.33-14.67c-2.67-2.67-5.33-4-8-6.67s-4-2.67-6.67-5.33
			c-2.67-2.67-4-4-6.67-6.67s-6.67-8-9.33-13.33c-2.67-5.33-4-13.33-4-13.33s-1.33,8-4,13.33s-6.67,10.67-9.33,13.33
			c-2.67,2.67-4,4-6.67,6.67s-4,2.67-6.67,5.33c-2.67,2.67-5.33,4-8,6.67s-5.33,9.7-5.33,14.67s1.82,11.15,5.33,14.67
			c3.51,3.51,9.7,5.33,14.67,5.33s11.15-1.82,14.67-5.33C-3442.54,843.04-3440.72,831.89-3440.72,831.89"/>
		<path id="path14560" class="st1" d="M-3280.72,831.89c0,0,1.82,11.15,5.33,14.67c3.51,3.51,9.7,5.33,14.67,5.33
			s11.15-1.82,14.67-5.33c3.51-3.51,5.33-9.7,5.33-14.67s-2.67-12-5.33-14.67c-2.67-2.67-5.33-4-8-6.67s-4-2.67-6.67-5.33
			c-2.67-2.67-4-4-6.67-6.67s-6.67-8-9.33-13.33c-2.67-5.33-4-13.33-4-13.33s-1.33,8-4,13.33s-6.67,10.67-9.33,13.33
			c-2.67,2.67-4,4-6.67,6.67s-4,2.67-6.67,5.33c-2.67,2.67-5.33,4-8,6.67s-5.33,9.7-5.33,14.67s1.82,11.15,5.33,14.67
			c3.51,3.51,9.7,5.33,14.67,5.33s11.15-1.82,14.67-5.33C-3282.54,843.04-3280.72,831.89-3280.72,831.89"/>
		<path id="path14562" class="st1" d="M-3510.72,579.39c0,0,0.68-4.18,2-5.5c1.32-1.32,3.64-2,5.5-2s4.18,0.68,5.5,2
			c1.32,1.32,2,3.64,2,5.5s-1,4.5-2,5.5s-2,1.5-3,2.5s-1.5,1-2.5,2s-1.5,1.5-2.5,2.5s-2.5,3-3.5,5s-1.5,5-1.5,5s-0.5-3-1.5-5
			s-2.5-4-3.5-5s-1.5-1.5-2.5-2.5s-1.5-1-2.5-2s-2-1.5-3-2.5s-2-3.64-2-5.5s0.68-4.18,2-5.5c1.32-1.32,3.64-2,5.5-2s4.18,0.68,5.5,2
			C-3511.4,575.2-3510.72,579.39-3510.72,579.39"/>
		<path id="path14564" class="st1" d="M-3210.72,924.39c0,0,0.68,4.18,2,5.5c1.32,1.32,3.64,2,5.5,2s4.18-0.68,5.5-2
			c1.32-1.32,2-3.64,2-5.5s-1-4.5-2-5.5s-2-1.5-3-2.5s-1.5-1-2.5-2s-1.5-1.5-2.5-2.5s-2.5-3-3.5-5s-1.5-5-1.5-5s-0.5,3-1.5,5
			s-2.5,4-3.5,5s-1.5,1.5-2.5,2.5s-1.5,1-2.5,2s-2,1.5-3,2.5s-2,3.64-2,5.5s0.68,4.18,2,5.5c1.32,1.32,3.64,2,5.5,2s4.18-0.68,5.5-2
			C-3211.4,928.57-3210.72,924.39-3210.72,924.39"/>
	</g>
</g>
<g id="g572" transform="translate(3930,-482.36)">
	<path id="rect574" class="st0" d="M-3900.28,482.39h299.11c16.54,0,29.94,13.41,29.94,29.94v479.11
		c0,16.54-13.41,29.94-29.94,29.94h-299.11c-16.54,0-29.94-13.41-29.94-29.94V512.33C-3930.22,495.79-3916.81,482.39-3900.28,482.39
		z"/>
	<g id="g576">
		<path id="path578" class="st1" d="M-3900.72,579.39c0,0,0.68-4.18,2-5.5c1.32-1.32,3.64-2,5.5-2s4.18,0.68,5.5,2
			c1.32,1.32,2,3.64,2,5.5s-1,4.5-2,5.5s-2,1.5-3,2.5s-1.5,1-2.5,2s-1.5,1.5-2.5,2.5s-2.5,3-3.5,5s-1.5,5-1.5,5s-0.5-3-1.5-5
			s-2.5-4-3.5-5s-1.5-1.5-2.5-2.5s-1.5-1-2.5-2s-2-1.5-3-2.5s-2-3.64-2-5.5s0.68-4.18,2-5.5c1.32-1.32,3.64-2,5.5-2s4.18,0.68,5.5,2
			C-3901.4,575.2-3900.72,579.39-3900.72,579.39"/>
		<path id="path580" class="st1" d="M-3600.72,924.39c0,0,0.68,4.18,2,5.5c1.32,1.32,3.64,2,5.5,2s4.18-0.68,5.5-2
			c1.32-1.32,2-3.64,2-5.5s-1-4.5-2-5.5s-2-1.5-3-2.5s-1.5-1-2.5-2s-1.5-1.5-2.5-2.5s-2.5-3-3.5-5s-1.5-5-1.5-5s-0.5,3-1.5,5
			s-2.5,4-3.5,5s-1.5,1.5-2.5,2.5s-1.5,1-2.5,2s-2,1.5-3,2.5s-2,3.64-2,5.5s0.68,4.18,2,5.5c1.32,1.32,3.64,2,5.5,2s4.18-0.68,5.5-2
			C-3601.4,928.57-3600.72,924.39-3600.72,924.39"/>
		<path id="path582" class="st1" d="M-3840.72,541.89c0,0,1.82-11.15,5.33-14.67c3.51-3.51,9.7-5.33,14.67-5.33
			s11.15,1.82,14.67,5.33c3.51,3.51,5.33,9.7,5.33,14.67s-2.67,12-5.33,14.67c-2.67,2.67-5.33,4-8,6.67s-4,2.67-6.67,5.33
			c-2.67,2.67-4,4-6.67,6.67s-6.67,8-9.33,13.33c-2.67,5.33-4,13.33-4,13.33s-1.33-8-4-13.33s-6.67-10.67-9.33-13.33
			c-2.67-2.67-4-4-6.67-6.67s-4-2.67-6.67-5.33c-2.67-2.67-5.33-4-8-6.67s-5.33-9.7-5.33-14.67s1.82-11.15,5.33-14.67
			c3.51-3.51,9.7-5.33,14.67-5.33s11.15,1.82,14.67,5.33C-3842.54,530.73-3840.72,541.89-3840.72,541.89"/>
		<path id="path584" class="st1" d="M-3660.72,961.89c0,0,1.82,11.15,5.33,14.67c3.51,3.51,9.7,5.33,14.67,5.33
			s11.15-1.82,14.67-5.33c3.51-3.51,5.33-9.7,5.33-14.67s-2.67-12-5.33-14.67c-2.67-2.67-5.33-4-8-6.67s-4-2.67-6.67-5.33
			c-2.67-2.67-4-4-6.67-6.67s-6.67-8-9.33-13.33c-2.67-5.33-4-13.33-4-13.33s-1.33,8-4,13.33s-6.67,10.67-9.33,13.33
			c-2.67,2.67-4,4-6.67,6.67s-4,2.67-6.67,5.33c-2.67,2.67-5.33,4-8,6.67s-5.33,9.7-5.33,14.67s1.82,11.15,5.33,14.67
			c3.51,3.51,9.7,5.33,14.67,5.33s11.15-1.82,14.67-5.33C-3662.54,973.04-3660.72,961.89-3660.72,961.89"/>
		<path id="path586" class="st1" d="M-3910.72,511.89v50h5h5c5.54,0,10-4.46,10-10v-10c0-3-1.32-5.67-3.41-7.5
			c2.08-1.83,3.41-4.5,3.41-7.5v-5c0-5.54-4.46-10-10-10h-5H-3910.72z M-3905.72,516.89h5c2.77,0,5,2.23,5,5v5c0,2.77-2.23,5-5,5h-5
			V516.89z M-3905.72,536.89h5c2.77,0,5,2.23,5,5v10c0,2.77-2.23,5-5,5h-5V536.89z"/>
		<path id="path588" class="st1" d="M-3590.72,991.89v-50h-5h-5c-5.54,0-10,4.46-10,10v10c0,3,1.32,5.67,3.41,7.5
			c-2.08,1.83-3.41,4.5-3.41,7.5v5c0,5.54,4.46,10,10,10h5H-3590.72z M-3595.72,986.89h-5c-2.77,0-5-2.23-5-5v-5c0-2.77,2.23-5,5-5
			h5V986.89z M-3595.72,966.89h-5c-2.77,0-5-2.23-5-5v-10c0-2.77,2.23-5,5-5h5V966.89z"/>
	</g>
	<g id="g590" transform="translate(0,512.36)">
		<path id="path592" class="st2" d="M-3880.72-0.47h280v380"/>
		<path id="path594" class="st2" d="M-3620.72,479.53h-280v-380"/>
		<path id="path596" class="st2" d="M-3900.72,239.53h300"/>
	</g>
	<g id="g598">
		<g id="g600">
			<path id="path602" class="st3" d="M-3612.35,716.02l-0.25,5.63l-0.25,4l-1,3.5l-1,3.75l-0.88,2.13l0.38,2.75l-0.25,4.25
				l-0.38,2.38l-1.13,3l-1,2.88l-0.75,1.25l-42.88-0.25l-0.88-1.5l-1.38-3.75l-1.13-2.25l-1.13-3.38l-0.75-5.25l-0.5-5l0.13-3
				l-0.63-2.38l-0.5-3.75l-1.13-4l-1.5-2.38l-0.5-2.75l-0.63-2.75l-0.63,0.38l-1.38,4.38l-1.75,4.13l-0.75,3l-1.25,4.13l-0.88,2.25
				l-0.5,3.13l0.13,3.63l-0.38,1.38l-0.13,1.75l-0.5,0.75l-2.88,1.88l-3.13,1.5l-4.38,0.88l-4.75,1.13l-4.13,0.38l-4.75,0.5
				l-2.88-0.25l12.38-13.5l8.88-9.38l6.13-8l6.75-9.13l8.38-13.75l3.25-5.88l11.75-19.88l3.38-4.75l6.75-0.25l0.38,36l-1,0.38
				l-3.75,4.75l-1.25,2.13l-5.25,8.88l-1.38,2.75l-1.13,1.75l3.63,4.63l5,3.38l3.5,1.5l5.75-0.38l4.88-1h3.75l5.38-2.5l4-2.25
				L-3612.35,716.02z"/>
			<path id="path604" class="st4" d="M-3722.72,643.39l-2.25,38.5c0,0,12.03-17.71,17.75-26.75c5.35-8.47,15.5-25.75,15.5-25.75
				l-15.5-6L-3722.72,643.39z"/>
			<path id="path606" class="st4" d="M-3832.72,645.64c4.79-2.73,9.88-4.8,14.94-6.97c7.28-3.01,13.87-8.78,21.48-11.01
				c6.69-2.42,13.39-3.6,20.09-6.02c-0.02,10.32,0.4,20.65,0.1,30.96c-1.37,17.68-2.73,35.36-4.1,53.04c-1.67,1.5-3.33,3-5,4.5
				c-4.6-2.91-9.62,4.19-12.12,2.09C-3809.13,690.03-3820.92,667.84-3832.72,645.64L-3832.72,645.64z"/>
		</g>
		<g id="g608" transform="translate(0,512.36)">
			<path id="path610" class="st5" d="M-3776.97,138.03l-2,15l-1,18.25l-1,16.25l1.75,43.5l51.75-22.25l3.25-45.25l1-18.25
				l0.75-13.25l-13.25-13.25l-25.5-0.5l-10.75,7.75L-3776.97,138.03z"/>
			<path id="path612" class="st6" d="M-3755.22,125.78l-1.75,10.75l-1,13.75l-0.75,16.5l-0.25,10.75l-0.75,12l11-3.25l-0.25-15.75
				l1-22l1.5-15l0.75-8.25l-5.25,0.75L-3755.22,125.78z"/>
			<path id="path614" class="st7" d="M-3750.72,126.28l-1.25,8.5l-1.25,11l-0.5,15.25l-0.5,11.5v8.75l-0.25,6.75"/>
		</g>
		<g id="g616">
			<g id="g618">
				<path id="path620" class="st8" d="M-3764.97,668.39c0,2.21-1.73,4-3.88,4s-3.88-1.79-3.88-4c0-2.21,1.73-4,3.88-4
					S-3764.97,666.18-3764.97,668.39z"/>
				<path id="path622" class="st8" d="M-3764.34,652.14c0,2.21-1.73,4-3.88,4s-3.88-1.79-3.88-4c0-2.21,1.73-4,3.88-4
					S-3764.34,649.93-3764.34,652.14z"/>
				<path id="path624" class="st8" d="M-3765.59,685.39c0,2.21-1.73,4-3.88,4s-3.88-1.79-3.88-4c0-2.21,1.73-4,3.88-4
					S-3765.59,683.18-3765.59,685.39z"/>
				<path id="path626" class="st8" d="M-3731.59,653.14c0,2.21-1.73,4-3.88,4s-3.88-1.79-3.88-4c0-2.21,1.73-4,3.88-4
					S-3731.59,650.93-3731.59,653.14z"/>
				<path id="path628" class="st8" d="M-3732.84,668.64c0,2.21-1.73,4-3.88,4s-3.88-1.79-3.88-4c0-2.21,1.73-4,3.88-4
					S-3732.84,666.43-3732.84,668.64z"/>
				<path id="path630" class="st8" d="M-3733.09,685.14c0,2.21-1.73,4-3.88,4s-3.88-1.79-3.88-4c0-2.21,1.73-4,3.88-4
					S-3733.09,682.93-3733.09,685.14z"/>
			</g>
			<path id="path632" class="st6" d="M-3800.72,744.39c4.83,0,9.67,0,14.5,0c2.06-0.88,4.2-1.59,6.1-2.79
				c1.61-0.92,3.27-1.8,4.79-2.85c0.81-0.75,1.47-1.72,2.56-2.09c0.85-0.42,1.7-0.85,2.55-1.28c-0.15-0.45,0.32-1.51-0.29-1.5
				c-1.59-0.12-3.15,0.25-4.71,0.5c-1.36-0.11-2.75-0.11-4.08-0.3c-1.28-0.82-2.67-1.49-3.87-2.41c-1.12-1.16-2.33-2.25-3.4-3.46
				c-0.62-1.07-1.35-2.09-1.91-3.18c-0.17-2.04-0.64-4.08-0.4-6.14c0.1-1.06,0.02-2.16,0.24-3.19c0.46-0.88,0.75-1.9,1.31-2.7
				c0.62-0.54,1.24-1.08,1.86-1.62c0-0.58,0-1.17,0-1.75c-0.86-0.22-1.73-0.6-2.59-0.72c-1.68,0.65-3.4,1.22-4.94,2.17
				c-1.31,0.82-2.78,1.26-4.22,1.79C-3798.39,723.39-3799.55,733.89-3800.72,744.39L-3800.72,744.39z"/>
		</g>
		<path id="path634" class="st0" d="M-3777.81,624.85c-2.16,3.37-2.81,7.5-1.77,11.38c0.87,4.15,3.18,8.17,2.33,12.53
			c-0.01,3.19,2.67,0.99,2.94-0.82c3.01-4.22,7.69-7.06,12.53-8.73c3.79-0.78,7.72-1.59,11.56-0.65c3.88,0.22,7.82-1.47,11.66-0.09
			c3.52,1.09,4.86,5.06,7.97,6.89c2.34,0.81,1.78,4.78,3.78,4.68c1.84-0.09,2.76-5.63,5.38-7.55c2.76-3.87,6.93-6.53,9.18-10.78
			c1.85-3.18,5.05-5.66,5.42-9.56c1.38-4.76,2.82-10.32-0.25-14.78c-2.27-4.06-7.21-4.74-11.29-5.87
			c-17.09-3.73-35.65-0.46-50.46,8.84c-2.86,1.82-6.06,3.84-6.86,7.4C-3776.48,620.09-3776.83,622.57-3777.81,624.85
			L-3777.81,624.85z"/>
		<g id="g636">
			<path id="path638" class="st8" d="M-3899.97,657.3c7.72-3.93,9.3-12.13,9.69-18.48c6.1,1.59,13.63,2.13,20.07,2
				c9.61-0.58,20.1-4.75,28.06-9.89c3.79,4.91,6.77,10.91,12.33,18.76c10.04,14.89,21.2,29.09,29.52,45.04
				c3.17,10.94,3.64,16.13,3.63,23.97c0.05,12.3-1.39,21.57-5.76,29.92c-2.45,2.67-3.31,3.15-8.32,3.02c-17.07,0-34.13,0-51.2,0
				c-7.12-4-14.4-7.76-20.03-13.84c-6.92-7.31-10.94-12.85-18.22-20.16C-3900.04,697.63-3900.13,677.29-3899.97,657.3
				L-3899.97,657.3z"/>
			<path id="path640" class="st9" d="M-3900.31,683.54c2.27-0.81,4.79-1.15,6.9-2.26c3.19-2.78,6.47-5.54,9.18-8.78
				c1.88-2.59,3.97-5.06,4.98-8.15c0.58-1.37,1.14-3.45,3.05-3.09c3.85,0.02,7.7,0.15,11.48-0.68c4.92-0.95,9.89-2.11,14.45-4.23
				c1.91-1.17,2.29-1.24,3.49,0.89c4.1,6.73,8.33,12.33,13.08,18.62c4.94,7.03,7.61,11.09,10.56,16.84
				c1.76,3.08,3.03,5.77,4.04,9.18c1.26,4.02,2.08,8.19,2.28,12.4c0.56,7.61-0.67,15.21-2.18,22.65c-3.67,1.14-7.58,0.92-11.37,1.21
				c-4.79-0.59-9.66-0.8-14.41-1.6c-5.29-1.61-10.73-3.15-15.31-6.35c-2.79-1.9-6.13-3-8.35-5.65c-3.37-3.5-6.65-7.11-9.75-10.85
				c-5.32-6.97-8.26-9.44-13.86-16.18c-1.5-1.87-5.53-6.19-8.16-8.87C-3900.25,686.94-3900.28,685.24-3900.31,683.54
				L-3900.31,683.54z"/>
			<g id="g642">
				<path id="path644" class="st10" d="M-3900.47,679.89l4.25-1.25l4.25-2.75l5-5.25l3.5-5l2-5.75l0.75-2l1.25-0.5l5.5,0.75
					l7.25-0.5l8.25-1.5l5-1.75l3.5-1.5c1.67-0.57,1.84-1.02,3.25-1.25l7,10.5c0,0,9.22,13.13,13.75,19.75
					c2.44,3.57,5.33,6.88,7.25,10.75c2.07,4.18,3.53,8.69,4.5,13.25c0.95,4.5,1.35,9.15,1.25,13.75c-0.05,2.52-0.61,5.01-1,7.5
					c-0.44,2.84-1.5,8.5-1.5,8.5l-1.5,4.5l-7,1l-8.25-0.25l-8-1l-8-1.25l-8.5-3l-8-4.25l-6.25-4l-4-4.5l-20.25-23.5l-5.25-6.5
					V679.89z"/>
				<path id="path646" class="st10" d="M-3900.47,661.39c2.8-1.03,6.28-1.54,7.71-4.5c2.72-3.53,5.03-7.51,5.54-12
					c1.89-1.05,4.13,0.43,6.2,0.32c4.68,0.68,9.51,0.77,14.08-0.54c5.33-1.03,10.75-1.97,15.59-4.56c2.46-1.09,7.87-3.96,7.87-3.96
					s0.46,0.62,4.71,6.72c10.25,15.19,19.49,28.1,29.59,43.38c2.76,4.47,5.55,9,6.8,14.16c2.42,8.7,1.81,17.81,2.15,26.74
					c-1.65,7.53-2.3,15.62-6.56,22.24c-0.9,1.93-2.38,2.72-4.48,2.26c-14.07,0-28.14,0-42.22,0c-6.16-2.99-12.71-5.41-18.23-9.46
					c-6.16-4.53-11.5-10.16-16.18-16.26c-4.14-4.72-8.14-9.61-12.85-13.78C-3900.65,695.22-3900.56,678.3-3900.47,661.39
					L-3900.47,661.39z"/>
			</g>
			<g id="g648">
				<path id="path650" class="st8" d="M-3879.47,652.14c0,1.79-1.46,3.25-3.25,3.25s-3.25-1.46-3.25-3.25s1.46-3.25,3.25-3.25
					S-3879.47,650.34-3879.47,652.14z"/>
				<path id="path652" class="st8" d="M-3860.97,649.89c0,1.79-1.46,3.25-3.25,3.25s-3.25-1.46-3.25-3.25s1.46-3.25,3.25-3.25
					S-3860.97,648.09-3860.97,649.89z"/>
				<path id="path654" class="st8" d="M-3842.97,644.89c0,1.79-1.46,3.25-3.25,3.25s-3.25-1.46-3.25-3.25s1.46-3.25,3.25-3.25
					S-3842.97,643.09-3842.97,644.89z"/>
				<path id="path656" class="st8" d="M-3831.72,658.14c0,1.79-1.46,3.25-3.25,3.25s-3.25-1.46-3.25-3.25s1.46-3.25,3.25-3.25
					S-3831.72,656.34-3831.72,658.14z"/>
				<path id="path658" class="st8" d="M-3818.97,676.89c0,1.79-1.46,3.25-3.25,3.25s-3.25-1.46-3.25-3.25s1.46-3.25,3.25-3.25
					S-3818.97,675.09-3818.97,676.89z"/>
				<path id="path660" class="st8" d="M-3807.47,696.39c0,1.79-1.46,3.25-3.25,3.25s-3.25-1.46-3.25-3.25s1.46-3.25,3.25-3.25
					S-3807.47,694.59-3807.47,696.39z"/>
				<path id="path662" class="st8" d="M-3803.47,718.89c0,1.79-1.46,3.25-3.25,3.25s-3.25-1.46-3.25-3.25s1.46-3.25,3.25-3.25
					S-3803.47,717.09-3803.47,718.89z"/>
				<path id="path664" class="st8" d="M-3809.97,745.14c0,1.79-1.46,3.25-3.25,3.25s-3.25-1.46-3.25-3.25s1.46-3.25,3.25-3.25
					S-3809.97,743.34-3809.97,745.14z"/>
				<path id="path666" class="st8" d="M-3830.72,746.64c0,1.79-1.46,3.25-3.25,3.25s-3.25-1.46-3.25-3.25s1.46-3.25,3.25-3.25
					S-3830.72,744.84-3830.72,746.64z"/>
				<path id="path668" class="st8" d="M-3850.47,744.39c0,1.79-1.46,3.25-3.25,3.25s-3.25-1.46-3.25-3.25s1.46-3.25,3.25-3.25
					S-3850.47,742.59-3850.47,744.39z"/>
				<path id="path670" class="st8" d="M-3868.97,733.64c0,1.79-1.46,3.25-3.25,3.25s-3.25-1.46-3.25-3.25s1.46-3.25,3.25-3.25
					S-3868.97,731.84-3868.97,733.64z"/>
				<path id="path672" class="st8" d="M-3884.72,717.14c0,1.79-1.46,3.25-3.25,3.25s-3.25-1.46-3.25-3.25s1.46-3.25,3.25-3.25
					S-3884.72,715.34-3884.72,717.14z"/>
				<path id="path674" class="st8" d="M-3893.97,669.39c0,1.79-1.46,3.25-3.25,3.25s-3.25-1.46-3.25-3.25s1.46-3.25,3.25-3.25
					S-3893.97,667.59-3893.97,669.39z"/>
			</g>
		</g>
		<path id="path676" class="st11" d="M-3782.64,708.45c3.9-2.99,5.88-5.23,11.43-8.59c2.87-1.73,3.64-3.54,7.49-4.48
			c3.85-0.94,10.56-1.08,14.28-1.64c4.42-0.67,5.51-0.27,10.08,0.11c1.66-0.02,8.25-1.11,6.79,0.31
			c-3.23,4.82-9.16,11.61-14.01,17.2c-4.35,5.02-7.98,10.97-13.51,14.65c-2.13,1.42-4.98,1.39-7.22,2.63
			c-1.34,0.74-2.26,2.13-3.62,2.82c-2.87,1.47-6.14,3.33-9.29,2.68c-2.96-0.61-5.48-3.14-7-5.75c-1.74-3-1.93-6.79-1.76-10.25
			c0.1-2.19,0.47-4.55,1.72-6.35C-3786.18,710.22-3784.15,709.6-3782.64,708.45L-3782.64,708.45z"/>
		<g id="g678">
			<g id="g680" transform="translate(0,512.36)">
				<path id="path682" class="st10" d="M-3738.99,189.99c0,0-5.91-1.06-8.89-1.01c-2.71,0.05-8.04,1.19-8.04,1.19"/>
				<path id="path684" class="st10" d="M-3746.93,198.82c0,0-4.17-0.73-6.27-0.7c-1.64,0.02-4.88,0.66-4.88,0.66"/>
				<path id="path686" class="st10" d="M-3752.97,206.07c0,0-3.58-0.32-5.36-0.15c-0.79,0.07-2.32,0.5-2.32,0.5"/>
			</g>
			<path id="path688" class="st10" d="M-3766.32,718.72c0.07-0.86,1.04-1.22,1.24-1.95"/>
			<path id="path690" class="st10" d="M-3766.49,711.65c0.3-0.56,1.01-0.82,1.41-1.24"/>
			<path id="path692" class="st10" d="M-3765.79,704.05c0.05-0.81,0.9-1.23,1.59-1.41"/>
		</g>
		<path id="path694" class="st5" d="M-3786.12,744.53l7.6-3.89l6.19-3.89l5.83-5.13l5.83-5.3l10.43-10.61l9.02-11.49l8.49-10.96
			l9.02-12.73l12.73-19.8l12.02-18.56l6.36-12.02l4.6-7.96l10.78,6.54l8.13,5.3l6.01,5.3l2.3,1.06l-4.42,9.19l-11.31,20.68
			l-12.37,19.45l-17.15,22.63l-10.43,12.2l-10.61,10.43l-10.96,9.55L-3786.12,744.53z"/>
		<g id="g696">
			<path id="path698" class="st7" d="M-3776.57,744.52c13.81-7.17,23.31-19.88,33.17-31.52c19.89-23.47,36.25-49.83,51.72-76.43
				c2.31-4.13,4.55-8.29,6.72-12.49"/>
			<path id="path700" class="st7" d="M-3664.04,638.5c-13.45,32.8-34.46,60.63-57.58,86.38c-6.08,6.77-14.52,14.44-22.4,19.64"/>
		</g>
		<path id="path702" class="st4" d="M-3777.79,546.8c-3.86,1.3-8.23-1.15-10.56-4.26c-3.27-3.81-1.47-9.22,0.16-13.34
			c2.77-4.8,7.68-7.84,12.02-11.09c10.58-5.42,22.84-5.64,34.47-5.79c8.85,0.13,18.03,0.51,26.29,3.97
			c7.78,3.95,15.58,10.77,20.63,18.32c5.71,7.55,10.55,15.93,11.24,25.66c0.2,4.28-3.61,7.32-6.95,9.28
			c-4.07,1.24-9.28,1.15-12.31-2.28c-5.12-4.52-7.53-11.12-11.78-16.3c-4.23-4.64-10.41-6.68-16.05-9
			c-10.03-2.85-20.57-3.49-30.95-3.61c-5.31,0.48-11.39,0.37-15.49,4.33C-3778.16,543.94-3776.91,545.64-3777.79,546.8
			L-3777.79,546.8z"/>
		<g id="g704">
			<path id="path706" class="st12" d="M-3777.22,551.64c-2.94,2.4-4.21,7.41-7.22,10.39c-2.05,4.64,1.34,10.27-1.51,14.61
				c-1.82,3.63-0.86,8.1-4.77,10.74c-1.2,5.13-0.26,9.71-3.03,14.56c-2.33,1.82,0.87,7.15-4.39,4.77
				c-7.08,0.56-2.72,11.27-8.27,13.45c-3.12,3.64-0.83,8.47,2.51,10.33c3.02,2.34,7.18-3.05,11.18-2.35
				c4.67-0.9,9.3-1.77,13.37-4.29c3.62-2.64,7.4-2.5,9.72-5.39c2.7-3.36,3.11-7.28,3.68-12.4c2.5-13.36,4.76-27.35,1.42-40.76
				C-3766.13,559.01-3770.52,552.97-3777.22,551.64L-3777.22,551.64z"/>
			<g id="g708">
				<path id="path710" class="st10" d="M-3791.71,595.73c0.7,2.18-0.26,10-1.04,12.55c-0.67,2.21-0.13,6.33-2.47,6.64
					c-1.85,0.25-5.85-1.85-4.14-4.04c1.19-1.53,3.57,0.02,3.57,0.02"/>
				<path id="path712" class="st10" d="M-3777.82,565.31c-2.73,7.51-3.5,15.49-5.23,23.24c-0.63,2.8-1.5,5.57-1.87,8.42
					c-0.71,5.39,0.95,11.11-0.67,16.29c-0.74,2.36-2.6,4.22-3.99,6.27c-1.57,2.31-2.48,5.46-4.94,6.78
					c-2.14,1.14-5.77,2.2-7.25,0.29c-1.37-1.75-0.34-6.22,1.88-6.4c1.35-0.11,4.44,2.29,1.76,3.67"/>
				<path id="path714" class="st10" d="M-3804.57,618.74c2.02-1.84,5.44-2.09,7.96-0.69c1.93,1.26,4.34-0.05,5.17-1.96
					c1.27-1.87,2.01-4.67,2.13-7c0.66-2.5,0.89-5.08,0.9-8.92c1.11-3.53,0.33-4.35,1.56-8.15c0.53-5.01,1.8-8.32,3.15-11.54
					c1.79-3.92,1.59-8.28,1.87-12.47c0.48-3.69,1.59-7.61,4.32-10.28"/>
			</g>
		</g>
		<g id="g716">
			<path id="path718" class="st7" d="M-3777.82,581.39c-1.87,4.11-2.56,8.61-3.28,13.04c-0.75,4.63-0.33,9.4-1.04,14.04
				c-0.7,4.58-1.27,9.31-3.15,13.54c-0.96,2.15-2.5,4.03-4.06,5.8"/>
			<path id="path720" class="st7" d="M-3777.82,594.44c-0.46,6.35-0.63,12.76-1.76,19.02c-0.6,3.34-1.09,6.82-2.67,9.83
				c-0.61,1.16-1.59,2.11-2.55,3.01"/>
			<g id="g722">
				<path id="path724" class="st10" d="M-3778.73,623.56c1.11-3.95,2.74-5.07,2.85-10.57c0.04-2.4,2.31-4.56,1.32-7.08"/>
				<path id="path726" class="st10" d="M-3770.84,611.73c-1.74,2.27-1.33,2.97-1.95,4.47c-0.68,1.65-0.72,3.34-1.92,4.99"/>
			</g>
		</g>
		<path id="path728" class="st13" d="M-3776.72,547.14c-1.23,2.11-0.83,4.82-1,7.25c-0.14,1.99-0.1,4,0,6
			c0.08,1.59,0.37,3.16,0.5,4.75c0.12,1.41,0.26,2.83,0.25,4.25c0,2.51-0.21,5.01-0.5,7.5c-0.18,1.51-0.63,2.98-0.75,4.5
			c-0.21,2.58-0.1,5.17,0,7.75c0.08,2.09,0.05,4.21,0.5,6.25c0.36,1.65,1.24,3.14,1.75,4.75c0.49,1.56,0.62,3.24,1.25,4.75
			c0.63,1.52,1.64,2.85,2.5,4.25c0.97,1.6,1.91,3.22,3,4.75c0.93,1.3,2.25,2.34,3,3.75c0.66,1.23,0.81,2.67,1.25,4
			c0.39,1.17,0.72,2.38,1.25,3.5c0.62,1.32,1.46,2.52,2.25,3.75c1.2,1.87,2.24,3.87,3.75,5.5c1.09,1.17,2.33,2.27,3.75,3
			c1.08,0.56,2.29,0.9,3.5,1c1.59,0.14,3.2-0.15,4.75-0.5c1.98-0.44,4.05-0.89,5.75-2c2.37-1.55,3.79-4.21,5.75-6.25
			c1.79-1.87,3.71-3.62,5.5-5.5c1.63-1.71,3.24-3.44,4.75-5.25c1.14-1.37,2.21-2.8,3.25-4.25c1.4-1.96,2.99-3.82,4-6
			c1.64-3.54,2.76-7.38,3.25-11.25c0.34-2.73,0-5.51-0.25-8.25c-0.4-4.28-1.09-8.54-2-12.75c-0.66-3.04-1.61-6.02-2.5-9
			c-0.95-3.18-1.91-6.36-3-9.5c-1.31-3.79-1.49-8.34-4.25-11.25c-2-2.11-5.21-2.66-8-3.5c-4.21-1.27-8.61-2.06-13-2.25
			c-2.93-0.13-5.83,0.59-8.75,0.75c-3.33,0.18-6.7-0.24-10,0.25c-2.48,0.37-5,0.89-7.25,2
			C-3774.07,544.68-3775.82,545.6-3776.72,547.14z"/>
		<path id="path730" class="st14" d="M-3768.1,602.52c0.33-1,1.47-1.28,2.22-1.88c0.56-0.42,0.9-1.19,1.69-1.23
			c0.88-0.11,1.95,0.02,2.47,0.83c0.53,0.49,1.58,0.42,1.59-0.35c0.45-0.37,1.59-0.33,2.09-0.3c1.42,0.3,2.07,0.92,3.33,1.63
			c0.52,0.26,1.31,0.47,1.35,1.17c-0.21,0.78-1.36,0.55-1.74,1.25c-0.82,0.98-1.31,1.14-2.2,2.07c-0.67,0.86-1.46,1.79-2.61,1.94
			c-1.37,0.22-2.75-0.1-4.08-0.42c-0.87-0.24-1.77-0.73-2.06-1.65c-0.23-0.79-0.75-0.37-1.19-1.05c-0.34-0.58-0.62-1.2-0.88-1.81
			l-0.01-0.09L-3768.1,602.52L-3768.1,602.52z"/>
		<path id="path732" class="st6" d="M-3776.36,547.69c2-0.13,2.8-1.1,5.52-1.9c3.25-1.41,6.68-1.69,10.17-1.49
			c6.38,0.03,12.82-0.38,19.15,0.55c6.57,1.42,13.24,2.93,19.28,5.98c2.04,1.2,3.99,2.57,6,3.81c2.33,0.37,3.2-3.56,1.5-4.87
			c-2.31-2.43-5.65-3.38-8.47-5.04c-9.06-4.29-19.1-6.14-29.06-6.66c-7.06-0.09-14.37-0.38-21.11,2.08
			c-2.3,0.79-4.48,2.79-5.12,5.39C-3779.16,548.13-3778.37,547.82-3776.36,547.69L-3776.36,547.69z"/>
		<g id="g734">
			<path id="path736" class="st10" d="M-3777.72,559.64c2.95,0.21,5.92,0.29,8.88,0.26c1.26,0.95,3.25,1.64,3.29,3.5
				c0.19,2.05,0.84,4.08,0.67,6.15c-0.33,1.93-1.08,3.75-1.48,5.66c-0.84,3.35-1.73,6.71-2.36,10.1c-0.72,2.68,0.21,3.88,1.98,4.68
				c0.85,1.04,1.28,2.76,2.81,2.99c2.08-0.03,2.23-2.71,3.88-3.41c1.42-0.41,2.89,0.33,3.79,1.41c1.62,0.3,2.21-1.71,1.99-2.97
				c-0.19-1.24-1.03-2.39-2.21-2.86"/>
			<path id="path738" class="st15" d="M-3732.47,564.14c-1.4-0.8-2.87-1.52-4.11-2.56c-0.73-0.73-1.35-1.69-2.45-1.88
				c-1.64-0.37-3.31,0.05-4.97-0.09c-2.18-0.05-4.36,0.01-6.53,0.07c-1.06,0.11-2.12,0.37-3.07,0.85c-1.02,0.5-0.81,1.69-0.62,2.59"
				/>
			<path id="path740" class="st10" d="M-3776.72,565.89c0,0,2.79-1,4.25-1c1.45,0,2.86,0.55,4.25,1c1.02,0.33,2.97,1.23,2.97,1.23"
				/>
		</g>
		<path id="path742" class="st0" d="M-3776.6,569.52c0,0,3.49-1.64,5.38-1.88c0.91-0.11,1.89-0.06,2.75,0.25
			c1.24,0.45,3.25,2.25,3.25,2.25l-1.25,3.25c0,0-2.16,0.55-3.25,0.75c-1.24,0.22-2.49,0.55-3.75,0.5c-1.19-0.05-3.5-0.75-3.5-0.75
			L-3776.6,569.52z"/>
		<g id="g744">
			<path id="path746" class="st10" d="M-3751.47,567.39c0,0,1.92-1.21,3-1.5c1.45-0.39,3-0.21,4.5-0.25c0.83-0.02,1.68-0.16,2.5,0
				c1.32,0.26,2.56,0.87,3.75,1.5c1.06,0.56,2,1.33,3,2c0.25,0.17,0.75,0.5,0.75,0.5"/>
			<path id="path748" class="st16" d="M-3751.47,572.39c0.62-0.88,1.11-1.9,2-2.5c0.72-0.49,1.64-0.62,2.5-0.75
				c1.81-0.27,3.67-0.16,5.5,0c1.43,0.13,2.81,0.7,4.25,0.75c0.75,0.02,1.92-0.93,2.25-0.25c0.61,1.28-1.91,2.1-3,3
				c-0.93,0.76-1.86,1.62-3,2c-1.35,0.45-2.83,0.36-4.25,0.25c-1.19-0.09-2.4-0.3-3.5-0.75
				C-3749.73,573.72-3750.85,573.37-3751.47,572.39z"/>
			<g id="g750">
				<path id="path752" class="st17" d="M-3742.35,572.01c0,1.52-1.17,2.74-2.62,2.74s-2.62-1.23-2.62-2.74s1.17-2.74,2.62-2.74
					S-3742.35,570.5-3742.35,572.01z"/>
				<path id="path754" class="st3" d="M-3769.72,571.01c0,1.45-1.12,2.63-2.5,2.63c-1.38,0-2.5-1.18-2.5-2.63
					c0-1.45,1.12-2.63,2.5-2.63C-3770.84,568.39-3769.72,569.56-3769.72,571.01z"/>
			</g>
			<path id="path756" class="st18" d="M-3743.97,572.01c0,0.48-0.28,0.88-0.63,0.88s-0.63-0.39-0.63-0.88
				c0-0.48,0.28-0.88,0.63-0.88S-3743.97,571.53-3743.97,572.01z"/>
			<path id="path758" class="st18" d="M-3771.72,571.26c0,0.35-0.22,0.63-0.5,0.63s-0.5-0.28-0.5-0.63c0-0.35,0.22-0.63,0.5-0.63
				S-3771.72,570.92-3771.72,571.26z"/>
		</g>
		<path id="path760" class="st14" d="M-3768.1,602.77c0.94-0.07,1.9-0.08,2.82-0.29c0.77-0.21,1.04,0.72,1.71,0.83
			c1,0.26,2.07,0.42,3.09,0.2c0.66-0.21,1.17-0.7,1.79-0.98c0.63-0.43,1.42-0.52,2.16-0.36c0.83,0.05,1.59,0.44,2.42,0.46
			c0.17-0.01,0.34-0.07,0.5-0.13"/>
		<path id="path762" class="st19" d="M-3763.22,595.89c-1.04,0.85-0.75,2.44-1.64,3.43c-0.76,1.59-2.08,2.99-3.89,3.27
			c-1.81,0.42-3.89,0.25-5.32-1.06c-1.23-1.3-3.49-1.15-4.44-2.68c0.35-1.74,2.72-0.09,3.79,0.26c1.6,0.94,3.01-1.05,3.58-2.35
			c0.4-1.9,2.29-1.82,3.78-1.99c1.21-0.6,2.38-1.36,3.78-1.37c1.94-0.23,3.9-0.01,5.75,0.62c1.77,0.55,4.04-0.63,5.43,1
			c1.09,1.37,2.08,2.85,3.37,4.04c1.83,1.15,4.18,0.67,6.15,0.14c1.15-0.63,2.33-1.3,3.7-1.14c1.52-0.15,3.62,1.37,2.86,2.97
			c-1.7,1.25-1.86-2.01-3.51-1.08c-1.89,0.65-3.71,1.51-5.39,2.6c-1.95,0.71-4.07,0.46-6.09,0.77c-1.41,0.22-2.48-0.84-3.26-1.86
			c-1.16-1.22-2.92-1.55-4.21-2.61c-1.32-0.65-2.18-1.88-2.64-3.09C-3762,595.49-3762.7,595.56-3763.22,595.89L-3763.22,595.89z"/>
		<g id="g764">
			<path id="path766" class="st10" d="M-3767.2,616.54c1.15,1.3,2.02,2.92,3.44,3.92c1.82,1.28,4.06,1.86,6.2,2.47
				c0.74,0.21,1.5,0.39,2.27,0.41c2.38,0.07,4.8-0.16,7.08-0.83c1.93-0.57,3.64-1.72,5.41-2.67c1.9-1.02,3.87-1.95,5.6-3.24
				c2.53-1.89,4.65-4.27,6.86-6.52c0.7-0.71,1.39-1.43,2.02-2.2"/>
			<g id="g768">
				<path id="path770" class="st20" d="M-3634.44,512.07l-0.71,6.72l-2.48,12.37l-1.77,6.36l-1.41,5.3l-2.12,4.24v2.12l6.01,0.35
					l-0.35,13.79l-2.12,1.41v2.12v0.71l-1.77,1.06l-0.35,1.41l2.83,0.71v19.8l0.25,44.63l9.94,5.85l-0.5-49.94l1.02-20.57l1.66-1.19
					l0.71-1.06l-0.35-3.89l-2.12-1.06l-0.35-1.06l-0.35-12.73l6.09,0.62l0.27-1.33l-2.83-8.48l-2.48-10.61l-1.41-8.49l-1.06-4.95
					l-0.35-4.24L-3634.44,512.07z"/>
				<path id="path772" class="st20" d="M-3658.48,525.15c-3.38,4.49-7.22,8.66-10.26,13.39c-2.63,4.1-5.05,8.38-6.85,12.9
					c-1.64,4.11-2.8,8.43-3.53,12.79c-0.82,4.92-1.12,9.94-0.93,14.92c0.18,4.44,0.82,8.88,1.88,13.19
					c0.97,3.94,2.35,7.8,4.07,11.48c2.31,4.95,5.11,9.7,8.32,14.12c1.83,2.52,3.65,5.17,6.18,6.99c0.97,0.7,2.41,3.5,3.3,1.39
					c3.05-4.03,6.09-8.05,9.14-12.08c-1.38-1.87-3.38-3.4-4.28-5.55c-0.87-2.08-1.22-4.47-0.93-6.7c0.33-2.51,1.28-5.08,2.93-6.99
					c1.73-2,4.26-3.35,6.8-4.1c2.87-0.86,6-0.16,8.98-0.34c2.56,0.1,5.25-0.45,7.56,0.93c1.63,0.22,1.98,2.14,2.27,3.46
					c0.6,1.3-1.13,3.73-0.21,4.05c1.79-0.17,4.05,0.68,5.41-0.71c1.76-0.54,1.39-2.91,1.58-4.44c0.14-2.66,2.09-4.7,3.32-6.95
					c1.12-1.9,2.57-3.55,4.04-5.17c-1.63-1.31-3.58-2.35-4.25-4.46c-1.4-1.95-1.76-4.25-2.06-6.57c-0.23-1.82,0.47-3.84-0.92-5.34
					c-0.31-1.35-3.19-1.97-3.01-0.1c-0.54,2.4-0.74,3.61-2.48,5.33c-2.05-0.02-4.61-0.23-6.71,0.23c-4.72,0.04-9.56,0.68-14.15-0.4
					c-2.23-0.52-4.43-1.47-6.25-2.87c-1.6-1.23-2.96-2.85-3.84-4.67c-0.75-1.56-1.15-3.34-1.07-5.07c0.08-1.92,0.72-3.84,1.66-5.51
					c1.29-2.3,2.9-4.58,5.26-5.92C-3651.17,539.29-3654.82,532.22-3658.48,525.15L-3658.48,525.15z"/>
			</g>
		</g>
		<path id="path774" class="st14" d="M-3661.72,577.83c0,0,0.45-2.79,1.33-3.67c0.88-0.88,2.42-1.33,3.67-1.33
			c1.24,0,2.79,0.46,3.67,1.33c0.88,0.88,1.33,2.42,1.33,3.67c0,1.24-0.67,3-1.33,3.67c-0.67,0.67-1.33,1-2,1.67s-1,0.67-1.67,1.33
			c-0.67,0.67-1,1-1.67,1.67s-1.67,2-2.33,3.33c-0.67,1.33-1,3.33-1,3.33s-0.33-2-1-3.33s-1.67-2.67-2.33-3.33
			c-0.67-0.67-1-1-1.67-1.67s-1-0.67-1.67-1.33c-0.67-0.67-1.33-1-2-1.67s-1.33-2.42-1.33-3.67c0-1.24,0.45-2.79,1.33-3.67
			c0.88-0.88,2.42-1.33,3.67-1.33c1.24,0,2.79,0.46,3.67,1.33C-3662.17,575.04-3661.72,577.83-3661.72,577.83z"/>
		<g id="g776">
			<path id="path778" class="st10" d="M-3636.92,549.54c0.63-3.87,1.43-7.72,2.04-11.59c0.85-4.64,0.66-7.6,1.37-14.05
				c0.25-4.06,0.29-9.99,0.84-12.18c0.95,2.03,1.25,8.47,1.16,12.33c0.89,6.84,0.81,10.39,1.31,13.92
				c0.21,3.49,1.26,8.72,1.32,11.32"/>
			<g id="g780" transform="translate(0,512.36)">
				<path id="path782" class="st7" d="M-3637.27,50.62c2.71,0.12,9-0.65,8.63-0.02"/>
				<path id="path784" class="st7" d="M-3639.75,55.57l13.66-0.04"/>
			</g>
		</g>
		<g id="g786">
			<path id="path788" class="st8" d="M-3614.72,687.14c0.64-0.78,1.13-2.85,2.05-1.2c0.85,0.74,0.44,2.18,0.25,3.18
				c-0.4,1.43-0.65,3.19,0.41,4.39c0.82,1.32,1.82,2.73,2.01,4.27c-0.51,3.14,0.42,6.26,0.78,9.38c0.2,1.29,0.83,2.34,1.75,3.25
				c-0.08,1.19-0.21,2.36-1.19,3.17c-3.35,2.62-6.68,5.33-10.5,7.26c-3.27,1.67-6.59,3.71-10.38,3.71c-3.09,0.01-6.02,1.51-9.13,1
				c-1.5-0.08-3.06,0.07-4.32-0.89c-2.11-1.06-4.34-1.95-5.97-3.72c-1.77-1.35-3.16-3.11-4.27-5.03c2.74-5.15,5.88-10.07,9-15
				c0.68-1.66,1.49-3.27,2-5c1.37-0.45,1.97,0.72,3.03,1.18c1.72,0.57,3.42,1.34,5.28,1.07c2.63-0.13,5.35,0.41,7.84-0.65
				c2.69-0.61,5.11-1.94,7.59-3.1c1.25-1.97,2.74-3.88,3.75-5.94C-3614.72,688.01-3614.72,687.57-3614.72,687.14L-3614.72,687.14z"
				/>
			<g id="g790">
				<path id="path792" class="st10" d="M-3664.47,733.89c0.86-1.86,1.68-3.75,2.57-5.6c1.51-2.16,2.98-4.35,4.51-6.49
					c1.56-1.72,3.11-3.44,4.67-5.16c-1.34,2.21-2.73,4.39-4.05,6.61c-0.98,2.4-2,4.79-2.97,7.2c-0.32,1.69-0.71,3.37-0.99,5.06
					c0,2.38,0,4.75,0,7.13"/>
				<path id="path794" class="st10" d="M-3615.72,735.39c-1.34,2.19-2.7,4.36-4.03,6.56c-0.85,1.8-1.66,3.62-2.57,5.4
					c-0.05,0.1-0.1,0.2-0.15,0.3"/>
			</g>
			<path id="path796" class="st3" d="M-3874.72,744.39l-0.5,7h13L-3874.72,744.39z"/>
			<path id="path798" class="st8" d="M-3805.97,751.39l131-0.25c0,0,0.06-1.83,0-2.75c-0.08-1.26-0.31-2.5-0.5-3.75
				c-0.15-1-0.28-2.01-0.5-3c-0.2-0.93-0.27-1.93-0.75-2.75c-0.24-0.41-0.59-0.76-1-1c-0.52-0.31-1.75-0.5-1.75-0.5
				s-3.95,3.09-6.25,4c-3.39,1.34-7.12,1.63-10.75,2c-3.98,0.41-8,0.18-12,0.25c-6.42,0.11-12.83,0.15-19.25,0.25
				c-4.67,0.07-9.33,0.16-14,0.25c-7.67,0.15-15.33,0.48-23,0.5c-5.17,0.01-10.33-0.17-15.5-0.25c-5.08-0.08-10.17-0.08-15.25-0.25
				c-1.67-0.05-5-0.25-5-0.25s-1.18,3.36-2.25,4.75C-3803.58,749.76-3805.97,751.39-3805.97,751.39z"/>
		</g>
		<g id="g800">
			<path id="path802" class="st7" d="M-3801.14,746.65c28.2,0.32,56.41,0.37,84.6-0.19c7.76-0.15,15.95,0.21,23.28-0.87
				c6.06-0.89,9.45-1.63,16.57-5.66"/>
			<path id="path804" class="st10" d="M-3801.14,746.47l2.3,4.77l2.83-4.42l3.18,4.6l3.01-4.42l2.65,4.07l2.83-3.89l2.65,3.71
				l3.36-3.89l2.83,4.42l3.18-4.42l2.65,4.24l3.01-4.07l3.01,4.24l3.01-4.07l2.83,3.89l3.18-4.42l2.48,3.89l3.18-3.71l2.65,4.07
				l3.18-3.89l2.3,3.89l3.18-4.07l2.83,4.42l3.01-4.42l2.83,3.89l3.36-3.89l2.65,4.07l2.83-4.24l2.65,3.89l3.01-4.07l3.18,4.42
				l2.83-4.42l2.83,4.24l3.18-4.77l3.18,4.95l2.48-5.13l3.01,5.13l2.83-5.83l2.65,5.3l2.47-6.36l3.18,6.36l1.77-8.48l5.3,8.48"/>
		</g>
		<g id="g806">
			<path id="path808" class="st8" d="M-3738.56,743.94l32.09,0.2c0,0,6.66-7.51,10-11.25c4.32-4.84,8.97-9.41,13-14.5
				c5.61-7.09,10.69-14.6,15.5-22.25c3.88-6.16,7.07-12.72,10.75-19c2.52-4.29,5.34-8.4,7.75-12.75c1.71-3.1,5.3-6,4.75-9.5
				c-1.09-6.93-14.75-15-14.75-15h-1.5c0,0-9.57,20.33-15.25,30c-5.29,9.01-11.35,17.55-17.5,26c-5.55,7.63-11.38,15.07-17.5,22.25
				c-3.83,4.49-7.91,8.75-12,13c-2.21,2.29-4.31,4.7-6.75,6.75C-3732.65,740.14-3738.56,743.93-3738.56,743.94L-3738.56,743.94z"/>
			<g id="g810">
				<path id="path812" class="st10" d="M-3662.22,642.64c0,0,4.26,2.17,6.25,3.5c1.68,1.12,3.27,2.38,4.75,3.75
					c1.26,1.16,2.36,2.48,3.5,3.75c1.02,1.15,3,3.5,3,3.5"/>
				<path id="path814" class="st10" d="M-3663.47,645.39c0,0,4.26,2.17,6.25,3.5c1.68,1.12,3.27,2.38,4.75,3.75
					c1.26,1.16,2.36,2.48,3.5,3.75c1.02,1.15,3,3.5,3,3.5"/>
				<path id="path816" class="st10" d="M-3664.72,648.14c0,0,4.02,1.98,5.89,3.2c1.58,1.03,3.08,2.18,4.48,3.43
					c1.19,1.06,2.22,2.26,3.3,3.43c0.97,1.05,2.83,3.2,2.83,3.2"/>
				<path id="path818" class="st10" d="M-3666.47,651.27c0,0,3.96,1.95,5.8,3.14c1.56,1.01,3.03,2.14,4.41,3.36
					c1.17,1.04,2.19,2.22,3.25,3.36c0.95,1.03,2.79,3.14,2.79,3.14"/>
				<path id="path820" class="st10" d="M-3667.97,654.27c0,0,4.02,1.98,5.89,3.2c1.58,1.03,3.08,2.18,4.48,3.43
					c1.19,1.06,2.22,2.26,3.3,3.43c0.97,1.05,2.83,3.2,2.83,3.2"/>
				<path id="path822" class="st10" d="M-3669.35,657.45c0,0,3.96,1.87,5.8,3.02c1.56,0.97,3.03,2.05,4.41,3.23
					c1.17,1,2.19,2.13,3.25,3.23c0.95,0.99,2.79,3.02,2.79,3.02"/>
				<path id="path824" class="st10" d="M-3670.6,660.2c0,0,3.78,1.84,5.54,2.96c1.48,0.95,2.89,2.01,4.21,3.17
					c1.11,0.98,2.09,2.09,3.1,3.17c0.91,0.97,2.66,2.96,2.66,2.96"/>
				<path id="path826" class="st10" d="M-3671.85,662.95c0,0,3.72,1.87,5.45,3.02c1.46,0.97,2.85,2.05,4.14,3.23
					c1.1,1,2.06,2.13,3.05,3.23c0.89,0.99,2.61,3.02,2.61,3.02"/>
				<path id="path828" class="st10" d="M-3673.85,665.83c0,0,3.84,1.84,5.63,2.96c1.51,0.95,2.94,2.01,4.28,3.17
					c1.13,0.98,2.12,2.09,3.15,3.17c0.92,0.97,2.7,2.96,2.7,2.96"/>
				<path id="path830" class="st10" d="M-3674.85,668.83c0,0,3.66,1.87,5.36,3.02c1.44,0.97,2.8,2.05,4.07,3.23
					c1.08,1,2.02,2.13,3,3.23c0.88,0.99,2.57,3.02,2.57,3.02"/>
				<path id="path832" class="st10" d="M-3676.66,671.3c0,0,3.72,2.02,5.45,3.26c1.46,1.04,2.85,2.22,4.14,3.49
					c1.1,1.08,2.06,2.3,3.05,3.49c0.89,1.07,2.61,3.26,2.61,3.26"/>
				<path id="path834" class="st10" d="M-3678.66,673.8c0,0,3.9,2.06,5.71,3.32c1.53,1.06,2.99,2.26,4.34,3.56
					c1.15,1.1,2.16,2.35,3.2,3.56c0.94,1.09,2.74,3.32,2.74,3.32"/>
				<path id="path836" class="st10" d="M-3679.91,677.05c0,0,3.78,1.91,5.54,3.08c1.49,0.99,2.89,2.1,4.21,3.3
					c1.11,1.02,2.09,2.18,3.1,3.3c0.91,1.01,2.66,3.08,2.66,3.08"/>
				<path id="path838" class="st10" d="M-3681.41,679.67c0,0,3.66,1.91,5.36,3.08c1.44,0.99,2.8,2.1,4.07,3.3
					c1.08,1.02,2.02,2.18,3,3.3c0.88,1.01,2.57,3.08,2.57,3.08"/>
				<path id="path840" class="st10" d="M-3683.66,682.17c0,0,3.78,1.95,5.54,3.14c1.49,1.01,2.89,2.14,4.21,3.36
					c1.11,1.04,2.09,2.22,3.1,3.36c0.91,1.03,2.66,3.14,2.66,3.14"/>
				<path id="path842" class="st10" d="M-3686.03,685.11c0,0,3.96,1.87,5.8,3.02c1.56,0.97,3.03,2.05,4.41,3.23
					c1.17,1,2.19,2.13,3.25,3.23c0.95,0.99,2.79,3.02,2.79,3.02"/>
				<path id="path844" class="st10" d="M-3687.28,687.86c0,0,3.78,1.91,5.54,3.08c1.49,0.99,2.89,2.1,4.21,3.3
					c1.11,1.02,2.09,2.18,3.1,3.3c0.91,1.01,2.66,3.08,2.66,3.08"/>
				<path id="path846" class="st10" d="M-3688.78,690.36c0,0,3.78,1.91,5.54,3.08c1.49,0.99,2.89,2.1,4.21,3.3
					c1.11,1.02,2.09,2.18,3.1,3.3c0.91,1.01,2.66,3.08,2.66,3.08"/>
				<path id="path848" class="st10" d="M-3691.53,692.99c0,0,4.08,1.91,5.98,3.08c1.6,0.99,3.13,2.1,4.55,3.3
					c1.2,1.02,2.26,2.18,3.35,3.3c0.98,1.01,2.87,3.08,2.87,3.08"/>
				<path id="path850" class="st10" d="M-3692.78,695.99c0,0,3.96,1.95,5.8,3.14c1.56,1.01,3.03,2.14,4.41,3.36
					c1.17,1.04,2.19,2.22,3.25,3.36c0.95,1.03,2.79,3.14,2.79,3.14"/>
				<path id="path852" class="st10" d="M-3695.41,698.3c0,0,3.96,1.98,5.8,3.2c1.56,1.03,3.03,2.18,4.41,3.43
					c1.17,1.06,2.19,2.26,3.25,3.43c0.95,1.05,2.79,3.2,2.79,3.2"/>
				<path id="path854" class="st10" d="M-3697.91,701.05c0,0,4.14,2.06,6.07,3.32c1.63,1.06,3.17,2.26,4.61,3.56
					c1.22,1.1,2.29,2.35,3.4,3.56c0.99,1.09,2.91,3.32,2.91,3.32"/>
				<path id="path856" class="st10" d="M-3715.66,723.8c0,0,3.78,1.91,5.54,3.08c1.49,0.99,2.89,2.1,4.21,3.3
					c1.11,1.02,2.09,2.18,3.1,3.3c0.91,1.01,2.66,3.08,2.66,3.08"/>
				<path id="path858" class="st10" d="M-3700.16,704.42c0,0,3.96,1.95,5.8,3.14c1.56,1.01,3.03,2.14,4.41,3.36
					c1.17,1.04,2.19,2.22,3.25,3.36c0.95,1.03,2.79,3.14,2.79,3.14"/>
				<path id="path860" class="st10" d="M-3701.91,707.42c0,0,4.02,1.98,5.89,3.2c1.58,1.03,3.08,2.18,4.48,3.43
					c1.19,1.06,2.23,2.26,3.3,3.43c0.97,1.05,2.83,3.2,2.83,3.2"/>
				<path id="path862" class="st10" d="M-3704.53,710.11c0,0,3.96,1.87,5.8,3.02c1.56,0.97,3.03,2.05,4.41,3.23
					c1.17,1,2.19,2.13,3.25,3.23c0.95,0.99,2.79,3.02,2.79,3.02"/>
				<path id="path864" class="st10" d="M-3706.53,713.11c0,0,3.9,1.98,5.71,3.2c1.53,1.03,2.99,2.18,4.34,3.43
					c1.15,1.06,2.16,2.26,3.2,3.43c0.94,1.05,2.74,3.2,2.74,3.2"/>
				<path id="path866" class="st10" d="M-3708.78,716.11c0,0,3.72,1.87,5.45,3.02c1.46,0.97,2.85,2.05,4.14,3.23
					c1.1,1,2.06,2.13,3.05,3.23c0.89,0.99,2.61,3.02,2.61,3.02"/>
				<path id="path868" class="st10" d="M-3711.03,718.99c0,0,3.84,1.84,5.63,2.96c1.51,0.95,2.94,2.01,4.27,3.17
					c1.13,0.98,2.12,2.09,3.15,3.17c0.92,0.97,2.7,2.96,2.7,2.96"/>
				<path id="path870" class="st10" d="M-3713.03,721.49c0,0,3.66,1.87,5.36,3.02c1.44,0.97,2.8,2.05,4.07,3.23
					c1.08,1,2.02,2.13,3,3.23c0.88,0.99,2.57,3.02,2.57,3.02"/>
				<path id="path872" class="st10" d="M-3727.78,736.61c0,0,2.5,1.12,3.66,1.81c1.89,1.07,3.41,2.47,4.83,3.88
					c0.6,0.59,1.76,1.81,1.76,1.81"/>
				<path id="path874" class="st10" d="M-3717.41,726.17c0,0,3.59,1.95,5.27,3.14c1.41,1.01,2.75,2.14,4,3.36
					c1.06,1.04,1.99,2.22,2.95,3.36c0.86,1.03,2.53,3.14,2.53,3.14"/>
				<path id="path876" class="st10" d="M-3720.91,728.92c0,0,3.9,1.87,5.71,3.02c1.53,0.97,2.99,2.05,4.34,3.23
					c1.15,1,2.16,2.13,3.2,3.23c0.94,0.99,2.74,3.02,2.74,3.02"/>
				<path id="path878" class="st10" d="M-3723.16,731.8c0,0,3.84,1.84,5.63,2.96c1.51,0.95,2.94,2.01,4.27,3.17
					c1.13,0.98,2.12,2.09,3.15,3.17c0.92,0.97,2.7,2.96,2.7,2.96"/>
				<path id="path880" class="st10" d="M-3725.16,734.3c0,0,3.17,1.46,4.64,2.35c1.25,0.75,2.43,1.6,3.53,2.52
					c0.93,0.78,1.75,1.66,2.6,2.52c0.76,0.77,2.23,2.35,2.23,2.35"/>
				<g id="g882" transform="translate(0,512.36)">
					<path id="path884" class="st10" d="M-3735.47,229.9c1.5,0.35,2.63,1.08,3.19,1.63"/>
					<path id="path886" class="st10" d="M-3730.47,226.28c0,0,2.58,1.2,3.75,2c1.36,0.94,3.75,3.25,3.75,3.25"/>
					<path id="path888" class="st10" d="M-3733.1,228.09c2.23,0.75,3.9,2.13,5.31,3.44"/>
				</g>
			</g>
			<path id="path890" class="st21" d="M-3622.88,640.01c2.49,2.13,4.58,3.83,4.4,8.66c0.5,5.92,1.76,11.72,2.66,17.58
				c0.36,3.84,0.81,7.72,0.22,11.57c-0.28,3.04-0.26,6.15,0.7,9.07c0.25,3.62-3.15,6-5.4,8.31c-2.6,1.89-5.89,1.55-8.84,2.19
				c-1.97,0.98-2.66-0.84-2.39-2.42c-0.15-7.19-0.8-15.64-0.95-22.83c-3.44-2.18-5.18-3.09-8.73-3.27c-3.5-0.1-5,1.21-4.96-3.42
				c0.3-3.52,3.41-5.54,6.81-4.18c2.47,0.72,2.11,0.25,4.38,1.62c-3.4-0.64-3.56-1.41-6.94-2.15c-2.4,0.64-4.26,0.8-4.48-2.7
				c-1.38-3.48,0.59-4.97,3.07-6.16c3.15-0.14,2.27,0.8,5.49,0.41c1.09,0.06,3.54,1.68,4.92,2.23c-3.11-0.39-5.63-2.93-8.81-2.64
				c-2.06-0.9-4.22,3.89-6.05-2.09c-0.2-3.09,2.91-4.77,4.89-6.59c1.64-1.3,3.97-0.39,5.8,0.04c1.9,0.76,3.98,1.31,5.91,1.83
				c-3.61-0.09-6.78-2.38-10.44-2.13c-3.48,0.4-4.59,5.49-6.61,2.13c-1.38-3.34,1.02-6.55,3.19-8.9c2.02-0.67,2.86-1.63,5.98-1.91
				c1.97,0.58,4.1,1.48,6.04,2.19C-3629.94,636.5-3625.86,639.48-3622.88,640.01L-3622.88,640.01z"/>
			<g id="g892">
				<g id="g894" transform="translate(0,512.36)">
					<path id="path896" class="st10" d="M-3622.22,137.15c0,0,0.29,1.08,0.25,1.63c-0.06,0.87-0.75,2.5-0.75,2.5"/>
					<path id="path898" class="st10" d="M-3623.6,147.78c0,0-0.02,0.85-0.13,1.25c-0.16,0.62-0.75,1.75-0.75,1.75"/>
				</g>
				<path id="path900" class="st10" d="M-3626.47,668.39c0,0-0.69,2.37-1.5,3.25c-0.45,0.49-1.09,0.88-1.75,1
					c-0.5,0.09-1.5-0.25-1.5-0.25"/>
			</g>
		</g>
		<path id="path902" class="st6" d="M-3639.22,751.39h8.75l0.06-78.53c-3.02-3-5.92-3.22-9.06-3.71L-3639.22,751.39z"/>
		<path id="path904" class="st19" d="M-3730.68,547.52c0.64,1.89,1.55,3.59,2.03,5.47c0.89,3.51,0.53,7.27,1.52,10.75
			c0.86,3.03,2.49,5.79,3.79,8.66c1.2,2.65,2.77,5.15,3.68,7.92c0.52,1.58,0.87,3.24,1.01,4.9c0.35,4.12-0.22,8.27-0.4,12.41
			c-0.08,1.68-0.62,3.39-0.29,5.04c0.38,1.92,1.19,3.89,2.55,5.29c1.09,1.12,3.21,0.91,4.16,2.15c2.04,2.66,0.51,6.9,2.13,9.84
			c1.51,2.75,4.21,4.71,6.69,6.63c2.26,1.75,4.56,3.83,7.37,4.37c2,0.39,4-1.15,6.03-0.94c2.25,0.23,4.09,2.42,6.35,2.41
			c1.84-0.01,3.57-1.07,5.14-2.03c2.06-1.27,4.15-2.75,5.42-4.81c0.62-1.02,0.83-2.27,0.91-3.46c0.13-2.07-0.03-4.23-0.78-6.16
			c-0.45-1.15-1.21-2.22-2.15-3.01c-1.16-0.99-2.96-1.03-4.11-2.03c-0.7-0.61-1.23-1.44-1.58-2.3c-0.54-1.33-0.21-2.91-0.74-4.25
			c-1.19-3-3.22-5.64-5.34-8.06c-1.52-1.73-4.02-2.57-5.21-4.55c-1.12-1.86-1.01-4.22-1.48-6.34c-0.44-2.01-0.68-4.07-1.25-6.05
			c-0.92-3.19-1.69-6.54-3.48-9.34c-1.8-2.82-4.96-4.52-7.06-7.13c-2.75-3.42-2.85-10.13-7.14-11.05c-1.16-0.25,0.32,2.9-2.97,1.93
			c-4.22-1.24-6.85-3.18-10.35-4.6c-1.46-0.59-3.67-1.41-4.43-1.63V547.52z"/>
		<g id="g906">
			<path id="path908" class="st10" d="M-3726.02,549.65c0.92,2.44,1.63,4.94,2.35,7.44c0.57,1.98,0.88,4.04,1.58,5.98
				c1.13,3.15,3.07,5.96,4.2,9.11c0.91,2.52,1.43,5.16,2.05,7.77c0.55,2.36,1.25,4.71,1.48,7.13c0.28,3.09-0.44,6.21-0.2,9.3
				c0.14,1.88,0.21,3.84,0.98,5.56c1.33,2.96,4.93,4.59,6.03,7.63c0.66,1.83-0.31,3.95,0.16,5.84c0.41,1.66,1.05,3.42,2.27,4.61
				c1.55,1.51,3.88,1.95,5.89,2.74c2.84,1.12,5.79,1.97,8.72,2.83c1.58,0.46,3.14,0.99,4.77,1.24c1.57,0.24,3.28,0.82,4.75,0.23
				c2.05-0.83,4.05-2.7,4.53-4.86c0.37-1.64-0.68-3.37-1.54-4.81c-0.62-1.04-1.36-2.28-2.53-2.62c-1.39-0.4-3.04,0.21-4.22,1.04
				c-0.86,0.61-1.5,1.62-1.75,2.65c-0.25,1.05-0.42,2.46,0.35,3.21c0.71,0.68,2.07,0.67,2.92,0.2c0.76-0.41,0.84-1.51,1.26-2.26"/>
			<path id="path910" class="st10" d="M-3723.43,550.3c1.45,2.51,3.15,4.89,4.46,7.48c1.69,3.34,3.1,6.83,4.33,10.37
				c0.95,2.7,1.63,5.49,2.35,8.26c0.79,3.01,1.8,6,2.16,9.09c0.45,3.82-0.98,7.83,0.01,11.55c0.27,1.01,0.96,1.86,1.55,2.73
				c1.75,2.55,4.79,4.3,5.86,7.21c0.64,1.72-0.34,3.74,0.14,5.52c0.51,1.88,1.03,3.98,2.8,5.11c2.02,1.28,5.16,3.48,7.84,2.94
				c2.68-0.53,4.91-3.79,6.5-3.51"/>
			<path id="path912" class="st10" d="M-3717.27,553.54c2.21,3.75,3.86,7.81,5.48,11.85c1.95,4.85,3.91,9.74,5.09,14.84
				c0.98,4.23,0.54,8.72,1.61,12.93c0.63,2.46,1.69,4.79,2.8,7.07c1.02,2.09,2.47,3.95,3.52,6.02c1.31,2.62,0.83,6.75,3.44,8.09
				c2.57,1.33,5.68-1.11,8.47-1.86c1.25-0.34,2.71-0.35,3.69-1.19c0.76-0.66,0.9-1.8,1.35-2.7"/>
			<path id="path914" class="st10" d="M-3713.39,553.54c1.43,3.1,3.43,5.9,4.79,9.02c1.13,2.6,1.87,5.35,2.78,8.03
				c1.31,3.88,2.95,7.67,3.85,11.66c0.9,3.97,0.35,8.21,1.54,12.1c1.02,3.33,3.09,6.23,4.72,9.31c0.99,1.88,1.22,4.52,3.06,5.59
				c1.72,1,4.2,0.79,5.97-0.11c0.89-0.46,1.59-1.43,1.8-2.41c0.26-1.21,0.16-2.85-0.81-3.63c-0.66-0.53-1.95-0.62-2.54-0.01
				c-0.51,0.53-0.2,1.51,0.06,2.21c0,0.03,0.06,0.07,0.06,0.07"/>
			<path id="path916" class="st10" d="M-3703.99,565.2c0.98,2.09,2.3,4.03,3.08,6.21c1.79,4.97,2.34,10.31,3.61,15.44
				c0.79,3.2,0.75,6.78,2.5,9.57c0.58,0.93,1.49,1.71,2.5,2.14c1.98,0.84,4.32,0.23,6.44,0.62c0.44,0.08,0.87,0.24,1.3,0.35"/>
		</g>
		<g id="g918" transform="matrix(-1,0,0,-1,360,1564.47)">
			<g id="g920">
				<path id="path922" class="st3" d="M4249.09,776.96l-0.25,5.63l-0.25,4l-1,3.5l-1,3.75l-0.88,2.13l0.38,2.75l-0.25,4.25
					l-0.38,2.38l-1.13,3l-1,2.88l-0.75,1.25l-42.88-0.25l-0.88-1.5l-1.38-3.75l-1.13-2.25l-1.13-3.38l-0.75-5.25l-0.5-5l0.13-3
					l-0.63-2.38l-0.5-3.75l-1.13-4l-1.5-2.38l-0.5-2.75l-0.63-2.75l-0.63,0.38l-1.38,4.38l-1.75,4.13l-0.75,3l-1.25,4.13l-0.88,2.25
					l-0.5,3.13l0.13,3.63l-0.38,1.38l-0.13,1.75l-0.5,0.75l-2.88,1.88l-3.13,1.5l-4.38,0.88l-4.75,1.13l-4.13,0.38l-4.75,0.5
					l-2.88-0.25l12.38-13.5l8.88-9.38l6.13-8l6.75-9.13l8.38-13.75l3.25-5.88l11.75-19.88l3.38-4.75l6.75-0.25l0.38,36l-1,0.38
					l-3.75,4.75l-1.25,2.13l-5.25,8.88l-1.38,2.75l-1.13,1.75l3.63,4.63l5,3.38l3.5,1.5l5.75-0.38l4.88-1h3.75l5.38-2.5l4-2.25
					L4249.09,776.96z"/>
				<path id="path924" class="st4" d="M4138.72,704.33l-2.25,38.5c0,0,12.03-17.71,17.75-26.75c5.35-8.47,15.5-25.75,15.5-25.75
					l-15.5-6L4138.72,704.33z"/>
				<path id="path926" class="st4" d="M4028.72,706.58c4.8-2.73,9.88-4.8,14.94-6.97c7.28-3.01,13.87-8.78,21.48-11.01
					c6.7-2.42,13.39-3.6,20.09-6.02c-0.02,10.32,0.4,20.65,0.1,30.96c-1.37,17.68-2.73,35.36-4.1,53.04c-1.67,1.5-3.33,3-5,4.5
					c-4.6-2.91-9.62,4.19-12.12,2.09C4052.31,750.98,4040.52,728.79,4028.72,706.58L4028.72,706.58z"/>
			</g>
			<g id="g928" transform="translate(0,512.36)">
				<path id="path930" class="st5" d="M4084.47,198.97l-2,15l-1,18.25l-1,16.25l1.75,43.5l51.75-22.25l3.25-45.25l1-18.25
					l0.75-13.25l-13.25-13.25l-25.5-0.5l-10.75,7.75L4084.47,198.97z"/>
				<path id="path932" class="st6" d="M4106.22,186.72l-1.75,10.75l-1,13.75l-0.75,16.5l-0.25,10.75l-0.75,12l11-3.25l-0.25-15.75
					l1-22l1.5-15l0.75-8.25l-5.25,0.75L4106.22,186.72z"/>
				<path id="path934" class="st7" d="M4110.72,187.22l-1.25,8.5l-1.25,11l-0.5,15.25l-0.5,11.5v8.75l-0.25,6.75"/>
			</g>
			<g id="g936">
				<g id="g938">
					<path id="path940" class="st8" d="M4096.47,729.33c0,2.21-1.73,4-3.88,4s-3.88-1.79-3.88-4c0-2.21,1.73-4,3.88-4
						S4096.47,727.12,4096.47,729.33z"/>
					<path id="path942" class="st8" d="M4097.09,713.08c0,2.21-1.73,4-3.88,4s-3.88-1.79-3.88-4c0-2.21,1.73-4,3.88-4
						S4097.09,710.87,4097.09,713.08z"/>
					<path id="path944" class="st8" d="M4095.84,746.33c0,2.21-1.73,4-3.88,4s-3.88-1.79-3.88-4c0-2.21,1.73-4,3.88-4
						S4095.84,744.12,4095.84,746.33z"/>
					<path id="path946" class="st8" d="M4129.84,714.08c0,2.21-1.73,4-3.88,4s-3.88-1.79-3.88-4c0-2.21,1.73-4,3.88-4
						S4129.84,711.87,4129.84,714.08z"/>
					<path id="path948" class="st8" d="M4128.59,729.58c0,2.21-1.73,4-3.88,4s-3.88-1.79-3.88-4c0-2.21,1.73-4,3.88-4
						S4128.59,727.37,4128.59,729.58z"/>
					<path id="path950" class="st8" d="M4128.34,746.08c0,2.21-1.73,4-3.88,4s-3.88-1.79-3.88-4c0-2.21,1.73-4,3.88-4
						S4128.34,743.87,4128.34,746.08z"/>
				</g>
				<path id="path952" class="st6" d="M4060.72,805.33c4.83,0,9.67,0,14.5,0c2.06-0.88,4.2-1.59,6.1-2.79
					c1.61-0.92,3.27-1.8,4.79-2.85c0.81-0.75,1.47-1.72,2.56-2.09c0.85-0.42,1.7-0.85,2.55-1.28c-0.15-0.45,0.32-1.51-0.29-1.5
					c-1.59-0.12-3.15,0.25-4.71,0.5c-1.36-0.11-2.75-0.11-4.08-0.3c-1.28-0.82-2.67-1.49-3.87-2.41c-1.12-1.16-2.33-2.25-3.4-3.46
					c-0.62-1.07-1.35-2.09-1.91-3.18c-0.17-2.04-0.64-4.08-0.4-6.14c0.1-1.06,0.02-2.16,0.24-3.19c0.46-0.88,0.74-1.9,1.31-2.7
					c0.62-0.54,1.24-1.08,1.85-1.62c0-0.58,0-1.17,0-1.75c-0.86-0.22-1.73-0.6-2.59-0.72c-1.68,0.65-3.4,1.22-4.94,2.17
					c-1.31,0.82-2.78,1.26-4.22,1.79C4063.05,784.33,4061.88,794.83,4060.72,805.33L4060.72,805.33z"/>
			</g>
			<path id="path954" class="st0" d="M4083.63,685.79c-2.16,3.37-2.81,7.5-1.78,11.38c0.87,4.15,3.18,8.17,2.33,12.53
				c-0.01,3.19,2.67,0.99,2.94-0.82c3.01-4.22,7.69-7.06,12.53-8.73c3.79-0.78,7.71-1.59,11.56-0.65c3.88,0.22,7.82-1.47,11.66-0.09
				c3.52,1.09,4.86,5.06,7.97,6.89c2.34,0.81,1.78,4.78,3.78,4.68c1.84-0.09,2.76-5.63,5.38-7.55c2.76-3.87,6.93-6.53,9.18-10.78
				c1.85-3.18,5.05-5.66,5.42-9.56c1.38-4.76,2.82-10.32-0.25-14.78c-2.27-4.06-7.21-4.74-11.29-5.87
				c-17.09-3.73-35.65-0.46-50.46,8.84c-2.86,1.82-6.06,3.84-6.86,7.4C4084.96,681.04,4084.61,683.51,4083.63,685.79L4083.63,685.79
				z"/>
			<g id="g956">
				<path id="path958" class="st8" d="M3961.47,718.24c7.73-3.93,9.3-12.13,9.69-18.48c6.1,1.59,13.63,2.13,20.07,2
					c9.61-0.58,20.1-4.75,28.06-9.89c3.79,4.91,6.77,10.91,12.33,18.76c10.04,14.89,21.2,29.09,29.52,45.04
					c3.17,10.94,3.64,16.13,3.63,23.97c0.05,12.3-1.39,21.57-5.76,29.92c-2.45,2.67-3.31,3.15-8.32,3.02c-17.07,0-34.13,0-51.2,0
					c-7.12-4-14.4-7.76-20.03-13.84c-6.92-7.31-10.94-12.85-18.22-20.16C3961.39,758.58,3961.31,738.24,3961.47,718.24
					L3961.47,718.24z"/>
				<path id="path960" class="st9" d="M3961.13,744.48c2.27-0.81,4.79-1.15,6.9-2.26c3.19-2.78,6.47-5.54,9.18-8.78
					c1.88-2.59,3.97-5.06,4.98-8.15c0.58-1.37,1.14-3.45,3.05-3.09c3.85,0.02,7.7,0.15,11.48-0.68c4.92-0.95,9.89-2.11,14.45-4.23
					c1.91-1.17,2.29-1.24,3.49,0.89c4.1,6.73,8.33,12.33,13.08,18.62c4.94,7.03,7.61,11.09,10.56,16.84
					c1.76,3.08,3.03,5.77,4.04,9.18c1.27,4.02,2.08,8.19,2.28,12.4c0.56,7.61-0.67,15.21-2.18,22.65
					c-3.68,1.14-7.58,0.92-11.37,1.21c-4.79-0.59-9.66-0.8-14.41-1.6c-5.29-1.61-10.73-3.15-15.31-6.35c-2.79-1.9-6.13-3-8.35-5.65
					c-3.37-3.5-6.65-7.11-9.75-10.85c-5.32-6.97-8.26-9.44-13.86-16.18c-1.5-1.87-5.53-6.19-8.16-8.87
					C3961.19,747.88,3961.16,746.18,3961.13,744.48L3961.13,744.48z"/>
				<g id="g962">
					<path id="path964" class="st10" d="M3960.97,740.83l4.25-1.25l4.25-2.75l5-5.25l3.5-5l2-5.75l0.75-2l1.25-0.5l5.5,0.75
						l7.25-0.5l8.25-1.5l5-1.75l3.5-1.5c1.67-0.57,1.84-1.03,3.25-1.25l7,10.5c0,0,9.22,13.13,13.75,19.75
						c2.44,3.57,5.33,6.88,7.25,10.75c2.07,4.18,3.53,8.69,4.5,13.25c0.96,4.5,1.35,9.15,1.25,13.75c-0.05,2.52-0.61,5.01-1,7.5
						c-0.44,2.84-1.5,8.5-1.5,8.5l-1.5,4.5l-7,1l-8.25-0.25l-8-1l-8-1.25l-8.5-3l-8-4.25l-6.25-4l-4-4.5l-20.25-23.5l-5.25-6.5
						V740.83z"/>
					<path id="path966" class="st10" d="M3960.97,722.33c2.8-1.03,6.28-1.54,7.71-4.5c2.72-3.53,5.03-7.51,5.54-12
						c1.89-1.05,4.13,0.43,6.2,0.32c4.68,0.68,9.51,0.77,14.08-0.54c5.33-1.03,10.75-1.97,15.59-4.56c2.46-1.09,7.87-3.96,7.87-3.96
						s0.46,0.62,4.71,6.72c10.25,15.19,19.49,28.1,29.59,43.38c2.76,4.47,5.55,9,6.8,14.16c2.42,8.7,1.81,17.81,2.15,26.74
						c-1.65,7.53-2.3,15.62-6.56,22.24c-0.9,1.93-2.38,2.72-4.48,2.26c-14.07,0-28.14,0-42.22,0c-6.16-2.99-12.71-5.41-18.23-9.46
						c-6.16-4.53-11.5-10.16-16.18-16.26c-4.14-4.72-8.14-9.61-12.85-13.78C3960.79,756.17,3960.88,739.25,3960.97,722.33
						L3960.97,722.33z"/>
				</g>
				<g id="g968">
					<path id="path970" class="st8" d="M3981.97,713.08c0,1.79-1.46,3.25-3.25,3.25s-3.25-1.46-3.25-3.25s1.46-3.25,3.25-3.25
						S3981.97,711.29,3981.97,713.08z"/>
					<path id="path972" class="st8" d="M4000.47,710.83c0,1.79-1.46,3.25-3.25,3.25s-3.25-1.46-3.25-3.25s1.46-3.25,3.25-3.25
						S4000.47,709.04,4000.47,710.83z"/>
					<path id="path974" class="st8" d="M4018.47,705.83c0,1.79-1.46,3.25-3.25,3.25s-3.25-1.46-3.25-3.25s1.46-3.25,3.25-3.25
						S4018.47,704.04,4018.47,705.83z"/>
					<path id="path976" class="st8" d="M4029.72,719.08c0,1.79-1.46,3.25-3.25,3.25s-3.25-1.46-3.25-3.25s1.46-3.25,3.25-3.25
						S4029.72,717.29,4029.72,719.08z"/>
					<path id="path978" class="st8" d="M4042.47,737.83c0,1.79-1.46,3.25-3.25,3.25s-3.25-1.46-3.25-3.25s1.46-3.25,3.25-3.25
						S4042.47,736.04,4042.47,737.83z"/>
					<path id="path980" class="st8" d="M4053.97,757.33c0,1.79-1.46,3.25-3.25,3.25s-3.25-1.46-3.25-3.25s1.46-3.25,3.25-3.25
						S4053.97,755.54,4053.97,757.33z"/>
					<path id="path982" class="st8" d="M4057.97,779.83c0,1.79-1.46,3.25-3.25,3.25s-3.25-1.46-3.25-3.25s1.46-3.25,3.25-3.25
						S4057.97,778.04,4057.97,779.83z"/>
					<path id="path984" class="st8" d="M4051.47,806.08c0,1.79-1.46,3.25-3.25,3.25s-3.25-1.46-3.25-3.25s1.46-3.25,3.25-3.25
						S4051.47,804.29,4051.47,806.08z"/>
					<path id="path986" class="st8" d="M4030.72,807.58c0,1.79-1.46,3.25-3.25,3.25s-3.25-1.46-3.25-3.25s1.46-3.25,3.25-3.25
						S4030.72,805.79,4030.72,807.58z"/>
					<path id="path988" class="st8" d="M4010.97,805.33c0,1.79-1.46,3.25-3.25,3.25s-3.25-1.46-3.25-3.25s1.46-3.25,3.25-3.25
						S4010.97,803.54,4010.97,805.33z"/>
					<path id="path990" class="st8" d="M3992.47,794.58c0,1.79-1.46,3.25-3.25,3.25s-3.25-1.46-3.25-3.25s1.46-3.25,3.25-3.25
						S3992.47,792.79,3992.47,794.58z"/>
					<path id="path992" class="st8" d="M3976.72,778.08c0,1.79-1.46,3.25-3.25,3.25s-3.25-1.46-3.25-3.25s1.46-3.25,3.25-3.25
						S3976.72,776.29,3976.72,778.08z"/>
					<path id="path994" class="st8" d="M3967.47,730.33c0,1.79-1.46,3.25-3.25,3.25s-3.25-1.46-3.25-3.25s1.46-3.25,3.25-3.25
						S3967.47,728.54,3967.47,730.33z"/>
				</g>
			</g>
			<path id="path996" class="st11" d="M4078.8,769.39c3.9-2.99,5.88-5.23,11.43-8.59c2.87-1.73,3.64-3.54,7.49-4.48
				s10.56-1.08,14.28-1.64c4.42-0.67,5.51-0.27,10.08,0.11c1.66-0.02,8.25-1.11,6.79,0.31c-3.23,4.82-9.16,11.61-14.01,17.2
				c-4.35,5.02-7.98,10.97-13.51,14.65c-2.13,1.42-4.98,1.39-7.22,2.63c-1.34,0.74-2.26,2.13-3.62,2.82
				c-2.87,1.47-6.14,3.33-9.29,2.68c-2.96-0.61-5.48-3.14-7-5.75c-1.74-3-1.93-6.79-1.76-10.25c0.1-2.19,0.47-4.55,1.72-6.35
				C4075.25,771.17,4077.29,770.55,4078.8,769.39L4078.8,769.39z"/>
			<g id="g998">
				<g id="g1000" transform="translate(0,512.36)">
					<path id="path1002" class="st10" d="M4122.45,250.93c0,0-5.91-1.06-8.89-1.01c-2.71,0.05-8.04,1.19-8.04,1.19"/>
					<path id="path1004" class="st10" d="M4114.51,259.76c0,0-4.17-0.73-6.27-0.7c-1.64,0.02-4.88,0.66-4.88,0.66"/>
					<path id="path1006" class="st10" d="M4108.47,267.01c0,0-3.58-0.32-5.36-0.15c-0.79,0.07-2.32,0.5-2.32,0.5"/>
				</g>
				<path id="path1008" class="st10" d="M4095.12,779.66c0.07-0.86,1.04-1.22,1.24-1.95"/>
				<path id="path1010" class="st10" d="M4094.95,772.59c0.3-0.56,1.01-0.82,1.41-1.24"/>
				<path id="path1012" class="st10" d="M4095.65,764.99c0.05-0.81,0.9-1.23,1.59-1.41"/>
			</g>
			<path id="path1014" class="st5" d="M4075.32,805.47l7.6-3.89l6.19-3.89l5.83-5.13l5.83-5.3l10.43-10.61l9.02-11.49l8.49-10.96
				l9.02-12.73l12.73-19.8l12.02-18.56l6.36-12.02l4.6-7.96l10.78,6.54l8.13,5.3l6.01,5.3l2.3,1.06l-4.42,9.19l-11.31,20.68
				l-12.37,19.45l-17.15,22.63l-10.43,12.2l-10.61,10.43l-10.96,9.55L4075.32,805.47z"/>
			<g id="g1016">
				<path id="path1018" class="st7" d="M4084.87,805.46c13.81-7.17,23.31-19.88,33.17-31.52c19.89-23.47,36.25-49.83,51.72-76.43
					c2.31-4.13,4.55-8.29,6.72-12.49"/>
				<path id="path1020" class="st7" d="M4197.4,699.44c-13.45,32.8-34.46,60.63-57.58,86.38c-6.08,6.77-14.52,14.44-22.4,19.64"/>
			</g>
			<path id="path1022" class="st4" d="M4083.65,607.74c-3.86,1.3-8.23-1.15-10.56-4.26c-3.27-3.81-1.47-9.22,0.16-13.34
				c2.77-4.8,7.68-7.84,12.02-11.09c10.58-5.42,22.84-5.64,34.47-5.79c8.85,0.13,18.03,0.51,26.29,3.97
				c7.78,3.95,15.58,10.77,20.63,18.32c5.71,7.55,10.55,15.93,11.24,25.66c0.2,4.28-3.61,7.32-6.95,9.28
				c-4.07,1.24-9.28,1.15-12.31-2.28c-5.12-4.52-7.53-11.12-11.78-16.3c-4.23-4.64-10.41-6.68-16.05-9
				c-10.03-2.85-20.57-3.49-30.95-3.61c-5.31,0.48-11.39,0.37-15.49,4.33C4083.28,604.88,4084.53,606.59,4083.65,607.74
				L4083.65,607.74z"/>
			<g id="g1024">
				<path id="path1026" class="st12" d="M4084.22,612.58c-2.94,2.4-4.21,7.41-7.22,10.39c-2.05,4.64,1.34,10.27-1.51,14.61
					c-1.82,3.63-0.86,8.1-4.77,10.74c-1.2,5.13-0.26,9.71-3.03,14.56c-2.33,1.82,0.87,7.15-4.39,4.77
					c-7.08,0.56-2.72,11.27-8.27,13.45c-3.12,3.64-0.83,8.47,2.51,10.33c3.02,2.34,7.18-3.05,11.18-2.35
					c4.67-0.9,9.3-1.77,13.37-4.29c3.62-2.64,7.4-2.5,9.72-5.39c2.7-3.36,3.11-7.28,3.68-12.4c2.5-13.36,4.76-27.35,1.42-40.76
					C4095.31,619.96,4090.92,613.91,4084.22,612.58L4084.22,612.58z"/>
				<g id="g1028">
					<path id="path1030" class="st10" d="M4069.73,656.67c0.7,2.18-0.26,10-1.04,12.55c-0.68,2.21-0.13,6.33-2.47,6.64
						c-1.85,0.25-5.85-1.85-4.14-4.04c1.19-1.53,3.57,0.02,3.57,0.02"/>
					<path id="path1032" class="st10" d="M4083.62,626.25c-2.73,7.51-3.5,15.49-5.23,23.24c-0.63,2.8-1.5,5.57-1.87,8.42
						c-0.71,5.39,0.95,11.11-0.67,16.29c-0.74,2.36-2.6,4.22-3.99,6.27c-1.57,2.31-2.47,5.46-4.94,6.78
						c-2.14,1.14-5.77,2.2-7.25,0.29c-1.37-1.75-0.34-6.22,1.88-6.4c1.35-0.11,4.45,2.29,1.76,3.67"/>
					<path id="path1034" class="st10" d="M4056.87,679.68c2.02-1.84,5.44-2.09,7.96-0.69c1.93,1.26,4.34-0.05,5.17-1.96
						c1.27-1.87,2.01-4.67,2.13-7c0.66-2.5,0.89-5.08,0.9-8.92c1.11-3.53,0.33-4.35,1.56-8.15c0.53-5.01,1.8-8.32,3.15-11.54
						c1.79-3.92,1.59-8.28,1.87-12.47c0.48-3.69,1.59-7.61,4.32-10.28"/>
				</g>
			</g>
			<g id="g1036">
				<path id="path1038" class="st7" d="M4083.62,642.33c-1.87,4.11-2.56,8.61-3.28,13.04c-0.75,4.63-0.33,9.4-1.04,14.04
					c-0.7,4.58-1.26,9.31-3.15,13.54c-0.96,2.15-2.5,4.03-4.06,5.8"/>
				<path id="path1040" class="st7" d="M4083.62,655.38c-0.46,6.35-0.63,12.76-1.76,19.02c-0.6,3.34-1.09,6.82-2.68,9.83
					c-0.61,1.16-1.59,2.11-2.54,3.01"/>
				<g id="g1042">
					<path id="path1044" class="st10" d="M4082.71,684.5c1.11-3.95,2.74-5.07,2.85-10.57c0.04-2.4,2.31-4.56,1.32-7.08"/>
					<path id="path1046" class="st10" d="M4090.6,672.67c-1.75,2.27-1.33,2.97-1.95,4.47c-0.68,1.65-0.72,3.34-1.92,4.99"/>
				</g>
			</g>
			<path id="path1048" class="st13" d="M4084.72,608.08c-1.23,2.11-0.83,4.82-1,7.25c-0.14,1.99-0.1,4,0,6
				c0.08,1.59,0.37,3.16,0.5,4.75c0.12,1.41,0.26,2.83,0.25,4.25c0,2.51-0.21,5.01-0.5,7.5c-0.18,1.51-0.63,2.98-0.75,4.5
				c-0.21,2.58-0.1,5.17,0,7.75c0.08,2.09,0.05,4.21,0.5,6.25c0.36,1.65,1.24,3.14,1.75,4.75c0.49,1.56,0.62,3.24,1.25,4.75
				c0.63,1.52,1.64,2.85,2.5,4.25c0.98,1.6,1.91,3.22,3,4.75c0.93,1.3,2.25,2.34,3,3.75c0.66,1.23,0.81,2.67,1.25,4
				c0.39,1.17,0.72,2.38,1.25,3.5c0.62,1.32,1.46,2.52,2.25,3.75c1.2,1.87,2.24,3.87,3.75,5.5c1.09,1.17,2.33,2.27,3.75,3
				c1.08,0.56,2.29,0.9,3.5,1c1.59,0.14,3.2-0.15,4.75-0.5c1.98-0.44,4.05-0.89,5.75-2c2.37-1.55,3.79-4.21,5.75-6.25
				c1.79-1.87,3.71-3.62,5.5-5.5c1.63-1.71,3.24-3.44,4.75-5.25c1.14-1.37,2.21-2.8,3.25-4.25c1.4-1.96,2.99-3.82,4-6
				c1.64-3.54,2.76-7.38,3.25-11.25c0.34-2.73,0-5.51-0.25-8.25c-0.4-4.28-1.09-8.54-2-12.75c-0.66-3.04-1.61-6.02-2.5-9
				c-0.94-3.18-1.91-6.36-3-9.5c-1.31-3.79-1.49-8.34-4.25-11.25c-2-2.11-5.21-2.66-8-3.5c-4.21-1.27-8.61-2.06-13-2.25
				c-2.92-0.13-5.83,0.59-8.75,0.75c-3.33,0.18-6.7-0.24-10,0.25c-2.48,0.37-5,0.89-7.25,2
				C4087.37,605.63,4085.62,606.54,4084.72,608.08z"/>
			<path id="path1050" class="st14" d="M4093.34,663.46c0.33-1,1.47-1.28,2.22-1.88c0.56-0.42,0.9-1.19,1.69-1.23
				c0.88-0.11,1.95,0.02,2.47,0.83c0.53,0.49,1.58,0.42,1.59-0.35c0.45-0.37,1.59-0.33,2.09-0.3c1.42,0.3,2.07,0.92,3.33,1.63
				c0.52,0.26,1.31,0.47,1.35,1.17c-0.21,0.78-1.36,0.55-1.74,1.25c-0.83,0.98-1.31,1.14-2.2,2.07c-0.67,0.86-1.46,1.79-2.61,1.94
				c-1.37,0.22-2.75-0.1-4.08-0.42c-0.87-0.24-1.77-0.73-2.06-1.65c-0.23-0.79-0.75-0.37-1.19-1.05c-0.34-0.58-0.62-1.2-0.88-1.81
				l-0.01-0.09L4093.34,663.46L4093.34,663.46z"/>
			<path id="path1052" class="st6" d="M4085.08,608.63c2-0.13,2.8-1.1,5.52-1.9c3.25-1.41,6.68-1.69,10.16-1.49
				c6.38,0.03,12.82-0.38,19.15,0.55c6.57,1.42,13.24,2.93,19.28,5.98c2.04,1.2,3.99,2.57,6,3.81c2.33,0.37,3.2-3.56,1.5-4.87
				c-2.31-2.43-5.65-3.38-8.47-5.04c-9.06-4.29-19.1-6.14-29.06-6.66c-7.06-0.09-14.37-0.38-21.11,2.08
				c-2.3,0.79-4.48,2.79-5.12,5.39C4082.28,609.07,4083.07,608.76,4085.08,608.63L4085.08,608.63z"/>
			<g id="g1054">
				<path id="path1056" class="st10" d="M4083.72,620.58c2.95,0.21,5.92,0.29,8.88,0.26c1.26,0.95,3.25,1.64,3.29,3.5
					c0.19,2.05,0.84,4.08,0.67,6.15c-0.33,1.93-1.08,3.75-1.48,5.66c-0.84,3.35-1.73,6.71-2.36,10.1c-0.72,2.68,0.21,3.88,1.98,4.68
					c0.85,1.04,1.28,2.76,2.81,2.99c2.08-0.03,2.23-2.71,3.88-3.41c1.42-0.41,2.89,0.33,3.79,1.41c1.62,0.3,2.21-1.71,1.99-2.97
					c-0.19-1.24-1.03-2.39-2.21-2.86"/>
				<path id="path1058" class="st15" d="M4128.97,625.08c-1.4-0.8-2.87-1.52-4.11-2.56c-0.73-0.73-1.35-1.69-2.45-1.88
					c-1.64-0.37-3.31,0.05-4.97-0.09c-2.18-0.05-4.36,0.01-6.53,0.07c-1.06,0.11-2.12,0.37-3.07,0.85c-1.02,0.5-0.81,1.69-0.62,2.59
					"/>
				<path id="path1060" class="st10" d="M4084.72,626.83c0,0,2.8-1,4.25-1c1.46,0,2.86,0.55,4.25,1c1.02,0.33,2.97,1.23,2.97,1.23"
					/>
			</g>
			<path id="path1062" class="st0" d="M4084.84,630.46c0,0,3.49-1.64,5.38-1.88c0.91-0.11,1.89-0.06,2.75,0.25
				c1.24,0.45,3.25,2.25,3.25,2.25l-1.25,3.25c0,0-2.16,0.55-3.25,0.75c-1.24,0.22-2.49,0.55-3.75,0.5c-1.19-0.05-3.5-0.75-3.5-0.75
				L4084.84,630.46z"/>
			<g id="g1064">
				<path id="path1066" class="st10" d="M4109.97,628.33c0,0,1.92-1.21,3-1.5c1.45-0.39,3-0.21,4.5-0.25c0.83-0.02,1.68-0.16,2.5,0
					c1.32,0.26,2.56,0.87,3.75,1.5c1.06,0.56,2,1.33,3,2c0.25,0.17,0.75,0.5,0.75,0.5"/>
				<path id="path1068" class="st16" d="M4109.97,633.33c0.62-0.88,1.12-1.9,2-2.5c0.72-0.49,1.64-0.62,2.5-0.75
					c1.81-0.27,3.67-0.16,5.5,0c1.43,0.13,2.81,0.7,4.25,0.75c0.75,0.02,1.92-0.93,2.25-0.25c0.61,1.28-1.91,2.1-3,3
					c-0.93,0.76-1.86,1.62-3,2c-1.35,0.45-2.83,0.36-4.25,0.25c-1.19-0.09-2.4-0.3-3.5-0.75
					C4111.71,634.67,4110.59,634.32,4109.97,633.33z"/>
				<g id="g1070">
					<path id="path1072" class="st17" d="M4119.09,632.96c0,1.52-1.17,2.74-2.62,2.74c-1.45,0-2.62-1.23-2.62-2.74
						c0-1.52,1.17-2.74,2.62-2.74C4117.92,630.22,4119.09,631.45,4119.09,632.96z"/>
					<path id="path1074" class="st3" d="M4091.72,631.96c0,1.45-1.12,2.63-2.5,2.63c-1.38,0-2.5-1.18-2.5-2.63
						c0-1.45,1.12-2.63,2.5-2.63C4090.6,629.33,4091.72,630.51,4091.72,631.96z"/>
				</g>
				<path id="path1076" class="st18" d="M4117.47,632.96c0,0.48-0.28,0.88-0.63,0.88s-0.63-0.39-0.63-0.88
					c0-0.48,0.28-0.88,0.63-0.88S4117.47,632.48,4117.47,632.96z"/>
				<path id="path1078" class="st18" d="M4089.72,632.21c0,0.35-0.22,0.63-0.5,0.63s-0.5-0.28-0.5-0.63c0-0.35,0.22-0.63,0.5-0.63
					S4089.72,631.86,4089.72,632.21z"/>
			</g>
			<path id="path1080" class="st14" d="M4093.34,663.71c0.94-0.07,1.9-0.08,2.82-0.29c0.77-0.21,1.04,0.72,1.71,0.83
				c1,0.26,2.07,0.42,3.09,0.2c0.66-0.21,1.17-0.7,1.79-0.98c0.63-0.43,1.42-0.52,2.16-0.36c0.83,0.05,1.59,0.44,2.42,0.46
				c0.17-0.01,0.34-0.07,0.5-0.13"/>
			<path id="path1082" class="st19" d="M4098.22,656.83c-1.04,0.85-0.75,2.44-1.64,3.43c-0.76,1.59-2.08,2.99-3.89,3.27
				c-1.81,0.42-3.89,0.25-5.32-1.06c-1.23-1.3-3.49-1.15-4.44-2.68c0.35-1.74,2.72-0.09,3.79,0.26c1.6,0.94,3.01-1.05,3.58-2.35
				c0.4-1.9,2.28-1.82,3.78-1.99c1.21-0.6,2.38-1.36,3.78-1.37c1.94-0.23,3.9-0.01,5.75,0.62c1.77,0.55,4.04-0.63,5.43,1
				c1.09,1.37,2.08,2.85,3.37,4.04c1.83,1.15,4.18,0.67,6.15,0.14c1.15-0.63,2.33-1.3,3.7-1.14c1.52-0.15,3.62,1.37,2.86,2.97
				c-1.7,1.25-1.86-2.01-3.51-1.08c-1.89,0.65-3.71,1.51-5.39,2.6c-1.95,0.71-4.07,0.46-6.09,0.77c-1.41,0.22-2.48-0.84-3.26-1.86
				c-1.16-1.22-2.92-1.55-4.21-2.61c-1.32-0.65-2.18-1.88-2.64-3.09C4099.44,656.44,4098.74,656.51,4098.22,656.83L4098.22,656.83z"
				/>
			<g id="g1084">
				<path id="path1086" class="st10" d="M4094.24,677.48c1.15,1.3,2.02,2.92,3.44,3.92c1.82,1.28,4.06,1.86,6.2,2.47
					c0.74,0.21,1.5,0.39,2.27,0.41c2.38,0.07,4.8-0.16,7.08-0.83c1.93-0.57,3.63-1.72,5.41-2.67c1.9-1.02,3.87-1.95,5.6-3.24
					c2.53-1.89,4.65-4.27,6.86-6.52c0.7-0.71,1.38-1.43,2.02-2.2"/>
				<g id="g1088">
					<path id="path1090" class="st20" d="M4227,573.01l-0.71,6.72l-2.48,12.37l-1.77,6.36l-1.41,5.3l-2.12,4.24v2.12l6.01,0.35
						l-0.35,13.79l-2.12,1.41v2.12v0.71l-1.77,1.06l-0.35,1.41l2.83,0.71v19.8l0.25,44.63l9.94,5.85l-0.5-49.94l1.02-20.57
						l1.66-1.19l0.71-1.06l-0.35-3.89l-2.12-1.06l-0.35-1.06l-0.35-12.73l6.09,0.62l0.27-1.33l-2.83-8.49l-2.48-10.61l-1.41-8.48
						l-1.06-4.95l-0.35-4.24L4227,573.01z"/>
					<path id="path1092" class="st20" d="M4202.96,586.09c-3.38,4.49-7.22,8.66-10.26,13.39c-2.63,4.1-5.05,8.38-6.85,12.9
						c-1.63,4.11-2.8,8.43-3.53,12.79c-0.82,4.92-1.12,9.94-0.93,14.92c0.18,4.44,0.82,8.88,1.88,13.19
						c0.97,3.94,2.35,7.8,4.07,11.48c2.31,4.95,5.11,9.7,8.32,14.12c1.83,2.52,3.65,5.17,6.18,6.99c0.97,0.7,2.41,3.5,3.3,1.39
						c3.05-4.03,6.09-8.05,9.14-12.08c-1.38-1.87-3.38-3.4-4.28-5.55c-0.87-2.08-1.22-4.47-0.93-6.7c0.33-2.51,1.28-5.08,2.93-6.99
						c1.73-2,4.26-3.35,6.8-4.1c2.87-0.86,6-0.16,8.98-0.34c2.56,0.1,5.25-0.45,7.56,0.93c1.63,0.22,1.98,2.14,2.27,3.46
						c0.6,1.3-1.13,3.73-0.21,4.05c1.79-0.17,4.05,0.68,5.41-0.71c1.76-0.54,1.39-2.91,1.58-4.44c0.14-2.66,2.1-4.7,3.32-6.95
						c1.12-1.9,2.57-3.55,4.04-5.17c-1.63-1.31-3.58-2.35-4.25-4.46c-1.4-1.95-1.76-4.25-2.06-6.57c-0.23-1.82,0.47-3.84-0.92-5.34
						c-0.31-1.35-3.19-1.97-3.01-0.1c-0.54,2.4-0.74,3.61-2.48,5.33c-2.05-0.02-4.61-0.23-6.71,0.23c-4.72,0.04-9.56,0.68-14.15-0.4
						c-2.23-0.52-4.43-1.47-6.25-2.87c-1.59-1.23-2.96-2.85-3.84-4.67c-0.75-1.56-1.15-3.34-1.07-5.07
						c0.08-1.92,0.72-3.84,1.66-5.51c1.29-2.3,2.9-4.58,5.26-5.92C4210.27,600.24,4206.62,593.17,4202.96,586.09L4202.96,586.09z"/>
				</g>
			</g>
			<path id="path1094" class="st14" d="M4199.72,638.77c0,0,0.46-2.79,1.33-3.67c0.88-0.88,2.42-1.33,3.67-1.33
				c1.24,0,2.79,0.46,3.67,1.33c0.88,0.88,1.33,2.42,1.33,3.67c0,1.24-0.67,3-1.33,3.67c-0.67,0.67-1.33,1-2,1.67s-1,0.67-1.67,1.33
				c-0.67,0.67-1,1-1.67,1.67s-1.67,2-2.33,3.33c-0.67,1.33-1,3.33-1,3.33s-0.33-2-1-3.33s-1.67-2.67-2.33-3.33
				c-0.67-0.67-1-1-1.67-1.67s-1-0.67-1.67-1.33c-0.67-0.67-1.33-1-2-1.67s-1.33-2.42-1.33-3.67c0-1.24,0.46-2.79,1.33-3.67
				c0.88-0.88,2.42-1.33,3.67-1.33c1.24,0,2.79,0.46,3.67,1.33C4199.26,635.98,4199.72,638.77,4199.72,638.77z"/>
			<g id="g1096">
				<path id="path1098" class="st10" d="M4224.52,610.48c0.63-3.87,1.43-7.72,2.04-11.59c0.85-4.64,0.66-7.6,1.37-14.05
					c0.25-4.06,0.29-9.99,0.84-12.18c0.95,2.03,1.25,8.47,1.16,12.33c0.89,6.84,0.81,10.39,1.31,13.92
					c0.21,3.49,1.26,8.72,1.32,11.32"/>
				<g id="g1100" transform="translate(0,512.36)">
					<path id="path1102" class="st7" d="M4224.17,111.56c2.71,0.12,9-0.65,8.63-0.02"/>
					<path id="path1104" class="st7" d="M4221.69,116.51l13.66-0.04"/>
				</g>
			</g>
			<g id="g1106">
				<path id="path1108" class="st8" d="M4246.72,748.08c0.64-0.78,1.13-2.85,2.05-1.2c0.85,0.74,0.44,2.18,0.25,3.18
					c-0.4,1.43-0.65,3.19,0.41,4.39c0.82,1.32,1.82,2.73,2.01,4.27c-0.51,3.14,0.42,6.26,0.78,9.38c0.2,1.29,0.83,2.34,1.75,3.25
					c-0.08,1.19-0.21,2.36-1.19,3.17c-3.35,2.62-6.68,5.33-10.5,7.26c-3.27,1.67-6.59,3.71-10.38,3.71c-3.09,0.01-6.02,1.51-9.13,1
					c-1.5-0.08-3.06,0.07-4.32-0.89c-2.11-1.06-4.34-1.95-5.97-3.72c-1.77-1.35-3.16-3.11-4.27-5.03c2.74-5.15,5.88-10.07,9-15
					c0.69-1.66,1.49-3.27,2-5c1.37-0.45,1.97,0.72,3.03,1.18c1.72,0.57,3.42,1.34,5.28,1.07c2.63-0.13,5.35,0.41,7.84-0.65
					c2.69-0.61,5.11-1.94,7.59-3.1c1.25-1.97,2.74-3.88,3.75-5.94C4246.72,748.96,4246.72,748.52,4246.72,748.08L4246.72,748.08z"/>
				<g id="g1110">
					<path id="path1112" class="st10" d="M4196.97,794.83c0.86-1.86,1.67-3.75,2.57-5.6c1.51-2.16,2.98-4.35,4.51-6.49
						c1.56-1.72,3.11-3.44,4.67-5.16c-1.34,2.21-2.73,4.39-4.05,6.61c-0.98,2.4-2,4.79-2.97,7.2c-0.32,1.69-0.71,3.37-0.99,5.06
						c0,2.38,0,4.75,0,7.13"/>
					<path id="path1114" class="st10" d="M4245.72,796.33c-1.34,2.19-2.7,4.36-4.03,6.56c-0.85,1.8-1.66,3.62-2.58,5.4
						c-0.05,0.1-0.1,0.2-0.15,0.3"/>
				</g>
				<path id="path1116" class="st3" d="M3986.72,805.33l-0.5,7h13L3986.72,805.33z"/>
				<path id="path1118" class="st8" d="M4055.47,812.33l131-0.25c0,0,0.06-1.84,0-2.75c-0.08-1.26-0.31-2.5-0.5-3.75
					c-0.15-1-0.28-2.01-0.5-3c-0.2-0.93-0.27-1.93-0.75-2.75c-0.24-0.41-0.59-0.76-1-1c-0.52-0.31-1.75-0.5-1.75-0.5
					s-3.95,3.09-6.25,4c-3.39,1.34-7.12,1.63-10.75,2c-3.98,0.41-8,0.18-12,0.25c-6.42,0.11-12.83,0.15-19.25,0.25
					c-4.67,0.07-9.33,0.16-14,0.25c-7.67,0.15-15.33,0.48-23,0.5c-5.17,0.01-10.33-0.17-15.5-0.25c-5.08-0.08-10.17-0.08-15.25-0.25
					c-1.67-0.05-5-0.25-5-0.25s-1.18,3.36-2.25,4.75C4057.85,810.71,4055.47,812.33,4055.47,812.33z"/>
			</g>
			<g id="g1120">
				<path id="path1122" class="st7" d="M4060.3,807.59c28.2,0.32,56.41,0.37,84.6-0.19c7.76-0.15,15.94,0.21,23.28-0.87
					c6.06-0.89,9.45-1.63,16.57-5.66"/>
				<path id="path1124" class="st10" d="M4060.3,807.41l2.3,4.77l2.83-4.42l3.18,4.6l3.01-4.42l2.65,4.07l2.83-3.89l2.65,3.71
					l3.36-3.89l2.83,4.42l3.18-4.42l2.65,4.24l3.01-4.07l3.01,4.24l3.01-4.07l2.83,3.89l3.18-4.42l2.48,3.89l3.18-3.71l2.65,4.07
					l3.18-3.89l2.3,3.89l3.18-4.07l2.83,4.42l3.01-4.42l2.83,3.89l3.36-3.89l2.65,4.07l2.83-4.24l2.65,3.89l3.01-4.07l3.18,4.42
					l2.83-4.42l2.83,4.24l3.18-4.77l3.18,4.95l2.48-5.13l3.01,5.13l2.83-5.83l2.65,5.3l2.48-6.36l3.18,6.36l1.77-8.48l5.3,8.48"/>
			</g>
			<g id="g1126">
				<path id="path1128" class="st8" d="M4122.88,804.88l32.09,0.2c0,0,6.66-7.51,10-11.25c4.32-4.84,8.97-9.41,13-14.5
					c5.61-7.09,10.69-14.6,15.5-22.25c3.88-6.16,7.07-12.72,10.75-19c2.52-4.29,5.34-8.4,7.75-12.75c1.71-3.1,5.3-6,4.75-9.5
					c-1.09-6.93-14.75-15-14.75-15h-1.5c0,0-9.57,20.33-15.25,30c-5.29,9.01-11.35,17.55-17.5,26c-5.56,7.63-11.38,15.07-17.5,22.25
					c-3.83,4.49-7.91,8.75-12,13c-2.21,2.29-4.31,4.7-6.75,6.75C4128.79,801.09,4122.88,804.88,4122.88,804.88L4122.88,804.88z"/>
				<g id="g1130">
					<path id="path1132" class="st10" d="M4199.22,703.58c0,0,4.27,2.17,6.25,3.5c1.68,1.12,3.27,2.38,4.75,3.75
						c1.26,1.16,2.36,2.48,3.5,3.75c1.02,1.15,3,3.5,3,3.5"/>
					<path id="path1134" class="st10" d="M4197.97,706.33c0,0,4.27,2.17,6.25,3.5c1.68,1.12,3.27,2.38,4.75,3.75
						c1.26,1.16,2.36,2.48,3.5,3.75c1.02,1.15,3,3.5,3,3.5"/>
					<path id="path1136" class="st10" d="M4196.72,709.08c0,0,4.02,1.98,5.89,3.2c1.58,1.03,3.08,2.18,4.48,3.43
						c1.19,1.06,2.23,2.26,3.3,3.43c0.97,1.05,2.83,3.2,2.83,3.2"/>
					<path id="path1138" class="st10" d="M4194.97,712.21c0,0,3.96,1.95,5.8,3.14c1.56,1.01,3.03,2.14,4.41,3.36
						c1.17,1.04,2.19,2.22,3.25,3.36c0.95,1.03,2.79,3.14,2.79,3.14"/>
					<path id="path1140" class="st10" d="M4193.47,715.21c0,0,4.02,1.98,5.89,3.2c1.58,1.03,3.08,2.18,4.48,3.43
						c1.19,1.06,2.23,2.26,3.3,3.43c0.97,1.05,2.83,3.2,2.83,3.2"/>
					<path id="path1142" class="st10" d="M4192.09,718.39c0,0,3.96,1.87,5.8,3.02c1.56,0.97,3.03,2.05,4.41,3.23
						c1.17,1,2.19,2.13,3.25,3.23c0.95,0.99,2.79,3.02,2.79,3.02"/>
					<path id="path1144" class="st10" d="M4190.84,721.14c0,0,3.78,1.84,5.54,2.96c1.48,0.95,2.89,2.01,4.21,3.17
						c1.11,0.98,2.09,2.09,3.1,3.17c0.91,0.97,2.66,2.96,2.66,2.96"/>
					<path id="path1146" class="st10" d="M4189.59,723.89c0,0,3.72,1.87,5.45,3.02c1.46,0.97,2.85,2.05,4.14,3.23
						c1.1,1,2.06,2.13,3.05,3.23c0.89,0.99,2.61,3.02,2.61,3.02"/>
					<path id="path1148" class="st10" d="M4187.59,726.77c0,0,3.84,1.84,5.63,2.96c1.51,0.95,2.94,2.01,4.27,3.17
						c1.13,0.98,2.12,2.09,3.15,3.17c0.92,0.97,2.7,2.96,2.7,2.96"/>
					<path id="path1150" class="st10" d="M4186.59,729.77c0,0,3.66,1.87,5.36,3.02c1.44,0.97,2.8,2.05,4.07,3.23
						c1.08,1,2.02,2.13,3,3.23c0.88,0.99,2.57,3.02,2.57,3.02"/>
					<path id="path1152" class="st10" d="M4184.78,732.24c0,0,3.72,2.02,5.45,3.26c1.46,1.04,2.85,2.22,4.14,3.49
						c1.1,1.08,2.06,2.3,3.05,3.49c0.89,1.07,2.61,3.26,2.61,3.26"/>
					<path id="path1154" class="st10" d="M4182.78,734.74c0,0,3.9,2.06,5.71,3.32c1.53,1.06,2.99,2.26,4.34,3.56
						c1.15,1.1,2.16,2.35,3.2,3.56c0.94,1.09,2.74,3.32,2.74,3.32"/>
					<path id="path1156" class="st10" d="M4181.53,737.99c0,0,3.78,1.91,5.54,3.08c1.48,0.99,2.89,2.1,4.21,3.3
						c1.11,1.02,2.09,2.18,3.1,3.3c0.91,1.01,2.66,3.08,2.66,3.08"/>
					<path id="path1158" class="st10" d="M4180.03,740.61c0,0,3.66,1.91,5.36,3.08c1.44,0.99,2.8,2.1,4.07,3.3
						c1.08,1.02,2.02,2.18,3,3.3c0.88,1.01,2.57,3.08,2.57,3.08"/>
					<path id="path1160" class="st10" d="M4177.78,743.11c0,0,3.78,1.95,5.54,3.14c1.48,1.01,2.89,2.14,4.21,3.36
						c1.11,1.04,2.09,2.22,3.1,3.36c0.91,1.03,2.66,3.14,2.66,3.14"/>
					<path id="path1162" class="st10" d="M4175.41,746.05c0,0,3.96,1.87,5.8,3.02c1.56,0.97,3.03,2.05,4.41,3.23
						c1.17,1,2.19,2.13,3.25,3.23c0.95,0.99,2.79,3.02,2.79,3.02"/>
					<path id="path1164" class="st10" d="M4174.16,748.8c0,0,3.78,1.91,5.54,3.08c1.48,0.99,2.89,2.1,4.21,3.3
						c1.11,1.02,2.09,2.18,3.1,3.3c0.91,1.01,2.66,3.08,2.66,3.08"/>
					<path id="path1166" class="st10" d="M4172.66,751.3c0,0,3.78,1.91,5.54,3.08c1.48,0.99,2.89,2.1,4.21,3.3
						c1.11,1.02,2.09,2.18,3.1,3.3c0.91,1.01,2.66,3.08,2.66,3.08"/>
					<path id="path1168" class="st10" d="M4169.91,753.93c0,0,4.08,1.91,5.98,3.08c1.6,0.99,3.13,2.1,4.55,3.3
						c1.2,1.02,2.26,2.18,3.35,3.3c0.98,1.01,2.87,3.08,2.87,3.08"/>
					<path id="path1170" class="st10" d="M4168.66,756.93c0,0,3.96,1.95,5.8,3.14c1.56,1.01,3.03,2.14,4.41,3.36
						c1.17,1.04,2.19,2.22,3.25,3.36c0.95,1.03,2.79,3.14,2.79,3.14"/>
					<path id="path1172" class="st10" d="M4166.03,759.24c0,0,3.96,1.98,5.8,3.2c1.56,1.03,3.03,2.18,4.41,3.43
						c1.17,1.06,2.19,2.26,3.25,3.43c0.95,1.05,2.79,3.2,2.79,3.2"/>
					<path id="path1174" class="st10" d="M4163.53,761.99c0,0,4.14,2.06,6.07,3.32c1.63,1.06,3.17,2.26,4.61,3.56
						c1.22,1.1,2.29,2.35,3.4,3.56c1,1.09,2.91,3.32,2.91,3.32"/>
					<path id="path1176" class="st10" d="M4145.78,784.74c0,0,3.78,1.91,5.54,3.08c1.48,0.99,2.89,2.1,4.21,3.3
						c1.11,1.02,2.09,2.18,3.1,3.3c0.91,1.01,2.66,3.08,2.66,3.08"/>
					<path id="path1178" class="st10" d="M4161.28,765.36c0,0,3.96,1.95,5.8,3.14c1.56,1.01,3.03,2.14,4.41,3.36
						c1.17,1.04,2.19,2.22,3.25,3.36c0.95,1.03,2.79,3.14,2.79,3.14"/>
					<path id="path1180" class="st10" d="M4159.53,768.36c0,0,4.02,1.98,5.89,3.2c1.58,1.03,3.08,2.18,4.48,3.43
						c1.19,1.06,2.23,2.26,3.3,3.43c0.97,1.05,2.83,3.2,2.83,3.2"/>
					<path id="path1182" class="st10" d="M4156.91,771.05c0,0,3.96,1.87,5.8,3.02c1.56,0.97,3.03,2.05,4.41,3.23
						c1.17,1,2.19,2.13,3.25,3.23c0.95,0.99,2.79,3.02,2.79,3.02"/>
					<path id="path1184" class="st10" d="M4154.91,774.05c0,0,3.9,1.98,5.71,3.2c1.53,1.03,2.99,2.18,4.34,3.43
						c1.15,1.06,2.16,2.26,3.2,3.43c0.94,1.05,2.74,3.2,2.74,3.2"/>
					<path id="path1186" class="st10" d="M4152.66,777.05c0,0,3.72,1.87,5.45,3.02c1.46,0.97,2.85,2.05,4.14,3.23
						c1.1,1,2.06,2.13,3.05,3.23c0.89,0.99,2.61,3.02,2.61,3.02"/>
					<path id="path1188" class="st10" d="M4150.41,779.93c0,0,3.84,1.84,5.63,2.96c1.51,0.95,2.94,2.01,4.27,3.17
						c1.13,0.98,2.12,2.09,3.15,3.17c0.92,0.97,2.7,2.96,2.7,2.96"/>
					<path id="path1190" class="st10" d="M4148.41,782.43c0,0,3.66,1.87,5.36,3.02c1.44,0.97,2.8,2.05,4.07,3.23
						c1.08,1,2.02,2.13,3,3.23c0.88,0.99,2.57,3.02,2.57,3.02"/>
					<path id="path1192" class="st10" d="M4133.66,797.55c0,0,2.5,1.12,3.66,1.81c1.89,1.07,3.41,2.47,4.83,3.88
						c0.6,0.59,1.76,1.81,1.76,1.81"/>
					<path id="path1194" class="st10" d="M4144.03,787.11c0,0,3.6,1.95,5.27,3.14c1.41,1.01,2.75,2.14,4,3.36
						c1.06,1.04,1.99,2.22,2.95,3.36c0.86,1.03,2.53,3.14,2.53,3.14"/>
					<path id="path1196" class="st10" d="M4140.53,789.86c0,0,3.9,1.87,5.71,3.02c1.53,0.97,2.99,2.05,4.34,3.23
						c1.15,1,2.16,2.13,3.2,3.23c0.94,0.99,2.74,3.02,2.74,3.02"/>
					<path id="path1198" class="st10" d="M4138.28,792.74c0,0,3.84,1.84,5.63,2.96c1.51,0.95,2.94,2.01,4.27,3.17
						c1.13,0.98,2.12,2.09,3.15,3.17c0.92,0.97,2.7,2.96,2.7,2.96"/>
					<path id="path1200" class="st10" d="M4136.28,795.24c0,0,3.17,1.46,4.64,2.35c1.25,0.75,2.43,1.6,3.53,2.52
						c0.93,0.78,1.75,1.66,2.6,2.52c0.76,0.77,2.23,2.35,2.23,2.35"/>
					<g id="g1202" transform="translate(0,512.36)">
						<path id="path1204" class="st10" d="M4125.97,290.84c1.5,0.35,2.63,1.08,3.19,1.63"/>
						<path id="path1206" class="st10" d="M4130.97,287.22c0,0,2.58,1.2,3.75,2c1.36,0.94,3.75,3.25,3.75,3.25"/>
						<path id="path1208" class="st10" d="M4128.34,289.03c2.23,0.75,3.9,2.13,5.31,3.44"/>
					</g>
				</g>
				<path id="path1210" class="st21" d="M4238.56,700.95c2.49,2.13,4.58,3.83,4.4,8.66c0.5,5.92,1.76,11.72,2.66,17.58
					c0.36,3.84,0.81,7.72,0.22,11.57c-0.28,3.04-0.26,6.15,0.7,9.07c0.25,3.62-3.15,6-5.4,8.31c-2.6,1.89-5.89,1.55-8.84,2.19
					c-1.97,0.98-2.65-0.84-2.38-2.42c-0.15-7.19-0.8-15.64-0.95-22.83c-3.44-2.18-5.17-3.09-8.73-3.27c-3.5-0.1-5,1.21-4.96-3.42
					c0.3-3.52,3.41-5.54,6.81-4.18c2.47,0.72,2.11,0.25,4.38,1.62c-3.4-0.64-3.56-1.41-6.94-2.15c-2.4,0.64-4.26,0.8-4.48-2.7
					c-1.38-3.48,0.59-4.97,3.07-6.16c3.15-0.14,2.27,0.8,5.49,0.41c1.09,0.06,3.54,1.68,4.92,2.23c-3.11-0.39-5.63-2.93-8.81-2.64
					c-2.06-0.9-4.22,3.89-6.05-2.09c-0.2-3.09,2.91-4.77,4.89-6.59c1.64-1.3,3.97-0.39,5.8,0.04c1.9,0.76,3.98,1.31,5.91,1.83
					c-3.61-0.09-6.78-2.38-10.44-2.13c-3.48,0.4-4.59,5.49-6.61,2.13c-1.38-3.34,1.02-6.55,3.19-8.9c2.02-0.67,2.86-1.63,5.98-1.91
					c1.97,0.58,4.1,1.48,6.04,2.19C4231.5,697.45,4235.58,700.43,4238.56,700.95L4238.56,700.95z"/>
				<g id="g1212">
					<g id="g1214" transform="translate(0,512.36)">
						<path id="path1216" class="st10" d="M4239.22,198.09c0,0,0.29,1.08,0.25,1.63c-0.06,0.87-0.75,2.5-0.75,2.5"/>
						<path id="path1218" class="st10" d="M4237.84,208.72c0,0-0.02,0.85-0.13,1.25c-0.16,0.62-0.75,1.75-0.75,1.75"/>
					</g>
					<path id="path1220" class="st10" d="M4234.97,729.33c0,0-0.69,2.37-1.5,3.25c-0.45,0.49-1.09,0.88-1.75,1
						c-0.5,0.09-1.5-0.25-1.5-0.25"/>
				</g>
			</g>
			<path id="path1222" class="st6" d="M4222.22,812.33h8.75l0.06-78.53c-3.02-3-5.92-3.22-9.06-3.71L4222.22,812.33z"/>
			<path id="path1224" class="st19" d="M4130.76,608.46c0.64,1.89,1.55,3.59,2.03,5.47c0.89,3.51,0.53,7.27,1.52,10.75
				c0.86,3.03,2.49,5.79,3.79,8.66c1.2,2.65,2.77,5.15,3.68,7.92c0.52,1.58,0.87,3.24,1.01,4.9c0.35,4.12-0.22,8.27-0.4,12.41
				c-0.08,1.68-0.62,3.39-0.29,5.04c0.38,1.92,1.19,3.89,2.55,5.29c1.09,1.12,3.21,0.91,4.16,2.15c2.04,2.66,0.51,6.9,2.13,9.84
				c1.51,2.75,4.21,4.71,6.69,6.63c2.26,1.75,4.56,3.83,7.37,4.37c2,0.39,4-1.15,6.03-0.94c2.25,0.23,4.09,2.42,6.35,2.41
				c1.84-0.01,3.57-1.07,5.14-2.03c2.06-1.27,4.15-2.75,5.42-4.81c0.62-1.02,0.83-2.27,0.91-3.46c0.13-2.07-0.03-4.23-0.78-6.16
				c-0.45-1.15-1.21-2.22-2.15-3.01c-1.16-0.99-2.96-1.03-4.11-2.03c-0.7-0.61-1.23-1.44-1.58-2.3c-0.54-1.33-0.21-2.91-0.74-4.25
				c-1.19-3-3.22-5.64-5.34-8.06c-1.52-1.73-4.02-2.57-5.21-4.55c-1.12-1.86-1.01-4.22-1.48-6.34c-0.44-2.01-0.68-4.07-1.25-6.05
				c-0.92-3.19-1.69-6.54-3.48-9.34c-1.8-2.82-4.96-4.52-7.06-7.13c-2.75-3.42-2.85-10.13-7.13-11.05c-1.16-0.25,0.32,2.9-2.97,1.93
				c-4.22-1.24-6.85-3.18-10.35-4.6c-1.46-0.59-3.67-1.41-4.43-1.63V608.46z"/>
			<g id="g1226">
				<path id="path1228" class="st10" d="M4135.42,610.59c0.92,2.44,1.63,4.94,2.35,7.44c0.57,1.98,0.88,4.04,1.58,5.98
					c1.13,3.15,3.07,5.96,4.2,9.11c0.9,2.52,1.43,5.16,2.05,7.77c0.56,2.36,1.25,4.71,1.48,7.13c0.28,3.09-0.44,6.21-0.2,9.3
					c0.14,1.88,0.21,3.84,0.98,5.56c1.33,2.96,4.93,4.59,6.03,7.63c0.66,1.83-0.31,3.95,0.16,5.84c0.41,1.66,1.05,3.42,2.27,4.61
					c1.55,1.51,3.88,1.95,5.89,2.74c2.85,1.12,5.79,1.97,8.72,2.83c1.58,0.46,3.14,0.99,4.77,1.24c1.57,0.24,3.28,0.82,4.75,0.23
					c2.05-0.83,4.05-2.7,4.53-4.86c0.37-1.64-0.68-3.37-1.54-4.81c-0.62-1.04-1.36-2.28-2.53-2.62c-1.39-0.4-3.04,0.21-4.22,1.04
					c-0.86,0.61-1.5,1.62-1.75,2.65c-0.25,1.05-0.42,2.46,0.35,3.21c0.71,0.68,2.07,0.67,2.92,0.2c0.76-0.41,0.84-1.51,1.26-2.26"/>
				<path id="path1230" class="st10" d="M4138.01,611.24c1.45,2.51,3.15,4.89,4.46,7.48c1.69,3.34,3.1,6.83,4.33,10.37
					c0.94,2.7,1.63,5.49,2.35,8.26c0.79,3.01,1.8,6,2.16,9.09c0.45,3.82-0.98,7.83,0.01,11.55c0.27,1.01,0.96,1.86,1.56,2.73
					c1.75,2.55,4.79,4.3,5.86,7.21c0.64,1.72-0.34,3.74,0.14,5.52c0.51,1.88,1.03,3.98,2.8,5.11c2.02,1.28,5.16,3.48,7.85,2.94
					c2.68-0.53,4.91-3.79,6.5-3.51"/>
				<path id="path1232" class="st10" d="M4144.17,614.48c2.21,3.75,3.86,7.81,5.48,11.85c1.95,4.85,3.91,9.74,5.09,14.84
					c0.98,4.23,0.54,8.72,1.61,12.93c0.63,2.46,1.69,4.79,2.8,7.07c1.02,2.09,2.48,3.95,3.52,6.02c1.31,2.62,0.83,6.75,3.44,8.09
					c2.57,1.33,5.68-1.11,8.47-1.86c1.25-0.34,2.71-0.35,3.69-1.19c0.76-0.66,0.9-1.8,1.35-2.7"/>
				<path id="path1234" class="st10" d="M4148.05,614.48c1.43,3.1,3.43,5.9,4.79,9.02c1.13,2.6,1.87,5.35,2.78,8.03
					c1.31,3.88,2.95,7.67,3.85,11.66c0.9,3.97,0.35,8.21,1.54,12.1c1.02,3.33,3.09,6.23,4.71,9.31c0.99,1.88,1.22,4.52,3.06,5.59
					c1.72,1,4.2,0.79,5.97-0.11c0.89-0.46,1.59-1.43,1.8-2.41c0.26-1.21,0.16-2.85-0.81-3.63c-0.66-0.53-1.95-0.62-2.54-0.01
					c-0.51,0.53-0.19,1.51,0.06,2.21c0,0.03,0.06,0.07,0.06,0.07"/>
				<path id="path1236" class="st10" d="M4157.45,626.14c0.98,2.09,2.3,4.03,3.08,6.21c1.79,4.97,2.34,10.31,3.62,15.44
					c0.79,3.2,0.75,6.78,2.5,9.57c0.58,0.93,1.49,1.71,2.5,2.14c1.98,0.84,4.32,0.23,6.43,0.62c0.44,0.08,0.87,0.24,1.3,0.35"/>
			</g>
		</g>
	</g>
</g>
</svg>
