<?xml version="1.0" encoding="utf-8"?>
<!-- Generator: Adobe Illustrator 24.1.2, SVG Export Plug-In . SVG Version: 6.00 Build 0)  -->
<svg version="1.1" id="Слой_1" xmlns="http://www.w3.org/2000/svg" xmlns:xlink="http://www.w3.org/1999/xlink" x="0px" y="0px"
	 viewBox="0 0 359 539" style="enable-background:new 0 0 359 539;" xml:space="preserve">
<style type="text/css">
	.st0{fill:#FFFFFF;stroke:#000000;stroke-linecap:round;stroke-linejoin:round;}
	.st1{fill:none;stroke:#000000;stroke-width:2;stroke-linecap:round;stroke-linejoin:round;}
	.st2{fill:#555555;stroke:#000000;}
	.st3{fill:#FFAA55;stroke:#000000;stroke-linecap:round;stroke-linejoin:round;}
	.st4{fill:#AAAAAA;stroke:#000000;stroke-linecap:round;stroke-linejoin:round;}
	.st5{fill:none;stroke:#000000;stroke-linecap:round;stroke-linejoin:round;}
	.st6{fill:#AA5555;stroke:#000000;stroke-linecap:round;stroke-linejoin:round;}
	.st7{fill:#FFAAAA;stroke:#000000;stroke-linecap:round;stroke-linejoin:round;}
	.st8{fill:#FF5555;stroke:#000000;stroke-width:1.025;}
	.st9{fill:#FFFFFF;stroke:#000000;stroke-width:0.971;stroke-linecap:round;stroke-linejoin:round;}
	.st10{fill:#AA5500;stroke:#000000;stroke-width:0.801;stroke-linecap:round;stroke-linejoin:round;}
	.st11{stroke:#000000;stroke-width:0.971;stroke-linecap:round;stroke-linejoin:round;}
	.st12{fill:#FFFFFF;stroke:#000000;stroke-width:1.01;stroke-linecap:round;stroke-linejoin:round;}
	.st13{fill:#AA5500;stroke:#000000;stroke-width:1.042;stroke-linecap:round;stroke-linejoin:round;}
	.st14{stroke:#000000;stroke-width:1.01;stroke-linecap:round;stroke-linejoin:round;}
	.st15{fill:#AA5555;stroke:#000000;}
	.st16{fill:#5555AA;stroke:#000000;stroke-linecap:round;stroke-linejoin:round;}
	.st17{fill:#AAAAFF;stroke:#000000;stroke-linecap:round;stroke-linejoin:round;}
	.st18{fill:#AAAAFF;stroke:#000000;}
	.st19{fill:#AA0000;stroke:#000000;stroke-linecap:round;stroke-linejoin:round;}
	.st20{fill:#FFFF55;stroke:#000000;stroke-linecap:round;stroke-linejoin:round;}
	.st21{fill:#FFFF55;stroke:#000000;stroke-width:0.892;stroke-linecap:round;stroke-linejoin:round;}
	.st22{fill:#5555AA;stroke:#000000;stroke-width:0.993;stroke-linecap:round;stroke-linejoin:round;}
	.st23{fill:none;stroke:#000000;stroke-width:0.993;stroke-linecap:round;stroke-linejoin:round;}
	.st24{fill:none;stroke:#000000;}
	.st25{fill:#FFAA55;stroke:#000000;}
	.st26{fill:#FFAA55;fill-opacity:0.331;stroke:#000000;stroke-linecap:round;stroke-linejoin:round;}
	.st27{fill:#FFFF55;stroke:#000000;}
</style>
<g id="g13574" transform="translate(3930,1227.64)">
	<path id="rect13576" class="st0" d="M-3900.6-1227.6h299.1c16.5,0,29.9,13.4,29.9,29.9v479.1c0,16.5-13.4,29.9-29.9,29.9h-299.1
		c-16.5,0-29.9-13.4-29.9-29.9v-479.1C-3930.5-1214.2-3917.1-1227.6-3900.6-1227.6z"/>
	<path id="path13578" d="M-3911-1198.1v50h5h5c5.5,0,10-4.5,10-10v-10c0-3-1.3-5.7-3.4-7.5c2.1-1.8,3.4-4.5,3.4-7.5v-5
		c0-5.5-4.5-10-10-10h-5H-3911z M-3906-1193.1h5c2.8,0,5,2.2,5,5v5c0,2.8-2.2,5-5,5h-5V-1193.1z M-3906-1173.1h5c2.8,0,5,2.2,5,5v10
		c0,2.8-2.2,5-5,5h-5V-1173.1z"/>
	<path id="path13580" d="M-3591-718.1v-50h-5h-5c-5.5,0-10,4.5-10,10v10c0,3,1.3,5.7,3.4,7.5c-2.1,1.8-3.4,4.5-3.4,7.5v5
		c0,5.5,4.5,10,10,10h5H-3591z M-3596-723.1h-5c-2.8,0-5-2.2-5-5v-5c0-2.8,2.2-5,5-5h5V-723.1z M-3596-743.1h-5c-2.8,0-5-2.2-5-5
		v-10c0-2.8,2.2-5,5-5h5V-743.1z"/>
	<g id="g13582" transform="translate(0,512.36)">
		<path id="path13584" class="st1" d="M-3881-1710.5h280v380"/>
		<path id="path13586" class="st1" d="M-3621-1230.5h-280v-380"/>
		<path id="path13588" class="st1" d="M-3901-1470.5h300"/>
	</g>
	<g id="g13590" transform="matrix(1,0,0,0.99584,0,3.01)">
		<g id="g13592">
			<g id="g13594" transform="translate(0,512.36)">
				<path id="path13596" class="st2" d="M-3791.9-1478.4l-1.2-15.9l-1.2-1.4l-15.4,8.7l-1.2,8.5L-3791.9-1478.4z"/>
				<path id="path13598" class="st3" d="M-3656.3-1624.8l8.9,63.3l1.6-0.6l2.8-1.1l2.4-1.1l1-1.1l-7.6-61.3L-3656.3-1624.8z"/>
			</g>
			<g id="g13600">
				<path id="path13602" class="st4" d="M-3810.8-1205.2c-3.3,1.4-7.3,2.8-9,6.3c-1.3,2.6,2.2,6.1-0.4,8c-3,2.1-2.9,5.9-2.6,9
					c0.3,3.2,2.7,6.3,5.8,7.3c1.6,0.5,2.9,1.4,1.1,2.9c-2.5,2.2,0.2,6,2.3,8.1c1.6,1.5,3.2,1.2,5.5,1.2c1.9,0-1.8,3.9,0.7,5.8
					c2.6,1.9,6.1,3.8,9.3,2.6c2.8-1,4.7-3.6,5.3-6.3c0.5-2.1,0.6-2.1,0.8-0.1c0.2,2,4.1,2.6,4.6-0.3c0.5-3.3,2-6.5,2.3-9.9
					c0.2-2.3,1.5-4.8,0.9-7c-0.6-2.1-1.5-3.3-0.5-5.6c1.4-3.2-3.8-6-2.4-9.6c1.3-3.3,3.9-5.9,6.8-8c2-1.5,4-3.2,6-4.8
					C-3786.4-1205.5-3798.6-1205.3-3810.8-1205.2L-3810.8-1205.2z"/>
				<g id="g13604">
					<path id="path13606" class="st5" d="M-3779.8-1201.7c-3.6-1.1-7.4-1.5-11.1-0.7c-5.8,1.3-11.7,3.3-16.3,7
						c-2.5,2-3.4,5.5-3.6,8.7c-0.3,5.1-0.6,10.4,1,15.2c0.9,2.6,3.1,4.8,5.6,5.9c2.6,1.1,4.7-1.9,5-4.5c0.2-2.3,2.5,3,5,1.8
						c2.2-1.1,3.4-3.7,4-5.9c0.2-0.8,0.2-1.7,0.2-2.6"/>
					<path id="path13608" class="st5" d="M-3799-1202.2c-2.7-1-6-0.7-7.8,1.8c-0.9,1.3-1.2,3-1.5,4.5"/>
					<path id="path13610" class="st5" d="M-3811-1198.7c-2.8,1.3-6.4,2.7-7.5,5.8c-0.8,2.4,0.7,5.1,1.8,7.4c0.6,1.2,1.7,1.7,3,1.9"
						/>
					<path id="path13612" class="st5" d="M-3817.7-1183.9c-0.9,3-0.6,6.3,1.9,8.8c1.7,1.7,3,3.9,5.5,3.4"/>
					<path id="path13614" class="st5" d="M-3806.3-1161.2c2.3,1,5.1,1,7.2-0.9c1.8-1.6,0.6-6.3,3.9-4.2c2.8,1.8,5.7-1,6.6-3.5
						c0.4-1.2,0.7-2.5,0.6-3.8"/>
					<path id="path13616" class="st5" d="M-3804.3-1157.7c1.9,1.6,4.4,1.8,6.5,0c1.9-1.7,1.1-5,3.1-5.7c2.1-0.8,5,0,6.1-2.3
						c0.6-1.3,1.2-2.5,1.6-3.8"/>
					<path id="path13618" class="st5" d="M-3789.8-1199.9c-0.9,1.9-1.9,4.2-0.4,6.2c0.8,1.1,1.1,2.7,2.4,3.3"/>
					<path id="path13620" class="st5" d="M-3793.8-1196.7c-1.2,2.3-2.4,5.7-0.4,7.7c1.3,1.4,3.7,2.2,5.6,1.5"/>
					<path id="path13622" class="st5" d="M-3798-1195.2c-0.8,2.9-0.7,6.2,1.4,8.5c1.3,1.4,2.9,3,4.8,3c0.9,0,4.3-2.6,3-0.8
						c-1.3,1.9-4.1,3.3-2.5,5.6c1.3,2,3.9,3.5,6.3,2.6"/>
					<path id="path13624" class="st5" d="M-3803.3-1191.9c-1.5,2.6-0.4,5.3,2,7.3c1.9,1.5,3.8,3.1,6.3,2.7c0.4-0.1,0.8-0.1,1.2-0.2"
						/>
					<path id="path13626" class="st5" d="M-3804.8-1183.9c-0.2,3,2.2,4.6,4.8,5.5c2.2,0.7,4.7,0.7,6.5-0.7"/>
					<path id="path13628" class="st5" d="M-3806-1178.2c0.7,2.7,2.5,4.9,5.3,6c3.2,1.3,7.1-0.5,8.5-3.3l0.3-0.5"/>
					<path id="path13630" class="st5" d="M-3813.3-1170.7c-1.1,3,2.2,5.8,5,5.3c0.6-0.1,1.2-0.4,1.8-0.8"/>
					<path id="path13632" class="st5" d="M-3781-1200.7c-3.3-0.4-6.5-0.2-9.8,0.5c-5.6,1.2-11.4,3-15.5,7.1
						c-2.8,2.7-2.6,6.8-3.3,10.3c-0.7,3.5,1.3,6.7,1.7,10.1c0.3,2.5,2.2,5,4.7,5.3c1.6,0.2,3.1-1.2,4.5-2"/>
				</g>
			</g>
			<g id="g13634">
				<path id="path13636" class="st0" d="M-3793.4-1082.2c1.1,3.8,1.9,5.3,3.4,8.9c10.7,1,21.6,2.8,32.3,3.4
					c10.7,0.6,21.5,0.5,32.2-0.4c5.6-0.5,11-1.9,16.4-3.3c1.6-0.4,3.2-0.9,4.7-1.5c0-2.6,0-5.2,0-7.8c-1.7-1.4-3.7-2.7-4.5-5
					c-0.5-1.6-0.8-3.2-2.2-4.4c-1.3-1-3-1.1-4.4-2c-1.1-0.8-3.4,0.1-4-1c-1.5-2.7-3.4-5.3-4.2-8.3c-0.3-1.3-0.6-2.9,0.1-4
					c0.9-1.3,2.8-2.4,2.9-3.9c0.2-3.8-2.7-7.4-2.1-11.3c0.2-1.3,1.8-2.4,0.6-3.6c-0.5-0.6-2.5-2.5-2.7-1.2c-1.4,6.1-3.6,12-6,17.8
					c-1.3,3.2-3.3,6.2-5.1,9.1c-1.3,2-2.9,3.7-4.6,5.3c-1.8,1.7-3.9,3.3-6.3,4c-2.2,0.7-4.7,0.7-7,0.2c-2-0.4-4-0.9-5.6-2.3
					c-1.8-1.6-3.4-2.9-4.5-5.2c-0.7-1.5-1.8-4.2-2.4-6c-2-1.4-3.7-1.7-5-3.7c-0.9-1.4-3.1-3-4.2-4.2c-1.1,1-0.7,3.4-1.3,4.7
					c-0.7,1.7-2.3,0.3-3.2,1.4c-1.6,1.9-1,4.4-1.1,6.6c-0.2,2.6-0.9,5.7-3.3,7c-1.1,0.6-2,2.3-3.3,1.9c-1.3-0.4-1.3-2.7-3-1.5
					c-1.6,1.1-1.4,3.5-2.5,5c-0.8,1.1-0.1,0.6-1.1,1.9C-3794.4-1084.9-3793.6-1083.2-3793.4-1082.2L-3793.4-1082.2z"/>
				<path id="path13638" class="st3" d="M-3788.5-1069l12.3,1.1l14.3,1.3l9.3,0.3h8.8l10.5-0.5l8.8-0.5l7.3-1l5.8-1.8l4.8-1.5l2-0.3
					l-2,17.6l-2.5,17.9l-2,12.3l-4.1,16l-5.1,17.7l-4.2,14.1l-0.3,1.1l-10.8,0.5l-11.6,0.3h-11l-4.5-11.1l-4.6-14.7l-3.8-13.8
					l-4.9-13.9l-3.9-12.7l-3.1-11.2l-2.5-9.5L-3788.5-1069z"/>
				<path id="path13640" class="st6" d="M-3784.8-1165.4c-3.1,0-3,5.5-4.9,7.9c-1.3,1.7-3,3.1-3.8,5.1c-0.5,1.2-0.8,2.3-0.8,3.6
					c0,1.9,0.6,3.9,1.8,5.4c0.9,1.1-0.4,2-0.9,3c-0.6,1.1-1.2,2.7-2.4,3c-1.1,0.3-2.1-0.1-3,0.9c-0.8,0.9-1.4,1.8-1.9,2.9
					c-0.6,1.7-0.7,3.5,0,4.9c0.5,1,5.1,3,6.1,2.8c1.9-0.4-2-0.5-2.5,0.7c-0.5,1-2.2,0.6-3,1.4c-1.1,1-2.3,1.7-2.8,3.1
					c-0.5,1.6-1.3,3.2-1.3,4.9c0.1,1.5,0.1,3.2-0.4,5.6c-1.2-1.1-1-2.3-3.8-2.1c-1.6,0.1-2.9,2-3.5,3.4c-0.7,1.5,0.5,3.2,1.3,4.6
					c0.7,1.1,1.7,1.6-0.3,1.5c-1.2-0.1-2.1,0.4-3.1,1.1c-1.4,0.9-2,2.3-2.4,3.8c-0.3,1.1-0.2,2.3,0.7,3.4c1.2,1.4,2.3,2.8,4,3.6
					c0.8,0.4,2.3-0.8,2.7,0.7c0.4,1.5,0.7,2.9,2,3.9c0.9,0.8,1.7,1.3,2.8,1.6c1.6,0.5,3.2-0.3,4.7-0.7c1.5-0.4,2.8,0.9,4.3,0.5
					c1-0.2,1.1-1.9,1.6-2.7c0.9-1.6,1.4-3.4,2.5-4.9c1-1.4,0.8,0,1.9,0.9c1.2,1,3.6,0.4,4.8-0.3c2.1-1.2,1.7-2.8,2.4-5
					c0.7-2.1,0.4-4,0.9-6.1c0.3-1.2,0.1-3.1,1.1-3.9c0.9-0.6,2.1,0.3,2.8-0.9c0.7-1.1,0.5-2.2,0.8-3.2c1.5-0.6,0.8-1.6,0.1-2.6
					c-1.1-1.8-2.2-3.6-2.7-5.7c-1.4-5.3-3.8-10.3-4.5-15.6c-0.6-4-0.3-8-0.8-11.9c-0.5-3.2-0.1-6.4-0.3-9.7
					C-3784.8-1159.6-3784.7-1162.5-3784.8-1165.4L-3784.8-1165.4z"/>
				<path id="path13642" class="st7" d="M-3784-1178.7c-0.4,1.5-0.3,1.4-0.5,3.2c-0.4,5.3-1.1,6.5-1.5,11.8
					c-0.3,5.4-0.3,13.2,0,18.6c0.4,4.9,1.8,10.5,2.8,15.3c0.7,3.8,2.2,6.2,3.3,9.8c1,2,1.5,4.4,2.9,6.2c2.8,2.3,4.1,4.2,6.2,7.1
					c1.3,1.1,2.6,1.6,4.5,2.1c0.2,1.9,0.9,4.6,1.6,5.6c0.5,1.4,1.8,2.5,2.8,3.5c2.1,1.3,4.2,2.9,6.4,4c2.6,0.1,5.2,0.9,7.7-0.1
					c3.3-0.5,5.7-3,8-5.2c2.4-2.1,4.1-4.9,6-7.4c3.4-7.5,8.4-15.2,10.9-23c0.6-1.4,1-2.7-0.5-3.5c-0.8-1-2.5-1.7-2-3.2
					c0.8-1.8-1.1-1.9-1.3-3.3c-1.2-1.7,1.7-1.8,1.3-3.4c0-2.7,0.8-5.2,1.3-7.8c0.2-1.5-0.8-2.5-1.4-3.7c-0.2-1.9,0.2-3.7,0.9-5.4
					c0.6-1.8-0.9-2.1-2.1-2.9c-1.6-0.7-1-2.1-1.6-3.3c-0.8-1.3,0.1-3,0.1-4.6c0-1.2-0.5-2-1-3.3c-0.3-1.3-0.4-1.2-0.7-3.2
					c-2.9-0.9-6.7-1.8-9.1-2.9c-4-2.3-8.1-3.2-12.4-3.5c-4.3-0.8-9.1-0.3-13.5-0.3c-4.6,0.5-8.9,1.3-13.6,2.5
					c-1,0.3-1.6,0.1-2.7,0.3L-3784-1178.7z"/>
				<g id="g13644">
					<path id="path13646" class="st5" d="M-3784.7-1164.5c0.7-0.9,2-0.8,2.8-1.4c1.3-1,3.1-0.8,4.7-0.9c1.9-0.1,3.8,0.1,5.5,0.8
						c1.1,0.4,2,1.2,2.6,2.2c0.5,0.8,0.4,1.8,0.5,2.7c0.1,0.4,0.1,0.8,0.1,1.2"/>
					<path id="path13648" class="st5" d="M-3768.3-1160.4c0.4,3.7,0.3,4.9,0,8.1c-0.2,2.3-0.3,3-0.4,5.3c-0.1,1-0.1,2.9-0.4,3.9
						c-0.3,0.9-0.6,2.9-0.6,3.9c0,1,0,2.9,1,3.4c1.4,0.6,2.4-0.3,3.8,0.2c0.6,0.3,1.6,1,2.2,0.6c1-0.8,1.5-0.1,2.5-0.9
						c0.5-0.5,1.4-1.1,2.1-0.9c1,0.3,2.1,1.1,3,0.6c0.6-0.3,1.1-1.4,0.3-1.9c-0.1-0.1-0.8-1.4-0.9-1.4"/>
					<path id="path13650" class="st5" d="M-3758.7-1162.8c0.9-0.9,1.4-2.3,2.6-2.9c1.5-0.7,3.2-1.1,5-1.1c2.3,0,4.7-0.2,7,0.1
						c1.2,0.2,2.6-0.1,3.7,0.3c1.2,0.5,1.8,0.3,3.2,1.2"/>
				</g>
			</g>
			<g id="g13652" transform="matrix(1.06615,0,0,0.89639,-10.607,62.55)">
				<path id="path13654" class="st8" d="M-3525.8-1326.5c0.3-0.8,1.5-1.1,2.2-1.5c0.6-0.3,0.9-1,1.7-1c0.9-0.1,1.9,0,2.5,0.7
					c0.5,0.4,1.6,0.3,1.6-0.3c0.4-0.3,1.6-0.3,2.1-0.2c1.4,0.2,2.1,0.8,3.3,1.3c0.5,0.2,1.3,0.4,1.4,1c-0.2,0.6-1.4,0.5-1.7,1
					c-0.8,0.8-1.3,0.9-2.2,1.7c-0.7,0.7-1.5,1.5-2.6,1.6c-1.4,0.2-2.8-0.1-4.1-0.3c-0.9-0.2-1.8-0.6-2.1-1.4
					c-0.2-0.6-0.7-0.3-1.2-0.9c-0.3-0.5-0.6-1-0.9-1.5L-3525.8-1326.5L-3525.8-1326.5L-3525.8-1326.5z"/>
				<path id="path13656" class="st8" d="M-3525.5-1325.9c0.9-0.1,1.9-0.1,2.8-0.3c0.8-0.2,1,0.7,1.7,0.8c1,0.3,2.1,0.4,3.1,0.2
					c0.7-0.2,1.2-0.7,1.8-1c0.6-0.4,1.4-0.5,2.2-0.4c0.8,0.1,1.6,0.4,2.4,0.5c0.2,0,0.3-0.1,0.5-0.1"/>
			</g>
			<g id="g13658">
				<g id="g13660">
					<path id="path13662" class="st5" d="M-3765.7-1104.4c0,0,3.1,0.6,4.6,0.5c2.3-0.1,4.6-0.7,6.9-1.2c2.2-0.5,4.4-1.1,6.5-1.9
						c2.3-0.9,4.5-2.2,6.5-3.5c1.8-1.2,3.4-2.4,4.9-3.9c1.4-1.3,2.6-2.9,3.7-4.4c1.1-1.4,2.2-2.8,3-4.4c0.8-1.5,1.8-4.6,1.8-4.6"/>
					<path id="path13664" class="st5" d="M-3782.1-1157.9c0.5-0.8,0.7-1.8,1.4-2.3c0.9-0.7,1.9-1.5,3-1.5c1.9-0.1,3.7,0.4,5.5,0.8
						c0.7,0.1,0.8,0.8,1.3,1.2c0.4,0.4,0,0,0.1,0.1c0,0,0,0.1,0,0.1"/>
					<path id="path13666" class="st5" d="M-3755.9-1158.5c0.4-0.7,0.5-1.7,1.1-2.2c1-0.8,2.1-1.4,3.3-1.6c1.1-0.2,2.2-0.2,3.3,0.1
						c1.8,0.4,3.6,0.7,5.3,1.5c0.6,0.3,1,1,1.4,1.5"/>
				</g>
				<g id="g13668" transform="matrix(1.06615,0,0,1,-11.807,0)">
					<path id="path13670" class="st9" d="M-3536.6-1155.7c1.4-0.6,2-2.1,3.5-2.3c1.8-0.3,3.7-0.2,5.6-0.4c1-0.1,2,0.6,3,0.7
						c-0.2,0.8-0.3,1.5-0.9,2.1c-0.8,0.8-1.1,1.3-2,1.9c-0.9,0.6-2,1.1-3.1,1.3c-0.8,0.1-1.7,0.2-2.4-0.1c-0.8-0.4-1.7-0.7-2.2-1.3
						C-3536-1154.6-3535.9-1154.8-3536.6-1155.7L-3536.6-1155.7z"/>
					<g id="g13672">
						<path id="path13674" class="st10" d="M-3528.1-1155.5c0,1.5-1,2.8-2.1,2.8s-2.1-1.2-2.1-2.8s1-2.8,2.1-2.8
							S-3528.1-1157.1-3528.1-1155.5z"/>
						<path id="path13676" class="st11" d="M-3529.5-1155.8c0,0.6-0.3,1-0.6,1c-0.3,0-0.6-0.4-0.6-1c0-0.6,0.3-1,0.6-1
							C-3529.7-1156.8-3529.5-1156.3-3529.5-1155.8z"/>
					</g>
				</g>
				<g id="g13678" transform="matrix(0.96664,-0.19269,0.18982,0.98126,-107.5,46.549)">
					<path id="path13680" class="st12" d="M-3402.4-1894.7c1.2-0.3,2.3-0.8,3.4-0.9c1.7-0.1,1.4,0,3.1,0.2c1.4,0.2,3,0.2,4.4,0.7
						c1,0.4,2,0.8,2.8,1.5c0.5,0.4,0.9,1,1.4,1.5c-0.8,0.5-1.5,1.4-2.4,1.6c-1.3,0.4-2.7,0.7-4.1,0.7c-1.1-0.1-2.1,0-3.2-0.3
						c-1.6-0.4-1.3-0.4-2.7-1.2c-0.7-0.4-1.4-1-1.9-1.7C-3401.9-1893.3-3402.1-1894-3402.4-1894.7L-3402.4-1894.7z"/>
					<g id="g13682">
						<path id="path13684" class="st13" d="M-3392-1892.3c0,1.5-1.2,2.8-2.8,2.8s-2.8-1.2-2.8-2.8s1.2-2.8,2.8-2.8
							S-3392-1893.8-3392-1892.3z"/>
						<path id="path13686" class="st14" d="M-3393.6-1892.7c0,0.7-0.3,1.3-0.8,1.3c-0.4,0-0.8-0.6-0.8-1.3c0-0.7,0.3-1.3,0.8-1.3
							C-3394-1894-3393.6-1893.4-3393.6-1892.7z"/>
					</g>
				</g>
			</g>
			<g id="g13688">
				<path id="path13690" class="st15" d="M-3766.3-1134.8c-1.3,0-1.5,1.6-2.6,2.2c-0.9,0.5-1.6,0.5-2.7,1.9
					c-0.8,1.1-2.3,1.4-3.3,2.3c-0.5,0.5-1.9-0.2-2.2,0.4c-0.3,0.7-0.5,1.6,0.3,1.6c0.4,0,1.3,0.5,1.7,0.2c0.4-0.3,0.4-0.3,1-0.4
					c0.9-0.1,1.7-0.6,2.6-0.6c0.5,0,0.9,0.6,1.4,0.5c0.6-0.2,1.4,0,2-0.4c1.1-0.7,1.9-1.4,3.1-1.6c1.1-0.2,1.2-2.4,2.3-2.4
					c0.5,0,0.4,0.2,1.1,0c0.5-0.2,1.5,1.9,2,1.8c0.8-0.1,1.5,0,2.2,0.3c0.7,0.2,1.2,0.9,1.9,1.3c0.5,0.2,0.8,0.6,1.4,0.5
					c0.7-0.1,1.3-0.2,2,0.1c0.5,0.2,1,0.6,1.5,0.3c0.8-0.4,1.5-0.5,2.3-0.5c1.3,0,2.6,0.5,4,0.4c0.5,0,1.4-1.1,1.6-1.6
					c0.1-0.4-0.6-1.3-1.1-0.8c-1.2,1.2-2.1,0.8-3.3,0.4c-0.9-0.3-2.2-0.7-3-1.1c-0.7-0.4-0.7-1.1-1.4-1.6c-1-0.7-2.2-0.4-3.3-1
					c-0.7-0.4-1.7-2.1-2.4-2.3c-1.2-0.3-1.7,0.1-2.9,0c-0.5-0.1-0.9-0.4-1.4-0.2c-0.9,0.5-1.9,0.9-2.9,0.8
					C-3765.1-1134.3-3765.6-1134.8-3766.3-1134.8L-3766.3-1134.8z"/>
				<path id="path13692" class="st15" d="M-3730.8-1172.9c-2.8,0,1.2,5.6,0.4,8.2c-0.4,1.4-0.3,2.5,0.5,3.8c0.9,1.6,3,2.1,3.5,3.8
					c0.7,2.1-1.5,4.6-0.9,6.7c0.4,1.4,1.4,2.4,1.3,3.9c-0.2,2.4-2,4.5-1.5,7c0.3,1.5-1.3,2.1-1,3.4c0.3,1.3,2,2.2,1.5,3.3
					c-0.7,1.5,0.6,2.6,1.5,3.4c1.2,1.4,1,1.8,2,2.4c1.5,0.8,2.4,1.9,2,3.6c-0.3,1.3-1.3,2.2-1,3.7c0.3,2,0,4.3,1,6.1
					c0.8,1.4,0.7,0.8-0.3,2.1c-1.4,1.7-1.6,4.1-2.1,6.2c-0.3,1.4,0.9,3.8,1.6,5.1c0.8,1.4,1.7,2.5,1.9,4.3c0.2,1.8,3.3,0.7,4.8,1.5
					c1.6,0.8,2.7,1.8,4.4,2.2c1.9,0.4,1.5,2.9,2.1,4.4c0.6,1.5,1.8,2.8,3.1,3.8c1.9,1.4,4.5,1.9,6.9,1.2c2.1-0.7,4.1-1.5,5.9-2.8
					c0.9-0.6,2.6,0.4,3,1.7c0.5,1.4,2.3,1.8,3.6,2.3c1.3,0.5,3.2,0.2,3.7-1.1c0.6-1.6,2-0.2,3-0.2c1.1,0,2.4-1.1,3-2
					c1.8-2.5,1.2-5.8,1.1-8.7c-0.1-2-0.7-4.3-2.1-5.9c-1.1-1.3-2.2-3.4-3.9-3.6c-1.9-0.3-1.5-1.2-1.7-2.6c-0.2-1.7-0.4-3.5-1.8-4.8
					c-1.4-1.3-2.9-2.6-4.9-2.5c-1.4,0.1-0.1-2.3-0.4-3.3c-0.7-2-1.4-4-3.1-5.5c-1-0.9-2.8-1.2-3.5-2.4c-0.7-1.2-0.3-2.6,0-4
					c0.3-1.3,1.4-2.1,1.3-3.6c-0.1-2.7,0.1-5.6-1.3-8c-0.7-1.3-2.3-1.6-3.5-2.3c-2.3-1.4-4.6-2.9-6.1-5c-1.4-2-1.1-4.7-1.3-7.1
					c-0.1-1.5-1.8-2.4-2.8-3.4c-2.5-2.6-4.2-5.8-6.5-8.7c-1.1-1.4-2.3-3-3.8-4c-1.8,0-3.5-0.3-5.1-1
					C-3727.5-1172.1-3729.1-1172.5-3730.8-1172.9L-3730.8-1172.9z"/>
			</g>
		</g>
		<path id="path13694" d="M-3743.9-1042.7c0,0-1.1,3.5-2,5c-0.8,1.3-1.9,2.5-3,3.5c-1.1,1-2.3,1.7-3.5,2.5c-1.3,1-2.9,1.7-4,3
			c-1.2,1.4-2.5,3.1-2.5,5c0,1.5,0.9,3,2,4c1.3,1.2,3.2,2,5,2c2,0,4.1-1.1,5.5-2.5c1.1-1,2-4,2-4v1c0,0.5-0.1,2.1-0.5,3
			c-0.6,1.5-1.4,2.8-2.5,4c-1.1,1.2-4,3-4,3v0.5c0,0,4-0.8,6-1c1-0.1,2-0.1,3,0c2,0.2,6,1,6,1v-0.5c0,0-2.9-1.8-4-3
			c-1.1-1.2-1.9-2.5-2.5-4c-0.4-0.9-0.5-2.5-0.5-3v-1c0,0,0.9,3,2,4c1.4,1.4,3.5,2.5,5.5,2.5c1.8,0,3.7-0.8,5-2c1.1-1,2-2.5,2-4
			c0-1.9-1.3-3.6-2.5-5c-1.1-1.3-2.7-2-4-3c-1.2-0.8-2.4-1.5-3.5-2.5c-1.1-1-2.2-2.2-3-3.5
			C-3742.9-1039.2-3743.9-1042.7-3743.9-1042.7"/>
		<g id="g13696">
			<g id="g13698">
				<g id="g13700" transform="translate(0,512.36)">
					<path id="path13702" class="st5" d="M-3781.4-1608.4c0,0,2,3.7,3.2,5.5c1.1,1.6,2.3,3.2,3.7,4.6c1.1,1.1,2.3,2,3.5,3
						c1.3,1,3.9,3,3.9,3s2.9-3.2,4.2-4.9c1.2-1.5,2.2-3.1,3.4-4.6c0.7-0.8,2.1-2.3,2.1-2.3"/>
					<path id="path13704" class="st5" d="M-3744.1-1605c0,0,3.7,3.4,5.7,4.9c1.4,1.2,3,2.3,4.3,3.6c1,0.9,2.6,2.9,2.6,2.9
						s2.6-1.8,3.9-2.8c1.4-1.1,2.8-2.1,4.1-3.4c0.7-0.8,1.3-1.6,1.9-2.5c0.7-0.9,1.4-1.7,1.9-2.7c0.4-0.7,1.1-2.1,1.1-2.1"/>
				</g>
				<g id="g13706">
					<path id="path13708" class="st16" d="M-3809.7-1089.6c-4.7,1.5-9.4,3.1-14.1,4.6c5.5,14.8,11.1,29.7,16.6,44.5
						c1.9,0.1,2.9,1.7,3.6,2.7c2.2-1.2,4.7-1,6.7,0.4c1.6,0.7,2.7,1.7,2.9,3.4c0.7,2.4-2.2,1.9-2.2,3.5c-0.6,2.3,1.3,2.3,3.1,2.5
						c1.6,0.4,3.4,0.7,3.7,2.6c0.7,1.8,0,3.7-0.4,5.5c1.9-0.2,3,1,3.8,2.6c0.6,1.9,0.4,3.9,0.4,5.9c-2.8,0.5,1.9,0.8,1,2.8
						c0.3,1.9-0.1,3.6-1.2,5.1c1.7,0.1,4-0.4,3.2,2.1c0.2,2.4-0.2,5.1-1.5,7.1c-1.3,0.5-0.9,3.7,0.3,3.9c2-0.1,1.9,2.3,1.9,3.7
						c-0.6,1.9,1.4,2.7,2.9,2.4c4.6,0.3,9.5,0.2,13.9,1.8c2.1,0.3,1.4,3-0.5,3.1c-2.5,1.4-5.5,1.4-8.2,2.2c0.3,1.3-1.2,4.3,1.2,3.4
						c4.8-0.6,9.6-1,14.4-0.8c-2.6-5.8-5-11.7-6.9-17.7c-3.2-9.3-5-19-8.5-28.1c-2.5-7-4.9-14.1-6.8-21.4c-1.8-7.1-4.4-14-6-21.1
						c-2.5-7.6-5.4-15-8.1-22.6c-2.7,0.5-5.4-0.9-8,0.4c-1.5,1-3-0.2-4.1-1.3C-3807.9-1087.3-3808.3-1089-3809.7-1089.6
						L-3809.7-1089.6z"/>
					<path id="path13710" class="st16" d="M-3704.7-1082.7l0.2,7.4l-1.1,11l-1.6,11.7l-1.8,12.4l-2.1,14.3l-4.1,16.1l-3.9,14
						l-3.4,12.4l-2.8,8l5.1,0.1l7.2,0.4l5.8,0.5l3.7-13.3l4.9-17.5l3.5-14l3.2-15.2l2.5-12l2.1-14.5l1.4-10.4l0.7-9.9l-2.1-0.5
						l-1.8-0.7l-1.1-1.4l-0.9-1.2l-1.6-1.1l-2.1,1.4l-2.7,1.6l-2.1,0.7l-2.1,0.2L-3704.7-1082.7z"/>
				</g>
				<g id="g13712">
					<path id="path13714" class="st17" d="M-3660.8-1149.5c0.7,3.3,1.3,9.2,2,15c0.3,2.9,1.1,8,1.2,10.9c-1.2,0.1-2.5-0.2-3.6,0.3
						c-1,0.5-2.1,1.1-2.8,2c-0.8,1.2-1.4,2.4-1.7,3.9c-0.2,1.2-0.4,2.4-0.2,3.5c0.4,1.8,2,2.9,3,4.4c0.8,0.6,0.1,1.3-0.1,2
						c-0.6,0.4-1.4,0.7-2.2,0.8c-1.2,0.1-2.5,0.2-3.6-0.4c-1.5-0.9-3.1-1.5-4.4-2.6c-1.3-1.1-2.3-2.3-3.3-3.7
						c-0.6-0.9-1.1-1.8-1.2-2.9c-0.3-2.2-0.3-3.3-0.3-5.5c-1.6-0.6-2.4-0.8-3-0.9c-1.8-0.4-2.2-1.6-3.7-2.8
						c-1.7-1.3-3.3-2.8-5.1-4.1c1.5-1.8,2.3-3.2,3.5-5.2c0.6-0.9,1.8-2.7,2.7-3.2c1.3-0.7,2.2-1.8,3.7-2.1c-0.2-0.5-1-1.1-1.2-1.8
						c-0.5-1.7-0.9-3.4-0.9-5.2c0-1-0.3-2.1,0-3c0.6-1.6,1.5-3,2.4-4.4c0.5-0.8,1.2-1.2,1.9-1.6c1.5-0.7,3.1-1.4,4.7-2
						c-0.2,1.3-0.8,2.6-0.4,4c0.4,1.4,0.3,3,1,4.2c0.6,1.1,1.3,2.2,2.5,2.7c0.8,0.4,1.4,1.2,2.5,1c1-0.2,2.1,0,3-0.6
						c0.9-0.5,1.8-0.8,2.4-1.7C-3661.5-1148.7-3661.1-1149.1-3660.8-1149.5L-3660.8-1149.5z"/>
					<path id="path13716" class="st17" d="M-3663-1147.5c0-7.3,0.1-14.7,0.1-22c-0.6-2-1.9,0.4-2.8,0.9c-1.3,0.9-2.4,2.3-3.8,3
						c-1.9,0.5-2.2-0.6-1.8-2.2c0.2-7.5,0.4-15,1.2-22.5c0.4-4.9,1-9.7,1.5-14.6c2.3,0,4.6,0,6.9,0c2,7.6,3.8,15.3,7.3,22.4
						c1.6,4.3,3.2,9.3,4.1,12.9c-0.6,1.2-1.6,2.3-2.9,2.8c-1.4,0-2-1.9-3-2.7c-0.7-0.8-2.1-2.8-2.7-1.1c2.5,6.3,5.1,12.6,7.4,19
						c1.4,12.9,2.6,25.8,4.4,38.7c0.5,4.5,1.5,9.1,0.4,13.5c-0.9,1.1-1.8,2.1-3.3,2.1c-1.2,0.2-2.1-1.7-2.4-2.8
						c-0.7-3.3-1.7-6.4-2.9-9.5c-2.4-10.5-3.3-21.2-4.7-31.9c-0.3-2.5-0.6-5-1-7.5C-3661.7-1148.5-3662.3-1148-3663-1147.5
						L-3663-1147.5z"/>
					<path id="path13718" class="st17" d="M-3666.1-1204.4c0.8,11.3,1.5,22.5,2.3,33.8"/>
					<path id="path13720" class="st17" d="M-3664.8-1204.5c2.2,11,4.4,22.1,6.6,33.1"/>
					<g id="g13722" transform="translate(0,512.36)">
						<path id="path13724" class="st17" d="M-3650-1628.1c0,1.3-0.8,2.3-1.8,2.3s-1.8-1-1.8-2.3c0-1.3,0.8-2.3,1.8-2.3
							S-3650-1629.4-3650-1628.1z"/>
						<path id="path13726" class="st17" d="M-3648.4-1617.6c0,1-0.6,1.8-1.4,1.8s-1.4-0.8-1.4-1.8c0-1,0.6-1.8,1.4-1.8
							S-3648.4-1618.6-3648.4-1617.6z"/>
					</g>
				</g>
			</g>
			<path id="path13728" class="st18" d="M-3651.5-1151.9l3.3,0.5l4-3.3l1.5-5l0.5-3.3v-4.5l-1.5-3l-0.8-1.8l-2.3-2.5l5.3-8.5
				l2.8-6.5l2.3-6.3l2.3,0.5l5.3,4.5l5.5,5.5l5,7.3l4.5,9l2.5,6.8l2.8,10.5l0.8,9.5v5.8l-0.8,7.8l-1.5,8l-2.3,9l-3.8,9l-3.8,6.5
				l-5,7.8l-6-6.5l-5-5.5l-4.5-3l3.5-4.8v-5l-2-6l-3.5-2.8l-2.8-1.3l-3.5-0.3L-3651.5-1151.9z"/>
		</g>
		<path id="path13730" d="M-3631.3-1151.2c0,0-0.3,2.8-0.8,4.1c-0.4,1.1-1.1,2.1-1.8,3.1c-0.7,0.9-1.6,1.6-2.3,2.4
			c-0.9,0.9-2,1.7-2.6,2.8c-0.7,1.3-1.5,2.7-1.2,4.2c0.2,1.1,1.1,2.1,2.1,2.8c1.2,0.7,2.7,1.1,4.1,0.8c1.5-0.3,2.9-1.4,3.8-2.7
			c0.7-0.9,1-3.3,1-3.3l0.1,0.8c0.1,0.4,0.2,1.6,0,2.4c-0.2,1.2-0.7,2.4-1.3,3.4c-0.7,1.1-2.6,2.8-2.6,2.8l0.1,0.4
			c0,0,2.9-1.2,4.4-1.6c0.7-0.2,1.5-0.3,2.3-0.4c1.6-0.2,4.7-0.1,4.7-0.1l-0.1-0.4c0,0-2.4-0.9-3.5-1.7c-1-0.7-1.8-1.7-2.5-2.7
			c-0.4-0.7-0.7-1.8-0.8-2.2l-0.1-0.8c0,0,1.1,2.1,2.1,2.8c1.3,0.9,3,1.4,4.5,1.1c1.4-0.2,2.7-1.1,3.5-2.2c0.7-0.9,1.2-2.2,1-3.3
			c-0.3-1.4-1.5-2.5-2.6-3.5c-1-0.8-2.3-1.2-3.5-1.7c-1-0.5-2.1-0.8-3-1.4c-1-0.6-2-1.4-2.8-2.2
			C-3630-1148.7-3631.3-1151.2-3631.3-1151.2"/>
		<g id="g13732">
			<g id="g13734">
				<path id="path13736" class="st19" d="M-3684.9-1081.5c1.7,0.2,2.2-2.2,3.4-2c1.4,0.2,2.7,0.7,3.7-0.5c1-1.3,2.3,1.1,3.4,1.5
					c2.5,0.9,4.8,2.4,6.6,4.2c4.2,4.4,7.4,9.8,9.5,15.4c1.1,3.1,0.8,6.6-0.2,9.9c-1.8,5.4-3.1,11.1-3.2,16.9c0,3.6-1.3,7.7,0.5,11
					c1.7,3.2,3,4.7,4.8,7.8c0.8,1.4,1.3,3,2,4.3c-4.1,4.9-8.7,11.4-12.4,16.6c-2.4,3.4-3.6,7.5-6.5,10.6c-0.9,1-1.9,1.7-2.5,3.2
					c-1-1-0.9-3.9-1.3-6c-0.2-1.6-0.6-3.8-0.8-5c-1.4,0.2-2.6,3.1-3.2,4.3c-2,4.3-3.4,7.2-4.5,11.5c-0.4,1.6-0.9,3-1.8,4.3
					c-6.5-0.6-13.1-1.1-19.6-1.1c2.7-9.8,5.9-19.5,8.3-29.3c3.3-13.6,6.7-27.1,9-40.9c1.3-7.8,2.8-15.5,3.6-23.3
					C-3685.6-1072.5-3685.3-1077-3684.9-1081.5L-3684.9-1081.5z"/>
				<g id="g13738">
					<path id="path13740" class="st5" d="M-3666.8-1027.4c-2.5,4.4-5.4,8.7-7,13.5c-1.6,5.1-1.8,10.5-3,15.7
						c-0.4,1.6-0.6,3.2-1.1,4.7"/>
					<path id="path13742" class="st5" d="M-3674-1062.3c-0.2,9,0.3,18-1,26.9c-0.7,5.2-1.2,10.4-1.8,15.5c-0.8,6.6-2,13.1-1.9,19.7
						c0.1,2.2,0.2,4.3,0.3,6.4"/>
				</g>
				<path id="path13744" class="st19" d="M-3824.3-1085.2c-7.8,3.5-15.8,8-22.3,13.6c-3.4,2.9-5.4,6.3-6.9,10.6
					c-3.6,8.4-7.8,16.7-10.6,25.5c-2.4,7-4.3,14.1-6.1,21.3c-2.8,11.7-6.2,23.3-9,35c-0.6,2.6-1.3,2-1,4.6c2.9-3.5,7.2-8.7,10.5-12
					c3.9-3.2,7.5-6.7,12-9.2c3.1-1.7,6.2-3.3,9.5-4.6c2.9-0.8,5.7-1.9,8.7-1.5c3.5,0,6.7-0.3,10-1.9c1.6-0.3,3.4-0.5,5.1-0.3
					c2.7,1,3.7,0.4,7.1,0.1c1.8-3.5,3-9.5,5.5-12.6c1.1-1.9,2.6-3.9,4.1-5.3c0-1.6-0.2-2.3-0.8-2.6c-0.6-0.2-1.5,0.1-2.9,0.6
					c-1.6-0.1-3.5-1.2-3.3-3.1c-0.1-1.9-0.1-3.8,1.2-5.3c0.4-2,2.9-0.6,4-1.9c2.2-0.6-0.4-2.5,0.3-4c0.6-1.8,0-1,2.2-2.5
					C-3812.4-1054.8-3818.9-1071.2-3824.3-1085.2L-3824.3-1085.2z"/>
				<g id="g13746">
					<path id="path13748" class="st5" d="M-3838.7-1067.2c1.4,5.6,2.7,11.2,3.8,16.9c0.7,3.9,1.7,7.8,2.2,11.7c1,7.5,1,15,1.7,22.5
						c0.4,3.7,1.7,7.2,2,10.9c0,0.4,0.1,0.8,0.1,1.2"/>
					<path id="path13750" class="st5" d="M-3843.5-1042.8c2.1,4.6,4.2,9.3,6.2,14c1.3,3.2,2.4,6.6,4.2,9.7c0.8,1.5,0.8,3.2,1.2,4.8
						c0.7,3.6,1.3,7.2,1.9,10.7"/>
				</g>
				<g id="g13752">
					<path id="path13754" class="st20" d="M-3788.7-1069.1l12.3,1.3l14.3,1.3l9.3,0.3h8.8l10.5-0.5l8.8-0.5l7.3-1l5.8-1.8l4.8-1.5
						l2.3-0.7l0.1-2.7c-1.5,0.6-3,1.1-4.5,1.5c-5.4,1.4-10.8,2.8-16.4,3.3c-10.7,0.9-21.4,1-32.2,0.4c-10.7-0.6-21.6-2.4-32.3-3.4
						C-3789.4-1071.2-3789.1-1071.2-3788.7-1069.1L-3788.7-1069.1z"/>
					<path id="path13756" class="st20" d="M-3783.8-1053.4c-6.9-1.2,13.9,0.9,20.9,0.8c2,0,3.9,0,5.9,0c0.5,3.9,1.5,7.8,1.3,11.8
						c0,1.3,0.4,3-1.5,2.5c-1.7-0.1-3.1,0.5-4.5,1.3c-1.5,0.9-3.3,1.3-4.2,3c-1,1.9-2.8,3.4-2.9,5.7c-0.1,1.8-0.8,3.4-0.1,5.2
						c1,2.5,1.2,5.4,3,7.4c1.6,1.8,4.4,1.6,6.7,2c1.8-0.3,1.4,1.6,1.6,2.8c0.6,3.1,0.8,6.3,0.7,9.5c1.9,0.5,4.2,0.3,5.9,1.2
						c2.3,1.3,4.5,2.8,6,5c0.9,1.3,2.2,3.4,2.3,5c0.8,0.1,1.5-2.6,2-3.6c1.1-2.1,1.8-2.5,3.5-4c1.3-1.2,2.8-2.5,4.5-2.9
						c1.5-0.4,3.1-0.5,4.6-0.7c-0.3-3.2-0.1-6.4-0.4-9.6c-0.2-1.3-0.9-2.9,1.1-2.9c1.9-0.5,3.6-1.3,5.2-2.5c1.4-1,2.5-2,3.5-3.5
						c1-1.6,1.4-3.5,1.4-5.3c0.1-2.1,1.1-4.5-0.1-6.4c-1.3-2.1-1.7-4.2-3.7-5.5c-2.8-1.8-7.8-2.5-11.2-1.9c0.3-4.6,0.3-9.2,0.3-13.8
						c2.8,0.2,5.6,0.9,8.3,0.6c5.7-0.6,11.3-2,16.9-3.1c-0.2,1.8-0.3,3.5-0.5,5.3c-3.9,0.8-7.9,1.5-11.9,1.8c-2.5,0.1-6-0.4-8.5-0.3
						c-0.1,1.9-0.2,3.9-0.4,5.8c1.9,0,4.9,0.5,6.8,1.3c2.3,0.9,4.3,2.2,5.8,4c1.3,1.6,2.4,3.6,2.7,5.6c0.4,2.3,0.5,4.5,0,6.8
						c-0.6,2.6-0.9,5.3-2.3,7.5c-1.3,2-3.1,3.5-5.2,4.7c-1.5,0.9-3.3,1-4.9,1.5c0.5,4.1,0.9,8.2,1.1,12.4c-2.3,0.6-4.7,0.5-6.9,1.4
						c-2.5,1-4.6,3.1-6,5.3c-1.6,2.6-3.9,8.5-3.9,8.5s-1.1,0.3-2.9,0.1c-0.1-2.2-0.8-5.8-1.9-7.5c-1.8-2.8-4.6-4.8-7.8-5.9
						c-2.1-0.8-4.4-0.9-6.7-0.6c0.2-4.2-0.3-8.4-0.7-12.6c0-1.4-2.1-0.9-3.2-1.3c-1.6-0.5-3.4-0.7-4.6-1.7c-2.5-2-3.4-5.3-4.3-8.3
						c-0.7-2.2-1-4.5-0.5-6.9c0.7-3.2,2.6-5.9,4.4-8.6c1.1-1.6,2.9-2.4,4.6-3.2c1.7-0.7,3.5-1.1,5.3-1.4c-0.5-2.7-0.9-5.4-0.7-8.1
						c-3.8,0.3-7.6,0.6-11.4,0.3c-3.6-0.3-7.3-0.1-10.9,0.3C-3782.8-1050.4-3783.3-1051.9-3783.8-1053.4L-3783.8-1053.4z"/>
					<g id="g13758">
						<path id="path13760" class="st21" d="M-3768.9-1059.6c0,2-1.8,3.5-4,3.5c-2.2,0-4-1.6-4-3.5c0,0,0,0,0,0c0-2,1.8-3.5,4-3.5
							C-3770.7-1063.1-3768.9-1061.5-3768.9-1059.6C-3768.9-1059.6-3768.9-1059.6-3768.9-1059.6z"/>
						<path id="path13762" class="st20" d="M-3742.4-1057.9c0,1.8-1.6,3.3-3.6,3.3c-2,0-3.6-1.5-3.6-3.3c0,0,0,0,0,0
							c0-1.8,1.6-3.3,3.6-3.3C-3744-1061.2-3742.4-1059.7-3742.4-1057.9C-3742.4-1057.9-3742.4-1057.9-3742.4-1057.9z"/>
						<path id="path13764" class="st20" d="M-3718.3-1059.9c0,1.6-1.5,2.8-3.3,2.8s-3.3-1.3-3.3-2.8c0-1.6,1.5-2.8,3.3-2.8
							S-3718.3-1061.5-3718.3-1059.9L-3718.3-1059.9z"/>
					</g>
				</g>
				<path id="path13766" class="st5" d="M-3765.7-1118c0,0,0.6-0.6,0.9-0.8c0.4-0.2,0.9-0.4,1.4-0.4c0.6-0.1,1.2-0.1,1.8,0
					c0.4,0.1,0.9,0.3,1.3,0.5c0.2,0.1,0.5,0.4,0.5,0.4"/>
				<g id="g13768" transform="matrix(1.01871,0,0,1,-4.472,2)">
					<path id="path13770" class="st22" d="M-3700.5-1207.1c-3.4,2.2-6.7,4.4-9.4,7.3c-1.1,1.1-3.1,5.4-2.9,7c0.2,1.3,0.3,4.9,0.8,6
						c0.5,1.3,0.3,1.3,1.2,2.6c5.3-1.7,13-4,18.6-4.9c3.5-0.6,7.1-0.4,10.7-0.2c4.2,0.3,8.4,1.1,12.5,2.2c3.4,0.9,6.8,2,9.8,3.8
						c3.3,2,6,4.8,8.5,7.8c2.4,2.9,5.1,5.7,7.1,8.9c1.5,2.3,2.7,4.7,4.8,6.6c1.5,1.4,2.5,3.5,4.6,4c1.4,0.4,2.6,1.2,4.1,0.7
						c1.6-0.6,3.3-0.6,4.5-1.9c1.2-1.4,3.2-2.1,3.6-4.1c0.4-1.9,1.9-3.7,1.9-5.6c0-3.1-0.4-6.1-1.4-9.1c-0.7-2.1-1-4.2-2.4-5.9
						c-3-3.8-5.3-8.2-8.7-11.8c-2.3-2.4-4.6-5-7-7.3c-1.5-1.4-3.2-2.4-5.1-3.4c-2.1-1.1-3.9-2.4-5.8-2.6
						C-3667.8-1206.9-3683.5-1207.1-3700.5-1207.1L-3700.5-1207.1z"/>
					<g id="g13772">
						<path id="path13774" class="st23" d="M-3688.6-1195.9c0.6,2.9,3,5,5.9,5.5c0.7,0.1,1.4,0.3,2.1,0.5"/>
						<path id="path13776" class="st23" d="M-3683.8-1198.7c0.7,2.4,2,5.1,4.7,5.9c3.5,1,7.2,2.1,9.8,4.9"/>
						<path id="path13778" class="st23" d="M-3668.6-1196.2c1.9,2.6,4.2,4.9,7.2,6.2c4.2,1.9,6.9,6,9.1,10c1.5,2.7,3,5.4,4.5,8"/>
						<path id="path13780" class="st23" d="M-3649.6-1185.7c2.3,4,4.7,7.9,7,11.9c1.6,2.8,1.9,6.1,1.3,9.3"/>
						<path id="path13782" class="st23" d="M-3649.1-1193.9c2.8,6.1,6.8,11.6,8.9,18c1.3,3.9,0.8,9.3,0.9,13.3"/>
						<path id="path13784" class="st23" d="M-3645.6-1196.8c1,3.9,2.7,7.5,4.6,11c3.7,6.5,5.3,14.3,4.6,21.8c0,0.4-0.4,3.6-0.5,4.1"
							/>
						<path id="path13786" class="st23" d="M-3643-1199.6c0.8,3.4,2.4,6.5,4.1,9.6c2.2,3.9,3.3,8.3,4.4,12.6c0.8,3,1.5,6,0.8,9.2
							c-0.5,2-1.1,7.8-1.2,9.9"/>
						<path id="path13788" class="st23" d="M-3634.1-1187.2c0.5,3.4,1.3,6.7,2.5,9.9c1.3,3.3,0.6,6.8,0.7,10.3c0,2-1.6,7.7-2.2,9.5"
							/>
						<path id="path13790" class="st23" d="M-3630.4-1184.7c0.3,3.2,1,6.2,2.2,9.2c1.9,5.1-0.7,13.1-3.1,18"/>
						<path id="path13792" class="st23" d="M-3626-1177.8c1.6,2.5,2.2,5.4,2,8.4c-0.4,3.7-2.5,10.5-5.3,12.5"/>
					</g>
				</g>
				<path id="path13794" class="st3" d="M-3781.4-1183.1c-0.9,0.2-1.7,0.3-2.5,0.8c-0.7,0.4-1.5,0.8-1.8,1.5c-0.2,0.7,0,3.5,0.5,4
					c0.6,0.7,0.6,0.9,2.4,1.3c1.2,0.2,2.7,0.2,3.9-0.3c1.8-0.6,4.7-1.7,6.4-2c2.5-0.4,5-0.9,7.5-1c2.9-0.1,5.9-1.3,8.8-0.8
					c3.1,0.5,6.2,0.2,9.3,1.1c3,0.9,5.9,2,8.8,3.3c1.6,0.7,3.1,1.8,4.8,2.3c1.3,0.4,2.6,0.4,3.9,0.8c1.5,0.4,2.8,1.2,4.3,1.7
					c1,0.3,2,0.6,3,0.8c0.7,0.1,2.3,0.3,2.3,0.3s-2.3-3.5-3.8-5c-2.4-2.4-5.1-4.9-8-6.6c-4.4-2.5-9.1-4.3-14-5.4
					c-4.3-1-8.8-0.9-13.3-0.8c-3,0.1-6,0.6-9,1c-2.3,0.3-4.5,1.2-6.8,1.5C-3776.6-1184.6-3779.6-1183.5-3781.4-1183.1
					L-3781.4-1183.1z"/>
				<g id="g13796">
					<path id="path13798" class="st5" d="M-3789.1-1157.3c-0.1,2.6,0.6,5.5-0.6,7.9c-1.3,2.7,2,7.2,1.1,10.3
						c-0.7,2.5-6.2,3.2-5.3,5.5c0.8,2-0.4,5.8-3.1,4.2c-1.7-0.9-0.9-3.8,0.6-3.5"/>
					<path id="path13800" class="st5" d="M-3794.2-1121.6c-3.4,2-5.7,7-6.4,10.8c-0.5,2.6-1.7,5.3-3.8,7.1c-1.3,1.1-3.1,1.8-4.6,0.9
						"/>
					<path id="path13802" class="st5" d="M-3790.5-1092.9c-2.6-1.4-1.3-4.8-1.9-6.6c-0.9-2.4-2.1-5-1.8-7.6c0.4-2.9,0.5-14,0.6-17.1
						l0.2-2.1l1.5-2.4l1.3-1.5v-2.4l1.6-1.3l2.4-1.3l1.5-1.5l0.3-1.9"/>
					<path id="path13804" class="st5" d="M-3809-1091.2c3.2-0.1,4.3-0.7,5.7-2.7c1.5-2.1,2.6-5.4,4.1-7.4c1.4-1.9,2.6-9.3,5.5-10"/>
					<path id="path13806" class="st5" d="M-3729.1-1172c0.6,4,2.5,7.7,3,11.7c0.4,3.6,3.8,6.5,3.1,10.2c-0.6,3.5,0.2,7.2-1,10.6
						c-1.3,3.8,2.3,5.9,3.4,9c1.2,3.3,1.2,6.6,4.4,8.9c3.5,2.5-0.6,6.9-1.6,9.9c-1.3,3.7-2,8.4,0.2,11.9c2,3,6.5,1.1,8.5,5.5
						c1.3,3,2.8,6.6,6,7.9c3.4,1.3,7.9,0.6,10.4-1.9c2.8-2.7,0-8.9-4.4-9.1c-3.5-0.2-6.7,7.9-1.2,6.1"/>
					<path id="path13808" class="st5" d="M-3726.2-1171.2c2.4,3.6,3.4,9.5,4.4,13.7c0.7,3.1,1.5,6,1.3,9.3c-0.2,4,0.7,7.7,1.4,11.8
						c0.5,3.2,0.9,6.6,3.1,8.6c2.7,2.4,6.8,3.1,6.4,7.1c-0.4,4-1.5,7.7-3,11.4c-1.6,3.8,2.5,8.4,5.4,9.9c3,1.5,8.7,0.3,9.1-3.6
						c0.5-4.4-1.1-8.9-3.3-4.6c-1.6,3.2-6.8,1.6-5.6-3.1c0.9-3.6,3.3-3.2,3.7-6.5c0.3-3.4-0.8-4.9-1.6-8.1c-0.8-3.4-7.3-3.5-8.9-7.1
						c-1.6-3.6-1.8-7.7-2.1-11.6c-0.4-5.6-0.6-11.2-2.4-16.6c-0.9-2.9-0.3-5.8-2.4-8.3"/>
					<path id="path13810" class="st5" d="M-3714-1159.7c1.4,3.7,1.8,7.6,2.8,11.4c1.2,4.1,2.9,7.9,2.8,12.2c-0.1,4,4.1,5,5.8,8.4
						c1.6,3.4,2.1,6.4,2.5,9.8c0.3,3.1-2.9,7.9,2.3,8.4c3,0.3,5.9,1.6,7.4,4.4c2.1,3.7,1.4,7.8,1,11.8c-0.3,2.8,1.3,6.3-2.5,7.1"/>
					<path id="path13812" class="st5" d="M-3706-1145.3c0.9,2.3,1,4.9,2.2,7.1c1.6,2.8,7.9,3.5,5.7,7.8c-1.9,3.6,1.2,7.1,1.4,10.6
						c0.2,3.5,1.2,9.2,4.2,8.5c4.3-1,3.4,2.3,4.7,4.2c1.9,2.6,3.9,4.1,3.8,7.7c-0.1,3.3-2.8,5.4-2.8,9.2c0,2.7,3.5,4.2,4.4,6.5"/>
					<path id="path13814" class="st5" d="M-3681.3-1103c1,3.7,2.5,7.1,2.9,11.1c0.3,2.8-3,5.8-4.3,1.8c-0.5-1.4,0.9-2.6,1.6-3.8"/>
					<path id="path13816" class="st5" d="M-3808.1-1108.5c-0.1,0.5-0.3,1,0.1,1.4c0.4,0.6,1.1,1,1.9,0.7c0.7-0.2,1.2-0.7,1.4-1.4
						c0.2-0.6,0.3-1.3,0.3-1.9"/>
					<path id="path13818" class="st5" d="M-3809.9-1102.7c0.6,0.5,1.4,0.8,1.8,1.6c0.5,1.1,0.9,2.4,0.3,3.6
						c-0.3,0.7-0.4,1.7-1.1,2.1c-0.8,0.5-1.8-0.1-2.4-0.7c-0.4-0.4-0.1-1-0.1-1.6"/>
					<path id="path13820" class="st5" d="M-3793.1-1101c-0.7,1.3-1.5,2.5-1.8,3.9c-0.4,1.9-0.9,3.7-1.8,5.4c-0.8,1.6-1.9,3-3.1,4.4
						c-0.4,0.5-0.8,1.1-1.5,1.3c-0.7,0.3-1.3,0.7-2,1c-0.6,0.2-2.5,0.1-2.5-0.7"/>
					<path id="path13822" class="st5" d="M-3783.9-1133.3c-0.6,1.1-1.1,2.5-2.4,2.9c-1.2,1-1.8,2.6-2.2,4.1
						c-0.6,2.3-1.5,4.5-1.4,6.9c0,3.1,0.3,6.3,0.2,9.4c0,2.6-0.4,4.7,1,6.9c1.1,1.3,3.3,2.5,4.2,4c0.6,1.4,0.8,3.4-0.6,4.3
						c-1.6,0.9-4.3-0.6-3.7-2.1c0.2-0.5,0.9-1.6,1.3-1.6"/>
					<path id="path13824" class="st5" d="M-3782.8-1129.4c-1,1.9-2,3.8-2.3,5.9c-0.2,1.7-1,3.2-0.9,5c-0.1,3.3,0.2,4.3,0.2,7.5
						c0.1,1.9,0.9,3,2.2,5.8c1.6,1.5,1.5,5.7,1.7,7.8c0.1,0.9-0.1,1.8-0.3,2.6"/>
					<path id="path13826" class="st5" d="M-3780.4-1120.5c0,0-1,1.6-1.3,2.5c-0.3,0.9-0.4,1.9-0.3,2.9c0.1,1,0.4,2,0.9,2.9
						c0.3,0.6,0.9,1,1.4,1.5c0.6,0.6,1.4,0.9,1.8,1.6c0.3,0.6,0.3,2.1,0.3,2.1"/>
				</g>
				<path id="path13828" class="st7" d="M-3811.1-966.2c-2.6-0.5-4.9-1.7-7.2-2.9c-1.3-0.7-2.6-1.6-3.5-2.7
					c-1.1-1.3-1.8-2.8-2.4-4.4c-0.5-1.4-1.2-3.2-0.2-4.2c0.9-0.9,1.3-0.7,1.4-1.8c0.2-2-0.4-3.9-0.3-5.9c0.1-1.7,0.6-3.3,1.5-4.7
					c1.6-2.7,2.4-5.8,3.7-8.7c1.4-2.9,1.9-6.2,3.2-9.1c1.2-2.8,2.6-5.4,4.5-7.8c1-1.3,2-2.8,3.4-3.8c2.5-1.8,4.9-3.7,7.8-4.7
					c1.2-0.4,2.2-1.4,3.4-1.4c1.4,0,3,0.3,4.2,0.9c1.1,0.5,1.7,1.5,2.2,2.7c0.8,1.7,0,3.6-1.1,4.8c-0.7,0.7-1.9,0.6-2.9,0.9
					c-2.3,0.9-4.9,0.7-7.2,1.4c-1.7,0.5-2.9,1.9-4.2,3c-0.9,0.8-0.4,1.5,0.4,0.7c1-1.1,2-2.9,3.5-3.2c3.7-0.9,7.4-1.9,11.2-2.4
					c1.2-0.2,2.5,0.3,3.2,1.5c0.9,1.7,1.5,3.6,1,5.3c-0.4,1.2-1.7,2.1-3.2,2.2c-2.3,0.1-4.6,0.5-6.8,0.8c-2.2,0.4-3.6,1.8-5.4,3.2
					c-0.9,0.7-1,1.6-0.1,0.8c2.7-2.2,3.1-2.5,5.1-3.2c2.2-0.7,4.5-1,6.7-1.5c1.4-0.3,2.9,0,4.1,0.8c0.7,0.5,0.6,1.7,0.8,2.5
					c0.2,1-0.3,1.8-0.9,2.6c-0.8,1-2.1,1.4-3.2,2c-1.6,0.8-3.4,0.9-4.9,2c-0.8,0.5-1.7,1.2-2.4,1.7c-0.7,0.5-1.4,0.7-1.2,1.2
					c0.1,0.4,1.7-0.6,2.4-1c2.7-1.7,5.1-4.1,8.2-5.1c0.9-0.3,1.1,0.3,2,0.8c1,0.5,1.5,0.9,1.4,2c-0.1,1.3,0.6,2.7,0.2,3.9
					c-0.6,1.7-2.3,2.6-3.9,3.1c-1.2,0.4-2.3,1.2-3.2,2.1c-0.9,0.8-1.4,1.7-2.4,2.3c-1,0.5-2.4,0.7-2.9,1.7c-0.3,0.6,2.2-1.4,2.3-0.4
					c0,1.2-0.1,2.3-0.6,3.3c-0.5,1-0.8,2-1.8,2.8c-2.1,1.7-3.2,4.4-5.3,6c-1.9,1.4-4.4,1.7-6.8,1.7c-1,0-1.7,0.1-1.9,1.3
					c-0.2,1.2,0.1,2.3,0,3.5c-0.1,1.4-0.5,3.6-1,3.5L-3811.1-966.2z"/>
				<g id="g13830">
					<path id="path13832" class="st5" d="M-3812.5-1009.2c0.2,0.9,0.3,1.8,0.5,2.8c0.9,0.8,2.1,0.9,3.1,0.3"/>
					<path id="path13834" class="st5" d="M-3809.9-1004.5c0.1,1.7-0.5,3.8,1.2,4.9c0.9,0.7,2,0.6,3.1,0.6"/>
					<path id="path13836" class="st5" d="M-3804.4-993.4c0,1.2,0.2,2.6,1.5,2.8c0.4,0.4,0.8,0,1.2-0.2"/>
				</g>
				<path id="path13838" class="st16" d="M-3886-965.7c0,0,2.2-2.9,3-4.5l1.8-3.8l3.5-3.1l4.3-5.3l4.4-4.5l3.6-3.6l5.8-4.1l5.9-3.1
					l6.1-3l5.6-1.4l4,0.4l3-0.9l4.3-0.6l3.5-0.9l1.8-0.1l2,0.1l1.9,0.8l1.8-0.4l1.6-0.1c0.3,0,1-0.3,1-0.3s-0.5,1.5-0.8,2.3
					l-0.8,2.5l-1.1,2.9l-0.9,2.1l-1.5,2.9l-1.1,2.9v1.6v1.5l-0.5,0.9l-1.3,0.6h-1.4h-1.4l-0.6,1.3l-2,1.8l-1.8-0.1h-1.9h-1.6
					l-2.3,2.4l-1.9,2.5l-1.8,3l-1.9,2.8l-0.5,1.4l-0.3,1.1l0.8-1.4l0.9,1.6c0.3,0.6,0.4,2,0.4,2l-43.1-0.1L-3886-965.7z"/>
				<g id="g13840">
					<path id="path13842" class="st5" d="M-3871.9-966c1.9-3.6,4.3-6.9,6.9-10"/>
					<path id="path13844" class="st5" d="M-3868.1-966.2c1.7-2.6,3.6-5.2,5.9-7.4"/>
					<path id="path13846" class="st5" d="M-3864.4-966.3c1.5-1.7,3.3-3.2,4.5-5.3"/>
					<path id="path13848" class="st5" d="M-3858.1-966.4c0.8-1,1.6-2,2.1-3.1"/>
					<path id="path13850" class="st5" d="M-3853.8-978.5c0.9-2.1,1.5-4.3,2.9-6.1c1.5-2,3.1-4.1,5.1-5.7c3-2.4,6.5-4,9.7-6.2
						c1.3-0.9,2.5-2.1,4.1-2.7c1.3-0.5,2.1-1.8,2.9-2.8c0.7-0.9,1.7-1.3,2.7-1.8"/>
					<path id="path13852" class="st5" d="M-3829.9-997.4c1.1-1,2-2.5,3.6-2.6c0.9-0.1,1.8,0.2,2.5-0.5c0.9-0.8,1.4-2,2.1-2.9"/>
					<path id="path13854" class="st5" d="M-3829.6-988.8c-2.3,3-4.9,5.7-7.1,8.7c-2,2.7-4.5,5.2-6.1,8.2c-1,1.9-1.5,4.1-2.5,6"/>
					<path id="path13856" class="st5" d="M-3823.5-989.2c-1.6,1.7-3.1,3.5-4.6,5.4"/>
				</g>
				<path id="path13858" class="st19" d="M-3666.1-966.2l0.4-2.2l1-1.9l1-2.2l0.6-2.4l0.2-2.5l0.7-2.8l0.9-2.4l1.5-3l0.8-3.6v-2.5
					l0.2-2.7l0.9-2.7l1.5-2.4l1.2-1.9l0.4,1.9l1,1.5l2.4,1.8l2.7,2.6l2.8,1.3l2.6,0.7l2,0.4h1.4l4-1.2l1.7-1.1l1.9-1.2l1.6-0.8
					l0.1-1.7l1.6,4.9l2,4.2l1.3,3.1l1.5,3.7l1.4,4.8l0.5,4.9l-0.2,4.5l0.2,1.2L-3666.1-966.2z"/>
				<path id="path13860" class="st0" d="M-3653.4-1002.9c-0.7-0.1-1.6,0.3-1.9,1c-0.5,1,0.3,2.3,0.9,3.3c0.5,0.8,1.2,1.4,1.9,2.1
					c1.5,1.3,3.2,2.4,4.9,3.5c1.1,0.6,2.2,1.3,3.4,1.6c1.2,0.3,2.4,0.5,3.7,0.4c1.3-0.1,2.5-0.3,3.7-0.7c1.2-0.4,2.4-0.9,3.4-1.6
					c1-0.6,2-1.3,2.6-2.3c0.4-0.8,0.4-1.8,0.3-2.7c0-0.4,0-1.1-0.4-1.1c-1.3-0.3-1.7,2-2.8,2.9c-1.1,0.9-2.4,1.7-3.7,2.3
					c-1.1,0.4-2.2,0.6-3.3,0.6c-1.1,0-2.3-0.2-3.3-0.7c-1.8-0.8-3.3-2.2-4.8-3.5c-1.1-1-2.1-2.2-3.1-3.3
					C-3652.5-1001.8-3652.7-1002.8-3653.4-1002.9L-3653.4-1002.9z"/>
				<g id="g13862">
					<path id="path13864" class="st5" d="M-3638.5-984.8c-1.6,0.4-3.3,0.3-4.9,0.1c-1.4-0.2-2.8-0.7-4.1-1.3c-0.7-0.3-1.4-0.7-2-1.1
						"/>
					<path id="path13866" class="st5" d="M-3638.4-980.6c-1.8,0.8-3.8,1.2-5.8,1.3c-2.1,0.1-4.2,0-6.3-0.7"/>
					<path id="path13868" class="st5" d="M-3637.5-976.1c-1.8,1.2-3.7,2.1-5.8,2.4c-1.4,0.3-2.8-0.1-4.2-0.1c-0.9,0-1.8-0.1-2.7-0.1
						"/>
					<path id="path13870" class="st5" d="M-3637-971.5c-1.9,0.3-3.6,1.2-5.5,1.5c-2.1,0.4-4.3,0.6-6.5,0.6c-0.3,0-0.5-0.1-0.8-0.1"
						/>
					<path id="path13872" class="st5" d="M-3628.9-991.2c-0.1,1.4,0.2,2.8,0.5,4.1c0.3,1.6,0.9,3.1,1.3,4.6c0.4,1.6,1,3.3,1.3,4.9
						c0.3,1.9,0.4,3.9,0.5,5.9c0,0.4,0,0.8,0.1,1.1"/>
				</g>
				<path id="path13874" class="st7" d="M-3639.4-994.2c-1.8-0.1-3.4,0.3-5-0.5c-2.6-1.3-4.7-3.6-6.7-5.6c-0.6-1-1.3-1.9-2.2-2.6
					c0.2-1.9,0.7-3.9,0.2-5.8c-0.3-2.5-0.8-5-2.3-7c-2.1-3.3-3.9-6.7-5.8-10.1c-0.5-1.7-0.9-3.4-0.7-5.1c0-3.9,0.2-7.8,0.9-11.6
					c0.7-2.2,1.3-4.4,1.4-6.8c0.2-1.5,1-2.9,1.6-4.3c0.9-1.5,2.1-2.8,3.1-4.1c0.4-1.1,1.2-2.2,0.8-3.5c-0.1-1.4,0.7-2.7,1.6-3.7
					c1.1,0.3,2.5,0,3.1,1.2c1.1,0.8,1.3,2.2,1.6,3.5c0.1,2,0,4.1-0.5,6.1c-0.3,1.8-1.1,3.5-2.5,4.8c-1,0.1-1.3,0.3-2.3-0.1
					c0.7,0.7,1,0.9,1.6,1.7c-0.2,1.7,0.9,0.2,1.6-0.3c1.6-1.1,3.5-1.5,5.3-2.3c1.9-0.6,3.8-1.3,5.1-2.9c1-0.4,2.3-0.9,2.4-0.9
					c2.2,0.2,3.8-0.1,6,0c1.4,1.1,2.4,2.7,2.5,4.6c0.3,1,0,2.3-1,2.8c-1,0.8-1.7,1.8-2.9,2.3c1.6,0.4,3.2,0.5,4.7,1
					c0.8,0.6,1.5,1.3,1.4,2.4c0.1,1.7,0.3,3.5,0.1,5.2c-0.8,1.7-2.7,2.2-4.3,3c-0.8-0.1,1.6,0.7,1.6,1.4c0.3,1,1,1.8,1.4,2.7
					c0,1.7,0.6,3.3,0.1,4.9c-0.9,0.7-2.3,0.9-3.4,1.2c-1.8-0.3,0.1,0.8,0.6,1.4c0.8,0.6,1.5,1.5,1.6,2.5c-0.4,1.2-0.8,2.7-2.2,2.9
					c-1.7,0.8-2.4,1.1-1.7,3.1c0.4,2.6-0.1,5.3,0.1,7.9c-0.2,2.5,1,4.8,1,7.3c0.1,1,0.3,2.2-1.1,2c-2.2,0.5-4.2,1.8-6.6,1.4
					C-3639-994.1-3639.2-994.1-3639.4-994.2L-3639.4-994.2z"/>
			</g>
			<g id="g13876">
				<path id="path13878" class="st24" d="M-3651.5-1047c-0.2,0.6-0.8,1.1-0.7,1.8c0.1,0.7,0.5,1.5,1.2,1.8c0.8,0.4,1.7,0.6,2.6,0.5
					c2.1-0.4,4.2-0.8,6.4-1.2c0.9-0.2,1.7-0.8,2.6-0.6c1.9,0.4,3.9,0.7,5.8,0.2c0.6-0.1,1.1-0.2,1.7-0.3"/>
				<g id="g13880">
					<path id="path13882" class="st5" d="M-3647-1043.2c-1.1,0.9-3.5,1.2-4.1,2.5c-0.3,0.6-0.3,2.7,0.3,3c2,1.1,4.4,1.4,6.6,1.8
						c1.5,0.3,3.1,0.5,4.6,0.9c1.5,0.4,2.9,1,4.4,1.4c1.1,0.3,2.4,0,3.5,0.3c0.4,0.1,0.8,0.3,1.1,0.4"/>
					<path id="path13884" class="st5" d="M-3645-1035.8c-0.7,0.1-3.2,0-3.7,0.5c-0.5,0.5-0.7,2.2-0.4,2.9c0.7,1.4,2.2,1.6,3.5,2.5
						c1,0.7,1.9,1.6,3.1,2c1.8,0.6,3.5,1.3,5.1,2.2c1.6,1,3.3,2,5.1,2.7c0.3,0.1,0.6,0.2,0.8,0.4"/>
					<path id="path13886" class="st5" d="M-3636.4-1025c-1.5-0.3-3.1-1-4.6-0.9c-0.4,0-3.9-0.3-4.7,0c-0.8,0.3-1.7,0.2-2.2,0.9
						c-0.4,0.7-0.7,2.3-0.2,2.9c1.1,1.4,2.8,2.1,4.4,2.7c2.6,1.1,5.1,2.2,7.7,3.1c0.9,0.3,1.8,0.8,2.7,0.8c0.6,0,1,0.1,1.5,0.1
						c0.3,0,0.7-0.5,1-0.4"/>
				</g>
			</g>
			<path id="path13888" class="st25" d="M-3642.9-1018.6l6.9,52.5l9.2,0.2l-6.6-49.5l-3.4-1.1l-2.7-0.9L-3642.9-1018.6z"/>
			<g id="g13890">
				<g id="g13892">
					<path id="path13894" class="st5" d="M-3652.4-1027.6c-0.2,1.6-0.8,3.2-0.7,4.9c0.2,2.4,1,4.8,1.8,7.1c0.1,0.3,0.3,0.5,0.5,0.8"
						/>
					<path id="path13896" class="st5" d="M-3654.5-1014.3c1.1,1.1,2,2.4,3.2,3.5c0.8,0.7,1.9,1.1,2.6,1.8c0.3,0.3,0.5,0.7,0.8,1.1"
						/>
				</g>
				<path id="path13898" class="st3" d="M-3808-1021.9c0-0.6-0.1-1.2-0.1-1.8c-0.4-0.4,0-0.4-0.4-0.8c-0.7,0.2-2.3,0.2-3.1,0.4
					c-0.5-0.1-1.1-0.2-1.6-0.4c-0.4-0.4-1-0.7-1.3-1.1c-0.1-0.9-0.3-1.8-0.4-2.7c0.1-0.7,0-1.5,0.1-2.3c0.6-0.8,1-1.7,1.8-2.3
					c0.3-0.3,0.6-0.6,1.1-0.6c0.9-0.3,1.7-0.5,2.6-0.8c0-0.5,0.2-1-0.1-1.4c-0.3-0.6-0.4-1.2-0.5-1.8c0-0.4-0.3-0.9,0.1-1.2
					c0.3-0.4,0.6-0.9,1-1.2c0.5-0.1,1-0.5,1.6-0.3c0.4,0.1,0.9,0.1,1.3,0.2c0.7,0.7,1.4,1.4,2,2.1c0.1,0.3,0.2,1,0.5,0.5
					c0.5-0.4,0.9-1,1.5-1.1c0.5-0.2,1.1-0.5,1.6-0.5c0.6,0.1,1.3,0,1.9,0.1c1,0.6,1.9,1.2,2.9,1.9c0.4,0.5,0.8,1,1.1,1.6
					c0.1,0.6,0.4,1.2,0.4,1.9c-0.1,0.4-0.1,0.9-0.3,1.3c-0.7,0.5-1.4,1-1.9,1.7c-0.2,0.3-0.2,0.7-0.2,1c0.1,0.3,0.1,0.8,0.6,0.8
					c0.7,0.1,0.2,0.2-0.2,0.4c-1.5,0.6-3,1.2-4.5,1.8c-1.9,1.2-3.8,2.3-5.5,3.6c-0.6,0.5-1.2,1-1.8,1.6
					C-3807.7-1021.5-3807.9-1021.7-3808-1021.9L-3808-1021.9z"/>
				<g id="g13900">
					<path id="path13902" class="st5" d="M-3808.3-1024.5c0.1-0.8,0.4-1.9,0.5-2.6c0.5,0.2,1,0.6,1.6,0.7c0.7-0.1,1.6,0,2.2-0.4
						c0.4-0.2,0.9-0.3,1.3-0.6c0.6-0.7,1.2-1.5,1.7-2.2c0.2-0.9,0.4-1.8,0.8-2.6c0.2-0.2,0.7,0.2,1,0.2c0.8,0.2,1.7,0.6,2.5,0.6
						c0.7,0.1,1.3-0.2,2-0.3"/>
					<path id="path13904" class="st5" d="M-3809.1-1034.4c0.7,0.3,2,0.6,2.5,1.1c0.4,0.7,0.8,1.4,1.1,2.2c-0.2,0.6-0.3,0.1-0.4-0.3
						c-0.2-0.6-0.3-1.2-0.4-1.7"/>
					<path id="path13906" class="st5" d="M-3803.3-1037.2c0.1,0.7-0.4,1.7-0.1,2.3c0.2,0.1,0.6,0.9,0.7,0.3c0-0.4-0.2-0.7-0.3-1.1
						C-3803.3-1036-3803-1036.8-3803.3-1037.2z"/>
				</g>
				<g id="g13908" transform="translate(0,512.36)">
					<path id="path13910" class="st19" d="M-3842.3-1478.2l28.3-0.3l-1.6-1.2l-2.3-1.3l-3.1-2.2l-1.4-1.7l-1.4-2.4l-0.4-2.4
						l-0.6-1.4l0.1-1.6l0.9-0.8l0.9-1v-1.4l-0.3-1.9l-1,1.1l-1.1,0.4l-1.3,0.1l-1.1,0.1l-0.6,1.4l-1.3,0.9l-1.8,0.4h-2.4l-1.7-0.2
						l-2.4,2.4l-1.6,2.5l-1.8,2.8l-1.8,2.9l-0.4,0.9l0.4,1l0.5,1.1l0.4,0.8L-3842.3-1478.2z"/>
					<g id="g13912">
						<path id="path13914" class="st5" d="M-3842.3-1479.3l1.3-2.4l1.7-2.1l1.7-1.9l1.6-2.3l1.6-2.5l0.9-1.1l1.1-1.3"/>
						<path id="path13916" class="st5" d="M-3829.4-1483l0.9,0.9l1.3,1.1l1.4,0.7l1.6,0.7l1.7,0.6l1.3,0.4"/>
					</g>
				</g>
				<g id="g13918">
					<g id="g13920" transform="translate(0,512.36)">
						<path id="path13922" class="st3" d="M-3793.2-1501l1.9-1.5l2.1-2l1.9-1.1l1.9-1.1l0.8-0.2v1.3l-0.2,1.6l0.4,1.1l1.2,0.5
							l1.1,0.9l0.1,1.9l0.2,1.3l0.5,1.1l1.7,0.7l1.8,0.2l2-0.1l3,0.1l2.7,0.5l2.5,0.3l2,0.3l1.1,1l0.4,1.7l-1.1,0.9l-3.2,1.1
							l-3.6,0.8l-1.1,0.7l-0.8,0.1v1.2l-0.1,0.9v0.7l-1.7,0.7l-0.8,0.3v1.4l0.5,1.6l0.9,2.6l0.5,1.2l-4.7,0.4l-6-0.2l-3.8,0.2
							l-2.7-0.3l-0.6-1.7l-0.6-1.1l-2.2,0.9l-2.1,0.4l-1.9,0.9l-1.7,0.4l-2,0.4l-1.6-0.2l-1-0.4l-0.4-1.6l0.5-1.1l-0.4-1.1l-0.7-0.8
							l0.2-1.5l1.1-1.1l2-0.7l3.2-1.2l2.1-1.2l1.6-1.1l1.2-1.5l1.9-2.3l-1.2-1.3l0.5-2l1-1.9L-3793.2-1501z"/>
						<path id="path13924" class="st26" d="M-3805-1482l7.1-1.5l5.5-2.5l6.1-1.7l5.9-1.8l4.5-1l4.8-0.9l4.2-0.4l1.5-0.5"/>
					</g>
					<path id="path13926" class="st26" d="M-3792.8-968.7l3.8-0.9l6.1-1.7l3.5-0.7l2.5-0.6"/>
				</g>
				<g id="g13928">
					<path id="path13930" class="st5" d="M-3792.9-986c1.3-0.8,2.6-1.6,3.9-2.3c1.1-0.5,2-1.3,3-2c0.3-0.2,0.6-0.1,1-0.2
						c0.1,0,0.3,0,0.4,0"/>
					<path id="path13932" class="st5" d="M-3792.8-982.2c0.9-0.5,1.8-1.1,2.7-1.5c0.6-0.1,1.2-0.3,1.8-0.4c0.6,0.4,1.2,0.8,1.9,0.9
						c0.5,0.3,1.1,0.2,1.6-0.1c0.4-0.2,1-0.2,1.4-0.6c0.4-0.5,0.9-0.9,1.3-1.4"/>
				</g>
			</g>
			<g id="g13934" transform="translate(0,512.36)">
				<path id="path13936" class="st25" d="M-3774.5-1478.4l-1.5-2.8l-0.6-2.1l-0.1-1.3l1.3-0.9l2.4-0.5l9.1-0.8l7.5-0.5h9.5l15-0.5
					l9.8,0.1h8l8.4,0.3l7.8,0.4l5.4,0.5l5.3,0.8l0.5,2.4v2.8v2L-3774.5-1478.4z"/>
				<path id="path13938" class="st27" d="M-3776-1482.7l5.3-0.6l8.6-0.9l10.1-0.6l14.6-0.6h14.4l9.3-0.1l8.6,0.3l6.8,0.4l7.5,0.8
					l3.6,0.4l0.1,1.6l-5.4-0.1l-9.6-0.9l-9.8-0.3h-9.6l-9.3-0.1l-14.8,0.5l-10.1,0.5l-8,0.8l-6,0.8c-1.9,0.1-3.8,0.4-5.6,0.9
					L-3776-1482.7z"/>
				<g id="g13940">
					<path id="path13942" class="st5" d="M-3687-1479l-3.5-2.8l-3.5,2.9l-3.4-3.5l-3.1,3.5l-3.6-3.6l-4.8,3.4l-4.5-3.3l-3.4,3.1
						l-3.6-3l-3.4,3.5l-4.3-3.6l-3.3,3.4l-4.8-3.4l-3.3,3.3l-4.5-3l-4,3.1l-3.4-2.8l-5,3l-4.4-2.3l-3.8,2.4l-4.5-2l-4.3,2.1"/>
					<path id="path13944" class="st16" d="M-3654.5-1525.4l-2.8,3.4l-4.6,6.1l-5.5,8.3l-2.9,5.4l-3,4.5l-2.3,2.8l-1.6,4.9l-0.9,3.9
						l-0.6,1.5l-0.9,2.1l-0.1,1.9v2.3h13.6l0.5-2.9l1.1-2l0.9-2.4l0.5-3.4l0.9-4.1l1.6-3.5l1.1-3.8l0.3-3.9v-2.1l1.9-4.3l2-3.4
						l2-1.5l0.8-3.8l-0.6-2.9L-3654.5-1525.4z"/>
					<path id="path13946" class="st5" d="M-3659.5-1506.3l-1.9,2.8l-2.4,3.9l-1.6,3.6l-1.6,4.1l-1.4,4l-0.9,4.1"/>
				</g>
			</g>
			<g id="g13948">
				<path id="path13950" class="st16" d="M-3630-1007.5c1.9,1.4,2.7,3,4.2,5c2.1,4.3,4.2,7.9,5.8,13.1c1.2,3,1.2,6.4,2.5,9.4
					c1.3,3.7,0.9,7.6,1.2,11.4c0.3,1.4,0.6,3.1-1.3,2.6c-1.5,0-3,0-4.5-0.1c-0.6-2.9,0.7-5.8,0.1-8.7c-1-7.9-5.9-14.5-8-22
					c-0.4-2.4-1.4-4.7-1.4-7.2c-0.2-1.3-1.2-3.7-0.7-5L-3630-1007.5z"/>
				<path id="path13952" class="st5" d="M-3631.2-1003.8c1.3,1.3,2.6,2.7,3.5,4.3c0.6,1.4,0.8,2.9,1.5,4.2c0.6,1.3,1.1,2.7,1.1,4.1
					c0.2,2,0.2,5.1,0.3,7.1"/>
			</g>
		</g>
	</g>
	<g id="g13954" transform="matrix(-1,0,0,-0.99584,360,1561.72)">
		<g id="g13956">
			<g id="g13958" transform="translate(0,512.36)">
				<path id="path13960" class="st2" d="M4070.1,2017.1l-1.2-15.9l-1.2-1.4l-15.4,8.7l-1.2,8.5L4070.1,2017.1z"/>
				<path id="path13962" class="st3" d="M4205.8,1870.8l8.9,63.3l1.6-0.6l2.8-1.1l2.4-1.1l1-1.1l-7.6-61.3L4205.8,1870.8z"/>
			</g>
			<g id="g13964">
				<path id="path13966" class="st4" d="M4051.3,2290.4c-3.3,1.4-7.3,2.8-9,6.3c-1.3,2.6,2.2,6.1-0.4,8c-3,2.1-2.9,5.9-2.6,9
					c0.3,3.2,2.7,6.3,5.8,7.3c1.6,0.5,2.9,1.4,1.1,2.9c-2.5,2.2,0.2,6,2.3,8.1c1.6,1.5,3.2,1.2,5.5,1.2c1.9,0-1.8,3.9,0.7,5.8
					c2.6,1.9,6.1,3.8,9.3,2.6c2.8-1,4.7-3.6,5.3-6.3c0.5-2.1,0.6-2.1,0.8-0.1c0.2,2,4.1,2.6,4.6-0.3c0.5-3.3,2-6.5,2.3-9.9
					c0.2-2.3,1.5-4.8,0.9-7c-0.6-2.1-1.5-3.3-0.5-5.6c1.4-3.2-3.8-6-2.4-9.6c1.3-3.3,3.9-5.9,6.8-8c2-1.5,4-3.2,6-4.8
					C4075.6,2290,4063.4,2290.2,4051.3,2290.4L4051.3,2290.4z"/>
				<g id="g13968">
					<path id="path13970" class="st5" d="M4082.3,2293.9c-3.6-1.1-7.4-1.5-11.1-0.7c-5.8,1.3-11.7,3.3-16.3,7
						c-2.5,2-3.4,5.5-3.6,8.7c-0.3,5.1-0.6,10.4,1,15.2c0.9,2.6,3.1,4.8,5.6,5.9c2.6,1.1,4.7-1.9,5-4.5c0.2-2.3,2.5,3,5,1.8
						c2.2-1.1,3.4-3.7,4-5.9c0.2-0.8,0.2-1.7,0.2-2.6"/>
					<path id="path13972" class="st5" d="M4063,2293.4c-2.7-1-6-0.7-7.8,1.8c-0.9,1.3-1.2,3-1.5,4.5"/>
					<path id="path13974" class="st5" d="M4051,2296.9c-2.8,1.3-6.4,2.7-7.5,5.8c-0.8,2.4,0.7,5.1,1.8,7.4c0.6,1.2,1.7,1.7,3,1.9"/>
					<path id="path13976" class="st5" d="M4044.3,2311.6c-0.9,3-0.6,6.3,1.9,8.8c1.7,1.7,3,3.9,5.5,3.4"/>
					<path id="path13978" class="st5" d="M4055.8,2334.4c2.3,1,5.1,1,7.2-0.9c1.8-1.6,0.6-6.3,3.9-4.2c2.8,1.8,5.7-1,6.6-3.5
						c0.4-1.2,0.7-2.5,0.6-3.8"/>
					<path id="path13980" class="st5" d="M4057.8,2337.9c1.9,1.6,4.4,1.8,6.5,0c1.9-1.7,1.1-5,3.1-5.7c2.1-0.8,5,0,6.1-2.3
						c0.6-1.3,1.2-2.5,1.6-3.8"/>
					<path id="path13982" class="st5" d="M4072.3,2295.6c-0.9,1.9-1.9,4.2-0.4,6.2c0.8,1.1,1.1,2.7,2.4,3.3"/>
					<path id="path13984" class="st5" d="M4068.3,2298.9c-1.2,2.3-2.4,5.7-0.4,7.7c1.3,1.4,3.7,2.2,5.6,1.5"/>
					<path id="path13986" class="st5" d="M4064,2300.4c-0.8,2.9-0.7,6.2,1.4,8.5c1.3,1.4,2.9,3,4.8,3c0.9,0,4.3-2.6,3-0.8
						c-1.3,1.9-4.1,3.3-2.5,5.6c1.3,2,3.9,3.5,6.3,2.6"/>
					<path id="path13988" class="st5" d="M4058.8,2303.6c-1.5,2.6-0.4,5.3,2,7.3c1.9,1.5,3.8,3.1,6.3,2.7c0.4-0.1,0.8-0.1,1.2-0.2"
						/>
					<path id="path13990" class="st5" d="M4057.3,2311.6c-0.2,3,2.2,4.6,4.8,5.5c2.2,0.7,4.7,0.7,6.5-0.7"/>
					<path id="path13992" class="st5" d="M4056,2317.4c0.7,2.7,2.5,4.9,5.3,6c3.2,1.3,7.1-0.5,8.5-3.3l0.3-0.5"/>
					<path id="path13994" class="st5" d="M4048.8,2324.9c-1.1,3,2.2,5.8,5,5.3c0.6-0.1,1.2-0.4,1.8-0.8"/>
					<path id="path13996" class="st5" d="M4081,2294.9c-3.3-0.4-6.5-0.2-9.8,0.5c-5.6,1.2-11.4,3-15.5,7.1
						c-2.8,2.7-2.6,6.8-3.3,10.3c-0.7,3.5,1.3,6.7,1.7,10.1c0.3,2.5,2.2,5,4.7,5.3c1.6,0.2,3.1-1.2,4.5-2"/>
				</g>
			</g>
			<g id="g13998">
				<path id="path14000" class="st0" d="M4068.6,2413.4c1.1,3.8,1.9,5.3,3.4,8.9c10.7,1,21.6,2.8,32.3,3.4
					c10.7,0.6,21.5,0.5,32.2-0.4c5.6-0.5,11-1.9,16.4-3.3c1.6-0.4,3.2-0.9,4.7-1.5c0-2.6,0-5.2,0-7.8c-1.7-1.4-3.7-2.7-4.5-5
					c-0.5-1.6-0.8-3.2-2.2-4.4c-1.3-1-3-1.1-4.4-2c-1.1-0.8-3.4,0.1-4-1c-1.5-2.7-3.4-5.3-4.2-8.3c-0.3-1.3-0.6-2.9,0.1-4
					c0.9-1.3,2.8-2.4,2.9-3.9c0.2-3.8-2.7-7.4-2.1-11.3c0.2-1.3,1.8-2.4,0.6-3.6c-0.5-0.6-2.5-2.5-2.7-1.2c-1.4,6.1-3.6,12-6,17.8
					c-1.3,3.2-3.3,6.2-5.1,9.1c-1.3,2-2.9,3.7-4.6,5.3c-1.8,1.7-3.9,3.3-6.3,4c-2.2,0.7-4.7,0.7-7,0.2c-2-0.4-4-0.9-5.6-2.3
					c-1.8-1.6-3.4-2.9-4.5-5.2c-0.7-1.5-1.8-4.2-2.4-6c-2-1.4-3.7-1.7-5-3.7c-0.9-1.4-3.1-3-4.2-4.2c-1.1,1-0.7,3.4-1.3,4.7
					c-0.7,1.7-2.3,0.3-3.2,1.4c-1.6,1.9-1,4.4-1.1,6.6c-0.2,2.6-0.9,5.7-3.3,7c-1.1,0.6-2,2.3-3.3,1.9c-1.3-0.4-1.3-2.7-3-1.5
					c-1.6,1.1-1.4,3.5-2.5,5.1c-0.8,1.1-0.1,0.6-1.1,1.9C4067.6,2410.6,4068.4,2412.3,4068.6,2413.4L4068.6,2413.4z"/>
				<path id="path14002" class="st3" d="M4073.5,2426.5l12.3,1.1l14.3,1.3l9.3,0.3h8.8l10.5-0.5l8.8-0.5l7.3-1l5.8-1.8l4.8-1.5
					l2-0.3l-2,17.6l-2.5,17.9l-2,12.3l-4.1,16l-5.1,17.7l-4.2,14.1l-0.3,1.1l-10.8,0.5l-11.6,0.3h-11.1l-4.5-11l-4.6-14.7l-3.8-13.8
					l-4.9-13.9l-3.9-12.7l-3.1-11.2l-2.5-9.5L4073.5,2426.5z"/>
				<path id="path14004" class="st6" d="M4077.3,2330.1c-3.1,0-3,5.5-4.9,7.9c-1.3,1.7-3,3.1-3.8,5.1c-0.5,1.2-0.8,2.3-0.8,3.6
					c0,1.9,0.6,3.9,1.8,5.4c0.9,1.1-0.4,2-0.9,3c-0.6,1.1-1.2,2.7-2.4,3c-1.1,0.3-2.1-0.1-3,0.9c-0.8,0.9-1.4,1.8-1.9,2.9
					c-0.6,1.7-0.7,3.5,0,4.9c0.5,1,5.1,3,6.1,2.8c1.9-0.4-2-0.5-2.5,0.7c-0.5,1-2.2,0.6-3,1.4c-1.1,1-2.3,1.7-2.8,3.1
					c-0.5,1.6-1.3,3.2-1.3,4.9c0.1,1.5,0.1,3.1-0.4,5.6c-1.2-1.1-1-2.3-3.8-2.1c-1.6,0.1-2.9,2-3.5,3.4c-0.7,1.5,0.5,3.2,1.3,4.6
					c0.7,1.1,1.7,1.6-0.3,1.5c-1.2-0.1-2.1,0.4-3.1,1.1c-1.4,0.9-2,2.3-2.4,3.8c-0.3,1.1-0.2,2.3,0.7,3.4c1.2,1.4,2.3,2.8,4,3.6
					c0.8,0.4,2.3-0.8,2.7,0.7c0.4,1.5,0.7,2.9,2,3.9c0.9,0.8,1.7,1.3,2.8,1.6c1.6,0.5,3.2-0.3,4.7-0.7c1.5-0.4,2.8,0.9,4.3,0.5
					c1-0.2,1.1-1.9,1.6-2.7c0.9-1.6,1.4-3.4,2.5-4.9c1-1.4,0.8,0,1.9,0.9c1.2,1,3.6,0.4,4.8-0.3c2.1-1.2,1.7-2.8,2.4-5
					c0.7-2.1,0.4-4,0.9-6.1c0.3-1.2,0.1-3.1,1.1-3.9c0.9-0.6,2.1,0.3,2.8-0.9c0.7-1.1,0.5-2.2,0.8-3.2c1.5-0.6,0.8-1.6,0.1-2.6
					c-1.1-1.8-2.2-3.6-2.7-5.7c-1.4-5.3-3.8-10.3-4.5-15.6c-0.6-4-0.3-8-0.8-11.9c-0.5-3.2-0.1-6.4-0.3-9.7
					C4077.2,2336,4077.3,2333.1,4077.3,2330.1L4077.3,2330.1z"/>
				<path id="path14006" class="st7" d="M4078,2316.8c-0.4,1.5-0.3,1.4-0.5,3.2c-0.4,5.3-1.1,6.5-1.5,11.8c-0.3,5.4-0.3,13.2,0,18.6
					c0.4,4.9,1.8,10.5,2.8,15.3c0.7,3.8,2.2,6.2,3.3,9.8c1,2,1.5,4.4,2.9,6.2c2.8,2.3,4.1,4.2,6.2,7.1c1.3,1.1,2.6,1.6,4.5,2.1
					c0.2,1.9,0.9,4.6,1.6,5.6c0.5,1.4,1.8,2.5,2.8,3.5c2.1,1.3,4.2,2.9,6.4,4c2.6,0.1,5.2,0.9,7.7-0.1c3.3-0.5,5.7-3,8-5.2
					c2.4-2.1,4.1-4.9,6-7.4c3.4-7.5,8.4-15.2,10.9-23c0.6-1.4,1-2.7-0.5-3.5c-0.8-1-2.5-1.7-2-3.2c0.8-1.8-1.1-1.9-1.3-3.3
					c-1.2-1.7,1.7-1.8,1.3-3.4c0-2.7,0.8-5.2,1.3-7.8c0.2-1.5-0.8-2.5-1.4-3.7c-0.2-1.9,0.2-3.7,0.9-5.4c0.6-1.8-0.9-2.1-2.1-2.9
					c-1.6-0.6-1-2.1-1.6-3.3c-0.8-1.3,0.1-3,0.1-4.6c0-1.2-0.5-2-1-3.3c-0.3-1.3-0.4-1.2-0.7-3.2c-2.9-0.9-6.7-1.8-9.1-2.9
					c-4-2.3-8.1-3.2-12.4-3.5c-4.3-0.8-9.1-0.3-13.5-0.3c-4.6,0.5-8.9,1.3-13.6,2.5c-1,0.3-1.6,0.1-2.7,0.3L4078,2316.8z"/>
				<g id="g14008">
					<path id="path14010" class="st5" d="M4077.3,2331c0.7-0.9,2-0.8,2.8-1.4c1.3-1,3.1-0.8,4.7-0.9c1.9-0.1,3.8,0.1,5.5,0.8
						c1.1,0.4,2,1.2,2.6,2.2c0.5,0.8,0.4,1.8,0.5,2.7c0.1,0.4,0.1,0.8,0.1,1.2"/>
					<path id="path14012" class="st5" d="M4093.7,2335.1c0.4,3.7,0.3,4.9,0,8.1c-0.2,2.3-0.3,3-0.4,5.3c-0.1,1-0.1,2.9-0.4,3.9
						c-0.3,0.9-0.6,2.9-0.6,3.9c0,1,0,2.9,1,3.4c1.4,0.6,2.4-0.3,3.8,0.2c0.6,0.3,1.6,1,2.2,0.6c1-0.8,1.5-0.1,2.5-0.9
						c0.5-0.5,1.4-1.1,2.1-0.9c1,0.3,2.1,1.1,3,0.6c0.6-0.3,1.1-1.4,0.3-1.9c-0.1-0.1-0.8-1.4-0.9-1.4"/>
					<path id="path14014" class="st5" d="M4103.3,2332.8c0.9-0.9,1.4-2.3,2.6-2.9c1.5-0.7,3.2-1.1,5-1.1c2.3,0,4.7-0.2,7,0.1
						c1.2,0.2,2.6-0.1,3.7,0.3c1.2,0.5,1.8,0.3,3.2,1.2"/>
				</g>
			</g>
			<g id="g14016" transform="matrix(1.06615,0,0,0.89639,-10.607,62.55)">
				<path id="path14018" class="st8" d="M3848.4,2573.1c0.3-0.8,1.5-1.1,2.2-1.5c0.6-0.3,0.9-1,1.7-1c0.9-0.1,2,0,2.5,0.7
					c0.5,0.4,1.6,0.3,1.6-0.3c0.4-0.3,1.6-0.3,2.1-0.2c1.4,0.2,2.1,0.8,3.3,1.3c0.5,0.2,1.3,0.4,1.3,1c-0.2,0.6-1.4,0.5-1.7,1
					c-0.8,0.8-1.3,0.9-2.2,1.7c-0.7,0.7-1.5,1.5-2.6,1.6c-1.4,0.2-2.8-0.1-4.1-0.3c-0.9-0.2-1.8-0.6-2.1-1.4
					c-0.2-0.6-0.7-0.3-1.2-0.9c-0.3-0.5-0.6-1-0.9-1.5L3848.4,2573.1L3848.4,2573.1L3848.4,2573.1z"/>
				<path id="path14020" class="st8" d="M3848.7,2573.7c0.9-0.1,1.9-0.1,2.8-0.3c0.8-0.2,1,0.7,1.7,0.8c1,0.3,2.1,0.4,3.1,0.2
					c0.7-0.2,1.2-0.7,1.8-1c0.6-0.4,1.4-0.5,2.2-0.4c0.8,0.1,1.6,0.4,2.4,0.5c0.2,0,0.3-0.1,0.5-0.1"/>
			</g>
			<g id="g14022">
				<g id="g14024">
					<path id="path14026" class="st5" d="M4096.3,2391.2c0,0,3.1,0.6,4.6,0.5c2.3-0.1,4.6-0.7,6.9-1.2c2.2-0.5,4.4-1.1,6.5-1.9
						c2.3-0.9,4.5-2.2,6.5-3.5c1.8-1.2,3.4-2.4,5-3.9c1.4-1.3,2.6-2.9,3.7-4.4c1.1-1.4,2.2-2.8,3-4.4c0.8-1.5,1.8-4.6,1.8-4.6"/>
					<path id="path14028" class="st5" d="M4079.9,2337.6c0.5-0.8,0.7-1.8,1.4-2.3c0.9-0.7,1.9-1.5,3-1.5c1.9-0.1,3.7,0.4,5.5,0.8
						c0.7,0.1,0.8,0.8,1.3,1.2c0.4,0.4,0,0,0.1,0.1c0,0,0,0.1,0,0.1"/>
					<path id="path14030" class="st5" d="M4106.1,2337.1c0.4-0.7,0.5-1.7,1.1-2.2c1-0.8,2.1-1.4,3.3-1.6c1.1-0.2,2.2-0.2,3.3,0.1
						c1.8,0.4,3.6,0.7,5.3,1.5c0.6,0.3,1,1,1.4,1.5"/>
				</g>
				<g id="g14032" transform="matrix(1.06615,0,0,1,-11.807,0)">
					<path id="path14034" class="st9" d="M3837.6,2339.9c1.4-0.6,2-2.1,3.5-2.3c1.8-0.3,3.7-0.2,5.6-0.4c1-0.1,2,0.6,3,0.7
						c-0.2,0.8-0.3,1.5-0.9,2.1c-0.8,0.8-1.1,1.3-2,1.9c-0.9,0.6-2,1.1-3.1,1.3c-0.8,0.1-1.7,0.2-2.4-0.1c-0.8-0.4-1.7-0.7-2.2-1.3
						C3838.2,2340.9,3838.3,2340.7,3837.6,2339.9L3837.6,2339.9z"/>
					<g id="g14036">
						<path id="path14038" class="st10" d="M3846.1,2340c0,1.5-1,2.8-2.1,2.8s-2.1-1.2-2.1-2.8s1-2.8,2.1-2.8
							S3846.1,2338.5,3846.1,2340z"/>
						<path id="path14040" class="st11" d="M3844.7,2339.8c0,0.6-0.3,1-0.6,1c-0.3,0-0.6-0.4-0.6-1c0-0.6,0.3-1,0.6-1
							C3844.5,2338.8,3844.7,2339.2,3844.7,2339.8z"/>
					</g>
				</g>
				<g id="g14042" transform="matrix(0.96664,-0.19269,0.18982,0.98126,-107.5,46.549)">
					<path id="path14044" class="st12" d="M3755.4,3073.1c1.2-0.3,2.3-0.8,3.4-0.9c1.7-0.1,1.4,0,3.1,0.2c1.4,0.2,3,0.2,4.4,0.7
						c1,0.4,2,0.8,2.8,1.5c0.5,0.4,0.9,1,1.4,1.5c-0.8,0.5-1.5,1.4-2.4,1.6c-1.3,0.4-2.7,0.7-4.1,0.7c-1.1-0.1-2.1,0-3.2-0.3
						c-1.6-0.4-1.3-0.4-2.7-1.2c-0.7-0.4-1.4-1-1.9-1.7C3755.9,3074.6,3755.7,3073.9,3755.4,3073.1L3755.4,3073.1z"/>
					<g id="g14046">
						<path id="path14048" class="st13" d="M3765.8,3075.6c0,1.5-1.2,2.8-2.8,2.8s-2.8-1.2-2.8-2.8s1.2-2.8,2.8-2.8
							S3765.8,3074,3765.8,3075.6z"/>
						<path id="path14050" class="st14" d="M3764.1,3075.2c0,0.7-0.3,1.3-0.8,1.3c-0.4,0-0.8-0.6-0.8-1.3c0-0.7,0.3-1.3,0.8-1.3
							C3763.8,3073.9,3764.1,3074.5,3764.1,3075.2z"/>
					</g>
				</g>
			</g>
			<g id="g14052">
				<path id="path14054" class="st15" d="M4095.7,2360.8c-1.3,0-1.5,1.6-2.6,2.2c-0.9,0.5-1.6,0.5-2.7,1.9c-0.8,1.1-2.3,1.4-3.3,2.3
					c-0.5,0.5-1.9-0.2-2.2,0.4c-0.3,0.7-0.5,1.6,0.3,1.6c0.4,0,1.3,0.5,1.7,0.2c0.4-0.3,0.4-0.3,1-0.4c0.9-0.1,1.7-0.6,2.6-0.6
					c0.5,0,0.9,0.6,1.4,0.5c0.6-0.2,1.4,0,2-0.4c1.1-0.7,1.9-1.4,3.1-1.6c1.1-0.2,1.2-2.4,2.3-2.4c0.5,0,0.4,0.2,1.1,0
					c0.5-0.2,1.5,1.9,2,1.8c0.8-0.1,1.5,0,2.2,0.3c0.7,0.2,1.2,0.9,1.9,1.3c0.5,0.2,0.8,0.6,1.4,0.5c0.7-0.1,1.3-0.2,2,0.1
					c0.5,0.2,1,0.6,1.5,0.3c0.8-0.4,1.5-0.5,2.3-0.5c1.3,0,2.6,0.5,4,0.4c0.5,0,1.4-1.1,1.6-1.6c0.1-0.4-0.6-1.3-1.1-0.8
					c-1.2,1.2-2.1,0.8-3.3,0.4c-0.9-0.3-2.2-0.7-3-1.1c-0.7-0.4-0.7-1.1-1.4-1.6c-1-0.7-2.2-0.4-3.3-1c-0.7-0.4-1.7-2.1-2.4-2.3
					c-1.2-0.3-1.7,0.1-2.9,0c-0.5-0.1-0.9-0.4-1.4-0.2c-0.9,0.5-1.9,0.9-2.9,0.8C4096.9,2361.3,4096.4,2360.8,4095.7,2360.8
					L4095.7,2360.8z"/>
				<path id="path14056" class="st15" d="M4131.3,2322.6c-2.8,0,1.2,5.6,0.4,8.2c-0.4,1.4-0.3,2.5,0.5,3.8c0.9,1.6,3,2.1,3.5,3.8
					c0.7,2.1-1.5,4.6-0.9,6.7c0.4,1.4,1.4,2.4,1.3,3.9c-0.2,2.4-2,4.5-1.5,7c0.3,1.5-1.3,2.1-1,3.4c0.3,1.3,2,2.2,1.5,3.3
					c-0.7,1.5,0.6,2.6,1.5,3.4c1.2,1.4,1,1.8,2,2.4c1.5,0.8,2.4,1.9,2,3.6c-0.3,1.3-1.3,2.2-1,3.7c0.3,2,0,4.3,1,6.1
					c0.8,1.4,0.7,0.8-0.3,2.1c-1.4,1.7-1.6,4.1-2.1,6.2c-0.3,1.4,0.9,3.8,1.6,5.1c0.8,1.4,1.7,2.5,1.9,4.3c0.2,1.8,3.3,0.7,4.8,1.5
					c1.6,0.8,2.7,1.8,4.4,2.2c1.9,0.4,1.5,2.9,2.1,4.4c0.6,1.5,1.8,2.9,3.1,3.8c1.9,1.4,4.5,1.9,6.9,1.2c2.1-0.7,4.1-1.4,5.9-2.8
					c0.9-0.6,2.6,0.4,3,1.7c0.5,1.4,2.3,1.8,3.6,2.3c1.3,0.5,3.2,0.2,3.7-1.1c0.6-1.6,2-0.2,3-0.2c1.1,0,2.4-1.1,3-2
					c1.8-2.5,1.2-5.8,1.1-8.7c-0.1-2-0.7-4.3-2.1-5.9c-1.1-1.3-2.2-3.4-3.9-3.6c-1.9-0.3-1.5-1.2-1.7-2.6c-0.2-1.7-0.4-3.5-1.8-4.8
					c-1.4-1.3-2.9-2.6-4.9-2.5c-1.4,0.1-0.1-2.3-0.4-3.3c-0.7-2-1.4-4-3.1-5.5c-1-0.9-2.8-1.2-3.5-2.4c-0.7-1.2-0.3-2.6,0-4
					c0.3-1.3,1.4-2.1,1.3-3.6c-0.1-2.7,0.1-5.6-1.3-8c-0.7-1.3-2.3-1.6-3.5-2.3c-2.3-1.4-4.6-2.9-6.1-5c-1.4-2-1.1-4.7-1.3-7.1
					c-0.1-1.5-1.8-2.4-2.8-3.4c-2.5-2.6-4.2-5.8-6.5-8.7c-1.1-1.4-2.3-3-3.8-4c-1.8,0-3.5-0.3-5.1-1
					C4134.5,2323.5,4132.9,2323.1,4131.3,2322.6L4131.3,2322.6z"/>
			</g>
		</g>
		<path id="path14058" d="M4118.1,2452.9c0,0-1.1,3.5-2,5c-0.8,1.3-1.9,2.5-3,3.5c-1.1,1-2.3,1.7-3.5,2.5c-1.3,1-2.9,1.7-4,3
			c-1.2,1.4-2.5,3.1-2.5,5c0,1.5,0.9,3,2,4c1.3,1.2,3.2,2,5,2c2,0,4-1.1,5.5-2.5c1.1-1,2-4,2-4v1c0,0.5-0.1,2.1-0.5,3
			c-0.6,1.5-1.4,2.8-2.5,4c-1.1,1.2-4,3-4,3v0.5c0,0,4-0.8,6-1c1-0.1,2-0.1,3,0c2,0.2,6,1,6,1v-0.5c0,0-2.9-1.8-4-3
			c-1.1-1.2-1.9-2.5-2.5-4c-0.4-0.9-0.5-2.5-0.5-3v-1c0,0,0.9,3,2,4c1.4,1.4,3.5,2.5,5.5,2.5c1.8,0,3.7-0.8,5-2c1.1-1,2-2.5,2-4
			c0-1.9-1.3-3.6-2.5-5c-1.1-1.3-2.7-2-4-3c-1.2-0.8-2.4-1.5-3.5-2.5c-1.1-1-2.2-2.2-3-3.5
			C4119.1,2456.3,4118.1,2452.9,4118.1,2452.9"/>
		<g id="g14060">
			<g id="g14062">
				<g id="g14064" transform="translate(0,512.36)">
					<path id="path14066" class="st5" d="M4080.6,1887.2c0,0,2,3.7,3.2,5.5c1.1,1.6,2.3,3.2,3.7,4.6c1.1,1.1,2.3,2,3.5,3
						c1.3,1,3.9,3,3.9,3s2.9-3.2,4.2-5c1.2-1.5,2.2-3.1,3.4-4.6c0.7-0.8,2.1-2.3,2.1-2.3"/>
					<path id="path14068" class="st5" d="M4117.9,1890.6c0,0,3.7,3.4,5.7,4.9c1.4,1.2,3,2.3,4.3,3.6c1,0.9,2.6,2.9,2.6,2.9
						s2.6-1.8,3.9-2.8c1.4-1.1,2.8-2.1,4.1-3.4c0.7-0.8,1.3-1.6,1.9-2.5c0.7-0.9,1.4-1.7,1.9-2.7c0.4-0.7,1.1-2.1,1.1-2.1"/>
				</g>
				<g id="g14070">
					<path id="path14072" class="st16" d="M4052.3,2405.9c-4.7,1.5-9.4,3.1-14.1,4.6c5.5,14.8,11.1,29.7,16.6,44.5
						c1.9,0.1,2.9,1.7,3.6,2.7c2.2-1.2,4.7-1,6.7,0.4c1.6,0.7,2.7,1.7,2.9,3.4c0.7,2.4-2.2,1.9-2.2,3.5c-0.6,2.3,1.3,2.3,3.1,2.5
						c1.6,0.4,3.4,0.7,3.7,2.6c0.7,1.8,0,3.7-0.4,5.5c1.9-0.2,3,1,3.8,2.6c0.6,1.9,0.4,3.9,0.4,5.9c-2.8,0.5,1.9,0.8,1,2.8
						c0.3,1.9-0.1,3.6-1.2,5.1c1.7,0.1,4-0.4,3.2,2.1c0.2,2.4-0.2,5.1-1.5,7.1c-1.3,0.5-0.9,3.7,0.3,3.9c2-0.1,1.9,2.3,1.9,3.7
						c-0.6,1.9,1.4,2.7,2.9,2.4c4.6,0.3,9.5,0.2,13.9,1.8c2.1,0.3,1.4,3-0.5,3.1c-2.5,1.4-5.5,1.4-8.2,2.2c0.3,1.3-1.2,4.3,1.2,3.4
						c4.8-0.6,9.6-1,14.4-0.8c-2.6-5.8-5-11.7-6.9-17.7c-3.2-9.3-5-19-8.5-28.1c-2.5-7-4.9-14.1-6.8-21.4c-1.8-7.1-4.4-14-6-21.1
						c-2.5-7.6-5.4-15-8.1-22.6c-2.7,0.5-5.4-0.9-8,0.4c-1.5,1-3-0.2-4.1-1.3C4054.1,2408.3,4053.7,2406.6,4052.3,2405.9
						L4052.3,2405.9z"/>
					<path id="path14074" class="st16" d="M4157.3,2412.8l0.2,7.4l-1.1,11l-1.6,11.7l-1.8,12.4l-2.1,14.3l-4.1,16.1l-3.9,14
						l-3.4,12.4l-2.8,8l5.1,0.1l7.2,0.4l5.8,0.5l3.7-13.3l4.9-17.5l3.5-14l3.2-15.2l2.5-12l2.1-14.5l1.4-10.4l0.7-9.9l-2.1-0.5
						l-1.8-0.7l-1.1-1.4l-0.9-1.2l-1.6-1.1l-2.1,1.4l-2.7,1.6l-2.1,0.7l-2.1,0.2L4157.3,2412.8z"/>
				</g>
				<g id="g14076">
					<path id="path14078" class="st17" d="M4201.3,2346c0.7,3.3,1.3,9.2,2,15c0.3,2.9,1.1,8,1.2,10.9c-1.2,0.1-2.5-0.2-3.6,0.3
						c-1,0.5-2.1,1.1-2.8,2c-0.8,1.2-1.4,2.4-1.7,3.9c-0.2,1.2-0.4,2.4-0.2,3.5c0.4,1.8,2,2.9,3,4.4c0.8,0.6,0.1,1.3-0.1,2
						c-0.6,0.4-1.4,0.7-2.2,0.8c-1.2,0.1-2.5,0.2-3.6-0.4c-1.5-0.9-3.1-1.5-4.4-2.6c-1.3-1.1-2.3-2.3-3.3-3.7
						c-0.6-0.9-1.1-1.8-1.2-2.9c-0.3-2.2-0.3-3.3-0.3-5.5c-1.6-0.6-2.4-0.8-3-0.9c-1.8-0.4-2.2-1.6-3.7-2.8
						c-1.7-1.3-3.3-2.8-5.1-4.1c1.5-1.8,2.3-3.2,3.5-5.2c0.6-0.9,1.8-2.7,2.7-3.2c1.3-0.7,2.2-1.8,3.7-2.1c-0.2-0.5-1-1.1-1.2-1.8
						c-0.5-1.7-0.9-3.4-0.9-5.2c0-1-0.3-2.1,0-3c0.6-1.6,1.5-3,2.4-4.4c0.5-0.8,1.2-1.2,1.9-1.6c1.5-0.7,3.1-1.4,4.7-2
						c-0.2,1.3-0.8,2.6-0.4,4c0.4,1.4,0.3,3,1,4.2c0.6,1.1,1.3,2.2,2.5,2.7c0.8,0.4,1.4,1.2,2.5,1c1-0.2,2.1,0,3-0.6
						c0.9-0.5,1.8-0.8,2.4-1.7C4200.5,2346.8,4200.9,2346.4,4201.3,2346L4201.3,2346z"/>
					<path id="path14080" class="st17" d="M4199,2348c0-7.3,0.1-14.7,0.1-22c-0.6-2-1.9,0.4-2.8,0.9c-1.3,0.9-2.4,2.3-3.8,3
						c-1.9,0.5-2.2-0.6-1.8-2.2c0.2-7.5,0.4-15,1.2-22.5c0.4-4.9,1-9.7,1.5-14.6c2.3,0,4.6,0,6.9,0c2,7.6,3.8,15.3,7.3,22.4
						c1.6,4.3,3.2,9.3,4.1,12.9c-0.6,1.2-1.6,2.3-2.9,2.8c-1.4-0.1-2-1.9-3-2.7c-0.7-0.8-2.1-2.8-2.7-1.1c2.5,6.3,5.1,12.6,7.4,19
						c1.4,12.9,2.6,25.8,4.4,38.7c0.5,4.5,1.5,9.1,0.4,13.5c-0.9,1.1-1.8,2.1-3.3,2.1c-1.2,0.2-2.1-1.7-2.4-2.8
						c-0.7-3.3-1.7-6.4-2.9-9.5c-2.4-10.5-3.3-21.2-4.7-31.9c-0.3-2.5-0.6-5-1-7.5C4200.3,2347,4199.7,2347.5,4199,2348L4199,2348z"
						/>
					<path id="path14082" class="st17" d="M4195.9,2291.1c0.8,11.3,1.5,22.5,2.3,33.8"/>
					<path id="path14084" class="st17" d="M4197.3,2291c2.2,11,4.4,22.1,6.6,33.1"/>
					<g id="g14086" transform="translate(0,512.36)">
						<path id="path14088" class="st17" d="M4212,1867.5c0,1.3-0.8,2.3-1.8,2.3s-1.8-1-1.8-2.3c0-1.3,0.8-2.3,1.8-2.3
							S4212,1866.2,4212,1867.5z"/>
						<path id="path14090" class="st17" d="M4213.6,1878c0,1-0.6,1.8-1.4,1.8s-1.4-0.8-1.4-1.8c0-1,0.6-1.8,1.4-1.8
							S4213.6,1877,4213.6,1878z"/>
					</g>
				</g>
			</g>
			<path id="path14092" class="st18" d="M4210.5,2343.6l3.3,0.5l4-3.3l1.5-5l0.5-3.3v-4.5l-1.5-3l-0.8-1.8l-2.3-2.5l5.3-8.5l2.8-6.5
				l2.3-6.3l2.3,0.5l5.3,4.5l5.5,5.5l5,7.3l4.5,9l2.5,6.8l2.8,10.5l0.8,9.5v5.8l-0.8,7.8l-1.5,8l-2.3,9l-3.8,9l-3.8,6.5l-5,7.8
				l-6-6.5l-5-5.5l-4.5-3l3.5-4.8v-5l-2-6l-3.5-2.8l-2.8-1.3l-3.5-0.3L4210.5,2343.6z"/>
		</g>
		<path id="path14094" d="M4230.7,2344.4c0,0-0.3,2.8-0.8,4.1c-0.4,1.1-1.1,2.1-1.8,3.1c-0.7,0.9-1.5,1.6-2.3,2.4
			c-0.9,0.9-2,1.7-2.6,2.8c-0.7,1.3-1.5,2.7-1.2,4.2c0.2,1.1,1.1,2.1,2.1,2.8c1.2,0.7,2.7,1.1,4.1,0.8c1.5-0.3,2.9-1.4,3.8-2.7
			c0.7-0.9,1-3.3,1-3.3l0.1,0.8c0.1,0.4,0.2,1.6,0,2.4c-0.2,1.2-0.7,2.4-1.3,3.4c-0.7,1.1-2.6,2.8-2.6,2.8l0.1,0.4
			c0,0,2.9-1.2,4.4-1.6c0.7-0.2,1.5-0.3,2.3-0.4c1.6-0.2,4.7-0.1,4.7-0.1l-0.1-0.4c0,0-2.4-0.9-3.5-1.7c-1-0.7-1.8-1.7-2.5-2.7
			c-0.4-0.7-0.7-1.8-0.8-2.2l-0.1-0.8c0,0,1.1,2.1,2.1,2.8c1.3,0.9,3,1.4,4.5,1.1c1.4-0.2,2.7-1.1,3.5-2.2c0.7-0.9,1.2-2.2,1-3.3
			c-0.3-1.4-1.5-2.5-2.6-3.5c-1-0.8-2.3-1.2-3.5-1.7c-1-0.5-2.1-0.8-3-1.4c-1-0.6-2-1.4-2.8-2.2
			C4232,2346.9,4230.7,2344.4,4230.7,2344.4"/>
		<g id="g14096">
			<g id="g14098">
				<path id="path14100" class="st19" d="M4177.1,2414.1c1.7,0.2,2.2-2.2,3.4-2c1.4,0.2,2.7,0.7,3.7-0.5c1-1.3,2.3,1.1,3.4,1.5
					c2.5,0.9,4.8,2.4,6.6,4.2c4.2,4.4,7.4,9.8,9.5,15.4c1.1,3.1,0.8,6.6-0.2,9.9c-1.8,5.4-3.1,11.1-3.2,16.9c0,3.6-1.3,7.7,0.5,11
					c1.7,3.2,3,4.7,4.8,7.8c0.8,1.4,1.3,3,2,4.3c-4.1,4.9-8.7,11.4-12.4,16.6c-2.4,3.4-3.6,7.5-6.5,10.6c-0.9,1-1.9,1.7-2.5,3.2
					c-1-1-0.9-3.9-1.3-6c-0.2-1.6-0.6-3.8-0.8-5c-1.4,0.2-2.6,3.1-3.2,4.3c-2,4.3-3.4,7.2-4.5,11.5c-0.4,1.6-0.9,3-1.8,4.3
					c-6.5-0.6-13.1-1.1-19.6-1.1c2.7-9.8,5.9-19.5,8.3-29.3c3.3-13.6,6.7-27.1,9-40.9c1.3-7.8,2.8-15.5,3.6-23.3
					C4176.4,2423,4176.7,2418.5,4177.1,2414.1L4177.1,2414.1z"/>
				<g id="g14102">
					<path id="path14104" class="st5" d="M4195.2,2468.2c-2.5,4.4-5.4,8.7-7,13.5c-1.6,5.1-1.8,10.5-3,15.7
						c-0.4,1.6-0.6,3.2-1.1,4.7"/>
					<path id="path14106" class="st5" d="M4188,2433.2c-0.2,9,0.3,18-1,26.9c-0.7,5.2-1.2,10.4-1.8,15.5c-0.8,6.6-2,13.1-1.9,19.7
						c0.1,2.2,0.2,4.3,0.3,6.4"/>
				</g>
				<path id="path14108" class="st19" d="M4037.8,2410.4c-7.8,3.5-15.8,8-22.3,13.6c-3.4,2.9-5.4,6.3-6.9,10.6
					c-3.6,8.4-7.8,16.7-10.6,25.5c-2.4,7-4.3,14.1-6.1,21.3c-2.8,11.7-6.2,23.3-9,35c-0.6,2.6-1.3,2-1,4.6c2.9-3.5,7.2-8.7,10.5-12
					c3.9-3.2,7.5-6.7,12-9.2c3.1-1.7,6.2-3.3,9.5-4.6c2.9-0.8,5.7-1.9,8.7-1.5c3.5,0,6.7-0.3,10-1.9c1.6-0.3,3.4-0.5,5.1-0.3
					c2.7,1,3.7,0.4,7.1,0.1c1.8-3.5,3-9.5,5.5-12.6c1.1-1.9,2.6-3.9,4.1-5.3c0-1.6-0.2-2.3-0.8-2.6c-0.6-0.2-1.5,0.1-2.9,0.6
					c-1.6-0.1-3.5-1.2-3.3-3.1c-0.1-1.9-0.1-3.8,1.2-5.3c0.4-2,2.9-0.6,4-1.9c2.2-0.6-0.4-2.5,0.3-4c0.6-1.8,0-1,2.2-2.5
					C4049.6,2440.7,4043.1,2424.4,4037.8,2410.4L4037.8,2410.4z"/>
				<g id="g14110">
					<path id="path14112" class="st5" d="M4023.3,2428.4c1.4,5.6,2.7,11.2,3.8,16.9c0.7,3.9,1.7,7.8,2.2,11.7c1,7.5,1,15,1.7,22.5
						c0.4,3.7,1.7,7.2,2,10.9c0,0.4,0.1,0.8,0.1,1.2"/>
					<path id="path14114" class="st5" d="M4018.5,2452.8c2.1,4.6,4.2,9.3,6.2,14c1.3,3.2,2.4,6.6,4.2,9.7c0.8,1.4,0.8,3.2,1.2,4.8
						c0.7,3.6,1.3,7.2,1.9,10.7"/>
				</g>
				<g id="g14116">
					<path id="path14118" class="st20" d="M4073.3,2426.5l12.3,1.3l14.3,1.3l9.3,0.3h8.8l10.5-0.5l8.8-0.5l7.3-1l5.8-1.8l4.8-1.5
						l2.3-0.7l0.1-2.7c-1.5,0.6-3,1.1-4.5,1.5c-5.4,1.4-10.8,2.8-16.4,3.3c-10.7,0.9-21.4,1-32.2,0.4c-10.7-0.6-21.6-2.4-32.3-3.4
						C4072.6,2424.3,4072.9,2424.3,4073.3,2426.5L4073.3,2426.5z"/>
					<path id="path14120" class="st20" d="M4078.3,2442.1c-6.9-1.2,13.9,0.9,20.9,0.8c2,0,3.9,0,5.9,0c0.5,3.9,1.5,7.8,1.3,11.8
						c0,1.3,0.4,3-1.5,2.5c-1.7-0.1-3.1,0.5-4.5,1.3c-1.5,0.9-3.3,1.3-4.2,3c-1,1.9-2.8,3.4-2.9,5.7c-0.1,1.8-0.8,3.4-0.1,5.2
						c1,2.5,1.2,5.4,3,7.4c1.6,1.8,4.4,1.6,6.7,2c1.8-0.3,1.3,1.6,1.6,2.8c0.6,3.1,0.8,6.3,0.7,9.5c1.9,0.5,4.2,0.3,5.9,1.2
						c2.3,1.3,4.5,2.8,6,5c0.9,1.3,2.2,3.4,2.3,5c0.8,0.1,1.5-2.6,2-3.6c1.1-2.1,1.8-2.5,3.5-4c1.3-1.2,2.8-2.5,4.5-2.9
						c1.5-0.4,3.1-0.5,4.6-0.7c-0.3-3.2-0.1-6.4-0.4-9.6c-0.2-1.3-0.9-2.9,1.1-2.9c1.9-0.5,3.6-1.3,5.2-2.5c1.4-1,2.5-2,3.5-3.5
						c1-1.6,1.4-3.5,1.4-5.3c0.1-2.1,1.1-4.5-0.1-6.4c-1.3-2.1-1.7-4.2-3.7-5.5c-2.8-1.8-7.8-2.5-11.2-1.9c0.3-4.6,0.3-9.2,0.3-13.8
						c2.8,0.2,5.6,0.9,8.3,0.6c5.7-0.6,11.3-2,16.9-3.1c-0.2,1.8-0.3,3.5-0.5,5.3c-3.9,0.8-7.9,1.5-11.9,1.8c-2.5,0.1-6-0.4-8.5-0.3
						c-0.1,1.9-0.2,3.9-0.4,5.8c1.9,0,4.9,0.5,6.8,1.3c2.3,0.9,4.3,2.2,5.8,4c1.3,1.6,2.4,3.6,2.7,5.6c0.4,2.3,0.5,4.5,0,6.8
						c-0.6,2.6-0.9,5.3-2.3,7.5c-1.3,2-3.1,3.5-5.2,4.7c-1.5,0.9-3.3,1-4.9,1.5c0.5,4.1,0.9,8.2,1.1,12.4c-2.3,0.6-4.7,0.5-6.9,1.4
						c-2.5,1-4.6,3.1-6,5.3c-1.6,2.6-3.9,8.5-3.9,8.5s-1.1,0.3-2.9,0.1c-0.1-2.2-0.8-5.8-1.9-7.5c-1.8-2.8-4.6-4.8-7.8-5.9
						c-2.1-0.8-4.4-0.9-6.7-0.6c0.2-4.2-0.3-8.4-0.7-12.6c0-1.4-2.1-0.9-3.2-1.3c-1.6-0.5-3.4-0.7-4.6-1.7c-2.5-2-3.4-5.3-4.3-8.3
						c-0.7-2.2-1-4.5-0.5-6.9c0.7-3.2,2.6-5.9,4.4-8.6c1.1-1.6,2.9-2.4,4.6-3.2c1.7-0.7,3.5-1.1,5.3-1.4c-0.5-2.7-0.9-5.4-0.7-8.1
						c-3.8,0.3-7.6,0.6-11.4,0.3c-3.6-0.3-7.3-0.1-10.9,0.3C4079.2,2445.1,4078.7,2443.6,4078.3,2442.1L4078.3,2442.1z"/>
					<g id="g14122">
						<path id="path14124" class="st21" d="M4093.1,2436c0,2-1.8,3.5-4,3.5c-2.2,0-4-1.6-4-3.5c0,0,0,0,0,0c0-2,1.8-3.5,4-3.5
							C4091.3,2432.4,4093.1,2434,4093.1,2436C4093.1,2436,4093.1,2436,4093.1,2436z"/>
						<path id="path14126" class="st20" d="M4119.6,2437.7c0,1.8-1.6,3.3-3.6,3.3c-2,0-3.6-1.5-3.6-3.3c0,0,0,0,0,0
							c0-1.8,1.6-3.3,3.6-3.3C4118,2434.4,4119.6,2435.8,4119.6,2437.7C4119.6,2437.6,4119.6,2437.6,4119.6,2437.7z"/>
						<path id="path14128" class="st20" d="M4143.7,2435.6c0,1.6-1.5,2.8-3.3,2.8s-3.3-1.3-3.3-2.8s1.5-2.8,3.3-2.8
							S4143.7,2434.1,4143.7,2435.6L4143.7,2435.6z"/>
					</g>
				</g>
				<path id="path14130" class="st5" d="M4096.3,2377.6c0,0,0.6-0.6,0.9-0.8c0.4-0.2,0.9-0.4,1.4-0.4c0.6-0.1,1.2-0.1,1.8,0
					c0.4,0.1,0.9,0.3,1.3,0.5c0.2,0.1,0.5,0.4,0.5,0.4"/>
				<g id="g14132" transform="matrix(1.01871,0,0,1,-4.472,2)">
					<path id="path14134" class="st22" d="M4017.1,2288.5c-3.4,2.2-6.7,4.4-9.4,7.3c-1.1,1.1-3.1,5.4-2.9,7c0.2,1.3,0.3,4.9,0.8,6
						c0.5,1.3,0.3,1.3,1.2,2.6c5.3-1.7,13-4,18.6-4.9c3.5-0.6,7.1-0.4,10.7-0.2c4.2,0.3,8.4,1.1,12.5,2.2c3.4,0.9,6.8,2,9.8,3.8
						c3.3,2,6,4.8,8.5,7.8c2.4,2.9,5.1,5.7,7.1,8.9c1.5,2.3,2.7,4.7,4.8,6.6c1.5,1.4,2.5,3.5,4.6,4c1.4,0.4,2.6,1.2,4.1,0.7
						c1.6-0.6,3.3-0.6,4.5-1.9c1.2-1.4,3.2-2.1,3.6-4.1c0.4-1.9,1.9-3.7,1.9-5.6c0-3.1-0.4-6.1-1.4-9.1c-0.7-2.1-1-4.2-2.4-5.9
						c-3-3.8-5.3-8.2-8.7-11.8c-2.3-2.4-4.6-5-7-7.3c-1.5-1.4-3.2-2.4-5.1-3.4c-2.1-1.1-3.9-2.4-5.8-2.6
						C4049.8,2288.6,4034.1,2288.5,4017.1,2288.5L4017.1,2288.5z"/>
					<g id="g14136">
						<path id="path14138" class="st23" d="M4029.1,2299.6c0.6,2.9,3,5,5.9,5.5c0.7,0.1,1.4,0.3,2.1,0.5"/>
						<path id="path14140" class="st23" d="M4033.8,2296.9c0.7,2.4,2,5.1,4.7,5.9c3.5,1,7.2,2.1,9.8,4.9"/>
						<path id="path14142" class="st23" d="M4049.1,2299.4c1.9,2.6,4.2,4.9,7.2,6.2c4.2,1.9,6.9,6,9.1,10c1.5,2.7,3,5.4,4.5,8"/>
						<path id="path14144" class="st23" d="M4068.1,2309.9c2.3,4,4.7,7.9,7,11.9c1.6,2.8,1.8,6.1,1.3,9.3"/>
						<path id="path14146" class="st23" d="M4068.5,2301.6c2.8,6.1,6.8,11.6,8.9,18c1.3,3.9,0.8,9.3,0.9,13.3"/>
						<path id="path14148" class="st23" d="M4072,2298.8c1,3.9,2.7,7.5,4.6,11c3.7,6.5,5.3,14.3,4.6,21.8c0,0.4-0.4,3.6-0.5,4.1"/>
						<path id="path14150" class="st23" d="M4074.6,2296c0.8,3.4,2.4,6.5,4.1,9.6c2.2,3.9,3.3,8.3,4.4,12.6c0.8,3,1.5,6,0.8,9.2
							c-0.5,2-1.1,7.8-1.2,9.9"/>
						<path id="path14152" class="st23" d="M4083.5,2308.3c0.5,3.4,1.3,6.7,2.5,9.9c1.3,3.3,0.6,6.8,0.7,10.3c0,2-1.6,7.7-2.2,9.5"
							/>
						<path id="path14154" class="st23" d="M4087.2,2310.8c0.3,3.2,1,6.2,2.2,9.2c1.9,5.1-0.7,13.1-3.1,18"/>
						<path id="path14156" class="st23" d="M4091.6,2317.7c1.6,2.5,2.2,5.4,2,8.4c-0.4,3.7-2.5,10.5-5.3,12.5"/>
					</g>
				</g>
				<path id="path14158" class="st3" d="M4080.6,2312.4c-0.9,0.2-1.7,0.3-2.5,0.8c-0.7,0.4-1.5,0.8-1.8,1.5c-0.2,0.7,0,3.5,0.5,4
					c0.6,0.7,0.6,0.9,2.4,1.3c1.2,0.2,2.7,0.2,3.9-0.3c1.8-0.6,4.7-1.7,6.4-2c2.5-0.4,5-0.9,7.5-1c2.9-0.1,5.9-1.3,8.8-0.8
					c3.1,0.5,6.2,0.2,9.3,1.1c3,0.9,5.9,2,8.8,3.3c1.6,0.7,3.1,1.8,4.8,2.3c1.3,0.4,2.6,0.4,3.9,0.8c1.5,0.4,2.8,1.2,4.3,1.7
					c1,0.3,2,0.6,3,0.8c0.7,0.1,2.3,0.3,2.3,0.3s-2.3-3.5-3.8-5c-2.4-2.4-5.1-4.9-8-6.6c-4.4-2.5-9.1-4.3-14-5.4
					c-4.3-1-8.8-0.9-13.3-0.8c-3,0.1-6,0.6-9,1c-2.3,0.3-4.5,1.2-6.8,1.5C4085.4,2310.9,4082.4,2312,4080.6,2312.4L4080.6,2312.4z"
					/>
				<g id="g14160">
					<path id="path14162" class="st5" d="M4072.9,2338.3c-0.1,2.6,0.6,5.5-0.6,7.9c-1.3,2.7,2,7.2,1.1,10.3
						c-0.7,2.5-6.2,3.2-5.3,5.5c0.8,2-0.4,5.8-3.1,4.2c-1.7-0.9-0.9-3.8,0.6-3.5"/>
					<path id="path14164" class="st5" d="M4067.8,2373.9c-3.4,2-5.7,7-6.4,10.8c-0.5,2.6-1.7,5.3-3.8,7.1c-1.3,1.1-3.1,1.8-4.6,0.9"
						/>
					<path id="path14166" class="st5" d="M4071.5,2402.7c-2.6-1.4-1.3-4.8-1.9-6.6c-0.9-2.4-2.1-5-1.8-7.6c0.4-2.9,0.5-14,0.6-17.1
						l0.2-2.1l1.5-2.4l1.3-1.5v-2.4l1.6-1.3l2.4-1.3l1.5-1.5l0.3-1.9"/>
					<path id="path14168" class="st5" d="M4053,2404.3c3.2-0.1,4.3-0.7,5.7-2.7c1.5-2.1,2.6-5.4,4.1-7.4c1.4-1.9,2.6-9.3,5.5-10"/>
					<path id="path14170" class="st5" d="M4132.9,2323.5c0.6,4,2.5,7.7,3,11.7c0.4,3.6,3.8,6.5,3.1,10.2c-0.6,3.5,0.2,7.2-1,10.6
						c-1.3,3.8,2.3,5.9,3.4,9c1.2,3.3,1.2,6.6,4.4,8.9c3.5,2.5-0.6,6.9-1.6,9.9c-1.3,3.7-2,8.4,0.2,11.9c2,3,6.5,1.1,8.5,5.5
						c1.3,3,2.8,6.6,6,7.9c3.4,1.3,7.9,0.6,10.4-1.9c2.8-2.7,0-8.9-4.4-9.1c-3.5-0.2-6.7,7.9-1.2,6.1"/>
					<path id="path14172" class="st5" d="M4135.8,2324.4c2.4,3.6,3.4,9.5,4.4,13.7c0.7,3.1,1.5,6,1.3,9.3c-0.2,4,0.7,7.7,1.4,11.8
						c0.5,3.2,0.9,6.6,3.1,8.6c2.7,2.4,6.8,3.1,6.4,7.1c-0.4,4-1.5,7.7-3,11.4c-1.6,3.8,2.5,8.4,5.4,9.9c3,1.5,8.7,0.3,9.1-3.6
						c0.5-4.4-1.1-8.9-3.3-4.6c-1.6,3.2-6.8,1.6-5.6-3.1c0.9-3.6,3.3-3.2,3.7-6.5c0.3-3.4-0.8-4.9-1.6-8.1c-0.8-3.4-7.3-3.5-8.9-7.1
						c-1.6-3.6-1.8-7.7-2.1-11.6c-0.4-5.6-0.6-11.2-2.4-16.6c-0.9-2.9-0.3-5.8-2.4-8.3"/>
					<path id="path14174" class="st5" d="M4148,2335.9c1.4,3.7,1.8,7.6,2.8,11.4c1.2,4.1,2.9,7.9,2.8,12.2c0,4,4.1,5,5.8,8.4
						c1.6,3.4,2.1,6.4,2.5,9.8c0.3,3.1-2.9,7.9,2.3,8.4c3,0.3,5.9,1.6,7.4,4.4c2.1,3.7,1.4,7.8,1,11.8c-0.3,2.8,1.3,6.3-2.5,7.1"/>
					<path id="path14176" class="st5" d="M4156,2350.3c0.9,2.3,1,4.9,2.2,7.1c1.6,2.8,7.9,3.5,5.7,7.8c-1.9,3.6,1.2,7.1,1.4,10.6
						c0.2,3.5,1.2,9.2,4.2,8.5c4.3-1,3.4,2.3,4.7,4.2c1.9,2.6,3.9,4.1,3.8,7.7c-0.1,3.3-2.8,5.4-2.8,9.2c0,2.7,3.5,4.2,4.4,6.5"/>
					<path id="path14178" class="st5" d="M4180.8,2392.5c1,3.7,2.5,7.1,2.9,11.1c0.3,2.8-3,5.8-4.3,1.8c-0.5-1.4,0.9-2.6,1.6-3.8"/>
					<path id="path14180" class="st5" d="M4053.9,2387.1c-0.1,0.5-0.3,1,0.1,1.4c0.4,0.6,1.1,1,1.9,0.7c0.7-0.2,1.2-0.7,1.4-1.4
						c0.2-0.6,0.3-1.3,0.3-1.9"/>
					<path id="path14182" class="st5" d="M4052.1,2392.8c0.6,0.5,1.4,0.8,1.8,1.6c0.5,1.1,0.9,2.4,0.3,3.6c-0.3,0.7-0.4,1.7-1.1,2.1
						c-0.8,0.5-1.8-0.1-2.4-0.7c-0.4-0.4-0.1-1-0.1-1.6"/>
					<path id="path14184" class="st5" d="M4068.9,2394.6c-0.7,1.3-1.5,2.5-1.8,3.9c-0.4,1.9-0.9,3.7-1.8,5.4c-0.8,1.6-1.9,3-3.1,4.4
						c-0.4,0.5-0.8,1.1-1.5,1.3c-0.7,0.3-1.3,0.7-2,1c-0.6,0.2-2.5,0.1-2.5-0.7"/>
					<path id="path14186" class="st5" d="M4078.1,2362.3c-0.6,1.1-1.1,2.5-2.4,2.9c-1.2,1-1.8,2.6-2.2,4.1c-0.6,2.3-1.5,4.5-1.4,6.9
						c0,3.1,0.3,6.3,0.2,9.4c0,2.6-0.4,4.7,1,6.9c1.1,1.3,3.3,2.5,4.2,4c0.6,1.4,0.8,3.4-0.6,4.3c-1.6,0.9-4.3-0.6-3.7-2.1
						c0.2-0.5,0.9-1.6,1.3-1.6"/>
					<path id="path14188" class="st5" d="M4079.2,2366.1c-1,1.9-2,3.8-2.3,5.9c-0.2,1.7-1,3.2-0.9,5c-0.1,3.3,0.2,4.3,0.2,7.5
						c0.1,1.9,0.9,3,2.2,5.8c1.6,1.5,1.5,5.7,1.7,7.8c0.1,0.9-0.1,1.8-0.3,2.6"/>
					<path id="path14190" class="st5" d="M4081.6,2375c0,0-1,1.6-1.3,2.5c-0.3,0.9-0.4,1.9-0.3,2.9c0.1,1,0.4,2,0.9,2.9
						c0.3,0.6,0.9,1,1.4,1.5c0.6,0.6,1.4,0.9,1.8,1.6c0.3,0.6,0.3,2.1,0.3,2.1"/>
				</g>
				<path id="path14192" class="st7" d="M4050.9,2529.4c-2.6-0.5-4.9-1.7-7.2-2.9c-1.3-0.7-2.6-1.6-3.5-2.7
					c-1.1-1.3-1.8-2.8-2.4-4.4c-0.5-1.4-1.2-3.2-0.2-4.2c0.9-0.9,1.3-0.7,1.4-1.8c0.2-2-0.4-3.9-0.3-5.9c0.1-1.7,0.6-3.3,1.5-4.7
					c1.6-2.7,2.4-5.8,3.7-8.7c1.4-2.9,1.9-6.2,3.2-9.1c1.2-2.8,2.6-5.4,4.5-7.8c1-1.3,2-2.8,3.4-3.8c2.5-1.8,4.9-3.7,7.8-4.7
					c1.2-0.4,2.2-1.4,3.4-1.4c1.4,0,3,0.3,4.2,0.9c1.1,0.5,1.7,1.5,2.2,2.7c0.8,1.7,0,3.6-1.1,4.8c-0.7,0.7-1.9,0.6-2.9,0.9
					c-2.3,0.9-4.9,0.7-7.2,1.4c-1.7,0.5-2.9,1.9-4.2,3c-0.9,0.8-0.4,1.5,0.4,0.7c1-1.1,2-2.9,3.5-3.2c3.7-0.9,7.4-1.9,11.2-2.4
					c1.2-0.2,2.5,0.3,3.2,1.5c0.9,1.7,1.5,3.6,1,5.3c-0.4,1.2-1.7,2.1-3.2,2.2c-2.3,0.1-4.6,0.5-6.8,0.8c-2.2,0.4-3.6,1.8-5.4,3.2
					c-0.9,0.7-1,1.6-0.1,0.8c2.7-2.2,3.1-2.5,5.1-3.2c2.2-0.7,4.5-1,6.7-1.5c1.4-0.3,2.9,0,4.1,0.8c0.7,0.5,0.6,1.7,0.8,2.5
					c0.2,1-0.3,1.8-0.9,2.6c-0.8,1-2.1,1.4-3.2,2c-1.6,0.8-3.4,0.9-4.9,2c-0.8,0.5-1.7,1.2-2.4,1.7c-0.7,0.5-1.4,0.7-1.2,1.2
					c0.1,0.4,1.7-0.6,2.4-1c2.7-1.7,5.1-4.1,8.2-5.1c0.9-0.3,1.1,0.3,2,0.8c1,0.5,1.5,0.9,1.4,2c-0.1,1.3,0.6,2.7,0.2,3.9
					c-0.6,1.7-2.3,2.6-3.9,3.1c-1.2,0.4-2.3,1.2-3.2,2.1c-0.9,0.8-1.4,1.7-2.4,2.3c-1,0.5-2.4,0.7-2.9,1.7c-0.3,0.6,2.2-1.4,2.3-0.4
					c0,1.2-0.1,2.3-0.6,3.3c-0.5,1-0.8,2-1.8,2.8c-2.1,1.7-3.2,4.4-5.3,6c-1.9,1.4-4.4,1.7-6.8,1.7c-1,0-1.7,0.1-1.9,1.3
					c-0.2,1.2,0.1,2.3,0,3.5c-0.1,1.4-0.5,3.6-1,3.5L4050.9,2529.4z"/>
				<g id="g14194">
					<path id="path14196" class="st5" d="M4049.5,2486.4c0.2,0.9,0.3,1.8,0.5,2.8c0.9,0.8,2.1,0.9,3.1,0.3"/>
					<path id="path14198" class="st5" d="M4052.1,2491c0.1,1.7-0.5,3.8,1.2,4.9c0.9,0.7,2,0.6,3.1,0.6"/>
					<path id="path14200" class="st5" d="M4057.6,2502.1c0,1.2,0.2,2.6,1.5,2.8c0.4,0.4,0.8,0,1.2-0.2"/>
				</g>
				<path id="path14202" class="st16" d="M3976,2529.9c0,0,2.2-2.9,3-4.5l1.8-3.8l3.5-3.1l4.3-5.3l4.4-4.5l3.6-3.6l5.8-4.1l5.9-3.1
					l6.1-3l5.6-1.4l4,0.4l3-0.9l4.3-0.6l3.5-0.9l1.8-0.1l2,0.1l1.9,0.8l1.8-0.4l1.6-0.1c0.3,0,1-0.3,1-0.3s-0.5,1.5-0.8,2.3
					l-0.8,2.5l-1.1,2.9l-0.9,2.1l-1.5,2.9l-1.1,2.9v1.6v1.5l-0.5,0.9l-1.3,0.6h-1.4h-1.4l-0.6,1.3l-2,1.8l-1.8-0.1h-1.9h-1.6
					l-2.3,2.4l-1.9,2.5l-1.8,3l-1.9,2.8l-0.5,1.4l-0.3,1.1l0.8-1.4l0.9,1.6c0.3,0.6,0.4,2,0.4,2l-43.1-0.1L3976,2529.9z"/>
				<g id="g14204">
					<path id="path14206" class="st5" d="M3990.1,2529.5c1.9-3.6,4.3-6.9,6.9-10"/>
					<path id="path14208" class="st5" d="M3993.9,2529.4c1.7-2.6,3.6-5.2,5.9-7.4"/>
					<path id="path14210" class="st5" d="M3997.6,2529.3c1.5-1.7,3.3-3.2,4.5-5.3"/>
					<path id="path14212" class="st5" d="M4003.9,2529.1c0.8-1,1.6-2,2.1-3.1"/>
					<path id="path14214" class="st5" d="M4008.3,2517c0.9-2.1,1.5-4.3,2.9-6.1c1.5-2,3.1-4.1,5.1-5.7c3-2.4,6.5-4,9.7-6.2
						c1.3-0.9,2.5-2.1,4.1-2.7c1.3-0.5,2.1-1.8,2.9-2.8c0.7-0.9,1.7-1.3,2.7-1.8"/>
					<path id="path14216" class="st5" d="M4032.1,2498.1c1.1-1,2-2.5,3.6-2.6c0.9-0.1,1.8,0.2,2.5-0.5c0.9-0.8,1.4-2,2.1-2.9"/>
					<path id="path14218" class="st5" d="M4032.4,2506.8c-2.3,3-4.9,5.7-7.1,8.7c-2,2.7-4.5,5.2-6.1,8.2c-1,1.9-1.5,4.1-2.5,6"/>
					<path id="path14220" class="st5" d="M4038.5,2506.4c-1.6,1.7-3.1,3.5-4.6,5.4"/>
				</g>
				<path id="path14222" class="st19" d="M4195.9,2529.3l0.4-2.2l1-1.9l1-2.2l0.6-2.4l0.2-2.5l0.7-2.8l0.9-2.4l1.5-3l0.8-3.6v-2.5
					l0.2-2.7l0.9-2.7l1.5-2.4l1.2-1.9l0.4,1.9l1,1.5l2.4,1.8l2.7,2.6l2.8,1.3l2.6,0.7l2,0.4h1.4l4-1.2l1.7-1.1l1.9-1.2l1.6-0.8
					l0.1-1.7l1.6,4.9l2,4.2l1.3,3.1l1.5,3.7l1.4,4.8l0.5,4.9l-0.2,4.5l0.2,1.2L4195.9,2529.3z"/>
				<path id="path14224" class="st0" d="M4208.6,2492.6c-0.7-0.1-1.6,0.4-1.9,1c-0.5,1,0.3,2.3,0.9,3.3c0.5,0.8,1.2,1.4,1.9,2.1
					c1.5,1.3,3.2,2.4,4.9,3.5c1.1,0.6,2.2,1.3,3.4,1.6c1.2,0.3,2.4,0.5,3.7,0.4c1.3-0.1,2.5-0.3,3.7-0.7c1.2-0.4,2.4-0.9,3.4-1.6
					c1-0.6,2-1.3,2.6-2.3c0.4-0.8,0.4-1.8,0.3-2.7c0-0.4,0-1.1-0.4-1.1c-1.3-0.3-1.7,2-2.8,2.9c-1.1,0.9-2.4,1.7-3.7,2.3
					c-1.1,0.4-2.2,0.6-3.3,0.6c-1.1,0-2.3-0.2-3.3-0.7c-1.8-0.8-3.3-2.2-4.8-3.5c-1.1-1-2.1-2.2-3.1-3.3
					C4209.5,2493.7,4209.3,2492.8,4208.6,2492.6L4208.6,2492.6z"/>
				<g id="g14226">
					<path id="path14228" class="st5" d="M4223.5,2510.8c-1.6,0.4-3.3,0.3-4.9,0.1c-1.4-0.2-2.8-0.7-4.1-1.3c-0.7-0.3-1.4-0.7-2-1.1
						"/>
					<path id="path14230" class="st5" d="M4223.6,2515c-1.8,0.8-3.8,1.2-5.8,1.3c-2.1,0.1-4.2,0-6.3-0.7"/>
					<path id="path14232" class="st5" d="M4224.5,2519.4c-1.8,1.2-3.7,2.1-5.8,2.4c-1.4,0.3-2.8-0.1-4.2-0.1c-0.9,0-1.8-0.1-2.7-0.1
						"/>
					<path id="path14234" class="st5" d="M4225,2524c-1.9,0.3-3.6,1.2-5.5,1.5c-2.1,0.4-4.3,0.6-6.5,0.6c-0.3,0-0.5-0.1-0.8-0.1"/>
					<path id="path14236" class="st5" d="M4233.1,2504.4c-0.1,1.4,0.2,2.8,0.5,4.1c0.3,1.6,0.9,3.1,1.3,4.6c0.4,1.6,1,3.3,1.3,4.9
						c0.3,1.9,0.4,3.9,0.5,5.9c0,0.4,0,0.8,0.1,1.1"/>
				</g>
				<path id="path14238" class="st7" d="M4222.6,2501.4c-1.8-0.1-3.4,0.3-5-0.5c-2.6-1.3-4.7-3.6-6.7-5.6c-0.6-1-1.3-1.9-2.2-2.6
					c0.2-1.9,0.7-3.9,0.2-5.8c-0.3-2.5-0.8-5-2.3-7c-2.1-3.3-3.9-6.7-5.8-10.1c-0.5-1.7-0.9-3.4-0.7-5.1c0-3.9,0.2-7.8,0.9-11.6
					c0.7-2.2,1.3-4.4,1.4-6.8c0.2-1.5,1-2.9,1.6-4.3c0.9-1.5,2.1-2.8,3.1-4.1c0.4-1.1,1.2-2.2,0.8-3.5c-0.1-1.4,0.7-2.7,1.6-3.7
					c1.1,0.3,2.5,0,3.1,1.2c1.1,0.8,1.3,2.2,1.6,3.5c0.1,2,0,4.1-0.5,6.1c-0.3,1.8-1.1,3.5-2.5,4.8c-1,0.1-1.3,0.3-2.3-0.1
					c0.7,0.7,1,0.9,1.6,1.7c-0.2,1.7,0.9,0.2,1.6-0.3c1.6-1.1,3.5-1.5,5.3-2.3c1.9-0.6,3.8-1.3,5.1-2.9c1-0.4,2.3-0.9,2.4-0.9
					c2.2,0.2,3.8-0.1,6,0c1.4,1.1,2.4,2.7,2.5,4.6c0.3,1,0,2.3-1,2.8c-1,0.8-1.7,1.8-2.9,2.3c1.6,0.4,3.2,0.5,4.7,1
					c0.8,0.6,1.5,1.3,1.4,2.4c0.1,1.7,0.3,3.5,0.1,5.2c-0.8,1.7-2.7,2.2-4.3,3c-0.8-0.1,1.6,0.7,1.6,1.4c0.3,1,1,1.8,1.4,2.7
					c0,1.7,0.6,3.3,0.1,4.9c-0.9,0.7-2.3,0.9-3.4,1.2c-1.8-0.3,0.1,0.8,0.6,1.4c0.8,0.6,1.5,1.5,1.6,2.5c-0.4,1.2-0.8,2.7-2.2,2.9
					c-1.7,0.8-2.4,1.1-1.7,3.1c0.4,2.6-0.1,5.3,0.1,7.9c-0.2,2.5,1,4.8,1,7.3c0.1,1,0.3,2.2-1.1,2c-2.2,0.5-4.2,1.8-6.6,1.4
					C4223,2501.4,4222.8,2501.4,4222.6,2501.4L4222.6,2501.4z"/>
			</g>
			<g id="g14240">
				<path id="path14242" class="st24" d="M4210.5,2448.5c-0.2,0.6-0.8,1.1-0.7,1.8c0.1,0.7,0.5,1.5,1.2,1.8c0.8,0.4,1.7,0.6,2.6,0.5
					c2.1-0.4,4.2-0.8,6.4-1.2c0.9-0.2,1.7-0.8,2.6-0.6c1.9,0.4,3.9,0.7,5.8,0.2c0.6-0.1,1.1-0.2,1.7-0.3"/>
				<g id="g14244">
					<path id="path14246" class="st5" d="M4215,2452.4c-1.1,0.9-3.5,1.2-4.1,2.5c-0.3,0.6-0.3,2.7,0.3,3c2,1.1,4.4,1.4,6.6,1.8
						c1.5,0.3,3.1,0.5,4.6,0.9c1.5,0.4,2.9,1,4.4,1.4c1.1,0.3,2.4,0,3.5,0.3c0.4,0.1,0.8,0.3,1.1,0.4"/>
					<path id="path14248" class="st5" d="M4217,2459.7c-0.7,0.1-3.2,0-3.7,0.5c-0.5,0.5-0.7,2.2-0.4,2.9c0.7,1.4,2.2,1.6,3.5,2.5
						c1,0.7,1.9,1.6,3.1,2c1.8,0.6,3.5,1.3,5.1,2.2c1.6,1,3.3,2,5.1,2.7c0.3,0.1,0.6,0.2,0.8,0.4"/>
					<path id="path14250" class="st5" d="M4225.6,2470.5c-1.5-0.3-3.1-1-4.6-0.9c-0.4,0-3.9-0.3-4.7,0c-0.8,0.3-1.7,0.2-2.2,0.9
						c-0.4,0.7-0.7,2.3-0.2,2.9c1.1,1.4,2.8,2.1,4.4,2.7c2.6,1.1,5.1,2.2,7.7,3.1c0.9,0.3,1.8,0.8,2.7,0.8c0.6,0,1,0.1,1.5,0.1
						c0.3,0,0.7-0.5,1-0.4"/>
				</g>
			</g>
			<path id="path14252" class="st25" d="M4219.1,2477l6.9,52.5l9.2,0.2l-6.6-49.5l-3.4-1.1l-2.7-0.9L4219.1,2477z"/>
			<g id="g14254">
				<g id="g14256">
					<path id="path14258" class="st5" d="M4209.6,2468c-0.2,1.6-0.8,3.2-0.7,4.9c0.2,2.4,1,4.8,1.8,7.1c0.1,0.3,0.3,0.5,0.5,0.8"/>
					<path id="path14260" class="st5" d="M4207.5,2481.2c1.1,1.1,2,2.4,3.2,3.5c0.8,0.7,1.9,1.1,2.6,1.8c0.3,0.3,0.5,0.7,0.8,1.1"/>
				</g>
				<path id="path14262" class="st3" d="M4054,2473.6c0-0.6-0.1-1.2-0.1-1.8c-0.4-0.4,0-0.4-0.4-0.8c-0.7,0.2-2.3,0.2-3.1,0.4
					c-0.5-0.1-1.1-0.2-1.6-0.4c-0.4-0.4-1-0.7-1.3-1.1c-0.1-0.9-0.3-1.8-0.4-2.7c0.1-0.7,0-1.5,0.1-2.3c0.6-0.8,1-1.7,1.8-2.3
					c0.3-0.3,0.6-0.6,1.1-0.6c0.9-0.3,1.7-0.5,2.6-0.8c0-0.5,0.2-1-0.1-1.4c-0.3-0.6-0.4-1.2-0.5-1.8c0-0.4-0.3-0.9,0.1-1.2
					c0.3-0.4,0.6-0.9,1-1.2c0.5-0.1,1-0.5,1.6-0.3c0.4,0.1,0.9,0.1,1.3,0.2c0.7,0.7,1.4,1.4,2,2.1c0.1,0.3,0.2,1,0.5,0.5
					c0.5-0.4,0.9-1,1.5-1.1c0.5-0.2,1.1-0.5,1.6-0.5c0.6,0.1,1.3,0,1.9,0.1c1,0.6,1.9,1.2,2.9,1.9c0.4,0.5,0.8,1,1.1,1.6
					c0.1,0.6,0.4,1.2,0.4,1.9c-0.1,0.4-0.1,0.9-0.3,1.3c-0.7,0.5-1.4,1-1.9,1.7c-0.2,0.3-0.2,0.7-0.2,1c0.1,0.3,0.1,0.8,0.6,0.8
					c0.7,0.1,0.2,0.2-0.2,0.4c-1.5,0.6-3,1.2-4.5,1.8c-1.9,1.2-3.8,2.3-5.5,3.6c-0.6,0.5-1.2,1-1.8,1.6
					C4054.3,2474,4054.1,2473.8,4054,2473.6L4054,2473.6z"/>
				<g id="g14264">
					<path id="path14266" class="st5" d="M4053.8,2471c0.1-0.8,0.4-1.9,0.5-2.6c0.5,0.2,1,0.6,1.6,0.7c0.7-0.1,1.6,0,2.2-0.4
						c0.4-0.2,0.9-0.3,1.3-0.6c0.6-0.7,1.2-1.5,1.7-2.2c0.2-0.9,0.4-1.8,0.8-2.6c0.2-0.2,0.7,0.2,1,0.2c0.8,0.2,1.7,0.6,2.5,0.6
						c0.7,0.1,1.3-0.2,2-0.3"/>
					<path id="path14268" class="st5" d="M4052.9,2461.1c0.7,0.3,2,0.6,2.5,1.1c0.4,0.7,0.8,1.4,1.1,2.2c-0.2,0.6-0.3,0.1-0.4-0.3
						c-0.2-0.6-0.3-1.2-0.4-1.7"/>
					<path id="path14270" class="st5" d="M4058.8,2458.4c0.1,0.7-0.4,1.7-0.1,2.3c0.2,0.1,0.6,0.9,0.7,0.3c0-0.4-0.2-0.7-0.3-1.1
						C4058.7,2459.5,4059,2458.8,4058.8,2458.4z"/>
				</g>
				<g id="g14272" transform="translate(0,512.36)">
					<path id="path14274" class="st19" d="M4019.8,2017.3l28.3-0.3l-1.6-1.2l-2.3-1.3l-3.1-2.2l-1.4-1.7l-1.4-2.4l-0.4-2.4l-0.6-1.4
						l0.1-1.6l0.9-0.8l0.9-1v-1.4l-0.3-1.9l-1,1.1l-1.1,0.4l-1.3,0.1l-1.1,0.1l-0.6,1.4l-1.3,0.9l-1.8,0.4h-2.4l-1.7-0.2l-2.4,2.4
						l-1.6,2.5l-1.8,2.8l-1.8,2.9l-0.4,0.9l0.4,1l0.5,1.1l0.4,0.8L4019.8,2017.3z"/>
					<g id="g14276">
						<path id="path14278" class="st5" d="M4019.7,2016.3l1.3-2.4l1.7-2.1l1.7-1.9l1.6-2.3l1.6-2.5l0.9-1.1l1.1-1.3"/>
						<path id="path14280" class="st5" d="M4032.6,2012.5l0.9,0.9l1.3,1.1l1.4,0.7l1.6,0.7l1.7,0.6l1.3,0.4"/>
					</g>
				</g>
				<g id="g14282">
					<g id="g14284" transform="translate(0,512.36)">
						<path id="path14286" class="st3" d="M4068.8,1994.5l1.9-1.5l2.1-2l1.9-1.1l1.9-1.1l0.8-0.2v1.3l-0.2,1.6l0.4,1.1l1.2,0.5
							l1.1,0.9l0.1,1.9l0.2,1.3l0.5,1.1l1.7,0.7l1.8,0.2l2-0.1l3,0.1l2.7,0.5l2.5,0.3l2,0.3l1.1,1l0.4,1.7l-1.1,0.9l-3.2,1.1
							l-3.6,0.8l-1.1,0.7l-0.8,0.1v1.2l-0.1,0.9v0.7l-1.7,0.7l-0.8,0.3v1.4l0.5,1.6l0.9,2.6l0.5,1.2l-4.7,0.4l-6-0.2l-3.8,0.2
							l-2.7-0.3l-0.6-1.7l-0.6-1.1l-2.2,0.9l-2.1,0.4l-1.9,0.9l-1.7,0.4l-2,0.4l-1.6-0.2l-1-0.4l-0.4-1.6l0.5-1.1l-0.4-1.1l-0.7-0.8
							l0.2-1.5l1.1-1.1l2-0.7l3.2-1.2l2.1-1.2l1.6-1.1l1.2-1.5l1.9-2.3l-1.2-1.3l0.5-2l1-1.9L4068.8,1994.5z"/>
						<path id="path14288" class="st26" d="M4057,2013.5l7.1-1.5l5.5-2.5l6.1-1.7l5.9-1.8l4.5-1l4.8-0.9l4.2-0.4l1.5-0.5"/>
					</g>
					<path id="path14290" class="st26" d="M4069.2,2526.8l3.8-0.9l6.1-1.7l3.5-0.7l2.5-0.6"/>
				</g>
				<g id="g14292">
					<path id="path14294" class="st5" d="M4069.1,2509.5c1.3-0.8,2.6-1.6,3.9-2.3c1.1-0.5,2-1.3,3-2c0.3-0.2,0.6-0.1,1-0.2
						c0.1,0,0.3,0,0.4,0"/>
					<path id="path14296" class="st5" d="M4069.2,2513.3c0.9-0.5,1.8-1.1,2.7-1.5c0.6-0.1,1.2-0.3,1.8-0.4c0.6,0.4,1.2,0.8,1.9,0.9
						c0.5,0.3,1.1,0.2,1.6-0.1c0.4-0.2,1-0.2,1.4-0.6c0.4-0.5,0.9-0.9,1.3-1.4"/>
				</g>
			</g>
			<g id="g14298" transform="translate(0,512.36)">
				<path id="path14300" class="st25" d="M4087.5,2017.1l-1.5-2.8l-0.6-2.1l-0.1-1.3l1.3-0.9l2.4-0.5l9.1-0.8l7.5-0.5h9.5l15-0.5
					l9.8,0.1h8l8.4,0.3l7.8,0.4l5.4,0.5l5.3,0.8l0.5,2.4v2.8v2L4087.5,2017.1z"/>
				<path id="path14302" class="st27" d="M4086,2012.9l5.3-0.6l8.6-0.9l10.1-0.6l14.6-0.6h14.4l9.3-0.1l8.6,0.3l6.8,0.4l7.5,0.8
					l3.6,0.4l0.1,1.6l-5.4-0.1l-9.6-0.9l-9.8-0.3h-9.6l-9.3-0.1l-14.8,0.5l-10.1,0.5l-8,0.8l-6,0.8c-1.9,0.1-3.8,0.4-5.6,0.9
					L4086,2012.9z"/>
				<g id="g14304">
					<path id="path14306" class="st5" d="M4175,2016.5l-3.5-2.8l-3.5,2.9l-3.4-3.5l-3.1,3.5l-3.6-3.6l-4.8,3.4l-4.5-3.3l-3.4,3.1
						l-3.6-3l-3.4,3.5l-4.3-3.6l-3.3,3.4l-4.8-3.4l-3.3,3.3l-4.5-3l-4,3.1l-3.4-2.8l-5,3l-4.4-2.3l-3.8,2.4l-4.5-2l-4.3,2.1"/>
					<path id="path14308" class="st16" d="M4207.5,1970.1l-2.8,3.4l-4.6,6.1l-5.5,8.3l-2.9,5.4l-3,4.5l-2.3,2.8l-1.6,4.9l-0.9,3.9
						l-0.6,1.5l-0.9,2.1l-0.1,1.9v2.3h13.6l0.5-2.9l1.1-2l0.9-2.4l0.5-3.4l0.9-4.1l1.6-3.5l1.1-3.8l0.3-3.9v-2.1l1.9-4.3l2-3.4
						l2-1.5l0.8-3.8l-0.6-2.9L4207.5,1970.1z"/>
					<path id="path14310" class="st5" d="M4202.5,1989.3l-1.9,2.8l-2.4,3.9l-1.6,3.6l-1.6,4.1l-1.4,4l-0.9,4.1"/>
				</g>
			</g>
			<g id="g14312">
				<path id="path14314" class="st16" d="M4232,2488c1.9,1.4,2.7,3,4.2,5c2.1,4.3,4.2,7.9,5.8,13.1c1.2,3,1.2,6.4,2.5,9.4
					c1.3,3.7,0.9,7.6,1.2,11.4c0.3,1.4,0.6,3.1-1.3,2.6c-1.5,0-3,0-4.5-0.1c-0.6-2.9,0.7-5.8,0.1-8.7c-1-7.9-5.9-14.5-8-22
					c-0.4-2.4-1.5-4.7-1.4-7.2c-0.2-1.3-1.2-3.7-0.7-5L4232,2488z"/>
				<path id="path14316" class="st5" d="M4230.8,2491.8c1.3,1.3,2.6,2.7,3.5,4.3c0.6,1.4,0.8,2.9,1.5,4.2c0.6,1.3,1.1,2.7,1.1,4.1
					c0.2,2,0.2,5.1,0.3,7.1"/>
			</g>
		</g>
	</g>
	<path id="path14318" d="M-3851-1188.1c-1.3,6.7-2.9,8.4-5.3,12c-2.1,3.1-5.1,5.6-8,8c-2.9,2.5-6.2,4.4-9.3,6.7
		c-3.6,2.6-7.8,4.6-10.7,8c-3.2,3.8-6.7,8.4-6.7,13.3c0,4,2.4,8,5.3,10.7c3.5,3.2,8.5,5.4,13.3,5.3c5.4-0.1,10.8-2.9,14.7-6.7
		c2.9-2.8,5.3-10.7,5.3-10.7v2.7c0,1.3-0.1,7.3-1.3,10.7c-1.4,4-3.8,7.6-6.7,10.7c-3,3.3-10.7,8-10.7,8v1.3c0,0,10.6-2.2,16-2.7
		c2.7-0.2,5.3-0.2,8,0c5.4,0.4,16,2.7,16,2.7v-1.3c0,0-7.7-4.7-10.7-8c-2.8-3.1-5.3-6.7-6.7-10.7c-1.2-3.4-1.3-10.7-1.3-10.7v-2.7
		c0,0,2.5,7.9,5.3,10.7c3.9,3.7,9.3,6.5,14.7,6.7c4.8,0.1,9.8-2.1,13.3-5.3c2.9-2.7,5.3-6.7,5.3-10.7c0-5-3.5-9.5-6.7-13.3
		c-2.8-3.4-7.1-5.4-10.7-8c-3.1-2.3-6.4-4.2-9.3-6.7c-2.9-2.4-5.9-4.9-8-8C-3848.1-1179.7-3849.7-1181.5-3851-1188.1"/>
	<path id="path14320" d="M-3651-728.1c-1.3-6.7-2.9-8.4-5.3-12c-2.1-3.1-5.1-5.6-8-8c-2.9-2.5-6.2-4.4-9.3-6.7
		c-3.6-2.6-7.8-4.6-10.7-8c-3.2-3.8-6.7-8.4-6.7-13.3c0-4,2.4-8,5.3-10.7c3.5-3.2,8.5-5.4,13.3-5.3c5.4,0.1,10.8,2.9,14.7,6.7
		c2.9,2.8,5.3,10.7,5.3,10.7v-2.7c0-1.3-0.1-7.3-1.3-10.7c-1.4-4-3.8-7.6-6.7-10.7c-3-3.3-10.7-8-10.7-8v-1.3c0,0,10.6,2.2,16,2.7
		c2.7,0.2,5.3,0.2,8,0c5.4-0.4,16-2.7,16-2.7v1.3c0,0-7.7,4.7-10.7,8c-2.8,3.1-5.3,6.7-6.7,10.7c-1.2,3.4-1.3,10.7-1.3,10.7v2.7
		c0,0,2.5-7.9,5.3-10.7c3.9-3.7,9.3-6.5,14.7-6.7c4.8-0.1,9.8,2.1,13.3,5.3c2.9,2.7,5.3,6.7,5.3,10.7c0,5-3.5,9.5-6.7,13.3
		c-2.8,3.4-7.1,5.4-10.7,8c-3.1,2.3-6.4,4.2-9.3,6.7c-2.9,2.4-5.9,4.9-8,8C-3648.1-736.5-3649.7-734.8-3651-728.1"/>
	<path id="path14322" d="M-3901-1138.1c-0.5,2.5-1.1,3.1-2,4.5c-0.8,1.2-1.9,2.1-3,3c-1.1,0.9-2.3,1.7-3.5,2.5c-1.3,1-2.9,1.7-4,3
		c-1.2,1.4-2.5,3.1-2.5,5c0,1.5,0.9,3,2,4c1.3,1.2,3.2,2,5,2c2,0,4.1-1.1,5.5-2.5c1.1-1,2-4,2-4v1c0,0.5-0.1,2.7-0.5,4
		c-0.5,1.5-1.4,2.8-2.5,4c-1.1,1.2-4,3-4,3v0.5c0,0,4-0.8,6-1c1-0.1,2-0.1,3,0c2,0.2,6,1,6,1v-0.5c0,0-2.9-1.8-4-3
		c-1.1-1.2-2-2.5-2.5-4c-0.4-1.3-0.5-4-0.5-4v-1c0,0,0.9,3,2,4c1.4,1.4,3.5,2.5,5.5,2.5c1.8,0,3.7-0.8,5-2c1.1-1,2-2.5,2-4
		c0-1.9-1.3-3.6-2.5-5c-1.1-1.3-2.7-2-4-3c-1.2-0.8-2.4-1.6-3.5-2.5c-1.1-0.9-2.2-1.8-3-3C-3899.9-1135-3900.5-1135.6-3901-1138.1"
		/>
	<path id="path14324" d="M-3601-778.1c-0.5-2.5-1.1-3.1-2-4.5c-0.8-1.2-1.9-2.1-3-3c-1.1-0.9-2.3-1.7-3.5-2.5c-1.3-1-2.9-1.7-4-3
		c-1.2-1.4-2.5-3.1-2.5-5c0-1.5,0.9-3,2-4c1.3-1.2,3.2-2,5-2c2,0,4.1,1.1,5.5,2.5c1.1,1,2,4,2,4v-1c0-0.5-0.1-2.7-0.5-4
		c-0.5-1.5-1.4-2.8-2.5-4c-1.1-1.2-4-3-4-3v-0.5c0,0,4,0.8,6,1c1,0.1,2,0.1,3,0c2-0.2,6-1,6-1v0.5c0,0-2.9,1.8-4,3
		c-1.1,1.2-2,2.5-2.5,4c-0.4,1.3-0.5,4-0.5,4v1c0,0,0.9-3,2-4c1.4-1.4,3.5-2.5,5.5-2.5c1.8,0,3.7,0.8,5,2c1.1,1,2,2.5,2,4
		c0,1.9-1.3,3.6-2.5,5c-1.1,1.3-2.7,2-4,3c-1.2,0.8-2.4,1.6-3.5,2.5c-1.1,0.9-2.2,1.8-3,3C-3599.9-781.3-3600.5-780.6-3601-778.1"/>
</g>
</svg>
