<?xml version="1.0" encoding="utf-8"?>
<!-- Generator: Adobe Illustrator 24.1.2, SVG Export Plug-In . SVG Version: 6.00 Build 0)  -->
<svg version="1.1" id="Слой_1" xmlns="http://www.w3.org/2000/svg" xmlns:xlink="http://www.w3.org/1999/xlink" x="0px" y="0px"
	 viewBox="0 0 359 539" style="enable-background:new 0 0 359 539;" xml:space="preserve">
<style type="text/css">
	.st0{fill:#FFFFFF;stroke:#000000;}
	.st1{fill:#FF5555;}
	.st2{fill:none;stroke:#000000;stroke-width:2;stroke-linecap:square;}
	.st3{fill:#AA0000;stroke:#000000;}
	.st4{fill:#AAAAFF;fill-opacity:0.991;stroke:#000000;stroke-linecap:round;stroke-linejoin:round;}
	.st5{fill:#AA0000;}
	.st6{fill:#5555AA;stroke:#000000;}
	.st7{fill:#AAAAFF;stroke:#000000;stroke-linecap:round;stroke-linejoin:round;}
	.st8{fill:none;stroke:#000000;stroke-linecap:round;stroke-linejoin:round;}
	.st9{fill:#FFAAAA;stroke:#000000;stroke-linecap:round;stroke-linejoin:round;}
	.st10{fill:#FFAA55;stroke:#000000;}
	.st11{fill:#FFAB55;stroke:#000000;stroke-linecap:round;stroke-linejoin:round;}
	.st12{fill:none;stroke:#000000;}
	.st13{fill:#FFFFFF;stroke:#000000;stroke-linecap:round;stroke-linejoin:round;}
	.st14{fill:#5555AA;stroke:#000000;stroke-linecap:round;stroke-linejoin:round;}
	.st15{stroke:#000000;stroke-linecap:round;stroke-linejoin:round;}
	.st16{fill:#5555AA;stroke:#000000;stroke-width:1.175;stroke-linecap:round;stroke-linejoin:round;}
	.st17{stroke:#000000;stroke-width:1.052;stroke-linecap:round;stroke-linejoin:round;}
	.st18{fill:#FF5555;stroke:#000000;stroke-linecap:round;stroke-linejoin:round;}
	.st19{fill:#FFFF55;stroke:#000000;stroke-width:0.9;stroke-linecap:round;stroke-linejoin:round;}
	.st20{fill:#FFFF55;stroke:#000000;stroke-width:0.771;stroke-linecap:round;stroke-linejoin:round;}
	.st21{fill:#FFFF55;stroke:#000000;stroke-width:0.78;stroke-linecap:round;stroke-linejoin:round;}
	.st22{fill:#FFFF55;stroke:#000000;stroke-width:0.718;stroke-linecap:round;stroke-linejoin:round;}
	.st23{fill:#FFFF55;stroke:#000000;stroke-width:0.776;stroke-linecap:round;stroke-linejoin:round;}
	.st24{fill:#FFFF55;stroke:#000000;stroke-width:0.832;stroke-linecap:round;stroke-linejoin:round;}
	.st25{fill:#FFFF55;stroke:#000000;stroke-width:0.806;stroke-linecap:round;stroke-linejoin:round;}
	.st26{fill:#FFFF55;stroke:#000000;stroke-width:0.805;stroke-linecap:round;stroke-linejoin:round;}
	.st27{fill:#FFFF55;stroke:#000000;stroke-width:0.796;stroke-linecap:round;stroke-linejoin:round;}
	.st28{fill:#55AA55;stroke:#000000;}
	.st29{fill:#55AA55;stroke:#000000;stroke-linecap:round;stroke-linejoin:round;}
	.st30{fill:#FFFF55;stroke:#000000;stroke-linecap:round;stroke-linejoin:round;}
	.st31{fill:#ACAAFF;stroke:#000000;stroke-linecap:round;stroke-linejoin:round;}
	.st32{fill:#FFA055;stroke:#000000;stroke-linecap:round;stroke-linejoin:round;}
</style>
<g id="g11232" transform="translate(4320,-482.36)">
	<path id="rect11234" class="st0" d="M-4290.6,482.4h299.1c16.5,0,29.9,13.4,29.9,29.9v479.1c0,16.5-13.4,29.9-29.9,29.9h-299.1
		c-16.5,0-29.9-13.4-29.9-29.9V512.3C-4320.5,495.8-4307.1,482.4-4290.6,482.4z"/>
	<g id="g11236">
		<path id="path11238" class="st1" d="M-4291,579.4c0,0,0.7-4.2,2-5.5s3.6-2,5.5-2s4.2,0.7,5.5,2s2,3.6,2,5.5s-1,4.5-2,5.5
			s-2,1.5-3,2.5s-1.5,1-2.5,2s-1.5,1.5-2.5,2.5s-2.5,3-3.5,5s-1.5,5-1.5,5s-0.5-3-1.5-5s-2.5-4-3.5-5s-1.5-1.5-2.5-2.5s-1.5-1-2.5-2
			s-2-1.5-3-2.5s-2-3.6-2-5.5s0.7-4.2,2-5.5s3.6-2,5.5-2s4.2,0.7,5.5,2S-4291,579.4-4291,579.4"/>
		<path id="path11240" class="st1" d="M-3991,924.4c0,0,0.7,4.2,2,5.5s3.6,2,5.5,2s4.2-0.7,5.5-2s2-3.6,2-5.5s-1-4.5-2-5.5
			s-2-1.5-3-2.5s-1.5-1-2.5-2s-1.5-1.5-2.5-2.5s-2.5-3-3.5-5s-1.5-5-1.5-5s-0.5,3-1.5,5s-2.5,4-3.5,5s-1.5,1.5-2.5,2.5s-1.5,1-2.5,2
			s-2,1.5-3,2.5s-2,3.6-2,5.5s0.7,4.2,2,5.5s3.6,2,5.5,2s4.2-0.7,5.5-2S-3991,924.4-3991,924.4"/>
		<path id="path11242" class="st1" d="M-4231,541.9c0,0,1.8-11.2,5.3-14.7c3.5-3.5,9.7-5.3,14.7-5.3s11.2,1.8,14.7,5.3
			c3.5,3.5,5.3,9.7,5.3,14.7s-2.7,12-5.3,14.7c-2.7,2.7-5.3,4-8,6.7s-4,2.7-6.7,5.3c-2.7,2.7-4,4-6.7,6.7s-6.7,8-9.3,13.3
			c-2.7,5.3-4,13.3-4,13.3s-1.3-8-4-13.3s-6.7-10.7-9.3-13.3c-2.7-2.7-4-4-6.7-6.7s-4-2.7-6.7-5.3c-2.7-2.7-5.3-4-8-6.7
			s-5.3-9.7-5.3-14.7s1.8-11.2,5.3-14.7c3.5-3.5,9.7-5.3,14.7-5.3s11.2,1.8,14.7,5.3C-4232.8,530.7-4231,541.9-4231,541.9"/>
		<path id="path11244" class="st1" d="M-4051,961.9c0,0,1.8,11.2,5.4,14.7s9.7,5.3,14.7,5.3s11.2-1.8,14.7-5.3
			c3.5-3.5,5.4-9.7,5.4-14.7s-2.7-12-5.4-14.7s-5.4-4-8-6.7c-2.7-2.7-4-2.7-6.7-5.3c-2.7-2.7-4-4-6.7-6.7c-2.7-2.7-6.7-8-9.4-13.3
			s-4-13.3-4-13.3s-1.3,8-4,13.3c-2.7,5.3-6.7,10.7-9.4,13.3c-2.7,2.7-4,4-6.7,6.7c-2.7,2.7-4,2.7-6.7,5.3c-2.7,2.7-5.4,4-8,6.7
			c-2.7,2.7-5.4,9.7-5.4,14.7s1.8,11.2,5.4,14.7s9.7,5.3,14.7,5.3s11.2-1.8,14.7-5.3C-4052.8,973-4051,961.9-4051,961.9"/>
	</g>
	<g id="g11246" transform="translate(0,512.36)">
		<path id="path11248" class="st2" d="M-4271-0.5h280v380"/>
		<path id="path11250" class="st2" d="M-4011,479.5h-280v-380"/>
		<path id="path11252" class="st2" d="M-4291,239.5h300"/>
	</g>
	<g id="g11254">
		<path id="path11256" class="st1" d="M-4299,511.9v5l-2,40h-3v5v5h5v-5h16v5h5v-5v-5h-3v-45H-4299z M-4294,516.9h8v40h-10
			L-4294,516.9z"/>
		<path id="path11258" class="st1" d="M-3983,991.9v-5l2-40h3v-5v-5h-5v5h-16v-5h-5v5v5h3v45H-3983z M-3988,986.9h-8v-40h10
			L-3988,986.9z"/>
	</g>
	<g id="g11260">
		<g id="g11262">
			<path id="path11264" class="st3" d="M-4206.1,751.8l-3.9-6.7l-4.6-8.8l-3-6.2l-3-4.8l-12.6-8l-8.8,22.1l-9.5-14.1l-8.3,10.3v3.5
				l0.4,2.5v3l0.5,3l0.2,2.1l0.7,2.1L-4206.1,751.8z"/>
			<path id="path11266" class="st4" d="M-4229.6,708.3c0.1-1,1-2,1.9-2.5c1.2-0.7,2.7-0.6,4-0.7c1.8-0.1,3.6-0.3,5.3,0.2
				c1.3,0.4,2.4,1.3,3.4,2.3c1.9,2,3,4.7,4.4,7.1c2,3.5,3.5,7.3,5.9,10.6c1.3,1.9,3.4,3.1,4.6,5.1c1.2,1.9,1.4,4.3,2.4,6.2
				c0.8,1.5,1.8,3,2.8,4.4c2.4,3.2,5.3,6,7.9,9c0.4,0.5,1.6,1.3,0.2,1.3c-6.6-0.2-13.1,0.1-19.7,0.2c-1.6-2.9-3.4-5.8-5-8.8
				c-1.2-2.3-2.2-4.6-3.4-6.9c-1.8-3.5-3.8-7-5.8-10.4c-2.1-3.7-4.6-7.1-6.5-10.9C-4228.1,712.5-4229.9,710.5-4229.6,708.3
				L-4229.6,708.3z"/>
		</g>
		<path id="path11268" class="st5" d="M-4188.4,649.6l-7.1,11l-2.8,12.4l-1.4,9.2v11.3l2.1,10.3l8.1,10.6l8.5,12l7.4,6.7l6.7,9.2
			l2.8,5l1.1,4.1l48.1,0l20.5-11.9l11.3-12l9.2-12l6.4-11.7l9.9-21.2l-0.7-15.6l-6.7-13.4l-5.3-6.4l-9.5,6.4l-12,7.1l-8.1,2.5
			l-16.3,2.8l-14.8,2.1l-10.3-0.7l-9.5-1.1l-13.1-3.5l-6.4-1.4l-9.5-5.7L-4188.4,649.6z"/>
		<g id="g11270">
			<path id="path11272" class="st6" d="M-4153,751.3c0.2-4.5,0.3-9.2-0.1-13.8c-0.2-3.3-1.5-6.4-2.3-9.6c-1.5-4.5-3-9.1-5.2-13.4
				c-2.1-4.9-5.3-9.2-6.7-14.4c-1.3-4-2.8-7.9-3.9-12c-0.4-4.1-0.9-8.3-0.5-12.4c0.2-3.3,0.8-6.6,1.5-9.8c0.6-1.1,0.7-3.1,1.5-3.8
				c6.5,2.1,13.2,3.6,19.9,4.6c3.8,0.7,7.6,1.3,11.5,1.2c5.3,0.2,10.6-0.7,15.9-0.9c7.5-0.8,15-2,22.3-4c0,3.1,0.4,6.2,0.1,9.2
				c-1.4,4.2-2.1,8.7-4.4,12.6c-1.8,3.6-3.3,7.4-5.9,10.6c-4.7,6.5-8.6,13.6-12.2,20.8c-1.4,4-3.2,7.9-3.7,12.2
				c-1,5.4-1.5,10.8-1.8,16.3c-0.2,2.1-0.7,4.3,0.2,6.3c0.1,1.1-2.6,0.3-3.6,0.6C-4138,751.6-4145.5,751.5-4153,751.3L-4153,751.3z"
				/>
			<g id="g11274">
				<path id="path11276" class="st7" d="M-4059.5,671.9c-0.7,5.9-0.6,12-2.1,17.7c-1.6,5.8-4.3,11.3-7.4,16.5
					c-2.3,3.9-5.4,7.3-8.2,10.9c-3.1,4-5.9,8.2-9.3,11.9c-3.9,4.3-8,8.6-12.7,12.1c-5.3,4-10.8,7.9-17.3,9.9c-3.1,0.9-1,0.9,1,0.8
					c33.4,0.1,66.8,0.2,100.1,0.2c3.9-4.9,6.7-10.7,8.6-16.6c1-3.1,1.4-6.4,1.6-9.7c0.4-6.5-0.3-13.1-0.8-19.7
					c-0.4-4.4-1.1-8.9-1.8-13.3c-0.6-4-1.3-8.1-2.2-12c-0.8-3.3-1.3-6.7-2.9-9.8c-2.1,1.2-3.7,2.9-5.7,4.2c-1.3,0.8-2.7,1.6-4.2,2.2
					c-2.2,0.8-4.6,1.6-6.9,1.5c-1.9-0.1-3.5-1.4-5.4-1.7c-1.5-0.3-3.2,0.1-4.7-0.2c-2-0.4-3.9-1.2-5.8-2.1c-1.9-0.8-3.5-2.2-5.4-2.9
					c-1.5-0.6-3.1-1-4.8-1C-4056.9,670.9-4058.2,671.5-4059.5,671.9L-4059.5,671.9z"/>
				<g id="g11278">
					<path id="path11280" class="st8" d="M-4022,679.4c1.5,4,2,8.3,2.3,12.6c0.1,2.4,0,4.8-0.5,7.1c-0.5,2.6-2,5-2.4,7.6
						c-0.5,3.1,0.2,6.4,0,9.5c-0.2,3.4-0.3,6.8-1.1,10.1c-0.9,3.5-2,7.1-3.9,10.2c-1.7,2.7-3.8,5.2-6.4,7.1c-2.7,2-6.6,2.2-9.1,4.5
						c-1.1,1-1.5,2.5-2.1,3.8"/>
					<path id="path11282" class="st8" d="M-4054.5,672.1c-0.6,9-3.3,17.6-6.5,26"/>
					<path id="path11284" class="st8" d="M-4051,673.4c-1.3,6-2.4,12.1-4.5,17.9c-1.7,4.8-3.6,9.7-6.4,14c-2.1,3.1-4.9,5.5-7.6,8.1"
						/>
					<path id="path11286" class="st8" d="M-4046,674.6c-1.4,6-1.7,12.2-3.9,18c-1.6,4.2-4,8.1-6.5,11.8c-1.7,2.6-3.8,5-5.9,7.2
						c-4.1,4.4-8.6,8.5-13.3,12.4c-2.9,2.4-5.9,4.7-9.1,6.8c-0.2,0.1-0.4,0.2-0.6,0.4"/>
					<path id="path11288" class="st8" d="M-4016.8,677.1c1.7,0.7,1.1,1.8,1.2,2.8c0.1,1.1-0.7,2.1-0.6,3.2c0,1.2,0.7,2.3,0.7,3.5
						c0.1,1-0.7,2.1-0.3,3c0.3,0.7,1.8,0.7,1.9,1.5c0.2,1.7-3.5,2.5-2.9,4c0.6,1.6,4.5-0.2,5,1.5c0.7,2.1-4.6,3.1-4,5.3
						c0.4,1.7,4.3,0.3,4.8,2c0.5,2.1-3.6,2.9-4,5c-0.2,1.2,1.4,2.3,1.1,3.5c-0.3,1.3-2.2,1.6-2.8,2.8c-0.7,1.3-0.7,2.8-1,4.3
						c-0.3,1.4-0.4,2.9-0.9,4.3c-0.6,1.5-2.7,2.7-2.3,4.3c0.2,0.8,1.7,0.7,2,1.4c0.5,1.3-0.7,2.8-0.7,4.2c0,0.9-0.5,2.3,0.3,2.7
						c1.2,0.7,3-2.9,3.9-1.7c1.2,1.5-4.2,2.9-3.3,4.5c0.8,1.5,4.6-1.9,5-0.3c0.8,3-8.8,1.2-8.3,4.3c0.3,1.7,4.7-0.9,5,0.8
						c0.9,5.1-9.2,5-13.8,7.5"/>
					<path id="path11290" class="st8" d="M-4031.3,679.6c-2.1,1.4-5.5,1.8-6.3,4.3c-0.5,1.5,2.1,2.9,1.8,4.5
						c-0.2,1.2-2.1,1.5-2.5,2.7c-0.4,1.1,0.8,2.6,0,3.5c-1,1.2-3.7-0.5-4.7,0.8c-1.3,1.7,1,4.4,0.3,6.4c-0.7,2.1-2.7,3.4-4.1,5"/>
					<path id="path11292" class="st8" d="M-4025.5,679.9c0,2.3-0.5,4.7,0,7c0.3,1.2,1.3,2.2,1.7,3.5c0.4,1.4,0.7,2.9,0.5,4.3
						c-0.2,1.3-1.1,2.4-1.7,3.6c-0.7,1.3-1.7,2.5-2.3,3.9c-0.5,1.1-0.1,2.8-1.2,3.4c-1.2,0.7-2.9-1.1-4.2-0.6
						c-2.1,0.9-2,4.5-4.1,5.6c-2,1.1-5.3-1.2-6.8,0.5c-1.2,1.4,0.9,3.7,0.3,5.4c-0.7,2-3.5,2.8-4,4.8c-0.6,2,2,4.4,1,6.2
						c-1,1.8-4.6,0.8-5.8,2.5c-1.1,1.7,1.3,4.7-0.3,6c-1.4,1.2-4-1.9-5.5-0.8c-2.1,1.6,1.3,6.6-1,7.8c-1.6,0.8-3-3.3-4.8-2.8
						c-2,0.7-0.4,5.4-2.5,5.8c-1.9,0.3-1.9-4.5-3.8-4.3c-2.1,0.3-1,4.9-3,5.8c-1.3,0.5-2.7-1.7-4.1-1.4c-2.7,0.6-3.9,3.8-5.9,5.6"/>
					<path id="path11294" class="st8" d="M-4047,707.1c0.5,2.4,2.8,5.1,1.5,7.3c-0.9,1.5-3.9,0.1-5,1.5c-1.3,1.6,0.8,4.6-0.5,6.3
						c-1.3,1.6-4.3,0.4-5.8,1.8c-1.4,1.3-0.6,4.2-2,5.5c-1.5,1.3-4.9-0.3-5.8,1.5c-0.8,1.5,3.2,3.5,2,4.8c-0.8,0.8-2.3-1.8-3.3-1.3
						c-1.2,0.7,0.6,3.3-0.5,4c-1.3,0.9-3.1-2-4.5-1.3c-1.2,0.6-0.8,2.5-1.3,3.8"/>
					<path id="path11296" class="st8" d="M-4053,716.6c-3,1.7-5.9,3.5-8.7,5.5c-3.8,2.7-7.3,5.8-10.9,8.8c-3.8,3.2-7.3,6.7-11.2,9.9
						c-4.1,3.4-8.4,6.3-12.5,9.7c-0.3,0.3-0.7,0.6-1,0.9"/>
					<path id="path11298" class="st8" d="M-4107,751.4c4.4-2.9,9.1-5,13.6-7.8c2.5-1.5,5-3,7.4-4.7c3.6-2.7,6.9-5.8,10.3-8.8"/>
					<path id="path11300" class="st8" d="M-4022.3,702.6c-1.2,0.9-1.8,2.3-2.7,3.5c-0.8,1-1.4,2.2-2.3,3.1c-0.9,0.9-2.1,1.4-3,2.2
						c-0.9,0.8-1.4,2.1-2.5,2.7c-1,0.6-2.7,0.1-3.5,1c-0.8,0.9,0.3,2.7-0.5,3.6c-0.7,0.9-2.6,0.3-3.3,1.3c-0.6,0.9,0.3,2.3-0.1,3.4
						c-0.5,1.3-2,1.9-2.8,3c-0.9,1.2-1.6,2.5-2.4,3.8c-0.8,1.2-1.9,2.3-2.5,3.7c-0.8,1.8,0.1,4.4-1.3,5.7c-1.1,1.1-3.4-0.2-4.6,0.7
						c-1.8,1.5-0.4,5.3-2.4,6.5c-1.4,0.8-3.3-1-4.8-0.5c-1.2,0.4-1.6,2.2-2.8,2.8c-1.3,0.6-3.1-0.4-4.4,0.2c-0.7,0.3-1,1.2-1.6,1.7"
						/>
					<path id="path11302" class="st8" d="M-4028.8,684.9c-0.1,2.7,0.5,5.6-0.2,8.2c-0.7,3-2.4,5.7-4.1,8.2c-1.3,1.9-2.9,3.4-4.5,5.1
						"/>
					<path id="path11304" class="st8" d="M-4023,710.4c-1.5,0.8-1.9,2.4-2.8,3.7c-0.8,1.2-1.2,2.7-2.3,3.6c-1.1,0.9-2.8,0.8-3.9,1.7
						c-2.6,2.2-3.4,6-5.8,8.5c-1,1.1-2.8,1.5-3.6,2.9c-1,1.6-0.3,3.9-1.1,5.6c-1.4,3.1-3.5,5.9-6.2,8.1c-1.3,1.1-3.3,1.3-4.7,2.4
						c-1.7,1.3-2.7,3.2-4.1,4.9"/>
					<path id="path11306" class="st8" d="M-4009,713.6c-0.4,2.5-1.6,4.9-1.4,7.5c0.2,2,1.7,3.8,2,5.8c0.7,5.4-0.6,10.8-0.9,16.2"/>
				</g>
			</g>
			<path id="path11308" class="st9" d="M-4112.8,588.4c-1.5,2.9-2.4,6.3-4.4,8.9c-2.4,3.2-5.6,5.7-8.8,7.9c-2.5,1.7-5.1,3.3-8,4
				c-3.1,0.8-6.9,1.4-9.5,0.5c-0.4,5.8,0.8,3.7,0.8,5.5c0,2,0.1,4.1-0.8,5.9c-0.8,1.7-2.4,3-4,4c-3,1.8-6.6,2.1-9.9,3
				c-3.7,1-7.6,1.3-11.1,2.9c-3.2,1.5-6.3,3.5-8.8,6c-3.2,3.2-6,6.8-7.7,11c-0.5,1.4,2,2.3,3.2,3.2c4,3,8.4,5.6,13,7.5
				c3.9,1.7,8.2,2.6,12.3,3.5c5.7,1.3,11.4,2.5,17.2,2.8c8.7,0.4,17.4-0.3,26-1.6c6-0.9,12-2.2,17.7-4.3c3.5-1.3,6.7-3.3,9.8-5.2
				c4.1-2.6,8.3-6,11.7-8.6c-2.3-2.9-1.8-1.8-2.5-2.9c-2.8-4.4-2.2-11-6.2-14.3c-0.9-0.7-2.3-0.4-3.4-0.8c-1.5-0.5-2.9-1.4-4.3-2.2
				c-1.5-0.9-3.5-1.3-4.5-2.7c-1.8-2.6-0.6-6.4-1.6-9.4c-0.5-1.6-1.4-3-2.3-4.4c-0.8-1.2-1.5-2.6-2.6-3.5c-1.7-1.5-4.7-1.5-6.1-3.3
				c-1.3-1.8-0.8-4.3-1.3-6.5c-0.5-2-0.6-7.8-1.6-6C-4110.3,589.1-4111.9,588.6-4112.8,588.4L-4112.8,588.4z"/>
			<path id="path11310" class="st10" d="M-4170.5,535.9c-1.6,1.3-1,4.1-1.2,6.2c-0.2,2.5-0.1,5,0.4,7.5c0.3,1.6,1.7,2.9,1.5,4.5
				c-0.3,2.3-2.5,3.9-3.7,5.8c-1,1.7-2.7,3.2-3.1,5.1c-0.6,3.5,3,6.9,2.3,10.3c-0.3,1.5-2.3,2.3-2.8,3.8c-0.6,1.6-0.8,3.4-0.4,5.1
				c0.4,1.6,2.2,2.7,2.6,4.3c0.4,1.4,0.2,2.8-0.1,4.2c-0.3,1.8-1.5,3.3-1.9,5.1c-0.4,2.2-0.7,4.6-0.2,6.8c0.5,2.1,1.4,4.3,3,5.9
				c0.9,0.9,3,0.6,3.4,1.9c0.4,1.5-2.1,2.5-2.5,4c-0.7,2.6,0.7,5.5,0.2,8.2c-0.4,1.8-2.7,3.2-2.3,4.9c0.3,1.2,1.7,2.2,2.9,2.5
				c4.3,1,8.5-2.2,12.8-3.4c4.5-1.2,9.8-1,13.5-3.8c1.7-1.3,2.6-3.4,3.3-5.3c1.3-3.3-1-8.3,1.8-10.5c1.4-1.1,3.6,0.7,5.4,0.6
				c2.5-0.1,5.2-0.4,7.4-1.6c2.2-1.1,3.8-3.2,5.5-5c2.2-2.5,4.1-5.2,5.9-8c1.5-2.2,1.4-6.7,4.1-6.8c1.8-0.1,2.4,2.6,3.3,4.1
				c0.7,1.3,1.5,2.7,1.5,4.1c-0.1,2.2-2.8,3.9-2.6,6.1c0.1,1.2,0.8,2.3,1.8,3c1.1,0.9,3.2,0.1,4.1,1.2c0.8,1.1-0.7,3,0,4.2
				c0.5,1,2.2,0.9,2.8,1.8c0.9,1.5,0.4,3.5,0.7,5.2c0.3,1.9-0.2,4.3,1.2,5.5c2.2,2,6.1-0.2,8.8,1.1c1.3,0.6,1.6,2.7,3,3.1
				c1.5,0.4,3.1-0.3,4.5-1.1c1.2-0.7,2.3-1.6,2.8-2.9c2.1-5.5,0.2-11.7-0.6-17.5c-0.8-6-2.2-11.9-4-17.6c-1.4-4.3-4.6-8-5.4-12.5
				c-0.4-2.4,0.6-4.9,0.4-7.3c-0.1-1.8-0.7-3.5-1.2-5.2c-0.7-2.3-1.2-4.7-2.4-6.8c-0.8-1.5-2.4-2.5-3.3-3.9c-1.7-2.6-2.2-6-4.1-8.4
				c-1.1-1.4-2.4-2.5-3.9-3.3c-1.2-0.7-2.7-0.6-4-1.2c-2.1-1-3.5-3.3-5.8-4c-1.9-0.6-4,0.6-5.9,0.2c-1.4-0.3-2.3-1.8-3.7-2
				c-1.7-0.2-3.2,1.4-5,1.3c-1.5-0.1-2.8-1.2-4.3-1.7c-2-0.7-4.1-2.1-6.1-1.5c-1.5,0.4-1.9,2.6-3.3,3.1c-2.1,0.6-4.3-0.8-6.4-1
				c-2-0.2-4.1,0-6.1-0.1c-2.7-0.2-5.4-1.6-8.1-1c-1.7,0.4-2.7,2.4-4.4,2.9C-4169.2,536.1-4169.9,535.9-4170.5,535.9L-4170.5,535.9z
				"/>
			<g id="g11312">
				<path id="path11314" class="st11" d="M-4083,546.4c1-1.8,2-3.5,3.6-4.8c1.5-1.3,2.8-2.9,4.4-3.9c2.4-1.2,2.3-2.3,4.8-3.3
					c1.8-0.1,1.9-2.4,0.5-2.4c-3.4-1.1-8.4-1-11.9-1.6c0.4-2,4.9-5.4,8.1-7.3c-0.9-0.9-2.1-0.8-3.3-0.6c-3.4,0.2-6.8,0.4-10.2,0.4
					c0.4-1.8,3.1-3.5,4-5c1-1.1,2.6-2.4,3.3-3.7c-2-0.2-4.6-0.3-6.5,0.3c-1.7,0.1-4.8,0.8-6.5,1.3c0.5-1.3,1.5-2.2,2.3-3.3
					c-8.8,0-17.7,0-26.5,0c3,1.4,6.2,2.4,9,4c2.4,1.7,5.1,3.1,7.4,4.9c2.9,2.9,6,5.7,8.3,9c2.1,2.5,3.9,5.3,5.5,8.1
					C-4085,540.8-4084.2,543.7-4083,546.4L-4083,546.4z"/>
				<path id="path11316" class="st11" d="M-4064.3,532.7c0,1.3-1.2,2.4-2.6,2.4s-2.6-1.1-2.6-2.4c0-1.3,1.2-2.4,2.6-2.4
					S-4064.3,531.4-4064.3,532.7z"/>
				<path id="path11318" class="st11" d="M-4069.9,522.1c0,1.3-1.2,2.4-2.6,2.4s-2.6-1.1-2.6-2.4c0-1.3,1.2-2.4,2.6-2.4
					S-4069.9,520.8-4069.9,522.1z"/>
				<path id="path11320" class="st11" d="M-4076.6,514.1c0,1.3-1.2,2.4-2.6,2.4s-2.6-1.1-2.6-2.4c0-1.3,1.2-2.4,2.6-2.4
					S-4076.6,512.8-4076.6,514.1z"/>
			</g>
			<path id="path11322" class="st12" d="M-4081.5,543.4c-0.8-2-1.4-4-2.3-5.9c-1.3-2.6-3-5-4.8-7.2c-2.8-3.6-5.9-7.1-9.3-10.2
				c-1.1-1.1-2.4-2-3.7-2.9c-2-1.4-4-2.7-6.1-3.9c-0.7-0.4-1.5-0.8-2.3-1.1"/>
			<g id="g11324">
				<path id="path11326" class="st9" d="M-4157.8,532.4c-1.2,0.5-2.7,0.9-3.5,2c-1.1,1.4-0.9,3.5-1.3,5.3c-0.6,2.7-1.1,5.5-1.7,8.2
					c-0.2,0.8-0.5,1.5-0.5,2.3c-0.1,1.8,0.4,3.7,0.5,5.5c0.1,1.2,0,2.5,0,3.8c0,1.2,0.2,2.3,0.3,3.5c0.1,1.9,0.2,3.8,0.3,5.8
					c0.1,2.8-0.2,5.7,0,8.5c0.1,2.2,0.3,4.4,0.8,6.5c0.6,2.5,1.4,4.9,2.5,7.3c1.4,3,3.1,5.8,5,8.5c1.3,1.8,2.9,3.4,4.5,5
					c1.5,1.4,2.9,3.1,4.8,4c2.1,1.1,4.6,1.5,7,1.8c2.3,0.2,4.8,0.2,7-0.5c0.8-0.2,1.5-0.8,2.3-1.3c1.6-0.9,3.5-1.4,5-2.5
					c1.3-0.9,2.3-2.1,3.4-3.1c1.3-1.3,2.7-2.6,3.8-4c1.7-2.3,2.9-4.9,4.1-7.6c0.6-1.3,1.2-2.6,1.5-4c0.3-1.4,0.7-2.8,0.5-4.3
					c-0.1-1.2-1.2-2.3-1.3-3.5c0-1.8,1-3.6,1.8-5.3c0.6-1.5,2-2.7,2.3-4.3c0.2-1.3-0.3-2.7-0.8-4c-0.5-1.5-1.3-2.8-2-4.3
					c-0.4-0.9-0.7-1.9-1.3-2.8c-0.4-0.7-1.2-1.2-1.5-2c-0.5-1.3-0.1-2.9-0.5-4.3c-0.4-1.3-1.4-2.4-1.8-3.8c-0.7-2.8,0.7-6-0.3-8.7
					c-0.7-1.8-2.3-3.2-3.8-4.5c-1.3-1.2-2.6-2.4-4.3-3c-1.4-0.5-3-0.3-4.5-0.5c-1.3-0.2-2.5-0.6-3.8-0.8c-2.3-0.2-4.7,0-7,0
					c-2.3,0-4.5-0.2-6.8-0.3c-1.1,0-2.2,0-3.3,0c-1.3,0-2.5,0-3.8,0.3C-4155.3,531.6-4156.6,531.9-4157.8,532.4L-4157.8,532.4z"/>
				<g id="g11328">
					<path id="path11330" class="st8" d="M-4164,550.9c2.1-0.1,4.3-0.9,6.3-0.5c1.2,0.3,2.4,0.8,3.2,1.7c1.2,1.4,1.8,3.3,2,5.1
						c0.5,3.8-0.6,7.6-1.4,11.4c-0.3,2.6-1.6,5-2,7.5c-0.2,1.2,0.2,3.1,1.5,3.3c1.5,0.6,2.6,2.2,4.4,2.2c0.9-0.2,2.9,0.3,2.6-1.3
						c-1-0.5-1-1.7,0.3-1.7c1-0.2,1.7,0.6,2,1.3c1.3,0.5,2.6-0.1,3.4-1.1c0.3-0.8,1.2-1.7,0.4-2.5c-0.2-0.3-0.4-0.7-0.6-1"/>
					<g id="g11332" transform="translate(0,512.36)">
						<path id="path11334" class="st8" d="M-4140.3,41.3c0,0,1.3-2.1,2.3-2.8c1-0.7,2.3-1,3.5-1.3c1.4-0.3,2.8-0.3,4.3-0.3
							c1.1,0,2.2,0.1,3.3,0.3c0.9,0.2,1.7,0.4,2.5,0.8c0.8,0.3,1.5,0.7,2.3,1c0.8,0.4,1.7,0.9,2.5,1.3c0.6,0.3,1.8,0.8,1.8,0.8"/>
						<path id="path11336" class="st8" d="M-4140.8,47.3c0,0,2.2-2.8,3.8-3.5c1-0.5,2.2-0.4,3.3-0.5c1-0.1,2,0,3,0
							c1.2,0,2.4-0.2,3.5,0c1.1,0.2,2.1,0.7,3,1.3c0.9,0.6,1.7,1.4,2.5,2.3c0.4,0.4,1,1.3,1,1.3"/>
					</g>
				</g>
				<g id="g11338" transform="translate(0,512.36)">
					<path id="path11340" class="st13" d="M-4139,47.8c0,0,1.2-0.6,1.9-0.8c1-0.2,2-0.2,3-0.3c1.3-0.1,2.7-0.2,4,0
						c1.1,0.1,2.2,0.5,3.3,0.8c0.8,0.2,1.7,0.4,2.5,0.8c0.5,0.2,1,0.6,1.5,0.8c0.6,0.2,1.9,0.3,1.9,0.3s-2,0.4-2.9,0.9
						c-0.9,0.4-1.7,1.2-2.6,1.7c-0.7,0.4-1.4,0.7-2.1,0.9c-0.9,0.3-1.8,0.6-2.8,0.8c-0.9,0.1-1.9,0.2-2.8,0c-1-0.2-1.9-0.7-2.8-1.3
						c-0.6-0.3-1.1-0.7-1.5-1.3c-0.3-0.4-0.6-1-0.8-1.5C-4139.2,48.9-4139,47.8-4139,47.8L-4139,47.8z"/>
					<path id="path11342" class="st14" d="M-4128.8,50.4c0,1.6-1.4,2.8-3.1,2.8s-3.1-1.3-3.1-2.8s1.4-2.8,3.1-2.8
						S-4128.8,48.8-4128.8,50.4z"/>
				</g>
				<path id="path11344" class="st15" d="M-4131.3,562.2c0,0.5-0.5,1-1,1c-0.6,0-1-0.4-1-1c0,0,0,0,0,0c0-0.5,0.5-1,1-1
					C-4131.8,561.2-4131.3,561.6-4131.3,562.2C-4131.3,562.1-4131.3,562.2-4131.3,562.2z"/>
				<path id="path11346" class="st8" d="M-4163.5,557.7c0,0,1.3-1.2,2.2-1.6c1.2-0.5,2.5-0.6,3.7-0.6c0.7,0,1.3,0.2,2,0.4
					c0.6,0.2,1.2,0.6,1.8,1c0.4,0.3,1,1,1,1"/>
				<path id="path11348" class="st13" d="M-4163.5,561.7c0.5-0.5,1-1,1.6-1.6c1.1-0.1,2.1-0.2,3.2-0.4c0.5-0.1,1-0.2,1.6-0.2
					c0.7,0.3,1.4,0.5,2.2,0.8c0.6,0.4,1.2,0.8,1.7,1.2c-0.2,0.5-0.4,1.1-0.6,1.6c-0.6,0.5-1.2,1.1-1.8,1.6c-0.8,0.4-1.6,0.8-2.3,1.2
					c-0.9-0.1-1.7-0.1-2.6-0.2c-0.6-0.4-1.2-0.8-1.8-1.2c-0.3-0.4-0.6-0.8-1-1.2c-0.2-0.1-0.4-0.1-0.6-0.2
					C-4163.7,562.6-4163.6,562.1-4163.5,561.7L-4163.5,561.7z"/>
				<path id="path11350" class="st16" d="M-4156.4,562.7c0,1.4-1.1,2.5-2.5,2.5s-2.5-1.1-2.5-2.5s1.1-2.5,2.5-2.5
					S-4156.4,561.3-4156.4,562.7z"/>
				<path id="path11352" class="st17" d="M-4158.3,562.3c0,0.5-0.4,1-0.9,1c-0.5,0-0.9-0.4-0.9-1c0,0,0,0,0,0c0-0.5,0.4-1,0.9-1
					C-4158.7,561.4-4158.3,561.8-4158.3,562.3C-4158.3,562.3-4158.3,562.3-4158.3,562.3z"/>
				<path id="path11354" class="st18" d="M-4153.8,588.8c-0.2-0.8,0.2-2.1,1.1-2.2c1-0.1,1-1.2,2-1.2c0.9-0.3,2-0.3,2.7,0.4
					c1,0.3,2.1,0.1,3-0.5c0.5-0.5,2.4,0.3,2.7,0.8c0.7,0.5,2,1.1,2.9,1.3c1,0.1,1.9,1.3,1.4,2.3c-0.5,0.6-0.6,0.5-1.2,0.9
					c-0.9,0.4-2.7,0.4-3.1,1.3c-0.5,1.1-0.9,0.6-1.9,1.3c-0.9,0.6-1.9,0.1-2.8,0.2c-0.9,0-1.6,0.1-2.3-0.2c-0.9-0.3-1.5-0.7-2.3-1.7
					c-0.4-0.6-0.7-1.3-1.2-1.8C-4153.2,589.5-4153.7,589.3-4153.8,588.8L-4153.8,588.8z"/>
				<path id="path11356" class="st8" d="M-4153.2,588.2c0.8-0.1,1.6-0.4,2.4-0.2c0.9,0.2,1.5,1,2.2,1.4c0.3,0.2,0.6,0.5,1,0.5
					c0.3,0,0.7-0.1,1-0.2c0.4-0.2,0.7-0.7,1.2-0.8c0.4-0.1,0.9-0.1,1.3-0.1c0.5,0,1,0.3,1.4,0.3c0.6,0,1.1-0.4,1.7-0.4
					c0.5,0,0.9,0.3,1.4,0.4c0.4,0,0.9-0.1,1.3-0.2"/>
				<path id="path11358" class="st7" d="M-4150.5,512.4c-2.3,0.1-4.7,2.9-6.8,4.8c-1.5,1.4-3.1,2.9-4,4.8c-0.5,1-0.3,2.3-0.8,3.3
					c-0.8,1.5-2,2.8-3.3,4c-1,1-2.3,1.7-3.3,2.8c-0.9,1-2.3,2.2-2,3.5c0.2,0.9,1.3,1.5,2.3,1.8c1,0.2,2.1-0.1,3-0.5
					c0.7-0.3,1.2-0.8,1.8-1.3c0.6-0.5,0.9-1.2,1.5-1.8c0.2-0.2,0.5-0.4,0.8-0.5c0.3-0.1,0.7-0.1,1,0c0.8,0.3,1.2,1.4,2,1.8
					c0.8,0.4,1.8,0.7,2.8,0.5c1.4-0.3,2.5-1.4,3.5-2.4c0.4-0.4,0.5-1.2,1-1.3c1.4-0.1,1.9,2.3,3.3,2.8c0.9,0.3,2,0.3,3,0
					c0.8-0.2,1.5-0.8,2.3-1.3c0.5-0.4,1-0.9,1.5-1.3c0.2-0.2,0.5-0.4,0.8-0.5c0.8-0.2,1.8-0.5,2.5,0c0.4,0.3,0.2,1.1,0.5,1.5
					c0.5,0.7,1.4,1.2,2.3,1.5c1.2,0.4,2.5,0.4,3.8,0.3c1.1-0.1,2.3-0.4,3.3-1c0.7-0.5,0.9-2,1.8-2c1,0,1.1,1.6,1.8,2.4
					c0.8,0.9,1.4,2,2.5,2.5c0.7,0.3,1.5,0.2,2.3,0.3c0.9,0.1,1.9,0.3,2.8,0c0.7-0.3,1-1.6,1.8-1.5c1.5,0.1,1.6,2.6,2.8,3.5
					c0.6,0.5,1.3,0.8,2,1c0.7,0.2,1.5,0.3,2.3,0.3c0.4,0,0.8-0.3,1.3-0.3c0.4,0,1,0.1,1.3,0.5c0.3,0.5-0.1,1.2,0,1.8
					c0.2,0.6,0.5,1.3,1,1.8c0.7,0.6,1.6,1,2.5,1.3c0.6,0.2,1.2,0.2,1.8,0.3c0.2,0,0.6-0.2,0.8,0c0.5,0.6-0.2,1.5-0.3,2.3
					c0,0.9,0.1,1.8,0.3,2.8c0.1,1-0.1,2.3,0.5,3.1c0.4,0.6,1.1,0.8,1.8,1c0.6,0.2,1.4-0.2,1.8,0.3c1,1.2-0.2,3.2,0,4.8
					c0.1,0.9,0.3,1.8,0.8,2.5c0.4,0.5,0.9,1,1.5,1.3c0.5,0.2,1-0.2,1.5,0c0.4,0.2,0.9,0.5,1,1c0.2,0.8-0.7,1.5-0.8,2.3
					c0,0.5,0.2,1,0.3,1.5c0.1,1.2,0.2,2.5,0.3,3.8c0,1-0.1,2,0,3c0.2,1.9,0.9,3.7,1.3,5.5c0.3,1.3,0.2,2.7,0.8,4
					c0.7,1.6,2.3,2.8,3,4.4c0.9,2,1.1,4.2,1.8,6.3c1,3.3,2.5,6.4,3,9.8c0.3,2.3,0,4.7,0,7c0,3.1,0.6,6.2,0.3,9.3
					c-0.2,2.1-1.5,4-1.4,6c0.2,2.3,1.8,4.3,2.6,6.5c0.7,1.8,1.2,3.7,2,5.5c1.2,2.5,2.8,4.8,4.3,7.1c1,1.6,2.1,3.2,3.1,4.8
					c0.9,1.3,1.9,2.6,2.8,3.9c1.4,1.9,2.9,3.8,4,5.9c1.3,2.3,2.3,4.7,3.2,7.2c0.5,1.4,0.1,3.4,1.3,4.2c1.7,1.2,4.3,0.3,6.3-0.5
					c0.4-0.1,0.6-0.9,1-0.8c0.8,0.3,0,1.8,0.5,2.5c0.4,0.5,1.1,0.8,1.8,1c0.5,0.1,1,0,1.5,0c0.7,0,1.5-0.4,2,0
					c0.6,0.6-0.2,1.8,0.3,2.5c0.5,0.8,1.3,1.5,2.3,1.5c0.5,0,0.8-0.7,1.3-1c0.5-0.3,1-0.9,1.5-0.8c0.8,0.2,0.6,1.6,1.3,2
					c0.9,0.6,2.2,0.8,3.3,0.5c0.7-0.2,1.3-0.7,1.8-1.3c0.3-0.4,0.3-1.2,0.8-1.3c1.8-0.2,2,3.3,3.8,4c0.9,0.4,2.1,0.1,3-0.3
					c1-0.3,1.8-1,2.5-1.8c0.2-0.2,0.2-0.7,0.5-0.8c0.5-0.1,0.8,0.6,1.3,0.8c0.6,0.3,1.3,0.6,2,0.5c0.8-0.1,1.7-0.4,2.3-1
					c0.8-0.8,1.4-2.1,1.5-3.3c0-0.4-0.6-0.9-0.3-1.3c0.3-0.3,0.8,0.3,1.3,0.3c0.8-0.1,1.7-0.6,2.3-1.3c0.5-0.5,0.8-1.3,1-2
					c0.2-0.7-0.5-1.7,0-2.3c0.6-0.6,2.1,0.5,2.5-0.3c1.8-3.3-3.1-6.8-5-10c-1.9-3.1-4-6.1-6.3-9c-2-2.5-4.2-4.8-6.3-7.3
					c-2-2.4-3.9-5-5.8-7.5c-2.4-3.2-4.7-6.6-7.3-9.8c-2.6-3.2-5.3-6.4-8-9.5c-1.9-2.2-3.8-4.4-5.8-6.5c-1.7-1.8-3.7-3.3-5.3-5.3
					c-1.8-2.3-3.1-4.9-4.5-7.5c-1.4-2.6-2.5-5.3-3.8-8c-1-2.1-2.3-4-3-6.3c-0.6-1.9-0.5-3.9-1-5.8c-0.4-1.5-1.1-3-1.8-4.5
					c-0.9-2.2-2.2-4.2-3-6.5c-0.7-1.9-1-4-1.5-6c-0.3-1-0.5-2-0.8-3c-0.6-1.9-1.2-3.9-2-5.8c-0.5-1.2-1.2-2.3-1.8-3.5
					c-1.7-3.6-2.9-7.4-5-10.8c-2.1-3.4-4.8-6.3-7.5-9.3c-2.1-2.3-4.3-4.6-6.8-6.5c-1.7-1.3-3.6-2.3-5.5-3.3c-1.6-0.8-3.4-1.2-5-2
					c-1.6-0.8-2.9-2.8-4.5-2.7C-4129.8,512.2-4138.3,512-4150.5,512.4L-4150.5,512.4z"/>
			</g>
			<path id="path11360" class="st12" d="M-4163.7,526.9c6.5-2.9,13.6-3.7,20.6-4.3c4.3-0.4,8.8-0.3,13.1,0.5c4.8,1,9.2,3.2,13.7,5.1
				c5.3,2.4,11.3,4,15.4,8.1c2.6,2.6,3.5,6.4,5.1,9.7c1.3,2.8,2.5,5.6,3.8,8.4c1,2.2,2,4.4,3,6.6c1.2,3,2.9,5.8,3.5,8.9
				c0.6,3-0.6,6.1,0,9.1c0.5,2.6,2.2,4.9,3.1,7.4c0.8,2.2,1.6,4.4,2.2,6.6c0.9,3,1.4,6,2.2,9c2,6.8,5.2,13.2,6.7,20.1
				c0.7,3.2,0.2,6.5,0.9,9.7c0.7,3.4,1.4,7,3.2,10c1.5,2.5,4.1,4.2,6.1,6.4c1.6,1.8,2.7,4.3,4.6,5.7c1.5,1.1,3.6,1.2,5.3,2.1
				c2,1.1,3.8,2.7,5.7,4c2.4,1.7,4.3,4.2,7.1,5c2,0.6,4.2-0.7,6.3-0.3c2.9,0.6,5.2,3.2,8.2,3.7c2.5,0.4,5-0.8,7.5-0.8
				c1.2,0,2.2,0.7,3.5,0.4"/>
			<g id="g11362">
				<g id="g11364">
					<path id="path11366" class="st19" d="M-4145.6,628.5c0,1.4-1.2,2.5-2.6,2.5s-2.6-1.1-2.6-2.5c0-1.4,1.2-2.5,2.6-2.5
						S-4145.6,627.1-4145.6,628.5z"/>
					<path id="path11368" class="st20" d="M-4140.5,632.2c0,1.6-1.3,2.9-3,2.9c-1.7,0-3-1.3-3-2.9s1.3-2.9,3-2.9
						C-4141.8,629.3-4140.5,630.6-4140.5,632.2z"/>
					<path id="path11370" class="st21" d="M-4134.2,634.5c0,1.6-1.4,2.8-3.1,2.8s-3.1-1.3-3.1-2.8s1.4-2.8,3.1-2.8
						S-4134.2,633-4134.2,634.5z"/>
					<path id="path11372" class="st22" d="M-4127.1,635.5c0,1.8-1.4,3.2-3.2,3.2c-1.8,0-3.2-1.4-3.2-3.2c0-1.8,1.4-3.2,3.2-3.2
						C-4128.6,632.3-4127.1,633.8-4127.1,635.5z"/>
					<path id="path11374" class="st23" d="M-4121,634.4c0,1.6-1.3,2.9-3,2.9c-1.6,0-3-1.3-3-2.9s1.3-2.9,3-2.9
						C-4122.3,631.5-4121,632.8-4121,634.4z"/>
					<path id="path11376" class="st24" d="M-4115.1,632.1c0,1.5-1.2,2.8-2.7,2.8c-1.5,0-2.7-1.2-2.7-2.8c0-1.5,1.2-2.8,2.7-2.8
						C-4116.4,629.3-4115.1,630.5-4115.1,632.1z"/>
					<path id="path11378" class="st25" d="M-4110,628.8c0,1.6-1.3,2.8-3,2.8c-1.7,0-3-1.3-3-2.8s1.3-2.8,3-2.8
						C-4111.4,626-4110,627.2-4110,628.8z"/>
					<path id="path11380" class="st26" d="M-4105.2,625.2c0,1.5-1.3,2.8-2.9,2.8c-1.6,0-2.9-1.2-2.9-2.8c0-1.5,1.3-2.8,2.9-2.8
						C-4106.5,622.4-4105.2,623.7-4105.2,625.2z"/>
					<path id="path11382" class="st27" d="M-4101.3,621c0,1.6-1.3,2.8-2.9,2.8c-1.6,0-2.9-1.3-2.9-2.8s1.3-2.8,2.9-2.8
						C-4102.6,618.2-4101.3,619.5-4101.3,621z"/>
				</g>
				<g id="g11384">
					<path id="path11386" class="st8" d="M-4161.1,525.7c0.2,0.6,0.3,1.4,0.7,1.9c0.4,0.5,1,0.9,1.6,1.1c0.7,0.2,1.4,0.2,2.1,0.2
						c0.8-0.1,1.8-0.1,2.4-0.7c0.7-0.7,0.7-1.9,1.1-2.8"/>
					<path id="path11388" class="st8" d="M-4153.1,523.8c0.2,0.6,0.3,1.4,0.7,1.9c0.4,0.5,1,0.9,1.6,1.1c0.7,0.2,1.4,0.2,2.1,0.2
						c0.8-0.1,1.8-0.1,2.4-0.7c0.7-0.7,0.7-1.9,1.1-2.8"/>
					<path id="path11390" class="st8" d="M-4144.8,523.7c0.2,0.6,0.3,1.4,0.7,1.9c0.4,0.5,1,0.9,1.6,1.1c0.7,0.2,1.4,0.2,2.1,0.2
						c0.8-0.1,1.8-0.1,2.4-0.7c0.7-0.7,0.7-1.9,1.1-2.8"/>
					<path id="path11392" class="st8" d="M-4136.4,524.1c0.2,0.6,0.3,1.4,0.7,1.9c0.4,0.5,1,0.9,1.6,1.1c0.7,0.2,1.4,0.2,2.1,0.2
						c0.8-0.1,1.8-0.1,2.4-0.7c0.7-0.7,0.7-1.9,1.1-2.8"/>
					<path id="path11394" class="st8" d="M-4128.4,524.3c0,0.7-0.3,1.4-0.1,2.1c0.2,0.6,0.6,1.2,1.1,1.6c0.5,0.5,1.2,0.8,1.9,1
						c0.8,0.3,1.7,0.6,2.5,0.4c1-0.3,1.4-1.5,2.1-2.2"/>
					<path id="path11396" class="st8" d="M-4120.6,527.7c0,0.7-0.3,1.4-0.1,2.1c0.2,0.6,0.6,1.2,1.1,1.6c0.5,0.5,1.2,0.8,1.9,1
						c0.8,0.2,1.7,0.6,2.5,0.3c0.9-0.3,1.4-1.5,2.1-2.2"/>
					<path id="path11398" class="st8" d="M-4112.9,530.4c0,0.7-0.3,1.4-0.1,2.1c0.2,0.6,0.6,1.2,1.1,1.6c0.5,0.5,1.2,0.8,1.9,1
						c0.8,0.2,1.7,0.6,2.5,0.3c0.9-0.3,1.4-1.5,2.1-2.2"/>
					<path id="path11400" class="st8" d="M-4105.4,533.8c-0.3,0.6-0.8,1.2-0.8,1.9c-0.1,0.6,0.1,1.3,0.5,1.9
						c0.3,0.6,0.9,1.1,1.4,1.6c0.7,0.5,1.4,1.2,2.3,1.2c1,0,1.8-0.9,2.7-1.3"/>
				</g>
			</g>
			<g id="g11402" transform="translate(4.303,-2.207)">
				<path id="path11404" class="st28" d="M-4242.6,664.2l6.9-7.5l4.4-4.8l3.1-4.9l3.3-5.3l3.8-5.3l2.8-4l4.8-4.8l2.3-3l2-1.8l1.5-1
					l-5.3-2.8l-2,4.8l-1,3.5l-1,2l-4,5.5l-4.6,6.5l-3.5,5.5l-3.4,5l-5,5l-5.3,4.8L-4242.6,664.2z"/>
				<g id="g11406">
					<g id="g11408">
						<path id="path11410" class="st29" d="M-4222.8,639.1c1.5-1.3,2.8-3,4.3-4.2c1-0.8,2-1.6,3.2-2.1c1.3-0.5,2.7-0.9,4-0.8
							c1.3,0.1,2.5,1.2,3.8,1.5c1.5,0.4,3.3-0.3,4.7,0.5c1,0.5,1.8,1.5,2.4,2.5c0.9,1.8,1.1,3.9,1.1,5.9c0,1.3-0.1,2.7-0.6,3.8
							c-0.6,1.2-1.7,2-2.7,2.9c-0.4-1.4-0.6-2.8-1.4-3.9c-0.7-1-1.8-1.6-2.9-2.1c-1.2-0.6-2.5-0.9-3.8-1c-0.9-0.1-1.9,0.1-2.8,0.2
							c-1,0.1-2,0.8-3.1,0.6c-1.4-0.3-2.3-1.8-3.5-2.5C-4220.9,639.8-4221.9,639.5-4222.8,639.1L-4222.8,639.1z"/>
						<path id="path11412" class="st29" d="M-4226.4,643.9c0.7-1.6,1.3-3.3,1.8-5c0.8-2.5,1.7-5,2.1-7.6c0.1-0.9,0.3-1.9,0.1-2.9
							c-0.3-2.2-1-4.6-2.4-6.4c-1-1.2-2.4-2.2-3.9-2.6c-2.6-0.8-5.4,0.2-8.1,0c-1.4-0.1-2.8-0.8-4.2-0.5c-1,0.2-1.9,0.7-2.7,1.4
							c-0.6,0.5-1,1.3-1.3,2c1.4,0.1,2.9-0.3,4.2,0.2c1.2,0.4,2.3,1.3,3.1,2.3c1.4,1.7,1.2,4.4,2.6,6.1c0.7,0.8,1.9,1.1,2.7,1.8
							c1.6,1.5,2.9,3.4,3.9,5.4c0.8,1.4,1.3,2.8,1.7,4.3C-4226.6,642.9-4226.5,643.4-4226.4,643.9L-4226.4,643.9z"/>
						<path id="path11414" class="st29" d="M-4236.4,656.4c1.3-0.6,2.9-0.9,4.1-1.7c1.5-1.1,2.5-2.7,3.7-4.1c1.1-1.1,2-2.5,3.3-3.3
							c1.1-0.7,2.5-1,3.8-1.2c2.5-0.4,5.2-1.1,7.6-0.3c1.5,0.5,2.7,1.7,3.8,2.9c0.7,0.8,1.2,1.7,1.6,2.7c0.4,0.9,0.5,2,0.6,3
							c0.1,0.8,0.1,1.6,0.3,2.3c-1.1-0.4-2-1.1-3.1-1.2c-1.1-0.1-2.2,0.3-3.2,0.6c-0.9,0.3-1.6,0.9-2.5,1.1c-2,0.5-4.1-0.3-6.1,0.3
							c-1.1,0.3-2,1.4-3.1,1.6c-2,0.5-4.1,0.4-6.1,0.1c-1.4-0.2-2.6-0.8-3.9-1.3C-4236,657.4-4236.2,656.9-4236.4,656.4
							L-4236.4,656.4z"/>
						<path id="path11416" class="st29" d="M-4239.3,657.5c0.5-1.5,1.6-2.7,2.5-4c1.2-1.6,2.7-2.8,3.8-4.4c0.8-1.1,1.7-2.3,1.9-3.7
							c0.2-1.2-0.2-2.5-0.7-3.7c-0.5-1.2-1.2-2.4-2.1-3.4c-1.1-1.1-2.6-1.8-4-2.6c-0.9-0.6-2-0.9-2.9-1.5c-1.7-1.2-3.3-2.4-4.6-4
							c-0.5-0.7-1.4-1.2-1,0.1c0,1.2,0.4,2.4,0.6,3.6c0.4,2.2,1,4.4,1.5,6.6c0.4,1.9,0.7,3.8,1,5.7c0.1,0.9,0,1.8,0.3,2.6
							c0.4,1.2,1.6,2,2.1,3.1c0.7,1.5,1.1,3.2,1.4,4.8C-4239.3,656.8-4239.6,657.5-4239.3,657.5L-4239.3,657.5z"/>
					</g>
					<path id="path11418" class="st18" d="M-4213.9,611.2c-1.8-0.8-4.2,0.2-5.7,1.6c-0.5,0.5-0.6,1.3-0.7,1.9c0,0.8,0,1.7,0.5,2.3
						c0.6,0.9,1.8,1.2,2.8,1.6c1.3,0.6,2.8,0.7,4.2,1.2c2.1,0.8,4,2,6,2.9c1.1,0.5,2,1.5,3.2,1.3c0.7-0.1,1.2-0.7,1.5-1.3
						c0.3-0.5,0.5-1.2,0.5-1.8c0-0.7-0.4-1.3-0.7-1.9c-0.4-0.7-2.2-1.2-1.7-1.9c0.3-0.4,0.9,0.3,1.2,0.6c0.7,0.8,0.7,2.1,1.3,2.9
						c0.4,0.6,1,1.2,1.7,1.4c1.1,0.4,2.4,0.1,3.6-0.1c0.7-0.1,1.5-0.2,1.9-0.6c0.9-0.9,0.9-2.3,1.2-3.5c0.4-1.4,0.8-2.7,0.8-4.1
						c0-0.6-0.1-1.2-0.3-1.8c-0.2-0.6-0.4-1.3-0.8-1.7c-0.3-0.3-0.7-0.3-1-0.5c-0.4-0.3-1.4-0.5-1.1-0.9c0.9-1.4,3,1.7,4.6,1.9
						c0.6,0.1,1.5,0.1,1.8-0.4c0.6-1-0.4-2.2-0.8-3.3c-0.6-1.6-1.6-3.1-2.2-4.7c-0.3-0.9-0.2-1.9-0.6-2.8c-0.5-1.2-1.1-2.4-2.1-3.1
						c-0.4-0.3-0.9-0.4-1.4-0.4c-0.6,0.1-1.3,0.4-1.7,0.8c-0.5,0.5-0.8,1.2-1,1.9c-0.3,1,0,2.2-0.2,3.2c-0.1,0.4,0.1,1.4-0.4,1.3
						c-1.1-0.2,0.4-2.3,0.3-3.4c0-0.9-0.1-1.9-0.4-2.7c-0.3-1-0.6-2.1-1.3-2.8c-0.6-0.7-1.4-1.2-2.2-1.4c-1.4-0.4-2.9-0.4-4.3-0.1
						c-0.9,0.2-1.8,0.6-2.5,1.2c-0.4,0.4-0.6,0.9-0.7,1.5c-0.1,0.6-0.1,1.3,0,1.9c0.2,0.9,0.6,1.9,1.1,2.7c0.5,0.8,2.4,1.5,1.7,2.2
						c-0.2,0.2-0.4-0.3-0.6-0.5c-0.6-0.7-0.8-1.7-1.3-2.4c-0.7-1-1.6-1.9-2.6-2.7c-0.5-0.4-1.1-0.8-1.8-1c-0.5-0.1-1.1-0.3-1.5,0
						c-1,0.6-1.2,2-1.7,3c-0.8,1.7-1.3,3.5-2.1,5.1c-0.5,1-1.2,1.8-1.5,2.9c-0.1,0.5-0.3,1.1-0.1,1.6c0.5,1.1,1.6,1.9,2.7,2.4
						C-4216.8,611.3-4214.7,612.3-4213.9,611.2L-4213.9,611.2z"/>
					<path id="path11420" class="st30" d="M-4201.5,609.5c0,2.2-1.8,4-4.1,4c-2.2,0-4.1-1.8-4.1-4c0,0,0,0,0,0c0-2.2,1.8-4,4.1-4
						C-4203.3,605.5-4201.5,607.3-4201.5,609.5C-4201.5,609.5-4201.5,609.5-4201.5,609.5z"/>
				</g>
			</g>
			<g id="g11422">
				<path id="path11424" class="st9" d="M-4259.3,714.5c-1.2-7.6-2.8-15.1-3.5-22.8c-0.7-2.1-2.1-4-3-6.1c-1.5-2.2-1.3-5-2.2-7.5
					c-0.2-1.4-1.2-2.6-2.3-3.6c-1.1-0.8-2.6-1.2-3-2.7c-1.4-2.3-2.3-4.8-3.7-7.1c-0.2-1.4-0.8-2.8-0.1-4.2c0.8-3.1,2-6,3-9.1
					c0-1.8-0.1-3.6,0.4-5.3c1.2-0.2,2.2,0.2,3,1.1c1.4,0.8,1.6,2.4,2.3,3.7c0.1,2.6,0.4,5.2-0.2,7.8c1.6-0.9,3.3-1.5,5.1-1.7
					c1.8-0.3,3.6,0,5.3,0.4c0.2-1-0.4-2.4,0.3-3.2c1.4-1.2,3.2-1.6,5-1.3c1.7,0.1,3.4,0.1,4.9,0.9c0.1-1.1-0.1-2.4,1.3-2.7
					c0.9-0.7,2.2-0.9,3.3-0.9c1.1,0.3,2,0.8,2.5,1.9c1.1,0.9,1.8,2,2.3,3.4c0.9,2,1.2,4.2,1.5,6.4c0.2,0.7-0.6,4.3,0.2,2.6
					c1-1.7,2.7-4.4,4.3-5.7c1.1-0.6,2.3-0.7,3.5-0.6c0.7,0.9,1.1,1.9,0.9,3c0,2.3-1,4.4-1.5,6.7c-2.8,5.5-3.6,9.3-4.2,14.5
					c-0.6,2-1,2.9-2.3,3.9c-1.4,1.9-3.2,3.2-4.7,5c-0.6,0.6-1.4,2.1-0.3,2.7c1.5,0.9,1.9,2.7,2.7,4.1c1.3,2.9,1,5.1,1.6,7.6
					c0,1.5,0.3,3.1-0.7,4.5c-0.7,2.2-2.6,3.6-4.1,5.3c-2.1,0.8-4.2,2-6.4,2.5c-1.6,0.1-3.3,0.6-4.9,0.3c-1.6-0.6-3.2-1.3-4.5-2.5
					C-4258.1,715.4-4258.7,714.9-4259.3,714.5L-4259.3,714.5z"/>
				<g id="g11426">
					<path id="path11428" class="st8" d="M-4268.5,658.6c-0.8,0.7-1.8,1.2-2.1,2.2c-0.5,0.7,0.5,1.3,0.8,2c0.7,1.4,1.9,2.4,3,3.4
						c0.7,0.5,1.7,0.7,2.3,1.4c0.3,0.5,0.9,1.6,1.1,1.8c-0.2-1.3-0.6-2.6-0.5-3.9c0.7,0.1,1.7-0.1,2.1,0.7c0.7,1,1.8,1.5,2.7,2.3
						c0.7,0.1,1.6-0.2,2.2,0.1c0.7,1.6,1.6,3.1,2.7,4.5c0.8,1,1.8,1.8,2.7,2.7c0.8,0.1,1.7,0.4,2.4,0.3c0.4-0.6,1.4-0.9,1.1-1.8
						c-0.2-1.5-0.4-3-1.1-4.3c-0.9-2.1-1.8-4.3-3-6.2c-1.5-1.9-2.8-4-4.9-5.3c-0.5-0.4-1-0.7-1.5-1.1"/>
					<path id="path11430" class="st8" d="M-4247.6,674.3c0.5,0.5,0.7,1.3,1.4,1.5c0.8,0.3,1.6,0.7,2.3-0.5c0.3-1.5,0.7-3.1,0.5-4.6
						c0.1-2,0.2-4,0-6c-0.1-1.3-0.9-2.4-1.3-3.6c-0.7-1.4-1-3.1-1.8-4.5c-0.6-0.9-1.3-1.8-2.1-2.5"/>
					<path id="path11432" class="st8" d="M-4237.2,665c0,1.3,0.2,2.6-0.4,3.8c-0.6,1.9-1,3.9-2.1,5.6c-0.5,0.6-1,1.1-1.9,0.9
						c-1,0.1-1.6-0.9-2.2-1.6"/>
					<path id="path11434" class="st8" d="M-4241.8,692.5c-0.9,1.6-2,3.1-2.5,5"/>
					<path id="path11436" class="st8" d="M-4249.4,685.6c0,2,0.1,4-0.7,5.9c-0.3,0.5-0.6,0.9-0.9,1.4"/>
					<path id="path11438" class="st8" d="M-4228.9,660c-0.9,0-1.9-0.2-2.6,0.5c-0.5,1.6-0.5,3.5,0,5.1c0.5,0.7,0.9,1.4,1.7,1.8"/>
					<path id="path11440" class="st8" d="M-4239,672.4c-0.1-0.7,0.1-2.5-0.1-3.1c-0.6-0.5-1.3-0.8-2.1-0.6c-0.8,0-1.2,0.8-1.3,1.5
						c-0.2,0.6-0.4,1.1-0.6,1.7"/>
					<path id="path11442" class="st8" d="M-4243.8,672.9c-0.5-0.8-0.6-1.8-1.3-2.4c-0.6-0.5-1.3-0.7-1.9-0.1
						c-0.7,0.9-0.5,2.8-0.5,3.9"/>
					<path id="path11444" class="st8" d="M-4248.3,672.5c-0.7-0.5-2.3-2.1-3.2-1.9c-1-0.3-1.2,0.3-1,1.2c-0.1,0.8,0.1,1.5,0.6,2.2
						c0.4,0.7,1,1.3,1.5,1.9"/>
				</g>
				<path id="path11446" class="st29" d="M-4251.9,675.7c0,0-1.2,1.5-1.8,2.3c-0.7,0.9-1.3,1.9-1.9,2.8c-0.8,1.3-1.3,2.6-2.1,3.9
					c-0.8,1.3-1.9,2.5-2.7,3.9c-0.8,1.4-1.3,3-1.9,4.4c-0.7,1.4-1.3,2.9-2.1,4.2c-0.8,1.5-1.9,2.8-2.7,4.2c-0.8,1.5-1.3,3.2-2.1,4.8
					c-0.6,1.2-1.4,2.3-1.9,3.5c-0.4,0.9-0.6,1.8-1.1,2.7c-0.4,0.7-1.4,1.9-1.4,1.9s1.6-1.2,2.5-1.6c0.7-0.3,1.4-0.4,2.1-0.5
					c0.2,0,0.7,0,0.7,0s1.1-3.2,1.8-4.8c0.6-1.4,1.5-2.7,2.1-4.1c0.5-1.2,0.9-2.5,1.4-3.7c0.7-1.5,1.6-2.8,2.3-4.2
					c0.7-1.4,1.1-3,1.8-4.4c0.5-1.2,1.1-2.3,1.8-3.4c0.7-1.2,1.5-2.4,2.3-3.6c0.4-0.7,0.9-1.3,1.4-2c0.6-1,1.3-2.1,1.8-3
					c0.4-1.2,1.1-1.7,1.9-2.8C-4250.7,676.7-4250.9,676.6-4251.9,675.7L-4251.9,675.7z"/>
				<g id="g11448">
					<path id="path11450" class="st8" d="M-4064.3,657.1c1.4,0.8,4.6,0,6,1.5c1.1,1.1,0.2,3.2,1,4.5c0.4,0.6,0.9,1.1,1.6,1.2
						c1.1,0.3,2.4-1,3.4-0.5c1.5,0.7,1.7,2.9,2.7,4.2c0.3,0.4,0.6,1,1.1,1.2c1.5,0.6,3.2-0.9,4.7-0.5c1.4,0.4,2.3,1.7,3.3,2.8
						c0.7,0.7,1,1.9,1.9,2.2c1.3,0.4,2.6-1.1,4-1c1.3,0.1,2.2,1.2,3.5,1.5c2.1,0.6,4.3,0.4,6.5,0.9c2.2,0.5,4.2,1.5,6.3,2.3"/>
					<path id="path11452" class="st8" d="M-4118.8,514.6c5.4,2.8,11.2,5.4,15.5,9.8c4.5,4.6,7,10.8,9.8,16.5
						c5,10.4,8.1,21.6,12.3,32.4c3.2,8.2,5.9,16.6,9.9,24.4c4.8,9.4,13.2,21,16.8,26.9"/>
					<path id="path11454" class="st8" d="M-4095.8,526.9c2.9,4.9,6.5,9.4,8.8,14.6c1.6,3.6,2,7.6,3.2,11.4c2.5,7.6,5.6,15,8.6,22.5
						c4.1,10.4,8.2,20.8,12.4,31.1c2.2,5.3,3.9,10.7,6.7,15.7c4.7,8.3,11.3,15.4,16.6,23.4c4.6,7,9,14.2,13,21.6
						c0,0.1,0.1,0.2,0.1,0.2"/>
					<path id="path11456" class="st8" d="M-4066,597.9c2.7,5.2,6.6,12,10.7,17.4c4.9,6.4,11.5,11.5,16.8,17.7
						c5.6,6.6,11.7,13,15.9,20.5c2.5,4.5,4.4,9.4,5.6,14.4"/>
					<path id="path11458" class="st8" d="M-4116.3,536.9c1.3,2.7,2.8,5.1,3.7,7.8c1.2,3.6,0.7,7.7,2.2,11.1c1.3,3,5,4.8,5.6,7.9
						c0.6,3.1-1.3,6.2-2.2,9.2c-0.7,2.4-2.5,4.5-2.5,7c0,4.6,4,8.5,4.4,13.1c0.3,2.7-0.5,5.3-1,7.9c-0.3,1.5-1.2,4.1-1.3,4.6"/>
					<path id="path11460" class="st8" d="M-4111.9,538.9c1.9,4.7,4.2,12.1,6.8,15.1c2.3,2.7,4.5,6.1,4.6,9.7
						c0.1,2.7-2.2,4.9-3.1,7.5c-0.6,1.6-1.5,3.2-1.5,4.9c-0.1,1.9,0.8,3.7,1.1,5.6c0.9,5.2,5.3,11.1,2.5,15.6
						c-0.7,1.2-1.9,3-3.9,1.2"/>
					<path id="path11462" class="st8" d="M-4108.3,540.6c2.4,4.8,5.9,9.1,8.2,13.9c1,2.1,2.3,4.3,2.5,6.7c0.2,2.7-1.2,5.3-1.7,8
						c-0.7,4.4-2.1,9-1.4,13.4c0.4,2.6,2.7,4.7,3.3,7.3c0.4,1.8,1.4,4.2,0.2,5.6c-1.1,1.2-2.9,1.9-3.6-0.7"/>
					<path id="path11464" class="st8" d="M-4094.4,562.7c-1.1,5.7-3.2,9.8-3.1,14.9c0,3.2,1.6,6.2,2.2,9.4c0.7,3.8,2.8,7.8,1.7,11.6
						c-0.5,1.7-1.6,4.3-3.3,4c-1.4-0.3-2.2-2.9-1.4-4.1c0.4-0.5,1.5-1.4,2,0"/>
					<path id="path11466" class="st8" d="M-4100.5,599.1c-0.8,1.9-0.7,4.1,0.5,5.5c1,1.2,3,1.7,4.6,1.4c1.5-0.3,2.9-1.4,3.7-2.7
						c1.2-2,1.1-4.7,1.1-7c0-4.7-2.2-9.3-2.4-14c-0.3-5,0.1-10,1-14.9c0-0.3,0.2-0.5,0.2-0.8"/>
					<path id="path11468" class="st8" d="M-4103.8,599.6c-1,7.2,3.3,9.6,7.5,11.2c1.9,0.7,4.7,0.1,6-1.5c4.5-5.4,1.4-14,1-21.1
						c-0.1-2-0.6-3.9-0.8-5.8"/>
					<path id="path11470" class="st8" d="M-4084.8,594.9c-0.5,5.3-0.1,10.8-1.6,15.9c-0.5,1.6-0.8,3.7-2.4,4.3
						c-1.7,0.6-3.2-1.9-5-1.8c-1.7,0.1-2.3,4.5-4.6,2.5c-1.9-1.7-3.6-3.7-3.6-3.7"/>
					<path id="path11472" class="st8" d="M-4100.3,618.4c3.4,6.1,6.3-1.6,9.8,0.6c1.5,1,3.6-1.4,4.7-2.9c2.8-4,2.5-9.4,3.3-14.2"/>
					<path id="path11474" class="st8" d="M-4092.5,623.6c3.3-1,2-0.4,3-0.8c1.6-0.6,3.3-1.2,4.4-2.5c2.2-2.6,2.4-6.3,3.6-9.5"/>
					<path id="path11476" class="st8" d="M-4090,625.6c1.9-0.5,3.7-1,5.1-2.2c1.6-1.4,2.5-3.4,3.4-5.5"/>
					<path id="path11478" class="st8" d="M-4167.8,537.4c-0.5,1.7-1.6,3.4-1.7,5.2c-0.4,4.9,3.2,9.7,2.4,14.5
						c-0.2,1.4-1.4,2.5-2.1,3.8c-0.7,1.3-1.7,2.4-2.1,3.8c-0.5,1.5-0.5,3.2-0.4,4.8c0.1,2.1,1.1,4.2,1.3,6.3c0.2,3-5.9,6-0.3,9
						c1.8,1,0.1,4.1-0.3,6.1c-0.6,2.8-2.7,5.2-2.9,8c-0.2,2.7,0.3,5.6,1.6,7.9c1.2,2.1,3.4,3.6,5.5,5c1.1,0.7,2.4,1.3,3.7,1.6
						c2.9,0.7,6.4-1.1,9,0.5c0.8,0.5,1.6,1.6,1.4,2.5c-0.3,1.1-1.6,1.6-2.7,1.8c-1.2,0.2-2.4-0.3-3.5-0.6c-1.4-0.4-2.7-1.3-4.2-1.4
						c-1.2-0.1-2.7-0.3-3.5,0.6c-0.8,0.9-0.3,2.3-0.1,3.4c0.5,2.3,2.6,4,2.9,6.3c0.2,1.2,0.1,2.5-0.5,3.5c-0.2,0.3-0.5,0.4-0.8,0.6"
						/>
					<path id="path11480" class="st8" d="M-4165,536.9c-0.2,2.4-0.3,4.8-0.4,7.2c-0.1,4.6,0.6,9.3,0.3,13.9
						c-0.1,1.9-0.6,3.7-0.9,5.5c-0.4,1.8-1,3.6-1.2,5.4c-0.5,4.1,1,8.7-0.4,12.4c-0.6,1.5,2.4,2.5,2.5,4.1c0.2,2.2-1.5,4.2-2.3,6.2
						c-1.1,2.7-3.4,5.1-3.6,8c-0.1,2.4,1.1,4.7,2.3,6.8c1.2,2.2,3.5,4.2,4.7,6"/>
					<path id="path11482" class="st8" d="M-4162.3,585.6c-0.7,2.5-1.8,4.8-2.5,7.3c-0.7,2.2-1.5,4.5-1.8,6.8c-0.2,1.9-0.4,4,0.2,5.9
						c0.4,1.3,1.1,2.4,2,3.4c1.6,1.8,3.8,2.9,5.6,4.4"/>
					<path id="path11484" class="st8" d="M-4160.3,592.6c-1,3.2-2.1,6.4-2.2,9.6c0,1.6,0,3.4,0.8,4.7c1.3,2.1,3.9,3.1,5.8,4.7
						c0.8,0.7,1.6,1.4,2.4,2.1"/>
					<path id="path11486" class="st8" d="M-4166.8,611.9c-1.3,1.8-3.3,3.3-3.7,5.5c-0.4,1.9,0.6,3.8,1,5.7c0.3,1.2,0.9,2.4,0.9,3.7
						c0.1,1.4,0.4,3.1-0.5,4.2c-0.5,0.7-1.7,0.7-2.5,1"/>
					<path id="path11488" class="st8" d="M-4157,598.6c-0.3,2.1-0.8,4.3-0.4,6.4c0.2,1.1,0.9,2.2,1.6,3.1c1.8,2.3,5.1,3.4,6.5,5.9
						c0.7,1.3,1.3,3,0.8,4.5c-0.4,1.3-1.6,2.3-2.8,2.9c-1.3,0.7-2.9,0.5-4.4,0.5c-1.2,0-2.5-1.2-3.4-0.5c-0.9,0.7-0.5,2.2-0.4,3.3
						c0.1,1,0.7,1.9,1.1,2.8"/>
					<path id="path11490" class="st8" d="M-4150.8,605.1c0.1,1.2-0.4,2.6,0.2,3.6c0.8,1.4,3,1.3,3.9,2.6c1,1.4,1.4,3.2,1.4,4.9
						c0,1.4-0.4,2.7-0.9,4c-0.4,1.1-0.9,2.3-1.8,3c-1.8,1.5-5.9,0-6.6,2.2c-0.2,0.6,0.7,1,1,1.5"/>
				</g>
				<path id="path11492" class="st31" d="M-4185.1,648.9c-2.1-1.7-4.4-3.3-6.7-4.8c-0.2-1.6,0-3.1,1.2-4.2c1.2-0.8,3.3-0.5,4.2-1
					c0.2-1.3-1-3.6,1-3.8c1.3-0.8,3-1,4.3-0.6c1.1,1,2.5,1.9,2.5,3.7c0.5,1.5-1.1,2.7-2,3.7c-1.9,0.5-1.1,2.5,0.4,2.7
					c1.5,0.5,2.9-0.8,4.2-0.5c1.8,0,0.9,3.1-0.5,3c-2.9,0.5,0.3,0.3,1.5,0.3c1.4,1.3,0,2.9-0.7,4.2c2.3-1.1,4.9-2.3,7.5-1.3
					c1.2,1.5,1.6,3.6,1.9,5.5c2.1-0.1,4.3,0.2,6.4-0.2c-0.3-1.5-1.1-3.3,1-3.6c1-0.4,3.2,0.7,3.3,1.9c0.7,1.5-0.2,2.6-1.3,3.5
					c1.9-1,3.8-1.7,5.9-1.6c1.8-0.1,3.5,0.4,5.2,0.9c1.1,1.2,0.1,3.3-0.3,3.5c1.3-1,2.2-3,4.1-2.5c1.3-0.4,3.9,1.3,1.6-0.4
					c-2-0.9-1.5-2.1-0.2-3.3c1.4-0.3,3,0.4,3.9,1.6c1.4,2.2,1.4,0.2,2.8-0.2c1.3-0.4,3.6,0.6,2.7,2.2c0.4,0.7,2.4-1.7,3.6-1.6
					c2-0.7,2.2,1.1,1.6,2.5c-2.1,1.6-0.9,1.5,0.9,0.8c2.3-0.7,4.9-1.6,7.3-0.9c1.7,1.5,1.4,1.1,1.8-1.1c0.8-1.4,2.9-1.8,4.5-2
					c1.5-0.2,3.6,0.2,3.9,2c0.2,2.4,1.5-1,2.7-1.2c1.6-1.3,3.8-0.7,5.7-1.4c1.8-0.8,2.6,1.6,3.5,2.7c-0.5-1.7,0.3-3.2,0.9-4.8
					c1.6-0.8,3.5-0.7,5.3-0.7c-0.8-1.4-1.4-2.7,0-3.9c1.5-1.7,3.9-0.6,5.7,0c0.4,0.3,0.5-3.1,1.9-3.1c1.5-0.6,3.3,0.6,2.6,1.4
					c0.4-2,2.1-3.9,4.3-3.5c0.7,0.4,2.8,2.5,2,3c-4.3,2-6.6,4.2-10.6,6.7c-2.8,1.9-7,4.8-10.3,5.7c-4.5,1.8-9.1,3.4-13.7,4.6
					c-5.3,1-10.6,1.8-16,2c-5.2,0.5-10.4,0.8-15.6,0.5c-4.4,0.2-8.5-1.5-12.7-2.3c-3.8-0.9-7.7-1.2-11.4-2.4c-4.8-2-9.7-4-14.2-6.7
					C-4180.2,652.7-4182.6,650.7-4185.1,648.9L-4185.1,648.9z"/>
				<path id="path11494" class="st7" d="M-4188.8,646.4c-2.1,2.3-4,4-6.1,5.9c-2.1,2-4.5,3.7-6.3,5.9c-1.9,2.3-3.6,4.8-4.7,7.5
					c-1,2.6-1.5,5.4-1.7,8.2c-0.2,3,0.3,6.1,0.7,9.1c0.9,7,2.7,13.8,3.7,20.7c1,7.5,0.4,15.2,2,22.5c0.9,4,2.2,7.9,4.1,11.6
					c1,1.9,2.2,3.7,3.6,5.3c2.4,3,5.4,5.4,7.8,8.3c8.3,0,16.5,0,24.7,0c-2.2-3.8-3.6-7.9-5.8-11.7c-1.5-2.7-3.2-5.3-5-7.8
					c-1.5-2.1-3.1-4.2-5-6c-1.7-1.7-3.9-2.8-5.5-4.5c-3.3-3.4-6-7.4-8.7-11.3c-1.4-2.1-3-4.1-4-6.5c-1.8-4.3-2.8-9-3.1-13.7
					c-0.3-5.6,1.3-11.1,1.8-16.7c0.2-2.6-0.2-5.2,0.5-7.7c0.9-3.4,2.7-6.4,4.6-9.3c1.7-2.7,4.3-4.8,6.1-7.5
					C-4186,647.8-4187.5,647.1-4188.8,646.4L-4188.8,646.4z"/>
				<g id="g11496">
					<path id="path11498" class="st8" d="M-4201.9,674c0.1,2.6,0.1,5.3,0.4,7.9c0.2,2.2,0.5,4.5,1.1,6.7c0.3,1,0.6,2,1.1,2.9
						c0.7,1.2,1.6,2.3,2.4,3.5"/>
					<path id="path11500" class="st8" d="M-4193.7,706.1c0,2.1,0.5,5,1.1,7.5c0.5,2.1,1.3,4.2,2.2,6.1c1.4,2.9,3.4,5.5,5,8.3
						c1,1.8,1.8,3.8,2.9,5.6c1,1.8,2.2,3.5,3.4,5.1c0.8,1,1.6,2,2.4,3"/>
				</g>
				<path id="path11502" class="st30" d="M-4187.7,652.4c4.5,4.1,10.1,6.5,15.3,9.6c-4.9,11.4-5.4,25,0.3,36.1
					c5.3,9.8,9.5,20.2,14.1,30.3c3,7.4,2.3,15.1,2.4,22.9l3.6-0.2c1-16.9-2-21.4-6.2-33.4c-3.9-11.1-11.8-20.8-12.7-32.9
					c-1.5-7.2,0.8-14.2,2.6-21.1c2.2,0.6,4.3,1.3,6.5,1.9c-2.6,7.9-2.3,17,2.6,24c3.6,5.4,8.7,10.7,14.9,12.7
					c5.4,1.8,11.8,1.2,17-1.2c5.3-2.4,8.9-7.3,12.3-12.2c3.6-6.3,6.3-14.6,5.4-22l9.7-1.9c-0.1,2.4-0.1,2.7-0.7,6.2
					c-1.3,8.3-5,16-9.7,22.8c-4.3,5.9-8.1,12.2-11.6,18.5c-2.7,6.5-4.7,13.2-5.5,20.2c-1.1,5.5-1.5,12.7-1.2,18.2l4.1,0.2
					c-1-11.1,0.8-20.6,4-30.3c3.6-10.4,10.7-19.5,16.6-28.6c4.3-8.5,9-18.7,8.4-28.4c3.8-2.4,9.6-4.3,13.9-7.7
					c1.6-1.2,8.3-5.9,10.2-7.8l-1.7-3.3c-2.8,1.4-6.5,5-8.6,6c-5.8,4.9-12.5,7.6-19.5,9.9c-7.8,3.5-16.6,3.3-24.9,4.4
					c-5.9-0.1-11.9,1.3-17.7-0.5c-6.1-0.6-12.1-2.1-17.9-3.9c-6-1.4-11.8-3.5-16.7-7.3c-3-1.1-3.8-3-6.8-5.3
					C-4185.4,648.9-4187.4,652-4187.7,652.4L-4187.7,652.4z"/>
				<path id="path11504" class="st32" d="M-4158,666.9c-0.3,0,4.8,0.5,7.3,1.5c-0.4,1.5-1.2,2.9-1.3,4.5c-0.1,0.9,0.1,1.9,0.4,2.7
					c0.6,1.8,1.6,3.4,2.6,5c1.7,2.5,4,4.4,5.8,6.8c1.3,1.8,1.8,4.3,3.6,5.5c0.7,0.4,1.6,0.6,2.4,0.4c0.9-0.1,1.8-0.7,2.5-1.3
					c1.1-1,1.6-2.7,2.5-3.9c1.4-1.7,3-3.2,4.6-4.7c1-0.9,2.2-1.4,3.2-2.3c0.8-0.8,1.4-1.7,1.9-2.7c0.6-1.3,1.1-2.7,1.4-4.1
					c0.1-0.8,0.3-1.7,0-2.5c-0.4-1.2-1.4-2.1-2.1-3.2c3.4-0.3,6.8-0.7,10.3-1c0,2.3,0.2,4.7-0.1,7c-0.2,2.1-0.7,4.2-1.3,6.3
					c-0.5,1.6-1.1,3.2-1.9,4.7c-0.9,1.7-2.1,3.2-3.3,4.7c-1.2,1.5-2.3,3.1-3.8,4.3c-2.3,1.9-4.9,3.7-7.8,4.6c-2,0.7-4.1,0.8-6.2,0.7
					c-2-0.1-4-0.5-5.9-1c-1.2-0.3-2.4-0.5-3.4-1.2c-3.1-1.9-5.7-4.7-7.8-7.6c-1.7-2.4-2.9-5.2-3.7-8c-0.7-2.4-1.1-5-1.2-7.5
					c0-1.6,0.2-3.2,0.5-4.8C-4158.7,668.8-4158.3,667.8-4158,666.9L-4158,666.9z"/>
				<path id="path11506" class="st8" d="M-4153.1,667.7c0,0-4.7,1.8-5.4,3.8c-0.8,2.2,6.1,0.7,6.4,3c0.4,2.8-7.2,2.7-6.5,5.4
					c0.8,3.1,8.1-1.1,9.4,1.7c1.4,3-6.7,6.1-4.7,8.8c2.2,2.8,7.9-4.8,10.5-2.3c2.3,2.2-4.4,7.4-1.8,9.3c2.1,1.6,4.4-3.7,7-3.5
					c2.5,0.2,3.6,5.5,5.9,4.5c3.1-1.4-2.3-8.6,0.7-10.1c2.9-1.5,5.5,7.1,8.2,5.3c3-2-4.8-8.3-2.1-10.8c2.2-2,6.6,4.6,8.5,2.4
					c2-2.4-5.4-5.6-4.3-8.5c1-2.6,8.6-0.1,7.9-2.8c-0.6-2.3-8.4-5.1-8.4-5.1"/>
				<path id="path11508" class="st18" d="M-4137,674.2c0,0,0.5-2.8,1.3-3.7c0.9-0.9,2.4-1.3,3.7-1.3c1.2,0,2.8,0.5,3.7,1.3
					c0.9,0.9,1.3,2.4,1.3,3.7c0,1.2-0.7,3-1.3,3.7c-0.7,0.7-1.3,1-2,1.7s-1,0.7-1.7,1.3c-0.7,0.7-1,1-1.7,1.7s-1.7,2-2.3,3.3
					c-0.7,1.3-1,3.3-1,3.3s-0.3-2-1-3.3s-1.7-2.7-2.3-3.3c-0.7-0.7-1-1-1.7-1.7s-1-0.7-1.7-1.3c-0.7-0.7-1.3-1-2-1.7
					s-1.3-2.4-1.3-3.7c0-1.2,0.5-2.8,1.3-3.7c0.9-0.9,2.4-1.3,3.7-1.3c1.2,0,2.8,0.5,3.7,1.3C-4137.5,671.5-4137,674.2-4137,674.2z"
					/>
				<path id="path11510" class="st14" d="M-4207.8,673.6c-1.5,1.4-3.3,2.6-4.6,4.2c-1.9,2.4-2.9,5.3-4.4,7.9c-1,1.8-2.8,3.2-3,5.2
					c-0.1,0.7-0.1,1.6,0.5,2c0.6,0.4,1.4,0,2.1-0.3c2-0.9,3.4-2.7,5-4.1c-1.3,1.2-2.3,2.7-3.7,3.6c-2.4,1.5-5.8,1.3-8,3.1
					c-1.4,1.2-1.7,3.4-2.9,4.8c-0.6,0.6-1.3,1.2-2.1,1.5c-0.8,0.4-1.6,0.5-2.5,0.7c0.5,1.9,1,3.8,1.5,5.8c0.8-0.8,1.4-2,2.4-2.5
					c1.4-0.7,3.2-0.7,4.8-0.7c1.2,0,2.5,0.1,3.7,0.5c1.4,0.4,2.9,0.9,4,1.9c2.1,1.9,3,4.7,4.3,7.1c0.6,1.2,1.1,2.5,1.7,3.6
					c0.6,1.1,1.6,2,2.2,3.1c0.6,1,0.9,2.3,1.5,3.3c1.2,1.8,3.2,3,4.5,4.9c0.6,0.9,1,1.9,1.4,2.9c-0.7-2.9-1.6-5.7-2-8.7
					c-0.5-3.5-0.3-7.1-0.5-10.7c-0.2-2.9-0.2-5.7-0.6-8.5c-0.4-3.3-1.3-6.5-2-9.7c-0.7-3.4-1.6-6.8-2.1-10.3
					C-4207.2,680.7-4207.4,677.2-4207.8,673.6L-4207.8,673.6z"/>
				<g id="g11512">
					<path id="path11514" class="st8" d="M-4183.5,663.7c-3.3,2.5-6.4,5.4-8.9,8.6c-1.6,2-2.9,4.3-4,6.7c-0.2,0.5-0.3,1.1-0.5,1.7"
						/>
					<path id="path11516" class="st8" d="M-4188.1,657.3c-0.8,1.7-2.1,3.2-2.5,5c-0.6,2.5-0.4,5.2,0,7.7"/>
					<path id="path11518" class="st8" d="M-4190.2,704c3,2,5.7,4.4,8.8,6.2c2.9,1.6,5.9,3,9,3.8c2.4,0.6,6.1,0.4,7.5,0.5"/>
					<path id="path11520" class="st8" d="M-4187.7,711.1c3.6,2.2,6.9,5.2,10.8,6.8c4.8,2,11.3,2.2,15.3,3.3"/>
					<path id="path11522" class="st8" d="M-4179.6,719.9c3.3,1.8,6.4,4.2,9.9,5.6c3.5,1.3,8.1,2.3,10.9,2.3"/>
					<path id="path11524" class="st8" d="M-4172.5,727c2.8,1.3,5.5,2.9,8.5,3.8c2,0.6,5.3,0.7,6.3,0.9"/>
					<path id="path11526" class="st8" d="M-4167.6,732.3c2.4,1.2,4.8,2.1,7.3,2.8c1.1,0.3,3.2,0.5,3.3,0.5"/>
					<path id="path11528" class="st8" d="M-4164.7,736.5c1.6,0.7,6.3,2.7,8.6,2.9"/>
					<path id="path11530" class="st8" d="M-4162.6,740.8c1.2,0.6,5.5,1.3,6.7,1.9"/>
					<path id="path11532" class="st8" d="M-4161.2,744.7c0.9,0.4,4.6,1.1,5.6,1.4"/>
					<path id="path11534" class="st8" d="M-4116.7,712.8c3.9,0.1,10.9,0.5,16.3,0c3.5-0.3,7.1-0.7,10.4-1.8c3-1,5.8-2.6,8.5-4.2
						c2-1.2,4-2.3,5.6-4c1.5-1.7,2.7-3.7,3.5-5.8c1.1-2.8,1.5-5.8,1.7-8.8c0.1-1.4,0.1-2.8-0.2-4.1c-0.1-0.5-0.4-1-0.6-1.6"/>
					<path id="path11536" class="st8" d="M-4066.4,688.1c-0.5,2.8-0.5,5.7-1.5,8.3c-0.9,2.5-2.4,4.7-4,6.8c-2.1,2.7-4.4,5.4-7.3,7.3
						c-3.1,2-6.8,2.8-10.3,3.8c-3.7,1.1-7.5,2-11.3,2.5c-3.4,0.4-6.9,0.4-10.4,0.5c-2.4,0.1-6.3-0.1-7.3,0.1"/>
					<path id="path11538" class="st8" d="M-4121,723.2c6.1-0.6,15.4,0.3,22.9-1.2c4.1-0.8,8-2.7,11.9-4.3c2.3-1,4.7-2,6.8-3.3
						c3.9-2.6,6.7-6.1,10.7-9.3"/>
					<path id="path11540" class="st8" d="M-4122.7,729.5c5.1-0.7,13.3-0.5,19.7-2.2c5.8-1.5,11-4.7,16.5-7"/>
					<path id="path11542" class="st8" d="M-4123.5,735.6c4.4-1.4,12.2-2.5,18.2-4.4c3.6-1.2,7-2.6,10.4-4.3c3.8-1.9,7.4-4.3,11-6.5
						c1.7-1.1,3.4-2.2,5.1-3.3"/>
					<path id="path11544" class="st8" d="M-4124.5,742c4.5-1.5,12.8-3.3,19-5.6c5.3-2,10.6-4.4,15.6-7c1.8-0.9,3.4-2.1,5.1-3.1"/>
					<path id="path11546" class="st8" d="M-4124,746.5c5.5-2,11.1-2.3,16.4-4.1c4.7-1.7,10.8-5,13.7-6.2"/>
					<path id="path11548" class="st8" d="M-4150.5,715.4c4.1,0.7,6.5,1,9.8,1.1c4.1,0.1,8.1-0.3,12.2-0.8c1.9-0.2,3.7-0.7,5.6-1"/>
					<path id="path11550" class="st8" d="M-4148,721.4c3.3,0.2,7.8,0.5,11.7,0.4c3.5-0.1,7-0.1,10.5-0.9"/>
					<path id="path11552" class="st8" d="M-4147.4,727c3.1,0.2,6.3,0.8,9.4,0.7c3.8-0.2,7.3-1.2,11.2-1.9"/>
					<path id="path11554" class="st8" d="M-4146.8,731.7c3.1,0,7.2,0.4,10.8,0.2c1.7-0.1,3.3-0.4,5-0.7c1.2-0.3,2.3-0.7,3.5-1"/>
					<path id="path11556" class="st8" d="M-4147.4,735.8c3.6,0.1,7.2,0.5,10.7,0.3c2.9-0.1,6.1-0.7,8.7-1"/>
					<path id="path11558" class="st8" d="M-4147.9,741.1c3.3,0,6.6,0.1,9.8,0c3.2-0.1,6.8-0.4,9.6-0.7"/>
					<path id="path11560" class="st8" d="M-4149.6,745.7c3.3,0,6.6,0.1,10,0c3.6-0.2,7.8-0.4,10.7-0.9"/>
					<path id="path11562" class="st8" d="M-4151,748.9c3.6,0,7.2,0.2,10.8,0c3.8-0.2,7.9-0.7,11.2-1.1"/>
				</g>
				<path id="path11564" class="st13" d="M-4259.3,714.1c-0.7-0.2-1.6,0.3-2,0.9c-0.7,1-0.4,2.5-0.4,3.7c0,1.3,0.3,2.5,0.6,3.8
					c0.3,1.3,1,2.6,1.2,4c0.4,2.1,0.5,4.3,0.3,6.4c-0.1,1.1-1.1,2.1-0.9,3.1c0.1,0.7,0.6,1.5,1.2,1.6c0.8,0.2,1.5-0.6,2.2-1.1
					c0.8-0.6,1.2-1.6,1.9-2.3c0.4-0.4,1.1-0.5,1.4-1c0.6-0.9,0.1-2.1,0.6-3c0.4-0.7,0.9-1.8,1.8-1.8c1.1,0,1.5,1.6,2.2,2.4
					c0.5,0.6,1,1.2,1.5,1.9c0.9,1.1,1.9,2.1,2.7,3.2c1.3,1.8,1.1,5.4,3.3,5.7c0.6,0.1,1.1-0.7,1.4-1.2c0.7-1.3,0.3-2.9,0.9-4.3
					c0.4-1,1-1.8,1.6-2.7c0.8-1.1,1.6-2.2,2.5-3.2c0.6-0.6,1.4-0.9,1.9-1.5c0.5-0.7,0.8-1.5,0.9-2.3c0.3-1.5,0.2-3,0.2-4.5
					c0-0.7-0.4-1.6,0.1-2c0.5-0.4,1.3-0.1,1.8,0.2c1.9,1.1,2.2,3.9,3.9,5.2c0.9,0.7,1.9,1.2,3,1.3c0.8,0.1,1.8,0.1,2.3-0.5
					c0.4-0.6,0.1-1.5-0.2-2.2c-0.7-2-2.7-3.2-3.8-5c-1.5-2.5-2.8-5.3-3.8-8.1c-1.1-2.8-1.1-6-2.5-8.7c-0.7-1.4-1.6-2.9-2.8-3.9
					c-0.8-0.7-1.7-1.1-2.7-1.4c-0.7-0.2-1.8-0.6-2.3,0c-0.9,1.3,1.4,2.9,1.8,4.5c0.5,2.2,0.8,4.6,0.4,6.9c-0.2,1.4-0.9,2.7-1.7,3.9
					c-0.9,1.3-2.1,2.5-3.4,3.4c-1,0.7-2.1,1.1-3.3,1.5c-1.8,0.6-3.6,1.4-5.5,1.5c-1.3,0.1-2.6-0.1-3.8-0.6c-1.3-0.5-2.4-1.5-3.4-2.4
					C-4258.4,715.2-4258.6,714.2-4259.3,714.1L-4259.3,714.1z"/>
				<path id="path11566" class="st7" d="M-4260,726.4c-1.5-0.8-3.2,1.3-4.5,2.5c-1.8,1.6-2.7,4-4,6.1c-0.2,0.3-0.3,0.7-0.6,0.9
					c-0.6,0.2-1.3-0.6-1.9-0.4c-1.6,0.5-2.6,2.2-3.5,3.6c-0.8,1.1-1.3,2.4-1.8,3.6c-0.2,0.5-0.2,1.1-0.5,1.6c-0.3,0.5-1.1,0.5-1.4,1
					c-1.1,1.7-0.8,4.1-1,6.1c-0.2,0.6,0.5,0.3,0.9,0.4c6.7,0.1,13.4,0.2,20.1,0.2c-0.4-1.4-0.7-2.7-0.9-4.1
					c-0.3-2.2-0.5-4.4-0.6-6.5c-0.1-1.6,0-3.1,0-4.7c0-0.5-0.1-1-0.1-1.5c0-0.9,0.3-1.8,0.4-2.7c0-1.2-0.1-2.4-0.2-3.6
					C-4259.8,727.9-4259.3,726.7-4260,726.4L-4260,726.4z"/>
				<g id="g11568">
					<path id="path11570" class="st8" d="M-4268.8,735.1c-0.8,2.7-1.9,5.3-2.5,8c-0.3,1.3-0.3,2.6-0.5,4"/>
					<path id="path11572" class="st8" d="M-4260,735.6c-1.1,1.1-2.4,2-3.3,3.3c-1.2,1.8-1.8,4.1-2.6,6.1c-0.6,1.4-1.1,2.8-1.6,4.1"
						/>
					<path id="path11574" class="st8" d="M-4264.3,742.4c0.2,1.2,0.7,2.3,0.7,3.5c0,0.7-0.2,1.5-0.2,2.2"/>
					<path id="path11576" class="st8" d="M-4226.6,710.9c1.3,0.6,3,0.7,3.9,1.8c0.9,1.2-0.2,3.4,0.9,4.4c1.4,1.4,4.5-0.2,5.8,1.2
						c1.2,1.2-0.2,3.7,0.9,5c1.4,1.7,4.4,1,6.3,2.2c1.4,0.9,2.3,2.5,3.5,3.8"/>
					<path id="path11578" class="st8" d="M-4221.6,723.1c2.1,1,4.3,1.7,6.4,2.9c2.5,1.4,4.9,3.1,7.3,4.8c1,0.8,2.1,1.6,3,2.5
						c2.2,2.2,4.7,4.3,6.2,7.1c0.5,0.9,0.6,2,0.9,3"/>
					<path id="path11580" class="st8" d="M-4218.1,728.4c1.6,0.7,3.9,0.7,5,2.1c1.3,1.7-0.9,4.9,0.7,6.4c1,1,3.2-0.8,4.2,0.2
						c1.8,1.6-0.5,5.4,1.2,7.1c1.7,1.6,5.1-0.6,7.1,0.7c1.8,1.2,1.9,3.9,2.8,5.8"/>
					<path id="path11582" class="st8" d="M-4195.7,741.1c0.5,1.7,1.3,3.3,1.6,5.1c0.3,1.5,0.4,3.1,0.3,4.6"/>
					<path id="path11584" class="st8" d="M-4259.3,741.1c0.9,1.2,1.6,2.6,2.7,3.7c1,1,2.2,1.8,3.5,2.4c1.6,0.8,3.3,1.1,5,1.7"/>
					<path id="path11586" class="st8" d="M-4233.3,733.5c1-1.5,2.4-2.8,3-4.5c1-2.6,1.1-5.4,1.4-8.2"/>
					<path id="path11588" class="st8" d="M-4231.2,736.2c1.1-1.9,2.4-3.6,3.2-5.6c0.7-1.8,0.8-3.8,1.2-5.7"/>
					<path id="path11590" class="st8" d="M-4230.1,740.6c1.5-2.4,3.5-4.5,4.4-7.2c0.8-2.2,0.7-4.6,1-7"/>
					<path id="path11592" class="st8" d="M-4231.4,745.9c2-2.2,4.5-3.9,6.1-6.5c1.4-2.3,2.1-4.9,2.6-7.6c0.4-1.8,0.3-3.6,0.5-5.4"/>
					<path id="path11594" class="st8" d="M-4232.6,750.5c2.7-2.2,5.9-3.9,8-6.6c1.4-1.7,2.3-3.9,3-6c1.2-3.5,1.5-7.3,2.3-10.9"/>
					<path id="path11596" class="st8" d="M-4221.3,751.2c1.6-2.6,4-4.9,4.9-7.8c1-2.9,0.4-6.1,0.7-9.2"/>
					<path id="path11598" class="st8" d="M-4216.4,751.4c0.8-1.8,1.8-3.5,2.3-5.4c0.5-1.9,0.6-4,0.9-5.9"/>
					<path id="path11600" class="st8" d="M-4212.5,751.4c0.7-2.3,1.2-4.6,1.7-7c0-0.1,0-0.3,0.1-0.4"/>
					<path id="path11602" class="st8" d="M-4209.6,750.7c0.3-1.1,0.6-2.2,0.9-3.4"/>
				</g>
			</g>
		</g>
	</g>
	<g id="g11604" transform="matrix(-1,0,0,-1,357.79,1564.6)">
		<g id="g11606">
			<path id="path11608" class="st3" d="M4435.9,812.8l-3.9-6.7l-4.6-8.8l-3-6.2l-3-4.8l-12.6-8l-8.8,22.1l-9.5-14.1l-8.3,10.3v3.5
				l0.4,2.5v3l0.5,3l0.2,2.1l0.7,2.1L4435.9,812.8z"/>
			<path id="path11610" class="st4" d="M4412.4,769.3c0.1-1,1-2,1.9-2.5c1.2-0.7,2.7-0.6,4-0.7c1.8-0.1,3.6-0.3,5.3,0.2
				c1.3,0.4,2.4,1.3,3.4,2.3c1.9,2,3,4.7,4.4,7.1c2,3.5,3.5,7.3,5.9,10.6c1.3,1.9,3.4,3.1,4.6,5.1c1.2,1.9,1.4,4.3,2.4,6.2
				c0.8,1.5,1.8,3,2.8,4.4c2.4,3.2,5.3,6,7.9,9c0.4,0.5,1.6,1.3,0.2,1.3c-6.6-0.2-13.1,0.1-19.7,0.2c-1.6-2.9-3.4-5.8-5-8.8
				c-1.2-2.3-2.2-4.6-3.4-6.9c-1.8-3.5-3.8-7-5.8-10.4c-2.1-3.7-4.6-7.1-6.5-10.9C4413.9,773.5,4412.1,771.5,4412.4,769.3
				L4412.4,769.3z"/>
		</g>
		<path id="path11612" class="st5" d="M4453.6,710.6l-7.1,11l-2.8,12.4l-1.4,9.2v11.3l2.1,10.3l8.1,10.6l8.5,12l7.4,6.7l6.7,9.2
			l2.8,5l1.1,4.2l48.1,0.4l20.5-12.4l11.3-12l9.2-12l6.4-11.7l9.9-21.2l-0.7-15.6l-6.7-13.4l-5.3-6.4l-9.5,6.4l-12,7.1l-8.1,2.5
			l-16.3,2.8l-14.8,2.1l-10.3-0.7l-9.5-1.1l-13.1-3.5l-6.4-1.4l-9.5-5.7L4453.6,710.6z"/>
		<g id="g11614">
			<path id="path11616" class="st6" d="M4489,812.1c0.2-4.5,0.3-9-0.1-13.5c-0.2-3.3-1.5-6.4-2.3-9.6c-1.5-4.5-3-9.1-5.2-13.4
				c-2.1-4.9-5.3-9.2-6.7-14.4c-1.3-4-2.8-7.9-3.9-12c-0.4-4.1-0.9-8.3-0.5-12.4c0.2-3.3,0.8-6.6,1.5-9.8c0.6-1.1,0.7-3.1,1.5-3.8
				c6.5,2.1,13.2,3.6,19.9,4.6c3.8,0.7,7.6,1.3,11.5,1.2c5.3,0.2,10.6-0.7,15.9-0.9c7.5-0.8,15-2,22.3-4c0,3.1,0.4,6.2,0.1,9.2
				c-1.4,4.2-2.1,8.7-4.4,12.6c-1.8,3.6-3.3,7.4-5.9,10.6c-4.7,6.5-8.6,13.6-12.2,20.8c-1.4,4-3.2,7.9-3.7,12.2
				c-1,5.4-1.5,10.8-1.8,16.3c-0.2,2.1-0.7,4.3,0.2,6.3c0.1,1.1-2.6,0.1-3.6,0.4C4504,812.4,4496.5,812.3,4489,812.1L4489,812.1z"/>
			<g id="g11618">
				<path id="path11620" class="st7" d="M4582.5,732.9c-0.7,5.9-0.6,12-2.1,17.7c-1.6,5.8-4.3,11.3-7.4,16.5
					c-2.3,3.9-5.4,7.3-8.2,10.9c-3.1,4-5.9,8.2-9.3,11.9c-3.9,4.3-8,8.6-12.7,12.1c-5.3,4-10.8,7.9-17.3,9.9c-3.1,0.9-1,0.9,1,0.8
					c33.4,0.1,66.8,0.2,100.1,0.2c3.9-4.9,6.7-10.7,8.6-16.6c1-3.1,1.4-6.4,1.6-9.7c0.4-6.5-0.3-13.1-0.8-19.7
					c-0.4-4.4-1.1-8.9-1.8-13.3c-0.6-4-1.3-8.1-2.2-12c-0.8-3.3-1.3-6.7-2.9-9.8c-2.1,1.2-3.7,2.9-5.7,4.2c-1.3,0.8-2.7,1.6-4.2,2.2
					c-2.2,0.8-4.6,1.6-6.9,1.5c-1.9-0.1-3.5-1.4-5.4-1.7c-1.5-0.3-3.2,0.1-4.7-0.2c-2-0.4-3.9-1.2-5.8-2.1c-1.9-0.8-3.5-2.2-5.4-2.9
					c-1.5-0.6-3.1-1-4.8-1C4585.1,731.9,4583.8,732.5,4582.5,732.9L4582.5,732.9z"/>
				<g id="g11622">
					<path id="path11624" class="st8" d="M4620,740.4c1.5,4,2,8.3,2.3,12.6c0.1,2.4,0,4.8-0.5,7.1c-0.5,2.6-2,5-2.4,7.6
						c-0.5,3.1,0.2,6.4,0,9.5c-0.2,3.4-0.3,6.8-1.1,10.1c-0.9,3.5-2,7.1-3.9,10.2c-1.7,2.7-3.8,5.2-6.4,7.1c-2.7,2-6.6,2.2-9.1,4.5
						c-1.1,1-1.5,2.5-2.1,3.8"/>
					<path id="path11626" class="st8" d="M4587.5,733.1c-0.6,9-3.3,17.6-6.5,26"/>
					<path id="path11628" class="st8" d="M4591,734.4c-1.3,6-2.4,12.1-4.5,17.9c-1.7,4.8-3.6,9.7-6.4,14c-2.1,3.1-4.9,5.5-7.6,8.1"
						/>
					<path id="path11630" class="st8" d="M4596,735.6c-1.4,6-1.7,12.2-3.9,18c-1.6,4.2-4,8.1-6.5,11.8c-1.7,2.6-3.8,5-5.9,7.2
						c-4.1,4.4-8.6,8.5-13.3,12.4c-2.9,2.4-5.9,4.7-9.1,6.8c-0.2,0.1-0.4,0.2-0.6,0.4"/>
					<path id="path11632" class="st8" d="M4625.3,738.1c1.7,0.7,1.1,1.8,1.2,2.8c0.1,1.1-0.7,2.1-0.6,3.2c0,1.2,0.7,2.3,0.7,3.5
						c0.1,1-0.7,2.1-0.3,3c0.3,0.7,1.8,0.7,1.9,1.5c0.2,1.7-3.5,2.5-2.9,4c0.6,1.6,4.5-0.2,5,1.5c0.7,2.1-4.6,3.1-4,5.3
						c0.4,1.7,4.3,0.3,4.8,2c0.5,2.1-3.6,2.9-4,5c-0.2,1.2,1.4,2.3,1.1,3.5c-0.3,1.3-2.2,1.6-2.8,2.8c-0.7,1.3-0.7,2.8-1,4.3
						c-0.3,1.4-0.4,2.9-0.9,4.3c-0.6,1.5-2.7,2.7-2.3,4.3c0.2,0.8,1.7,0.7,2,1.4c0.5,1.3-0.7,2.8-0.7,4.2c0,0.9-0.5,2.3,0.3,2.7
						c1.2,0.7,3-2.9,3.9-1.7c1.2,1.5-4.2,2.9-3.3,4.5c0.8,1.5,4.6-1.9,5-0.3c0.8,3-8.8,1.2-8.3,4.3c0.3,1.7,4.7-0.9,5,0.8
						c0.9,5.1-9.2,5-13.8,7.5"/>
					<path id="path11634" class="st8" d="M4610.8,740.6c-2.1,1.4-5.5,1.8-6.3,4.3c-0.5,1.5,2.1,2.9,1.8,4.5
						c-0.2,1.2-2.1,1.5-2.5,2.7c-0.4,1.1,0.8,2.6,0,3.5c-1,1.2-3.7-0.5-4.7,0.8c-1.3,1.7,1,4.4,0.3,6.4c-0.7,2.1-2.7,3.4-4.1,5"/>
					<path id="path11636" class="st8" d="M4616.5,740.9c0,2.3-0.5,4.7,0,7c0.3,1.2,1.3,2.2,1.7,3.5c0.4,1.4,0.7,2.9,0.5,4.3
						c-0.2,1.3-1.1,2.4-1.7,3.6c-0.7,1.3-1.7,2.5-2.3,3.9c-0.5,1.1-0.1,2.8-1.2,3.4c-1.2,0.7-2.9-1.1-4.2-0.6c-2.1,0.9-2,4.5-4,5.6
						c-2,1.1-5.3-1.2-6.8,0.5c-1.2,1.4,0.9,3.7,0.3,5.4c-0.7,2-3.5,2.8-4,4.8c-0.6,2,2,4.4,1,6.2c-1,1.8-4.6,0.8-5.8,2.5
						c-1.1,1.7,1.3,4.7-0.3,6c-1.4,1.2-4-1.9-5.5-0.8c-2.1,1.6,1.3,6.6-1,7.8c-1.6,0.8-3-3.3-4.8-2.8c-2,0.7-0.4,5.4-2.5,5.8
						c-1.9,0.3-1.9-4.5-3.8-4.3c-2.1,0.3-1,4.9-3,5.8c-1.3,0.5-2.7-1.7-4.1-1.4c-2.7,0.6-3.9,3.8-5.9,5.6"/>
					<path id="path11638" class="st8" d="M4595,768.1c0.5,2.4,2.8,5.1,1.5,7.3c-0.9,1.5-3.9,0.1-5,1.5c-1.3,1.6,0.8,4.6-0.5,6.3
						c-1.3,1.6-4.3,0.4-5.8,1.8c-1.4,1.3-0.6,4.2-2,5.5c-1.5,1.3-4.9-0.3-5.8,1.5c-0.8,1.5,3.2,3.5,2,4.8c-0.8,0.8-2.3-1.8-3.3-1.3
						c-1.2,0.7,0.6,3.3-0.5,4c-1.3,0.9-3.1-2-4.5-1.3c-1.2,0.6-0.8,2.5-1.3,3.8"/>
					<path id="path11640" class="st8" d="M4589,777.6c-3,1.7-5.9,3.5-8.7,5.5c-3.8,2.7-7.3,5.8-10.9,8.8c-3.8,3.2-7.3,6.7-11.2,9.9
						c-4.1,3.4-8.4,6.3-12.5,9.7c-0.3,0.3-0.7,0.6-1,0.9"/>
					<path id="path11642" class="st8" d="M4535,812.4c4.4-2.9,9.1-5,13.6-7.8c2.5-1.5,5-3,7.4-4.7c3.6-2.7,6.9-5.8,10.3-8.8"/>
					<path id="path11644" class="st8" d="M4619.8,763.6c-1.2,0.9-1.8,2.3-2.7,3.5c-0.8,1-1.4,2.2-2.3,3.1c-0.9,0.9-2.1,1.4-3,2.2
						c-0.9,0.8-1.4,2.1-2.5,2.7c-1,0.6-2.7,0.1-3.5,1c-0.8,0.9,0.3,2.7-0.5,3.6c-0.7,0.9-2.6,0.3-3.3,1.3c-0.6,0.9,0.3,2.3-0.1,3.4
						c-0.5,1.3-2,1.9-2.8,3c-0.9,1.2-1.6,2.5-2.4,3.8c-0.8,1.2-1.9,2.3-2.5,3.7c-0.8,1.8,0.1,4.4-1.3,5.7c-1.1,1.1-3.4-0.2-4.6,0.7
						c-1.8,1.5-0.4,5.3-2.4,6.5c-1.4,0.8-3.3-1-4.8-0.5c-1.2,0.4-1.6,2.2-2.8,2.8c-1.3,0.6-3.1-0.4-4.4,0.2c-0.7,0.3-1,1.2-1.6,1.7"
						/>
					<path id="path11646" class="st8" d="M4613.3,745.9c-0.1,2.7,0.5,5.6-0.2,8.2c-0.7,3-2.4,5.7-4.1,8.2c-1.3,1.9-3,3.4-4.5,5.1"/>
					<path id="path11648" class="st8" d="M4619,771.4c-1.5,0.8-1.9,2.4-2.8,3.7c-0.8,1.2-1.2,2.7-2.3,3.6c-1.1,0.9-2.8,0.8-3.9,1.7
						c-2.6,2.2-3.4,6-5.8,8.5c-1,1.1-2.8,1.5-3.6,2.9c-1,1.6-0.3,3.9-1.1,5.6c-1.4,3.1-3.5,5.9-6.2,8.1c-1.3,1.1-3.3,1.3-4.7,2.4
						c-1.7,1.3-2.7,3.2-4.1,4.9"/>
					<path id="path11650" class="st8" d="M4633,774.6c-0.4,2.5-1.6,4.9-1.4,7.5c0.2,2,1.7,3.8,2,5.8c0.7,5.4-0.6,10.8-0.9,16.2"/>
				</g>
			</g>
			<path id="path11652" class="st9" d="M4529.3,649.4c-1.5,2.9-2.4,6.3-4.4,8.9c-2.4,3.2-5.6,5.7-8.8,7.9c-2.5,1.7-5.1,3.3-8,4
				c-3.1,0.8-6.9,1.4-9.5,0.5c-0.4,5.8,0.8,3.7,0.8,5.5c0,2,0.1,4.1-0.8,5.9c-0.8,1.7-2.4,3-4,4c-3,1.8-6.6,2.1-9.9,3
				c-3.7,1-7.6,1.3-11.1,2.9c-3.2,1.5-6.3,3.5-8.8,6c-3.2,3.2-6,6.8-7.7,11c-0.5,1.4,2,2.3,3.2,3.2c4,3,8.4,5.6,13,7.5
				c3.9,1.7,8.2,2.6,12.3,3.5c5.7,1.3,11.4,2.5,17.2,2.8c8.7,0.4,17.4-0.3,26-1.6c6-0.9,12-2.2,17.7-4.3c3.5-1.3,6.7-3.3,9.9-5.2
				c4.1-2.6,8.3-6,11.7-8.6c-2.3-2.9-1.8-1.8-2.5-2.9c-2.8-4.4-2.2-11-6.2-14.3c-0.9-0.7-2.3-0.4-3.4-0.8c-1.5-0.5-2.9-1.4-4.3-2.2
				c-1.5-0.9-3.5-1.3-4.5-2.7c-1.8-2.6-0.6-6.4-1.6-9.4c-0.5-1.6-1.4-3-2.3-4.4c-0.8-1.2-1.5-2.6-2.6-3.5c-1.7-1.5-4.7-1.5-6.1-3.3
				c-1.3-1.8-0.8-4.3-1.3-6.5c-0.5-2-0.6-7.8-1.6-6C4531.7,650.1,4530.1,649.6,4529.3,649.4L4529.3,649.4z"/>
			<path id="path11654" class="st10" d="M4471.5,596.9c-1.6,1.3-1,4.1-1.2,6.2c-0.2,2.5-0.1,5,0.4,7.5c0.3,1.6,1.7,2.9,1.5,4.5
				c-0.3,2.3-2.5,3.9-3.7,5.8c-1,1.7-2.7,3.2-3.1,5.1c-0.6,3.5,3,6.9,2.3,10.3c-0.3,1.5-2.3,2.3-2.8,3.8c-0.6,1.6-0.8,3.4-0.4,5.1
				c0.4,1.6,2.2,2.7,2.6,4.3c0.4,1.4,0.2,2.8-0.1,4.2c-0.3,1.8-1.5,3.3-1.9,5.1c-0.4,2.2-0.7,4.6-0.2,6.8c0.5,2.1,1.4,4.3,3,5.9
				c0.9,0.9,3,0.6,3.4,1.9c0.4,1.5-2.1,2.5-2.5,4c-0.7,2.6,0.7,5.5,0.2,8.2c-0.4,1.8-2.7,3.2-2.3,4.9c0.3,1.2,1.7,2.2,2.9,2.5
				c4.3,1,8.5-2.2,12.8-3.4c4.5-1.2,9.8-1,13.5-3.8c1.7-1.3,2.6-3.4,3.3-5.3c1.3-3.3-1-8.3,1.8-10.5c1.4-1.1,3.6,0.7,5.4,0.6
				c2.5-0.1,5.2-0.4,7.4-1.6c2.2-1.1,3.8-3.2,5.5-5c2.2-2.5,4.1-5.2,5.9-8c1.5-2.2,1.4-6.7,4.1-6.8c1.8-0.1,2.4,2.6,3.3,4.1
				c0.7,1.3,1.5,2.7,1.5,4.1c-0.1,2.2-2.8,3.9-2.6,6.1c0.1,1.2,0.8,2.3,1.8,3c1.1,0.9,3.2,0.1,4.1,1.2c0.8,1.1-0.7,3,0,4.2
				c0.5,1,2.2,0.9,2.8,1.8c0.9,1.5,0.4,3.5,0.7,5.2c0.3,1.9-0.2,4.3,1.2,5.5c2.2,2,6.1-0.2,8.8,1.1c1.3,0.6,1.6,2.7,3,3.1
				c1.5,0.4,3.1-0.3,4.5-1.1c1.2-0.7,2.3-1.6,2.8-2.9c2.1-5.5,0.2-11.7-0.6-17.5c-0.8-6-2.2-11.9-4-17.6c-1.4-4.3-4.6-8-5.4-12.5
				c-0.4-2.4,0.6-4.9,0.4-7.3c-0.1-1.8-0.7-3.5-1.2-5.2c-0.7-2.3-1.2-4.7-2.4-6.8c-0.8-1.5-2.4-2.5-3.3-3.9c-1.7-2.6-2.2-6-4.1-8.4
				c-1.1-1.4-2.4-2.5-3.9-3.3c-1.2-0.7-2.7-0.6-4-1.2c-2.1-1-3.5-3.3-5.8-4c-1.9-0.6-4,0.6-5.9,0.2c-1.4-0.3-2.3-1.8-3.7-2
				c-1.7-0.2-3.2,1.4-5,1.3c-1.5-0.1-2.8-1.2-4.3-1.7c-2-0.7-4.1-2.1-6.1-1.5c-1.5,0.4-1.9,2.6-3.3,3.1c-2.1,0.6-4.3-0.8-6.4-1
				c-2-0.2-4.1,0-6.1-0.1c-2.7-0.2-5.4-1.6-8.1-1c-1.7,0.4-2.7,2.4-4.4,2.9C4472.8,597.1,4472.1,596.9,4471.5,596.9L4471.5,596.9z"
				/>
			<g id="g11656">
				<path id="path11658" class="st11" d="M4559,607.4c1-1.8,2-3.5,3.6-4.8c1.5-1.3,2.8-2.9,4.4-3.9c2.4-1.2,2.3-2.3,4.8-3.3
					c1.8-0.1,1.9-2.4,0.5-2.4c-3.4-1.1-8.4-1-11.9-1.6c0.4-2,4.9-5.4,8.1-7.3c-0.9-0.9-2.1-0.8-3.3-0.6c-3.4,0.2-6.8,0.4-10.2,0.4
					c0.4-1.8,3.1-3.5,4-5c1-1.1,2.6-2.4,3.3-3.7c-2-0.2-4.6-0.3-6.5,0.3c-1.7,0.1-4.8,0.8-6.5,1.3c0.5-1.3,1.5-2.2,2.3-3.3
					c-8.8,0-17.7,0-26.5,0c3,1.4,6.2,2.4,9,4c2.4,1.7,5.1,3.1,7.4,4.9c2.9,2.9,6,5.7,8.3,9c2.1,2.5,3.9,5.3,5.5,8.1
					C4557,601.8,4557.8,604.7,4559,607.4L4559,607.4z"/>
				<path id="path11660" class="st11" d="M4577.8,593.7c0,1.3-1.2,2.4-2.6,2.4s-2.6-1.1-2.6-2.4c0-1.3,1.2-2.4,2.6-2.4
					S4577.8,592.4,4577.8,593.7z"/>
				<path id="path11662" class="st11" d="M4572.1,583.1c0,1.3-1.2,2.4-2.6,2.4s-2.6-1.1-2.6-2.4c0-1.3,1.2-2.4,2.6-2.4
					S4572.1,581.8,4572.1,583.1z"/>
				<path id="path11664" class="st11" d="M4565.4,575.1c0,1.3-1.2,2.4-2.6,2.4s-2.6-1.1-2.6-2.4c0-1.3,1.2-2.4,2.6-2.4
					S4565.4,573.8,4565.4,575.1z"/>
			</g>
			<path id="path11666" class="st12" d="M4560.5,604.4c-0.8-2-1.4-4-2.3-5.9c-1.3-2.6-3-5-4.8-7.2c-2.8-3.6-5.9-7.1-9.3-10.2
				c-1.1-1.1-2.4-2-3.7-2.9c-2-1.4-4-2.7-6.1-3.9c-0.7-0.4-1.5-0.8-2.3-1.1"/>
			<g id="g11668">
				<path id="path11670" class="st9" d="M4484.2,593.4c-1.2,0.5-2.7,0.9-3.5,2c-1.1,1.4-0.9,3.5-1.3,5.3c-0.6,2.7-1.1,5.5-1.7,8.2
					c-0.2,0.8-0.5,1.5-0.5,2.3c-0.1,1.8,0.4,3.7,0.5,5.5c0.1,1.2,0,2.5,0,3.8c0,1.2,0.2,2.3,0.3,3.5c0.1,1.9,0.2,3.8,0.3,5.8
					c0.1,2.8-0.2,5.7,0,8.5c0.1,2.2,0.3,4.4,0.8,6.5c0.6,2.5,1.4,4.9,2.5,7.3c1.4,3,3.1,5.8,5,8.5c1.3,1.8,2.9,3.4,4.5,5
					c1.5,1.4,2.9,3.1,4.8,4c2.1,1.1,4.6,1.5,7,1.8c2.3,0.2,4.8,0.2,7-0.5c0.8-0.2,1.5-0.8,2.3-1.3c1.6-0.9,3.5-1.4,5-2.5
					c1.3-0.9,2.3-2.1,3.4-3.1c1.3-1.3,2.7-2.6,3.8-4c1.7-2.3,2.9-4.9,4.1-7.6c0.6-1.3,1.2-2.6,1.5-4c0.3-1.4,0.7-2.8,0.5-4.3
					c-0.1-1.2-1.2-2.3-1.3-3.5c0-1.8,1-3.6,1.8-5.3c0.6-1.5,2-2.7,2.3-4.3c0.2-1.3-0.3-2.7-0.8-4c-0.5-1.5-1.3-2.8-2-4.3
					c-0.4-0.9-0.7-1.9-1.3-2.8c-0.4-0.7-1.2-1.2-1.5-2c-0.5-1.3-0.1-2.9-0.5-4.3c-0.4-1.3-1.4-2.4-1.8-3.8c-0.7-2.8,0.7-6-0.3-8.7
					c-0.7-1.8-2.3-3.2-3.8-4.5c-1.3-1.2-2.6-2.4-4.3-3c-1.4-0.5-3-0.3-4.5-0.5c-1.3-0.2-2.5-0.6-3.8-0.8c-2.3-0.2-4.7,0-7,0
					c-2.3,0-4.5-0.2-6.8-0.3c-1.1,0-2.2,0-3.3,0c-1.3,0-2.5,0-3.8,0.3C4486.7,592.6,4485.4,592.9,4484.2,593.4L4484.2,593.4z"/>
				<g id="g11672">
					<path id="path11674" class="st8" d="M4478,611.9c2.1-0.1,4.3-0.9,6.3-0.5c1.2,0.3,2.4,0.8,3.2,1.7c1.2,1.4,1.8,3.3,2,5.1
						c0.5,3.8-0.6,7.6-1.4,11.4c-0.3,2.6-1.6,5-2,7.5c-0.2,1.2,0.2,3.1,1.5,3.3c1.5,0.6,2.6,2.2,4.4,2.2c0.9-0.2,2.9,0.3,2.6-1.3
						c-1-0.5-1-1.7,0.3-1.7c1-0.2,1.7,0.6,2,1.3c1.3,0.5,2.6-0.1,3.4-1.1c0.3-0.8,1.2-1.7,0.4-2.5c-0.2-0.3-0.4-0.7-0.6-1"/>
					<g id="g11676" transform="translate(0,512.36)">
						<path id="path11678" class="st8" d="M4501.8,102.3c0,0,1.3-2.1,2.3-2.8c1-0.7,2.3-1,3.5-1.3c1.4-0.3,2.8-0.3,4.3-0.3
							c1.1,0,2.2,0.1,3.3,0.3c0.9,0.2,1.7,0.4,2.5,0.8c0.8,0.3,1.5,0.7,2.3,1c0.8,0.4,1.7,0.9,2.5,1.3c0.6,0.3,1.8,0.8,1.8,0.8"/>
						<path id="path11680" class="st8" d="M4501.3,108.3c0,0,2.2-2.8,3.8-3.5c1-0.5,2.2-0.4,3.3-0.5c1-0.1,2,0,3,0
							c1.2,0,2.4-0.2,3.5,0c1.1,0.2,2.1,0.7,3,1.3c0.9,0.6,1.7,1.4,2.5,2.3c0.4,0.4,1,1.3,1,1.3"/>
					</g>
				</g>
				<g id="g11682" transform="translate(0,512.36)">
					<path id="path11684" class="st13" d="M4503,108.8c0,0,1.2-0.6,1.9-0.8c1-0.2,2-0.2,3-0.3c1.3-0.1,2.7-0.2,4,0
						c1.1,0.1,2.2,0.5,3.3,0.8c0.8,0.2,1.7,0.4,2.5,0.8c0.5,0.2,1,0.6,1.5,0.8c0.6,0.2,1.9,0.3,1.9,0.3s-2,0.4-2.9,0.9
						c-0.9,0.4-1.7,1.2-2.6,1.7c-0.7,0.4-1.4,0.7-2.1,0.9c-0.9,0.3-1.8,0.6-2.8,0.8c-0.9,0.1-1.9,0.2-2.8,0c-1-0.2-1.9-0.7-2.8-1.3
						c-0.6-0.3-1.1-0.7-1.5-1.3c-0.3-0.4-0.6-1-0.8-1.5C4502.8,109.9,4503,108.8,4503,108.8L4503,108.8z"/>
					<path id="path11686" class="st14" d="M4513.2,111.4c0,1.6-1.4,2.8-3.1,2.8s-3.1-1.3-3.1-2.8s1.4-2.8,3.1-2.8
						S4513.2,109.8,4513.2,111.4z"/>
				</g>
				<path id="path11688" class="st15" d="M4510.7,623.2c0,0.5-0.5,1-1,1c-0.6,0-1-0.4-1-1c0,0,0,0,0,0c0-0.5,0.5-1,1-1
					C4510.2,622.2,4510.7,622.6,4510.7,623.2C4510.7,623.1,4510.7,623.2,4510.7,623.2z"/>
				<path id="path11690" class="st8" d="M4478.5,618.7c0,0,1.3-1.2,2.2-1.6c1.2-0.5,2.5-0.6,3.7-0.6c0.7,0,1.3,0.2,2,0.4
					c0.6,0.2,1.2,0.6,1.8,1c0.4,0.3,1,1,1,1"/>
				<path id="path11692" class="st13" d="M4478.5,622.7c0.5-0.5,1-1,1.6-1.6c1.1-0.1,2.1-0.2,3.2-0.4c0.5-0.1,1-0.2,1.6-0.2
					c0.7,0.3,1.4,0.5,2.2,0.8c0.6,0.4,1.2,0.8,1.7,1.2c-0.2,0.5-0.4,1.1-0.6,1.6c-0.6,0.5-1.2,1.1-1.8,1.6c-0.8,0.4-1.6,0.8-2.3,1.2
					c-0.9-0.1-1.7-0.1-2.6-0.2c-0.6-0.4-1.2-0.8-1.8-1.2c-0.3-0.4-0.6-0.8-1-1.2c-0.2-0.1-0.4-0.1-0.6-0.2
					C4478.3,623.6,4478.4,623.1,4478.5,622.7L4478.5,622.7z"/>
				<path id="path11694" class="st16" d="M4485.6,623.7c0,1.4-1.1,2.5-2.5,2.5s-2.5-1.1-2.5-2.5s1.1-2.5,2.5-2.5
					S4485.6,622.3,4485.6,623.7z"/>
				<path id="path11696" class="st17" d="M4483.7,623.3c0,0.5-0.4,1-0.9,1c-0.5,0-0.9-0.4-0.9-1c0,0,0,0,0,0c0-0.5,0.4-1,0.9-1
					C4483.3,622.4,4483.7,622.8,4483.7,623.3C4483.7,623.3,4483.7,623.3,4483.7,623.3z"/>
				<path id="path11698" class="st18" d="M4488.2,649.8c-0.2-0.8,0.2-2.1,1.1-2.2c1-0.1,1-1.2,2-1.2c0.9-0.3,2-0.3,2.7,0.4
					c1,0.3,2.1,0.1,3-0.5c0.5-0.5,2.4,0.3,2.7,0.8c0.7,0.5,2,1.1,2.9,1.3c1,0.1,1.9,1.3,1.4,2.3c-0.5,0.6-0.6,0.5-1.2,0.9
					c-0.9,0.4-2.7,0.4-3.1,1.3c-0.5,1.1-0.9,0.6-1.9,1.3c-0.9,0.6-1.9,0.1-2.8,0.2c-0.9,0-1.6,0.1-2.3-0.2c-0.9-0.3-1.5-0.7-2.3-1.7
					c-0.4-0.6-0.7-1.3-1.2-1.8C4488.8,650.5,4488.3,650.3,4488.2,649.8L4488.2,649.8z"/>
				<path id="path11700" class="st8" d="M4488.8,649.2c0.8-0.1,1.6-0.4,2.4-0.2c0.9,0.2,1.5,1,2.2,1.4c0.3,0.2,0.6,0.5,1,0.5
					c0.3,0,0.7-0.1,1-0.2c0.4-0.2,0.7-0.7,1.2-0.8c0.4-0.1,0.9-0.1,1.3-0.1c0.5,0,1,0.3,1.4,0.3c0.6,0,1.1-0.4,1.7-0.4
					c0.5,0,0.9,0.3,1.4,0.4c0.4,0,0.9-0.1,1.3-0.2"/>
				<path id="path11702" class="st7" d="M4491.5,573.4c-2.3,0.1-4.7,2.9-6.8,4.8c-1.5,1.4-3.1,2.9-4,4.8c-0.5,1-0.3,2.3-0.8,3.3
					c-0.8,1.5-2,2.8-3.3,4c-1,1-2.3,1.7-3.3,2.8c-0.9,1-2.3,2.2-2,3.5c0.2,0.9,1.3,1.5,2.3,1.8c1,0.2,2.1-0.1,3-0.5
					c0.7-0.3,1.2-0.8,1.8-1.3c0.6-0.5,0.9-1.2,1.5-1.8c0.2-0.2,0.5-0.4,0.8-0.5c0.3-0.1,0.7-0.1,1,0c0.8,0.3,1.2,1.4,2,1.8
					c0.8,0.4,1.8,0.7,2.8,0.5c1.4-0.3,2.5-1.4,3.5-2.4c0.4-0.4,0.5-1.2,1-1.3c1.4-0.1,1.9,2.3,3.3,2.8c0.9,0.3,2,0.3,3,0
					c0.8-0.2,1.5-0.8,2.3-1.3c0.5-0.4,1-0.9,1.5-1.3c0.2-0.2,0.5-0.4,0.8-0.5c0.8-0.2,1.8-0.5,2.5,0c0.4,0.3,0.2,1.1,0.5,1.5
					c0.5,0.7,1.4,1.2,2.3,1.5c1.2,0.4,2.5,0.4,3.8,0.3c1.1-0.1,2.3-0.4,3.3-1c0.7-0.5,0.9-2,1.8-2c1,0,1.1,1.6,1.8,2.4
					c0.8,0.9,1.4,2,2.5,2.5c0.7,0.3,1.5,0.2,2.3,0.3c0.9,0.1,1.9,0.3,2.8,0c0.7-0.3,1-1.6,1.8-1.5c1.5,0.1,1.6,2.6,2.8,3.5
					c0.6,0.5,1.3,0.8,2,1c0.7,0.2,1.5,0.3,2.3,0.3c0.4,0,0.8-0.3,1.3-0.3c0.4,0,1,0.1,1.3,0.5c0.3,0.5-0.1,1.2,0,1.8
					c0.2,0.6,0.5,1.3,1,1.8c0.7,0.6,1.6,1,2.5,1.3c0.6,0.2,1.2,0.2,1.8,0.3c0.2,0,0.6-0.2,0.8,0c0.5,0.6-0.2,1.5-0.3,2.3
					c0,0.9,0.1,1.8,0.3,2.8c0.1,1-0.1,2.3,0.5,3.1c0.4,0.6,1.1,0.8,1.8,1c0.6,0.2,1.4-0.2,1.8,0.3c1,1.2-0.2,3.2,0,4.8
					c0.1,0.9,0.3,1.8,0.8,2.5c0.4,0.5,0.9,1,1.5,1.3c0.5,0.2,1-0.2,1.5,0c0.4,0.2,0.9,0.5,1,1c0.2,0.8-0.7,1.5-0.8,2.3
					c0,0.5,0.2,1,0.3,1.5c0.1,1.2,0.2,2.5,0.3,3.8c0,1-0.1,2,0,3c0.2,1.9,0.9,3.7,1.3,5.5c0.3,1.3,0.2,2.7,0.8,4
					c0.7,1.6,2.3,2.8,3,4.4c0.9,2,1.1,4.2,1.8,6.3c1,3.3,2.5,6.4,3,9.8c0.3,2.3,0,4.7,0,7c0,3.1,0.6,6.2,0.3,9.3
					c-0.2,2.1-1.5,4-1.4,6c0.2,2.3,1.8,4.3,2.6,6.5c0.7,1.8,1.2,3.7,2,5.5c1.2,2.5,2.8,4.8,4.3,7.1c1,1.6,2.1,3.2,3.1,4.8
					c0.9,1.3,1.9,2.6,2.8,3.9c1.4,1.9,2.9,3.8,4,5.9c1.3,2.3,2.3,4.7,3.2,7.2c0.5,1.4,0.1,3.4,1.3,4.2c1.7,1.2,4.3,0.3,6.3-0.5
					c0.4-0.1,0.6-0.9,1-0.8c0.8,0.3,0,1.8,0.5,2.5c0.4,0.5,1.1,0.8,1.8,1c0.5,0.1,1,0,1.5,0c0.7,0,1.5-0.4,2,0
					c0.6,0.6-0.2,1.8,0.3,2.5c0.5,0.8,1.3,1.5,2.3,1.5c0.5,0,0.8-0.7,1.3-1c0.5-0.3,1-0.9,1.5-0.8c0.8,0.2,0.6,1.6,1.3,2
					c0.9,0.6,2.2,0.8,3.3,0.5c0.7-0.2,1.3-0.7,1.8-1.3c0.3-0.4,0.3-1.2,0.8-1.3c1.8-0.2,2,3.3,3.8,4c0.9,0.4,2.1,0.1,3-0.3
					c1-0.3,1.8-1,2.5-1.8c0.2-0.2,0.2-0.7,0.5-0.8c0.5-0.1,0.8,0.6,1.3,0.8c0.6,0.3,1.3,0.6,2,0.5c0.8-0.1,1.7-0.4,2.3-1
					c0.9-0.8,1.4-2.1,1.5-3.3c0-0.4-0.5-1-0.3-1.3c0.3-0.3,0.8,0.3,1.3,0.3c0.8-0.1,1.7-0.6,2.3-1.3c0.5-0.5,0.8-1.3,1-2
					c0.2-0.7-0.5-1.7,0-2.3c0.6-0.6,2.1,0.5,2.5-0.3c1.8-3.3-3.1-6.8-5-10c-1.9-3.1-4-6.1-6.3-9c-2-2.5-4.2-4.8-6.3-7.3
					c-2-2.4-3.9-5-5.8-7.5c-2.4-3.2-4.7-6.6-7.3-9.8c-2.6-3.2-5.3-6.4-8-9.5c-1.9-2.2-3.8-4.4-5.8-6.5c-1.7-1.8-3.7-3.3-5.3-5.3
					c-1.8-2.3-3.1-4.9-4.5-7.5c-1.4-2.6-2.5-5.3-3.8-8c-1-2.1-2.3-4-3-6.3c-0.6-1.9-0.5-3.9-1-5.8c-0.4-1.6-1.1-3-1.8-4.5
					c-0.9-2.2-2.2-4.2-3-6.5c-0.7-1.9-1-4-1.5-6c-0.3-1-0.5-2-0.8-3c-0.6-1.9-1.2-3.9-2-5.8c-0.5-1.2-1.2-2.3-1.8-3.5
					c-1.7-3.6-2.9-7.4-5-10.8c-2.1-3.4-4.8-6.3-7.5-9.3c-2.1-2.3-4.3-4.6-6.8-6.5c-1.7-1.3-3.6-2.3-5.5-3.3c-1.6-0.8-3.4-1.2-5-2
					c-1.6-0.8-2.9-2.8-4.5-2.8C4512.2,573.2,4503.7,573,4491.5,573.4L4491.5,573.4z"/>
			</g>
			<path id="path11704" class="st12" d="M4478.3,587.9c6.5-2.9,13.6-3.7,20.6-4.3c4.3-0.4,8.8-0.3,13.1,0.5c4.8,1,9.2,3.2,13.7,5.1
				c5.3,2.4,11.3,4,15.4,8.1c2.6,2.6,3.5,6.4,5.1,9.7c1.3,2.8,2.5,5.6,3.8,8.4c1,2.2,2,4.4,3,6.6c1.2,3,2.9,5.8,3.5,8.9
				c0.6,3-0.6,6.1,0,9.1c0.5,2.6,2.2,4.9,3.1,7.4c0.8,2.2,1.6,4.4,2.2,6.6c0.9,3,1.4,6,2.2,9c2,6.8,5.2,13.2,6.7,20.1
				c0.7,3.2,0.2,6.5,0.9,9.7c0.7,3.4,1.4,7,3.2,10c1.5,2.5,4.1,4.2,6.1,6.4c1.6,1.8,2.7,4.3,4.6,5.7c1.5,1.1,3.6,1.2,5.3,2.1
				c2,1.1,3.8,2.7,5.7,4c2.4,1.7,4.3,4.2,7.1,5c2,0.6,4.2-0.7,6.3-0.3c2.9,0.6,5.2,3.2,8.2,3.7c2.5,0.4,5-0.8,7.5-0.8
				c1.2,0,2.2,0.7,3.5,0.4"/>
			<g id="g11706">
				<g id="g11708">
					<path id="path11710" class="st19" d="M4496.4,689.5c0,1.4-1.2,2.5-2.6,2.5s-2.6-1.1-2.6-2.5s1.2-2.5,2.6-2.5
						S4496.4,688.1,4496.4,689.5z"/>
					<path id="path11712" class="st20" d="M4501.5,693.2c0,1.6-1.3,2.9-3,2.9c-1.7,0-3-1.3-3-2.9s1.3-2.9,3-2.9
						C4500.2,690.3,4501.5,691.6,4501.5,693.2z"/>
					<path id="path11714" class="st21" d="M4507.8,695.5c0,1.6-1.4,2.8-3.1,2.8s-3.1-1.3-3.1-2.8s1.4-2.8,3.1-2.8
						S4507.8,694,4507.8,695.5z"/>
					<path id="path11716" class="st22" d="M4514.9,696.5c0,1.8-1.4,3.2-3.2,3.2c-1.8,0-3.2-1.4-3.2-3.2c0-1.8,1.4-3.2,3.2-3.2
						C4513.4,693.3,4514.9,694.8,4514.9,696.5z"/>
					<path id="path11718" class="st23" d="M4521,695.4c0,1.6-1.3,2.9-3,2.9c-1.6,0-3-1.3-3-2.9s1.3-2.9,3-2.9
						C4519.7,692.5,4521,693.8,4521,695.4z"/>
					<path id="path11720" class="st24" d="M4526.9,693.1c0,1.5-1.2,2.8-2.7,2.8c-1.5,0-2.7-1.2-2.7-2.8c0-1.5,1.2-2.8,2.7-2.8
						C4525.6,690.3,4526.9,691.5,4526.9,693.1z"/>
					<path id="path11722" class="st25" d="M4532,689.8c0,1.6-1.3,2.8-3,2.8c-1.7,0-3-1.3-3-2.8s1.3-2.8,3-2.8
						C4530.6,687,4532,688.2,4532,689.8z"/>
					<path id="path11724" class="st26" d="M4536.8,686.2c0,1.5-1.3,2.8-2.9,2.8c-1.6,0-2.9-1.2-2.9-2.8c0-1.5,1.3-2.8,2.9-2.8
						C4535.5,683.4,4536.8,684.7,4536.8,686.2z"/>
					<path id="path11726" class="st27" d="M4540.7,682c0,1.6-1.3,2.8-2.9,2.8c-1.6,0-2.9-1.3-2.9-2.8s1.3-2.8,2.9-2.8
						C4539.4,679.2,4540.7,680.5,4540.7,682z"/>
				</g>
				<g id="g11728">
					<path id="path11730" class="st8" d="M4480.9,586.7c0.2,0.6,0.3,1.4,0.7,1.9c0.4,0.5,1,0.9,1.6,1.1c0.7,0.2,1.4,0.2,2.1,0.2
						c0.8-0.1,1.8-0.1,2.4-0.7c0.7-0.7,0.7-1.9,1.1-2.8"/>
					<path id="path11732" class="st8" d="M4488.9,584.8c0.2,0.6,0.3,1.4,0.7,1.9c0.4,0.5,1,0.9,1.6,1.1c0.7,0.2,1.4,0.2,2.1,0.2
						c0.8-0.1,1.8-0.1,2.4-0.7c0.7-0.7,0.7-1.9,1.1-2.8"/>
					<path id="path11734" class="st8" d="M4497.3,584.7c0.2,0.6,0.3,1.4,0.7,1.9c0.4,0.5,1,0.9,1.6,1.1c0.7,0.2,1.4,0.2,2.1,0.2
						c0.8-0.1,1.8-0.1,2.4-0.7c0.7-0.7,0.7-1.9,1.1-2.8"/>
					<path id="path11736" class="st8" d="M4505.6,585.1c0.2,0.6,0.3,1.4,0.7,1.9c0.4,0.5,1,0.9,1.6,1.1c0.7,0.2,1.4,0.2,2.1,0.2
						c0.8-0.1,1.8-0.1,2.4-0.7c0.7-0.7,0.7-1.9,1.1-2.8"/>
					<path id="path11738" class="st8" d="M4513.6,585.3c0,0.7-0.3,1.4-0.1,2.1c0.2,0.6,0.6,1.2,1.1,1.6c0.5,0.5,1.2,0.8,1.9,1
						c0.8,0.3,1.7,0.6,2.5,0.4c1-0.3,1.4-1.5,2.1-2.2"/>
					<path id="path11740" class="st8" d="M4521.4,588.7c0,0.7-0.3,1.4-0.1,2.1c0.2,0.6,0.6,1.2,1.1,1.6c0.5,0.5,1.2,0.8,1.9,1
						c0.8,0.2,1.7,0.6,2.5,0.3c0.9-0.3,1.4-1.5,2.1-2.2"/>
					<path id="path11742" class="st8" d="M4529.1,591.4c0,0.7-0.3,1.4-0.1,2.1c0.2,0.6,0.6,1.2,1.1,1.6c0.5,0.5,1.2,0.8,1.9,1
						c0.8,0.2,1.7,0.6,2.5,0.3c0.9-0.3,1.4-1.5,2.1-2.2"/>
					<path id="path11744" class="st8" d="M4536.6,594.8c-0.3,0.6-0.8,1.2-0.8,1.9c-0.1,0.6,0.1,1.3,0.5,1.9c0.3,0.6,0.9,1.1,1.4,1.6
						c0.7,0.5,1.4,1.2,2.3,1.2c1,0,1.8-0.9,2.7-1.3"/>
				</g>
			</g>
			<g id="g11746" transform="translate(4.303,-2.207)">
				<path id="path11748" class="st28" d="M4399.4,725.2l6.9-7.5l4.4-4.8l3.1-4.9l3.3-5.3l3.8-5.3l2.8-4l4.8-4.8l2.3-3l2-1.8l1.5-1
					l-5.3-2.8l-2,4.8l-1,3.5l-1,2l-4,5.5l-4.6,6.5l-3.5,5.5l-3.4,5l-5,5l-5.3,4.8L4399.4,725.2z"/>
				<g id="g11750">
					<g id="g11752">
						<path id="path11754" class="st29" d="M4419.3,700.1c1.5-1.3,2.8-3,4.3-4.2c1-0.8,2-1.6,3.2-2.1c1.3-0.5,2.7-0.9,4-0.8
							c1.3,0.1,2.5,1.2,3.8,1.5c1.5,0.4,3.3-0.3,4.7,0.5c1,0.5,1.8,1.5,2.4,2.5c0.9,1.8,1.1,3.9,1.1,5.9c0,1.3-0.1,2.7-0.6,3.8
							c-0.6,1.2-1.7,2-2.7,2.9c-0.4-1.4-0.6-2.8-1.4-3.9c-0.7-1-1.8-1.6-2.9-2.1c-1.2-0.6-2.5-0.9-3.8-1c-0.9-0.1-1.9,0.1-2.8,0.2
							c-1,0.1-2,0.8-3.1,0.6c-1.4-0.3-2.3-1.8-3.5-2.5C4421.1,700.8,4420.1,700.5,4419.3,700.1L4419.3,700.1z"/>
						<path id="path11756" class="st29" d="M4415.6,704.9c0.7-1.6,1.3-3.3,1.8-5c0.8-2.5,1.7-5,2.1-7.6c0.1-0.9,0.3-1.9,0.1-2.9
							c-0.3-2.2-1-4.6-2.4-6.4c-1-1.2-2.4-2.2-3.9-2.6c-2.6-0.8-5.4,0.2-8.1,0c-1.4-0.1-2.8-0.8-4.2-0.5c-1,0.2-1.9,0.7-2.7,1.4
							c-0.6,0.5-1,1.3-1.3,2c1.4,0.1,2.9-0.3,4.2,0.2c1.2,0.4,2.3,1.3,3.1,2.3c1.4,1.7,1.2,4.4,2.6,6.1c0.7,0.8,1.9,1.1,2.7,1.8
							c1.6,1.5,2.9,3.4,3.9,5.4c0.8,1.4,1.3,2.8,1.7,4.3C4415.4,703.9,4415.5,704.4,4415.6,704.9L4415.6,704.9z"/>
						<path id="path11758" class="st29" d="M4405.6,717.4c1.3-0.6,2.9-0.9,4.1-1.7c1.5-1.1,2.5-2.7,3.7-4.1c1.1-1.1,2-2.5,3.3-3.3
							c1.1-0.7,2.5-1,3.8-1.2c2.5-0.4,5.2-1.1,7.6-0.3c1.5,0.5,2.7,1.7,3.8,2.9c0.7,0.8,1.2,1.7,1.6,2.7c0.4,0.9,0.5,2,0.6,3
							c0.1,0.8,0.1,1.6,0.3,2.3c-1.1-0.4-2-1.1-3.1-1.2c-1.1-0.1-2.2,0.3-3.2,0.6c-0.9,0.3-1.6,0.9-2.5,1.1c-2,0.5-4.1-0.3-6.1,0.3
							c-1.1,0.3-2,1.4-3.1,1.6c-2,0.5-4.1,0.4-6.1,0.1c-1.4-0.2-2.6-0.8-3.9-1.3C4406,718.4,4405.8,717.9,4405.6,717.4L4405.6,717.4
							z"/>
						<path id="path11760" class="st29" d="M4402.8,718.5c0.5-1.5,1.6-2.7,2.5-4c1.2-1.6,2.7-2.8,3.8-4.4c0.8-1.1,1.7-2.3,1.9-3.7
							c0.2-1.2-0.2-2.5-0.7-3.7c-0.5-1.2-1.2-2.4-2.1-3.4c-1.1-1.1-2.6-1.8-4-2.6c-0.9-0.6-2-0.9-2.9-1.5c-1.7-1.2-3.3-2.4-4.6-4
							c-0.5-0.7-1.4-1.2-1,0.1c0,1.2,0.4,2.4,0.6,3.6c0.4,2.2,1,4.4,1.5,6.6c0.4,1.9,0.7,3.8,1,5.7c0.1,0.9,0,1.8,0.3,2.6
							c0.4,1.2,1.6,2,2.1,3.1c0.7,1.5,1.1,3.2,1.4,4.8C4402.7,717.8,4402.4,718.5,4402.8,718.5L4402.8,718.5z"/>
					</g>
					<path id="path11762" class="st18" d="M4428.1,672.2c-1.8-0.8-4.2,0.2-5.7,1.6c-0.5,0.5-0.6,1.3-0.7,1.9c0,0.8,0,1.7,0.5,2.3
						c0.6,0.9,1.8,1.2,2.8,1.6c1.3,0.6,2.8,0.7,4.2,1.2c2.1,0.8,4,2,6,2.9c1.1,0.5,2,1.5,3.2,1.3c0.7-0.1,1.2-0.7,1.5-1.3
						c0.3-0.5,0.5-1.2,0.5-1.8c0-0.7-0.4-1.3-0.7-1.9c-0.4-0.7-2.2-1.2-1.7-1.9c0.3-0.4,0.9,0.3,1.2,0.6c0.7,0.8,0.7,2.1,1.3,2.9
						c0.4,0.6,1,1.2,1.7,1.4c1.1,0.4,2.4,0.1,3.6-0.1c0.7-0.1,1.5-0.2,1.9-0.6c0.9-0.9,0.9-2.3,1.2-3.5c0.4-1.4,0.8-2.7,0.8-4.1
						c0-0.6-0.1-1.2-0.3-1.8c-0.2-0.6-0.4-1.3-0.8-1.7c-0.3-0.3-0.7-0.3-1-0.5c-0.4-0.3-1.4-0.5-1.1-0.9c0.9-1.4,3,1.7,4.6,1.9
						c0.6,0.1,1.5,0.1,1.8-0.4c0.6-1-0.4-2.2-0.8-3.3c-0.6-1.6-1.6-3.1-2.2-4.7c-0.3-0.9-0.2-1.9-0.6-2.8c-0.5-1.2-1.1-2.4-2.1-3.1
						c-0.4-0.3-0.9-0.4-1.4-0.4c-0.6,0.1-1.3,0.4-1.7,0.8c-0.5,0.5-0.8,1.2-1,1.9c-0.3,1,0,2.2-0.2,3.2c-0.1,0.4,0.1,1.4-0.4,1.3
						c-1.1-0.2,0.4-2.3,0.3-3.4c0-0.9-0.1-1.9-0.4-2.7c-0.3-1-0.6-2.1-1.3-2.8c-0.6-0.7-1.4-1.2-2.2-1.4c-1.4-0.4-2.9-0.4-4.3-0.1
						c-0.9,0.2-1.8,0.6-2.5,1.2c-0.4,0.4-0.6,0.9-0.7,1.5c-0.1,0.6-0.1,1.3,0,1.9c0.2,0.9,0.6,1.9,1.1,2.7c0.5,0.8,2.4,1.5,1.7,2.2
						c-0.2,0.2-0.4-0.3-0.6-0.5c-0.6-0.7-0.8-1.7-1.3-2.4c-0.7-1-1.6-1.9-2.6-2.7c-0.5-0.4-1.1-0.8-1.8-1c-0.5-0.1-1.1-0.3-1.5,0
						c-1,0.6-1.2,2-1.7,3c-0.8,1.7-1.3,3.5-2.1,5.1c-0.5,1-1.2,1.8-1.5,2.9c-0.1,0.5-0.3,1.1-0.1,1.6c0.5,1.1,1.6,1.9,2.7,2.4
						C4425.2,672.3,4427.3,673.3,4428.1,672.2L4428.1,672.2z"/>
					<path id="path11764" class="st30" d="M4440.5,670.5c0,2.2-1.8,4-4.1,4c-2.2,0-4.1-1.8-4.1-4c0,0,0,0,0,0c0-2.2,1.8-4,4.1-4
						C4438.7,666.5,4440.5,668.3,4440.5,670.5C4440.5,670.5,4440.5,670.5,4440.5,670.5z"/>
				</g>
			</g>
			<g id="g11766">
				<path id="path11768" class="st9" d="M4382.7,775.5c-1.2-7.6-2.8-15.1-3.5-22.8c-0.7-2.1-2.1-4-3-6.1c-1.5-2.2-1.3-5-2.2-7.5
					c-0.2-1.4-1.2-2.6-2.3-3.6c-1.1-0.8-2.6-1.2-3-2.7c-1.4-2.3-2.3-4.8-3.7-7.1c-0.2-1.4-0.8-2.8-0.1-4.2c0.8-3.1,2-6,3-9.1
					c0-1.8-0.1-3.6,0.4-5.3c1.2-0.2,2.2,0.2,3,1.1c1.4,0.8,1.6,2.4,2.3,3.7c0.1,2.6,0.4,5.2-0.2,7.8c1.6-0.9,3.3-1.5,5.1-1.7
					c1.8-0.3,3.6,0,5.3,0.4c0.2-1-0.4-2.4,0.3-3.2c1.4-1.2,3.2-1.6,5-1.3c1.7,0.1,3.4,0.1,4.9,0.9c0.1-1.1-0.1-2.4,1.3-2.7
					c0.9-0.7,2.2-0.9,3.3-0.9c1.1,0.3,2,0.8,2.5,1.9c1.1,0.9,1.8,2,2.3,3.4c0.9,2,1.2,4.2,1.5,6.4c0.2,0.7-0.6,4.3,0.2,2.6
					c1-1.7,2.7-4.4,4.3-5.7c1.1-0.6,2.3-0.7,3.5-0.6c0.7,0.9,1.1,1.9,0.9,3c0,2.3-1,4.4-1.5,6.7c-2.8,5.5-3.6,9.3-4.2,14.5
					c-0.6,2-1,2.9-2.3,3.9c-1.4,1.9-3.2,3.2-4.7,5c-0.6,0.6-1.4,2.1-0.3,2.7c1.5,0.9,1.9,2.7,2.7,4.1c1.3,2.9,1,5.1,1.6,7.6
					c0,1.5,0.3,3.1-0.7,4.5c-0.7,2.2-2.6,3.6-4.1,5.3c-2.1,0.8-4.2,2-6.4,2.5c-1.6,0.1-3.3,0.6-4.9,0.3c-1.6-0.6-3.2-1.3-4.5-2.5
					C4383.9,776.4,4383.3,775.9,4382.7,775.5L4382.7,775.5z"/>
				<g id="g11770">
					<path id="path11772" class="st8" d="M4373.5,719.6c-0.8,0.7-1.8,1.2-2.1,2.2c-0.5,0.7,0.5,1.3,0.8,2c0.7,1.4,1.9,2.4,3,3.4
						c0.7,0.5,1.7,0.7,2.3,1.4c0.3,0.5,0.9,1.6,1.1,1.8c-0.2-1.3-0.6-2.6-0.5-3.9c0.7,0.1,1.7-0.1,2.1,0.7c0.7,1,1.8,1.5,2.7,2.3
						c0.7,0.1,1.6-0.2,2.2,0.1c0.7,1.6,1.6,3.1,2.7,4.5c0.8,1,1.8,1.8,2.7,2.7c0.8,0.1,1.7,0.4,2.4,0.3c0.4-0.6,1.4-0.9,1.1-1.8
						c-0.2-1.5-0.4-3-1.1-4.3c-0.9-2.1-1.8-4.3-3-6.2c-1.5-1.9-2.8-4-4.9-5.3c-0.5-0.4-1-0.7-1.5-1.1"/>
					<path id="path11774" class="st8" d="M4394.4,735.3c0.5,0.5,0.7,1.3,1.4,1.5c0.8,0.3,1.6,0.7,2.3-0.5c0.3-1.5,0.7-3.1,0.5-4.6
						c0.1-2,0.2-4,0-6c-0.1-1.3-0.9-2.4-1.3-3.6c-0.7-1.4-1-3.1-1.8-4.5c-0.6-0.9-1.3-1.8-2.1-2.5"/>
					<path id="path11776" class="st8" d="M4404.8,726c0,1.3,0.2,2.6-0.4,3.8c-0.6,1.9-1,3.9-2.1,5.6c-0.5,0.6-1,1.1-1.9,0.9
						c-1,0.1-1.6-0.9-2.2-1.6"/>
					<path id="path11778" class="st8" d="M4400.2,753.5c-0.9,1.6-2,3.1-2.5,5"/>
					<path id="path11780" class="st8" d="M4392.6,746.6c0,2,0.1,4-0.7,5.9c-0.3,0.5-0.6,0.9-0.9,1.4"/>
					<path id="path11782" class="st8" d="M4413.1,721c-0.9,0-1.9-0.2-2.6,0.5c-0.5,1.6-0.5,3.5,0,5.1c0.5,0.7,0.9,1.4,1.7,1.8"/>
					<path id="path11784" class="st8" d="M4403,733.4c-0.1-0.7,0.1-2.5-0.1-3.1c-0.6-0.5-1.3-0.8-2.1-0.6c-0.8,0-1.2,0.8-1.3,1.5
						c-0.2,0.6-0.4,1.1-0.6,1.7"/>
					<path id="path11786" class="st8" d="M4398.3,733.9c-0.5-0.8-0.6-1.8-1.3-2.4c-0.6-0.5-1.3-0.7-1.9-0.1
						c-0.7,0.9-0.5,2.8-0.5,3.9"/>
					<path id="path11788" class="st8" d="M4393.7,733.5c-0.7-0.5-2.3-2.1-3.2-1.9c-1-0.3-1.2,0.3-1,1.2c-0.1,0.8,0.1,1.5,0.6,2.2
						c0.4,0.7,1,1.3,1.5,1.9"/>
				</g>
				<path id="path11790" class="st29" d="M4390.1,736.7c0,0-1.2,1.5-1.8,2.3c-0.7,0.9-1.3,1.9-1.9,2.8c-0.8,1.3-1.3,2.6-2.1,3.9
					c-0.8,1.3-1.9,2.5-2.7,3.9c-0.8,1.4-1.3,3-1.9,4.4c-0.7,1.4-1.3,2.9-2.1,4.2c-0.8,1.5-1.9,2.8-2.7,4.2c-0.8,1.5-1.3,3.2-2.1,4.8
					c-0.6,1.2-1.4,2.3-1.9,3.5c-0.4,0.9-0.6,1.8-1.1,2.7c-0.4,0.7-1.4,1.9-1.4,1.9s1.6-1.2,2.5-1.6c0.7-0.3,1.4-0.4,2.1-0.5
					c0.2,0,0.7,0,0.7,0s1.1-3.2,1.8-4.8c0.6-1.4,1.5-2.7,2.1-4.1c0.5-1.2,0.9-2.5,1.4-3.7c0.7-1.5,1.6-2.8,2.3-4.2
					c0.7-1.4,1.1-3,1.8-4.4c0.5-1.2,1.1-2.3,1.8-3.4c0.7-1.2,1.5-2.4,2.3-3.6c0.4-0.7,0.9-1.3,1.4-2c0.6-1,1.3-2.1,1.8-3
					c0.4-1.2,1.1-1.7,1.9-2.8C4391.3,737.7,4391.1,737.6,4390.1,736.7L4390.1,736.7z"/>
				<g id="g11792">
					<path id="path11794" class="st8" d="M4577.8,718.1c1.4,0.8,4.6,0,6,1.5c1.1,1.1,0.2,3.2,1,4.5c0.4,0.6,0.9,1.1,1.6,1.2
						c1.1,0.3,2.4-1,3.4-0.5c1.5,0.7,1.7,2.9,2.7,4.2c0.3,0.4,0.6,1,1.1,1.2c1.5,0.6,3.2-0.9,4.7-0.5c1.4,0.4,2.3,1.7,3.3,2.8
						c0.7,0.7,1,1.9,1.9,2.2c1.3,0.4,2.6-1.1,4-1c1.3,0.1,2.2,1.2,3.5,1.5c2.1,0.6,4.3,0.4,6.5,0.9c2.2,0.5,4.2,1.5,6.3,2.3"/>
					<path id="path11796" class="st8" d="M4523.3,575.6c5.4,2.8,11.2,5.4,15.5,9.8c4.5,4.6,7,10.8,9.8,16.5
						c5,10.4,8.1,21.6,12.3,32.4c3.2,8.2,5.9,16.6,9.9,24.4c4.8,9.4,13.2,21,16.8,26.9"/>
					<path id="path11798" class="st8" d="M4546.3,587.9c2.9,4.9,6.5,9.4,8.8,14.6c1.6,3.6,2,7.6,3.2,11.4c2.5,7.6,5.6,15,8.6,22.5
						c4.1,10.4,8.2,20.8,12.4,31.1c2.2,5.3,3.9,10.7,6.7,15.7c4.7,8.3,11.3,15.4,16.6,23.4c4.6,7,9,14.2,13,21.6
						c0,0.1,0.1,0.2,0.1,0.2"/>
					<path id="path11800" class="st8" d="M4576,658.9c2.7,5.2,6.6,12,10.7,17.4c4.9,6.4,11.5,11.5,16.8,17.7
						c5.6,6.6,11.7,13,15.9,20.5c2.5,4.5,4.4,9.4,5.6,14.4"/>
					<path id="path11802" class="st8" d="M4525.8,597.9c1.3,2.7,2.8,5.1,3.7,7.8c1.2,3.6,0.7,7.7,2.2,11.1c1.3,3,5,4.8,5.6,7.9
						c0.6,3.1-1.3,6.2-2.2,9.2c-0.7,2.4-2.5,4.5-2.5,7c0,4.6,4,8.5,4.4,13.1c0.3,2.7-0.5,5.3-1,7.9c-0.3,1.5-1.2,4.1-1.3,4.6"/>
					<path id="path11804" class="st8" d="M4530.1,599.9c1.9,4.7,4.2,12.1,6.8,15.1c2.3,2.7,4.5,6.1,4.6,9.7c0.1,2.7-2.2,4.9-3.1,7.5
						c-0.6,1.6-1.5,3.2-1.5,4.9c-0.1,1.9,0.8,3.7,1.1,5.6c0.9,5.2,5.3,11.1,2.5,15.6c-0.7,1.2-1.9,3-3.9,1.2"/>
					<path id="path11806" class="st8" d="M4533.8,601.6c2.4,4.8,5.9,9.1,8.2,13.9c1,2.1,2.3,4.3,2.5,6.7c0.2,2.7-1.2,5.3-1.7,8
						c-0.7,4.4-2.1,9-1.4,13.4c0.4,2.6,2.7,4.7,3.3,7.3c0.4,1.8,1.4,4.2,0.2,5.6c-1.1,1.2-2.9,1.9-3.6-0.7"/>
					<path id="path11808" class="st8" d="M4547.6,623.7c-1.1,5.7-3.2,9.8-3.1,14.9c0,3.2,1.6,6.2,2.2,9.4c0.7,3.8,2.8,7.8,1.7,11.6
						c-0.5,1.7-1.6,4.3-3.3,4c-1.4-0.3-2.2-2.9-1.4-4.1c0.4-0.5,1.5-1.4,2,0"/>
					<path id="path11810" class="st8" d="M4541.5,660.1c-0.8,1.9-0.7,4.1,0.5,5.5c1,1.2,3,1.7,4.6,1.4c1.5-0.3,2.9-1.4,3.7-2.7
						c1.2-2,1.1-4.7,1.1-7c0-4.7-2.2-9.3-2.4-14c-0.3-5,0.1-10,1-14.9c0-0.3,0.2-0.5,0.2-0.8"/>
					<path id="path11812" class="st8" d="M4538.3,660.6c-1,7.2,3.3,9.6,7.5,11.2c1.9,0.7,4.7,0.1,6-1.5c4.5-5.4,1.4-14,1-21.1
						c-0.1-2-0.6-3.9-0.8-5.8"/>
					<path id="path11814" class="st8" d="M4557.3,655.9c-0.5,5.3-0.1,10.8-1.6,15.9c-0.5,1.6-0.8,3.7-2.4,4.3
						c-1.7,0.6-3.2-1.9-5-1.8c-1.7,0.1-2.3,4.5-4.6,2.5c-1.9-1.7-3.6-3.7-3.6-3.7"/>
					<path id="path11816" class="st8" d="M4541.8,679.4c3.4,6.1,6.3-1.6,9.8,0.6c1.5,1,3.6-1.4,4.7-2.9c2.8-4,2.5-9.4,3.3-14.2"/>
					<path id="path11818" class="st8" d="M4549.5,684.6c3.3-1,2-0.4,3-0.8c1.6-0.6,3.3-1.2,4.4-2.5c2.2-2.6,2.4-6.3,3.6-9.5"/>
					<path id="path11820" class="st8" d="M4552,686.6c1.9-0.5,3.7-1,5.1-2.2c1.6-1.4,2.5-3.4,3.4-5.5"/>
					<path id="path11822" class="st8" d="M4474.3,598.4c-0.5,1.7-1.6,3.4-1.7,5.2c-0.4,4.9,3.2,9.7,2.4,14.5
						c-0.2,1.4-1.4,2.5-2.1,3.8c-0.7,1.3-1.7,2.4-2.1,3.8c-0.5,1.5-0.5,3.2-0.4,4.8c0.1,2.1,1.1,4.2,1.3,6.3c0.2,3-5.9,6-0.3,9
						c1.8,1,0.1,4.1-0.3,6.1c-0.6,2.8-2.7,5.2-2.9,8c-0.2,2.7,0.3,5.6,1.6,7.9c1.2,2.1,3.4,3.6,5.5,5c1.1,0.7,2.4,1.3,3.7,1.6
						c2.9,0.7,6.4-1.1,9,0.5c0.8,0.5,1.6,1.6,1.4,2.5c-0.3,1.1-1.6,1.6-2.7,1.8c-1.2,0.2-2.4-0.3-3.5-0.6c-1.4-0.4-2.7-1.3-4.2-1.4
						c-1.2-0.1-2.7-0.3-3.5,0.6c-0.8,0.9-0.3,2.3-0.1,3.4c0.5,2.3,2.6,4,2.9,6.3c0.2,1.2,0.1,2.5-0.5,3.5c-0.2,0.3-0.5,0.4-0.8,0.6"
						/>
					<path id="path11824" class="st8" d="M4477,597.9c-0.2,2.4-0.3,4.8-0.4,7.2c-0.1,4.6,0.6,9.3,0.3,13.9c-0.1,1.9-0.6,3.7-0.9,5.5
						c-0.4,1.8-1,3.6-1.2,5.4c-0.5,4.1,1,8.7-0.4,12.4c-0.6,1.5,2.4,2.5,2.5,4.1c0.2,2.2-1.5,4.2-2.3,6.2c-1.1,2.7-3.4,5.1-3.6,8
						c-0.1,2.4,1.1,4.7,2.3,6.8c1.2,2.2,3.5,4.2,4.7,6"/>
					<path id="path11826" class="st8" d="M4479.8,646.6c-0.7,2.5-1.8,4.8-2.5,7.3c-0.7,2.2-1.5,4.5-1.8,6.8c-0.2,1.9-0.4,4,0.2,5.9
						c0.4,1.3,1.1,2.4,2,3.4c1.6,1.8,3.8,2.9,5.6,4.4"/>
					<path id="path11828" class="st8" d="M4481.8,653.6c-1,3.2-2.1,6.4-2.2,9.6c0,1.6,0,3.4,0.8,4.7c1.3,2.1,3.9,3.1,5.8,4.7
						c0.8,0.7,1.6,1.4,2.4,2.1"/>
					<path id="path11830" class="st8" d="M4475.3,672.9c-1.3,1.8-3.3,3.3-3.7,5.5c-0.4,1.9,0.6,3.8,1,5.7c0.3,1.2,0.9,2.4,0.9,3.7
						c0.1,1.4,0.4,3.1-0.5,4.2c-0.5,0.7-1.7,0.7-2.5,1"/>
					<path id="path11832" class="st8" d="M4485,659.6c-0.3,2.1-0.8,4.3-0.4,6.4c0.2,1.1,0.9,2.2,1.6,3.1c1.8,2.3,5.1,3.4,6.5,5.9
						c0.7,1.3,1.3,3,0.8,4.5c-0.4,1.3-1.6,2.3-2.8,2.9c-1.3,0.7-2.9,0.5-4.4,0.5c-1.2,0-2.5-1.2-3.4-0.5c-0.9,0.7-0.5,2.2-0.4,3.3
						c0.1,1,0.7,1.9,1.1,2.8"/>
					<path id="path11834" class="st8" d="M4491.3,666.1c0.1,1.2-0.4,2.6,0.2,3.6c0.8,1.4,3,1.3,3.9,2.6c1,1.4,1.4,3.2,1.4,4.9
						c0,1.4-0.4,2.7-0.9,4c-0.4,1.1-0.9,2.3-1.8,3c-1.8,1.5-5.9,0-6.6,2.2c-0.2,0.6,0.7,1,1,1.5"/>
				</g>
				<path id="path11836" class="st31" d="M4456.9,709.9c-2.1-1.7-4.4-3.3-6.7-4.8c-0.2-1.6,0-3.1,1.2-4.2c1.2-0.8,3.3-0.5,4.2-1
					c0.2-1.3-1-3.6,1-3.8c1.3-0.8,3-1,4.3-0.6c1.1,1,2.5,1.9,2.5,3.7c0.5,1.5-1.1,2.7-2,3.7c-1.9,0.5-1.1,2.5,0.4,2.7
					c1.5,0.5,2.9-0.8,4.2-0.5c1.8,0,0.9,3.1-0.5,3c-2.9,0.5,0.3,0.3,1.5,0.3c1.4,1.3,0,2.9-0.7,4.2c2.3-1.1,4.9-2.3,7.5-1.3
					c1.2,1.5,1.6,3.6,1.9,5.5c2.1-0.1,4.3,0.2,6.4-0.2c-0.3-1.5-1.1-3.3,1-3.6c1-0.4,3.2,0.7,3.3,1.9c0.7,1.5-0.2,2.6-1.3,3.5
					c1.9-1,3.8-1.7,5.9-1.6c1.8-0.1,3.5,0.4,5.2,0.9c1.1,1.2,0.1,3.3-0.3,3.5c1.3-1,2.2-3,4.1-2.5c1.3-0.4,3.9,1.3,1.6-0.4
					c-2-0.9-1.5-2.1-0.2-3.3c1.4-0.3,3,0.4,3.9,1.6c1.4,2.2,1.4,0.2,2.8-0.2c1.3-0.4,3.6,0.6,2.7,2.2c0.4,0.7,2.4-1.7,3.6-1.6
					c2-0.7,2.2,1.1,1.6,2.5c-2.1,1.6-0.9,1.5,0.9,0.8c2.3-0.7,4.9-1.6,7.3-0.9c1.7,1.5,1.4,1.1,1.8-1.1c0.8-1.4,2.9-1.8,4.5-2
					c1.5-0.2,3.6,0.2,3.9,2c0.2,2.4,1.5-1,2.7-1.2c1.6-1.3,3.8-0.7,5.7-1.4c1.8-0.8,2.6,1.6,3.5,2.7c-0.5-1.7,0.3-3.2,0.9-4.8
					c1.6-0.8,3.5-0.7,5.3-0.7c-0.8-1.4-1.4-2.7,0-3.9c1.5-1.7,3.9-0.6,5.7,0c0.4,0.3,0.5-3.1,1.9-3.1c1.5-0.6,3.3,0.6,2.6,1.4
					c0.4-2,2.1-3.9,4.3-3.5c0.7,0.4,2.8,2.5,2,3c-4.3,2-6.6,4.2-10.6,6.7c-2.8,1.9-7,4.8-10.3,5.7c-4.5,1.8-9.1,3.4-13.7,4.6
					c-5.3,1-10.6,1.8-16,2c-5.2,0.5-10.4,0.8-15.6,0.5c-4.4,0.2-8.5-1.5-12.7-2.3c-3.8-0.9-7.7-1.2-11.4-2.4c-4.8-2-9.7-4-14.2-6.7
					C4461.8,713.7,4459.4,711.7,4456.9,709.9L4456.9,709.9z"/>
				<path id="path11838" class="st7" d="M4453.2,707.4c-2.1,2.3-4,4-6.1,5.9c-2.1,2-4.5,3.7-6.3,5.9c-1.9,2.3-3.6,4.8-4.7,7.5
					c-1,2.6-1.5,5.4-1.7,8.2c-0.2,3,0.3,6.1,0.7,9.1c0.9,7,2.7,13.8,3.7,20.7c1,7.5,0.4,15.2,2,22.5c0.9,4,2.2,7.9,4.1,11.6
					c1,1.9,2.2,3.7,3.6,5.3c2.4,3,5.4,5.4,7.8,8.3c8.3,0,16.5,0,24.7,0c-2.2-3.8-3.6-7.9-5.8-11.7c-1.5-2.7-3.2-5.3-5-7.8
					c-1.5-2.1-3.1-4.2-5-6c-1.7-1.7-3.9-2.8-5.5-4.5c-3.3-3.4-6-7.4-8.7-11.3c-1.4-2.1-3-4.1-4-6.5c-1.8-4.3-2.8-9-3.1-13.7
					c-0.3-5.6,1.3-11.1,1.8-16.7c0.2-2.6-0.2-5.2,0.5-7.7c0.9-3.4,2.7-6.4,4.6-9.3c1.7-2.7,4.3-4.8,6.1-7.5
					C4456,708.8,4454.5,708.1,4453.2,707.4L4453.2,707.4z"/>
				<g id="g11840">
					<path id="path11842" class="st8" d="M4440.1,735c0.1,2.6,0.1,5.3,0.4,7.9c0.2,2.2,0.5,4.5,1.1,6.7c0.3,1,0.6,2,1.1,2.9
						c0.7,1.2,1.6,2.3,2.4,3.5"/>
					<path id="path11844" class="st8" d="M4448.3,767.1c0,2.1,0.5,5,1.1,7.5c0.5,2.1,1.3,4.2,2.2,6.1c1.4,2.9,3.4,5.5,5,8.3
						c1,1.8,1.8,3.8,2.9,5.6c1,1.8,2.2,3.5,3.4,5.1c0.8,1,1.6,2,2.4,3"/>
				</g>
				<path id="path11846" class="st30" d="M4454.3,713.4c4.5,4.1,10.1,6.5,15.3,9.6c-4.9,11.4-5.4,25,0.3,36.1
					c5.3,9.8,9.5,20.2,14.1,30.3c3,7.4,2.3,15.1,2.4,22.9l3.6,0.4c1-16.9-2-22-6.2-34c-3.9-11.1-11.8-20.8-12.7-32.9
					c-1.5-7.2,0.8-14.2,2.6-21.1c2.2,0.6,4.3,1.3,6.5,1.9c-2.6,7.9-2.3,17,2.6,24c3.6,5.4,8.7,10.7,14.9,12.7
					c5.4,1.8,11.8,1.2,17-1.2c5.3-2.4,8.9-7.3,12.3-12.2c3.6-6.3,6.3-14.6,5.4-22l9.7-1.9c-0.1,2.4-0.1,2.7-0.7,6.2
					c-1.3,8.3-5,16-9.7,22.8c-4.3,5.9-8.1,12.2-11.6,18.5c-2.7,6.5-4.7,13.2-5.5,20.2c-1.1,5.5-1.5,13.3-1.2,18.8l4.1-0.4
					c-1-11.1,0.8-20.6,4-30.3c3.6-10.4,10.7-19.5,16.6-28.6c4.3-8.5,9-18.7,8.4-28.4c3.8-2.4,9.6-4.3,13.9-7.7
					c1.6-1.2,8.3-5.9,10.2-7.8l-1.7-3.3c-2.8,1.4-6.5,5-8.6,6c-5.8,4.9-12.5,7.6-19.5,9.9c-7.8,3.5-16.6,3.3-24.9,4.4
					c-5.9-0.1-11.9,1.3-17.7-0.5c-6.1-0.6-12.1-2.1-17.9-3.9c-6-1.4-11.8-3.5-16.7-7.3c-3-1.1-3.8-3-6.8-5.3
					C4456.6,709.9,4454.6,713,4454.3,713.4L4454.3,713.4z"/>
				<path id="path11848" class="st32" d="M4484,727.9c-0.3,0,4.8,0.5,7.3,1.5c-0.4,1.5-1.2,2.9-1.3,4.5c-0.1,0.9,0.1,1.9,0.4,2.7
					c0.6,1.8,1.6,3.4,2.6,5c1.7,2.5,4,4.4,5.8,6.8c1.3,1.8,1.8,4.3,3.6,5.5c0.7,0.4,1.6,0.6,2.4,0.4c0.9-0.1,1.8-0.7,2.5-1.3
					c1.1-1,1.6-2.7,2.5-3.9c1.4-1.7,3-3.2,4.6-4.7c1-0.9,2.2-1.4,3.2-2.3c0.8-0.8,1.4-1.7,1.9-2.7c0.6-1.3,1.1-2.7,1.4-4.1
					c0.1-0.8,0.3-1.7,0-2.5c-0.4-1.2-1.4-2.1-2.1-3.2c3.4-0.3,6.8-0.7,10.3-1c0,2.3,0.2,4.7-0.1,7c-0.2,2.1-0.7,4.2-1.3,6.3
					c-0.5,1.6-1.1,3.2-1.9,4.7c-0.9,1.7-2.1,3.2-3.3,4.7c-1.2,1.5-2.3,3.1-3.8,4.3c-2.3,1.9-4.9,3.7-7.8,4.6c-2,0.7-4.1,0.8-6.2,0.7
					c-2-0.1-4-0.5-5.9-1c-1.2-0.3-2.4-0.5-3.4-1.2c-3.1-1.9-5.7-4.7-7.8-7.6c-1.7-2.4-2.9-5.2-3.7-8c-0.7-2.4-1.1-5-1.2-7.5
					c0-1.6,0.2-3.2,0.5-4.8C4483.3,729.8,4483.7,728.8,4484,727.9L4484,727.9z"/>
				<path id="path11850" class="st8" d="M4488.9,728.7c0,0-4.7,1.8-5.4,3.8c-0.8,2.2,6.1,0.7,6.4,3c0.4,2.8-7.2,2.7-6.5,5.4
					c0.8,3.1,8.1-1.1,9.4,1.7c1.4,3-6.7,6.1-4.7,8.8c2.2,2.8,7.9-4.8,10.5-2.3c2.3,2.2-4.4,7.4-1.8,9.3c2.1,1.6,4.4-3.7,7-3.5
					c2.5,0.2,3.6,5.5,5.9,4.5c3.1-1.4-2.3-8.6,0.7-10.1c2.9-1.5,5.5,7.1,8.2,5.3c3-2-4.8-8.3-2.1-10.8c2.2-2,6.6,4.6,8.5,2.4
					c2-2.4-5.4-5.6-4.3-8.5c1-2.6,8.6-0.1,7.9-2.8c-0.6-2.3-8.4-5.1-8.4-5.1"/>
				<path id="path11852" class="st18" d="M4505,735.2c0,0,0.5-2.8,1.3-3.7c0.9-0.9,2.4-1.3,3.7-1.3c1.2,0,2.8,0.5,3.7,1.3
					c0.9,0.9,1.3,2.4,1.3,3.7c0,1.2-0.7,3-1.3,3.7c-0.7,0.7-1.3,1-2,1.7s-1,0.7-1.7,1.3c-0.7,0.7-1,1-1.7,1.7s-1.7,2-2.3,3.3
					c-0.7,1.3-1,3.3-1,3.3s-0.3-2-1-3.3s-1.7-2.7-2.3-3.3c-0.7-0.7-1-1-1.7-1.7s-1-0.7-1.7-1.3c-0.7-0.7-1.3-1-2-1.7
					s-1.3-2.4-1.3-3.7c0-1.2,0.5-2.8,1.3-3.7c0.9-0.9,2.4-1.3,3.7-1.3c1.2,0,2.8,0.5,3.7,1.3C4504.5,732.5,4505,735.2,4505,735.2z"
					/>
				<path id="path11854" class="st14" d="M4434.3,734.6c-1.5,1.4-3.3,2.6-4.6,4.2c-1.9,2.4-2.9,5.3-4.4,7.9c-1,1.8-2.8,3.2-3,5.2
					c-0.1,0.7-0.1,1.6,0.5,2c0.6,0.4,1.4,0,2.1-0.3c2-0.9,3.4-2.7,5-4.1c-1.3,1.2-2.3,2.7-3.7,3.6c-2.4,1.5-5.8,1.3-8,3.1
					c-1.4,1.2-1.7,3.4-2.9,4.8c-0.6,0.6-1.3,1.2-2.1,1.5c-0.8,0.4-1.6,0.5-2.5,0.7c0.5,1.9,1,3.8,1.5,5.8c0.8-0.8,1.4-2,2.4-2.5
					c1.4-0.7,3.2-0.7,4.8-0.7c1.2,0,2.5,0.1,3.7,0.5c1.4,0.4,2.9,0.9,4,1.9c2.1,1.9,3,4.7,4.3,7.1c0.6,1.2,1.1,2.5,1.7,3.6
					c0.6,1.1,1.6,2,2.2,3.1c0.6,1,0.9,2.3,1.5,3.3c1.2,1.8,3.2,3,4.5,4.9c0.6,0.9,1,1.9,1.4,2.9c-0.7-2.9-1.6-5.7-2-8.7
					c-0.5-3.5-0.3-7.1-0.5-10.7c-0.2-2.9-0.2-5.7-0.6-8.5c-0.4-3.3-1.3-6.5-2-9.7c-0.7-3.4-1.6-6.8-2.1-10.3
					C4434.8,741.7,4434.6,738.2,4434.3,734.6L4434.3,734.6z"/>
				<g id="g11856">
					<path id="path11858" class="st8" d="M4458.5,724.7c-3.3,2.5-6.4,5.4-8.9,8.6c-1.6,2-2.9,4.3-4,6.7c-0.2,0.5-0.3,1.1-0.5,1.7"/>
					<path id="path11860" class="st8" d="M4453.9,718.3c-0.8,1.7-2.1,3.2-2.5,5c-0.6,2.5-0.4,5.2,0,7.7"/>
					<path id="path11862" class="st8" d="M4451.8,765c3,2,5.7,4.4,8.8,6.2c2.9,1.6,5.9,3,9,3.8c2.4,0.6,6.1,0.4,7.5,0.5"/>
					<path id="path11864" class="st8" d="M4454.3,772.1c3.6,2.2,6.9,5.2,10.8,6.8c4.8,2,11.3,2.2,15.3,3.3"/>
					<path id="path11866" class="st8" d="M4462.4,780.9c3.3,1.8,6.4,4.2,9.9,5.6c3.5,1.3,8.1,2.3,10.9,2.3"/>
					<path id="path11868" class="st8" d="M4469.5,788c2.8,1.3,5.5,2.9,8.5,3.8c2,0.6,5.3,0.7,6.3,0.9"/>
					<path id="path11870" class="st8" d="M4474.4,793.3c2.4,1.2,4.8,2.1,7.3,2.8c1.1,0.3,3.2,0.5,3.3,0.5"/>
					<path id="path11872" class="st8" d="M4477.3,797.5c1.6,0.7,6.3,2.7,8.6,2.9"/>
					<path id="path11874" class="st8" d="M4479.4,801.8c1.2,0.6,5.5,1.3,6.7,1.9"/>
					<path id="path11876" class="st8" d="M4480.8,805.7c0.9,0.4,4.6,1.1,5.6,1.4"/>
					<path id="path11878" class="st8" d="M4525.3,773.8c3.9,0.1,10.9,0.5,16.3,0c3.5-0.3,7.1-0.7,10.4-1.8c3-1,5.8-2.6,8.5-4.2
						c2-1.2,4-2.3,5.6-4c1.5-1.7,2.7-3.7,3.5-5.8c1.1-2.8,1.5-5.8,1.7-8.8c0.1-1.4,0.1-2.8-0.2-4.1c-0.1-0.5-0.4-1-0.6-1.6"/>
					<path id="path11880" class="st8" d="M4575.6,749.1c-0.5,2.8-0.5,5.7-1.5,8.3c-0.9,2.5-2.4,4.7-4,6.8c-2.1,2.7-4.4,5.4-7.3,7.3
						c-3.1,2-6.8,2.8-10.3,3.8c-3.7,1.1-7.5,2-11.3,2.5c-3.4,0.4-6.9,0.4-10.4,0.5c-2.4,0.1-6.3-0.1-7.3,0.1"/>
					<path id="path11882" class="st8" d="M4521,784.2c6.1-0.6,15.4,0.3,22.9-1.2c4.1-0.8,8-2.7,11.9-4.3c2.3-1,4.7-2,6.8-3.3
						c3.9-2.6,6.7-6.1,10.7-9.3"/>
					<path id="path11884" class="st8" d="M4519.3,790.5c5.1-0.7,13.3-0.5,19.7-2.2c5.8-1.5,11-4.7,16.5-7"/>
					<path id="path11886" class="st8" d="M4518.5,796.6c4.4-1.4,12.2-2.5,18.2-4.4c3.6-1.2,7-2.6,10.4-4.3c3.8-1.9,7.4-4.3,11-6.5
						c1.7-1.1,3.4-2.2,5.1-3.3"/>
					<path id="path11888" class="st8" d="M4517.5,803c4.5-1.5,12.8-3.3,19-5.6c5.3-2,10.5-4.4,15.6-7c1.8-0.9,3.4-2.1,5.1-3.1"/>
					<path id="path11890" class="st8" d="M4518,807.5c5.5-2,11.1-2.3,16.4-4.1c4.7-1.7,10.8-5,13.7-6.2"/>
					<path id="path11892" class="st8" d="M4491.5,776.4c4.1,0.7,6.5,1,9.8,1.1c4.1,0.1,8.1-0.3,12.2-0.8c1.9-0.2,3.7-0.7,5.6-1"/>
					<path id="path11894" class="st8" d="M4494,782.4c3.3,0.2,7.8,0.5,11.7,0.4c3.5-0.1,7-0.1,10.5-0.9"/>
					<path id="path11896" class="st8" d="M4494.6,788c3.1,0.2,6.3,0.8,9.4,0.7c3.8-0.2,7.3-1.2,11.2-1.9"/>
					<path id="path11898" class="st8" d="M4495.2,792.7c3.1,0,7.2,0.4,10.8,0.2c1.7-0.1,3.3-0.4,5-0.7c1.2-0.3,2.3-0.7,3.5-1"/>
					<path id="path11900" class="st8" d="M4494.6,796.8c3.6,0.1,7.2,0.5,10.7,0.3c2.9-0.1,6.1-0.7,8.7-1"/>
					<path id="path11902" class="st8" d="M4494.1,802.1c3.3,0,6.6,0.1,9.8,0c3.2-0.1,6.8-0.4,9.6-0.7"/>
					<path id="path11904" class="st8" d="M4492.4,806.7c3.3,0,6.6,0.1,10,0c3.6-0.2,7.8-0.4,10.7-0.9"/>
					<path id="path11906" class="st8" d="M4491,809.9c3.6,0,7.2,0.2,10.8,0c3.8-0.2,7.9-0.7,11.2-1.1"/>
				</g>
				<path id="path11908" class="st13" d="M4382.8,775.1c-0.7-0.2-1.6,0.3-2,0.9c-0.7,1-0.4,2.5-0.4,3.7c0,1.3,0.3,2.5,0.6,3.8
					c0.3,1.3,1,2.6,1.2,4c0.4,2.1,0.5,4.3,0.3,6.4c-0.1,1.1-1.1,2.1-0.9,3.1c0.1,0.7,0.6,1.5,1.2,1.6c0.8,0.2,1.5-0.6,2.2-1.1
					c0.8-0.6,1.2-1.6,1.9-2.3c0.4-0.4,1.1-0.5,1.4-1c0.6-0.9,0.1-2.1,0.6-3c0.4-0.7,0.9-1.8,1.8-1.8c1.1,0,1.5,1.6,2.2,2.4
					c0.5,0.6,1,1.2,1.5,1.9c0.9,1.1,1.9,2.1,2.7,3.2c1.3,1.8,1.1,5.4,3.3,5.7c0.6,0.1,1.1-0.7,1.4-1.2c0.7-1.3,0.3-2.9,0.9-4.3
					c0.4-1,1-1.8,1.6-2.7c0.8-1.1,1.6-2.2,2.5-3.2c0.6-0.6,1.4-0.9,1.9-1.5c0.5-0.7,0.8-1.5,0.9-2.3c0.3-1.5,0.2-3,0.2-4.5
					c0-0.7-0.4-1.6,0.1-2c0.5-0.4,1.3-0.1,1.8,0.2c1.9,1.1,2.2,3.9,3.9,5.2c0.9,0.7,1.9,1.2,3,1.3c0.8,0.1,1.8,0.1,2.3-0.5
					c0.4-0.6,0.1-1.5-0.2-2.2c-0.7-2-2.7-3.2-3.8-5c-1.5-2.5-2.8-5.3-3.8-8.1c-1.1-2.8-1.1-6-2.5-8.7c-0.7-1.4-1.6-2.9-2.8-3.9
					c-0.8-0.7-1.7-1.1-2.7-1.4c-0.7-0.2-1.8-0.6-2.3,0c-0.9,1.3,1.4,2.9,1.8,4.5c0.5,2.2,0.8,4.6,0.4,6.9c-0.2,1.4-0.9,2.7-1.7,3.9
					c-0.9,1.3-2.1,2.5-3.4,3.4c-1,0.7-2.1,1.1-3.3,1.5c-1.8,0.6-3.6,1.4-5.5,1.5c-1.3,0.1-2.6-0.1-3.8-0.6c-1.3-0.5-2.4-1.5-3.4-2.4
					C4383.6,776.2,4383.4,775.2,4382.8,775.1L4382.8,775.1z"/>
				<path id="path11910" class="st7" d="M4382,787.4c-1.5-0.8-3.2,1.3-4.5,2.5c-1.8,1.6-2.7,4-4,6.1c-0.2,0.3-0.3,0.7-0.6,0.9
					c-0.6,0.2-1.3-0.6-1.9-0.4c-1.6,0.5-2.6,2.2-3.5,3.6c-0.8,1.1-1.3,2.4-1.8,3.6c-0.2,0.5-0.2,1.1-0.5,1.6c-0.3,0.5-1.1,0.5-1.4,1
					c-1.1,1.7-0.8,4.1-1,6.1c-0.2,0.6,0.5,0.3,0.9,0.4c6.7,0.1,13.4,0.2,20.1,0.2c-0.4-1.4-0.7-2.7-0.9-4.1
					c-0.3-2.2-0.5-4.4-0.6-6.5c-0.1-1.6,0-3.1,0-4.7c0-0.5-0.1-1-0.1-1.5c0-0.9,0.3-1.8,0.4-2.7c0-1.2-0.1-2.4-0.2-3.6
					C4382.2,788.9,4382.7,787.7,4382,787.4L4382,787.4z"/>
				<g id="g11912">
					<path id="path11914" class="st8" d="M4373.3,796.1c-0.8,2.7-1.9,5.3-2.5,8c-0.3,1.3-0.3,2.6-0.5,4"/>
					<path id="path11916" class="st8" d="M4382,796.6c-1.1,1.1-2.4,2-3.3,3.3c-1.2,1.8-1.8,4.1-2.6,6.1c-0.6,1.4-1.1,2.8-1.6,4.1"/>
					<path id="path11918" class="st8" d="M4377.8,803.4c0.2,1.2,0.7,2.3,0.7,3.5c0,0.7-0.2,1.5-0.2,2.2"/>
					<path id="path11920" class="st8" d="M4415.4,771.9c1.3,0.6,3,0.7,3.9,1.8c0.9,1.2-0.2,3.4,0.9,4.4c1.4,1.4,4.5-0.2,5.8,1.2
						c1.2,1.2-0.2,3.7,0.9,5c1.4,1.7,4.4,1,6.3,2.2c1.4,0.9,2.3,2.5,3.5,3.8"/>
					<path id="path11922" class="st8" d="M4420.4,784.1c2.1,1,4.3,1.7,6.4,2.9c2.5,1.4,4.9,3.1,7.3,4.8c1,0.8,2.1,1.6,3,2.5
						c2.2,2.2,4.7,4.3,6.2,7.1c0.5,0.9,0.6,2,0.9,3"/>
					<path id="path11924" class="st8" d="M4423.9,789.4c1.6,0.7,3.9,0.7,5,2.1c1.3,1.7-0.9,4.9,0.7,6.4c1,1,3.2-0.8,4.2,0.2
						c1.8,1.6-0.5,5.4,1.2,7.1c1.7,1.6,5.1-0.6,7.1,0.7c1.8,1.2,1.9,3.9,2.8,5.8"/>
					<path id="path11926" class="st8" d="M4446.3,802.1c0.5,1.7,1.3,3.3,1.6,5.1c0.3,1.5,0.4,3.1,0.3,4.6"/>
					<path id="path11928" class="st8" d="M4382.7,802.1c0.9,1.2,1.6,2.6,2.7,3.7c1,1,2.2,1.8,3.5,2.4c1.6,0.8,3.3,1.1,5,1.7"/>
					<path id="path11930" class="st8" d="M4408.7,794.5c1-1.5,2.4-2.8,3-4.5c1-2.6,1.1-5.4,1.4-8.2"/>
					<path id="path11932" class="st8" d="M4410.8,797.2c1.1-1.9,2.4-3.6,3.2-5.6c0.7-1.8,0.8-3.8,1.2-5.7"/>
					<path id="path11934" class="st8" d="M4411.9,801.6c1.5-2.4,3.5-4.5,4.4-7.2c0.8-2.2,0.7-4.6,1-7"/>
					<path id="path11936" class="st8" d="M4410.6,806.9c2-2.2,4.5-3.9,6.1-6.5c1.4-2.3,2.1-4.9,2.6-7.6c0.4-1.8,0.3-3.6,0.5-5.4"/>
					<path id="path11938" class="st8" d="M4409.4,811.5c2.7-2.2,5.9-3.9,8-6.6c1.4-1.7,2.3-3.9,3-6c1.2-3.5,1.5-7.3,2.3-10.9"/>
					<path id="path11940" class="st8" d="M4420.7,812.2c1.6-2.6,4-4.9,4.9-7.8c1-2.9,0.4-6.1,0.7-9.2"/>
					<path id="path11942" class="st8" d="M4425.6,812.4c0.8-1.8,1.8-3.5,2.3-5.4c0.5-1.9,0.6-4,0.9-5.9"/>
					<path id="path11944" class="st8" d="M4429.5,812.4c0.7-2.3,1.2-4.6,1.7-7c0-0.1,0-0.3,0.1-0.4"/>
					<path id="path11946" class="st8" d="M4432.4,811.7c0.3-1.1,0.6-2.2,0.9-3.4"/>
				</g>
			</g>
		</g>
	</g>
</g>
</svg>
